G75*
%MOIN*%
%OFA0B0*%
%FSLAX25Y25*%
%IPPOS*%
%LPD*%
%AMOC8*
5,1,8,0,0,1.08239X$1,22.5*
%
%ADD10C,0.00000*%
D10*
X0001500Y0003000D02*
X0197500Y0003000D01*
X0197500Y0199000D01*
X0001500Y0199000D01*
X0001500Y0003000D01*
X0006201Y0012000D02*
X0006203Y0012158D01*
X0006209Y0012316D01*
X0006219Y0012474D01*
X0006233Y0012632D01*
X0006251Y0012789D01*
X0006272Y0012946D01*
X0006298Y0013102D01*
X0006328Y0013258D01*
X0006361Y0013413D01*
X0006399Y0013566D01*
X0006440Y0013719D01*
X0006485Y0013871D01*
X0006534Y0014022D01*
X0006587Y0014171D01*
X0006643Y0014319D01*
X0006703Y0014465D01*
X0006767Y0014610D01*
X0006835Y0014753D01*
X0006906Y0014895D01*
X0006980Y0015035D01*
X0007058Y0015172D01*
X0007140Y0015308D01*
X0007224Y0015442D01*
X0007313Y0015573D01*
X0007404Y0015702D01*
X0007499Y0015829D01*
X0007596Y0015954D01*
X0007697Y0016076D01*
X0007801Y0016195D01*
X0007908Y0016312D01*
X0008018Y0016426D01*
X0008131Y0016537D01*
X0008246Y0016646D01*
X0008364Y0016751D01*
X0008485Y0016853D01*
X0008608Y0016953D01*
X0008734Y0017049D01*
X0008862Y0017142D01*
X0008992Y0017232D01*
X0009125Y0017318D01*
X0009260Y0017402D01*
X0009396Y0017481D01*
X0009535Y0017558D01*
X0009676Y0017630D01*
X0009818Y0017700D01*
X0009962Y0017765D01*
X0010108Y0017827D01*
X0010255Y0017885D01*
X0010404Y0017940D01*
X0010554Y0017991D01*
X0010705Y0018038D01*
X0010857Y0018081D01*
X0011010Y0018120D01*
X0011165Y0018156D01*
X0011320Y0018187D01*
X0011476Y0018215D01*
X0011632Y0018239D01*
X0011789Y0018259D01*
X0011947Y0018275D01*
X0012104Y0018287D01*
X0012263Y0018295D01*
X0012421Y0018299D01*
X0012579Y0018299D01*
X0012737Y0018295D01*
X0012896Y0018287D01*
X0013053Y0018275D01*
X0013211Y0018259D01*
X0013368Y0018239D01*
X0013524Y0018215D01*
X0013680Y0018187D01*
X0013835Y0018156D01*
X0013990Y0018120D01*
X0014143Y0018081D01*
X0014295Y0018038D01*
X0014446Y0017991D01*
X0014596Y0017940D01*
X0014745Y0017885D01*
X0014892Y0017827D01*
X0015038Y0017765D01*
X0015182Y0017700D01*
X0015324Y0017630D01*
X0015465Y0017558D01*
X0015604Y0017481D01*
X0015740Y0017402D01*
X0015875Y0017318D01*
X0016008Y0017232D01*
X0016138Y0017142D01*
X0016266Y0017049D01*
X0016392Y0016953D01*
X0016515Y0016853D01*
X0016636Y0016751D01*
X0016754Y0016646D01*
X0016869Y0016537D01*
X0016982Y0016426D01*
X0017092Y0016312D01*
X0017199Y0016195D01*
X0017303Y0016076D01*
X0017404Y0015954D01*
X0017501Y0015829D01*
X0017596Y0015702D01*
X0017687Y0015573D01*
X0017776Y0015442D01*
X0017860Y0015308D01*
X0017942Y0015172D01*
X0018020Y0015035D01*
X0018094Y0014895D01*
X0018165Y0014753D01*
X0018233Y0014610D01*
X0018297Y0014465D01*
X0018357Y0014319D01*
X0018413Y0014171D01*
X0018466Y0014022D01*
X0018515Y0013871D01*
X0018560Y0013719D01*
X0018601Y0013566D01*
X0018639Y0013413D01*
X0018672Y0013258D01*
X0018702Y0013102D01*
X0018728Y0012946D01*
X0018749Y0012789D01*
X0018767Y0012632D01*
X0018781Y0012474D01*
X0018791Y0012316D01*
X0018797Y0012158D01*
X0018799Y0012000D01*
X0018797Y0011842D01*
X0018791Y0011684D01*
X0018781Y0011526D01*
X0018767Y0011368D01*
X0018749Y0011211D01*
X0018728Y0011054D01*
X0018702Y0010898D01*
X0018672Y0010742D01*
X0018639Y0010587D01*
X0018601Y0010434D01*
X0018560Y0010281D01*
X0018515Y0010129D01*
X0018466Y0009978D01*
X0018413Y0009829D01*
X0018357Y0009681D01*
X0018297Y0009535D01*
X0018233Y0009390D01*
X0018165Y0009247D01*
X0018094Y0009105D01*
X0018020Y0008965D01*
X0017942Y0008828D01*
X0017860Y0008692D01*
X0017776Y0008558D01*
X0017687Y0008427D01*
X0017596Y0008298D01*
X0017501Y0008171D01*
X0017404Y0008046D01*
X0017303Y0007924D01*
X0017199Y0007805D01*
X0017092Y0007688D01*
X0016982Y0007574D01*
X0016869Y0007463D01*
X0016754Y0007354D01*
X0016636Y0007249D01*
X0016515Y0007147D01*
X0016392Y0007047D01*
X0016266Y0006951D01*
X0016138Y0006858D01*
X0016008Y0006768D01*
X0015875Y0006682D01*
X0015740Y0006598D01*
X0015604Y0006519D01*
X0015465Y0006442D01*
X0015324Y0006370D01*
X0015182Y0006300D01*
X0015038Y0006235D01*
X0014892Y0006173D01*
X0014745Y0006115D01*
X0014596Y0006060D01*
X0014446Y0006009D01*
X0014295Y0005962D01*
X0014143Y0005919D01*
X0013990Y0005880D01*
X0013835Y0005844D01*
X0013680Y0005813D01*
X0013524Y0005785D01*
X0013368Y0005761D01*
X0013211Y0005741D01*
X0013053Y0005725D01*
X0012896Y0005713D01*
X0012737Y0005705D01*
X0012579Y0005701D01*
X0012421Y0005701D01*
X0012263Y0005705D01*
X0012104Y0005713D01*
X0011947Y0005725D01*
X0011789Y0005741D01*
X0011632Y0005761D01*
X0011476Y0005785D01*
X0011320Y0005813D01*
X0011165Y0005844D01*
X0011010Y0005880D01*
X0010857Y0005919D01*
X0010705Y0005962D01*
X0010554Y0006009D01*
X0010404Y0006060D01*
X0010255Y0006115D01*
X0010108Y0006173D01*
X0009962Y0006235D01*
X0009818Y0006300D01*
X0009676Y0006370D01*
X0009535Y0006442D01*
X0009396Y0006519D01*
X0009260Y0006598D01*
X0009125Y0006682D01*
X0008992Y0006768D01*
X0008862Y0006858D01*
X0008734Y0006951D01*
X0008608Y0007047D01*
X0008485Y0007147D01*
X0008364Y0007249D01*
X0008246Y0007354D01*
X0008131Y0007463D01*
X0008018Y0007574D01*
X0007908Y0007688D01*
X0007801Y0007805D01*
X0007697Y0007924D01*
X0007596Y0008046D01*
X0007499Y0008171D01*
X0007404Y0008298D01*
X0007313Y0008427D01*
X0007224Y0008558D01*
X0007140Y0008692D01*
X0007058Y0008828D01*
X0006980Y0008965D01*
X0006906Y0009105D01*
X0006835Y0009247D01*
X0006767Y0009390D01*
X0006703Y0009535D01*
X0006643Y0009681D01*
X0006587Y0009829D01*
X0006534Y0009978D01*
X0006485Y0010129D01*
X0006440Y0010281D01*
X0006399Y0010434D01*
X0006361Y0010587D01*
X0006328Y0010742D01*
X0006298Y0010898D01*
X0006272Y0011054D01*
X0006251Y0011211D01*
X0006233Y0011368D01*
X0006219Y0011526D01*
X0006209Y0011684D01*
X0006203Y0011842D01*
X0006201Y0012000D01*
X0029201Y0163000D02*
X0029203Y0163158D01*
X0029209Y0163316D01*
X0029219Y0163474D01*
X0029233Y0163632D01*
X0029251Y0163789D01*
X0029272Y0163946D01*
X0029298Y0164102D01*
X0029328Y0164258D01*
X0029361Y0164413D01*
X0029399Y0164566D01*
X0029440Y0164719D01*
X0029485Y0164871D01*
X0029534Y0165022D01*
X0029587Y0165171D01*
X0029643Y0165319D01*
X0029703Y0165465D01*
X0029767Y0165610D01*
X0029835Y0165753D01*
X0029906Y0165895D01*
X0029980Y0166035D01*
X0030058Y0166172D01*
X0030140Y0166308D01*
X0030224Y0166442D01*
X0030313Y0166573D01*
X0030404Y0166702D01*
X0030499Y0166829D01*
X0030596Y0166954D01*
X0030697Y0167076D01*
X0030801Y0167195D01*
X0030908Y0167312D01*
X0031018Y0167426D01*
X0031131Y0167537D01*
X0031246Y0167646D01*
X0031364Y0167751D01*
X0031485Y0167853D01*
X0031608Y0167953D01*
X0031734Y0168049D01*
X0031862Y0168142D01*
X0031992Y0168232D01*
X0032125Y0168318D01*
X0032260Y0168402D01*
X0032396Y0168481D01*
X0032535Y0168558D01*
X0032676Y0168630D01*
X0032818Y0168700D01*
X0032962Y0168765D01*
X0033108Y0168827D01*
X0033255Y0168885D01*
X0033404Y0168940D01*
X0033554Y0168991D01*
X0033705Y0169038D01*
X0033857Y0169081D01*
X0034010Y0169120D01*
X0034165Y0169156D01*
X0034320Y0169187D01*
X0034476Y0169215D01*
X0034632Y0169239D01*
X0034789Y0169259D01*
X0034947Y0169275D01*
X0035104Y0169287D01*
X0035263Y0169295D01*
X0035421Y0169299D01*
X0035579Y0169299D01*
X0035737Y0169295D01*
X0035896Y0169287D01*
X0036053Y0169275D01*
X0036211Y0169259D01*
X0036368Y0169239D01*
X0036524Y0169215D01*
X0036680Y0169187D01*
X0036835Y0169156D01*
X0036990Y0169120D01*
X0037143Y0169081D01*
X0037295Y0169038D01*
X0037446Y0168991D01*
X0037596Y0168940D01*
X0037745Y0168885D01*
X0037892Y0168827D01*
X0038038Y0168765D01*
X0038182Y0168700D01*
X0038324Y0168630D01*
X0038465Y0168558D01*
X0038604Y0168481D01*
X0038740Y0168402D01*
X0038875Y0168318D01*
X0039008Y0168232D01*
X0039138Y0168142D01*
X0039266Y0168049D01*
X0039392Y0167953D01*
X0039515Y0167853D01*
X0039636Y0167751D01*
X0039754Y0167646D01*
X0039869Y0167537D01*
X0039982Y0167426D01*
X0040092Y0167312D01*
X0040199Y0167195D01*
X0040303Y0167076D01*
X0040404Y0166954D01*
X0040501Y0166829D01*
X0040596Y0166702D01*
X0040687Y0166573D01*
X0040776Y0166442D01*
X0040860Y0166308D01*
X0040942Y0166172D01*
X0041020Y0166035D01*
X0041094Y0165895D01*
X0041165Y0165753D01*
X0041233Y0165610D01*
X0041297Y0165465D01*
X0041357Y0165319D01*
X0041413Y0165171D01*
X0041466Y0165022D01*
X0041515Y0164871D01*
X0041560Y0164719D01*
X0041601Y0164566D01*
X0041639Y0164413D01*
X0041672Y0164258D01*
X0041702Y0164102D01*
X0041728Y0163946D01*
X0041749Y0163789D01*
X0041767Y0163632D01*
X0041781Y0163474D01*
X0041791Y0163316D01*
X0041797Y0163158D01*
X0041799Y0163000D01*
X0041797Y0162842D01*
X0041791Y0162684D01*
X0041781Y0162526D01*
X0041767Y0162368D01*
X0041749Y0162211D01*
X0041728Y0162054D01*
X0041702Y0161898D01*
X0041672Y0161742D01*
X0041639Y0161587D01*
X0041601Y0161434D01*
X0041560Y0161281D01*
X0041515Y0161129D01*
X0041466Y0160978D01*
X0041413Y0160829D01*
X0041357Y0160681D01*
X0041297Y0160535D01*
X0041233Y0160390D01*
X0041165Y0160247D01*
X0041094Y0160105D01*
X0041020Y0159965D01*
X0040942Y0159828D01*
X0040860Y0159692D01*
X0040776Y0159558D01*
X0040687Y0159427D01*
X0040596Y0159298D01*
X0040501Y0159171D01*
X0040404Y0159046D01*
X0040303Y0158924D01*
X0040199Y0158805D01*
X0040092Y0158688D01*
X0039982Y0158574D01*
X0039869Y0158463D01*
X0039754Y0158354D01*
X0039636Y0158249D01*
X0039515Y0158147D01*
X0039392Y0158047D01*
X0039266Y0157951D01*
X0039138Y0157858D01*
X0039008Y0157768D01*
X0038875Y0157682D01*
X0038740Y0157598D01*
X0038604Y0157519D01*
X0038465Y0157442D01*
X0038324Y0157370D01*
X0038182Y0157300D01*
X0038038Y0157235D01*
X0037892Y0157173D01*
X0037745Y0157115D01*
X0037596Y0157060D01*
X0037446Y0157009D01*
X0037295Y0156962D01*
X0037143Y0156919D01*
X0036990Y0156880D01*
X0036835Y0156844D01*
X0036680Y0156813D01*
X0036524Y0156785D01*
X0036368Y0156761D01*
X0036211Y0156741D01*
X0036053Y0156725D01*
X0035896Y0156713D01*
X0035737Y0156705D01*
X0035579Y0156701D01*
X0035421Y0156701D01*
X0035263Y0156705D01*
X0035104Y0156713D01*
X0034947Y0156725D01*
X0034789Y0156741D01*
X0034632Y0156761D01*
X0034476Y0156785D01*
X0034320Y0156813D01*
X0034165Y0156844D01*
X0034010Y0156880D01*
X0033857Y0156919D01*
X0033705Y0156962D01*
X0033554Y0157009D01*
X0033404Y0157060D01*
X0033255Y0157115D01*
X0033108Y0157173D01*
X0032962Y0157235D01*
X0032818Y0157300D01*
X0032676Y0157370D01*
X0032535Y0157442D01*
X0032396Y0157519D01*
X0032260Y0157598D01*
X0032125Y0157682D01*
X0031992Y0157768D01*
X0031862Y0157858D01*
X0031734Y0157951D01*
X0031608Y0158047D01*
X0031485Y0158147D01*
X0031364Y0158249D01*
X0031246Y0158354D01*
X0031131Y0158463D01*
X0031018Y0158574D01*
X0030908Y0158688D01*
X0030801Y0158805D01*
X0030697Y0158924D01*
X0030596Y0159046D01*
X0030499Y0159171D01*
X0030404Y0159298D01*
X0030313Y0159427D01*
X0030224Y0159558D01*
X0030140Y0159692D01*
X0030058Y0159828D01*
X0029980Y0159965D01*
X0029906Y0160105D01*
X0029835Y0160247D01*
X0029767Y0160390D01*
X0029703Y0160535D01*
X0029643Y0160681D01*
X0029587Y0160829D01*
X0029534Y0160978D01*
X0029485Y0161129D01*
X0029440Y0161281D01*
X0029399Y0161434D01*
X0029361Y0161587D01*
X0029328Y0161742D01*
X0029298Y0161898D01*
X0029272Y0162054D01*
X0029251Y0162211D01*
X0029233Y0162368D01*
X0029219Y0162526D01*
X0029209Y0162684D01*
X0029203Y0162842D01*
X0029201Y0163000D01*
X0162201Y0163000D02*
X0162203Y0163158D01*
X0162209Y0163316D01*
X0162219Y0163474D01*
X0162233Y0163632D01*
X0162251Y0163789D01*
X0162272Y0163946D01*
X0162298Y0164102D01*
X0162328Y0164258D01*
X0162361Y0164413D01*
X0162399Y0164566D01*
X0162440Y0164719D01*
X0162485Y0164871D01*
X0162534Y0165022D01*
X0162587Y0165171D01*
X0162643Y0165319D01*
X0162703Y0165465D01*
X0162767Y0165610D01*
X0162835Y0165753D01*
X0162906Y0165895D01*
X0162980Y0166035D01*
X0163058Y0166172D01*
X0163140Y0166308D01*
X0163224Y0166442D01*
X0163313Y0166573D01*
X0163404Y0166702D01*
X0163499Y0166829D01*
X0163596Y0166954D01*
X0163697Y0167076D01*
X0163801Y0167195D01*
X0163908Y0167312D01*
X0164018Y0167426D01*
X0164131Y0167537D01*
X0164246Y0167646D01*
X0164364Y0167751D01*
X0164485Y0167853D01*
X0164608Y0167953D01*
X0164734Y0168049D01*
X0164862Y0168142D01*
X0164992Y0168232D01*
X0165125Y0168318D01*
X0165260Y0168402D01*
X0165396Y0168481D01*
X0165535Y0168558D01*
X0165676Y0168630D01*
X0165818Y0168700D01*
X0165962Y0168765D01*
X0166108Y0168827D01*
X0166255Y0168885D01*
X0166404Y0168940D01*
X0166554Y0168991D01*
X0166705Y0169038D01*
X0166857Y0169081D01*
X0167010Y0169120D01*
X0167165Y0169156D01*
X0167320Y0169187D01*
X0167476Y0169215D01*
X0167632Y0169239D01*
X0167789Y0169259D01*
X0167947Y0169275D01*
X0168104Y0169287D01*
X0168263Y0169295D01*
X0168421Y0169299D01*
X0168579Y0169299D01*
X0168737Y0169295D01*
X0168896Y0169287D01*
X0169053Y0169275D01*
X0169211Y0169259D01*
X0169368Y0169239D01*
X0169524Y0169215D01*
X0169680Y0169187D01*
X0169835Y0169156D01*
X0169990Y0169120D01*
X0170143Y0169081D01*
X0170295Y0169038D01*
X0170446Y0168991D01*
X0170596Y0168940D01*
X0170745Y0168885D01*
X0170892Y0168827D01*
X0171038Y0168765D01*
X0171182Y0168700D01*
X0171324Y0168630D01*
X0171465Y0168558D01*
X0171604Y0168481D01*
X0171740Y0168402D01*
X0171875Y0168318D01*
X0172008Y0168232D01*
X0172138Y0168142D01*
X0172266Y0168049D01*
X0172392Y0167953D01*
X0172515Y0167853D01*
X0172636Y0167751D01*
X0172754Y0167646D01*
X0172869Y0167537D01*
X0172982Y0167426D01*
X0173092Y0167312D01*
X0173199Y0167195D01*
X0173303Y0167076D01*
X0173404Y0166954D01*
X0173501Y0166829D01*
X0173596Y0166702D01*
X0173687Y0166573D01*
X0173776Y0166442D01*
X0173860Y0166308D01*
X0173942Y0166172D01*
X0174020Y0166035D01*
X0174094Y0165895D01*
X0174165Y0165753D01*
X0174233Y0165610D01*
X0174297Y0165465D01*
X0174357Y0165319D01*
X0174413Y0165171D01*
X0174466Y0165022D01*
X0174515Y0164871D01*
X0174560Y0164719D01*
X0174601Y0164566D01*
X0174639Y0164413D01*
X0174672Y0164258D01*
X0174702Y0164102D01*
X0174728Y0163946D01*
X0174749Y0163789D01*
X0174767Y0163632D01*
X0174781Y0163474D01*
X0174791Y0163316D01*
X0174797Y0163158D01*
X0174799Y0163000D01*
X0174797Y0162842D01*
X0174791Y0162684D01*
X0174781Y0162526D01*
X0174767Y0162368D01*
X0174749Y0162211D01*
X0174728Y0162054D01*
X0174702Y0161898D01*
X0174672Y0161742D01*
X0174639Y0161587D01*
X0174601Y0161434D01*
X0174560Y0161281D01*
X0174515Y0161129D01*
X0174466Y0160978D01*
X0174413Y0160829D01*
X0174357Y0160681D01*
X0174297Y0160535D01*
X0174233Y0160390D01*
X0174165Y0160247D01*
X0174094Y0160105D01*
X0174020Y0159965D01*
X0173942Y0159828D01*
X0173860Y0159692D01*
X0173776Y0159558D01*
X0173687Y0159427D01*
X0173596Y0159298D01*
X0173501Y0159171D01*
X0173404Y0159046D01*
X0173303Y0158924D01*
X0173199Y0158805D01*
X0173092Y0158688D01*
X0172982Y0158574D01*
X0172869Y0158463D01*
X0172754Y0158354D01*
X0172636Y0158249D01*
X0172515Y0158147D01*
X0172392Y0158047D01*
X0172266Y0157951D01*
X0172138Y0157858D01*
X0172008Y0157768D01*
X0171875Y0157682D01*
X0171740Y0157598D01*
X0171604Y0157519D01*
X0171465Y0157442D01*
X0171324Y0157370D01*
X0171182Y0157300D01*
X0171038Y0157235D01*
X0170892Y0157173D01*
X0170745Y0157115D01*
X0170596Y0157060D01*
X0170446Y0157009D01*
X0170295Y0156962D01*
X0170143Y0156919D01*
X0169990Y0156880D01*
X0169835Y0156844D01*
X0169680Y0156813D01*
X0169524Y0156785D01*
X0169368Y0156761D01*
X0169211Y0156741D01*
X0169053Y0156725D01*
X0168896Y0156713D01*
X0168737Y0156705D01*
X0168579Y0156701D01*
X0168421Y0156701D01*
X0168263Y0156705D01*
X0168104Y0156713D01*
X0167947Y0156725D01*
X0167789Y0156741D01*
X0167632Y0156761D01*
X0167476Y0156785D01*
X0167320Y0156813D01*
X0167165Y0156844D01*
X0167010Y0156880D01*
X0166857Y0156919D01*
X0166705Y0156962D01*
X0166554Y0157009D01*
X0166404Y0157060D01*
X0166255Y0157115D01*
X0166108Y0157173D01*
X0165962Y0157235D01*
X0165818Y0157300D01*
X0165676Y0157370D01*
X0165535Y0157442D01*
X0165396Y0157519D01*
X0165260Y0157598D01*
X0165125Y0157682D01*
X0164992Y0157768D01*
X0164862Y0157858D01*
X0164734Y0157951D01*
X0164608Y0158047D01*
X0164485Y0158147D01*
X0164364Y0158249D01*
X0164246Y0158354D01*
X0164131Y0158463D01*
X0164018Y0158574D01*
X0163908Y0158688D01*
X0163801Y0158805D01*
X0163697Y0158924D01*
X0163596Y0159046D01*
X0163499Y0159171D01*
X0163404Y0159298D01*
X0163313Y0159427D01*
X0163224Y0159558D01*
X0163140Y0159692D01*
X0163058Y0159828D01*
X0162980Y0159965D01*
X0162906Y0160105D01*
X0162835Y0160247D01*
X0162767Y0160390D01*
X0162703Y0160535D01*
X0162643Y0160681D01*
X0162587Y0160829D01*
X0162534Y0160978D01*
X0162485Y0161129D01*
X0162440Y0161281D01*
X0162399Y0161434D01*
X0162361Y0161587D01*
X0162328Y0161742D01*
X0162298Y0161898D01*
X0162272Y0162054D01*
X0162251Y0162211D01*
X0162233Y0162368D01*
X0162219Y0162526D01*
X0162209Y0162684D01*
X0162203Y0162842D01*
X0162201Y0163000D01*
M02*
