G75*
%MOIN*%
%OFA0B0*%
%FSLAX25Y25*%
%IPPOS*%
%LPD*%
%AMOC8*
5,1,8,0,0,1.08239X$1,22.5*
%
%ADD10C,0.00000*%
%ADD11R,0.05937X0.05937*%
%ADD12C,0.05937*%
%ADD13C,0.05600*%
%ADD14C,0.01260*%
%ADD15C,0.06300*%
%ADD16R,0.05543X0.05543*%
%ADD17C,0.06000*%
%ADD18OC8,0.06000*%
%ADD19C,0.07400*%
%ADD20R,0.02400X0.03500*%
%ADD21OC8,0.06300*%
%ADD22R,0.05118X0.05906*%
%ADD23R,0.04724X0.01378*%
%ADD24R,0.03346X0.08661*%
%ADD25R,0.03937X0.04134*%
%ADD26C,0.01000*%
%ADD27C,0.03169*%
%ADD28C,0.01600*%
%ADD29R,0.03562X0.03562*%
%ADD30C,0.03000*%
%ADD31C,0.02400*%
D10*
X0001500Y0003000D02*
X0197500Y0003000D01*
X0197500Y0199000D01*
X0001500Y0199000D01*
X0001500Y0003000D01*
X0006201Y0012000D02*
X0006203Y0012158D01*
X0006209Y0012316D01*
X0006219Y0012474D01*
X0006233Y0012632D01*
X0006251Y0012789D01*
X0006272Y0012946D01*
X0006298Y0013102D01*
X0006328Y0013258D01*
X0006361Y0013413D01*
X0006399Y0013566D01*
X0006440Y0013719D01*
X0006485Y0013871D01*
X0006534Y0014022D01*
X0006587Y0014171D01*
X0006643Y0014319D01*
X0006703Y0014465D01*
X0006767Y0014610D01*
X0006835Y0014753D01*
X0006906Y0014895D01*
X0006980Y0015035D01*
X0007058Y0015172D01*
X0007140Y0015308D01*
X0007224Y0015442D01*
X0007313Y0015573D01*
X0007404Y0015702D01*
X0007499Y0015829D01*
X0007596Y0015954D01*
X0007697Y0016076D01*
X0007801Y0016195D01*
X0007908Y0016312D01*
X0008018Y0016426D01*
X0008131Y0016537D01*
X0008246Y0016646D01*
X0008364Y0016751D01*
X0008485Y0016853D01*
X0008608Y0016953D01*
X0008734Y0017049D01*
X0008862Y0017142D01*
X0008992Y0017232D01*
X0009125Y0017318D01*
X0009260Y0017402D01*
X0009396Y0017481D01*
X0009535Y0017558D01*
X0009676Y0017630D01*
X0009818Y0017700D01*
X0009962Y0017765D01*
X0010108Y0017827D01*
X0010255Y0017885D01*
X0010404Y0017940D01*
X0010554Y0017991D01*
X0010705Y0018038D01*
X0010857Y0018081D01*
X0011010Y0018120D01*
X0011165Y0018156D01*
X0011320Y0018187D01*
X0011476Y0018215D01*
X0011632Y0018239D01*
X0011789Y0018259D01*
X0011947Y0018275D01*
X0012104Y0018287D01*
X0012263Y0018295D01*
X0012421Y0018299D01*
X0012579Y0018299D01*
X0012737Y0018295D01*
X0012896Y0018287D01*
X0013053Y0018275D01*
X0013211Y0018259D01*
X0013368Y0018239D01*
X0013524Y0018215D01*
X0013680Y0018187D01*
X0013835Y0018156D01*
X0013990Y0018120D01*
X0014143Y0018081D01*
X0014295Y0018038D01*
X0014446Y0017991D01*
X0014596Y0017940D01*
X0014745Y0017885D01*
X0014892Y0017827D01*
X0015038Y0017765D01*
X0015182Y0017700D01*
X0015324Y0017630D01*
X0015465Y0017558D01*
X0015604Y0017481D01*
X0015740Y0017402D01*
X0015875Y0017318D01*
X0016008Y0017232D01*
X0016138Y0017142D01*
X0016266Y0017049D01*
X0016392Y0016953D01*
X0016515Y0016853D01*
X0016636Y0016751D01*
X0016754Y0016646D01*
X0016869Y0016537D01*
X0016982Y0016426D01*
X0017092Y0016312D01*
X0017199Y0016195D01*
X0017303Y0016076D01*
X0017404Y0015954D01*
X0017501Y0015829D01*
X0017596Y0015702D01*
X0017687Y0015573D01*
X0017776Y0015442D01*
X0017860Y0015308D01*
X0017942Y0015172D01*
X0018020Y0015035D01*
X0018094Y0014895D01*
X0018165Y0014753D01*
X0018233Y0014610D01*
X0018297Y0014465D01*
X0018357Y0014319D01*
X0018413Y0014171D01*
X0018466Y0014022D01*
X0018515Y0013871D01*
X0018560Y0013719D01*
X0018601Y0013566D01*
X0018639Y0013413D01*
X0018672Y0013258D01*
X0018702Y0013102D01*
X0018728Y0012946D01*
X0018749Y0012789D01*
X0018767Y0012632D01*
X0018781Y0012474D01*
X0018791Y0012316D01*
X0018797Y0012158D01*
X0018799Y0012000D01*
X0018797Y0011842D01*
X0018791Y0011684D01*
X0018781Y0011526D01*
X0018767Y0011368D01*
X0018749Y0011211D01*
X0018728Y0011054D01*
X0018702Y0010898D01*
X0018672Y0010742D01*
X0018639Y0010587D01*
X0018601Y0010434D01*
X0018560Y0010281D01*
X0018515Y0010129D01*
X0018466Y0009978D01*
X0018413Y0009829D01*
X0018357Y0009681D01*
X0018297Y0009535D01*
X0018233Y0009390D01*
X0018165Y0009247D01*
X0018094Y0009105D01*
X0018020Y0008965D01*
X0017942Y0008828D01*
X0017860Y0008692D01*
X0017776Y0008558D01*
X0017687Y0008427D01*
X0017596Y0008298D01*
X0017501Y0008171D01*
X0017404Y0008046D01*
X0017303Y0007924D01*
X0017199Y0007805D01*
X0017092Y0007688D01*
X0016982Y0007574D01*
X0016869Y0007463D01*
X0016754Y0007354D01*
X0016636Y0007249D01*
X0016515Y0007147D01*
X0016392Y0007047D01*
X0016266Y0006951D01*
X0016138Y0006858D01*
X0016008Y0006768D01*
X0015875Y0006682D01*
X0015740Y0006598D01*
X0015604Y0006519D01*
X0015465Y0006442D01*
X0015324Y0006370D01*
X0015182Y0006300D01*
X0015038Y0006235D01*
X0014892Y0006173D01*
X0014745Y0006115D01*
X0014596Y0006060D01*
X0014446Y0006009D01*
X0014295Y0005962D01*
X0014143Y0005919D01*
X0013990Y0005880D01*
X0013835Y0005844D01*
X0013680Y0005813D01*
X0013524Y0005785D01*
X0013368Y0005761D01*
X0013211Y0005741D01*
X0013053Y0005725D01*
X0012896Y0005713D01*
X0012737Y0005705D01*
X0012579Y0005701D01*
X0012421Y0005701D01*
X0012263Y0005705D01*
X0012104Y0005713D01*
X0011947Y0005725D01*
X0011789Y0005741D01*
X0011632Y0005761D01*
X0011476Y0005785D01*
X0011320Y0005813D01*
X0011165Y0005844D01*
X0011010Y0005880D01*
X0010857Y0005919D01*
X0010705Y0005962D01*
X0010554Y0006009D01*
X0010404Y0006060D01*
X0010255Y0006115D01*
X0010108Y0006173D01*
X0009962Y0006235D01*
X0009818Y0006300D01*
X0009676Y0006370D01*
X0009535Y0006442D01*
X0009396Y0006519D01*
X0009260Y0006598D01*
X0009125Y0006682D01*
X0008992Y0006768D01*
X0008862Y0006858D01*
X0008734Y0006951D01*
X0008608Y0007047D01*
X0008485Y0007147D01*
X0008364Y0007249D01*
X0008246Y0007354D01*
X0008131Y0007463D01*
X0008018Y0007574D01*
X0007908Y0007688D01*
X0007801Y0007805D01*
X0007697Y0007924D01*
X0007596Y0008046D01*
X0007499Y0008171D01*
X0007404Y0008298D01*
X0007313Y0008427D01*
X0007224Y0008558D01*
X0007140Y0008692D01*
X0007058Y0008828D01*
X0006980Y0008965D01*
X0006906Y0009105D01*
X0006835Y0009247D01*
X0006767Y0009390D01*
X0006703Y0009535D01*
X0006643Y0009681D01*
X0006587Y0009829D01*
X0006534Y0009978D01*
X0006485Y0010129D01*
X0006440Y0010281D01*
X0006399Y0010434D01*
X0006361Y0010587D01*
X0006328Y0010742D01*
X0006298Y0010898D01*
X0006272Y0011054D01*
X0006251Y0011211D01*
X0006233Y0011368D01*
X0006219Y0011526D01*
X0006209Y0011684D01*
X0006203Y0011842D01*
X0006201Y0012000D01*
X0029201Y0163000D02*
X0029203Y0163158D01*
X0029209Y0163316D01*
X0029219Y0163474D01*
X0029233Y0163632D01*
X0029251Y0163789D01*
X0029272Y0163946D01*
X0029298Y0164102D01*
X0029328Y0164258D01*
X0029361Y0164413D01*
X0029399Y0164566D01*
X0029440Y0164719D01*
X0029485Y0164871D01*
X0029534Y0165022D01*
X0029587Y0165171D01*
X0029643Y0165319D01*
X0029703Y0165465D01*
X0029767Y0165610D01*
X0029835Y0165753D01*
X0029906Y0165895D01*
X0029980Y0166035D01*
X0030058Y0166172D01*
X0030140Y0166308D01*
X0030224Y0166442D01*
X0030313Y0166573D01*
X0030404Y0166702D01*
X0030499Y0166829D01*
X0030596Y0166954D01*
X0030697Y0167076D01*
X0030801Y0167195D01*
X0030908Y0167312D01*
X0031018Y0167426D01*
X0031131Y0167537D01*
X0031246Y0167646D01*
X0031364Y0167751D01*
X0031485Y0167853D01*
X0031608Y0167953D01*
X0031734Y0168049D01*
X0031862Y0168142D01*
X0031992Y0168232D01*
X0032125Y0168318D01*
X0032260Y0168402D01*
X0032396Y0168481D01*
X0032535Y0168558D01*
X0032676Y0168630D01*
X0032818Y0168700D01*
X0032962Y0168765D01*
X0033108Y0168827D01*
X0033255Y0168885D01*
X0033404Y0168940D01*
X0033554Y0168991D01*
X0033705Y0169038D01*
X0033857Y0169081D01*
X0034010Y0169120D01*
X0034165Y0169156D01*
X0034320Y0169187D01*
X0034476Y0169215D01*
X0034632Y0169239D01*
X0034789Y0169259D01*
X0034947Y0169275D01*
X0035104Y0169287D01*
X0035263Y0169295D01*
X0035421Y0169299D01*
X0035579Y0169299D01*
X0035737Y0169295D01*
X0035896Y0169287D01*
X0036053Y0169275D01*
X0036211Y0169259D01*
X0036368Y0169239D01*
X0036524Y0169215D01*
X0036680Y0169187D01*
X0036835Y0169156D01*
X0036990Y0169120D01*
X0037143Y0169081D01*
X0037295Y0169038D01*
X0037446Y0168991D01*
X0037596Y0168940D01*
X0037745Y0168885D01*
X0037892Y0168827D01*
X0038038Y0168765D01*
X0038182Y0168700D01*
X0038324Y0168630D01*
X0038465Y0168558D01*
X0038604Y0168481D01*
X0038740Y0168402D01*
X0038875Y0168318D01*
X0039008Y0168232D01*
X0039138Y0168142D01*
X0039266Y0168049D01*
X0039392Y0167953D01*
X0039515Y0167853D01*
X0039636Y0167751D01*
X0039754Y0167646D01*
X0039869Y0167537D01*
X0039982Y0167426D01*
X0040092Y0167312D01*
X0040199Y0167195D01*
X0040303Y0167076D01*
X0040404Y0166954D01*
X0040501Y0166829D01*
X0040596Y0166702D01*
X0040687Y0166573D01*
X0040776Y0166442D01*
X0040860Y0166308D01*
X0040942Y0166172D01*
X0041020Y0166035D01*
X0041094Y0165895D01*
X0041165Y0165753D01*
X0041233Y0165610D01*
X0041297Y0165465D01*
X0041357Y0165319D01*
X0041413Y0165171D01*
X0041466Y0165022D01*
X0041515Y0164871D01*
X0041560Y0164719D01*
X0041601Y0164566D01*
X0041639Y0164413D01*
X0041672Y0164258D01*
X0041702Y0164102D01*
X0041728Y0163946D01*
X0041749Y0163789D01*
X0041767Y0163632D01*
X0041781Y0163474D01*
X0041791Y0163316D01*
X0041797Y0163158D01*
X0041799Y0163000D01*
X0041797Y0162842D01*
X0041791Y0162684D01*
X0041781Y0162526D01*
X0041767Y0162368D01*
X0041749Y0162211D01*
X0041728Y0162054D01*
X0041702Y0161898D01*
X0041672Y0161742D01*
X0041639Y0161587D01*
X0041601Y0161434D01*
X0041560Y0161281D01*
X0041515Y0161129D01*
X0041466Y0160978D01*
X0041413Y0160829D01*
X0041357Y0160681D01*
X0041297Y0160535D01*
X0041233Y0160390D01*
X0041165Y0160247D01*
X0041094Y0160105D01*
X0041020Y0159965D01*
X0040942Y0159828D01*
X0040860Y0159692D01*
X0040776Y0159558D01*
X0040687Y0159427D01*
X0040596Y0159298D01*
X0040501Y0159171D01*
X0040404Y0159046D01*
X0040303Y0158924D01*
X0040199Y0158805D01*
X0040092Y0158688D01*
X0039982Y0158574D01*
X0039869Y0158463D01*
X0039754Y0158354D01*
X0039636Y0158249D01*
X0039515Y0158147D01*
X0039392Y0158047D01*
X0039266Y0157951D01*
X0039138Y0157858D01*
X0039008Y0157768D01*
X0038875Y0157682D01*
X0038740Y0157598D01*
X0038604Y0157519D01*
X0038465Y0157442D01*
X0038324Y0157370D01*
X0038182Y0157300D01*
X0038038Y0157235D01*
X0037892Y0157173D01*
X0037745Y0157115D01*
X0037596Y0157060D01*
X0037446Y0157009D01*
X0037295Y0156962D01*
X0037143Y0156919D01*
X0036990Y0156880D01*
X0036835Y0156844D01*
X0036680Y0156813D01*
X0036524Y0156785D01*
X0036368Y0156761D01*
X0036211Y0156741D01*
X0036053Y0156725D01*
X0035896Y0156713D01*
X0035737Y0156705D01*
X0035579Y0156701D01*
X0035421Y0156701D01*
X0035263Y0156705D01*
X0035104Y0156713D01*
X0034947Y0156725D01*
X0034789Y0156741D01*
X0034632Y0156761D01*
X0034476Y0156785D01*
X0034320Y0156813D01*
X0034165Y0156844D01*
X0034010Y0156880D01*
X0033857Y0156919D01*
X0033705Y0156962D01*
X0033554Y0157009D01*
X0033404Y0157060D01*
X0033255Y0157115D01*
X0033108Y0157173D01*
X0032962Y0157235D01*
X0032818Y0157300D01*
X0032676Y0157370D01*
X0032535Y0157442D01*
X0032396Y0157519D01*
X0032260Y0157598D01*
X0032125Y0157682D01*
X0031992Y0157768D01*
X0031862Y0157858D01*
X0031734Y0157951D01*
X0031608Y0158047D01*
X0031485Y0158147D01*
X0031364Y0158249D01*
X0031246Y0158354D01*
X0031131Y0158463D01*
X0031018Y0158574D01*
X0030908Y0158688D01*
X0030801Y0158805D01*
X0030697Y0158924D01*
X0030596Y0159046D01*
X0030499Y0159171D01*
X0030404Y0159298D01*
X0030313Y0159427D01*
X0030224Y0159558D01*
X0030140Y0159692D01*
X0030058Y0159828D01*
X0029980Y0159965D01*
X0029906Y0160105D01*
X0029835Y0160247D01*
X0029767Y0160390D01*
X0029703Y0160535D01*
X0029643Y0160681D01*
X0029587Y0160829D01*
X0029534Y0160978D01*
X0029485Y0161129D01*
X0029440Y0161281D01*
X0029399Y0161434D01*
X0029361Y0161587D01*
X0029328Y0161742D01*
X0029298Y0161898D01*
X0029272Y0162054D01*
X0029251Y0162211D01*
X0029233Y0162368D01*
X0029219Y0162526D01*
X0029209Y0162684D01*
X0029203Y0162842D01*
X0029201Y0163000D01*
X0162201Y0163000D02*
X0162203Y0163158D01*
X0162209Y0163316D01*
X0162219Y0163474D01*
X0162233Y0163632D01*
X0162251Y0163789D01*
X0162272Y0163946D01*
X0162298Y0164102D01*
X0162328Y0164258D01*
X0162361Y0164413D01*
X0162399Y0164566D01*
X0162440Y0164719D01*
X0162485Y0164871D01*
X0162534Y0165022D01*
X0162587Y0165171D01*
X0162643Y0165319D01*
X0162703Y0165465D01*
X0162767Y0165610D01*
X0162835Y0165753D01*
X0162906Y0165895D01*
X0162980Y0166035D01*
X0163058Y0166172D01*
X0163140Y0166308D01*
X0163224Y0166442D01*
X0163313Y0166573D01*
X0163404Y0166702D01*
X0163499Y0166829D01*
X0163596Y0166954D01*
X0163697Y0167076D01*
X0163801Y0167195D01*
X0163908Y0167312D01*
X0164018Y0167426D01*
X0164131Y0167537D01*
X0164246Y0167646D01*
X0164364Y0167751D01*
X0164485Y0167853D01*
X0164608Y0167953D01*
X0164734Y0168049D01*
X0164862Y0168142D01*
X0164992Y0168232D01*
X0165125Y0168318D01*
X0165260Y0168402D01*
X0165396Y0168481D01*
X0165535Y0168558D01*
X0165676Y0168630D01*
X0165818Y0168700D01*
X0165962Y0168765D01*
X0166108Y0168827D01*
X0166255Y0168885D01*
X0166404Y0168940D01*
X0166554Y0168991D01*
X0166705Y0169038D01*
X0166857Y0169081D01*
X0167010Y0169120D01*
X0167165Y0169156D01*
X0167320Y0169187D01*
X0167476Y0169215D01*
X0167632Y0169239D01*
X0167789Y0169259D01*
X0167947Y0169275D01*
X0168104Y0169287D01*
X0168263Y0169295D01*
X0168421Y0169299D01*
X0168579Y0169299D01*
X0168737Y0169295D01*
X0168896Y0169287D01*
X0169053Y0169275D01*
X0169211Y0169259D01*
X0169368Y0169239D01*
X0169524Y0169215D01*
X0169680Y0169187D01*
X0169835Y0169156D01*
X0169990Y0169120D01*
X0170143Y0169081D01*
X0170295Y0169038D01*
X0170446Y0168991D01*
X0170596Y0168940D01*
X0170745Y0168885D01*
X0170892Y0168827D01*
X0171038Y0168765D01*
X0171182Y0168700D01*
X0171324Y0168630D01*
X0171465Y0168558D01*
X0171604Y0168481D01*
X0171740Y0168402D01*
X0171875Y0168318D01*
X0172008Y0168232D01*
X0172138Y0168142D01*
X0172266Y0168049D01*
X0172392Y0167953D01*
X0172515Y0167853D01*
X0172636Y0167751D01*
X0172754Y0167646D01*
X0172869Y0167537D01*
X0172982Y0167426D01*
X0173092Y0167312D01*
X0173199Y0167195D01*
X0173303Y0167076D01*
X0173404Y0166954D01*
X0173501Y0166829D01*
X0173596Y0166702D01*
X0173687Y0166573D01*
X0173776Y0166442D01*
X0173860Y0166308D01*
X0173942Y0166172D01*
X0174020Y0166035D01*
X0174094Y0165895D01*
X0174165Y0165753D01*
X0174233Y0165610D01*
X0174297Y0165465D01*
X0174357Y0165319D01*
X0174413Y0165171D01*
X0174466Y0165022D01*
X0174515Y0164871D01*
X0174560Y0164719D01*
X0174601Y0164566D01*
X0174639Y0164413D01*
X0174672Y0164258D01*
X0174702Y0164102D01*
X0174728Y0163946D01*
X0174749Y0163789D01*
X0174767Y0163632D01*
X0174781Y0163474D01*
X0174791Y0163316D01*
X0174797Y0163158D01*
X0174799Y0163000D01*
X0174797Y0162842D01*
X0174791Y0162684D01*
X0174781Y0162526D01*
X0174767Y0162368D01*
X0174749Y0162211D01*
X0174728Y0162054D01*
X0174702Y0161898D01*
X0174672Y0161742D01*
X0174639Y0161587D01*
X0174601Y0161434D01*
X0174560Y0161281D01*
X0174515Y0161129D01*
X0174466Y0160978D01*
X0174413Y0160829D01*
X0174357Y0160681D01*
X0174297Y0160535D01*
X0174233Y0160390D01*
X0174165Y0160247D01*
X0174094Y0160105D01*
X0174020Y0159965D01*
X0173942Y0159828D01*
X0173860Y0159692D01*
X0173776Y0159558D01*
X0173687Y0159427D01*
X0173596Y0159298D01*
X0173501Y0159171D01*
X0173404Y0159046D01*
X0173303Y0158924D01*
X0173199Y0158805D01*
X0173092Y0158688D01*
X0172982Y0158574D01*
X0172869Y0158463D01*
X0172754Y0158354D01*
X0172636Y0158249D01*
X0172515Y0158147D01*
X0172392Y0158047D01*
X0172266Y0157951D01*
X0172138Y0157858D01*
X0172008Y0157768D01*
X0171875Y0157682D01*
X0171740Y0157598D01*
X0171604Y0157519D01*
X0171465Y0157442D01*
X0171324Y0157370D01*
X0171182Y0157300D01*
X0171038Y0157235D01*
X0170892Y0157173D01*
X0170745Y0157115D01*
X0170596Y0157060D01*
X0170446Y0157009D01*
X0170295Y0156962D01*
X0170143Y0156919D01*
X0169990Y0156880D01*
X0169835Y0156844D01*
X0169680Y0156813D01*
X0169524Y0156785D01*
X0169368Y0156761D01*
X0169211Y0156741D01*
X0169053Y0156725D01*
X0168896Y0156713D01*
X0168737Y0156705D01*
X0168579Y0156701D01*
X0168421Y0156701D01*
X0168263Y0156705D01*
X0168104Y0156713D01*
X0167947Y0156725D01*
X0167789Y0156741D01*
X0167632Y0156761D01*
X0167476Y0156785D01*
X0167320Y0156813D01*
X0167165Y0156844D01*
X0167010Y0156880D01*
X0166857Y0156919D01*
X0166705Y0156962D01*
X0166554Y0157009D01*
X0166404Y0157060D01*
X0166255Y0157115D01*
X0166108Y0157173D01*
X0165962Y0157235D01*
X0165818Y0157300D01*
X0165676Y0157370D01*
X0165535Y0157442D01*
X0165396Y0157519D01*
X0165260Y0157598D01*
X0165125Y0157682D01*
X0164992Y0157768D01*
X0164862Y0157858D01*
X0164734Y0157951D01*
X0164608Y0158047D01*
X0164485Y0158147D01*
X0164364Y0158249D01*
X0164246Y0158354D01*
X0164131Y0158463D01*
X0164018Y0158574D01*
X0163908Y0158688D01*
X0163801Y0158805D01*
X0163697Y0158924D01*
X0163596Y0159046D01*
X0163499Y0159171D01*
X0163404Y0159298D01*
X0163313Y0159427D01*
X0163224Y0159558D01*
X0163140Y0159692D01*
X0163058Y0159828D01*
X0162980Y0159965D01*
X0162906Y0160105D01*
X0162835Y0160247D01*
X0162767Y0160390D01*
X0162703Y0160535D01*
X0162643Y0160681D01*
X0162587Y0160829D01*
X0162534Y0160978D01*
X0162485Y0161129D01*
X0162440Y0161281D01*
X0162399Y0161434D01*
X0162361Y0161587D01*
X0162328Y0161742D01*
X0162298Y0161898D01*
X0162272Y0162054D01*
X0162251Y0162211D01*
X0162233Y0162368D01*
X0162219Y0162526D01*
X0162209Y0162684D01*
X0162203Y0162842D01*
X0162201Y0163000D01*
D11*
X0144500Y0090000D03*
D12*
X0144500Y0100000D03*
X0154500Y0100000D03*
X0154500Y0090000D03*
X0164500Y0090000D03*
X0164500Y0100000D03*
X0174500Y0100000D03*
X0174500Y0090000D03*
X0166500Y0071000D03*
X0156500Y0071000D03*
X0146500Y0071000D03*
X0136500Y0071000D03*
X0126500Y0071000D03*
X0116500Y0071000D03*
X0106500Y0071000D03*
X0096500Y0071000D03*
X0086500Y0071000D03*
X0076500Y0071000D03*
X0066500Y0071000D03*
X0056500Y0071000D03*
X0091500Y0061000D03*
X0101500Y0061000D03*
X0096500Y0011000D03*
X0086500Y0011000D03*
X0076500Y0011000D03*
X0066500Y0011000D03*
X0056500Y0011000D03*
X0106500Y0011000D03*
X0116500Y0011000D03*
X0126500Y0011000D03*
X0136500Y0011000D03*
X0146500Y0011000D03*
X0156500Y0011000D03*
X0166500Y0011000D03*
X0166500Y0026000D03*
X0166500Y0036000D03*
X0166500Y0046000D03*
X0166500Y0056000D03*
D13*
X0128300Y0137000D02*
X0122700Y0137000D01*
X0122700Y0147000D02*
X0128300Y0147000D01*
X0128300Y0159000D02*
X0122700Y0159000D01*
X0122700Y0169000D02*
X0128300Y0169000D01*
D14*
X0124450Y0112575D02*
X0125080Y0111945D01*
X0122992Y0111945D01*
X0121517Y0113420D01*
X0121517Y0115508D01*
X0122992Y0116983D01*
X0125080Y0116983D01*
X0126555Y0115508D01*
X0126555Y0113420D01*
X0125080Y0111945D01*
X0124688Y0112890D01*
X0123384Y0112890D01*
X0122462Y0113812D01*
X0122462Y0115116D01*
X0123384Y0116038D01*
X0124688Y0116038D01*
X0125610Y0115116D01*
X0125610Y0113812D01*
X0124688Y0112890D01*
X0124297Y0113835D01*
X0123775Y0113835D01*
X0123407Y0114203D01*
X0123407Y0114725D01*
X0123775Y0115093D01*
X0124297Y0115093D01*
X0124665Y0114725D01*
X0124665Y0114203D01*
X0124297Y0113835D01*
D15*
X0116964Y0121536D03*
D16*
X0062500Y0104100D03*
X0051500Y0104100D03*
X0019500Y0104100D03*
X0008500Y0104100D03*
X0008500Y0194100D03*
X0062500Y0194100D03*
D17*
X0079500Y0185000D03*
X0089500Y0185000D03*
X0111500Y0185000D03*
X0121500Y0185000D03*
D18*
X0103500Y0126000D03*
X0103500Y0116000D03*
X0093500Y0116000D03*
X0093500Y0126000D03*
X0083500Y0126000D03*
X0083500Y0116000D03*
X0073500Y0116000D03*
X0073500Y0126000D03*
X0053500Y0093000D03*
X0053500Y0083000D03*
X0043500Y0083000D03*
X0043500Y0093000D03*
X0033500Y0093000D03*
X0033500Y0083000D03*
X0023500Y0083000D03*
X0023500Y0093000D03*
X0024500Y0021000D03*
X0024500Y0011000D03*
X0034500Y0011000D03*
X0034500Y0021000D03*
X0178500Y0064000D03*
X0178500Y0074000D03*
D19*
X0188500Y0074000D03*
X0188500Y0064000D03*
X0188500Y0054000D03*
X0188500Y0044000D03*
X0188500Y0034000D03*
X0188500Y0024000D03*
X0188500Y0014000D03*
X0009500Y0023000D03*
X0009500Y0033000D03*
X0009500Y0043000D03*
X0009500Y0053000D03*
X0009500Y0063000D03*
X0009500Y0073000D03*
X0009500Y0083000D03*
X0009500Y0093000D03*
D20*
X0188000Y0100000D03*
X0191000Y0100000D03*
D21*
X0144800Y0107500D03*
X0136500Y0107500D03*
X0062500Y0116000D03*
X0008500Y0116000D03*
X0008500Y0185000D03*
X0062500Y0185000D03*
D22*
X0142760Y0178000D03*
X0150240Y0178000D03*
D23*
X0149984Y0148839D03*
X0149984Y0146280D03*
X0149984Y0143720D03*
X0149984Y0141161D03*
X0173016Y0141161D03*
X0173016Y0143720D03*
X0173016Y0146280D03*
X0173016Y0148839D03*
D24*
X0152913Y0127000D03*
X0142087Y0127000D03*
D25*
X0147500Y0120996D03*
X0147500Y0133004D03*
D26*
X0150968Y0132811D02*
X0150968Y0135692D01*
X0150161Y0136500D01*
X0155749Y0136500D01*
X0157416Y0135041D01*
X0157416Y0134386D01*
X0157885Y0133253D01*
X0158753Y0132385D01*
X0159886Y0131916D01*
X0161113Y0131916D01*
X0162247Y0132385D01*
X0163115Y0133253D01*
X0163584Y0134386D01*
X0163584Y0135613D01*
X0163249Y0136422D01*
X0174500Y0125172D01*
X0174500Y0120362D01*
X0173885Y0119747D01*
X0173416Y0118613D01*
X0173416Y0117386D01*
X0173885Y0116253D01*
X0174753Y0115385D01*
X0175886Y0114916D01*
X0177113Y0114916D01*
X0178247Y0115385D01*
X0178500Y0115638D01*
X0178500Y0107172D01*
X0180500Y0105172D01*
X0181672Y0104000D01*
X0186672Y0104000D01*
X0187422Y0103250D01*
X0186179Y0103250D01*
X0185300Y0102371D01*
X0185300Y0102000D01*
X0183781Y0102000D01*
X0183781Y0102402D01*
X0182902Y0103281D01*
X0178098Y0103281D01*
X0177818Y0103001D01*
X0177031Y0103788D01*
X0176229Y0104120D01*
X0176869Y0104385D01*
X0177737Y0105253D01*
X0178206Y0106386D01*
X0178206Y0107613D01*
X0177737Y0108747D01*
X0176869Y0109615D01*
X0175736Y0110084D01*
X0174509Y0110084D01*
X0173375Y0109615D01*
X0172760Y0109000D01*
X0153862Y0109000D01*
X0153247Y0109615D01*
X0152113Y0110084D01*
X0150886Y0110084D01*
X0149753Y0109615D01*
X0149450Y0109312D01*
X0149450Y0109426D01*
X0147500Y0111376D01*
X0147500Y0117429D01*
X0150090Y0117429D01*
X0150968Y0118308D01*
X0150968Y0121189D01*
X0151043Y0121169D01*
X0152577Y0121169D01*
X0152577Y0126663D01*
X0153250Y0126663D01*
X0153250Y0121169D01*
X0154784Y0121169D01*
X0155166Y0121272D01*
X0155508Y0121469D01*
X0155787Y0121748D01*
X0155984Y0122090D01*
X0156087Y0122472D01*
X0156087Y0126663D01*
X0153250Y0126663D01*
X0153250Y0127337D01*
X0152577Y0127337D01*
X0152577Y0132831D01*
X0151043Y0132831D01*
X0150968Y0132811D01*
X0150968Y0133805D02*
X0157657Y0133805D01*
X0157416Y0134803D02*
X0150968Y0134803D01*
X0150859Y0135802D02*
X0156546Y0135802D01*
X0156500Y0138500D02*
X0146500Y0138500D01*
X0144500Y0140000D01*
X0144500Y0142000D01*
X0146220Y0143720D01*
X0149984Y0143720D01*
X0149984Y0141161D02*
X0161339Y0141161D01*
X0176500Y0126000D01*
X0176500Y0118000D01*
X0173646Y0116830D02*
X0147500Y0116830D01*
X0147500Y0115832D02*
X0174306Y0115832D01*
X0173416Y0117829D02*
X0150489Y0117829D01*
X0150968Y0118827D02*
X0173504Y0118827D01*
X0173964Y0119826D02*
X0150968Y0119826D01*
X0150968Y0120824D02*
X0174500Y0120824D01*
X0174500Y0121823D02*
X0155830Y0121823D01*
X0156087Y0122821D02*
X0174500Y0122821D01*
X0174500Y0123820D02*
X0156087Y0123820D01*
X0156087Y0124818D02*
X0174500Y0124818D01*
X0173855Y0125817D02*
X0156087Y0125817D01*
X0156087Y0127337D02*
X0153250Y0127337D01*
X0153250Y0132831D01*
X0154784Y0132831D01*
X0155166Y0132728D01*
X0155508Y0132531D01*
X0155787Y0132252D01*
X0155984Y0131910D01*
X0156087Y0131528D01*
X0156087Y0127337D01*
X0156087Y0127814D02*
X0171858Y0127814D01*
X0172856Y0126815D02*
X0153250Y0126815D01*
X0152577Y0126815D02*
X0142423Y0126815D01*
X0142423Y0126663D02*
X0142423Y0127337D01*
X0141750Y0127337D01*
X0141750Y0132831D01*
X0140216Y0132831D01*
X0139834Y0132728D01*
X0139800Y0132709D01*
X0139800Y0143915D01*
X0143610Y0143939D01*
X0142500Y0142828D01*
X0142500Y0140667D01*
X0142403Y0140537D01*
X0142500Y0139858D01*
X0142500Y0139172D01*
X0142614Y0139057D01*
X0142637Y0138897D01*
X0143186Y0138485D01*
X0143672Y0138000D01*
X0143833Y0138000D01*
X0145186Y0136985D01*
X0145601Y0136571D01*
X0144910Y0136571D01*
X0144031Y0135692D01*
X0144031Y0132811D01*
X0143957Y0132831D01*
X0142423Y0132831D01*
X0142423Y0127337D01*
X0145260Y0127337D01*
X0145260Y0129437D01*
X0149740Y0129437D01*
X0149740Y0127337D01*
X0152577Y0127337D01*
X0152577Y0126663D01*
X0149740Y0126663D01*
X0149740Y0124563D01*
X0145260Y0124563D01*
X0145260Y0126663D01*
X0142423Y0126663D01*
X0142423Y0121169D01*
X0142818Y0121169D01*
X0142729Y0121043D01*
X0142511Y0120825D01*
X0142421Y0120609D01*
X0142286Y0120418D01*
X0142218Y0120118D01*
X0142100Y0119833D01*
X0142100Y0119599D01*
X0142048Y0119371D01*
X0142100Y0119067D01*
X0142100Y0111376D01*
X0140650Y0109926D01*
X0138426Y0112150D01*
X0136800Y0112150D01*
X0136800Y0107800D01*
X0136200Y0107800D01*
X0136200Y0112150D01*
X0134574Y0112150D01*
X0131850Y0109426D01*
X0131850Y0107800D01*
X0136200Y0107800D01*
X0136200Y0107200D01*
X0131850Y0107200D01*
X0131850Y0105574D01*
X0134124Y0103300D01*
X0123577Y0103300D01*
X0119800Y0107833D01*
X0119800Y0107953D01*
X0119264Y0108488D01*
X0119264Y0117455D01*
X0119598Y0117593D01*
X0120907Y0118902D01*
X0121614Y0120611D01*
X0121614Y0122460D01*
X0120907Y0124170D01*
X0119598Y0125478D01*
X0117889Y0126186D01*
X0116040Y0126186D01*
X0114330Y0125478D01*
X0113022Y0124170D01*
X0112314Y0122460D01*
X0112314Y0120611D01*
X0113022Y0118902D01*
X0114330Y0117593D01*
X0114664Y0117455D01*
X0114664Y0106583D01*
X0115800Y0105447D01*
X0120200Y0100167D01*
X0120200Y0100047D01*
X0120800Y0099447D01*
X0121343Y0098796D01*
X0121462Y0098785D01*
X0121547Y0098700D01*
X0122396Y0098700D01*
X0123241Y0098623D01*
X0123333Y0098700D01*
X0136200Y0098700D01*
X0136200Y0085047D01*
X0140416Y0080832D01*
X0140416Y0080386D01*
X0140885Y0079253D01*
X0141753Y0078385D01*
X0142683Y0078000D01*
X0136672Y0078000D01*
X0135672Y0077000D01*
X0134500Y0075828D01*
X0134500Y0075008D01*
X0133969Y0074788D01*
X0132712Y0073531D01*
X0132031Y0071889D01*
X0132031Y0070111D01*
X0132712Y0068469D01*
X0133969Y0067212D01*
X0135611Y0066531D01*
X0137389Y0066531D01*
X0139031Y0067212D01*
X0140288Y0068469D01*
X0140968Y0070111D01*
X0140968Y0071889D01*
X0140288Y0073531D01*
X0139819Y0074000D01*
X0143181Y0074000D01*
X0142712Y0073531D01*
X0142031Y0071889D01*
X0142031Y0070111D01*
X0142712Y0068469D01*
X0143969Y0067212D01*
X0145611Y0066531D01*
X0147389Y0066531D01*
X0149031Y0067212D01*
X0150288Y0068469D01*
X0150968Y0070111D01*
X0150968Y0071889D01*
X0150288Y0073531D01*
X0149074Y0074745D01*
X0151328Y0077000D01*
X0165672Y0077000D01*
X0165672Y0077000D01*
X0164500Y0075828D01*
X0164500Y0075008D01*
X0163969Y0074788D01*
X0162712Y0073531D01*
X0162031Y0071889D01*
X0162031Y0070111D01*
X0162712Y0068469D01*
X0163969Y0067212D01*
X0165611Y0066531D01*
X0167389Y0066531D01*
X0169031Y0067212D01*
X0170288Y0068469D01*
X0170968Y0070111D01*
X0170968Y0071889D01*
X0170288Y0073531D01*
X0169074Y0074745D01*
X0184328Y0090000D01*
X0185500Y0091172D01*
X0185500Y0092638D01*
X0186115Y0093253D01*
X0186500Y0094183D01*
X0186500Y0078800D01*
X0185554Y0078408D01*
X0184092Y0076946D01*
X0183300Y0075034D01*
X0183300Y0072966D01*
X0183692Y0072020D01*
X0182672Y0071000D01*
X0181864Y0071000D01*
X0183000Y0072136D01*
X0183000Y0075864D01*
X0180364Y0078500D01*
X0176636Y0078500D01*
X0174000Y0075864D01*
X0174000Y0072136D01*
X0175136Y0071000D01*
X0173672Y0071000D01*
X0172500Y0069828D01*
X0167672Y0065000D01*
X0116672Y0065000D01*
X0100672Y0049000D01*
X0099500Y0047828D01*
X0099500Y0041362D01*
X0098885Y0040747D01*
X0098416Y0039613D01*
X0098416Y0038386D01*
X0098885Y0037253D01*
X0099753Y0036385D01*
X0100886Y0035916D01*
X0102113Y0035916D01*
X0103247Y0036385D01*
X0104115Y0037253D01*
X0104584Y0038386D01*
X0104584Y0039613D01*
X0104115Y0040747D01*
X0103500Y0041362D01*
X0103500Y0046172D01*
X0118328Y0061000D01*
X0169328Y0061000D01*
X0174000Y0065672D01*
X0174000Y0064500D01*
X0178000Y0064500D01*
X0178000Y0063500D01*
X0179000Y0063500D01*
X0179000Y0064500D01*
X0183000Y0064500D01*
X0183000Y0065864D01*
X0181864Y0067000D01*
X0184146Y0067000D01*
X0184092Y0066946D01*
X0183300Y0065034D01*
X0183300Y0062966D01*
X0183692Y0062020D01*
X0174672Y0053000D01*
X0169819Y0053000D01*
X0170288Y0053469D01*
X0170968Y0055111D01*
X0170968Y0056889D01*
X0170288Y0058531D01*
X0169031Y0059788D01*
X0167389Y0060468D01*
X0165611Y0060468D01*
X0163969Y0059788D01*
X0162712Y0058531D01*
X0162031Y0056889D01*
X0162031Y0055111D01*
X0162712Y0053469D01*
X0163181Y0053000D01*
X0160672Y0053000D01*
X0157672Y0050000D01*
X0156500Y0048828D01*
X0156500Y0035828D01*
X0153672Y0033000D01*
X0108862Y0033000D01*
X0108247Y0033615D01*
X0107113Y0034084D01*
X0105886Y0034084D01*
X0104753Y0033615D01*
X0103885Y0032747D01*
X0103416Y0031613D01*
X0103416Y0030386D01*
X0103885Y0029253D01*
X0104753Y0028385D01*
X0105886Y0027916D01*
X0107113Y0027916D01*
X0108247Y0028385D01*
X0108862Y0029000D01*
X0114138Y0029000D01*
X0113885Y0028747D01*
X0113416Y0027613D01*
X0113416Y0026386D01*
X0113885Y0025253D01*
X0114753Y0024385D01*
X0115886Y0023916D01*
X0117113Y0023916D01*
X0118247Y0024385D01*
X0119115Y0025253D01*
X0119424Y0026000D01*
X0124138Y0026000D01*
X0123885Y0025747D01*
X0123416Y0024613D01*
X0123416Y0023386D01*
X0123885Y0022253D01*
X0124753Y0021385D01*
X0125886Y0020916D01*
X0127113Y0020916D01*
X0128247Y0021385D01*
X0129115Y0022253D01*
X0129424Y0023000D01*
X0134138Y0023000D01*
X0133885Y0022747D01*
X0133416Y0021613D01*
X0133416Y0020386D01*
X0133885Y0019253D01*
X0134753Y0018385D01*
X0135886Y0017916D01*
X0137113Y0017916D01*
X0138247Y0018385D01*
X0139115Y0019253D01*
X0139424Y0020000D01*
X0144138Y0020000D01*
X0143885Y0019747D01*
X0143416Y0018613D01*
X0143416Y0017386D01*
X0143885Y0016253D01*
X0144753Y0015385D01*
X0145082Y0015249D01*
X0143969Y0014788D01*
X0142712Y0013531D01*
X0142031Y0011889D01*
X0142031Y0010111D01*
X0142712Y0008469D01*
X0143969Y0007212D01*
X0145611Y0006531D01*
X0147389Y0006531D01*
X0149031Y0007212D01*
X0150288Y0008469D01*
X0150968Y0010111D01*
X0150968Y0011889D01*
X0150288Y0013531D01*
X0149031Y0014788D01*
X0147918Y0015249D01*
X0148247Y0015385D01*
X0149115Y0016253D01*
X0149424Y0017000D01*
X0153783Y0017000D01*
X0153416Y0016113D01*
X0153416Y0014886D01*
X0153607Y0014426D01*
X0152712Y0013531D01*
X0152031Y0011889D01*
X0152031Y0010111D01*
X0152712Y0008469D01*
X0153969Y0007212D01*
X0155611Y0006531D01*
X0157389Y0006531D01*
X0159031Y0007212D01*
X0160288Y0008469D01*
X0160968Y0010111D01*
X0160968Y0011889D01*
X0160288Y0013531D01*
X0159819Y0014000D01*
X0163181Y0014000D01*
X0162712Y0013531D01*
X0162031Y0011889D01*
X0162031Y0010111D01*
X0162712Y0008469D01*
X0163969Y0007212D01*
X0165611Y0006531D01*
X0167389Y0006531D01*
X0169031Y0007212D01*
X0170288Y0008469D01*
X0170968Y0010111D01*
X0170968Y0011889D01*
X0170288Y0013531D01*
X0169819Y0014000D01*
X0183300Y0014000D01*
X0183300Y0012966D01*
X0184092Y0011054D01*
X0185554Y0009592D01*
X0187466Y0008800D01*
X0189534Y0008800D01*
X0191446Y0009592D01*
X0192908Y0011054D01*
X0193300Y0012000D01*
X0194328Y0012000D01*
X0196000Y0013672D01*
X0196000Y0004500D01*
X0014774Y0004500D01*
X0016918Y0005388D01*
X0019112Y0007582D01*
X0020000Y0009726D01*
X0020000Y0009136D01*
X0022636Y0006500D01*
X0026364Y0006500D01*
X0029000Y0009136D01*
X0029000Y0012864D01*
X0026364Y0015500D01*
X0022636Y0015500D01*
X0020299Y0013163D01*
X0020299Y0013551D01*
X0019112Y0016418D01*
X0016918Y0018612D01*
X0014051Y0019799D01*
X0013653Y0019799D01*
X0013908Y0020054D01*
X0014700Y0021966D01*
X0014700Y0024034D01*
X0013908Y0025946D01*
X0012446Y0027408D01*
X0010983Y0028014D01*
X0011496Y0028181D01*
X0012225Y0028553D01*
X0012888Y0029034D01*
X0013466Y0029612D01*
X0013947Y0030275D01*
X0014319Y0031004D01*
X0014572Y0031782D01*
X0014686Y0032500D01*
X0010000Y0032500D01*
X0010000Y0033500D01*
X0014686Y0033500D01*
X0014572Y0034218D01*
X0014319Y0034996D01*
X0013947Y0035725D01*
X0013466Y0036388D01*
X0012888Y0036966D01*
X0012225Y0037447D01*
X0011496Y0037819D01*
X0010983Y0037986D01*
X0012446Y0038592D01*
X0013908Y0040054D01*
X0014300Y0041000D01*
X0026328Y0041000D01*
X0043244Y0057916D01*
X0044113Y0057916D01*
X0045247Y0058385D01*
X0046115Y0059253D01*
X0046584Y0060386D01*
X0046584Y0061041D01*
X0046886Y0060916D01*
X0048113Y0060916D01*
X0049247Y0061385D01*
X0050115Y0062253D01*
X0050497Y0063175D01*
X0052672Y0061000D01*
X0070328Y0061000D01*
X0071500Y0062172D01*
X0073500Y0064172D01*
X0073500Y0067681D01*
X0073969Y0067212D01*
X0075611Y0066531D01*
X0077389Y0066531D01*
X0079031Y0067212D01*
X0080288Y0068469D01*
X0080968Y0070111D01*
X0080968Y0071889D01*
X0080288Y0073531D01*
X0079031Y0074788D01*
X0077389Y0075468D01*
X0075611Y0075468D01*
X0074221Y0074893D01*
X0074221Y0074893D01*
X0075328Y0076000D01*
X0103672Y0076000D01*
X0104500Y0075172D01*
X0104500Y0075008D01*
X0103969Y0074788D01*
X0102712Y0073531D01*
X0102031Y0071889D01*
X0102031Y0070111D01*
X0102712Y0068469D01*
X0103969Y0067212D01*
X0105611Y0066531D01*
X0107389Y0066531D01*
X0109031Y0067212D01*
X0110288Y0068469D01*
X0110968Y0070111D01*
X0110968Y0071889D01*
X0110288Y0073531D01*
X0109031Y0074788D01*
X0108500Y0075008D01*
X0108500Y0076828D01*
X0107328Y0078000D01*
X0105328Y0080000D01*
X0090717Y0080000D01*
X0091084Y0080886D01*
X0091084Y0082113D01*
X0090615Y0083247D01*
X0089747Y0084115D01*
X0088613Y0084584D01*
X0087386Y0084584D01*
X0086253Y0084115D01*
X0085638Y0083500D01*
X0063862Y0083500D01*
X0063247Y0084115D01*
X0062113Y0084584D01*
X0060886Y0084584D01*
X0059753Y0084115D01*
X0058885Y0083247D01*
X0058416Y0082113D01*
X0058416Y0081744D01*
X0058000Y0081328D01*
X0058000Y0084864D01*
X0056864Y0086000D01*
X0069828Y0086000D01*
X0074244Y0090416D01*
X0075113Y0090416D01*
X0076247Y0090885D01*
X0077115Y0091753D01*
X0077584Y0092886D01*
X0077584Y0094113D01*
X0077115Y0095247D01*
X0076247Y0096115D01*
X0075113Y0096584D01*
X0073886Y0096584D01*
X0072753Y0096115D01*
X0071885Y0095247D01*
X0071416Y0094113D01*
X0071416Y0093244D01*
X0068172Y0090000D01*
X0056864Y0090000D01*
X0058000Y0091136D01*
X0058000Y0094864D01*
X0055364Y0097500D01*
X0051636Y0097500D01*
X0049000Y0094864D01*
X0049000Y0091136D01*
X0050136Y0090000D01*
X0046864Y0090000D01*
X0048000Y0091136D01*
X0048000Y0094864D01*
X0045364Y0097500D01*
X0041636Y0097500D01*
X0039000Y0094864D01*
X0039000Y0091136D01*
X0040136Y0090000D01*
X0036864Y0090000D01*
X0038000Y0091136D01*
X0038000Y0092500D01*
X0034000Y0092500D01*
X0034000Y0093500D01*
X0033000Y0093500D01*
X0033000Y0097500D01*
X0031636Y0097500D01*
X0029000Y0094864D01*
X0029000Y0093500D01*
X0033000Y0093500D01*
X0033000Y0092500D01*
X0029000Y0092500D01*
X0029000Y0091136D01*
X0030136Y0090000D01*
X0026864Y0090000D01*
X0028000Y0091136D01*
X0028000Y0094864D01*
X0025364Y0097500D01*
X0021636Y0097500D01*
X0019000Y0094864D01*
X0019000Y0091136D01*
X0020404Y0089732D01*
X0015672Y0085000D01*
X0014300Y0085000D01*
X0013908Y0085946D01*
X0012446Y0087408D01*
X0011017Y0088000D01*
X0012446Y0088592D01*
X0013908Y0090054D01*
X0014700Y0091966D01*
X0014700Y0094034D01*
X0014308Y0094980D01*
X0016828Y0097500D01*
X0069828Y0097500D01*
X0071000Y0098672D01*
X0071828Y0099500D01*
X0103172Y0099500D01*
X0105416Y0097256D01*
X0105416Y0096386D01*
X0105885Y0095253D01*
X0106753Y0094385D01*
X0107886Y0093916D01*
X0109113Y0093916D01*
X0110247Y0094385D01*
X0111115Y0095253D01*
X0111584Y0096386D01*
X0111584Y0097613D01*
X0111115Y0098747D01*
X0110247Y0099615D01*
X0109113Y0100084D01*
X0108244Y0100084D01*
X0106000Y0102328D01*
X0104828Y0103500D01*
X0102333Y0103500D01*
X0102500Y0103903D01*
X0102500Y0105097D01*
X0102043Y0106199D01*
X0101199Y0107043D01*
X0100097Y0107500D01*
X0098903Y0107500D01*
X0097801Y0107043D01*
X0097557Y0106800D01*
X0066772Y0106800D01*
X0066772Y0107493D01*
X0065893Y0108372D01*
X0059107Y0108372D01*
X0058228Y0107493D01*
X0058228Y0101500D01*
X0055772Y0101500D01*
X0055772Y0107493D01*
X0054893Y0108372D01*
X0053800Y0108372D01*
X0053800Y0113700D01*
X0058224Y0113700D01*
X0060574Y0111350D01*
X0064426Y0111350D01*
X0067150Y0114074D01*
X0067150Y0117926D01*
X0064426Y0120650D01*
X0060574Y0120650D01*
X0059584Y0119660D01*
X0059584Y0120613D01*
X0059115Y0121747D01*
X0058500Y0122362D01*
X0058500Y0130172D01*
X0061328Y0133000D01*
X0063138Y0133000D01*
X0063753Y0132385D01*
X0064886Y0131916D01*
X0066113Y0131916D01*
X0067247Y0132385D01*
X0068115Y0133253D01*
X0068584Y0134386D01*
X0068584Y0135613D01*
X0068115Y0136747D01*
X0067247Y0137615D01*
X0066113Y0138084D01*
X0064886Y0138084D01*
X0063753Y0137615D01*
X0063138Y0137000D01*
X0059672Y0137000D01*
X0055672Y0133000D01*
X0054500Y0131828D01*
X0054500Y0122362D01*
X0053885Y0121747D01*
X0053800Y0121541D01*
X0053800Y0159547D01*
X0059953Y0165700D01*
X0079453Y0165700D01*
X0080800Y0167047D01*
X0091800Y0178047D01*
X0091800Y0181082D01*
X0092049Y0181185D01*
X0093315Y0182451D01*
X0094000Y0184105D01*
X0094000Y0185895D01*
X0093315Y0187549D01*
X0092049Y0188815D01*
X0090395Y0189500D01*
X0088605Y0189500D01*
X0086951Y0188815D01*
X0085685Y0187549D01*
X0085000Y0185895D01*
X0085000Y0184105D01*
X0085685Y0182451D01*
X0086951Y0181185D01*
X0087200Y0181082D01*
X0087200Y0179953D01*
X0077547Y0170300D01*
X0058047Y0170300D01*
X0056700Y0168953D01*
X0049200Y0161453D01*
X0049200Y0108372D01*
X0048107Y0108372D01*
X0047228Y0107493D01*
X0047228Y0101500D01*
X0023772Y0101500D01*
X0023772Y0107493D01*
X0022893Y0108372D01*
X0016107Y0108372D01*
X0015228Y0107493D01*
X0015228Y0101500D01*
X0015172Y0101500D01*
X0014000Y0100328D01*
X0011480Y0097808D01*
X0010534Y0098200D01*
X0008466Y0098200D01*
X0006554Y0097408D01*
X0005092Y0095946D01*
X0004300Y0094034D01*
X0004300Y0091966D01*
X0005092Y0090054D01*
X0006554Y0088592D01*
X0007983Y0088000D01*
X0006554Y0087408D01*
X0005092Y0085946D01*
X0004300Y0084034D01*
X0004300Y0081966D01*
X0005092Y0080054D01*
X0006554Y0078592D01*
X0007983Y0078000D01*
X0006554Y0077408D01*
X0005092Y0075946D01*
X0004300Y0074034D01*
X0004300Y0071966D01*
X0005092Y0070054D01*
X0006554Y0068592D01*
X0007983Y0068000D01*
X0006554Y0067408D01*
X0005092Y0065946D01*
X0004300Y0064034D01*
X0004300Y0061966D01*
X0005092Y0060054D01*
X0006554Y0058592D01*
X0007983Y0058000D01*
X0006554Y0057408D01*
X0005092Y0055946D01*
X0004300Y0054034D01*
X0004300Y0051966D01*
X0005092Y0050054D01*
X0006554Y0048592D01*
X0007983Y0048000D01*
X0006554Y0047408D01*
X0005092Y0045946D01*
X0004300Y0044034D01*
X0004300Y0041966D01*
X0005092Y0040054D01*
X0006554Y0038592D01*
X0008017Y0037986D01*
X0007504Y0037819D01*
X0006775Y0037447D01*
X0006112Y0036966D01*
X0005534Y0036388D01*
X0005053Y0035725D01*
X0004681Y0034996D01*
X0004428Y0034218D01*
X0004314Y0033500D01*
X0009000Y0033500D01*
X0009000Y0032500D01*
X0004314Y0032500D01*
X0004428Y0031782D01*
X0004681Y0031004D01*
X0005053Y0030275D01*
X0005534Y0029612D01*
X0006112Y0029034D01*
X0006775Y0028553D01*
X0007504Y0028181D01*
X0008017Y0028014D01*
X0006554Y0027408D01*
X0005092Y0025946D01*
X0004300Y0024034D01*
X0004300Y0021966D01*
X0005092Y0020054D01*
X0006554Y0018592D01*
X0007620Y0018150D01*
X0005888Y0016418D01*
X0004701Y0013551D01*
X0004701Y0010449D01*
X0005888Y0007582D01*
X0008082Y0005388D01*
X0010226Y0004500D01*
X0003000Y0004500D01*
X0003000Y0197500D01*
X0004235Y0197500D01*
X0004228Y0197493D01*
X0004228Y0190707D01*
X0005107Y0189828D01*
X0011893Y0189828D01*
X0012772Y0190707D01*
X0012772Y0197493D01*
X0012765Y0197500D01*
X0058235Y0197500D01*
X0058228Y0197493D01*
X0058228Y0190707D01*
X0059107Y0189828D01*
X0064076Y0189828D01*
X0063897Y0189650D01*
X0060574Y0189650D01*
X0057850Y0186926D01*
X0057850Y0183074D01*
X0060574Y0180350D01*
X0064426Y0180350D01*
X0067150Y0183074D01*
X0067150Y0186397D01*
X0073453Y0192700D01*
X0110547Y0192700D01*
X0117103Y0186144D01*
X0117000Y0185895D01*
X0117000Y0184105D01*
X0117685Y0182451D01*
X0118951Y0181185D01*
X0120605Y0180500D01*
X0122395Y0180500D01*
X0122644Y0180603D01*
X0130507Y0172740D01*
X0129155Y0173300D01*
X0121845Y0173300D01*
X0120264Y0172645D01*
X0119055Y0171436D01*
X0118998Y0171300D01*
X0112562Y0171300D01*
X0112247Y0171615D01*
X0111113Y0172084D01*
X0109886Y0172084D01*
X0108753Y0171615D01*
X0107885Y0170747D01*
X0107416Y0169613D01*
X0107416Y0168386D01*
X0107885Y0167253D01*
X0108753Y0166385D01*
X0109886Y0165916D01*
X0111113Y0165916D01*
X0112247Y0166385D01*
X0112562Y0166700D01*
X0118998Y0166700D01*
X0119055Y0166564D01*
X0120264Y0165355D01*
X0121845Y0164700D01*
X0129155Y0164700D01*
X0130736Y0165355D01*
X0131200Y0165819D01*
X0131200Y0162181D01*
X0130736Y0162645D01*
X0129155Y0163300D01*
X0121845Y0163300D01*
X0120264Y0162645D01*
X0119055Y0161436D01*
X0118400Y0159855D01*
X0118400Y0158145D01*
X0119055Y0156564D01*
X0120264Y0155355D01*
X0121845Y0154700D01*
X0129155Y0154700D01*
X0130736Y0155355D01*
X0131945Y0156564D01*
X0132002Y0156700D01*
X0132453Y0156700D01*
X0133800Y0158047D01*
X0134453Y0158700D01*
X0135800Y0160047D01*
X0135800Y0173953D01*
X0135034Y0174719D01*
X0138701Y0174719D01*
X0138701Y0174426D01*
X0139579Y0173547D01*
X0145940Y0173547D01*
X0146500Y0174107D01*
X0146760Y0173847D01*
X0147102Y0173649D01*
X0147484Y0173547D01*
X0149740Y0173547D01*
X0149740Y0177500D01*
X0150740Y0177500D01*
X0150740Y0173547D01*
X0152997Y0173547D01*
X0153378Y0173649D01*
X0153720Y0173847D01*
X0153999Y0174126D01*
X0154197Y0174468D01*
X0154299Y0174850D01*
X0154299Y0177500D01*
X0150740Y0177500D01*
X0150740Y0178500D01*
X0149740Y0178500D01*
X0149740Y0182453D01*
X0147484Y0182453D01*
X0147102Y0182351D01*
X0146760Y0182153D01*
X0146500Y0181893D01*
X0145940Y0182453D01*
X0139579Y0182453D01*
X0138701Y0181574D01*
X0138701Y0181281D01*
X0134539Y0181281D01*
X0133660Y0180402D01*
X0133660Y0176093D01*
X0125897Y0183856D01*
X0126000Y0184105D01*
X0126000Y0185895D01*
X0125315Y0187549D01*
X0124049Y0188815D01*
X0122395Y0189500D01*
X0120605Y0189500D01*
X0120356Y0189397D01*
X0113800Y0195953D01*
X0112453Y0197300D01*
X0071547Y0197300D01*
X0070200Y0195953D01*
X0066772Y0192524D01*
X0066772Y0197493D01*
X0066765Y0197500D01*
X0196000Y0197500D01*
X0196000Y0146328D01*
X0190584Y0151744D01*
X0190584Y0152613D01*
X0190115Y0153747D01*
X0189247Y0154615D01*
X0188113Y0155084D01*
X0186886Y0155084D01*
X0185753Y0154615D01*
X0184885Y0153747D01*
X0184416Y0152613D01*
X0184416Y0151386D01*
X0184885Y0150253D01*
X0185753Y0149385D01*
X0186886Y0148916D01*
X0187756Y0148916D01*
X0193500Y0143172D01*
X0193500Y0102571D01*
X0193000Y0103071D01*
X0193000Y0103328D01*
X0189500Y0106828D01*
X0188328Y0108000D01*
X0183328Y0108000D01*
X0182500Y0108828D01*
X0182500Y0173638D01*
X0183115Y0174253D01*
X0183584Y0175386D01*
X0183584Y0176613D01*
X0183115Y0177747D01*
X0182247Y0178615D01*
X0181113Y0179084D01*
X0179886Y0179084D01*
X0178753Y0178615D01*
X0177885Y0177747D01*
X0177416Y0176613D01*
X0177416Y0175386D01*
X0177885Y0174253D01*
X0178500Y0173638D01*
X0178500Y0120362D01*
X0178500Y0126828D01*
X0163908Y0141420D01*
X0169154Y0141420D01*
X0169154Y0141161D01*
X0169154Y0140275D01*
X0169256Y0139893D01*
X0169453Y0139551D01*
X0169733Y0139272D01*
X0170075Y0139075D01*
X0170456Y0138972D01*
X0173016Y0138972D01*
X0175575Y0138972D01*
X0175957Y0139075D01*
X0176299Y0139272D01*
X0176578Y0139551D01*
X0176776Y0139893D01*
X0176878Y0140275D01*
X0176878Y0141161D01*
X0173016Y0141161D01*
X0173016Y0138972D01*
X0173016Y0141161D01*
X0173016Y0141161D01*
X0173016Y0141161D01*
X0176878Y0141161D01*
X0176878Y0142048D01*
X0176801Y0142334D01*
X0176878Y0142410D01*
X0176878Y0150149D01*
X0176661Y0150365D01*
X0177084Y0151386D01*
X0177084Y0152613D01*
X0176615Y0153747D01*
X0175747Y0154615D01*
X0174613Y0155084D01*
X0173386Y0155084D01*
X0172253Y0154615D01*
X0171385Y0153747D01*
X0170916Y0152613D01*
X0170916Y0151386D01*
X0170968Y0151261D01*
X0170984Y0151028D01*
X0170032Y0151028D01*
X0169154Y0150149D01*
X0169154Y0148280D01*
X0168584Y0148280D01*
X0168584Y0148613D01*
X0168115Y0149747D01*
X0167247Y0150615D01*
X0166113Y0151084D01*
X0164886Y0151084D01*
X0163753Y0150615D01*
X0162885Y0149747D01*
X0162416Y0148613D01*
X0162416Y0147386D01*
X0162885Y0146253D01*
X0163118Y0146020D01*
X0157732Y0146020D01*
X0155173Y0148580D01*
X0153846Y0148580D01*
X0153846Y0150149D01*
X0152968Y0151028D01*
X0151048Y0151028D01*
X0150937Y0151139D01*
X0149032Y0151139D01*
X0148921Y0151028D01*
X0147001Y0151028D01*
X0146122Y0150149D01*
X0146122Y0148555D01*
X0139800Y0148515D01*
X0139800Y0153938D01*
X0140115Y0154253D01*
X0140584Y0155386D01*
X0140584Y0156613D01*
X0140115Y0157747D01*
X0139247Y0158615D01*
X0138113Y0159084D01*
X0136886Y0159084D01*
X0135753Y0158615D01*
X0134885Y0157747D01*
X0134416Y0156613D01*
X0134416Y0155386D01*
X0134885Y0154253D01*
X0135200Y0153938D01*
X0135200Y0147144D01*
X0135194Y0147138D01*
X0135200Y0146193D01*
X0135200Y0132062D01*
X0134885Y0131747D01*
X0134416Y0130613D01*
X0134416Y0129386D01*
X0134885Y0128253D01*
X0135753Y0127385D01*
X0136886Y0126916D01*
X0138113Y0126916D01*
X0139130Y0127337D01*
X0141750Y0127337D01*
X0141750Y0126663D01*
X0142423Y0126663D01*
X0141750Y0126663D02*
X0141750Y0121169D01*
X0140216Y0121169D01*
X0139834Y0121272D01*
X0139492Y0121469D01*
X0139213Y0121748D01*
X0139016Y0122090D01*
X0138913Y0122472D01*
X0138913Y0126663D01*
X0141750Y0126663D01*
X0141750Y0126815D02*
X0108000Y0126815D01*
X0108000Y0126500D02*
X0108000Y0127864D01*
X0105364Y0130500D01*
X0104000Y0130500D01*
X0104000Y0126500D01*
X0108000Y0126500D01*
X0108000Y0125500D02*
X0104000Y0125500D01*
X0104000Y0126500D01*
X0103000Y0126500D01*
X0103000Y0130500D01*
X0101636Y0130500D01*
X0099000Y0127864D01*
X0099000Y0126500D01*
X0103000Y0126500D01*
X0103000Y0125500D01*
X0104000Y0125500D01*
X0104000Y0121500D01*
X0105364Y0121500D01*
X0108000Y0124136D01*
X0108000Y0125500D01*
X0108000Y0124818D02*
X0113671Y0124818D01*
X0112878Y0123820D02*
X0107684Y0123820D01*
X0106685Y0122821D02*
X0112464Y0122821D01*
X0112314Y0121823D02*
X0105687Y0121823D01*
X0105364Y0120500D02*
X0104000Y0120500D01*
X0104000Y0116500D01*
X0108000Y0116500D01*
X0108000Y0117864D01*
X0105364Y0120500D01*
X0106038Y0119826D02*
X0112640Y0119826D01*
X0112314Y0120824D02*
X0059497Y0120824D01*
X0059584Y0119826D02*
X0059750Y0119826D01*
X0059039Y0121823D02*
X0071313Y0121823D01*
X0071636Y0121500D02*
X0075364Y0121500D01*
X0078000Y0124136D01*
X0078000Y0127864D01*
X0075364Y0130500D01*
X0071636Y0130500D01*
X0069000Y0127864D01*
X0069000Y0124136D01*
X0071636Y0121500D01*
X0071636Y0120500D02*
X0069000Y0117864D01*
X0069000Y0114136D01*
X0071636Y0111500D01*
X0075364Y0111500D01*
X0078000Y0114136D01*
X0078000Y0117864D01*
X0075364Y0120500D01*
X0071636Y0120500D01*
X0070962Y0119826D02*
X0065250Y0119826D01*
X0066249Y0118827D02*
X0069963Y0118827D01*
X0069000Y0117829D02*
X0067150Y0117829D01*
X0067150Y0116830D02*
X0069000Y0116830D01*
X0069000Y0115832D02*
X0067150Y0115832D01*
X0067150Y0114833D02*
X0069000Y0114833D01*
X0069301Y0113835D02*
X0066911Y0113835D01*
X0065912Y0112836D02*
X0070300Y0112836D01*
X0071298Y0111838D02*
X0064914Y0111838D01*
X0066421Y0107844D02*
X0114664Y0107844D01*
X0114664Y0108842D02*
X0053800Y0108842D01*
X0053800Y0109841D02*
X0114664Y0109841D01*
X0114664Y0110839D02*
X0053800Y0110839D01*
X0053800Y0111838D02*
X0060086Y0111838D01*
X0059088Y0112836D02*
X0053800Y0112836D01*
X0055421Y0107844D02*
X0058579Y0107844D01*
X0058228Y0106845D02*
X0055772Y0106845D01*
X0055772Y0105847D02*
X0058228Y0105847D01*
X0058228Y0104848D02*
X0055772Y0104848D01*
X0055772Y0103850D02*
X0058228Y0103850D01*
X0058228Y0102851D02*
X0055772Y0102851D01*
X0055772Y0101853D02*
X0058228Y0101853D01*
X0056004Y0096860D02*
X0105416Y0096860D01*
X0105633Y0095862D02*
X0076500Y0095862D01*
X0077274Y0094863D02*
X0106275Y0094863D01*
X0108500Y0097000D02*
X0104000Y0101500D01*
X0071000Y0101500D01*
X0069000Y0099500D01*
X0016000Y0099500D01*
X0009500Y0093000D01*
X0004300Y0092866D02*
X0003000Y0092866D01*
X0003000Y0091868D02*
X0004341Y0091868D01*
X0004754Y0090869D02*
X0003000Y0090869D01*
X0003000Y0089870D02*
X0005276Y0089870D01*
X0006274Y0088872D02*
X0003000Y0088872D01*
X0003000Y0087873D02*
X0007677Y0087873D01*
X0006021Y0086875D02*
X0003000Y0086875D01*
X0003000Y0085876D02*
X0005063Y0085876D01*
X0004649Y0084878D02*
X0003000Y0084878D01*
X0003000Y0083879D02*
X0004300Y0083879D01*
X0004300Y0082881D02*
X0003000Y0082881D01*
X0003000Y0081882D02*
X0004334Y0081882D01*
X0004748Y0080884D02*
X0003000Y0080884D01*
X0003000Y0079885D02*
X0005261Y0079885D01*
X0006259Y0078887D02*
X0003000Y0078887D01*
X0003000Y0077888D02*
X0007713Y0077888D01*
X0006036Y0076890D02*
X0003000Y0076890D01*
X0003000Y0075891D02*
X0005069Y0075891D01*
X0004656Y0074893D02*
X0003000Y0074893D01*
X0003000Y0073894D02*
X0004300Y0073894D01*
X0004300Y0072896D02*
X0003000Y0072896D01*
X0003000Y0071897D02*
X0004328Y0071897D01*
X0004742Y0070899D02*
X0003000Y0070899D01*
X0003000Y0069900D02*
X0005246Y0069900D01*
X0006244Y0068902D02*
X0003000Y0068902D01*
X0003000Y0067903D02*
X0007749Y0067903D01*
X0006051Y0066905D02*
X0003000Y0066905D01*
X0003000Y0065906D02*
X0005075Y0065906D01*
X0004662Y0064908D02*
X0003000Y0064908D01*
X0003000Y0063909D02*
X0004300Y0063909D01*
X0004300Y0062911D02*
X0003000Y0062911D01*
X0003000Y0061912D02*
X0004322Y0061912D01*
X0004736Y0060914D02*
X0003000Y0060914D01*
X0003000Y0059915D02*
X0005231Y0059915D01*
X0006229Y0058917D02*
X0003000Y0058917D01*
X0003000Y0057918D02*
X0007785Y0057918D01*
X0006066Y0056920D02*
X0003000Y0056920D01*
X0003000Y0055921D02*
X0005082Y0055921D01*
X0004668Y0054923D02*
X0003000Y0054923D01*
X0003000Y0053924D02*
X0004300Y0053924D01*
X0004300Y0052926D02*
X0003000Y0052926D01*
X0003000Y0051927D02*
X0004316Y0051927D01*
X0004730Y0050929D02*
X0003000Y0050929D01*
X0003000Y0049930D02*
X0005216Y0049930D01*
X0006215Y0048932D02*
X0003000Y0048932D01*
X0003000Y0047933D02*
X0007821Y0047933D01*
X0006081Y0046934D02*
X0003000Y0046934D01*
X0003000Y0045936D02*
X0005088Y0045936D01*
X0004674Y0044937D02*
X0003000Y0044937D01*
X0003000Y0043939D02*
X0004300Y0043939D01*
X0004300Y0042940D02*
X0003000Y0042940D01*
X0003000Y0041942D02*
X0004310Y0041942D01*
X0004723Y0040943D02*
X0003000Y0040943D01*
X0003000Y0039945D02*
X0005201Y0039945D01*
X0006200Y0038946D02*
X0003000Y0038946D01*
X0003000Y0037948D02*
X0007901Y0037948D01*
X0006095Y0036949D02*
X0003000Y0036949D01*
X0003000Y0035951D02*
X0005216Y0035951D01*
X0004667Y0034952D02*
X0003000Y0034952D01*
X0003000Y0033954D02*
X0004386Y0033954D01*
X0003000Y0032955D02*
X0009000Y0032955D01*
X0010000Y0032955D02*
X0104094Y0032955D01*
X0103558Y0031957D02*
X0014600Y0031957D01*
X0014296Y0030958D02*
X0103416Y0030958D01*
X0103592Y0029960D02*
X0013719Y0029960D01*
X0012788Y0028961D02*
X0104177Y0028961D01*
X0105773Y0027963D02*
X0011107Y0027963D01*
X0012890Y0026964D02*
X0113416Y0026964D01*
X0113560Y0027963D02*
X0107227Y0027963D01*
X0108823Y0028961D02*
X0114100Y0028961D01*
X0116500Y0027000D02*
X0117500Y0028000D01*
X0156500Y0028000D01*
X0161500Y0033000D01*
X0161500Y0039000D01*
X0163500Y0041000D01*
X0170500Y0041000D01*
X0183500Y0054000D01*
X0188500Y0054000D01*
X0181587Y0059915D02*
X0180779Y0059915D01*
X0180364Y0059500D02*
X0183000Y0062136D01*
X0183000Y0063500D01*
X0179000Y0063500D01*
X0179000Y0059500D01*
X0180364Y0059500D01*
X0180588Y0058917D02*
X0169903Y0058917D01*
X0170542Y0057918D02*
X0179590Y0057918D01*
X0178591Y0056920D02*
X0170956Y0056920D01*
X0170968Y0055921D02*
X0177593Y0055921D01*
X0176594Y0054923D02*
X0170890Y0054923D01*
X0170477Y0053924D02*
X0175596Y0053924D01*
X0175500Y0051000D02*
X0188500Y0064000D01*
X0183661Y0065906D02*
X0182958Y0065906D01*
X0183000Y0064908D02*
X0183300Y0064908D01*
X0183300Y0063909D02*
X0179000Y0063909D01*
X0179000Y0062911D02*
X0178000Y0062911D01*
X0178000Y0063500D02*
X0178000Y0059500D01*
X0176636Y0059500D01*
X0174000Y0062136D01*
X0174000Y0063500D01*
X0178000Y0063500D01*
X0178000Y0063909D02*
X0172238Y0063909D01*
X0173236Y0064908D02*
X0174000Y0064908D01*
X0174000Y0062911D02*
X0171239Y0062911D01*
X0170241Y0061912D02*
X0174224Y0061912D01*
X0175222Y0060914D02*
X0118242Y0060914D01*
X0117244Y0059915D02*
X0164275Y0059915D01*
X0163097Y0058917D02*
X0116245Y0058917D01*
X0115247Y0057918D02*
X0162458Y0057918D01*
X0162044Y0056920D02*
X0114248Y0056920D01*
X0113250Y0055921D02*
X0162031Y0055921D01*
X0162110Y0054923D02*
X0112251Y0054923D01*
X0111252Y0053924D02*
X0162523Y0053924D01*
X0160597Y0052926D02*
X0110254Y0052926D01*
X0109255Y0051927D02*
X0159599Y0051927D01*
X0158600Y0050929D02*
X0108257Y0050929D01*
X0107258Y0049930D02*
X0157602Y0049930D01*
X0156603Y0048932D02*
X0106260Y0048932D01*
X0105261Y0047933D02*
X0156500Y0047933D01*
X0156500Y0046934D02*
X0104263Y0046934D01*
X0103500Y0045936D02*
X0156500Y0045936D01*
X0156500Y0044937D02*
X0103500Y0044937D01*
X0103500Y0043939D02*
X0156500Y0043939D01*
X0156500Y0042940D02*
X0103500Y0042940D01*
X0103500Y0041942D02*
X0156500Y0041942D01*
X0156500Y0040943D02*
X0103918Y0040943D01*
X0104447Y0039945D02*
X0156500Y0039945D01*
X0156500Y0038946D02*
X0104584Y0038946D01*
X0104403Y0037948D02*
X0156500Y0037948D01*
X0156500Y0036949D02*
X0103811Y0036949D01*
X0102198Y0035951D02*
X0156500Y0035951D01*
X0155624Y0034952D02*
X0014333Y0034952D01*
X0014614Y0033954D02*
X0105572Y0033954D01*
X0107428Y0033954D02*
X0154625Y0033954D01*
X0154500Y0031000D02*
X0106500Y0031000D01*
X0100802Y0035951D02*
X0013784Y0035951D01*
X0012905Y0036949D02*
X0099189Y0036949D01*
X0098597Y0037948D02*
X0011099Y0037948D01*
X0012800Y0038946D02*
X0098416Y0038946D01*
X0098553Y0039945D02*
X0013799Y0039945D01*
X0014277Y0040943D02*
X0099082Y0040943D01*
X0099500Y0041942D02*
X0027270Y0041942D01*
X0028269Y0042940D02*
X0099500Y0042940D01*
X0099500Y0043939D02*
X0096170Y0043939D01*
X0096113Y0043916D02*
X0097247Y0044385D01*
X0098115Y0045253D01*
X0098584Y0046386D01*
X0098584Y0047613D01*
X0098115Y0048747D01*
X0097247Y0049615D01*
X0096113Y0050084D01*
X0095668Y0050084D01*
X0085800Y0059953D01*
X0085800Y0066531D01*
X0087389Y0066531D01*
X0089031Y0067212D01*
X0090288Y0068469D01*
X0090968Y0070111D01*
X0090968Y0071889D01*
X0090288Y0073531D01*
X0089031Y0074788D01*
X0087389Y0075468D01*
X0085611Y0075468D01*
X0083969Y0074788D01*
X0082712Y0073531D01*
X0082031Y0071889D01*
X0082031Y0070111D01*
X0082127Y0069880D01*
X0081200Y0068953D01*
X0081200Y0058047D01*
X0092416Y0046832D01*
X0092416Y0046386D01*
X0092885Y0045253D01*
X0093753Y0044385D01*
X0094886Y0043916D01*
X0096113Y0043916D01*
X0094830Y0043939D02*
X0029267Y0043939D01*
X0030266Y0044937D02*
X0093201Y0044937D01*
X0092602Y0045936D02*
X0031264Y0045936D01*
X0032263Y0046934D02*
X0092313Y0046934D01*
X0091314Y0047933D02*
X0033261Y0047933D01*
X0034260Y0048932D02*
X0090316Y0048932D01*
X0089317Y0049930D02*
X0035258Y0049930D01*
X0036257Y0050929D02*
X0088319Y0050929D01*
X0087320Y0051927D02*
X0037255Y0051927D01*
X0038254Y0052926D02*
X0086322Y0052926D01*
X0085323Y0053924D02*
X0039252Y0053924D01*
X0040251Y0054923D02*
X0084325Y0054923D01*
X0083326Y0055921D02*
X0041250Y0055921D01*
X0042248Y0056920D02*
X0082328Y0056920D01*
X0081329Y0057918D02*
X0044119Y0057918D01*
X0045778Y0058917D02*
X0081200Y0058917D01*
X0081200Y0059915D02*
X0046389Y0059915D01*
X0046584Y0060914D02*
X0081200Y0060914D01*
X0081200Y0061912D02*
X0071241Y0061912D01*
X0072239Y0062911D02*
X0081200Y0062911D01*
X0081200Y0063909D02*
X0073238Y0063909D01*
X0073500Y0064908D02*
X0081200Y0064908D01*
X0081200Y0065906D02*
X0073500Y0065906D01*
X0073500Y0066905D02*
X0074710Y0066905D01*
X0078290Y0066905D02*
X0081200Y0066905D01*
X0081200Y0067903D02*
X0079723Y0067903D01*
X0080468Y0068902D02*
X0081200Y0068902D01*
X0080881Y0069900D02*
X0082119Y0069900D01*
X0082031Y0070899D02*
X0080968Y0070899D01*
X0080965Y0071897D02*
X0082035Y0071897D01*
X0082449Y0072896D02*
X0080551Y0072896D01*
X0079925Y0073894D02*
X0083075Y0073894D01*
X0084221Y0074893D02*
X0078779Y0074893D01*
X0075220Y0075891D02*
X0103780Y0075891D01*
X0104221Y0074893D02*
X0098779Y0074893D01*
X0099031Y0074788D02*
X0097389Y0075468D01*
X0095611Y0075468D01*
X0093969Y0074788D01*
X0092712Y0073531D01*
X0092031Y0071889D01*
X0092031Y0070111D01*
X0092712Y0068469D01*
X0093969Y0067212D01*
X0095611Y0066531D01*
X0097389Y0066531D01*
X0099031Y0067212D01*
X0100288Y0068469D01*
X0100968Y0070111D01*
X0100968Y0071889D01*
X0100288Y0073531D01*
X0099031Y0074788D01*
X0099925Y0073894D02*
X0103075Y0073894D01*
X0102449Y0072896D02*
X0100551Y0072896D01*
X0100965Y0071897D02*
X0102035Y0071897D01*
X0102031Y0070899D02*
X0100968Y0070899D01*
X0100881Y0069900D02*
X0102119Y0069900D01*
X0102532Y0068902D02*
X0100468Y0068902D01*
X0099723Y0067903D02*
X0103277Y0067903D01*
X0104710Y0066905D02*
X0098290Y0066905D01*
X0099257Y0064908D02*
X0093743Y0064908D01*
X0094031Y0064788D02*
X0092389Y0065468D01*
X0090611Y0065468D01*
X0088969Y0064788D01*
X0087712Y0063531D01*
X0087031Y0061889D01*
X0087031Y0060111D01*
X0087712Y0058469D01*
X0088969Y0057212D01*
X0090611Y0056531D01*
X0092389Y0056531D01*
X0094031Y0057212D01*
X0095288Y0058469D01*
X0095968Y0060111D01*
X0095968Y0061889D01*
X0095288Y0063531D01*
X0094031Y0064788D01*
X0094910Y0063909D02*
X0098090Y0063909D01*
X0097712Y0063531D02*
X0097031Y0061889D01*
X0097031Y0060111D01*
X0097712Y0058469D01*
X0098969Y0057212D01*
X0100611Y0056531D01*
X0102389Y0056531D01*
X0104031Y0057212D01*
X0105288Y0058469D01*
X0105968Y0060111D01*
X0105968Y0061889D01*
X0105288Y0063531D01*
X0104031Y0064788D01*
X0102389Y0065468D01*
X0100611Y0065468D01*
X0098969Y0064788D01*
X0097712Y0063531D01*
X0097455Y0062911D02*
X0095545Y0062911D01*
X0095959Y0061912D02*
X0097041Y0061912D01*
X0097031Y0060914D02*
X0095968Y0060914D01*
X0095887Y0059915D02*
X0097113Y0059915D01*
X0097526Y0058917D02*
X0095474Y0058917D01*
X0094738Y0057918D02*
X0098262Y0057918D01*
X0099674Y0056920D02*
X0093326Y0056920D01*
X0090830Y0054923D02*
X0106594Y0054923D01*
X0107593Y0055921D02*
X0089832Y0055921D01*
X0089674Y0056920D02*
X0088833Y0056920D01*
X0088262Y0057918D02*
X0087835Y0057918D01*
X0087526Y0058917D02*
X0086836Y0058917D01*
X0087113Y0059915D02*
X0085838Y0059915D01*
X0085800Y0060914D02*
X0087031Y0060914D01*
X0087041Y0061912D02*
X0085800Y0061912D01*
X0085800Y0062911D02*
X0087455Y0062911D01*
X0088090Y0063909D02*
X0085800Y0063909D01*
X0085800Y0064908D02*
X0089257Y0064908D01*
X0088290Y0066905D02*
X0094710Y0066905D01*
X0093277Y0067903D02*
X0089723Y0067903D01*
X0090468Y0068902D02*
X0092532Y0068902D01*
X0092119Y0069900D02*
X0090881Y0069900D01*
X0090968Y0070899D02*
X0092031Y0070899D01*
X0092035Y0071897D02*
X0090965Y0071897D01*
X0090551Y0072896D02*
X0092449Y0072896D01*
X0093075Y0073894D02*
X0089925Y0073894D01*
X0088779Y0074893D02*
X0094221Y0074893D01*
X0091083Y0080884D02*
X0140363Y0080884D01*
X0140623Y0079885D02*
X0105443Y0079885D01*
X0106442Y0078887D02*
X0141251Y0078887D01*
X0139365Y0081882D02*
X0091084Y0081882D01*
X0090766Y0082881D02*
X0138366Y0082881D01*
X0137368Y0083879D02*
X0089982Y0083879D01*
X0088000Y0081500D02*
X0061500Y0081500D01*
X0061000Y0081500D01*
X0055500Y0076000D01*
X0030500Y0076000D01*
X0029500Y0075000D01*
X0026620Y0073894D02*
X0014700Y0073894D01*
X0014700Y0074034D02*
X0013908Y0075946D01*
X0012446Y0077408D01*
X0011017Y0078000D01*
X0012446Y0078592D01*
X0013908Y0080054D01*
X0014300Y0081000D01*
X0017328Y0081000D01*
X0019000Y0082672D01*
X0019000Y0081136D01*
X0021636Y0078500D01*
X0025364Y0078500D01*
X0028000Y0081136D01*
X0028000Y0084864D01*
X0026864Y0086000D01*
X0030136Y0086000D01*
X0029000Y0084864D01*
X0029000Y0083500D01*
X0033000Y0083500D01*
X0033000Y0082500D01*
X0034000Y0082500D01*
X0034000Y0083500D01*
X0038000Y0083500D01*
X0038000Y0084864D01*
X0036864Y0086000D01*
X0040136Y0086000D01*
X0039000Y0084864D01*
X0039000Y0081136D01*
X0041636Y0078500D01*
X0045364Y0078500D01*
X0048000Y0081136D01*
X0048000Y0084864D01*
X0046864Y0086000D01*
X0050136Y0086000D01*
X0049000Y0084864D01*
X0049000Y0081136D01*
X0051636Y0078500D01*
X0055172Y0078500D01*
X0054672Y0078000D01*
X0030317Y0078000D01*
X0030113Y0078084D01*
X0028886Y0078084D01*
X0027753Y0077615D01*
X0026885Y0076747D01*
X0026416Y0075613D01*
X0026416Y0074386D01*
X0026885Y0073253D01*
X0027138Y0073000D01*
X0014700Y0073000D01*
X0014700Y0074034D01*
X0014344Y0074893D02*
X0026416Y0074893D01*
X0026531Y0075891D02*
X0013931Y0075891D01*
X0012964Y0076890D02*
X0027028Y0076890D01*
X0028414Y0077888D02*
X0011287Y0077888D01*
X0012741Y0078887D02*
X0021249Y0078887D01*
X0020251Y0079885D02*
X0013739Y0079885D01*
X0014252Y0080884D02*
X0019252Y0080884D01*
X0019000Y0081882D02*
X0018211Y0081882D01*
X0016500Y0083000D02*
X0021500Y0088000D01*
X0069000Y0088000D01*
X0074500Y0093500D01*
X0071726Y0094863D02*
X0058000Y0094863D01*
X0058000Y0093865D02*
X0071416Y0093865D01*
X0071038Y0092866D02*
X0058000Y0092866D01*
X0058000Y0091868D02*
X0070039Y0091868D01*
X0069041Y0090869D02*
X0057733Y0090869D01*
X0057002Y0095862D02*
X0072500Y0095862D01*
X0070187Y0097859D02*
X0104813Y0097859D01*
X0103814Y0098857D02*
X0071186Y0098857D01*
X0077584Y0093865D02*
X0136200Y0093865D01*
X0136200Y0094863D02*
X0110725Y0094863D01*
X0111367Y0095862D02*
X0136200Y0095862D01*
X0136200Y0096860D02*
X0111584Y0096860D01*
X0111483Y0097859D02*
X0136200Y0097859D01*
X0140800Y0097047D02*
X0140800Y0094278D01*
X0140953Y0094366D01*
X0141334Y0094468D01*
X0144016Y0094468D01*
X0144016Y0090484D01*
X0144984Y0090484D01*
X0144984Y0094468D01*
X0147666Y0094468D01*
X0148047Y0094366D01*
X0148390Y0094169D01*
X0148669Y0093890D01*
X0148866Y0093547D01*
X0148968Y0093166D01*
X0148968Y0090484D01*
X0144984Y0090484D01*
X0144984Y0089516D01*
X0144984Y0085531D01*
X0147666Y0085531D01*
X0148047Y0085634D01*
X0148390Y0085831D01*
X0148669Y0086110D01*
X0148866Y0086453D01*
X0148968Y0086834D01*
X0148968Y0089516D01*
X0144984Y0089516D01*
X0144016Y0089516D01*
X0144016Y0085531D01*
X0142221Y0085531D01*
X0143668Y0084084D01*
X0144113Y0084084D01*
X0145247Y0083615D01*
X0146115Y0082747D01*
X0146584Y0081613D01*
X0146584Y0080913D01*
X0148672Y0083000D01*
X0160672Y0083000D01*
X0162500Y0084828D01*
X0162500Y0085992D01*
X0161969Y0086212D01*
X0160712Y0087469D01*
X0160031Y0089111D01*
X0160031Y0090889D01*
X0160712Y0092531D01*
X0161181Y0093000D01*
X0158672Y0093000D01*
X0155920Y0095752D01*
X0155389Y0095531D01*
X0153611Y0095531D01*
X0151969Y0096212D01*
X0150712Y0097469D01*
X0150031Y0099111D01*
X0150031Y0100889D01*
X0150712Y0102531D01*
X0151969Y0103788D01*
X0153611Y0104468D01*
X0155389Y0104468D01*
X0157031Y0103788D01*
X0158288Y0102531D01*
X0158968Y0100889D01*
X0158968Y0099111D01*
X0158748Y0098580D01*
X0160328Y0097000D01*
X0161181Y0097000D01*
X0160712Y0097469D01*
X0160031Y0099111D01*
X0160031Y0100889D01*
X0160712Y0102531D01*
X0161969Y0103788D01*
X0162500Y0104008D01*
X0162500Y0105000D01*
X0153862Y0105000D01*
X0153247Y0104385D01*
X0152113Y0103916D01*
X0150886Y0103916D01*
X0149753Y0104385D01*
X0149007Y0105131D01*
X0147348Y0103472D01*
X0148288Y0102531D01*
X0148968Y0100889D01*
X0148968Y0099111D01*
X0148288Y0097469D01*
X0147031Y0096212D01*
X0145389Y0095531D01*
X0143611Y0095531D01*
X0141969Y0096212D01*
X0140967Y0097214D01*
X0140800Y0097047D01*
X0140800Y0096860D02*
X0141321Y0096860D01*
X0140800Y0095862D02*
X0142814Y0095862D01*
X0140800Y0094863D02*
X0156809Y0094863D01*
X0156847Y0093865D02*
X0157807Y0093865D01*
X0157031Y0093788D02*
X0158288Y0092531D01*
X0158968Y0090889D01*
X0158968Y0089111D01*
X0158288Y0087469D01*
X0157031Y0086212D01*
X0155389Y0085531D01*
X0153611Y0085531D01*
X0151969Y0086212D01*
X0150712Y0087469D01*
X0150031Y0089111D01*
X0150031Y0090889D01*
X0150712Y0092531D01*
X0151969Y0093788D01*
X0153611Y0094468D01*
X0155389Y0094468D01*
X0157031Y0093788D01*
X0157953Y0092866D02*
X0161047Y0092866D01*
X0160437Y0091868D02*
X0158563Y0091868D01*
X0158968Y0090869D02*
X0160031Y0090869D01*
X0160031Y0089870D02*
X0158968Y0089870D01*
X0158869Y0088872D02*
X0160131Y0088872D01*
X0160544Y0087873D02*
X0158456Y0087873D01*
X0157694Y0086875D02*
X0161306Y0086875D01*
X0162500Y0085876D02*
X0156222Y0085876D01*
X0152778Y0085876D02*
X0148435Y0085876D01*
X0148968Y0086875D02*
X0151306Y0086875D01*
X0150544Y0087873D02*
X0148968Y0087873D01*
X0148968Y0088872D02*
X0150131Y0088872D01*
X0150031Y0089870D02*
X0144984Y0089870D01*
X0144984Y0088872D02*
X0144016Y0088872D01*
X0144016Y0087873D02*
X0144984Y0087873D01*
X0144984Y0086875D02*
X0144016Y0086875D01*
X0144016Y0085876D02*
X0144984Y0085876D01*
X0144608Y0083879D02*
X0161551Y0083879D01*
X0162500Y0084878D02*
X0142875Y0084878D01*
X0145981Y0082881D02*
X0148552Y0082881D01*
X0147554Y0081882D02*
X0146473Y0081882D01*
X0149500Y0081000D02*
X0144500Y0076000D01*
X0137500Y0076000D01*
X0136500Y0075000D01*
X0136500Y0071000D01*
X0138290Y0066905D02*
X0144710Y0066905D01*
X0143277Y0067903D02*
X0139723Y0067903D01*
X0140468Y0068902D02*
X0142532Y0068902D01*
X0142119Y0069900D02*
X0140881Y0069900D01*
X0140968Y0070899D02*
X0142031Y0070899D01*
X0142035Y0071897D02*
X0140965Y0071897D01*
X0140551Y0072896D02*
X0142449Y0072896D01*
X0143075Y0073894D02*
X0139925Y0073894D01*
X0136560Y0077888D02*
X0107440Y0077888D01*
X0108439Y0076890D02*
X0135561Y0076890D01*
X0134563Y0075891D02*
X0108500Y0075891D01*
X0108779Y0074893D02*
X0114221Y0074893D01*
X0113969Y0074788D02*
X0112712Y0073531D01*
X0112031Y0071889D01*
X0112031Y0070111D01*
X0112712Y0068469D01*
X0113969Y0067212D01*
X0115611Y0066531D01*
X0117389Y0066531D01*
X0119031Y0067212D01*
X0120288Y0068469D01*
X0120968Y0070111D01*
X0120968Y0071889D01*
X0120288Y0073531D01*
X0119031Y0074788D01*
X0117389Y0075468D01*
X0115611Y0075468D01*
X0113969Y0074788D01*
X0113075Y0073894D02*
X0109925Y0073894D01*
X0110551Y0072896D02*
X0112449Y0072896D01*
X0112035Y0071897D02*
X0110965Y0071897D01*
X0110968Y0070899D02*
X0112031Y0070899D01*
X0112119Y0069900D02*
X0110881Y0069900D01*
X0110468Y0068902D02*
X0112532Y0068902D01*
X0113277Y0067903D02*
X0109723Y0067903D01*
X0108290Y0066905D02*
X0114710Y0066905D01*
X0116579Y0064908D02*
X0103743Y0064908D01*
X0104910Y0063909D02*
X0115581Y0063909D01*
X0114582Y0062911D02*
X0105545Y0062911D01*
X0105959Y0061912D02*
X0113584Y0061912D01*
X0112585Y0060914D02*
X0105968Y0060914D01*
X0105887Y0059915D02*
X0111587Y0059915D01*
X0110588Y0058917D02*
X0105474Y0058917D01*
X0104738Y0057918D02*
X0109590Y0057918D01*
X0108591Y0056920D02*
X0103326Y0056920D01*
X0105596Y0053924D02*
X0091829Y0053924D01*
X0092827Y0052926D02*
X0104597Y0052926D01*
X0103599Y0051927D02*
X0093826Y0051927D01*
X0094824Y0050929D02*
X0102600Y0050929D01*
X0101602Y0049930D02*
X0096486Y0049930D01*
X0097930Y0048932D02*
X0100603Y0048932D01*
X0099605Y0047933D02*
X0098452Y0047933D01*
X0098584Y0046934D02*
X0099500Y0046934D01*
X0099500Y0045936D02*
X0098398Y0045936D01*
X0097799Y0044937D02*
X0099500Y0044937D01*
X0101500Y0047000D02*
X0101500Y0039000D01*
X0101500Y0047000D02*
X0117500Y0063000D01*
X0168500Y0063000D01*
X0174500Y0069000D01*
X0183500Y0069000D01*
X0188500Y0074000D01*
X0188500Y0094000D01*
X0191000Y0096500D01*
X0191000Y0100000D01*
X0191000Y0102500D01*
X0187500Y0106000D01*
X0182500Y0106000D01*
X0180500Y0108000D01*
X0180500Y0176000D01*
X0177682Y0174744D02*
X0154271Y0174744D01*
X0154299Y0175742D02*
X0177416Y0175742D01*
X0177469Y0176741D02*
X0154299Y0176741D01*
X0154299Y0178500D02*
X0154299Y0181150D01*
X0154197Y0181532D01*
X0153999Y0181874D01*
X0153720Y0182153D01*
X0153378Y0182351D01*
X0152997Y0182453D01*
X0150740Y0182453D01*
X0150740Y0178500D01*
X0154299Y0178500D01*
X0154299Y0178738D02*
X0179051Y0178738D01*
X0177882Y0177739D02*
X0150740Y0177739D01*
X0150740Y0176741D02*
X0149740Y0176741D01*
X0149740Y0175742D02*
X0150740Y0175742D01*
X0150740Y0174744D02*
X0149740Y0174744D01*
X0149740Y0173745D02*
X0150740Y0173745D01*
X0153544Y0173745D02*
X0178393Y0173745D01*
X0178500Y0172747D02*
X0135800Y0172747D01*
X0135800Y0173745D02*
X0139381Y0173745D01*
X0135800Y0171748D02*
X0178500Y0171748D01*
X0178500Y0170750D02*
X0170170Y0170750D01*
X0170051Y0170799D02*
X0166949Y0170799D01*
X0164082Y0169612D01*
X0161888Y0167418D01*
X0160701Y0164551D01*
X0160701Y0161449D01*
X0161888Y0158582D01*
X0164082Y0156388D01*
X0166949Y0155201D01*
X0170051Y0155201D01*
X0172918Y0156388D01*
X0175112Y0158582D01*
X0176299Y0161449D01*
X0176299Y0164551D01*
X0175112Y0167418D01*
X0172918Y0169612D01*
X0170051Y0170799D01*
X0172581Y0169751D02*
X0178500Y0169751D01*
X0178500Y0168753D02*
X0173777Y0168753D01*
X0174775Y0167754D02*
X0178500Y0167754D01*
X0178500Y0166756D02*
X0175386Y0166756D01*
X0175800Y0165757D02*
X0178500Y0165757D01*
X0178500Y0164759D02*
X0176213Y0164759D01*
X0176299Y0163760D02*
X0178500Y0163760D01*
X0178500Y0162762D02*
X0176299Y0162762D01*
X0176299Y0161763D02*
X0178500Y0161763D01*
X0178500Y0160765D02*
X0176016Y0160765D01*
X0175602Y0159766D02*
X0178500Y0159766D01*
X0178500Y0158768D02*
X0175189Y0158768D01*
X0174299Y0157769D02*
X0178500Y0157769D01*
X0178500Y0156771D02*
X0173300Y0156771D01*
X0172637Y0154774D02*
X0140330Y0154774D01*
X0140584Y0155772D02*
X0165569Y0155772D01*
X0163699Y0156771D02*
X0140519Y0156771D01*
X0140093Y0157769D02*
X0162701Y0157769D01*
X0161811Y0158768D02*
X0138878Y0158768D01*
X0136122Y0158768D02*
X0134520Y0158768D01*
X0134907Y0157769D02*
X0133522Y0157769D01*
X0134481Y0156771D02*
X0132523Y0156771D01*
X0131153Y0155772D02*
X0134416Y0155772D01*
X0134670Y0154774D02*
X0129333Y0154774D01*
X0129155Y0151300D02*
X0130736Y0150645D01*
X0131945Y0149436D01*
X0132600Y0147855D01*
X0132600Y0146145D01*
X0131945Y0144564D01*
X0130736Y0143355D01*
X0129155Y0142700D01*
X0121845Y0142700D01*
X0120264Y0143355D01*
X0119055Y0144564D01*
X0118400Y0146145D01*
X0118400Y0147855D01*
X0119055Y0149436D01*
X0120264Y0150645D01*
X0121845Y0151300D01*
X0129155Y0151300D01*
X0130411Y0150780D02*
X0135200Y0150780D01*
X0135200Y0151778D02*
X0053800Y0151778D01*
X0053800Y0150780D02*
X0120589Y0150780D01*
X0119400Y0149781D02*
X0053800Y0149781D01*
X0053800Y0148783D02*
X0118784Y0148783D01*
X0118400Y0147784D02*
X0053800Y0147784D01*
X0053800Y0146786D02*
X0118400Y0146786D01*
X0118548Y0145787D02*
X0053800Y0145787D01*
X0053800Y0144789D02*
X0118962Y0144789D01*
X0119829Y0143790D02*
X0053800Y0143790D01*
X0053800Y0142792D02*
X0121624Y0142792D01*
X0121845Y0141300D02*
X0120264Y0140645D01*
X0119055Y0139436D01*
X0118400Y0137855D01*
X0118400Y0136145D01*
X0118750Y0135300D01*
X0098547Y0135300D01*
X0093747Y0130500D01*
X0091636Y0130500D01*
X0089000Y0127864D01*
X0089000Y0124136D01*
X0091636Y0121500D01*
X0095364Y0121500D01*
X0098000Y0124136D01*
X0098000Y0127864D01*
X0097808Y0128056D01*
X0100453Y0130700D01*
X0122453Y0130700D01*
X0124453Y0132700D01*
X0129155Y0132700D01*
X0130736Y0133355D01*
X0131945Y0134564D01*
X0132600Y0136145D01*
X0132600Y0137855D01*
X0131945Y0139436D01*
X0130736Y0140645D01*
X0129155Y0141300D01*
X0121845Y0141300D01*
X0120624Y0140795D02*
X0053800Y0140795D01*
X0053800Y0141793D02*
X0135200Y0141793D01*
X0135200Y0140795D02*
X0130376Y0140795D01*
X0131585Y0139796D02*
X0135200Y0139796D01*
X0135200Y0138798D02*
X0132210Y0138798D01*
X0132600Y0137799D02*
X0135200Y0137799D01*
X0135200Y0136801D02*
X0132600Y0136801D01*
X0132458Y0135802D02*
X0135200Y0135802D01*
X0135200Y0134803D02*
X0132044Y0134803D01*
X0131186Y0133805D02*
X0135200Y0133805D01*
X0135200Y0132806D02*
X0129412Y0132806D01*
X0134497Y0130809D02*
X0122562Y0130809D01*
X0123561Y0131808D02*
X0134946Y0131808D01*
X0134416Y0129811D02*
X0106053Y0129811D01*
X0107052Y0128812D02*
X0134654Y0128812D01*
X0135324Y0127814D02*
X0108000Y0127814D01*
X0104000Y0127814D02*
X0103000Y0127814D01*
X0103000Y0128812D02*
X0104000Y0128812D01*
X0104000Y0129811D02*
X0103000Y0129811D01*
X0100947Y0129811D02*
X0099564Y0129811D01*
X0099948Y0128812D02*
X0098565Y0128812D01*
X0099000Y0127814D02*
X0098000Y0127814D01*
X0098000Y0126815D02*
X0099000Y0126815D01*
X0099000Y0125500D02*
X0099000Y0124136D01*
X0101636Y0121500D01*
X0103000Y0121500D01*
X0103000Y0125500D01*
X0099000Y0125500D01*
X0099000Y0124818D02*
X0098000Y0124818D01*
X0098000Y0125817D02*
X0103000Y0125817D01*
X0103000Y0126815D02*
X0104000Y0126815D01*
X0104000Y0125817D02*
X0115150Y0125817D01*
X0118779Y0125817D02*
X0138913Y0125817D01*
X0138913Y0124818D02*
X0120258Y0124818D01*
X0121051Y0123820D02*
X0138913Y0123820D01*
X0138913Y0122821D02*
X0121465Y0122821D01*
X0121614Y0121823D02*
X0139170Y0121823D01*
X0141750Y0121823D02*
X0142423Y0121823D01*
X0142423Y0122821D02*
X0141750Y0122821D01*
X0141750Y0123820D02*
X0142423Y0123820D01*
X0142423Y0124818D02*
X0141750Y0124818D01*
X0141750Y0125817D02*
X0142423Y0125817D01*
X0142423Y0127814D02*
X0141750Y0127814D01*
X0141750Y0128812D02*
X0142423Y0128812D01*
X0142423Y0129811D02*
X0141750Y0129811D01*
X0141750Y0130809D02*
X0142423Y0130809D01*
X0142423Y0131808D02*
X0141750Y0131808D01*
X0141750Y0132806D02*
X0142423Y0132806D01*
X0144031Y0133805D02*
X0139800Y0133805D01*
X0139800Y0134803D02*
X0144031Y0134803D01*
X0144141Y0135802D02*
X0139800Y0135802D01*
X0139800Y0136801D02*
X0145371Y0136801D01*
X0144101Y0137799D02*
X0139800Y0137799D01*
X0139800Y0138798D02*
X0142770Y0138798D01*
X0142500Y0139796D02*
X0139800Y0139796D01*
X0139800Y0140795D02*
X0142500Y0140795D01*
X0142500Y0141793D02*
X0139800Y0141793D01*
X0139800Y0142792D02*
X0142500Y0142792D01*
X0143462Y0143790D02*
X0139800Y0143790D01*
X0139800Y0148783D02*
X0146122Y0148783D01*
X0146122Y0149781D02*
X0139800Y0149781D01*
X0139800Y0150780D02*
X0146753Y0150780D01*
X0153216Y0150780D02*
X0164151Y0150780D01*
X0162919Y0149781D02*
X0153846Y0149781D01*
X0153846Y0148783D02*
X0162486Y0148783D01*
X0162416Y0147784D02*
X0155969Y0147784D01*
X0156967Y0146786D02*
X0162665Y0146786D01*
X0165500Y0148000D02*
X0167220Y0146280D01*
X0173016Y0146280D01*
X0173016Y0148839D02*
X0173000Y0150854D01*
X0174000Y0152000D01*
X0176833Y0150780D02*
X0178500Y0150780D01*
X0178500Y0151778D02*
X0177084Y0151778D01*
X0177017Y0152777D02*
X0178500Y0152777D01*
X0178500Y0153775D02*
X0176587Y0153775D01*
X0175363Y0154774D02*
X0178500Y0154774D01*
X0178500Y0155772D02*
X0171431Y0155772D01*
X0171413Y0153775D02*
X0139800Y0153775D01*
X0139800Y0152777D02*
X0170983Y0152777D01*
X0170916Y0151778D02*
X0139800Y0151778D01*
X0135200Y0152777D02*
X0053800Y0152777D01*
X0053800Y0153775D02*
X0135200Y0153775D01*
X0135200Y0149781D02*
X0131600Y0149781D01*
X0132216Y0148783D02*
X0135200Y0148783D01*
X0135200Y0147784D02*
X0132600Y0147784D01*
X0132600Y0146786D02*
X0135196Y0146786D01*
X0135200Y0145787D02*
X0132452Y0145787D01*
X0132038Y0144789D02*
X0135200Y0144789D01*
X0135200Y0143790D02*
X0131171Y0143790D01*
X0129376Y0142792D02*
X0135200Y0142792D01*
X0139800Y0132806D02*
X0140125Y0132806D01*
X0145260Y0128812D02*
X0149740Y0128812D01*
X0149740Y0127814D02*
X0145260Y0127814D01*
X0145260Y0125817D02*
X0149740Y0125817D01*
X0149740Y0124818D02*
X0145260Y0124818D01*
X0142511Y0120824D02*
X0121614Y0120824D01*
X0121289Y0119826D02*
X0142100Y0119826D01*
X0142100Y0118827D02*
X0126249Y0118827D01*
X0125962Y0119114D02*
X0127111Y0117965D01*
X0124036Y0114889D01*
X0124460Y0114464D01*
X0127536Y0111389D01*
X0128686Y0112538D01*
X0128686Y0116391D01*
X0127536Y0117540D01*
X0124460Y0114464D01*
X0124036Y0114040D01*
X0127111Y0110964D01*
X0125962Y0109814D01*
X0122109Y0109814D01*
X0120960Y0110964D01*
X0124035Y0114040D01*
X0123611Y0114464D01*
X0120535Y0111389D01*
X0119386Y0112538D01*
X0119386Y0116391D01*
X0120535Y0117540D01*
X0123611Y0114464D01*
X0124035Y0114889D01*
X0120960Y0117965D01*
X0122109Y0119114D01*
X0125962Y0119114D01*
X0126976Y0117829D02*
X0142100Y0117829D01*
X0142100Y0116830D02*
X0128246Y0116830D01*
X0128686Y0115832D02*
X0142100Y0115832D01*
X0142100Y0114833D02*
X0128686Y0114833D01*
X0128686Y0113835D02*
X0142100Y0113835D01*
X0142100Y0112836D02*
X0128686Y0112836D01*
X0127985Y0111838D02*
X0134262Y0111838D01*
X0133263Y0110839D02*
X0126986Y0110839D01*
X0127086Y0111838D02*
X0126238Y0111838D01*
X0126088Y0112836D02*
X0125239Y0112836D01*
X0125089Y0113835D02*
X0124241Y0113835D01*
X0123830Y0113835D02*
X0122982Y0113835D01*
X0122832Y0112836D02*
X0121983Y0112836D01*
X0121833Y0111838D02*
X0120985Y0111838D01*
X0120086Y0111838D02*
X0119264Y0111838D01*
X0119264Y0112836D02*
X0119386Y0112836D01*
X0119386Y0113835D02*
X0119264Y0113835D01*
X0119264Y0114833D02*
X0119386Y0114833D01*
X0119386Y0115832D02*
X0119264Y0115832D01*
X0119264Y0116830D02*
X0119825Y0116830D01*
X0119834Y0117829D02*
X0121095Y0117829D01*
X0121245Y0116830D02*
X0122094Y0116830D01*
X0122244Y0115832D02*
X0123092Y0115832D01*
X0123242Y0114833D02*
X0123980Y0114833D01*
X0124091Y0114833D02*
X0124829Y0114833D01*
X0124979Y0115832D02*
X0125827Y0115832D01*
X0125977Y0116830D02*
X0126826Y0116830D01*
X0121822Y0118827D02*
X0120832Y0118827D01*
X0114664Y0116830D02*
X0108000Y0116830D01*
X0108000Y0117829D02*
X0114095Y0117829D01*
X0113097Y0118827D02*
X0107037Y0118827D01*
X0104000Y0118827D02*
X0103000Y0118827D01*
X0103000Y0117829D02*
X0104000Y0117829D01*
X0104000Y0116830D02*
X0103000Y0116830D01*
X0103000Y0116500D02*
X0103000Y0120500D01*
X0101636Y0120500D01*
X0099000Y0117864D01*
X0099000Y0116500D01*
X0103000Y0116500D01*
X0104000Y0116500D01*
X0104000Y0115500D01*
X0108000Y0115500D01*
X0108000Y0114136D01*
X0105364Y0111500D01*
X0104000Y0111500D01*
X0104000Y0115500D01*
X0103000Y0115500D01*
X0103000Y0111500D01*
X0101636Y0111500D01*
X0099000Y0114136D01*
X0099000Y0115500D01*
X0103000Y0115500D01*
X0103000Y0116500D01*
X0103000Y0115832D02*
X0098000Y0115832D01*
X0098000Y0116830D02*
X0099000Y0116830D01*
X0099000Y0117829D02*
X0098000Y0117829D01*
X0098000Y0117864D02*
X0095364Y0120500D01*
X0091636Y0120500D01*
X0089000Y0117864D01*
X0089000Y0114136D01*
X0091636Y0111500D01*
X0095364Y0111500D01*
X0098000Y0114136D01*
X0098000Y0117864D01*
X0097037Y0118827D02*
X0099963Y0118827D01*
X0100962Y0119826D02*
X0096038Y0119826D01*
X0095687Y0121823D02*
X0101313Y0121823D01*
X0100315Y0122821D02*
X0096685Y0122821D01*
X0097684Y0123820D02*
X0099316Y0123820D01*
X0103000Y0123820D02*
X0104000Y0123820D01*
X0104000Y0124818D02*
X0103000Y0124818D01*
X0103000Y0122821D02*
X0104000Y0122821D01*
X0104000Y0121823D02*
X0103000Y0121823D01*
X0103000Y0119826D02*
X0104000Y0119826D01*
X0104000Y0115832D02*
X0114664Y0115832D01*
X0114664Y0114833D02*
X0108000Y0114833D01*
X0107699Y0113835D02*
X0114664Y0113835D01*
X0114664Y0112836D02*
X0106700Y0112836D01*
X0105702Y0111838D02*
X0114664Y0111838D01*
X0119264Y0110839D02*
X0121085Y0110839D01*
X0122083Y0109841D02*
X0119264Y0109841D01*
X0119264Y0108842D02*
X0131850Y0108842D01*
X0131850Y0107844D02*
X0119800Y0107844D01*
X0120623Y0106845D02*
X0131850Y0106845D01*
X0131850Y0105847D02*
X0121455Y0105847D01*
X0122287Y0104848D02*
X0132576Y0104848D01*
X0133574Y0103850D02*
X0123119Y0103850D01*
X0119628Y0100854D02*
X0107474Y0100854D01*
X0106476Y0101853D02*
X0118796Y0101853D01*
X0117963Y0102851D02*
X0105477Y0102851D01*
X0102478Y0103850D02*
X0117131Y0103850D01*
X0116299Y0104848D02*
X0102500Y0104848D01*
X0102189Y0105847D02*
X0115401Y0105847D01*
X0114664Y0106845D02*
X0101397Y0106845D01*
X0097603Y0106845D02*
X0066772Y0106845D01*
X0075702Y0111838D02*
X0081298Y0111838D01*
X0081636Y0111500D02*
X0079000Y0114136D01*
X0079000Y0117864D01*
X0081636Y0120500D01*
X0085364Y0120500D01*
X0088000Y0117864D01*
X0088000Y0114136D01*
X0085364Y0111500D01*
X0081636Y0111500D01*
X0080300Y0112836D02*
X0076700Y0112836D01*
X0077699Y0113835D02*
X0079301Y0113835D01*
X0079000Y0114833D02*
X0078000Y0114833D01*
X0078000Y0115832D02*
X0079000Y0115832D01*
X0079000Y0116830D02*
X0078000Y0116830D01*
X0078000Y0117829D02*
X0079000Y0117829D01*
X0079963Y0118827D02*
X0077037Y0118827D01*
X0076038Y0119826D02*
X0080962Y0119826D01*
X0081636Y0121500D02*
X0085364Y0121500D01*
X0088000Y0124136D01*
X0088000Y0127864D01*
X0085364Y0130500D01*
X0081636Y0130500D01*
X0079000Y0127864D01*
X0079000Y0124136D01*
X0081636Y0121500D01*
X0081313Y0121823D02*
X0075687Y0121823D01*
X0076685Y0122821D02*
X0080315Y0122821D01*
X0079316Y0123820D02*
X0077684Y0123820D01*
X0078000Y0124818D02*
X0079000Y0124818D01*
X0079000Y0125817D02*
X0078000Y0125817D01*
X0078000Y0126815D02*
X0079000Y0126815D01*
X0079000Y0127814D02*
X0078000Y0127814D01*
X0077052Y0128812D02*
X0079948Y0128812D01*
X0080947Y0129811D02*
X0076053Y0129811D01*
X0070947Y0129811D02*
X0058500Y0129811D01*
X0058500Y0128812D02*
X0069948Y0128812D01*
X0069000Y0127814D02*
X0058500Y0127814D01*
X0058500Y0126815D02*
X0069000Y0126815D01*
X0069000Y0125817D02*
X0058500Y0125817D01*
X0058500Y0124818D02*
X0069000Y0124818D01*
X0069316Y0123820D02*
X0058500Y0123820D01*
X0058500Y0122821D02*
X0070315Y0122821D01*
X0067668Y0132806D02*
X0096054Y0132806D01*
X0095055Y0131808D02*
X0060136Y0131808D01*
X0059138Y0130809D02*
X0094057Y0130809D01*
X0090947Y0129811D02*
X0086053Y0129811D01*
X0087052Y0128812D02*
X0089948Y0128812D01*
X0089000Y0127814D02*
X0088000Y0127814D01*
X0088000Y0126815D02*
X0089000Y0126815D01*
X0089000Y0125817D02*
X0088000Y0125817D01*
X0088000Y0124818D02*
X0089000Y0124818D01*
X0089316Y0123820D02*
X0087684Y0123820D01*
X0086685Y0122821D02*
X0090315Y0122821D01*
X0091313Y0121823D02*
X0085687Y0121823D01*
X0086038Y0119826D02*
X0090962Y0119826D01*
X0089963Y0118827D02*
X0087037Y0118827D01*
X0088000Y0117829D02*
X0089000Y0117829D01*
X0089000Y0116830D02*
X0088000Y0116830D01*
X0088000Y0115832D02*
X0089000Y0115832D01*
X0089000Y0114833D02*
X0088000Y0114833D01*
X0087699Y0113835D02*
X0089301Y0113835D01*
X0090300Y0112836D02*
X0086700Y0112836D01*
X0085702Y0111838D02*
X0091298Y0111838D01*
X0095702Y0111838D02*
X0101298Y0111838D01*
X0100300Y0112836D02*
X0096700Y0112836D01*
X0097699Y0113835D02*
X0099301Y0113835D01*
X0099000Y0114833D02*
X0098000Y0114833D01*
X0103000Y0114833D02*
X0104000Y0114833D01*
X0104000Y0113835D02*
X0103000Y0113835D01*
X0103000Y0112836D02*
X0104000Y0112836D01*
X0104000Y0111838D02*
X0103000Y0111838D01*
X0109665Y0099856D02*
X0120392Y0099856D01*
X0121292Y0098857D02*
X0111005Y0098857D01*
X0125988Y0109841D02*
X0132265Y0109841D01*
X0136200Y0109841D02*
X0136800Y0109841D01*
X0136800Y0110839D02*
X0136200Y0110839D01*
X0136200Y0111838D02*
X0136800Y0111838D01*
X0138738Y0111838D02*
X0142100Y0111838D01*
X0141563Y0110839D02*
X0139737Y0110839D01*
X0136800Y0108842D02*
X0136200Y0108842D01*
X0136200Y0107844D02*
X0136800Y0107844D01*
X0147500Y0111838D02*
X0178500Y0111838D01*
X0178500Y0112836D02*
X0147500Y0112836D01*
X0147500Y0113835D02*
X0178500Y0113835D01*
X0178500Y0114833D02*
X0147500Y0114833D01*
X0148037Y0110839D02*
X0178500Y0110839D01*
X0178500Y0109841D02*
X0176323Y0109841D01*
X0177642Y0108842D02*
X0178500Y0108842D01*
X0178500Y0107844D02*
X0178111Y0107844D01*
X0178206Y0106845D02*
X0178826Y0106845D01*
X0177983Y0105847D02*
X0179825Y0105847D01*
X0180823Y0104848D02*
X0177332Y0104848D01*
X0176883Y0103850D02*
X0186822Y0103850D01*
X0185780Y0102851D02*
X0183332Y0102851D01*
X0180500Y0100000D02*
X0174500Y0100000D01*
X0180500Y0100000D02*
X0188000Y0100000D01*
X0192479Y0103850D02*
X0193500Y0103850D01*
X0193500Y0104848D02*
X0191480Y0104848D01*
X0190482Y0105847D02*
X0193500Y0105847D01*
X0193500Y0106845D02*
X0189483Y0106845D01*
X0188485Y0107844D02*
X0193500Y0107844D01*
X0193500Y0108842D02*
X0182500Y0108842D01*
X0182500Y0109841D02*
X0193500Y0109841D01*
X0193500Y0110839D02*
X0182500Y0110839D01*
X0182500Y0111838D02*
X0193500Y0111838D01*
X0193500Y0112836D02*
X0182500Y0112836D01*
X0182500Y0113835D02*
X0193500Y0113835D01*
X0193500Y0114833D02*
X0182500Y0114833D01*
X0182500Y0115832D02*
X0193500Y0115832D01*
X0193500Y0116830D02*
X0182500Y0116830D01*
X0182500Y0117829D02*
X0193500Y0117829D01*
X0193500Y0118827D02*
X0182500Y0118827D01*
X0182500Y0119826D02*
X0193500Y0119826D01*
X0193500Y0120824D02*
X0182500Y0120824D01*
X0182500Y0121823D02*
X0193500Y0121823D01*
X0193500Y0122821D02*
X0182500Y0122821D01*
X0182500Y0123820D02*
X0193500Y0123820D01*
X0193500Y0124818D02*
X0182500Y0124818D01*
X0182500Y0125817D02*
X0193500Y0125817D01*
X0193500Y0126815D02*
X0182500Y0126815D01*
X0182500Y0127814D02*
X0193500Y0127814D01*
X0193500Y0128812D02*
X0182500Y0128812D01*
X0182500Y0129811D02*
X0193500Y0129811D01*
X0193500Y0130809D02*
X0182500Y0130809D01*
X0182500Y0131808D02*
X0193500Y0131808D01*
X0193500Y0132806D02*
X0182500Y0132806D01*
X0182500Y0133805D02*
X0193500Y0133805D01*
X0193500Y0134803D02*
X0182500Y0134803D01*
X0182500Y0135802D02*
X0193500Y0135802D01*
X0193500Y0136801D02*
X0182500Y0136801D01*
X0182500Y0137799D02*
X0193500Y0137799D01*
X0193500Y0138798D02*
X0182500Y0138798D01*
X0182500Y0139796D02*
X0193500Y0139796D01*
X0193500Y0140795D02*
X0182500Y0140795D01*
X0182500Y0141793D02*
X0193500Y0141793D01*
X0193500Y0142792D02*
X0182500Y0142792D01*
X0182500Y0143790D02*
X0192881Y0143790D01*
X0191883Y0144789D02*
X0182500Y0144789D01*
X0182500Y0145787D02*
X0190884Y0145787D01*
X0189886Y0146786D02*
X0182500Y0146786D01*
X0182500Y0147784D02*
X0188887Y0147784D01*
X0187889Y0148783D02*
X0182500Y0148783D01*
X0182500Y0149781D02*
X0185357Y0149781D01*
X0184667Y0150780D02*
X0182500Y0150780D01*
X0182500Y0151778D02*
X0184416Y0151778D01*
X0184483Y0152777D02*
X0182500Y0152777D01*
X0182500Y0153775D02*
X0184913Y0153775D01*
X0186137Y0154774D02*
X0182500Y0154774D01*
X0182500Y0155772D02*
X0196000Y0155772D01*
X0196000Y0154774D02*
X0188863Y0154774D01*
X0190087Y0153775D02*
X0196000Y0153775D01*
X0196000Y0152777D02*
X0190517Y0152777D01*
X0190584Y0151778D02*
X0196000Y0151778D01*
X0196000Y0150780D02*
X0191549Y0150780D01*
X0192547Y0149781D02*
X0196000Y0149781D01*
X0196000Y0148783D02*
X0193546Y0148783D01*
X0194544Y0147784D02*
X0196000Y0147784D01*
X0196000Y0146786D02*
X0195543Y0146786D01*
X0195500Y0144000D02*
X0187500Y0152000D01*
X0182500Y0156771D02*
X0196000Y0156771D01*
X0196000Y0157769D02*
X0182500Y0157769D01*
X0182500Y0158768D02*
X0196000Y0158768D01*
X0196000Y0159766D02*
X0182500Y0159766D01*
X0182500Y0160765D02*
X0196000Y0160765D01*
X0196000Y0161763D02*
X0182500Y0161763D01*
X0182500Y0162762D02*
X0196000Y0162762D01*
X0196000Y0163760D02*
X0182500Y0163760D01*
X0182500Y0164759D02*
X0196000Y0164759D01*
X0196000Y0165757D02*
X0182500Y0165757D01*
X0182500Y0166756D02*
X0196000Y0166756D01*
X0196000Y0167754D02*
X0182500Y0167754D01*
X0182500Y0168753D02*
X0196000Y0168753D01*
X0196000Y0169751D02*
X0182500Y0169751D01*
X0182500Y0170750D02*
X0196000Y0170750D01*
X0196000Y0171748D02*
X0182500Y0171748D01*
X0182500Y0172747D02*
X0196000Y0172747D01*
X0196000Y0173745D02*
X0182607Y0173745D01*
X0183318Y0174744D02*
X0196000Y0174744D01*
X0196000Y0175742D02*
X0183584Y0175742D01*
X0183531Y0176741D02*
X0196000Y0176741D01*
X0196000Y0177739D02*
X0183118Y0177739D01*
X0181949Y0178738D02*
X0196000Y0178738D01*
X0196000Y0179737D02*
X0154299Y0179737D01*
X0154299Y0180735D02*
X0196000Y0180735D01*
X0196000Y0181734D02*
X0154080Y0181734D01*
X0150740Y0181734D02*
X0149740Y0181734D01*
X0149740Y0180735D02*
X0150740Y0180735D01*
X0150740Y0179737D02*
X0149740Y0179737D01*
X0149740Y0178738D02*
X0150740Y0178738D01*
X0146936Y0173745D02*
X0146138Y0173745D01*
X0138860Y0181734D02*
X0128019Y0181734D01*
X0127021Y0182732D02*
X0196000Y0182732D01*
X0196000Y0183731D02*
X0126022Y0183731D01*
X0126000Y0184729D02*
X0196000Y0184729D01*
X0196000Y0185728D02*
X0126000Y0185728D01*
X0125656Y0186726D02*
X0196000Y0186726D01*
X0196000Y0187725D02*
X0125139Y0187725D01*
X0124141Y0188723D02*
X0196000Y0188723D01*
X0196000Y0189722D02*
X0120031Y0189722D01*
X0119033Y0190720D02*
X0196000Y0190720D01*
X0196000Y0191719D02*
X0118034Y0191719D01*
X0117036Y0192717D02*
X0196000Y0192717D01*
X0196000Y0193716D02*
X0116037Y0193716D01*
X0115038Y0194714D02*
X0196000Y0194714D01*
X0196000Y0195713D02*
X0114040Y0195713D01*
X0113041Y0196711D02*
X0196000Y0196711D01*
X0166830Y0170750D02*
X0135800Y0170750D01*
X0135800Y0169751D02*
X0164419Y0169751D01*
X0163223Y0168753D02*
X0135800Y0168753D01*
X0135800Y0167754D02*
X0162225Y0167754D01*
X0161614Y0166756D02*
X0135800Y0166756D01*
X0135800Y0165757D02*
X0161200Y0165757D01*
X0160787Y0164759D02*
X0135800Y0164759D01*
X0135800Y0163760D02*
X0160701Y0163760D01*
X0160701Y0162762D02*
X0135800Y0162762D01*
X0135800Y0161763D02*
X0160701Y0161763D01*
X0160984Y0160765D02*
X0135800Y0160765D01*
X0135519Y0159766D02*
X0161398Y0159766D01*
X0166849Y0150780D02*
X0169784Y0150780D01*
X0169154Y0149781D02*
X0168081Y0149781D01*
X0168514Y0148783D02*
X0169154Y0148783D01*
X0169154Y0141161D02*
X0173016Y0141161D01*
X0169154Y0141161D01*
X0169154Y0140795D02*
X0164534Y0140795D01*
X0165532Y0139796D02*
X0169312Y0139796D01*
X0167529Y0137799D02*
X0178500Y0137799D01*
X0178500Y0136801D02*
X0168528Y0136801D01*
X0169526Y0135802D02*
X0178500Y0135802D01*
X0178500Y0134803D02*
X0170525Y0134803D01*
X0171523Y0133805D02*
X0178500Y0133805D01*
X0178500Y0132806D02*
X0172522Y0132806D01*
X0173520Y0131808D02*
X0178500Y0131808D01*
X0178500Y0130809D02*
X0174519Y0130809D01*
X0175517Y0129811D02*
X0178500Y0129811D01*
X0178500Y0128812D02*
X0176516Y0128812D01*
X0177514Y0127814D02*
X0178500Y0127814D01*
X0178500Y0126815D02*
X0178500Y0126815D01*
X0178500Y0125817D02*
X0178500Y0125817D01*
X0178500Y0124818D02*
X0178500Y0124818D01*
X0178500Y0123820D02*
X0178500Y0123820D01*
X0178500Y0122821D02*
X0178500Y0122821D01*
X0178500Y0121823D02*
X0178500Y0121823D01*
X0178500Y0120824D02*
X0178500Y0120824D01*
X0178500Y0120362D02*
X0178500Y0120362D01*
X0170859Y0128812D02*
X0156087Y0128812D01*
X0156087Y0129811D02*
X0169861Y0129811D01*
X0168862Y0130809D02*
X0156087Y0130809D01*
X0156012Y0131808D02*
X0167864Y0131808D01*
X0166865Y0132806D02*
X0162668Y0132806D01*
X0163343Y0133805D02*
X0165867Y0133805D01*
X0164868Y0134803D02*
X0163584Y0134803D01*
X0163506Y0135802D02*
X0163870Y0135802D01*
X0166531Y0138798D02*
X0178500Y0138798D01*
X0178500Y0139796D02*
X0176719Y0139796D01*
X0176878Y0140795D02*
X0178500Y0140795D01*
X0178500Y0141793D02*
X0176878Y0141793D01*
X0176878Y0142792D02*
X0178500Y0142792D01*
X0178500Y0143790D02*
X0176878Y0143790D01*
X0176878Y0144789D02*
X0178500Y0144789D01*
X0178500Y0145787D02*
X0176878Y0145787D01*
X0176878Y0146786D02*
X0178500Y0146786D01*
X0178500Y0147784D02*
X0176878Y0147784D01*
X0176878Y0148783D02*
X0178500Y0148783D01*
X0178500Y0149781D02*
X0176878Y0149781D01*
X0173016Y0141161D02*
X0173016Y0141161D01*
X0173016Y0140795D02*
X0173016Y0140795D01*
X0173016Y0139796D02*
X0173016Y0139796D01*
X0160500Y0135000D02*
X0156500Y0138500D01*
X0154875Y0132806D02*
X0158332Y0132806D01*
X0153250Y0132806D02*
X0152577Y0132806D01*
X0152577Y0131808D02*
X0153250Y0131808D01*
X0153250Y0130809D02*
X0152577Y0130809D01*
X0152577Y0129811D02*
X0153250Y0129811D01*
X0153250Y0128812D02*
X0152577Y0128812D01*
X0152577Y0127814D02*
X0153250Y0127814D01*
X0153250Y0125817D02*
X0152577Y0125817D01*
X0152577Y0124818D02*
X0153250Y0124818D01*
X0153250Y0123820D02*
X0152577Y0123820D01*
X0152577Y0122821D02*
X0153250Y0122821D01*
X0153250Y0121823D02*
X0152577Y0121823D01*
X0152701Y0109841D02*
X0173921Y0109841D01*
X0175122Y0107000D02*
X0164500Y0107000D01*
X0164500Y0100000D01*
X0160031Y0099856D02*
X0158968Y0099856D01*
X0158968Y0100854D02*
X0160031Y0100854D01*
X0160431Y0101853D02*
X0158569Y0101853D01*
X0157968Y0102851D02*
X0161032Y0102851D01*
X0162117Y0103850D02*
X0156883Y0103850D01*
X0153710Y0104848D02*
X0162500Y0104848D01*
X0164500Y0107000D02*
X0151500Y0107000D01*
X0150299Y0109841D02*
X0149035Y0109841D01*
X0149290Y0104848D02*
X0148724Y0104848D01*
X0147726Y0103850D02*
X0152117Y0103850D01*
X0151032Y0102851D02*
X0147968Y0102851D01*
X0148569Y0101853D02*
X0150431Y0101853D01*
X0150031Y0100854D02*
X0148968Y0100854D01*
X0148968Y0099856D02*
X0150031Y0099856D01*
X0150137Y0098857D02*
X0148863Y0098857D01*
X0148450Y0097859D02*
X0150550Y0097859D01*
X0151321Y0096860D02*
X0147679Y0096860D01*
X0146186Y0095862D02*
X0152814Y0095862D01*
X0152153Y0093865D02*
X0148683Y0093865D01*
X0148968Y0092866D02*
X0151047Y0092866D01*
X0150437Y0091868D02*
X0148968Y0091868D01*
X0148968Y0090869D02*
X0150031Y0090869D01*
X0144984Y0090869D02*
X0144016Y0090869D01*
X0144016Y0091868D02*
X0144984Y0091868D01*
X0144984Y0092866D02*
X0144016Y0092866D01*
X0144016Y0093865D02*
X0144984Y0093865D01*
X0136200Y0092866D02*
X0077576Y0092866D01*
X0077162Y0091868D02*
X0136200Y0091868D01*
X0136200Y0090869D02*
X0076208Y0090869D01*
X0073699Y0089870D02*
X0136200Y0089870D01*
X0136200Y0088872D02*
X0072700Y0088872D01*
X0071702Y0087873D02*
X0136200Y0087873D01*
X0136200Y0086875D02*
X0070703Y0086875D01*
X0073172Y0079500D02*
X0063862Y0079500D01*
X0063247Y0078885D01*
X0062113Y0078416D01*
X0060886Y0078416D01*
X0060786Y0078457D01*
X0057677Y0075349D01*
X0059031Y0074788D01*
X0060288Y0073531D01*
X0060968Y0071889D01*
X0060968Y0070111D01*
X0060288Y0068469D01*
X0059031Y0067212D01*
X0057389Y0066531D01*
X0055611Y0066531D01*
X0053969Y0067212D01*
X0052712Y0068469D01*
X0052031Y0070111D01*
X0052031Y0071889D01*
X0052712Y0073531D01*
X0053181Y0074000D01*
X0032424Y0074000D01*
X0032115Y0073253D01*
X0031862Y0073000D01*
X0046328Y0073000D01*
X0047500Y0071828D01*
X0054328Y0065000D01*
X0068672Y0065000D01*
X0069500Y0065828D01*
X0069500Y0067681D01*
X0069411Y0067592D01*
X0068842Y0067178D01*
X0068215Y0066859D01*
X0067546Y0066642D01*
X0066984Y0066552D01*
X0066984Y0070516D01*
X0066016Y0070516D01*
X0066016Y0066552D01*
X0065454Y0066642D01*
X0064785Y0066859D01*
X0064158Y0067178D01*
X0063589Y0067592D01*
X0063092Y0068089D01*
X0062678Y0068658D01*
X0062359Y0069285D01*
X0062142Y0069954D01*
X0062052Y0070516D01*
X0066016Y0070516D01*
X0066016Y0071484D01*
X0062052Y0071484D01*
X0062142Y0072046D01*
X0062359Y0072715D01*
X0062678Y0073342D01*
X0063092Y0073911D01*
X0063589Y0074408D01*
X0064158Y0074822D01*
X0064785Y0075141D01*
X0065454Y0075358D01*
X0066016Y0075447D01*
X0066016Y0071484D01*
X0066984Y0071484D01*
X0066984Y0075447D01*
X0067546Y0075358D01*
X0068215Y0075141D01*
X0068842Y0074822D01*
X0069411Y0074408D01*
X0069500Y0074319D01*
X0069500Y0075828D01*
X0070672Y0077000D01*
X0073172Y0079500D01*
X0072558Y0078887D02*
X0063249Y0078887D01*
X0060217Y0077888D02*
X0071560Y0077888D01*
X0070561Y0076890D02*
X0059218Y0076890D01*
X0058220Y0075891D02*
X0069563Y0075891D01*
X0069500Y0074893D02*
X0068703Y0074893D01*
X0066984Y0074893D02*
X0066016Y0074893D01*
X0066016Y0073894D02*
X0066984Y0073894D01*
X0066984Y0072896D02*
X0066016Y0072896D01*
X0066016Y0071897D02*
X0066984Y0071897D01*
X0066016Y0070899D02*
X0060968Y0070899D01*
X0060965Y0071897D02*
X0062118Y0071897D01*
X0062451Y0072896D02*
X0060551Y0072896D01*
X0059925Y0073894D02*
X0063079Y0073894D01*
X0064297Y0074893D02*
X0058779Y0074893D01*
X0060881Y0069900D02*
X0062159Y0069900D01*
X0062554Y0068902D02*
X0060468Y0068902D01*
X0059723Y0067903D02*
X0063277Y0067903D01*
X0064695Y0066905D02*
X0058290Y0066905D01*
X0054710Y0066905D02*
X0052424Y0066905D01*
X0053277Y0067903D02*
X0051425Y0067903D01*
X0050427Y0068902D02*
X0052532Y0068902D01*
X0052119Y0069900D02*
X0049428Y0069900D01*
X0048430Y0070899D02*
X0052031Y0070899D01*
X0052035Y0071897D02*
X0047431Y0071897D01*
X0046433Y0072896D02*
X0052449Y0072896D01*
X0053075Y0073894D02*
X0032380Y0073894D01*
X0033000Y0078500D02*
X0031636Y0078500D01*
X0029000Y0081136D01*
X0029000Y0082500D01*
X0033000Y0082500D01*
X0033000Y0078500D01*
X0033000Y0078887D02*
X0034000Y0078887D01*
X0034000Y0078500D02*
X0035364Y0078500D01*
X0038000Y0081136D01*
X0038000Y0082500D01*
X0034000Y0082500D01*
X0034000Y0078500D01*
X0034000Y0079885D02*
X0033000Y0079885D01*
X0033000Y0080884D02*
X0034000Y0080884D01*
X0034000Y0081882D02*
X0033000Y0081882D01*
X0033000Y0082881D02*
X0028000Y0082881D01*
X0028000Y0083879D02*
X0029000Y0083879D01*
X0029014Y0084878D02*
X0027986Y0084878D01*
X0026987Y0085876D02*
X0030012Y0085876D01*
X0029000Y0081882D02*
X0028000Y0081882D01*
X0027748Y0080884D02*
X0029252Y0080884D01*
X0030251Y0079885D02*
X0026749Y0079885D01*
X0025751Y0078887D02*
X0031249Y0078887D01*
X0035751Y0078887D02*
X0041249Y0078887D01*
X0040251Y0079885D02*
X0036749Y0079885D01*
X0037748Y0080884D02*
X0039252Y0080884D01*
X0039000Y0081882D02*
X0038000Y0081882D01*
X0039000Y0082881D02*
X0034000Y0082881D01*
X0036988Y0085876D02*
X0040013Y0085876D01*
X0039014Y0084878D02*
X0037986Y0084878D01*
X0038000Y0083879D02*
X0039000Y0083879D01*
X0045751Y0078887D02*
X0051249Y0078887D01*
X0050251Y0079885D02*
X0046749Y0079885D01*
X0047748Y0080884D02*
X0049252Y0080884D01*
X0049000Y0081882D02*
X0048000Y0081882D01*
X0048000Y0082881D02*
X0049000Y0082881D01*
X0049000Y0083879D02*
X0048000Y0083879D01*
X0047986Y0084878D02*
X0049014Y0084878D01*
X0050012Y0085876D02*
X0046987Y0085876D01*
X0047733Y0090869D02*
X0049267Y0090869D01*
X0049000Y0091868D02*
X0048000Y0091868D01*
X0048000Y0092866D02*
X0049000Y0092866D01*
X0049000Y0093865D02*
X0048000Y0093865D01*
X0048000Y0094863D02*
X0049000Y0094863D01*
X0049998Y0095862D02*
X0047002Y0095862D01*
X0046004Y0096860D02*
X0050996Y0096860D01*
X0047228Y0101853D02*
X0023772Y0101853D01*
X0023772Y0102851D02*
X0047228Y0102851D01*
X0047228Y0103850D02*
X0023772Y0103850D01*
X0023772Y0104848D02*
X0047228Y0104848D01*
X0047228Y0105847D02*
X0023772Y0105847D01*
X0023772Y0106845D02*
X0047228Y0106845D01*
X0047579Y0107844D02*
X0023421Y0107844D01*
X0015579Y0107844D02*
X0012421Y0107844D01*
X0012472Y0107793D02*
X0012193Y0108072D01*
X0011851Y0108269D01*
X0011469Y0108372D01*
X0008886Y0108372D01*
X0008886Y0104486D01*
X0008114Y0104486D01*
X0008114Y0108372D01*
X0005531Y0108372D01*
X0005149Y0108269D01*
X0004807Y0108072D01*
X0004528Y0107793D01*
X0004331Y0107451D01*
X0004228Y0107069D01*
X0004228Y0104486D01*
X0008114Y0104486D01*
X0008114Y0103714D01*
X0008886Y0103714D01*
X0008886Y0104486D01*
X0012772Y0104486D01*
X0012772Y0107069D01*
X0012669Y0107451D01*
X0012472Y0107793D01*
X0012772Y0106845D02*
X0015228Y0106845D01*
X0015228Y0105847D02*
X0012772Y0105847D01*
X0012772Y0104848D02*
X0015228Y0104848D01*
X0015228Y0103850D02*
X0008886Y0103850D01*
X0008886Y0103714D02*
X0012772Y0103714D01*
X0012772Y0101131D01*
X0012669Y0100749D01*
X0012472Y0100407D01*
X0012193Y0100128D01*
X0011851Y0099931D01*
X0011469Y0099828D01*
X0008886Y0099828D01*
X0008886Y0103714D01*
X0008114Y0103714D02*
X0008114Y0099828D01*
X0005531Y0099828D01*
X0005149Y0099931D01*
X0004807Y0100128D01*
X0004528Y0100407D01*
X0004331Y0100749D01*
X0004228Y0101131D01*
X0004228Y0103714D01*
X0008114Y0103714D01*
X0008114Y0103850D02*
X0003000Y0103850D01*
X0003000Y0104848D02*
X0004228Y0104848D01*
X0004228Y0105847D02*
X0003000Y0105847D01*
X0003000Y0106845D02*
X0004228Y0106845D01*
X0004579Y0107844D02*
X0003000Y0107844D01*
X0003000Y0108842D02*
X0049200Y0108842D01*
X0049200Y0109841D02*
X0003000Y0109841D01*
X0003000Y0110839D02*
X0049200Y0110839D01*
X0049200Y0111838D02*
X0010914Y0111838D01*
X0010426Y0111350D02*
X0013150Y0114074D01*
X0013150Y0117926D01*
X0010426Y0120650D01*
X0006574Y0120650D01*
X0003850Y0117926D01*
X0003850Y0114074D01*
X0006574Y0111350D01*
X0010426Y0111350D01*
X0011912Y0112836D02*
X0049200Y0112836D01*
X0049200Y0113835D02*
X0012911Y0113835D01*
X0013150Y0114833D02*
X0049200Y0114833D01*
X0049200Y0115832D02*
X0013150Y0115832D01*
X0013150Y0116830D02*
X0049200Y0116830D01*
X0049200Y0117829D02*
X0013150Y0117829D01*
X0012249Y0118827D02*
X0049200Y0118827D01*
X0049200Y0119826D02*
X0011250Y0119826D01*
X0005750Y0119826D02*
X0003000Y0119826D01*
X0003000Y0120824D02*
X0049200Y0120824D01*
X0049200Y0121823D02*
X0003000Y0121823D01*
X0003000Y0122821D02*
X0049200Y0122821D01*
X0049200Y0123820D02*
X0003000Y0123820D01*
X0003000Y0124818D02*
X0049200Y0124818D01*
X0049200Y0125817D02*
X0003000Y0125817D01*
X0003000Y0126815D02*
X0049200Y0126815D01*
X0049200Y0127814D02*
X0003000Y0127814D01*
X0003000Y0128812D02*
X0049200Y0128812D01*
X0049200Y0129811D02*
X0003000Y0129811D01*
X0003000Y0130809D02*
X0049200Y0130809D01*
X0049200Y0131808D02*
X0003000Y0131808D01*
X0003000Y0132806D02*
X0049200Y0132806D01*
X0049200Y0133805D02*
X0003000Y0133805D01*
X0003000Y0134803D02*
X0049200Y0134803D01*
X0049200Y0135802D02*
X0003000Y0135802D01*
X0003000Y0136801D02*
X0049200Y0136801D01*
X0049200Y0137799D02*
X0003000Y0137799D01*
X0003000Y0138798D02*
X0049200Y0138798D01*
X0049200Y0139796D02*
X0003000Y0139796D01*
X0003000Y0140795D02*
X0049200Y0140795D01*
X0049200Y0141793D02*
X0003000Y0141793D01*
X0003000Y0142792D02*
X0049200Y0142792D01*
X0049200Y0143790D02*
X0003000Y0143790D01*
X0003000Y0144789D02*
X0049200Y0144789D01*
X0049200Y0145787D02*
X0003000Y0145787D01*
X0003000Y0146786D02*
X0049200Y0146786D01*
X0049200Y0147784D02*
X0003000Y0147784D01*
X0003000Y0148783D02*
X0049200Y0148783D01*
X0049200Y0149781D02*
X0003000Y0149781D01*
X0003000Y0150780D02*
X0049200Y0150780D01*
X0049200Y0151778D02*
X0003000Y0151778D01*
X0003000Y0152777D02*
X0049200Y0152777D01*
X0049200Y0153775D02*
X0003000Y0153775D01*
X0003000Y0154774D02*
X0049200Y0154774D01*
X0049200Y0155772D02*
X0038431Y0155772D01*
X0037051Y0155201D02*
X0039918Y0156388D01*
X0042112Y0158582D01*
X0043299Y0161449D01*
X0043299Y0164551D01*
X0042112Y0167418D01*
X0039918Y0169612D01*
X0037051Y0170799D01*
X0033949Y0170799D01*
X0031082Y0169612D01*
X0028888Y0167418D01*
X0027701Y0164551D01*
X0027701Y0161449D01*
X0028888Y0158582D01*
X0031082Y0156388D01*
X0033949Y0155201D01*
X0037051Y0155201D01*
X0040300Y0156771D02*
X0049200Y0156771D01*
X0049200Y0157769D02*
X0041299Y0157769D01*
X0042189Y0158768D02*
X0049200Y0158768D01*
X0049200Y0159766D02*
X0042602Y0159766D01*
X0043016Y0160765D02*
X0049200Y0160765D01*
X0049511Y0161763D02*
X0043299Y0161763D01*
X0043299Y0162762D02*
X0050509Y0162762D01*
X0051508Y0163760D02*
X0043299Y0163760D01*
X0043213Y0164759D02*
X0052506Y0164759D01*
X0053505Y0165757D02*
X0042800Y0165757D01*
X0042386Y0166756D02*
X0054503Y0166756D01*
X0055502Y0167754D02*
X0041775Y0167754D01*
X0040777Y0168753D02*
X0056500Y0168753D01*
X0057499Y0169751D02*
X0039581Y0169751D01*
X0037170Y0170750D02*
X0077997Y0170750D01*
X0078996Y0171748D02*
X0003000Y0171748D01*
X0003000Y0170750D02*
X0033830Y0170750D01*
X0031419Y0169751D02*
X0003000Y0169751D01*
X0003000Y0168753D02*
X0030223Y0168753D01*
X0029225Y0167754D02*
X0003000Y0167754D01*
X0003000Y0166756D02*
X0028614Y0166756D01*
X0028200Y0165757D02*
X0003000Y0165757D01*
X0003000Y0164759D02*
X0027787Y0164759D01*
X0027701Y0163760D02*
X0003000Y0163760D01*
X0003000Y0162762D02*
X0027701Y0162762D01*
X0027701Y0161763D02*
X0003000Y0161763D01*
X0003000Y0160765D02*
X0027984Y0160765D01*
X0028398Y0159766D02*
X0003000Y0159766D01*
X0003000Y0158768D02*
X0028811Y0158768D01*
X0029701Y0157769D02*
X0003000Y0157769D01*
X0003000Y0156771D02*
X0030699Y0156771D01*
X0032569Y0155772D02*
X0003000Y0155772D01*
X0003000Y0172747D02*
X0079994Y0172747D01*
X0080993Y0173745D02*
X0003000Y0173745D01*
X0003000Y0174744D02*
X0081991Y0174744D01*
X0082990Y0175742D02*
X0003000Y0175742D01*
X0003000Y0176741D02*
X0083988Y0176741D01*
X0084987Y0177739D02*
X0003000Y0177739D01*
X0003000Y0178738D02*
X0085985Y0178738D01*
X0086984Y0179737D02*
X0003000Y0179737D01*
X0003000Y0180735D02*
X0006189Y0180735D01*
X0006574Y0180350D02*
X0010426Y0180350D01*
X0013150Y0183074D01*
X0013150Y0186926D01*
X0010426Y0189650D01*
X0006574Y0189650D01*
X0003850Y0186926D01*
X0003850Y0183074D01*
X0006574Y0180350D01*
X0005190Y0181734D02*
X0003000Y0181734D01*
X0003000Y0182732D02*
X0004192Y0182732D01*
X0003850Y0183731D02*
X0003000Y0183731D01*
X0003000Y0184729D02*
X0003850Y0184729D01*
X0003850Y0185728D02*
X0003000Y0185728D01*
X0003000Y0186726D02*
X0003850Y0186726D01*
X0004649Y0187725D02*
X0003000Y0187725D01*
X0003000Y0188723D02*
X0005647Y0188723D01*
X0004228Y0190720D02*
X0003000Y0190720D01*
X0003000Y0189722D02*
X0063969Y0189722D01*
X0066772Y0192717D02*
X0066964Y0192717D01*
X0066772Y0193716D02*
X0067963Y0193716D01*
X0068962Y0194714D02*
X0066772Y0194714D01*
X0066772Y0195713D02*
X0069960Y0195713D01*
X0070959Y0196711D02*
X0066772Y0196711D01*
X0072471Y0191719D02*
X0111529Y0191719D01*
X0112527Y0190720D02*
X0071473Y0190720D01*
X0070474Y0189722D02*
X0113526Y0189722D01*
X0114049Y0188815D02*
X0112395Y0189500D01*
X0110605Y0189500D01*
X0108951Y0188815D01*
X0107685Y0187549D01*
X0107000Y0185895D01*
X0107000Y0184105D01*
X0107685Y0182451D01*
X0108951Y0181185D01*
X0110605Y0180500D01*
X0112395Y0180500D01*
X0114049Y0181185D01*
X0115315Y0182451D01*
X0116000Y0184105D01*
X0116000Y0185895D01*
X0115315Y0187549D01*
X0114049Y0188815D01*
X0114141Y0188723D02*
X0114524Y0188723D01*
X0115139Y0187725D02*
X0115523Y0187725D01*
X0115656Y0186726D02*
X0116521Y0186726D01*
X0117000Y0185728D02*
X0116000Y0185728D01*
X0116000Y0184729D02*
X0117000Y0184729D01*
X0117155Y0183731D02*
X0115845Y0183731D01*
X0115431Y0182732D02*
X0117569Y0182732D01*
X0118402Y0181734D02*
X0114597Y0181734D01*
X0112962Y0180735D02*
X0120037Y0180735D01*
X0123511Y0179737D02*
X0091800Y0179737D01*
X0091800Y0180735D02*
X0110037Y0180735D01*
X0108402Y0181734D02*
X0092597Y0181734D01*
X0093431Y0182732D02*
X0107569Y0182732D01*
X0107155Y0183731D02*
X0093845Y0183731D01*
X0094000Y0184729D02*
X0107000Y0184729D01*
X0107000Y0185728D02*
X0094000Y0185728D01*
X0093656Y0186726D02*
X0107344Y0186726D01*
X0107861Y0187725D02*
X0093139Y0187725D01*
X0092141Y0188723D02*
X0108859Y0188723D01*
X0109076Y0171748D02*
X0085501Y0171748D01*
X0084503Y0170750D02*
X0107888Y0170750D01*
X0107473Y0169751D02*
X0083504Y0169751D01*
X0082506Y0168753D02*
X0107416Y0168753D01*
X0107678Y0167754D02*
X0081507Y0167754D01*
X0080509Y0166756D02*
X0108382Y0166756D01*
X0111924Y0171748D02*
X0119367Y0171748D01*
X0120509Y0172747D02*
X0086500Y0172747D01*
X0087498Y0173745D02*
X0129502Y0173745D01*
X0130491Y0172747D02*
X0130500Y0172747D01*
X0128503Y0174744D02*
X0088497Y0174744D01*
X0089495Y0175742D02*
X0127505Y0175742D01*
X0126506Y0176741D02*
X0090494Y0176741D01*
X0091492Y0177739D02*
X0125508Y0177739D01*
X0124509Y0178738D02*
X0091800Y0178738D01*
X0087200Y0180735D02*
X0080962Y0180735D01*
X0080395Y0180500D02*
X0082049Y0181185D01*
X0083315Y0182451D01*
X0084000Y0184105D01*
X0084000Y0185895D01*
X0083315Y0187549D01*
X0082049Y0188815D01*
X0080395Y0189500D01*
X0078605Y0189500D01*
X0076951Y0188815D01*
X0075685Y0187549D01*
X0075000Y0185895D01*
X0075000Y0184105D01*
X0075685Y0182451D01*
X0076951Y0181185D01*
X0078605Y0180500D01*
X0080395Y0180500D01*
X0078038Y0180735D02*
X0064811Y0180735D01*
X0065810Y0181734D02*
X0076402Y0181734D01*
X0075569Y0182732D02*
X0066808Y0182732D01*
X0067150Y0183731D02*
X0075155Y0183731D01*
X0075000Y0184729D02*
X0067150Y0184729D01*
X0067150Y0185728D02*
X0075000Y0185728D01*
X0075344Y0186726D02*
X0067479Y0186726D01*
X0068477Y0187725D02*
X0075861Y0187725D01*
X0076859Y0188723D02*
X0069476Y0188723D01*
X0060189Y0180735D02*
X0010811Y0180735D01*
X0011810Y0181734D02*
X0059190Y0181734D01*
X0058192Y0182732D02*
X0012808Y0182732D01*
X0013150Y0183731D02*
X0057850Y0183731D01*
X0057850Y0184729D02*
X0013150Y0184729D01*
X0013150Y0185728D02*
X0057850Y0185728D01*
X0057850Y0186726D02*
X0013150Y0186726D01*
X0012351Y0187725D02*
X0058649Y0187725D01*
X0059647Y0188723D02*
X0011353Y0188723D01*
X0012772Y0190720D02*
X0058228Y0190720D01*
X0058228Y0191719D02*
X0012772Y0191719D01*
X0012772Y0192717D02*
X0058228Y0192717D01*
X0058228Y0193716D02*
X0012772Y0193716D01*
X0012772Y0194714D02*
X0058228Y0194714D01*
X0058228Y0195713D02*
X0012772Y0195713D01*
X0012772Y0196711D02*
X0058228Y0196711D01*
X0082141Y0188723D02*
X0086859Y0188723D01*
X0085861Y0187725D02*
X0083139Y0187725D01*
X0083656Y0186726D02*
X0085344Y0186726D01*
X0085000Y0185728D02*
X0084000Y0185728D01*
X0084000Y0184729D02*
X0085000Y0184729D01*
X0085155Y0183731D02*
X0083845Y0183731D01*
X0083431Y0182732D02*
X0085569Y0182732D01*
X0086402Y0181734D02*
X0082597Y0181734D01*
X0079510Y0165757D02*
X0119862Y0165757D01*
X0121703Y0164759D02*
X0059012Y0164759D01*
X0058013Y0163760D02*
X0131200Y0163760D01*
X0131200Y0162762D02*
X0130455Y0162762D01*
X0131200Y0164759D02*
X0129297Y0164759D01*
X0131138Y0165757D02*
X0131200Y0165757D01*
X0120545Y0162762D02*
X0057014Y0162762D01*
X0056016Y0161763D02*
X0119382Y0161763D01*
X0118777Y0160765D02*
X0055017Y0160765D01*
X0054019Y0159766D02*
X0118400Y0159766D01*
X0118400Y0158768D02*
X0053800Y0158768D01*
X0053800Y0157769D02*
X0118555Y0157769D01*
X0118969Y0156771D02*
X0053800Y0156771D01*
X0053800Y0155772D02*
X0119847Y0155772D01*
X0121667Y0154774D02*
X0053800Y0154774D01*
X0053800Y0139796D02*
X0119415Y0139796D01*
X0118790Y0138798D02*
X0053800Y0138798D01*
X0053800Y0137799D02*
X0064198Y0137799D01*
X0066802Y0137799D02*
X0118400Y0137799D01*
X0118400Y0136801D02*
X0068061Y0136801D01*
X0068506Y0135802D02*
X0118542Y0135802D01*
X0098051Y0134803D02*
X0068584Y0134803D01*
X0068343Y0133805D02*
X0097052Y0133805D01*
X0065500Y0135000D02*
X0060500Y0135000D01*
X0056500Y0131000D01*
X0056500Y0120000D01*
X0053961Y0121823D02*
X0053800Y0121823D01*
X0053800Y0122821D02*
X0054500Y0122821D01*
X0054500Y0123820D02*
X0053800Y0123820D01*
X0053800Y0124818D02*
X0054500Y0124818D01*
X0054500Y0125817D02*
X0053800Y0125817D01*
X0053800Y0126815D02*
X0054500Y0126815D01*
X0054500Y0127814D02*
X0053800Y0127814D01*
X0053800Y0128812D02*
X0054500Y0128812D01*
X0054500Y0129811D02*
X0053800Y0129811D01*
X0053800Y0130809D02*
X0054500Y0130809D01*
X0054500Y0131808D02*
X0053800Y0131808D01*
X0053800Y0132806D02*
X0055478Y0132806D01*
X0056477Y0133805D02*
X0053800Y0133805D01*
X0053800Y0134803D02*
X0057475Y0134803D01*
X0058474Y0135802D02*
X0053800Y0135802D01*
X0053800Y0136801D02*
X0059472Y0136801D01*
X0061135Y0132806D02*
X0063332Y0132806D01*
X0040996Y0096860D02*
X0036004Y0096860D01*
X0035364Y0097500D02*
X0038000Y0094864D01*
X0038000Y0093500D01*
X0034000Y0093500D01*
X0034000Y0097500D01*
X0035364Y0097500D01*
X0034000Y0096860D02*
X0033000Y0096860D01*
X0033000Y0095862D02*
X0034000Y0095862D01*
X0034000Y0094863D02*
X0033000Y0094863D01*
X0033000Y0093865D02*
X0034000Y0093865D01*
X0034000Y0092866D02*
X0039000Y0092866D01*
X0039000Y0091868D02*
X0038000Y0091868D01*
X0037733Y0090869D02*
X0039267Y0090869D01*
X0039000Y0093865D02*
X0038000Y0093865D01*
X0038000Y0094863D02*
X0039000Y0094863D01*
X0039998Y0095862D02*
X0037002Y0095862D01*
X0033000Y0092866D02*
X0028000Y0092866D01*
X0028000Y0091868D02*
X0029000Y0091868D01*
X0029267Y0090869D02*
X0027733Y0090869D01*
X0028000Y0093865D02*
X0029000Y0093865D01*
X0029000Y0094863D02*
X0028000Y0094863D01*
X0027002Y0095862D02*
X0029998Y0095862D01*
X0030996Y0096860D02*
X0026004Y0096860D01*
X0020996Y0096860D02*
X0016188Y0096860D01*
X0015190Y0095862D02*
X0019998Y0095862D01*
X0019000Y0094863D02*
X0014357Y0094863D01*
X0014700Y0093865D02*
X0019000Y0093865D01*
X0019000Y0092866D02*
X0014700Y0092866D01*
X0014659Y0091868D02*
X0019000Y0091868D01*
X0019267Y0090869D02*
X0014246Y0090869D01*
X0013724Y0089870D02*
X0020266Y0089870D01*
X0019544Y0088872D02*
X0012726Y0088872D01*
X0011323Y0087873D02*
X0018545Y0087873D01*
X0017547Y0086875D02*
X0012979Y0086875D01*
X0013937Y0085876D02*
X0016548Y0085876D01*
X0016500Y0083000D02*
X0009500Y0083000D01*
X0009500Y0073000D02*
X0011500Y0071000D01*
X0045500Y0071000D01*
X0053500Y0063000D01*
X0069500Y0063000D01*
X0071500Y0065000D01*
X0071500Y0075000D01*
X0074500Y0078000D01*
X0104500Y0078000D01*
X0106500Y0076000D01*
X0106500Y0071000D01*
X0118290Y0066905D02*
X0124710Y0066905D01*
X0123969Y0067212D02*
X0125611Y0066531D01*
X0127389Y0066531D01*
X0129031Y0067212D01*
X0130288Y0068469D01*
X0130968Y0070111D01*
X0130968Y0071889D01*
X0130288Y0073531D01*
X0129031Y0074788D01*
X0127389Y0075468D01*
X0125611Y0075468D01*
X0123969Y0074788D01*
X0122712Y0073531D01*
X0122031Y0071889D01*
X0122031Y0070111D01*
X0122712Y0068469D01*
X0123969Y0067212D01*
X0123277Y0067903D02*
X0119723Y0067903D01*
X0120468Y0068902D02*
X0122532Y0068902D01*
X0122119Y0069900D02*
X0120881Y0069900D01*
X0120968Y0070899D02*
X0122031Y0070899D01*
X0122035Y0071897D02*
X0120965Y0071897D01*
X0120551Y0072896D02*
X0122449Y0072896D01*
X0123075Y0073894D02*
X0119925Y0073894D01*
X0118779Y0074893D02*
X0124221Y0074893D01*
X0128779Y0074893D02*
X0134221Y0074893D01*
X0133075Y0073894D02*
X0129925Y0073894D01*
X0130551Y0072896D02*
X0132449Y0072896D01*
X0132035Y0071897D02*
X0130965Y0071897D01*
X0130968Y0070899D02*
X0132031Y0070899D01*
X0132119Y0069900D02*
X0130881Y0069900D01*
X0130468Y0068902D02*
X0132532Y0068902D01*
X0133277Y0067903D02*
X0129723Y0067903D01*
X0128290Y0066905D02*
X0134710Y0066905D01*
X0146500Y0071000D02*
X0146500Y0075000D01*
X0150500Y0079000D01*
X0166500Y0079000D01*
X0174500Y0087000D01*
X0174500Y0090000D01*
X0179206Y0084878D02*
X0186500Y0084878D01*
X0186500Y0085876D02*
X0180205Y0085876D01*
X0181203Y0086875D02*
X0186500Y0086875D01*
X0186500Y0087873D02*
X0182202Y0087873D01*
X0183200Y0088872D02*
X0186500Y0088872D01*
X0186500Y0089870D02*
X0184199Y0089870D01*
X0185197Y0090869D02*
X0186500Y0090869D01*
X0186500Y0091868D02*
X0185500Y0091868D01*
X0185728Y0092866D02*
X0186500Y0092866D01*
X0186500Y0093865D02*
X0186368Y0093865D01*
X0183500Y0095000D02*
X0183500Y0092000D01*
X0166500Y0075000D01*
X0166500Y0071000D01*
X0168290Y0066905D02*
X0169576Y0066905D01*
X0169723Y0067903D02*
X0170575Y0067903D01*
X0170468Y0068902D02*
X0171573Y0068902D01*
X0170881Y0069900D02*
X0172572Y0069900D01*
X0173570Y0070899D02*
X0170968Y0070899D01*
X0170965Y0071897D02*
X0174239Y0071897D01*
X0174000Y0072896D02*
X0170551Y0072896D01*
X0169925Y0073894D02*
X0174000Y0073894D01*
X0174000Y0074893D02*
X0169221Y0074893D01*
X0170220Y0075891D02*
X0174027Y0075891D01*
X0175026Y0076890D02*
X0171218Y0076890D01*
X0172217Y0077888D02*
X0176024Y0077888D01*
X0174214Y0079885D02*
X0186500Y0079885D01*
X0186500Y0078887D02*
X0173215Y0078887D01*
X0175212Y0080884D02*
X0186500Y0080884D01*
X0186500Y0081882D02*
X0176211Y0081882D01*
X0177209Y0082881D02*
X0186500Y0082881D01*
X0186500Y0083879D02*
X0178208Y0083879D01*
X0180976Y0077888D02*
X0185034Y0077888D01*
X0184069Y0076890D02*
X0181974Y0076890D01*
X0182973Y0075891D02*
X0183655Y0075891D01*
X0183300Y0074893D02*
X0183000Y0074893D01*
X0183000Y0073894D02*
X0183300Y0073894D01*
X0183329Y0072896D02*
X0183000Y0072896D01*
X0182761Y0071897D02*
X0183569Y0071897D01*
X0184075Y0066905D02*
X0181959Y0066905D01*
X0183000Y0062911D02*
X0183323Y0062911D01*
X0183584Y0061912D02*
X0182776Y0061912D01*
X0182585Y0060914D02*
X0181778Y0060914D01*
X0179000Y0060914D02*
X0178000Y0060914D01*
X0178000Y0061912D02*
X0179000Y0061912D01*
X0179000Y0059915D02*
X0178000Y0059915D01*
X0176221Y0059915D02*
X0168725Y0059915D01*
X0168578Y0065906D02*
X0085800Y0065906D01*
X0069500Y0065906D02*
X0053422Y0065906D01*
X0050761Y0062911D02*
X0050387Y0062911D01*
X0049774Y0061912D02*
X0051759Y0061912D01*
X0047500Y0064000D02*
X0039500Y0064000D01*
X0028500Y0053000D01*
X0009500Y0053000D01*
X0009500Y0043000D02*
X0025500Y0043000D01*
X0043500Y0061000D01*
X0029500Y0067000D02*
X0025500Y0063000D01*
X0009500Y0063000D01*
X0004300Y0093865D02*
X0003000Y0093865D01*
X0003000Y0094863D02*
X0004643Y0094863D01*
X0005057Y0095862D02*
X0003000Y0095862D01*
X0003000Y0096860D02*
X0006006Y0096860D01*
X0007641Y0097859D02*
X0003000Y0097859D01*
X0003000Y0098857D02*
X0012529Y0098857D01*
X0011571Y0099856D02*
X0013527Y0099856D01*
X0012697Y0100854D02*
X0014526Y0100854D01*
X0015228Y0101853D02*
X0012772Y0101853D01*
X0012772Y0102851D02*
X0015228Y0102851D01*
X0011530Y0097859D02*
X0011359Y0097859D01*
X0008886Y0099856D02*
X0008114Y0099856D01*
X0008114Y0100854D02*
X0008886Y0100854D01*
X0008886Y0101853D02*
X0008114Y0101853D01*
X0008114Y0102851D02*
X0008886Y0102851D01*
X0008886Y0104848D02*
X0008114Y0104848D01*
X0008114Y0105847D02*
X0008886Y0105847D01*
X0008886Y0106845D02*
X0008114Y0106845D01*
X0008114Y0107844D02*
X0008886Y0107844D01*
X0006086Y0111838D02*
X0003000Y0111838D01*
X0003000Y0112836D02*
X0005088Y0112836D01*
X0004089Y0113835D02*
X0003000Y0113835D01*
X0003000Y0114833D02*
X0003850Y0114833D01*
X0003850Y0115832D02*
X0003000Y0115832D01*
X0003000Y0116830D02*
X0003850Y0116830D01*
X0003850Y0117829D02*
X0003000Y0117829D01*
X0003000Y0118827D02*
X0004751Y0118827D01*
X0004228Y0102851D02*
X0003000Y0102851D01*
X0003000Y0101853D02*
X0004228Y0101853D01*
X0004302Y0100854D02*
X0003000Y0100854D01*
X0003000Y0099856D02*
X0005429Y0099856D01*
X0056987Y0085876D02*
X0136200Y0085876D01*
X0136369Y0084878D02*
X0057986Y0084878D01*
X0058000Y0083879D02*
X0059518Y0083879D01*
X0058734Y0082881D02*
X0058000Y0082881D01*
X0058000Y0081882D02*
X0058416Y0081882D01*
X0063482Y0083879D02*
X0086018Y0083879D01*
X0069500Y0066905D02*
X0068305Y0066905D01*
X0066984Y0066905D02*
X0066016Y0066905D01*
X0066016Y0067903D02*
X0066984Y0067903D01*
X0066984Y0068902D02*
X0066016Y0068902D01*
X0066016Y0069900D02*
X0066984Y0069900D01*
X0036364Y0025500D02*
X0032636Y0025500D01*
X0030000Y0022864D01*
X0030000Y0019136D01*
X0032636Y0016500D01*
X0036364Y0016500D01*
X0039000Y0019136D01*
X0039000Y0022864D01*
X0036364Y0025500D01*
X0036897Y0024967D02*
X0114171Y0024967D01*
X0113590Y0025966D02*
X0013888Y0025966D01*
X0014314Y0024967D02*
X0022103Y0024967D01*
X0022636Y0025500D02*
X0020000Y0022864D01*
X0020000Y0021500D01*
X0024000Y0021500D01*
X0024000Y0025500D01*
X0022636Y0025500D01*
X0024000Y0024967D02*
X0025000Y0024967D01*
X0025000Y0025500D02*
X0025000Y0021500D01*
X0024000Y0021500D01*
X0024000Y0020500D01*
X0020000Y0020500D01*
X0020000Y0019136D01*
X0022636Y0016500D01*
X0024000Y0016500D01*
X0024000Y0020500D01*
X0025000Y0020500D01*
X0025000Y0021500D01*
X0029000Y0021500D01*
X0029000Y0022864D01*
X0026364Y0025500D01*
X0025000Y0025500D01*
X0025000Y0023969D02*
X0024000Y0023969D01*
X0024000Y0022970D02*
X0025000Y0022970D01*
X0025000Y0021972D02*
X0024000Y0021972D01*
X0024000Y0020973D02*
X0014289Y0020973D01*
X0014700Y0021972D02*
X0020000Y0021972D01*
X0020106Y0022970D02*
X0014700Y0022970D01*
X0014700Y0023969D02*
X0021105Y0023969D01*
X0020000Y0019975D02*
X0013829Y0019975D01*
X0016038Y0018976D02*
X0020160Y0018976D01*
X0021158Y0017978D02*
X0017552Y0017978D01*
X0018551Y0016979D02*
X0022157Y0016979D01*
X0024000Y0016979D02*
X0025000Y0016979D01*
X0025000Y0016500D02*
X0026364Y0016500D01*
X0029000Y0019136D01*
X0029000Y0020500D01*
X0025000Y0020500D01*
X0025000Y0016500D01*
X0025000Y0017978D02*
X0024000Y0017978D01*
X0024000Y0018976D02*
X0025000Y0018976D01*
X0025000Y0019975D02*
X0024000Y0019975D01*
X0025000Y0020973D02*
X0030000Y0020973D01*
X0030000Y0019975D02*
X0029000Y0019975D01*
X0028840Y0018976D02*
X0030160Y0018976D01*
X0031158Y0017978D02*
X0027842Y0017978D01*
X0026843Y0016979D02*
X0032157Y0016979D01*
X0032636Y0015500D02*
X0030000Y0012864D01*
X0030000Y0009136D01*
X0032636Y0006500D01*
X0036364Y0006500D01*
X0039000Y0009136D01*
X0039000Y0012864D01*
X0036364Y0015500D01*
X0032636Y0015500D01*
X0032118Y0014982D02*
X0026882Y0014982D01*
X0027880Y0013984D02*
X0031120Y0013984D01*
X0030121Y0012985D02*
X0028879Y0012985D01*
X0029000Y0011987D02*
X0030000Y0011987D01*
X0030000Y0010988D02*
X0029000Y0010988D01*
X0029000Y0009990D02*
X0030000Y0009990D01*
X0030145Y0008991D02*
X0028855Y0008991D01*
X0027857Y0007993D02*
X0031143Y0007993D01*
X0032142Y0006994D02*
X0026858Y0006994D01*
X0022142Y0006994D02*
X0018524Y0006994D01*
X0019282Y0007993D02*
X0021143Y0007993D01*
X0020145Y0008991D02*
X0019695Y0008991D01*
X0017525Y0005996D02*
X0196000Y0005996D01*
X0196000Y0006994D02*
X0168506Y0006994D01*
X0169812Y0007993D02*
X0196000Y0007993D01*
X0196000Y0008991D02*
X0189996Y0008991D01*
X0191843Y0009990D02*
X0196000Y0009990D01*
X0196000Y0010988D02*
X0192842Y0010988D01*
X0193294Y0011987D02*
X0196000Y0011987D01*
X0196000Y0012985D02*
X0195314Y0012985D01*
X0193500Y0014000D02*
X0195500Y0016000D01*
X0195500Y0144000D01*
X0193500Y0102851D02*
X0193220Y0102851D01*
X0183500Y0095000D02*
X0159500Y0095000D01*
X0154500Y0100000D01*
X0158863Y0098857D02*
X0160137Y0098857D01*
X0160550Y0097859D02*
X0159470Y0097859D01*
X0164500Y0090000D02*
X0164500Y0084000D01*
X0161500Y0081000D01*
X0149500Y0081000D01*
X0151218Y0076890D02*
X0165561Y0076890D01*
X0164563Y0075891D02*
X0150220Y0075891D01*
X0149221Y0074893D02*
X0154221Y0074893D01*
X0153969Y0074788D02*
X0152712Y0073531D01*
X0152031Y0071889D01*
X0152031Y0070111D01*
X0152712Y0068469D01*
X0153969Y0067212D01*
X0155611Y0066531D01*
X0157389Y0066531D01*
X0159031Y0067212D01*
X0160288Y0068469D01*
X0160968Y0070111D01*
X0160968Y0071889D01*
X0160288Y0073531D01*
X0159031Y0074788D01*
X0157389Y0075468D01*
X0155611Y0075468D01*
X0153969Y0074788D01*
X0153075Y0073894D02*
X0149925Y0073894D01*
X0150551Y0072896D02*
X0152449Y0072896D01*
X0152035Y0071897D02*
X0150965Y0071897D01*
X0150968Y0070899D02*
X0152031Y0070899D01*
X0152119Y0069900D02*
X0150881Y0069900D01*
X0150468Y0068902D02*
X0152532Y0068902D01*
X0153277Y0067903D02*
X0149723Y0067903D01*
X0148290Y0066905D02*
X0154710Y0066905D01*
X0158290Y0066905D02*
X0164710Y0066905D01*
X0163277Y0067903D02*
X0159723Y0067903D01*
X0160468Y0068902D02*
X0162532Y0068902D01*
X0162119Y0069900D02*
X0160881Y0069900D01*
X0160968Y0070899D02*
X0162031Y0070899D01*
X0162035Y0071897D02*
X0160965Y0071897D01*
X0160551Y0072896D02*
X0162449Y0072896D01*
X0163075Y0073894D02*
X0159925Y0073894D01*
X0158779Y0074893D02*
X0164221Y0074893D01*
X0161500Y0051000D02*
X0158500Y0048000D01*
X0158500Y0035000D01*
X0154500Y0031000D01*
X0158500Y0025000D02*
X0127500Y0025000D01*
X0126500Y0024000D01*
X0123416Y0023969D02*
X0117241Y0023969D01*
X0115759Y0023969D02*
X0037895Y0023969D01*
X0038894Y0022970D02*
X0123588Y0022970D01*
X0124166Y0021972D02*
X0039000Y0021972D01*
X0039000Y0020973D02*
X0125748Y0020973D01*
X0127252Y0020973D02*
X0133416Y0020973D01*
X0133564Y0021972D02*
X0128834Y0021972D01*
X0129412Y0022970D02*
X0134108Y0022970D01*
X0136500Y0021000D02*
X0137500Y0022000D01*
X0162500Y0022000D01*
X0163500Y0021000D01*
X0170500Y0021000D01*
X0183500Y0034000D01*
X0188500Y0034000D01*
X0188500Y0024000D02*
X0183500Y0024000D01*
X0178500Y0019000D01*
X0147500Y0019000D01*
X0146500Y0018000D01*
X0143416Y0017978D02*
X0137263Y0017978D01*
X0135737Y0017978D02*
X0037842Y0017978D01*
X0038840Y0018976D02*
X0134162Y0018976D01*
X0133586Y0019975D02*
X0039000Y0019975D01*
X0036843Y0016979D02*
X0143584Y0016979D01*
X0144158Y0015981D02*
X0019293Y0015981D01*
X0019707Y0014982D02*
X0022118Y0014982D01*
X0021120Y0013984D02*
X0020120Y0013984D01*
X0015974Y0004997D02*
X0196000Y0004997D01*
X0193500Y0014000D02*
X0188500Y0014000D01*
X0186500Y0016000D01*
X0156500Y0016000D01*
X0156500Y0015500D01*
X0153774Y0016979D02*
X0149416Y0016979D01*
X0148842Y0015981D02*
X0153416Y0015981D01*
X0153416Y0014982D02*
X0148563Y0014982D01*
X0149836Y0013984D02*
X0153164Y0013984D01*
X0152486Y0012985D02*
X0150514Y0012985D01*
X0150928Y0011987D02*
X0152072Y0011987D01*
X0152031Y0010988D02*
X0150968Y0010988D01*
X0150918Y0009990D02*
X0152082Y0009990D01*
X0152495Y0008991D02*
X0150505Y0008991D01*
X0149812Y0007993D02*
X0153188Y0007993D01*
X0154494Y0006994D02*
X0148506Y0006994D01*
X0144494Y0006994D02*
X0138506Y0006994D01*
X0139031Y0007212D02*
X0140288Y0008469D01*
X0140968Y0010111D01*
X0140968Y0011889D01*
X0140288Y0013531D01*
X0139031Y0014788D01*
X0137389Y0015468D01*
X0135611Y0015468D01*
X0133969Y0014788D01*
X0132712Y0013531D01*
X0132031Y0011889D01*
X0132031Y0010111D01*
X0132712Y0008469D01*
X0133969Y0007212D01*
X0135611Y0006531D01*
X0137389Y0006531D01*
X0139031Y0007212D01*
X0139812Y0007993D02*
X0143188Y0007993D01*
X0142495Y0008991D02*
X0140505Y0008991D01*
X0140918Y0009990D02*
X0142082Y0009990D01*
X0142031Y0010988D02*
X0140968Y0010988D01*
X0140928Y0011987D02*
X0142072Y0011987D01*
X0142486Y0012985D02*
X0140514Y0012985D01*
X0139836Y0013984D02*
X0143164Y0013984D01*
X0144437Y0014982D02*
X0138563Y0014982D01*
X0138838Y0018976D02*
X0143566Y0018976D01*
X0144113Y0019975D02*
X0139414Y0019975D01*
X0134437Y0014982D02*
X0128563Y0014982D01*
X0129031Y0014788D02*
X0127389Y0015468D01*
X0125611Y0015468D01*
X0123969Y0014788D01*
X0122712Y0013531D01*
X0122031Y0011889D01*
X0122031Y0010111D01*
X0122712Y0008469D01*
X0123969Y0007212D01*
X0125611Y0006531D01*
X0127389Y0006531D01*
X0129031Y0007212D01*
X0130288Y0008469D01*
X0130968Y0010111D01*
X0130968Y0011889D01*
X0130288Y0013531D01*
X0129031Y0014788D01*
X0129836Y0013984D02*
X0133164Y0013984D01*
X0132486Y0012985D02*
X0130514Y0012985D01*
X0130928Y0011987D02*
X0132072Y0011987D01*
X0132031Y0010988D02*
X0130968Y0010988D01*
X0130918Y0009990D02*
X0132082Y0009990D01*
X0132495Y0008991D02*
X0130505Y0008991D01*
X0129812Y0007993D02*
X0133188Y0007993D01*
X0134494Y0006994D02*
X0128506Y0006994D01*
X0124494Y0006994D02*
X0118506Y0006994D01*
X0119031Y0007212D02*
X0120288Y0008469D01*
X0120968Y0010111D01*
X0120968Y0011889D01*
X0120288Y0013531D01*
X0119031Y0014788D01*
X0117389Y0015468D01*
X0115611Y0015468D01*
X0113969Y0014788D01*
X0112712Y0013531D01*
X0112031Y0011889D01*
X0112031Y0010111D01*
X0112712Y0008469D01*
X0113969Y0007212D01*
X0115611Y0006531D01*
X0117389Y0006531D01*
X0119031Y0007212D01*
X0119812Y0007993D02*
X0123188Y0007993D01*
X0122495Y0008991D02*
X0120505Y0008991D01*
X0120918Y0009990D02*
X0122082Y0009990D01*
X0122031Y0010988D02*
X0120968Y0010988D01*
X0120928Y0011987D02*
X0122072Y0011987D01*
X0122486Y0012985D02*
X0120514Y0012985D01*
X0119836Y0013984D02*
X0123164Y0013984D01*
X0124437Y0014982D02*
X0118563Y0014982D01*
X0114437Y0014982D02*
X0108563Y0014982D01*
X0109031Y0014788D02*
X0107389Y0015468D01*
X0105611Y0015468D01*
X0103969Y0014788D01*
X0102712Y0013531D01*
X0102031Y0011889D01*
X0102031Y0010111D01*
X0102712Y0008469D01*
X0103969Y0007212D01*
X0105611Y0006531D01*
X0107389Y0006531D01*
X0109031Y0007212D01*
X0110288Y0008469D01*
X0110968Y0010111D01*
X0110968Y0011889D01*
X0110288Y0013531D01*
X0109031Y0014788D01*
X0109836Y0013984D02*
X0113164Y0013984D01*
X0112486Y0012985D02*
X0110514Y0012985D01*
X0110928Y0011987D02*
X0112072Y0011987D01*
X0112031Y0010988D02*
X0110968Y0010988D01*
X0110918Y0009990D02*
X0112082Y0009990D01*
X0112495Y0008991D02*
X0110505Y0008991D01*
X0109812Y0007993D02*
X0113188Y0007993D01*
X0114494Y0006994D02*
X0108506Y0006994D01*
X0104494Y0006994D02*
X0098506Y0006994D01*
X0099031Y0007212D02*
X0100288Y0008469D01*
X0100968Y0010111D01*
X0100968Y0011889D01*
X0100288Y0013531D01*
X0099031Y0014788D01*
X0097389Y0015468D01*
X0095611Y0015468D01*
X0093969Y0014788D01*
X0092712Y0013531D01*
X0092031Y0011889D01*
X0092031Y0010111D01*
X0092712Y0008469D01*
X0093969Y0007212D01*
X0095611Y0006531D01*
X0097389Y0006531D01*
X0099031Y0007212D01*
X0099812Y0007993D02*
X0103188Y0007993D01*
X0102495Y0008991D02*
X0100505Y0008991D01*
X0100918Y0009990D02*
X0102082Y0009990D01*
X0102031Y0010988D02*
X0100968Y0010988D01*
X0100928Y0011987D02*
X0102072Y0011987D01*
X0102486Y0012985D02*
X0100514Y0012985D01*
X0099836Y0013984D02*
X0103164Y0013984D01*
X0104437Y0014982D02*
X0098563Y0014982D01*
X0094437Y0014982D02*
X0088527Y0014982D01*
X0088215Y0015141D02*
X0087546Y0015358D01*
X0086984Y0015447D01*
X0086984Y0011484D01*
X0090947Y0011484D01*
X0090858Y0012046D01*
X0090641Y0012715D01*
X0090322Y0013342D01*
X0089908Y0013911D01*
X0089411Y0014408D01*
X0088842Y0014822D01*
X0088215Y0015141D01*
X0086984Y0014982D02*
X0086016Y0014982D01*
X0086016Y0015447D02*
X0085454Y0015358D01*
X0084785Y0015141D01*
X0084158Y0014822D01*
X0083589Y0014408D01*
X0083092Y0013911D01*
X0082678Y0013342D01*
X0082359Y0012715D01*
X0082142Y0012046D01*
X0082052Y0011484D01*
X0086016Y0011484D01*
X0086016Y0010516D01*
X0086984Y0010516D01*
X0086984Y0006552D01*
X0087546Y0006642D01*
X0088215Y0006859D01*
X0088842Y0007178D01*
X0089411Y0007592D01*
X0089908Y0008089D01*
X0090322Y0008658D01*
X0090641Y0009285D01*
X0090858Y0009954D01*
X0090947Y0010516D01*
X0086984Y0010516D01*
X0086984Y0011484D01*
X0086016Y0011484D01*
X0086016Y0015447D01*
X0086016Y0013984D02*
X0086984Y0013984D01*
X0086984Y0012985D02*
X0086016Y0012985D01*
X0086016Y0011987D02*
X0086984Y0011987D01*
X0086984Y0010988D02*
X0092031Y0010988D01*
X0092072Y0011987D02*
X0090868Y0011987D01*
X0090504Y0012985D02*
X0092486Y0012985D01*
X0093164Y0013984D02*
X0089836Y0013984D01*
X0090864Y0009990D02*
X0092082Y0009990D01*
X0092495Y0008991D02*
X0090492Y0008991D01*
X0089812Y0007993D02*
X0093188Y0007993D01*
X0094494Y0006994D02*
X0088481Y0006994D01*
X0086984Y0006994D02*
X0086016Y0006994D01*
X0086016Y0006552D02*
X0086016Y0010516D01*
X0082052Y0010516D01*
X0082142Y0009954D01*
X0082359Y0009285D01*
X0082678Y0008658D01*
X0083092Y0008089D01*
X0083589Y0007592D01*
X0084158Y0007178D01*
X0084785Y0006859D01*
X0085454Y0006642D01*
X0086016Y0006552D01*
X0086016Y0007993D02*
X0086984Y0007993D01*
X0086984Y0008991D02*
X0086016Y0008991D01*
X0086016Y0009990D02*
X0086984Y0009990D01*
X0086016Y0010988D02*
X0080968Y0010988D01*
X0080968Y0010111D02*
X0080288Y0008469D01*
X0079031Y0007212D01*
X0077389Y0006531D01*
X0075611Y0006531D01*
X0073969Y0007212D01*
X0072712Y0008469D01*
X0072031Y0010111D01*
X0072031Y0011889D01*
X0072712Y0013531D01*
X0073969Y0014788D01*
X0075611Y0015468D01*
X0077389Y0015468D01*
X0079031Y0014788D01*
X0080288Y0013531D01*
X0080968Y0011889D01*
X0080968Y0010111D01*
X0080918Y0009990D02*
X0082136Y0009990D01*
X0082508Y0008991D02*
X0080505Y0008991D01*
X0079812Y0007993D02*
X0083188Y0007993D01*
X0084519Y0006994D02*
X0078506Y0006994D01*
X0074494Y0006994D02*
X0068506Y0006994D01*
X0069031Y0007212D02*
X0070288Y0008469D01*
X0070968Y0010111D01*
X0070968Y0011889D01*
X0070288Y0013531D01*
X0069031Y0014788D01*
X0067389Y0015468D01*
X0065611Y0015468D01*
X0063969Y0014788D01*
X0062712Y0013531D01*
X0062031Y0011889D01*
X0062031Y0010111D01*
X0062712Y0008469D01*
X0063969Y0007212D01*
X0065611Y0006531D01*
X0067389Y0006531D01*
X0069031Y0007212D01*
X0069812Y0007993D02*
X0073188Y0007993D01*
X0072495Y0008991D02*
X0070505Y0008991D01*
X0070918Y0009990D02*
X0072082Y0009990D01*
X0072031Y0010988D02*
X0070968Y0010988D01*
X0070928Y0011987D02*
X0072072Y0011987D01*
X0072486Y0012985D02*
X0070514Y0012985D01*
X0069836Y0013984D02*
X0073164Y0013984D01*
X0074437Y0014982D02*
X0068563Y0014982D01*
X0064437Y0014982D02*
X0058563Y0014982D01*
X0059031Y0014788D02*
X0057389Y0015468D01*
X0055611Y0015468D01*
X0053969Y0014788D01*
X0052712Y0013531D01*
X0052031Y0011889D01*
X0052031Y0010111D01*
X0052712Y0008469D01*
X0053969Y0007212D01*
X0055611Y0006531D01*
X0057389Y0006531D01*
X0059031Y0007212D01*
X0060288Y0008469D01*
X0060968Y0010111D01*
X0060968Y0011889D01*
X0060288Y0013531D01*
X0059031Y0014788D01*
X0059836Y0013984D02*
X0063164Y0013984D01*
X0062486Y0012985D02*
X0060514Y0012985D01*
X0060928Y0011987D02*
X0062072Y0011987D01*
X0062031Y0010988D02*
X0060968Y0010988D01*
X0060918Y0009990D02*
X0062082Y0009990D01*
X0062495Y0008991D02*
X0060505Y0008991D01*
X0059812Y0007993D02*
X0063188Y0007993D01*
X0064494Y0006994D02*
X0058506Y0006994D01*
X0054494Y0006994D02*
X0036858Y0006994D01*
X0037857Y0007993D02*
X0053188Y0007993D01*
X0052495Y0008991D02*
X0038855Y0008991D01*
X0039000Y0009990D02*
X0052082Y0009990D01*
X0052031Y0010988D02*
X0039000Y0010988D01*
X0039000Y0011987D02*
X0052072Y0011987D01*
X0052486Y0012985D02*
X0038879Y0012985D01*
X0037880Y0013984D02*
X0053164Y0013984D01*
X0054437Y0014982D02*
X0036882Y0014982D01*
X0030000Y0021972D02*
X0029000Y0021972D01*
X0028894Y0022970D02*
X0030106Y0022970D01*
X0031105Y0023969D02*
X0027895Y0023969D01*
X0026897Y0024967D02*
X0032103Y0024967D01*
X0009026Y0004997D02*
X0003000Y0004997D01*
X0003000Y0005996D02*
X0007475Y0005996D01*
X0006476Y0006994D02*
X0003000Y0006994D01*
X0003000Y0007993D02*
X0005718Y0007993D01*
X0005305Y0008991D02*
X0003000Y0008991D01*
X0003000Y0009990D02*
X0004891Y0009990D01*
X0004701Y0010988D02*
X0003000Y0010988D01*
X0003000Y0011987D02*
X0004701Y0011987D01*
X0004701Y0012985D02*
X0003000Y0012985D01*
X0003000Y0013984D02*
X0004880Y0013984D01*
X0005293Y0014982D02*
X0003000Y0014982D01*
X0003000Y0015981D02*
X0005707Y0015981D01*
X0006449Y0016979D02*
X0003000Y0016979D01*
X0003000Y0017978D02*
X0007448Y0017978D01*
X0006170Y0018976D02*
X0003000Y0018976D01*
X0003000Y0019975D02*
X0005171Y0019975D01*
X0004711Y0020973D02*
X0003000Y0020973D01*
X0003000Y0021972D02*
X0004300Y0021972D01*
X0004300Y0022970D02*
X0003000Y0022970D01*
X0003000Y0023969D02*
X0004300Y0023969D01*
X0004686Y0024967D02*
X0003000Y0024967D01*
X0003000Y0025966D02*
X0005112Y0025966D01*
X0006110Y0026964D02*
X0003000Y0026964D01*
X0003000Y0027963D02*
X0007893Y0027963D01*
X0006212Y0028961D02*
X0003000Y0028961D01*
X0003000Y0029960D02*
X0005281Y0029960D01*
X0004704Y0030958D02*
X0003000Y0030958D01*
X0003000Y0031957D02*
X0004400Y0031957D01*
X0078563Y0014982D02*
X0084473Y0014982D01*
X0083164Y0013984D02*
X0079836Y0013984D01*
X0080514Y0012985D02*
X0082496Y0012985D01*
X0082132Y0011987D02*
X0080928Y0011987D01*
X0118829Y0024967D02*
X0123562Y0024967D01*
X0124104Y0025966D02*
X0119410Y0025966D01*
X0158500Y0025000D02*
X0164500Y0031000D01*
X0170500Y0031000D01*
X0183500Y0044000D01*
X0188500Y0044000D01*
X0175500Y0051000D02*
X0161500Y0051000D01*
X0159836Y0013984D02*
X0163164Y0013984D01*
X0162486Y0012985D02*
X0160514Y0012985D01*
X0160928Y0011987D02*
X0162072Y0011987D01*
X0162031Y0010988D02*
X0160968Y0010988D01*
X0160918Y0009990D02*
X0162082Y0009990D01*
X0162495Y0008991D02*
X0160505Y0008991D01*
X0159812Y0007993D02*
X0163188Y0007993D01*
X0164494Y0006994D02*
X0158506Y0006994D01*
X0170505Y0008991D02*
X0187004Y0008991D01*
X0185156Y0009990D02*
X0170918Y0009990D01*
X0170968Y0010988D02*
X0184158Y0010988D01*
X0183706Y0011987D02*
X0170928Y0011987D01*
X0170514Y0012985D02*
X0183300Y0012985D01*
X0183300Y0013984D02*
X0169836Y0013984D01*
X0133660Y0176741D02*
X0133012Y0176741D01*
X0133660Y0177739D02*
X0132013Y0177739D01*
X0131015Y0178738D02*
X0133660Y0178738D01*
X0133660Y0179737D02*
X0130016Y0179737D01*
X0129018Y0180735D02*
X0133992Y0180735D01*
X0004228Y0191719D02*
X0003000Y0191719D01*
X0003000Y0192717D02*
X0004228Y0192717D01*
X0004228Y0193716D02*
X0003000Y0193716D01*
X0003000Y0194714D02*
X0004228Y0194714D01*
X0004228Y0195713D02*
X0003000Y0195713D01*
X0003000Y0196711D02*
X0004228Y0196711D01*
D27*
X0065500Y0135000D03*
X0056500Y0120000D03*
X0074500Y0093500D03*
X0061500Y0081500D03*
X0047500Y0064000D03*
X0043500Y0061000D03*
X0029500Y0067000D03*
X0029500Y0075000D03*
X0088000Y0081500D03*
X0108500Y0097000D03*
X0137500Y0130000D03*
X0160500Y0135000D03*
X0165500Y0148000D03*
X0174000Y0152000D03*
X0187500Y0152000D03*
X0180500Y0176000D03*
X0137500Y0156000D03*
X0110500Y0169000D03*
X0151500Y0107000D03*
X0175122Y0107000D03*
X0176500Y0118000D03*
X0183500Y0095000D03*
X0143500Y0081000D03*
X0101500Y0039000D03*
X0106500Y0031000D03*
X0116500Y0027000D03*
X0126500Y0024000D03*
X0136500Y0021000D03*
X0146500Y0018000D03*
X0156500Y0015500D03*
X0095500Y0047000D03*
D28*
X0083500Y0059000D01*
X0083500Y0068000D01*
X0086500Y0071000D01*
X0099500Y0104500D02*
X0064400Y0104500D01*
X0062100Y0104000D01*
X0062500Y0104100D01*
X0051500Y0104100D02*
X0051500Y0115000D01*
X0052500Y0116000D01*
X0051500Y0117000D01*
X0051500Y0160500D01*
X0059000Y0168000D01*
X0078500Y0168000D01*
X0089500Y0179000D01*
X0089500Y0185000D01*
X0072500Y0195000D02*
X0111500Y0195000D01*
X0121500Y0185000D01*
X0133500Y0173000D01*
X0133500Y0161000D01*
X0131500Y0159000D01*
X0125500Y0159000D01*
X0125500Y0169000D02*
X0110500Y0169000D01*
X0136941Y0178000D02*
X0142760Y0178000D01*
X0137500Y0156000D02*
X0137500Y0147000D01*
X0138500Y0146000D01*
X0137500Y0145000D01*
X0137500Y0146200D01*
X0149984Y0146280D01*
X0154220Y0146280D01*
X0156780Y0143720D01*
X0173016Y0143720D01*
X0149984Y0146280D02*
X0149984Y0148839D01*
X0137500Y0147000D02*
X0137500Y0146200D01*
X0137500Y0145000D02*
X0137500Y0130000D01*
X0125500Y0137000D02*
X0121500Y0133000D01*
X0099500Y0133000D01*
X0093500Y0127000D01*
X0093500Y0126000D01*
X0116964Y0121536D02*
X0116964Y0107536D01*
X0117500Y0107000D01*
X0122500Y0101000D01*
X0138500Y0101000D01*
X0139500Y0100000D01*
X0144500Y0100000D01*
X0140500Y0100000D01*
X0138500Y0098000D01*
X0138500Y0101000D01*
X0138500Y0098000D02*
X0138500Y0086000D01*
X0143500Y0081000D01*
X0062500Y0116000D02*
X0052500Y0116000D01*
X0051500Y0116000D01*
X0051500Y0117000D01*
X0051500Y0116000D02*
X0051500Y0115000D01*
X0062500Y0185000D02*
X0072500Y0195000D01*
D29*
X0136941Y0178000D03*
X0180500Y0100000D03*
D30*
X0099500Y0104500D03*
D31*
X0144800Y0107500D02*
X0144800Y0119296D01*
X0147500Y0120996D01*
M02*
