%
M48
M72
T01C0.0180
T02C0.0197
T03C0.0236
T04C0.0320
T05C0.0354
T06C0.0360
T07C0.0394
T08C0.0400
T09C0.1260
%
T01
X9950Y10450
T02
X10850Y9700
X8800Y8150
X7450Y9350
X6150Y8150
X4750Y6400
X4350Y6100
X2950Y6700
X2950Y7500
X5650Y12000
X6550Y13500
X11050Y16900
X13750Y15600
X16050Y13500
X16550Y14800
X17400Y15200
X18750Y15200
X18050Y17600
X13750Y13000
X15150Y10700
X17512Y10700
X17650Y11800
X18350Y9500
X14350Y8100
X10150Y3900
X10650Y3100
X11650Y2700
X12650Y2400
X13650Y2100
X14650Y1800
X15650Y1550
X9550Y4700
T03
X18050Y10000
X13694Y17800
T04
X11696Y12154
X12404Y11446
X13650Y10750
X14480Y10750
X6250Y11600
X850Y11600
X850Y18500
X6250Y18500
T05
X6250Y19410
X850Y19410
X850Y10410
X1950Y10410
X5150Y10410
X6250Y10410
T06
X12550Y13700
X12550Y14700
X12550Y15900
X12550Y16900
T07
X14450Y10000
X14450Y9000
X15450Y9000
X15450Y10000
X16450Y10000
X16450Y9000
X17450Y9000
X17450Y10000
X16650Y7100
X15650Y7100
X14650Y7100
X13650Y7100
X12650Y7100
X11650Y7100
X10650Y7100
X9650Y7100
X8650Y7100
X7650Y7100
X6650Y7100
X5650Y7100
X9150Y6100
X10150Y6100
X9650Y1100
X8650Y1100
X7650Y1100
X6650Y1100
X5650Y1100
X10650Y1100
X11650Y1100
X12650Y1100
X13650Y1100
X14650Y1100
X15650Y1100
X16650Y1100
X16650Y2600
X16650Y3600
X16650Y4600
X16650Y5600
T08
X17850Y6400
X17850Y7400
X18850Y7400
X18850Y6400
X18850Y5400
X18850Y4400
X18850Y3400
X18850Y2400
X18850Y1400
X10350Y11600
X10350Y12600
X9350Y12600
X9350Y11600
X8350Y11600
X8350Y12600
X7350Y12600
X7350Y11600
X5350Y9300
X5350Y8300
X4350Y8300
X4350Y9300
X3350Y9300
X3350Y8300
X2350Y8300
X2350Y9300
X950Y9300
X950Y8300
X950Y7300
X950Y6300
X950Y5300
X950Y4300
X950Y3300
X950Y2300
X2450Y2100
X2450Y1100
X3450Y1100
X3450Y2100
X7950Y18500
X8950Y18500
X11150Y18500
X12150Y18500
T09
X1250Y1200
X3550Y16300
X16850Y16300
M30
