G75*
%MOIN*%
%OFA0B0*%
%FSLAX25Y25*%
%IPPOS*%
%LPD*%
%AMOC8*
5,1,8,0,0,1.08239X$1,22.5*
%
%ADD10C,0.00000*%
%ADD11R,0.32700X0.00100*%
%ADD12R,0.33700X0.00100*%
%ADD13R,0.34200X0.00100*%
%ADD14R,0.34700X0.00100*%
%ADD15R,0.34900X0.00100*%
%ADD16R,0.01500X0.00100*%
%ADD17R,0.01400X0.00100*%
%ADD18R,0.01200X0.00100*%
%ADD19R,0.01100X0.00100*%
%ADD20R,0.01000X0.00100*%
%ADD21R,0.00900X0.00100*%
%ADD22R,0.00700X0.00100*%
%ADD23R,0.00800X0.00100*%
%ADD24R,0.37100X0.00100*%
%ADD25R,0.00600X0.00100*%
%ADD26R,0.01300X0.00100*%
%ADD27R,0.02200X0.00100*%
%ADD28R,0.01700X0.00100*%
%ADD29R,0.02300X0.00100*%
%ADD30R,0.02400X0.00100*%
%ADD31R,0.01900X0.00100*%
%ADD32R,0.02500X0.00100*%
%ADD33R,0.02600X0.00100*%
%ADD34R,0.00300X0.00100*%
%ADD35R,0.02700X0.00100*%
%ADD36R,0.02100X0.00100*%
%ADD37R,0.02000X0.00100*%
%ADD38R,0.00200X0.00100*%
%ADD39R,0.01800X0.00100*%
%ADD40R,0.01600X0.00100*%
%ADD41R,0.00500X0.00100*%
%ADD42R,0.00400X0.00100*%
%ADD43R,0.00100X0.00100*%
%ADD44R,0.03200X0.00100*%
%ADD45R,0.03100X0.00100*%
%ADD46R,0.03400X0.00100*%
%ADD47R,0.03500X0.00100*%
%ADD48R,0.03900X0.00100*%
%ADD49R,0.05700X0.00100*%
%ADD50R,0.06000X0.00100*%
%ADD51R,0.06100X0.00100*%
%ADD52R,0.06200X0.00100*%
%ADD53R,0.06500X0.00100*%
%ADD54R,0.06400X0.00100*%
%ADD55R,0.06300X0.00100*%
%ADD56R,0.05900X0.00100*%
%ADD57R,0.05800X0.00100*%
%ADD58R,0.06600X0.00100*%
%ADD59R,0.06800X0.00100*%
%ADD60R,0.06700X0.00100*%
%ADD61R,0.06900X0.00100*%
%ADD62R,0.07000X0.00100*%
%ADD63R,0.07100X0.00100*%
%ADD64R,0.07800X0.00100*%
%ADD65R,0.08500X0.00100*%
%ADD66R,0.08600X0.00100*%
%ADD67R,0.08900X0.00100*%
%ADD68R,0.08800X0.00100*%
%ADD69R,0.08700X0.00100*%
%ADD70R,0.08400X0.00100*%
%ADD71R,0.07300X0.00100*%
%ADD72R,0.07400X0.00100*%
%ADD73R,0.16200X0.00100*%
%ADD74R,0.15900X0.00100*%
%ADD75R,0.15600X0.00100*%
%ADD76R,0.15300X0.00100*%
%ADD77R,0.16500X0.00100*%
%ADD78R,0.16800X0.00100*%
%ADD79R,0.17100X0.00100*%
%ADD80R,0.17400X0.00100*%
%ADD81R,0.17700X0.00100*%
%ADD82R,0.18000X0.00100*%
%ADD83R,0.18300X0.00100*%
%ADD84R,0.18600X0.00100*%
%ADD85R,0.04200X0.00100*%
%ADD86R,0.08100X0.00100*%
%ADD87R,0.07500X0.00100*%
%ADD88R,0.05100X0.00100*%
%ADD89R,0.04500X0.00100*%
%ADD90R,0.03600X0.00100*%
%ADD91R,0.03300X0.00100*%
%ADD92R,0.33600X0.00100*%
%ADD93C,0.00300*%
%ADD94C,0.00200*%
%ADD95C,0.00500*%
%ADD96C,0.00600*%
%ADD97C,0.00400*%
%ADD98C,0.01000*%
%ADD99C,0.00787*%
%ADD100C,0.00800*%
D10*
X0001500Y0003000D02*
X0197500Y0003000D01*
X0197500Y0199000D01*
X0001500Y0199000D01*
X0001500Y0003000D01*
X0006201Y0012000D02*
X0006203Y0012158D01*
X0006209Y0012316D01*
X0006219Y0012474D01*
X0006233Y0012632D01*
X0006251Y0012789D01*
X0006272Y0012946D01*
X0006298Y0013102D01*
X0006328Y0013258D01*
X0006361Y0013413D01*
X0006399Y0013566D01*
X0006440Y0013719D01*
X0006485Y0013871D01*
X0006534Y0014022D01*
X0006587Y0014171D01*
X0006643Y0014319D01*
X0006703Y0014465D01*
X0006767Y0014610D01*
X0006835Y0014753D01*
X0006906Y0014895D01*
X0006980Y0015035D01*
X0007058Y0015172D01*
X0007140Y0015308D01*
X0007224Y0015442D01*
X0007313Y0015573D01*
X0007404Y0015702D01*
X0007499Y0015829D01*
X0007596Y0015954D01*
X0007697Y0016076D01*
X0007801Y0016195D01*
X0007908Y0016312D01*
X0008018Y0016426D01*
X0008131Y0016537D01*
X0008246Y0016646D01*
X0008364Y0016751D01*
X0008485Y0016853D01*
X0008608Y0016953D01*
X0008734Y0017049D01*
X0008862Y0017142D01*
X0008992Y0017232D01*
X0009125Y0017318D01*
X0009260Y0017402D01*
X0009396Y0017481D01*
X0009535Y0017558D01*
X0009676Y0017630D01*
X0009818Y0017700D01*
X0009962Y0017765D01*
X0010108Y0017827D01*
X0010255Y0017885D01*
X0010404Y0017940D01*
X0010554Y0017991D01*
X0010705Y0018038D01*
X0010857Y0018081D01*
X0011010Y0018120D01*
X0011165Y0018156D01*
X0011320Y0018187D01*
X0011476Y0018215D01*
X0011632Y0018239D01*
X0011789Y0018259D01*
X0011947Y0018275D01*
X0012104Y0018287D01*
X0012263Y0018295D01*
X0012421Y0018299D01*
X0012579Y0018299D01*
X0012737Y0018295D01*
X0012896Y0018287D01*
X0013053Y0018275D01*
X0013211Y0018259D01*
X0013368Y0018239D01*
X0013524Y0018215D01*
X0013680Y0018187D01*
X0013835Y0018156D01*
X0013990Y0018120D01*
X0014143Y0018081D01*
X0014295Y0018038D01*
X0014446Y0017991D01*
X0014596Y0017940D01*
X0014745Y0017885D01*
X0014892Y0017827D01*
X0015038Y0017765D01*
X0015182Y0017700D01*
X0015324Y0017630D01*
X0015465Y0017558D01*
X0015604Y0017481D01*
X0015740Y0017402D01*
X0015875Y0017318D01*
X0016008Y0017232D01*
X0016138Y0017142D01*
X0016266Y0017049D01*
X0016392Y0016953D01*
X0016515Y0016853D01*
X0016636Y0016751D01*
X0016754Y0016646D01*
X0016869Y0016537D01*
X0016982Y0016426D01*
X0017092Y0016312D01*
X0017199Y0016195D01*
X0017303Y0016076D01*
X0017404Y0015954D01*
X0017501Y0015829D01*
X0017596Y0015702D01*
X0017687Y0015573D01*
X0017776Y0015442D01*
X0017860Y0015308D01*
X0017942Y0015172D01*
X0018020Y0015035D01*
X0018094Y0014895D01*
X0018165Y0014753D01*
X0018233Y0014610D01*
X0018297Y0014465D01*
X0018357Y0014319D01*
X0018413Y0014171D01*
X0018466Y0014022D01*
X0018515Y0013871D01*
X0018560Y0013719D01*
X0018601Y0013566D01*
X0018639Y0013413D01*
X0018672Y0013258D01*
X0018702Y0013102D01*
X0018728Y0012946D01*
X0018749Y0012789D01*
X0018767Y0012632D01*
X0018781Y0012474D01*
X0018791Y0012316D01*
X0018797Y0012158D01*
X0018799Y0012000D01*
X0018797Y0011842D01*
X0018791Y0011684D01*
X0018781Y0011526D01*
X0018767Y0011368D01*
X0018749Y0011211D01*
X0018728Y0011054D01*
X0018702Y0010898D01*
X0018672Y0010742D01*
X0018639Y0010587D01*
X0018601Y0010434D01*
X0018560Y0010281D01*
X0018515Y0010129D01*
X0018466Y0009978D01*
X0018413Y0009829D01*
X0018357Y0009681D01*
X0018297Y0009535D01*
X0018233Y0009390D01*
X0018165Y0009247D01*
X0018094Y0009105D01*
X0018020Y0008965D01*
X0017942Y0008828D01*
X0017860Y0008692D01*
X0017776Y0008558D01*
X0017687Y0008427D01*
X0017596Y0008298D01*
X0017501Y0008171D01*
X0017404Y0008046D01*
X0017303Y0007924D01*
X0017199Y0007805D01*
X0017092Y0007688D01*
X0016982Y0007574D01*
X0016869Y0007463D01*
X0016754Y0007354D01*
X0016636Y0007249D01*
X0016515Y0007147D01*
X0016392Y0007047D01*
X0016266Y0006951D01*
X0016138Y0006858D01*
X0016008Y0006768D01*
X0015875Y0006682D01*
X0015740Y0006598D01*
X0015604Y0006519D01*
X0015465Y0006442D01*
X0015324Y0006370D01*
X0015182Y0006300D01*
X0015038Y0006235D01*
X0014892Y0006173D01*
X0014745Y0006115D01*
X0014596Y0006060D01*
X0014446Y0006009D01*
X0014295Y0005962D01*
X0014143Y0005919D01*
X0013990Y0005880D01*
X0013835Y0005844D01*
X0013680Y0005813D01*
X0013524Y0005785D01*
X0013368Y0005761D01*
X0013211Y0005741D01*
X0013053Y0005725D01*
X0012896Y0005713D01*
X0012737Y0005705D01*
X0012579Y0005701D01*
X0012421Y0005701D01*
X0012263Y0005705D01*
X0012104Y0005713D01*
X0011947Y0005725D01*
X0011789Y0005741D01*
X0011632Y0005761D01*
X0011476Y0005785D01*
X0011320Y0005813D01*
X0011165Y0005844D01*
X0011010Y0005880D01*
X0010857Y0005919D01*
X0010705Y0005962D01*
X0010554Y0006009D01*
X0010404Y0006060D01*
X0010255Y0006115D01*
X0010108Y0006173D01*
X0009962Y0006235D01*
X0009818Y0006300D01*
X0009676Y0006370D01*
X0009535Y0006442D01*
X0009396Y0006519D01*
X0009260Y0006598D01*
X0009125Y0006682D01*
X0008992Y0006768D01*
X0008862Y0006858D01*
X0008734Y0006951D01*
X0008608Y0007047D01*
X0008485Y0007147D01*
X0008364Y0007249D01*
X0008246Y0007354D01*
X0008131Y0007463D01*
X0008018Y0007574D01*
X0007908Y0007688D01*
X0007801Y0007805D01*
X0007697Y0007924D01*
X0007596Y0008046D01*
X0007499Y0008171D01*
X0007404Y0008298D01*
X0007313Y0008427D01*
X0007224Y0008558D01*
X0007140Y0008692D01*
X0007058Y0008828D01*
X0006980Y0008965D01*
X0006906Y0009105D01*
X0006835Y0009247D01*
X0006767Y0009390D01*
X0006703Y0009535D01*
X0006643Y0009681D01*
X0006587Y0009829D01*
X0006534Y0009978D01*
X0006485Y0010129D01*
X0006440Y0010281D01*
X0006399Y0010434D01*
X0006361Y0010587D01*
X0006328Y0010742D01*
X0006298Y0010898D01*
X0006272Y0011054D01*
X0006251Y0011211D01*
X0006233Y0011368D01*
X0006219Y0011526D01*
X0006209Y0011684D01*
X0006203Y0011842D01*
X0006201Y0012000D01*
X0029201Y0163000D02*
X0029203Y0163158D01*
X0029209Y0163316D01*
X0029219Y0163474D01*
X0029233Y0163632D01*
X0029251Y0163789D01*
X0029272Y0163946D01*
X0029298Y0164102D01*
X0029328Y0164258D01*
X0029361Y0164413D01*
X0029399Y0164566D01*
X0029440Y0164719D01*
X0029485Y0164871D01*
X0029534Y0165022D01*
X0029587Y0165171D01*
X0029643Y0165319D01*
X0029703Y0165465D01*
X0029767Y0165610D01*
X0029835Y0165753D01*
X0029906Y0165895D01*
X0029980Y0166035D01*
X0030058Y0166172D01*
X0030140Y0166308D01*
X0030224Y0166442D01*
X0030313Y0166573D01*
X0030404Y0166702D01*
X0030499Y0166829D01*
X0030596Y0166954D01*
X0030697Y0167076D01*
X0030801Y0167195D01*
X0030908Y0167312D01*
X0031018Y0167426D01*
X0031131Y0167537D01*
X0031246Y0167646D01*
X0031364Y0167751D01*
X0031485Y0167853D01*
X0031608Y0167953D01*
X0031734Y0168049D01*
X0031862Y0168142D01*
X0031992Y0168232D01*
X0032125Y0168318D01*
X0032260Y0168402D01*
X0032396Y0168481D01*
X0032535Y0168558D01*
X0032676Y0168630D01*
X0032818Y0168700D01*
X0032962Y0168765D01*
X0033108Y0168827D01*
X0033255Y0168885D01*
X0033404Y0168940D01*
X0033554Y0168991D01*
X0033705Y0169038D01*
X0033857Y0169081D01*
X0034010Y0169120D01*
X0034165Y0169156D01*
X0034320Y0169187D01*
X0034476Y0169215D01*
X0034632Y0169239D01*
X0034789Y0169259D01*
X0034947Y0169275D01*
X0035104Y0169287D01*
X0035263Y0169295D01*
X0035421Y0169299D01*
X0035579Y0169299D01*
X0035737Y0169295D01*
X0035896Y0169287D01*
X0036053Y0169275D01*
X0036211Y0169259D01*
X0036368Y0169239D01*
X0036524Y0169215D01*
X0036680Y0169187D01*
X0036835Y0169156D01*
X0036990Y0169120D01*
X0037143Y0169081D01*
X0037295Y0169038D01*
X0037446Y0168991D01*
X0037596Y0168940D01*
X0037745Y0168885D01*
X0037892Y0168827D01*
X0038038Y0168765D01*
X0038182Y0168700D01*
X0038324Y0168630D01*
X0038465Y0168558D01*
X0038604Y0168481D01*
X0038740Y0168402D01*
X0038875Y0168318D01*
X0039008Y0168232D01*
X0039138Y0168142D01*
X0039266Y0168049D01*
X0039392Y0167953D01*
X0039515Y0167853D01*
X0039636Y0167751D01*
X0039754Y0167646D01*
X0039869Y0167537D01*
X0039982Y0167426D01*
X0040092Y0167312D01*
X0040199Y0167195D01*
X0040303Y0167076D01*
X0040404Y0166954D01*
X0040501Y0166829D01*
X0040596Y0166702D01*
X0040687Y0166573D01*
X0040776Y0166442D01*
X0040860Y0166308D01*
X0040942Y0166172D01*
X0041020Y0166035D01*
X0041094Y0165895D01*
X0041165Y0165753D01*
X0041233Y0165610D01*
X0041297Y0165465D01*
X0041357Y0165319D01*
X0041413Y0165171D01*
X0041466Y0165022D01*
X0041515Y0164871D01*
X0041560Y0164719D01*
X0041601Y0164566D01*
X0041639Y0164413D01*
X0041672Y0164258D01*
X0041702Y0164102D01*
X0041728Y0163946D01*
X0041749Y0163789D01*
X0041767Y0163632D01*
X0041781Y0163474D01*
X0041791Y0163316D01*
X0041797Y0163158D01*
X0041799Y0163000D01*
X0041797Y0162842D01*
X0041791Y0162684D01*
X0041781Y0162526D01*
X0041767Y0162368D01*
X0041749Y0162211D01*
X0041728Y0162054D01*
X0041702Y0161898D01*
X0041672Y0161742D01*
X0041639Y0161587D01*
X0041601Y0161434D01*
X0041560Y0161281D01*
X0041515Y0161129D01*
X0041466Y0160978D01*
X0041413Y0160829D01*
X0041357Y0160681D01*
X0041297Y0160535D01*
X0041233Y0160390D01*
X0041165Y0160247D01*
X0041094Y0160105D01*
X0041020Y0159965D01*
X0040942Y0159828D01*
X0040860Y0159692D01*
X0040776Y0159558D01*
X0040687Y0159427D01*
X0040596Y0159298D01*
X0040501Y0159171D01*
X0040404Y0159046D01*
X0040303Y0158924D01*
X0040199Y0158805D01*
X0040092Y0158688D01*
X0039982Y0158574D01*
X0039869Y0158463D01*
X0039754Y0158354D01*
X0039636Y0158249D01*
X0039515Y0158147D01*
X0039392Y0158047D01*
X0039266Y0157951D01*
X0039138Y0157858D01*
X0039008Y0157768D01*
X0038875Y0157682D01*
X0038740Y0157598D01*
X0038604Y0157519D01*
X0038465Y0157442D01*
X0038324Y0157370D01*
X0038182Y0157300D01*
X0038038Y0157235D01*
X0037892Y0157173D01*
X0037745Y0157115D01*
X0037596Y0157060D01*
X0037446Y0157009D01*
X0037295Y0156962D01*
X0037143Y0156919D01*
X0036990Y0156880D01*
X0036835Y0156844D01*
X0036680Y0156813D01*
X0036524Y0156785D01*
X0036368Y0156761D01*
X0036211Y0156741D01*
X0036053Y0156725D01*
X0035896Y0156713D01*
X0035737Y0156705D01*
X0035579Y0156701D01*
X0035421Y0156701D01*
X0035263Y0156705D01*
X0035104Y0156713D01*
X0034947Y0156725D01*
X0034789Y0156741D01*
X0034632Y0156761D01*
X0034476Y0156785D01*
X0034320Y0156813D01*
X0034165Y0156844D01*
X0034010Y0156880D01*
X0033857Y0156919D01*
X0033705Y0156962D01*
X0033554Y0157009D01*
X0033404Y0157060D01*
X0033255Y0157115D01*
X0033108Y0157173D01*
X0032962Y0157235D01*
X0032818Y0157300D01*
X0032676Y0157370D01*
X0032535Y0157442D01*
X0032396Y0157519D01*
X0032260Y0157598D01*
X0032125Y0157682D01*
X0031992Y0157768D01*
X0031862Y0157858D01*
X0031734Y0157951D01*
X0031608Y0158047D01*
X0031485Y0158147D01*
X0031364Y0158249D01*
X0031246Y0158354D01*
X0031131Y0158463D01*
X0031018Y0158574D01*
X0030908Y0158688D01*
X0030801Y0158805D01*
X0030697Y0158924D01*
X0030596Y0159046D01*
X0030499Y0159171D01*
X0030404Y0159298D01*
X0030313Y0159427D01*
X0030224Y0159558D01*
X0030140Y0159692D01*
X0030058Y0159828D01*
X0029980Y0159965D01*
X0029906Y0160105D01*
X0029835Y0160247D01*
X0029767Y0160390D01*
X0029703Y0160535D01*
X0029643Y0160681D01*
X0029587Y0160829D01*
X0029534Y0160978D01*
X0029485Y0161129D01*
X0029440Y0161281D01*
X0029399Y0161434D01*
X0029361Y0161587D01*
X0029328Y0161742D01*
X0029298Y0161898D01*
X0029272Y0162054D01*
X0029251Y0162211D01*
X0029233Y0162368D01*
X0029219Y0162526D01*
X0029209Y0162684D01*
X0029203Y0162842D01*
X0029201Y0163000D01*
X0162201Y0163000D02*
X0162203Y0163158D01*
X0162209Y0163316D01*
X0162219Y0163474D01*
X0162233Y0163632D01*
X0162251Y0163789D01*
X0162272Y0163946D01*
X0162298Y0164102D01*
X0162328Y0164258D01*
X0162361Y0164413D01*
X0162399Y0164566D01*
X0162440Y0164719D01*
X0162485Y0164871D01*
X0162534Y0165022D01*
X0162587Y0165171D01*
X0162643Y0165319D01*
X0162703Y0165465D01*
X0162767Y0165610D01*
X0162835Y0165753D01*
X0162906Y0165895D01*
X0162980Y0166035D01*
X0163058Y0166172D01*
X0163140Y0166308D01*
X0163224Y0166442D01*
X0163313Y0166573D01*
X0163404Y0166702D01*
X0163499Y0166829D01*
X0163596Y0166954D01*
X0163697Y0167076D01*
X0163801Y0167195D01*
X0163908Y0167312D01*
X0164018Y0167426D01*
X0164131Y0167537D01*
X0164246Y0167646D01*
X0164364Y0167751D01*
X0164485Y0167853D01*
X0164608Y0167953D01*
X0164734Y0168049D01*
X0164862Y0168142D01*
X0164992Y0168232D01*
X0165125Y0168318D01*
X0165260Y0168402D01*
X0165396Y0168481D01*
X0165535Y0168558D01*
X0165676Y0168630D01*
X0165818Y0168700D01*
X0165962Y0168765D01*
X0166108Y0168827D01*
X0166255Y0168885D01*
X0166404Y0168940D01*
X0166554Y0168991D01*
X0166705Y0169038D01*
X0166857Y0169081D01*
X0167010Y0169120D01*
X0167165Y0169156D01*
X0167320Y0169187D01*
X0167476Y0169215D01*
X0167632Y0169239D01*
X0167789Y0169259D01*
X0167947Y0169275D01*
X0168104Y0169287D01*
X0168263Y0169295D01*
X0168421Y0169299D01*
X0168579Y0169299D01*
X0168737Y0169295D01*
X0168896Y0169287D01*
X0169053Y0169275D01*
X0169211Y0169259D01*
X0169368Y0169239D01*
X0169524Y0169215D01*
X0169680Y0169187D01*
X0169835Y0169156D01*
X0169990Y0169120D01*
X0170143Y0169081D01*
X0170295Y0169038D01*
X0170446Y0168991D01*
X0170596Y0168940D01*
X0170745Y0168885D01*
X0170892Y0168827D01*
X0171038Y0168765D01*
X0171182Y0168700D01*
X0171324Y0168630D01*
X0171465Y0168558D01*
X0171604Y0168481D01*
X0171740Y0168402D01*
X0171875Y0168318D01*
X0172008Y0168232D01*
X0172138Y0168142D01*
X0172266Y0168049D01*
X0172392Y0167953D01*
X0172515Y0167853D01*
X0172636Y0167751D01*
X0172754Y0167646D01*
X0172869Y0167537D01*
X0172982Y0167426D01*
X0173092Y0167312D01*
X0173199Y0167195D01*
X0173303Y0167076D01*
X0173404Y0166954D01*
X0173501Y0166829D01*
X0173596Y0166702D01*
X0173687Y0166573D01*
X0173776Y0166442D01*
X0173860Y0166308D01*
X0173942Y0166172D01*
X0174020Y0166035D01*
X0174094Y0165895D01*
X0174165Y0165753D01*
X0174233Y0165610D01*
X0174297Y0165465D01*
X0174357Y0165319D01*
X0174413Y0165171D01*
X0174466Y0165022D01*
X0174515Y0164871D01*
X0174560Y0164719D01*
X0174601Y0164566D01*
X0174639Y0164413D01*
X0174672Y0164258D01*
X0174702Y0164102D01*
X0174728Y0163946D01*
X0174749Y0163789D01*
X0174767Y0163632D01*
X0174781Y0163474D01*
X0174791Y0163316D01*
X0174797Y0163158D01*
X0174799Y0163000D01*
X0174797Y0162842D01*
X0174791Y0162684D01*
X0174781Y0162526D01*
X0174767Y0162368D01*
X0174749Y0162211D01*
X0174728Y0162054D01*
X0174702Y0161898D01*
X0174672Y0161742D01*
X0174639Y0161587D01*
X0174601Y0161434D01*
X0174560Y0161281D01*
X0174515Y0161129D01*
X0174466Y0160978D01*
X0174413Y0160829D01*
X0174357Y0160681D01*
X0174297Y0160535D01*
X0174233Y0160390D01*
X0174165Y0160247D01*
X0174094Y0160105D01*
X0174020Y0159965D01*
X0173942Y0159828D01*
X0173860Y0159692D01*
X0173776Y0159558D01*
X0173687Y0159427D01*
X0173596Y0159298D01*
X0173501Y0159171D01*
X0173404Y0159046D01*
X0173303Y0158924D01*
X0173199Y0158805D01*
X0173092Y0158688D01*
X0172982Y0158574D01*
X0172869Y0158463D01*
X0172754Y0158354D01*
X0172636Y0158249D01*
X0172515Y0158147D01*
X0172392Y0158047D01*
X0172266Y0157951D01*
X0172138Y0157858D01*
X0172008Y0157768D01*
X0171875Y0157682D01*
X0171740Y0157598D01*
X0171604Y0157519D01*
X0171465Y0157442D01*
X0171324Y0157370D01*
X0171182Y0157300D01*
X0171038Y0157235D01*
X0170892Y0157173D01*
X0170745Y0157115D01*
X0170596Y0157060D01*
X0170446Y0157009D01*
X0170295Y0156962D01*
X0170143Y0156919D01*
X0169990Y0156880D01*
X0169835Y0156844D01*
X0169680Y0156813D01*
X0169524Y0156785D01*
X0169368Y0156761D01*
X0169211Y0156741D01*
X0169053Y0156725D01*
X0168896Y0156713D01*
X0168737Y0156705D01*
X0168579Y0156701D01*
X0168421Y0156701D01*
X0168263Y0156705D01*
X0168104Y0156713D01*
X0167947Y0156725D01*
X0167789Y0156741D01*
X0167632Y0156761D01*
X0167476Y0156785D01*
X0167320Y0156813D01*
X0167165Y0156844D01*
X0167010Y0156880D01*
X0166857Y0156919D01*
X0166705Y0156962D01*
X0166554Y0157009D01*
X0166404Y0157060D01*
X0166255Y0157115D01*
X0166108Y0157173D01*
X0165962Y0157235D01*
X0165818Y0157300D01*
X0165676Y0157370D01*
X0165535Y0157442D01*
X0165396Y0157519D01*
X0165260Y0157598D01*
X0165125Y0157682D01*
X0164992Y0157768D01*
X0164862Y0157858D01*
X0164734Y0157951D01*
X0164608Y0158047D01*
X0164485Y0158147D01*
X0164364Y0158249D01*
X0164246Y0158354D01*
X0164131Y0158463D01*
X0164018Y0158574D01*
X0163908Y0158688D01*
X0163801Y0158805D01*
X0163697Y0158924D01*
X0163596Y0159046D01*
X0163499Y0159171D01*
X0163404Y0159298D01*
X0163313Y0159427D01*
X0163224Y0159558D01*
X0163140Y0159692D01*
X0163058Y0159828D01*
X0162980Y0159965D01*
X0162906Y0160105D01*
X0162835Y0160247D01*
X0162767Y0160390D01*
X0162703Y0160535D01*
X0162643Y0160681D01*
X0162587Y0160829D01*
X0162534Y0160978D01*
X0162485Y0161129D01*
X0162440Y0161281D01*
X0162399Y0161434D01*
X0162361Y0161587D01*
X0162328Y0161742D01*
X0162298Y0161898D01*
X0162272Y0162054D01*
X0162251Y0162211D01*
X0162233Y0162368D01*
X0162219Y0162526D01*
X0162209Y0162684D01*
X0162203Y0162842D01*
X0162201Y0163000D01*
D11*
X0061497Y0066564D03*
X0061497Y0014764D03*
X0061497Y0014664D03*
D12*
X0061597Y0014864D03*
D13*
X0061547Y0014964D03*
X0061547Y0015064D03*
X0061547Y0066264D03*
X0061547Y0066364D03*
D14*
X0061597Y0066164D03*
X0061597Y0015164D03*
D15*
X0061597Y0015264D03*
X0061597Y0015364D03*
X0061597Y0065964D03*
X0061597Y0065964D03*
X0061597Y0066064D03*
D16*
X0078497Y0065864D03*
X0067628Y0039289D03*
X0072797Y0030464D03*
X0072797Y0030364D03*
X0072797Y0027564D03*
X0075497Y0027564D03*
X0064397Y0027564D03*
X0078597Y0015464D03*
X0047997Y0027564D03*
X0044597Y0015464D03*
D17*
X0044347Y0015564D03*
X0044347Y0015664D03*
X0051247Y0027564D03*
X0053947Y0030364D03*
X0053947Y0030464D03*
X0047947Y0030464D03*
X0047947Y0030364D03*
X0068647Y0033364D03*
X0068647Y0033464D03*
X0071947Y0025464D03*
X0044647Y0065864D03*
D18*
X0044447Y0065764D03*
X0044447Y0065764D03*
X0044447Y0065764D03*
X0044447Y0065664D03*
X0054647Y0051264D03*
X0068747Y0051264D03*
X0078747Y0065664D03*
X0078747Y0065764D03*
X0065447Y0034464D03*
X0070847Y0030464D03*
X0070847Y0030364D03*
X0067247Y0027564D03*
X0070047Y0025464D03*
X0064047Y0023564D03*
X0064047Y0023464D03*
X0064047Y0023364D03*
X0064047Y0023264D03*
X0064047Y0023164D03*
X0063147Y0024564D03*
X0062147Y0023564D03*
X0062147Y0023464D03*
X0062147Y0023364D03*
X0059147Y0022664D03*
X0059147Y0022564D03*
X0059147Y0025464D03*
X0057347Y0025464D03*
X0060647Y0027964D03*
X0060647Y0028064D03*
X0061347Y0027464D03*
X0061347Y0027364D03*
X0057347Y0030364D03*
X0057347Y0030464D03*
X0057947Y0034464D03*
X0051147Y0030464D03*
X0051147Y0030364D03*
X0051147Y0025464D03*
X0078747Y0015664D03*
X0078747Y0015564D03*
D19*
X0078997Y0015764D03*
X0079297Y0016064D03*
X0072097Y0022464D03*
X0074797Y0027964D03*
X0074797Y0028064D03*
X0063097Y0024864D03*
X0063097Y0024764D03*
X0063097Y0024664D03*
X0062197Y0023264D03*
X0062197Y0023164D03*
X0062197Y0023064D03*
X0062197Y0027964D03*
X0062197Y0028064D03*
X0054097Y0027464D03*
X0054097Y0027364D03*
X0053197Y0023064D03*
X0053797Y0022464D03*
X0044197Y0015764D03*
X0043897Y0016064D03*
X0043897Y0065264D03*
X0044197Y0065564D03*
X0078997Y0065564D03*
X0079297Y0065264D03*
D20*
X0079147Y0065364D03*
X0079147Y0065464D03*
X0044047Y0065464D03*
X0044047Y0065364D03*
X0047947Y0027464D03*
X0047947Y0027364D03*
X0053347Y0027964D03*
X0053347Y0028064D03*
X0044047Y0015964D03*
X0044047Y0015864D03*
X0067447Y0023064D03*
X0071347Y0023064D03*
X0079147Y0015964D03*
X0079147Y0015864D03*
D21*
X0079397Y0016164D03*
X0079397Y0016264D03*
X0079497Y0016364D03*
X0079697Y0016764D03*
X0079697Y0016864D03*
X0072797Y0024864D03*
X0072797Y0027364D03*
X0072797Y0027464D03*
X0074597Y0028164D03*
X0075497Y0027464D03*
X0075497Y0027364D03*
X0076097Y0027964D03*
X0076097Y0028064D03*
X0071997Y0029764D03*
X0071997Y0029864D03*
X0069797Y0029864D03*
X0069797Y0029764D03*
X0068297Y0028164D03*
X0067197Y0027464D03*
X0067197Y0027364D03*
X0066597Y0028164D03*
X0065097Y0029764D03*
X0065097Y0029864D03*
X0064397Y0027464D03*
X0064397Y0027364D03*
X0062297Y0028564D03*
X0062297Y0028664D03*
X0060597Y0029364D03*
X0057897Y0029764D03*
X0057897Y0029864D03*
X0056297Y0029864D03*
X0056297Y0029764D03*
X0054597Y0033264D03*
X0050297Y0029864D03*
X0050297Y0029764D03*
X0048797Y0029764D03*
X0048797Y0029864D03*
X0048797Y0028164D03*
X0047097Y0028164D03*
X0050297Y0024864D03*
X0051797Y0024864D03*
X0051897Y0024764D03*
X0051897Y0024664D03*
X0053997Y0025564D03*
X0053997Y0025664D03*
X0056397Y0024864D03*
X0058497Y0024864D03*
X0060197Y0024864D03*
X0060197Y0024764D03*
X0060197Y0024664D03*
X0060197Y0023264D03*
X0060197Y0023164D03*
X0059097Y0022464D03*
X0062097Y0022864D03*
X0062097Y0022964D03*
X0064097Y0022964D03*
X0064097Y0023064D03*
X0064097Y0022864D03*
X0064097Y0022764D03*
X0065897Y0023064D03*
X0066497Y0022464D03*
X0066597Y0025564D03*
X0066597Y0025664D03*
X0068997Y0024864D03*
X0063197Y0024964D03*
X0063197Y0025064D03*
X0054797Y0023064D03*
X0043797Y0016264D03*
X0043797Y0016164D03*
X0043697Y0016364D03*
X0043497Y0016764D03*
X0043497Y0016864D03*
X0068697Y0033264D03*
X0068697Y0051364D03*
X0068697Y0051464D03*
X0079697Y0064464D03*
X0079697Y0064564D03*
X0079497Y0064764D03*
X0079497Y0064864D03*
X0079497Y0064964D03*
X0079397Y0065064D03*
X0079397Y0065164D03*
X0054597Y0051464D03*
X0054597Y0051364D03*
X0043497Y0064464D03*
X0043497Y0064564D03*
X0043697Y0064764D03*
X0043697Y0064864D03*
X0043697Y0064964D03*
X0043797Y0065064D03*
X0043797Y0065164D03*
D22*
X0043597Y0064664D03*
X0057997Y0034364D03*
X0057997Y0034264D03*
X0057997Y0029664D03*
X0057997Y0029564D03*
X0057997Y0029464D03*
X0057997Y0029364D03*
X0057997Y0029264D03*
X0057997Y0029164D03*
X0057997Y0029064D03*
X0057997Y0028964D03*
X0057997Y0028864D03*
X0057997Y0028764D03*
X0057997Y0028664D03*
X0057997Y0028564D03*
X0057997Y0028464D03*
X0057997Y0028364D03*
X0057997Y0028264D03*
X0057997Y0028164D03*
X0057997Y0028064D03*
X0057997Y0027964D03*
X0057997Y0027864D03*
X0057997Y0027764D03*
X0057997Y0027664D03*
X0057997Y0027564D03*
X0057997Y0027464D03*
X0057997Y0027364D03*
X0056197Y0029464D03*
X0056197Y0029564D03*
X0056197Y0029664D03*
X0054997Y0029564D03*
X0054997Y0029464D03*
X0054997Y0029364D03*
X0054697Y0028064D03*
X0054697Y0027964D03*
X0053197Y0028164D03*
X0051997Y0028464D03*
X0051997Y0028564D03*
X0051997Y0028664D03*
X0051997Y0028764D03*
X0051997Y0028864D03*
X0051997Y0028964D03*
X0051997Y0029064D03*
X0051997Y0029164D03*
X0051997Y0029264D03*
X0051997Y0029364D03*
X0051997Y0029464D03*
X0051997Y0029564D03*
X0053197Y0029764D03*
X0053197Y0029864D03*
X0050197Y0029664D03*
X0050197Y0029564D03*
X0050197Y0029464D03*
X0050197Y0028364D03*
X0050197Y0028264D03*
X0050197Y0028164D03*
X0050197Y0024764D03*
X0050197Y0024664D03*
X0051997Y0024564D03*
X0051997Y0024464D03*
X0051997Y0024364D03*
X0051997Y0024264D03*
X0051997Y0024164D03*
X0051997Y0024064D03*
X0051997Y0023964D03*
X0051997Y0023864D03*
X0051997Y0023764D03*
X0051997Y0023664D03*
X0051997Y0023564D03*
X0051997Y0023464D03*
X0051997Y0023364D03*
X0051997Y0023264D03*
X0051997Y0023164D03*
X0051997Y0023064D03*
X0051997Y0022964D03*
X0051997Y0022864D03*
X0051997Y0022764D03*
X0051997Y0022664D03*
X0051997Y0022564D03*
X0047197Y0029764D03*
X0047197Y0029864D03*
X0043597Y0016664D03*
X0043597Y0016564D03*
X0043597Y0016464D03*
X0061597Y0024264D03*
X0061597Y0024364D03*
X0061597Y0024464D03*
X0061297Y0025164D03*
X0061297Y0025264D03*
X0061297Y0025364D03*
X0061297Y0025464D03*
X0063097Y0025364D03*
X0063097Y0025264D03*
X0063097Y0025164D03*
X0064597Y0024264D03*
X0064897Y0025164D03*
X0064897Y0025264D03*
X0064897Y0025364D03*
X0064897Y0025464D03*
X0065797Y0023664D03*
X0067597Y0023664D03*
X0067597Y0023564D03*
X0067597Y0023464D03*
X0067597Y0023364D03*
X0067597Y0023264D03*
X0067597Y0023164D03*
X0067597Y0022464D03*
X0067597Y0024364D03*
X0067597Y0024464D03*
X0067597Y0024564D03*
X0067597Y0024664D03*
X0067597Y0024764D03*
X0065197Y0028164D03*
X0065197Y0028264D03*
X0065197Y0028364D03*
X0065197Y0029664D03*
X0064297Y0030564D03*
X0063397Y0029664D03*
X0063397Y0029564D03*
X0063397Y0029464D03*
X0063397Y0029364D03*
X0063397Y0029264D03*
X0063397Y0029164D03*
X0063397Y0029064D03*
X0063397Y0028964D03*
X0063397Y0028864D03*
X0063397Y0028764D03*
X0063397Y0028664D03*
X0063397Y0028564D03*
X0063397Y0028464D03*
X0063397Y0028364D03*
X0063397Y0028264D03*
X0062197Y0022764D03*
X0062197Y0022664D03*
X0062197Y0022564D03*
X0063997Y0022564D03*
X0063997Y0022664D03*
X0071197Y0023164D03*
X0071197Y0023264D03*
X0072697Y0023064D03*
X0072997Y0024364D03*
X0072997Y0024464D03*
X0071197Y0024864D03*
X0069697Y0027364D03*
X0069697Y0027464D03*
X0069697Y0027564D03*
X0069697Y0027664D03*
X0069697Y0027764D03*
X0069697Y0027864D03*
X0069697Y0027964D03*
X0069697Y0028064D03*
X0069697Y0028164D03*
X0069697Y0028264D03*
X0069697Y0028364D03*
X0069697Y0028464D03*
X0069697Y0028564D03*
X0069697Y0028664D03*
X0069697Y0028764D03*
X0069697Y0028864D03*
X0069697Y0028964D03*
X0069697Y0029064D03*
X0069697Y0029164D03*
X0069697Y0029264D03*
X0069697Y0029364D03*
X0069697Y0029464D03*
X0069697Y0029564D03*
X0069697Y0029664D03*
X0069697Y0030364D03*
X0069697Y0030464D03*
X0071797Y0029664D03*
X0071797Y0029564D03*
X0071797Y0029464D03*
X0071797Y0029364D03*
X0071797Y0028464D03*
X0071797Y0028364D03*
X0071797Y0028264D03*
X0074497Y0028264D03*
X0074497Y0028364D03*
X0074497Y0029664D03*
X0075397Y0030564D03*
X0076297Y0029664D03*
X0076297Y0029564D03*
X0076297Y0029464D03*
X0079597Y0016664D03*
X0079597Y0016564D03*
X0079597Y0016464D03*
X0079597Y0064664D03*
D23*
X0079747Y0064364D03*
X0079747Y0064264D03*
X0079747Y0064164D03*
X0079747Y0064064D03*
X0079747Y0063964D03*
X0079747Y0063864D03*
X0079747Y0063764D03*
X0079747Y0063664D03*
X0079747Y0063564D03*
X0079747Y0063464D03*
X0079747Y0063364D03*
X0079747Y0063264D03*
X0079747Y0063164D03*
X0079747Y0063064D03*
X0079747Y0062964D03*
X0079747Y0062864D03*
X0079747Y0062764D03*
X0079747Y0062664D03*
X0079747Y0062564D03*
X0079747Y0062464D03*
X0079747Y0062364D03*
X0079747Y0062264D03*
X0079747Y0062164D03*
X0079747Y0062064D03*
X0079747Y0061964D03*
X0079747Y0061864D03*
X0079747Y0061764D03*
X0079747Y0061664D03*
X0079747Y0061564D03*
X0079747Y0061464D03*
X0079747Y0061364D03*
X0079747Y0061264D03*
X0079747Y0061164D03*
X0079747Y0061164D03*
X0079747Y0061064D03*
X0079747Y0060964D03*
X0079747Y0060864D03*
X0079747Y0060764D03*
X0079747Y0060664D03*
X0079747Y0060564D03*
X0079747Y0060464D03*
X0079747Y0060464D03*
X0079747Y0060364D03*
X0079747Y0060264D03*
X0079747Y0060264D03*
X0079747Y0060164D03*
X0079747Y0060164D03*
X0079747Y0060064D03*
X0079747Y0060064D03*
X0079747Y0059964D03*
X0079747Y0059864D03*
X0079747Y0059764D03*
X0079747Y0059664D03*
X0079747Y0059664D03*
X0079747Y0059564D03*
X0079747Y0059564D03*
X0079747Y0059464D03*
X0079747Y0059364D03*
X0079747Y0059264D03*
X0079747Y0059164D03*
X0079747Y0059064D03*
X0079747Y0058964D03*
X0079747Y0058864D03*
X0079747Y0058764D03*
X0079747Y0058664D03*
X0079747Y0058564D03*
X0079747Y0058464D03*
X0079747Y0058364D03*
X0079747Y0058264D03*
X0079747Y0058164D03*
X0079747Y0058064D03*
X0079747Y0057964D03*
X0079747Y0057864D03*
X0079747Y0057764D03*
X0079747Y0057664D03*
X0079747Y0057564D03*
X0079747Y0057464D03*
X0079747Y0057364D03*
X0079747Y0057264D03*
X0079747Y0057164D03*
X0079747Y0057064D03*
X0079747Y0056964D03*
X0079747Y0056864D03*
X0079747Y0056764D03*
X0079747Y0056664D03*
X0079747Y0056564D03*
X0079747Y0056464D03*
X0079747Y0056364D03*
X0079747Y0056264D03*
X0079747Y0056164D03*
X0079747Y0056064D03*
X0079747Y0055964D03*
X0079747Y0055864D03*
X0079747Y0055764D03*
X0079747Y0055664D03*
X0079747Y0055564D03*
X0079747Y0055464D03*
X0079747Y0055364D03*
X0079747Y0055264D03*
X0079747Y0055164D03*
X0079747Y0055064D03*
X0079747Y0054964D03*
X0079747Y0054864D03*
X0079747Y0054764D03*
X0079747Y0054664D03*
X0079747Y0054564D03*
X0079747Y0054464D03*
X0079747Y0054464D03*
X0079747Y0054364D03*
X0079747Y0054264D03*
X0079747Y0054164D03*
X0079747Y0054064D03*
X0079747Y0053964D03*
X0079747Y0053864D03*
X0079747Y0053764D03*
X0079747Y0053664D03*
X0079747Y0053564D03*
X0079747Y0053464D03*
X0079747Y0053364D03*
X0079747Y0053264D03*
X0079747Y0053164D03*
X0079747Y0053064D03*
X0079747Y0052964D03*
X0079747Y0052864D03*
X0079747Y0052764D03*
X0079747Y0052664D03*
X0079747Y0052564D03*
X0079747Y0052464D03*
X0079747Y0052364D03*
X0079747Y0052264D03*
X0079747Y0052164D03*
X0079747Y0052064D03*
X0079747Y0051964D03*
X0079747Y0051864D03*
X0079747Y0051764D03*
X0079747Y0051664D03*
X0079747Y0051564D03*
X0079747Y0051464D03*
X0079747Y0051364D03*
X0079747Y0051264D03*
X0079747Y0051164D03*
X0079747Y0051064D03*
X0079747Y0050964D03*
X0079747Y0050864D03*
X0079747Y0050764D03*
X0079747Y0050664D03*
X0079747Y0050564D03*
X0079747Y0050464D03*
X0079747Y0050364D03*
X0079747Y0050264D03*
X0079747Y0050164D03*
X0079747Y0050064D03*
X0079747Y0049964D03*
X0079747Y0049864D03*
X0079747Y0049764D03*
X0079747Y0049664D03*
X0079747Y0049564D03*
X0079747Y0049464D03*
X0079747Y0049364D03*
X0079747Y0049264D03*
X0079747Y0049164D03*
X0079747Y0049064D03*
X0079747Y0048964D03*
X0079747Y0048864D03*
X0079747Y0048764D03*
X0079747Y0048664D03*
X0079747Y0048564D03*
X0079747Y0048464D03*
X0079747Y0048364D03*
X0079747Y0048264D03*
X0079747Y0048164D03*
X0079747Y0048064D03*
X0079747Y0047964D03*
X0079747Y0047864D03*
X0079747Y0047764D03*
X0079747Y0047664D03*
X0079747Y0047564D03*
X0079747Y0047464D03*
X0079747Y0047364D03*
X0079747Y0047264D03*
X0079747Y0047164D03*
X0079747Y0047064D03*
X0079747Y0046964D03*
X0079747Y0046864D03*
X0079747Y0046764D03*
X0079747Y0046664D03*
X0079747Y0046564D03*
X0079747Y0046464D03*
X0079747Y0046364D03*
X0079747Y0046264D03*
X0079747Y0046164D03*
X0079747Y0046064D03*
X0079747Y0045964D03*
X0079747Y0045864D03*
X0079747Y0045764D03*
X0079747Y0045664D03*
X0079747Y0045564D03*
X0079747Y0045464D03*
X0079747Y0045364D03*
X0079747Y0045264D03*
X0079747Y0045164D03*
X0079747Y0045064D03*
X0079747Y0044964D03*
X0079747Y0044864D03*
X0079747Y0044764D03*
X0079747Y0044664D03*
X0079747Y0044564D03*
X0079747Y0044464D03*
X0079747Y0044364D03*
X0079747Y0044264D03*
X0079747Y0044164D03*
X0079747Y0044064D03*
X0079747Y0043964D03*
X0079747Y0043864D03*
X0079747Y0043764D03*
X0079747Y0043664D03*
X0079747Y0043564D03*
X0079747Y0043464D03*
X0079747Y0043364D03*
X0079747Y0043264D03*
X0079747Y0043164D03*
X0079747Y0043064D03*
X0079747Y0042964D03*
X0079747Y0042864D03*
X0079747Y0042764D03*
X0079747Y0042664D03*
X0079747Y0042564D03*
X0079747Y0042464D03*
X0079747Y0042364D03*
X0079747Y0042264D03*
X0079747Y0042164D03*
X0079747Y0042064D03*
X0079747Y0041964D03*
X0079747Y0041864D03*
X0079747Y0041764D03*
X0079747Y0041664D03*
X0079747Y0041564D03*
X0079747Y0041464D03*
X0079747Y0041364D03*
X0079747Y0041264D03*
X0079747Y0041164D03*
X0079747Y0041064D03*
X0079747Y0040964D03*
X0079747Y0040864D03*
X0079747Y0040764D03*
X0079747Y0040664D03*
X0079747Y0040564D03*
X0079747Y0040464D03*
X0079747Y0040364D03*
X0079747Y0040264D03*
X0079747Y0040164D03*
X0079747Y0040064D03*
X0079747Y0039964D03*
X0079747Y0039864D03*
X0079747Y0039764D03*
X0079747Y0039664D03*
X0079747Y0039564D03*
X0079747Y0039464D03*
X0079747Y0039364D03*
X0079747Y0039264D03*
X0079747Y0039164D03*
X0079747Y0039064D03*
X0079747Y0038964D03*
X0079747Y0038864D03*
X0079747Y0038764D03*
X0079747Y0038664D03*
X0079747Y0038564D03*
X0079747Y0038464D03*
X0079747Y0038364D03*
X0079747Y0038264D03*
X0079747Y0038164D03*
X0079747Y0038064D03*
X0079747Y0037964D03*
X0079747Y0037864D03*
X0079747Y0037764D03*
X0079747Y0037664D03*
X0079747Y0037564D03*
X0079747Y0037464D03*
X0079747Y0037364D03*
X0079747Y0037264D03*
X0079747Y0037164D03*
X0079747Y0037064D03*
X0079747Y0036964D03*
X0079747Y0036864D03*
X0079747Y0036764D03*
X0079747Y0036664D03*
X0079747Y0036564D03*
X0079747Y0036464D03*
X0079747Y0036364D03*
X0079747Y0036264D03*
X0079747Y0036164D03*
X0079747Y0036064D03*
X0079747Y0035964D03*
X0079747Y0035864D03*
X0079747Y0035764D03*
X0079747Y0035664D03*
X0079747Y0035564D03*
X0079747Y0035464D03*
X0079747Y0035364D03*
X0079747Y0035264D03*
X0079747Y0035164D03*
X0079747Y0035064D03*
X0079747Y0034964D03*
X0079747Y0034864D03*
X0079747Y0034764D03*
X0079747Y0034664D03*
X0079747Y0034564D03*
X0079747Y0034464D03*
X0079747Y0034364D03*
X0079747Y0034264D03*
X0079747Y0034164D03*
X0079747Y0034064D03*
X0079747Y0033964D03*
X0079747Y0033864D03*
X0079747Y0033764D03*
X0079747Y0033664D03*
X0079747Y0033564D03*
X0079747Y0033464D03*
X0079747Y0033364D03*
X0079747Y0033264D03*
X0079747Y0033164D03*
X0079747Y0033064D03*
X0079747Y0032964D03*
X0079747Y0032864D03*
X0079747Y0032764D03*
X0079747Y0032664D03*
X0079747Y0032564D03*
X0079747Y0032464D03*
X0079747Y0032364D03*
X0079747Y0032264D03*
X0079747Y0032164D03*
X0079747Y0032064D03*
X0079747Y0031964D03*
X0079747Y0031864D03*
X0079747Y0031764D03*
X0079747Y0031664D03*
X0079747Y0031564D03*
X0079747Y0031464D03*
X0079747Y0031364D03*
X0079747Y0031264D03*
X0079747Y0031164D03*
X0079747Y0031064D03*
X0079747Y0030964D03*
X0079747Y0030864D03*
X0079747Y0030764D03*
X0079747Y0030664D03*
X0079747Y0030564D03*
X0079747Y0030464D03*
X0079747Y0030364D03*
X0079747Y0030264D03*
X0079747Y0030164D03*
X0079747Y0030064D03*
X0079747Y0029964D03*
X0079747Y0029864D03*
X0079747Y0029764D03*
X0079747Y0029664D03*
X0079747Y0029564D03*
X0079747Y0029464D03*
X0079747Y0029364D03*
X0079747Y0029264D03*
X0079747Y0029164D03*
X0079747Y0029064D03*
X0079747Y0028964D03*
X0079747Y0028864D03*
X0079747Y0028764D03*
X0079747Y0028664D03*
X0079747Y0028564D03*
X0079747Y0028464D03*
X0079747Y0028364D03*
X0079747Y0028264D03*
X0079747Y0028164D03*
X0079747Y0028064D03*
X0079747Y0027964D03*
X0079747Y0027864D03*
X0079747Y0027764D03*
X0079747Y0027664D03*
X0079747Y0027564D03*
X0079747Y0027464D03*
X0079747Y0027364D03*
X0079747Y0027264D03*
X0079747Y0027164D03*
X0079747Y0027064D03*
X0079747Y0026964D03*
X0079747Y0026864D03*
X0079747Y0026764D03*
X0079747Y0026664D03*
X0079747Y0026564D03*
X0079747Y0026464D03*
X0079747Y0026364D03*
X0079747Y0026264D03*
X0079747Y0026164D03*
X0079747Y0026064D03*
X0079747Y0025964D03*
X0079747Y0025864D03*
X0079747Y0025764D03*
X0079747Y0025664D03*
X0079747Y0025564D03*
X0079747Y0025464D03*
X0079747Y0025364D03*
X0079747Y0025264D03*
X0079747Y0025164D03*
X0079747Y0025064D03*
X0079747Y0024964D03*
X0079747Y0024864D03*
X0079747Y0024764D03*
X0079747Y0024664D03*
X0079747Y0024564D03*
X0079747Y0024464D03*
X0079747Y0024364D03*
X0079747Y0024264D03*
X0079747Y0024164D03*
X0079747Y0024064D03*
X0079747Y0023964D03*
X0079747Y0023864D03*
X0079747Y0023764D03*
X0079747Y0023664D03*
X0079747Y0023564D03*
X0079747Y0023464D03*
X0079747Y0023364D03*
X0079747Y0023264D03*
X0079747Y0023164D03*
X0079747Y0023164D03*
X0079747Y0023064D03*
X0079747Y0022964D03*
X0079747Y0022864D03*
X0079747Y0022764D03*
X0079747Y0022664D03*
X0079747Y0022564D03*
X0079747Y0022464D03*
X0079747Y0022364D03*
X0079747Y0022264D03*
X0079747Y0022164D03*
X0079747Y0022064D03*
X0079747Y0021964D03*
X0079747Y0021964D03*
X0079747Y0021864D03*
X0079747Y0021764D03*
X0079747Y0021664D03*
X0079747Y0021564D03*
X0079747Y0021464D03*
X0079747Y0021364D03*
X0079747Y0020564D03*
X0079747Y0020464D03*
X0079747Y0020364D03*
X0079747Y0020364D03*
X0079747Y0020264D03*
X0079747Y0020164D03*
X0079747Y0020064D03*
X0079747Y0019964D03*
X0079747Y0019864D03*
X0079747Y0019764D03*
X0079747Y0019664D03*
X0079747Y0019564D03*
X0079747Y0019464D03*
X0079747Y0019364D03*
X0079747Y0019264D03*
X0079747Y0019164D03*
X0079747Y0019064D03*
X0079747Y0018964D03*
X0079747Y0018864D03*
X0079747Y0018764D03*
X0079747Y0018664D03*
X0079747Y0018564D03*
X0079747Y0018464D03*
X0079747Y0018364D03*
X0079747Y0018264D03*
X0079747Y0018164D03*
X0079747Y0018064D03*
X0079747Y0017964D03*
X0079747Y0017864D03*
X0079747Y0017764D03*
X0079747Y0017664D03*
X0079747Y0017564D03*
X0079747Y0017464D03*
X0079747Y0017364D03*
X0079747Y0017264D03*
X0079747Y0017164D03*
X0079747Y0017064D03*
X0079747Y0016964D03*
X0072847Y0024664D03*
X0072847Y0024764D03*
X0071047Y0024564D03*
X0071047Y0024464D03*
X0071047Y0024364D03*
X0071047Y0023664D03*
X0071047Y0023564D03*
X0071047Y0023464D03*
X0071047Y0023364D03*
X0068947Y0024564D03*
X0068947Y0024664D03*
X0068947Y0024764D03*
X0068347Y0027364D03*
X0068347Y0027464D03*
X0068347Y0027564D03*
X0068347Y0028264D03*
X0068347Y0028364D03*
X0068347Y0028464D03*
X0068347Y0028564D03*
X0068347Y0028664D03*
X0068347Y0028764D03*
X0068347Y0028864D03*
X0068347Y0028964D03*
X0068347Y0029064D03*
X0068347Y0029164D03*
X0068347Y0029264D03*
X0068347Y0029364D03*
X0068347Y0029464D03*
X0068347Y0029564D03*
X0068347Y0029664D03*
X0068347Y0029764D03*
X0068347Y0029864D03*
X0068347Y0029964D03*
X0068347Y0030064D03*
X0068347Y0030164D03*
X0068347Y0030264D03*
X0068347Y0030364D03*
X0068347Y0030464D03*
X0066547Y0028464D03*
X0066547Y0028364D03*
X0066547Y0028264D03*
X0065347Y0028564D03*
X0065347Y0028664D03*
X0065347Y0028764D03*
X0065347Y0028864D03*
X0065347Y0028964D03*
X0065347Y0029064D03*
X0065347Y0029164D03*
X0065347Y0029264D03*
X0065347Y0029364D03*
X0063547Y0029764D03*
X0063547Y0029864D03*
X0063547Y0028164D03*
X0062347Y0028164D03*
X0062347Y0028264D03*
X0062347Y0028364D03*
X0062347Y0028464D03*
X0060547Y0029464D03*
X0060547Y0029564D03*
X0060547Y0029664D03*
X0060547Y0029764D03*
X0060547Y0029864D03*
X0061447Y0030564D03*
X0060247Y0026864D03*
X0060247Y0026764D03*
X0060247Y0026664D03*
X0060247Y0026564D03*
X0060247Y0026464D03*
X0060247Y0026364D03*
X0060247Y0026264D03*
X0060247Y0026164D03*
X0060247Y0026064D03*
X0060247Y0025964D03*
X0060247Y0025864D03*
X0060247Y0025764D03*
X0060247Y0025664D03*
X0060247Y0025564D03*
X0060247Y0025464D03*
X0060247Y0024564D03*
X0060247Y0024464D03*
X0060247Y0024364D03*
X0060247Y0024264D03*
X0060247Y0024164D03*
X0060247Y0024064D03*
X0060247Y0023964D03*
X0060247Y0023864D03*
X0060247Y0023764D03*
X0060247Y0023664D03*
X0060247Y0023564D03*
X0060247Y0023464D03*
X0060247Y0023364D03*
X0060247Y0022664D03*
X0060247Y0022564D03*
X0060247Y0022464D03*
X0058447Y0023164D03*
X0058447Y0023264D03*
X0058447Y0023364D03*
X0058447Y0023464D03*
X0058447Y0023564D03*
X0058447Y0024564D03*
X0058447Y0024664D03*
X0058447Y0024764D03*
X0056347Y0024764D03*
X0056347Y0024664D03*
X0054847Y0024864D03*
X0054847Y0023264D03*
X0054847Y0023164D03*
X0053047Y0023164D03*
X0053047Y0023264D03*
X0053047Y0023364D03*
X0053047Y0023464D03*
X0053047Y0023564D03*
X0053047Y0023664D03*
X0051247Y0027364D03*
X0051247Y0027464D03*
X0051847Y0028164D03*
X0051847Y0028264D03*
X0051847Y0028364D03*
X0053047Y0028464D03*
X0053047Y0028564D03*
X0053047Y0028664D03*
X0053047Y0029364D03*
X0053047Y0029464D03*
X0053047Y0029564D03*
X0051847Y0029664D03*
X0051847Y0029764D03*
X0051847Y0029864D03*
X0054847Y0029864D03*
X0054847Y0029764D03*
X0054847Y0029664D03*
X0048847Y0029664D03*
X0048847Y0029564D03*
X0048847Y0029464D03*
X0048847Y0028364D03*
X0048847Y0028264D03*
X0047047Y0028264D03*
X0047047Y0028364D03*
X0047047Y0028464D03*
X0047047Y0028564D03*
X0047047Y0028664D03*
X0047047Y0029364D03*
X0047047Y0029464D03*
X0047047Y0029564D03*
X0047047Y0029664D03*
X0047947Y0030564D03*
X0043447Y0030564D03*
X0043447Y0030664D03*
X0043447Y0030764D03*
X0043447Y0030864D03*
X0043447Y0030964D03*
X0043447Y0031064D03*
X0043447Y0031164D03*
X0043447Y0031264D03*
X0043447Y0031364D03*
X0043447Y0031464D03*
X0043447Y0031564D03*
X0043447Y0031664D03*
X0043447Y0031764D03*
X0043447Y0031864D03*
X0043447Y0031964D03*
X0043447Y0032064D03*
X0043447Y0032164D03*
X0043447Y0032264D03*
X0043447Y0032364D03*
X0043447Y0032464D03*
X0043447Y0032564D03*
X0043447Y0032664D03*
X0043447Y0032764D03*
X0043447Y0032864D03*
X0043447Y0032964D03*
X0043447Y0033064D03*
X0043447Y0033164D03*
X0043447Y0033264D03*
X0043447Y0033364D03*
X0043447Y0033464D03*
X0043447Y0033564D03*
X0043447Y0033664D03*
X0043447Y0033764D03*
X0043447Y0033864D03*
X0043447Y0033964D03*
X0043447Y0034064D03*
X0043447Y0034164D03*
X0043447Y0034264D03*
X0043447Y0034364D03*
X0043447Y0034464D03*
X0043447Y0034564D03*
X0043447Y0034664D03*
X0043447Y0034764D03*
X0043447Y0034864D03*
X0043447Y0034964D03*
X0043447Y0035064D03*
X0043447Y0035164D03*
X0043447Y0035264D03*
X0043447Y0035364D03*
X0043447Y0035464D03*
X0043447Y0035564D03*
X0043447Y0035664D03*
X0043447Y0035764D03*
X0043447Y0035864D03*
X0043447Y0035964D03*
X0043447Y0036064D03*
X0043447Y0036164D03*
X0043447Y0036264D03*
X0043447Y0036364D03*
X0043447Y0036464D03*
X0043447Y0036564D03*
X0043447Y0036664D03*
X0043447Y0036764D03*
X0043447Y0036864D03*
X0043447Y0036964D03*
X0043447Y0037064D03*
X0043447Y0037164D03*
X0043447Y0037264D03*
X0043447Y0037364D03*
X0043447Y0037464D03*
X0043447Y0037564D03*
X0043447Y0037664D03*
X0043447Y0037764D03*
X0043447Y0037864D03*
X0043447Y0037964D03*
X0043447Y0038064D03*
X0043447Y0038164D03*
X0043447Y0038264D03*
X0043447Y0038364D03*
X0043447Y0038464D03*
X0043447Y0038564D03*
X0043447Y0038664D03*
X0043447Y0038764D03*
X0043447Y0038864D03*
X0043447Y0038964D03*
X0043447Y0039064D03*
X0043447Y0039164D03*
X0043447Y0039264D03*
X0043447Y0039364D03*
X0043447Y0039464D03*
X0043447Y0039564D03*
X0043447Y0039664D03*
X0043447Y0039764D03*
X0043447Y0039864D03*
X0043447Y0039964D03*
X0043447Y0040064D03*
X0043447Y0040164D03*
X0043447Y0040264D03*
X0043447Y0040364D03*
X0043447Y0040464D03*
X0043447Y0040564D03*
X0043447Y0040664D03*
X0043447Y0040764D03*
X0043447Y0040864D03*
X0043447Y0040964D03*
X0043447Y0041064D03*
X0043447Y0041164D03*
X0043447Y0041264D03*
X0043447Y0041364D03*
X0043447Y0041464D03*
X0043447Y0041564D03*
X0043447Y0041664D03*
X0043447Y0041764D03*
X0043447Y0041864D03*
X0043447Y0041964D03*
X0043447Y0042064D03*
X0043447Y0042164D03*
X0043447Y0042264D03*
X0043447Y0042364D03*
X0043447Y0042464D03*
X0043447Y0042564D03*
X0043447Y0042664D03*
X0043447Y0042764D03*
X0043447Y0042864D03*
X0043447Y0042964D03*
X0043447Y0043064D03*
X0043447Y0043164D03*
X0043447Y0043264D03*
X0043447Y0043364D03*
X0043447Y0043464D03*
X0043447Y0043564D03*
X0043447Y0043664D03*
X0043447Y0043764D03*
X0043447Y0043864D03*
X0043447Y0043964D03*
X0043447Y0044064D03*
X0043447Y0044164D03*
X0043447Y0044264D03*
X0043447Y0044364D03*
X0043447Y0044464D03*
X0043447Y0044564D03*
X0043447Y0044664D03*
X0043447Y0044764D03*
X0043447Y0044864D03*
X0043447Y0044964D03*
X0043447Y0045064D03*
X0043447Y0045164D03*
X0043447Y0045264D03*
X0043447Y0045364D03*
X0043447Y0045464D03*
X0043447Y0045564D03*
X0043447Y0045664D03*
X0043447Y0045764D03*
X0043447Y0045864D03*
X0043447Y0045964D03*
X0043447Y0046064D03*
X0043447Y0046164D03*
X0043447Y0046264D03*
X0043447Y0046364D03*
X0043447Y0046464D03*
X0043447Y0046564D03*
X0043447Y0046664D03*
X0043447Y0046764D03*
X0043447Y0046864D03*
X0043447Y0046964D03*
X0043447Y0047064D03*
X0043447Y0047164D03*
X0043447Y0047264D03*
X0043447Y0047364D03*
X0043447Y0047464D03*
X0043447Y0047564D03*
X0043447Y0047664D03*
X0043447Y0047764D03*
X0043447Y0047864D03*
X0043447Y0047964D03*
X0043447Y0048064D03*
X0043447Y0048164D03*
X0043447Y0048264D03*
X0043447Y0048364D03*
X0043447Y0048464D03*
X0043447Y0048564D03*
X0043447Y0048664D03*
X0043447Y0048764D03*
X0043447Y0048864D03*
X0043447Y0048964D03*
X0043447Y0049064D03*
X0043447Y0049164D03*
X0043447Y0049264D03*
X0043447Y0049364D03*
X0043447Y0049464D03*
X0043447Y0049564D03*
X0043447Y0049664D03*
X0043447Y0049764D03*
X0043447Y0049864D03*
X0043447Y0049964D03*
X0043447Y0050064D03*
X0043447Y0050164D03*
X0043447Y0050264D03*
X0043447Y0050364D03*
X0043447Y0050464D03*
X0043447Y0050564D03*
X0043447Y0050664D03*
X0043447Y0050764D03*
X0043447Y0050864D03*
X0043447Y0050964D03*
X0043447Y0051064D03*
X0043447Y0051164D03*
X0043447Y0051264D03*
X0043447Y0051364D03*
X0043447Y0051464D03*
X0043447Y0051564D03*
X0043447Y0051664D03*
X0043447Y0051764D03*
X0043447Y0051864D03*
X0043447Y0051964D03*
X0043447Y0052064D03*
X0043447Y0052164D03*
X0043447Y0052264D03*
X0043447Y0052364D03*
X0043447Y0052464D03*
X0043447Y0052564D03*
X0043447Y0052664D03*
X0043447Y0052764D03*
X0043447Y0052864D03*
X0043447Y0052964D03*
X0043447Y0053064D03*
X0043447Y0053164D03*
X0043447Y0053264D03*
X0043447Y0053364D03*
X0043447Y0053464D03*
X0043447Y0053564D03*
X0043447Y0053664D03*
X0043447Y0053764D03*
X0043447Y0053864D03*
X0043447Y0053964D03*
X0043447Y0054064D03*
X0043447Y0054164D03*
X0043447Y0054264D03*
X0043447Y0054364D03*
X0043447Y0054464D03*
X0043447Y0054564D03*
X0043447Y0054664D03*
X0043447Y0054764D03*
X0043447Y0054864D03*
X0043447Y0054964D03*
X0043447Y0055064D03*
X0043447Y0055164D03*
X0043447Y0055264D03*
X0043447Y0055364D03*
X0043447Y0055464D03*
X0043447Y0055564D03*
X0043447Y0055664D03*
X0043447Y0055764D03*
X0043447Y0055864D03*
X0043447Y0055964D03*
X0043447Y0056064D03*
X0043447Y0056164D03*
X0043447Y0056264D03*
X0043447Y0056364D03*
X0043447Y0056464D03*
X0043447Y0056564D03*
X0043447Y0056664D03*
X0043447Y0056764D03*
X0043447Y0056864D03*
X0043447Y0056964D03*
X0043447Y0057064D03*
X0043447Y0057164D03*
X0043447Y0057264D03*
X0043447Y0057364D03*
X0043447Y0057464D03*
X0043447Y0057564D03*
X0043447Y0057664D03*
X0043447Y0057764D03*
X0043447Y0057864D03*
X0043447Y0057964D03*
X0043447Y0058064D03*
X0043447Y0058164D03*
X0043447Y0058264D03*
X0043447Y0058364D03*
X0043447Y0058464D03*
X0043447Y0058564D03*
X0043447Y0058664D03*
X0043447Y0058764D03*
X0043447Y0058864D03*
X0043447Y0058964D03*
X0043447Y0059064D03*
X0043447Y0059164D03*
X0043447Y0059264D03*
X0043447Y0059364D03*
X0043447Y0059464D03*
X0043447Y0059564D03*
X0043447Y0059664D03*
X0043447Y0059764D03*
X0043447Y0059864D03*
X0043447Y0059964D03*
X0043447Y0060064D03*
X0043447Y0060164D03*
X0043447Y0060164D03*
X0043447Y0060164D03*
X0043447Y0060264D03*
X0043447Y0060264D03*
X0043447Y0060364D03*
X0043447Y0060464D03*
X0043447Y0060464D03*
X0043447Y0060564D03*
X0043447Y0060664D03*
X0043447Y0060664D03*
X0043447Y0060764D03*
X0043447Y0060864D03*
X0043447Y0060864D03*
X0043447Y0060864D03*
X0043447Y0060964D03*
X0043447Y0061064D03*
X0043447Y0061064D03*
X0043447Y0061164D03*
X0043447Y0061164D03*
X0043447Y0061264D03*
X0043447Y0061364D03*
X0043447Y0061464D03*
X0043447Y0061564D03*
X0043447Y0061664D03*
X0043447Y0061764D03*
X0043447Y0061864D03*
X0043447Y0061964D03*
X0043447Y0062064D03*
X0043447Y0062164D03*
X0043447Y0062264D03*
X0043447Y0062364D03*
X0043447Y0062464D03*
X0043447Y0062564D03*
X0043447Y0062664D03*
X0043447Y0062764D03*
X0043447Y0062864D03*
X0043447Y0062964D03*
X0043447Y0063064D03*
X0043447Y0063164D03*
X0043447Y0063264D03*
X0043447Y0063364D03*
X0043447Y0063464D03*
X0043447Y0063564D03*
X0043447Y0063664D03*
X0043447Y0063764D03*
X0043447Y0063864D03*
X0043447Y0063964D03*
X0043447Y0064064D03*
X0043447Y0064164D03*
X0043447Y0064264D03*
X0043447Y0064364D03*
X0065347Y0034364D03*
X0065347Y0034264D03*
X0072847Y0030564D03*
X0074647Y0029864D03*
X0074647Y0029764D03*
X0076147Y0029764D03*
X0076147Y0029864D03*
X0071947Y0028164D03*
X0065647Y0023564D03*
X0065647Y0023464D03*
X0065647Y0023364D03*
X0065647Y0023264D03*
X0065647Y0023164D03*
X0064447Y0023764D03*
X0064447Y0023864D03*
X0064747Y0024664D03*
X0064747Y0024764D03*
X0064747Y0024864D03*
X0061747Y0023864D03*
X0061747Y0023764D03*
X0061447Y0024664D03*
X0061447Y0024764D03*
X0061447Y0024864D03*
X0061447Y0024964D03*
X0061447Y0025064D03*
X0043447Y0025064D03*
X0043447Y0025164D03*
X0043447Y0025264D03*
X0043447Y0025364D03*
X0043447Y0025464D03*
X0043447Y0025564D03*
X0043447Y0025664D03*
X0043447Y0025764D03*
X0043447Y0025864D03*
X0043447Y0025964D03*
X0043447Y0026064D03*
X0043447Y0026164D03*
X0043447Y0026264D03*
X0043447Y0026364D03*
X0043447Y0026464D03*
X0043447Y0026564D03*
X0043447Y0026664D03*
X0043447Y0026764D03*
X0043447Y0026864D03*
X0043447Y0026964D03*
X0043447Y0027064D03*
X0043447Y0027164D03*
X0043447Y0027264D03*
X0043447Y0027364D03*
X0043447Y0027464D03*
X0043447Y0027564D03*
X0043447Y0027664D03*
X0043447Y0027764D03*
X0043447Y0027864D03*
X0043447Y0027964D03*
X0043447Y0028064D03*
X0043447Y0028164D03*
X0043447Y0028264D03*
X0043447Y0028364D03*
X0043447Y0028464D03*
X0043447Y0028564D03*
X0043447Y0028664D03*
X0043447Y0028764D03*
X0043447Y0028864D03*
X0043447Y0028964D03*
X0043447Y0029064D03*
X0043447Y0029164D03*
X0043447Y0029264D03*
X0043447Y0029364D03*
X0043447Y0029464D03*
X0043447Y0029564D03*
X0043447Y0029664D03*
X0043447Y0029764D03*
X0043447Y0029864D03*
X0043447Y0029964D03*
X0043447Y0030064D03*
X0043447Y0030164D03*
X0043447Y0030264D03*
X0043447Y0030364D03*
X0043447Y0030464D03*
X0043447Y0024964D03*
X0043447Y0024864D03*
X0043447Y0024764D03*
X0043447Y0024664D03*
X0043447Y0024564D03*
X0043447Y0024464D03*
X0043447Y0024364D03*
X0043447Y0024264D03*
X0043447Y0024164D03*
X0043447Y0024064D03*
X0043447Y0023964D03*
X0043447Y0023864D03*
X0043447Y0023764D03*
X0043447Y0023664D03*
X0043447Y0023564D03*
X0043447Y0023464D03*
X0043447Y0023364D03*
X0043447Y0023264D03*
X0043447Y0023164D03*
X0043447Y0023064D03*
X0043447Y0022964D03*
X0043447Y0022864D03*
X0043447Y0022764D03*
X0043447Y0022664D03*
X0043447Y0022564D03*
X0043447Y0022464D03*
X0043447Y0022364D03*
X0043447Y0022264D03*
X0043447Y0022164D03*
X0043447Y0022064D03*
X0043447Y0021964D03*
X0043447Y0021864D03*
X0043447Y0021764D03*
X0043447Y0021664D03*
X0043447Y0021564D03*
X0043447Y0021464D03*
X0043447Y0021364D03*
X0043447Y0020564D03*
X0043447Y0020464D03*
X0043447Y0020364D03*
X0043447Y0020264D03*
X0043447Y0020164D03*
X0043447Y0020064D03*
X0043447Y0019964D03*
X0043447Y0019864D03*
X0043447Y0019764D03*
X0043447Y0019664D03*
X0043447Y0019564D03*
X0043447Y0019464D03*
X0043447Y0019364D03*
X0043447Y0019264D03*
X0043447Y0019164D03*
X0043447Y0019064D03*
X0043447Y0018964D03*
X0043447Y0018864D03*
X0043447Y0018764D03*
X0043447Y0018664D03*
X0043447Y0018564D03*
X0043447Y0018464D03*
X0043447Y0018364D03*
X0043447Y0018264D03*
X0043447Y0018164D03*
X0043447Y0018064D03*
X0043447Y0017964D03*
X0043447Y0017864D03*
X0043447Y0017764D03*
X0043447Y0017664D03*
X0043447Y0017564D03*
X0043447Y0017464D03*
X0043447Y0017364D03*
X0043447Y0017264D03*
X0043447Y0017164D03*
X0043447Y0017064D03*
X0043447Y0016964D03*
D24*
X0061597Y0020664D03*
X0061597Y0020664D03*
X0061597Y0020764D03*
X0061597Y0020864D03*
X0061597Y0020964D03*
X0061597Y0021064D03*
X0061597Y0021164D03*
X0061597Y0021264D03*
D25*
X0062147Y0022464D03*
X0061847Y0023664D03*
X0061647Y0023964D03*
X0061647Y0024064D03*
X0061647Y0024164D03*
X0061547Y0024564D03*
X0061247Y0025564D03*
X0061247Y0025664D03*
X0063147Y0025464D03*
X0063447Y0024464D03*
X0063447Y0024364D03*
X0063447Y0024264D03*
X0063447Y0024164D03*
X0063447Y0024064D03*
X0063647Y0023964D03*
X0063647Y0023864D03*
X0063647Y0023764D03*
X0063647Y0023664D03*
X0064347Y0023664D03*
X0064547Y0023964D03*
X0064547Y0024064D03*
X0064547Y0024164D03*
X0064647Y0024364D03*
X0064647Y0024464D03*
X0064647Y0024564D03*
X0064847Y0024964D03*
X0064847Y0025064D03*
X0064947Y0025564D03*
X0064947Y0025664D03*
X0062747Y0024464D03*
X0062747Y0024364D03*
X0062747Y0024264D03*
X0062747Y0024164D03*
X0062747Y0024064D03*
X0062547Y0023964D03*
X0062547Y0023864D03*
X0062547Y0023764D03*
X0062547Y0023664D03*
X0064047Y0022464D03*
X0067547Y0024864D03*
X0068847Y0024464D03*
X0068847Y0024364D03*
X0068847Y0024264D03*
X0068847Y0024164D03*
X0068847Y0024064D03*
X0068847Y0023964D03*
X0068847Y0023864D03*
X0068847Y0023764D03*
X0068847Y0023664D03*
X0068847Y0023564D03*
X0068847Y0023464D03*
X0068847Y0023364D03*
X0068847Y0023264D03*
X0068847Y0023164D03*
X0068847Y0023064D03*
X0068847Y0022964D03*
X0068847Y0022864D03*
X0068847Y0022764D03*
X0068847Y0022664D03*
X0068847Y0022564D03*
X0068847Y0022464D03*
X0068847Y0025464D03*
X0068847Y0025564D03*
X0068847Y0025664D03*
X0070047Y0025664D03*
X0070047Y0025564D03*
X0071147Y0024764D03*
X0071147Y0024664D03*
X0072047Y0025564D03*
X0072047Y0025664D03*
X0072947Y0024564D03*
X0071747Y0028564D03*
X0071747Y0028664D03*
X0071747Y0028764D03*
X0071747Y0028864D03*
X0071747Y0028964D03*
X0071747Y0029064D03*
X0071747Y0029164D03*
X0071747Y0029264D03*
X0070847Y0030564D03*
X0069647Y0030564D03*
X0068747Y0033064D03*
X0068747Y0033164D03*
X0066447Y0030564D03*
X0066447Y0030464D03*
X0066447Y0030364D03*
X0066447Y0030264D03*
X0066447Y0030164D03*
X0066447Y0030064D03*
X0066447Y0029964D03*
X0066447Y0029864D03*
X0066447Y0029764D03*
X0066447Y0029664D03*
X0066447Y0029564D03*
X0066447Y0029464D03*
X0066447Y0029364D03*
X0066447Y0029264D03*
X0066447Y0029164D03*
X0066447Y0029064D03*
X0066447Y0028964D03*
X0066447Y0028864D03*
X0066447Y0028764D03*
X0066447Y0028664D03*
X0066447Y0028564D03*
X0065247Y0028464D03*
X0065247Y0029464D03*
X0065247Y0029564D03*
X0060447Y0028164D03*
X0059147Y0025664D03*
X0059147Y0025564D03*
X0058347Y0024464D03*
X0058347Y0024364D03*
X0058347Y0024264D03*
X0058347Y0024164D03*
X0058347Y0024064D03*
X0058347Y0023964D03*
X0058347Y0023864D03*
X0058347Y0023764D03*
X0058347Y0023664D03*
X0056247Y0023664D03*
X0056247Y0023764D03*
X0056247Y0023864D03*
X0056247Y0023964D03*
X0056247Y0024064D03*
X0056247Y0024164D03*
X0056247Y0024264D03*
X0056247Y0024364D03*
X0056247Y0024464D03*
X0056247Y0024564D03*
X0056247Y0025464D03*
X0056247Y0025564D03*
X0056247Y0025664D03*
X0057347Y0025664D03*
X0057347Y0025564D03*
X0056147Y0027364D03*
X0056147Y0027464D03*
X0056147Y0027564D03*
X0056147Y0027664D03*
X0056147Y0027764D03*
X0056147Y0027864D03*
X0056147Y0027964D03*
X0056147Y0028064D03*
X0056147Y0028164D03*
X0056147Y0028264D03*
X0056147Y0028364D03*
X0056147Y0028464D03*
X0056147Y0028564D03*
X0056147Y0028664D03*
X0056147Y0028764D03*
X0056147Y0028864D03*
X0056147Y0028964D03*
X0056147Y0029064D03*
X0056147Y0029164D03*
X0056147Y0029264D03*
X0056147Y0029364D03*
X0056147Y0030364D03*
X0056147Y0030464D03*
X0056147Y0030564D03*
X0057347Y0030564D03*
X0054047Y0030564D03*
X0053147Y0029664D03*
X0053147Y0028364D03*
X0053147Y0028264D03*
X0050147Y0028464D03*
X0050147Y0028564D03*
X0050147Y0028664D03*
X0050147Y0028764D03*
X0050147Y0028864D03*
X0050147Y0028964D03*
X0050147Y0029064D03*
X0050147Y0029164D03*
X0050147Y0029264D03*
X0050147Y0029364D03*
X0050147Y0030364D03*
X0050147Y0030464D03*
X0050147Y0030564D03*
X0051147Y0030564D03*
X0048947Y0029364D03*
X0048947Y0029264D03*
X0048947Y0029164D03*
X0048947Y0029064D03*
X0048947Y0028964D03*
X0048947Y0028864D03*
X0048947Y0028764D03*
X0048947Y0028664D03*
X0048947Y0028564D03*
X0048947Y0028464D03*
X0050147Y0027564D03*
X0050147Y0027464D03*
X0050147Y0027364D03*
X0050147Y0027264D03*
X0050147Y0027164D03*
X0050147Y0027064D03*
X0050147Y0026964D03*
X0050147Y0026864D03*
X0050147Y0026764D03*
X0050147Y0026664D03*
X0050147Y0026564D03*
X0050147Y0026464D03*
X0050147Y0026364D03*
X0050147Y0026264D03*
X0050147Y0026164D03*
X0050147Y0026064D03*
X0050147Y0025964D03*
X0050147Y0025864D03*
X0050147Y0025764D03*
X0050147Y0025664D03*
X0050147Y0025564D03*
X0050147Y0025464D03*
X0050147Y0024564D03*
X0050147Y0024464D03*
X0050147Y0024364D03*
X0050147Y0024264D03*
X0050147Y0024164D03*
X0050147Y0024064D03*
X0050147Y0023964D03*
X0050147Y0023864D03*
X0050147Y0023764D03*
X0050147Y0023664D03*
X0050147Y0023564D03*
X0050147Y0023464D03*
X0050147Y0023364D03*
X0050147Y0023264D03*
X0050147Y0023164D03*
X0050147Y0023064D03*
X0050147Y0022964D03*
X0050147Y0022864D03*
X0050147Y0022764D03*
X0050147Y0022664D03*
X0050147Y0022564D03*
X0050147Y0022464D03*
X0051947Y0022464D03*
X0054947Y0022464D03*
X0054947Y0022564D03*
X0054947Y0022664D03*
X0054947Y0023364D03*
X0054947Y0023464D03*
X0054947Y0023564D03*
X0054947Y0023664D03*
X0054947Y0024364D03*
X0054947Y0024464D03*
X0054947Y0024564D03*
X0054947Y0024664D03*
X0054947Y0024764D03*
X0056247Y0023564D03*
X0056247Y0023464D03*
X0056247Y0023364D03*
X0056247Y0023264D03*
X0056247Y0023164D03*
X0056247Y0023064D03*
X0056247Y0022964D03*
X0056247Y0022864D03*
X0056247Y0022764D03*
X0056247Y0022664D03*
X0056247Y0022564D03*
X0056247Y0022464D03*
X0051147Y0025564D03*
X0051147Y0025664D03*
X0046947Y0028764D03*
X0046947Y0028864D03*
X0046947Y0028964D03*
X0046947Y0029064D03*
X0046947Y0029164D03*
X0046947Y0029264D03*
X0054647Y0033064D03*
X0054647Y0033164D03*
X0074447Y0029564D03*
X0074447Y0029464D03*
X0074447Y0029364D03*
X0074447Y0028664D03*
X0074447Y0028564D03*
X0074447Y0028464D03*
X0076347Y0029364D03*
D26*
X0075397Y0030364D03*
X0075397Y0030464D03*
X0064297Y0030464D03*
X0064297Y0030364D03*
X0054697Y0033364D03*
X0054697Y0033464D03*
X0053797Y0022664D03*
X0053797Y0022564D03*
D27*
X0053947Y0025164D03*
X0050947Y0025164D03*
X0050947Y0025264D03*
X0050947Y0025364D03*
X0050947Y0027664D03*
X0050947Y0027764D03*
X0050947Y0030064D03*
X0050947Y0030164D03*
X0050947Y0030264D03*
X0047947Y0029964D03*
X0047947Y0028064D03*
X0047947Y0027964D03*
X0056947Y0030264D03*
X0061447Y0030164D03*
X0061447Y0030064D03*
X0061447Y0029964D03*
X0066847Y0024164D03*
X0066847Y0024064D03*
X0066847Y0022664D03*
X0066847Y0022564D03*
X0071947Y0024964D03*
X0071947Y0025064D03*
X0072847Y0027864D03*
X0072847Y0030064D03*
X0072847Y0030164D03*
X0075547Y0027864D03*
D28*
X0075397Y0030264D03*
X0072097Y0022664D03*
X0072097Y0022564D03*
X0066697Y0025464D03*
X0054097Y0027564D03*
X0054697Y0033564D03*
X0054697Y0051064D03*
X0054697Y0051164D03*
D29*
X0064297Y0029964D03*
X0067597Y0027764D03*
X0067597Y0027664D03*
X0066697Y0025164D03*
X0072097Y0022964D03*
X0072097Y0022864D03*
X0072697Y0027964D03*
X0072697Y0028064D03*
X0075397Y0029964D03*
X0061297Y0027764D03*
X0061297Y0027664D03*
X0059497Y0025364D03*
X0059497Y0025264D03*
X0054097Y0025064D03*
X0054097Y0024964D03*
X0054097Y0023964D03*
X0054097Y0022764D03*
X0054097Y0027864D03*
D30*
X0057047Y0029964D03*
X0057047Y0030064D03*
X0057047Y0030164D03*
X0054747Y0033864D03*
X0051047Y0029964D03*
X0051047Y0028064D03*
X0051047Y0027964D03*
X0051047Y0027864D03*
X0051047Y0025064D03*
X0051047Y0024964D03*
X0054047Y0023864D03*
X0054047Y0023764D03*
X0054047Y0022964D03*
X0054047Y0022864D03*
X0059447Y0022864D03*
X0059447Y0022964D03*
X0059447Y0022764D03*
X0059447Y0025164D03*
X0064347Y0027964D03*
X0064347Y0028064D03*
X0067547Y0027864D03*
X0066747Y0023964D03*
X0066747Y0022764D03*
X0072747Y0029964D03*
X0068547Y0033864D03*
X0068547Y0050764D03*
X0068547Y0050864D03*
X0054747Y0050864D03*
X0054747Y0050764D03*
D31*
X0054697Y0050964D03*
X0070297Y0030164D03*
X0070297Y0030064D03*
X0075397Y0030064D03*
X0075397Y0030164D03*
X0072097Y0022764D03*
X0066997Y0024264D03*
X0054097Y0027664D03*
X0054097Y0027764D03*
D32*
X0061297Y0027864D03*
X0066697Y0023864D03*
X0066697Y0023764D03*
X0066697Y0022964D03*
X0066697Y0022864D03*
X0075397Y0028764D03*
X0075397Y0028864D03*
X0075397Y0028964D03*
X0075397Y0029064D03*
X0075397Y0029164D03*
X0075397Y0029264D03*
D33*
X0067447Y0028064D03*
X0067447Y0027964D03*
X0059347Y0025064D03*
X0059347Y0024964D03*
X0059347Y0023064D03*
D34*
X0054797Y0028164D03*
X0060497Y0028264D03*
X0060497Y0028364D03*
X0065997Y0024864D03*
X0072797Y0023264D03*
X0072797Y0023164D03*
X0076197Y0028164D03*
D35*
X0071997Y0024264D03*
X0071997Y0024164D03*
X0071997Y0024064D03*
X0071997Y0023964D03*
X0071997Y0023864D03*
X0071997Y0023764D03*
X0068597Y0033964D03*
X0068597Y0034064D03*
X0054797Y0034064D03*
X0054797Y0033964D03*
X0053997Y0029264D03*
X0053997Y0029164D03*
X0053997Y0029064D03*
X0053997Y0028964D03*
X0053997Y0028864D03*
X0053997Y0028764D03*
X0054797Y0050664D03*
X0068597Y0050664D03*
D36*
X0068597Y0033764D03*
X0068597Y0033664D03*
X0070397Y0030264D03*
X0075497Y0027764D03*
X0075497Y0027664D03*
X0071997Y0025164D03*
X0069597Y0025264D03*
X0069597Y0025364D03*
X0066797Y0025064D03*
X0066797Y0024964D03*
X0066597Y0025264D03*
X0066597Y0025364D03*
X0064397Y0027864D03*
X0064397Y0030064D03*
X0064397Y0030164D03*
X0061497Y0030264D03*
X0061397Y0029064D03*
X0061497Y0028964D03*
X0061497Y0028864D03*
X0056997Y0025364D03*
X0056997Y0025264D03*
X0053997Y0025264D03*
X0053997Y0025364D03*
X0054197Y0024164D03*
X0054197Y0024064D03*
X0053997Y0029964D03*
X0053997Y0030064D03*
X0053997Y0030164D03*
X0054797Y0033664D03*
X0054797Y0033764D03*
X0047997Y0027864D03*
D37*
X0047947Y0027764D03*
X0047947Y0027664D03*
X0047947Y0030064D03*
X0047947Y0030164D03*
X0054247Y0024264D03*
X0056947Y0025164D03*
X0069547Y0025164D03*
X0072847Y0027664D03*
X0072847Y0027764D03*
X0068647Y0050964D03*
D38*
X0058147Y0034064D03*
X0058147Y0033964D03*
X0054547Y0032964D03*
X0053347Y0024864D03*
X0057547Y0024864D03*
X0070147Y0024864D03*
X0073447Y0028264D03*
X0073447Y0028364D03*
X0073447Y0029664D03*
X0071047Y0029764D03*
X0071047Y0029864D03*
D39*
X0070247Y0029964D03*
X0072747Y0030264D03*
X0072047Y0025364D03*
X0072047Y0025264D03*
X0069447Y0025064D03*
X0069447Y0024964D03*
X0064347Y0027664D03*
X0064347Y0027764D03*
X0064347Y0030264D03*
X0061647Y0028764D03*
X0061247Y0029164D03*
X0061247Y0029264D03*
X0061347Y0027564D03*
X0056847Y0025064D03*
X0056847Y0024964D03*
X0054047Y0030264D03*
X0048047Y0030264D03*
D40*
X0053947Y0025464D03*
X0061447Y0030364D03*
X0061447Y0030464D03*
X0068647Y0033564D03*
X0068647Y0051064D03*
X0068647Y0051164D03*
D41*
X0068797Y0051564D03*
X0065197Y0034164D03*
X0062197Y0029864D03*
X0062197Y0029764D03*
X0063097Y0025664D03*
X0063097Y0025564D03*
D42*
X0068347Y0030564D03*
X0073447Y0029864D03*
X0073447Y0029764D03*
X0073447Y0028164D03*
X0058147Y0034164D03*
X0054547Y0051564D03*
D43*
X0065197Y0034064D03*
X0065197Y0033964D03*
X0068797Y0032964D03*
D44*
X0054847Y0034164D03*
X0054847Y0050464D03*
X0054847Y0050564D03*
D45*
X0068497Y0050564D03*
X0068497Y0050464D03*
X0068497Y0034164D03*
D46*
X0054847Y0034264D03*
X0054847Y0034364D03*
X0054847Y0050364D03*
D47*
X0068497Y0050364D03*
X0068497Y0034364D03*
X0068497Y0034264D03*
D48*
X0068397Y0034464D03*
X0054897Y0034464D03*
X0054897Y0050164D03*
X0054897Y0050264D03*
X0061697Y0051964D03*
X0061697Y0052064D03*
X0061697Y0052164D03*
X0061697Y0052264D03*
X0061697Y0052364D03*
X0061697Y0052464D03*
X0061697Y0052564D03*
X0061697Y0052664D03*
X0068397Y0050264D03*
X0068397Y0050164D03*
D49*
X0067697Y0034664D03*
X0067697Y0034564D03*
X0055697Y0034564D03*
X0055697Y0034664D03*
D50*
X0055647Y0034764D03*
X0056547Y0036964D03*
X0056547Y0037064D03*
X0056547Y0037164D03*
X0056747Y0037264D03*
X0056747Y0037364D03*
X0056847Y0037564D03*
X0056847Y0037664D03*
X0056847Y0037864D03*
X0056847Y0037964D03*
X0066447Y0037964D03*
X0066447Y0037864D03*
X0066447Y0037664D03*
X0066447Y0037564D03*
X0066647Y0037364D03*
X0066647Y0037264D03*
X0066747Y0037164D03*
X0066747Y0037064D03*
X0066747Y0036964D03*
X0067647Y0034764D03*
X0061647Y0050464D03*
X0061647Y0050564D03*
D51*
X0066397Y0038064D03*
X0066997Y0036764D03*
X0066997Y0036664D03*
X0066997Y0036564D03*
X0056497Y0036864D03*
X0056197Y0036464D03*
X0056197Y0036364D03*
X0055597Y0034964D03*
X0055597Y0034864D03*
D52*
X0056347Y0036564D03*
X0056347Y0036664D03*
X0056347Y0036764D03*
X0056947Y0038064D03*
X0066847Y0036864D03*
X0067147Y0036464D03*
X0067147Y0036364D03*
X0067747Y0034964D03*
X0067747Y0034864D03*
D53*
X0067597Y0035464D03*
X0067597Y0035564D03*
X0067597Y0035664D03*
X0066397Y0038364D03*
X0066397Y0038464D03*
X0066397Y0038564D03*
X0066997Y0039864D03*
X0067297Y0040164D03*
X0055897Y0035864D03*
X0055897Y0035764D03*
X0055597Y0035364D03*
X0055597Y0035264D03*
X0055597Y0035164D03*
X0055597Y0035064D03*
D54*
X0055747Y0035464D03*
X0055747Y0035564D03*
X0055747Y0035664D03*
X0056947Y0038364D03*
X0056947Y0038464D03*
X0056947Y0038564D03*
X0056347Y0039864D03*
X0056047Y0040164D03*
X0067447Y0035864D03*
X0067447Y0035764D03*
X0067747Y0035364D03*
X0067747Y0035264D03*
X0067747Y0035164D03*
X0067747Y0035064D03*
D55*
X0067397Y0035964D03*
X0067397Y0036064D03*
X0067397Y0036164D03*
X0067197Y0036264D03*
X0066497Y0038164D03*
X0066497Y0038264D03*
X0067097Y0039964D03*
X0067097Y0040064D03*
X0067197Y0044464D03*
X0067197Y0044564D03*
X0067097Y0044664D03*
X0066897Y0044764D03*
X0066897Y0044864D03*
X0056397Y0044864D03*
X0056397Y0044764D03*
X0056297Y0044664D03*
X0056097Y0044564D03*
X0056097Y0044464D03*
X0056297Y0040064D03*
X0056297Y0039964D03*
X0056897Y0038264D03*
X0056897Y0038164D03*
X0056097Y0036264D03*
X0055997Y0036164D03*
X0055997Y0036064D03*
X0055997Y0035964D03*
D56*
X0056797Y0037464D03*
X0066397Y0037764D03*
D57*
X0066547Y0037464D03*
X0056947Y0037764D03*
D58*
X0056847Y0038664D03*
X0056547Y0039564D03*
X0056447Y0039664D03*
X0056447Y0039764D03*
X0056547Y0044964D03*
X0061647Y0050364D03*
X0066747Y0044964D03*
X0066947Y0039764D03*
X0066947Y0039664D03*
X0066747Y0039564D03*
X0066447Y0038664D03*
D59*
X0056947Y0038764D03*
X0056947Y0038864D03*
X0056647Y0045064D03*
X0056647Y0045164D03*
D60*
X0066697Y0045164D03*
X0066697Y0045064D03*
X0066397Y0038864D03*
X0066397Y0038764D03*
D61*
X0066497Y0038964D03*
X0066497Y0039264D03*
X0066597Y0039364D03*
X0066597Y0039464D03*
X0066497Y0045264D03*
X0056897Y0045264D03*
X0056697Y0039464D03*
X0056697Y0039364D03*
X0056897Y0039264D03*
X0056897Y0038964D03*
D62*
X0056947Y0039064D03*
X0056947Y0039164D03*
X0067747Y0040264D03*
X0067747Y0040364D03*
X0067747Y0044364D03*
D63*
X0066397Y0039164D03*
X0066397Y0039064D03*
X0055597Y0040264D03*
X0055597Y0040364D03*
X0055597Y0044364D03*
D64*
X0055247Y0044264D03*
X0055247Y0044164D03*
X0055047Y0040464D03*
X0068247Y0040464D03*
X0068147Y0044164D03*
X0068147Y0044264D03*
D65*
X0069097Y0043164D03*
X0069097Y0043064D03*
X0069097Y0042964D03*
X0069097Y0042864D03*
X0069097Y0042764D03*
X0069097Y0042664D03*
X0069097Y0042564D03*
X0069097Y0042464D03*
X0069097Y0042364D03*
X0069097Y0042264D03*
X0069097Y0042164D03*
X0069097Y0042064D03*
X0069097Y0041964D03*
X0069097Y0041864D03*
X0069097Y0041764D03*
X0069097Y0041664D03*
X0069097Y0041564D03*
X0069097Y0041464D03*
X0069097Y0041364D03*
X0054697Y0040664D03*
X0054697Y0040564D03*
D66*
X0054247Y0041364D03*
X0054247Y0041464D03*
X0054247Y0041564D03*
X0054247Y0041664D03*
X0054247Y0041764D03*
X0054247Y0041864D03*
X0054247Y0041964D03*
X0054247Y0042064D03*
X0054247Y0042164D03*
X0054247Y0042264D03*
X0054247Y0042364D03*
X0054247Y0042464D03*
X0054247Y0042564D03*
X0054247Y0042664D03*
X0054247Y0042764D03*
X0054247Y0042864D03*
X0054247Y0042964D03*
X0054247Y0043064D03*
X0054247Y0043164D03*
X0068647Y0040664D03*
X0068647Y0040564D03*
D67*
X0054397Y0040764D03*
X0054397Y0040864D03*
X0054397Y0040964D03*
X0054397Y0043764D03*
X0054397Y0043864D03*
X0054397Y0043964D03*
D68*
X0068947Y0043964D03*
X0068947Y0043864D03*
X0068947Y0043764D03*
X0068947Y0040964D03*
X0068947Y0040864D03*
X0068947Y0040764D03*
D69*
X0068997Y0041064D03*
X0068997Y0041164D03*
X0068997Y0041264D03*
X0068997Y0043264D03*
X0068997Y0043364D03*
X0068997Y0043464D03*
X0068997Y0043564D03*
X0068997Y0043664D03*
X0054297Y0043664D03*
X0054297Y0043564D03*
X0054297Y0043464D03*
X0054297Y0043364D03*
X0054297Y0043264D03*
X0054297Y0041264D03*
X0054297Y0041164D03*
X0054297Y0041064D03*
D70*
X0054747Y0044064D03*
X0068547Y0044064D03*
D71*
X0057097Y0045364D03*
X0057097Y0045464D03*
D72*
X0066247Y0045464D03*
X0066247Y0045364D03*
D73*
X0061647Y0045564D03*
X0061647Y0045664D03*
X0061647Y0045764D03*
X0061647Y0047464D03*
X0061647Y0047564D03*
D74*
X0061697Y0047364D03*
X0061697Y0046164D03*
X0061697Y0046064D03*
X0061697Y0045964D03*
X0061697Y0045864D03*
D75*
X0061647Y0046264D03*
X0061647Y0046364D03*
X0061647Y0046464D03*
X0061647Y0047064D03*
X0061647Y0047164D03*
X0061647Y0047264D03*
D76*
X0061697Y0046964D03*
X0061697Y0046864D03*
X0061697Y0046764D03*
X0061697Y0046664D03*
X0061697Y0046564D03*
D77*
X0061697Y0047664D03*
X0061697Y0047764D03*
X0061697Y0047864D03*
D78*
X0061647Y0047964D03*
D79*
X0061697Y0048064D03*
X0061697Y0048164D03*
X0061697Y0048264D03*
D80*
X0061647Y0048364D03*
X0061647Y0048464D03*
D81*
X0061697Y0048564D03*
X0061697Y0048664D03*
X0061697Y0048764D03*
D82*
X0061647Y0048864D03*
X0061647Y0049864D03*
X0061647Y0049964D03*
D83*
X0061697Y0049764D03*
X0061697Y0049164D03*
X0061697Y0049064D03*
X0061697Y0048964D03*
D84*
X0061647Y0049264D03*
X0061647Y0049364D03*
X0061647Y0049464D03*
X0061647Y0049564D03*
X0061647Y0049664D03*
D85*
X0061647Y0051264D03*
X0061647Y0051364D03*
X0061647Y0051464D03*
X0061647Y0051564D03*
X0061647Y0051664D03*
X0061647Y0051764D03*
X0061647Y0051864D03*
X0054947Y0050064D03*
X0068447Y0050064D03*
D86*
X0061697Y0050064D03*
D87*
X0061697Y0050164D03*
X0061697Y0050264D03*
D88*
X0061697Y0050664D03*
D89*
X0061697Y0050764D03*
X0061697Y0050864D03*
X0061697Y0050964D03*
X0061697Y0051064D03*
X0061697Y0051164D03*
D90*
X0061647Y0052764D03*
X0061647Y0052864D03*
X0061647Y0052964D03*
X0061647Y0053064D03*
X0061647Y0053164D03*
X0061647Y0053264D03*
X0061647Y0053364D03*
X0061647Y0053464D03*
X0061647Y0053564D03*
D91*
X0061697Y0053664D03*
X0061697Y0053764D03*
X0061697Y0053864D03*
X0061697Y0053964D03*
D92*
X0061547Y0066464D03*
D93*
X0061282Y0061902D02*
X0060381Y0061902D01*
X0059930Y0061451D01*
X0059930Y0059650D01*
X0060381Y0059199D01*
X0061282Y0059199D01*
X0061732Y0059650D01*
X0061732Y0060550D01*
X0060831Y0060550D01*
X0061732Y0061451D02*
X0061282Y0061902D01*
X0058970Y0061902D02*
X0058970Y0059199D01*
X0057168Y0061902D01*
X0057168Y0059199D01*
X0056227Y0059199D02*
X0055327Y0059199D01*
X0055777Y0059199D02*
X0055777Y0061902D01*
X0055327Y0061902D02*
X0056227Y0061902D01*
X0054366Y0061451D02*
X0054366Y0060550D01*
X0053915Y0060100D01*
X0052564Y0060100D01*
X0052564Y0059199D02*
X0052564Y0061902D01*
X0053915Y0061902D01*
X0054366Y0061451D01*
X0051603Y0061902D02*
X0051603Y0059199D01*
X0049802Y0059199D02*
X0049802Y0061902D01*
X0050703Y0061001D01*
X0051603Y0061902D01*
X0048841Y0061902D02*
X0048841Y0059650D01*
X0048391Y0059199D01*
X0047490Y0059199D01*
X0047039Y0059650D01*
X0047039Y0061902D01*
X0046079Y0061902D02*
X0045178Y0061902D01*
X0045628Y0061902D02*
X0045628Y0059650D01*
X0045178Y0059199D01*
X0044727Y0059199D01*
X0044277Y0059650D01*
X0049572Y0057402D02*
X0049572Y0054699D01*
X0051373Y0054699D02*
X0051373Y0057402D01*
X0050472Y0056501D01*
X0049572Y0057402D01*
X0052334Y0056501D02*
X0052334Y0055150D01*
X0052784Y0054699D01*
X0054136Y0054699D01*
X0054136Y0054249D02*
X0053685Y0053798D01*
X0053235Y0053798D01*
X0054136Y0054249D02*
X0054136Y0056501D01*
X0055096Y0056501D02*
X0055547Y0056050D01*
X0056447Y0056050D01*
X0056898Y0055600D01*
X0056898Y0055150D01*
X0056447Y0054699D01*
X0055547Y0054699D01*
X0055096Y0055150D01*
X0055096Y0056501D02*
X0055096Y0056951D01*
X0055547Y0057402D01*
X0056447Y0057402D01*
X0056898Y0056951D01*
X0057859Y0056050D02*
X0058309Y0056501D01*
X0059210Y0056501D01*
X0059660Y0056050D01*
X0059660Y0055600D01*
X0057859Y0055600D01*
X0057859Y0055150D02*
X0057859Y0056050D01*
X0057859Y0055150D02*
X0058309Y0054699D01*
X0059210Y0054699D01*
X0060621Y0054699D02*
X0060621Y0056501D01*
X0061972Y0056501D01*
X0062423Y0056050D01*
X0062423Y0054699D01*
X0063383Y0054699D02*
X0064735Y0054699D01*
X0065185Y0055150D01*
X0064735Y0055600D01*
X0063834Y0055600D01*
X0063383Y0056050D01*
X0063834Y0056501D01*
X0065185Y0056501D01*
X0066146Y0056050D02*
X0066146Y0055150D01*
X0066596Y0054699D01*
X0067497Y0054699D01*
X0067947Y0055150D01*
X0067947Y0056050D01*
X0067497Y0056501D01*
X0066596Y0056501D01*
X0066146Y0056050D01*
X0068908Y0055600D02*
X0069809Y0056501D01*
X0070259Y0056501D01*
X0071210Y0056050D02*
X0071660Y0056501D01*
X0073012Y0056501D01*
X0072561Y0055600D02*
X0071660Y0055600D01*
X0071210Y0056050D01*
X0071210Y0054699D02*
X0072561Y0054699D01*
X0073012Y0055150D01*
X0072561Y0055600D01*
X0072781Y0059199D02*
X0072781Y0061001D01*
X0071881Y0061902D01*
X0070980Y0061001D01*
X0070980Y0059199D01*
X0070019Y0059650D02*
X0070019Y0061451D01*
X0069569Y0061902D01*
X0068668Y0061902D01*
X0068217Y0061451D01*
X0068217Y0059650D01*
X0068668Y0059199D01*
X0069569Y0059199D01*
X0070019Y0059650D01*
X0070980Y0060550D02*
X0072781Y0060550D01*
X0073742Y0060100D02*
X0075093Y0060100D01*
X0075544Y0060550D01*
X0075544Y0061451D01*
X0075093Y0061902D01*
X0073742Y0061902D01*
X0073742Y0059199D01*
X0074643Y0060100D02*
X0075544Y0059199D01*
X0076505Y0059199D02*
X0076505Y0061902D01*
X0077856Y0061902D01*
X0078306Y0061451D01*
X0078306Y0059650D01*
X0077856Y0059199D01*
X0076505Y0059199D01*
X0068908Y0056501D02*
X0068908Y0054699D01*
X0066806Y0059199D02*
X0065455Y0059199D01*
X0065455Y0061902D01*
X0066806Y0061902D01*
X0067257Y0061451D01*
X0067257Y0061001D01*
X0066806Y0060550D01*
X0065455Y0060550D01*
X0066806Y0060550D02*
X0067257Y0060100D01*
X0067257Y0059650D01*
X0066806Y0059199D01*
X0089744Y0054452D02*
X0089744Y0052650D01*
X0089744Y0054001D02*
X0091546Y0054001D01*
X0091546Y0054452D02*
X0091546Y0052650D01*
X0092506Y0054001D02*
X0094308Y0054001D01*
X0095269Y0054001D02*
X0097070Y0054001D01*
X0098031Y0054001D02*
X0099833Y0054001D01*
X0099833Y0054452D02*
X0099833Y0052650D01*
X0100794Y0053100D02*
X0101244Y0052650D01*
X0102145Y0052650D01*
X0102595Y0053100D01*
X0102595Y0054001D01*
X0102145Y0054452D01*
X0101694Y0054452D01*
X0100794Y0054001D01*
X0100794Y0055352D01*
X0102595Y0055352D01*
X0099833Y0054452D02*
X0098932Y0055352D01*
X0098031Y0054452D01*
X0098031Y0052650D01*
X0093858Y0052650D02*
X0093858Y0055352D01*
X0092506Y0054001D01*
X0091546Y0054452D02*
X0090645Y0055352D01*
X0089744Y0054452D01*
X0058223Y0020436D02*
X0058223Y0019952D01*
X0058223Y0018985D02*
X0058223Y0017050D01*
X0057739Y0017050D02*
X0058707Y0017050D01*
X0059703Y0017050D02*
X0059703Y0018985D01*
X0061155Y0018985D01*
X0061638Y0018501D01*
X0061638Y0017050D01*
X0062650Y0017534D02*
X0062650Y0018501D01*
X0063134Y0018985D01*
X0064101Y0018985D01*
X0064585Y0018501D01*
X0064585Y0017534D01*
X0064101Y0017050D01*
X0063134Y0017050D01*
X0062650Y0017534D01*
X0058223Y0018985D02*
X0057739Y0018985D01*
X0056728Y0018985D02*
X0056728Y0017050D01*
X0055276Y0017050D01*
X0054793Y0017534D01*
X0054793Y0018985D01*
X0053781Y0018985D02*
X0052330Y0018985D01*
X0051846Y0018501D01*
X0051846Y0017534D01*
X0052330Y0017050D01*
X0053781Y0017050D01*
X0053781Y0019952D01*
X0050842Y0018985D02*
X0050358Y0018985D01*
X0049391Y0018017D01*
X0049391Y0017050D02*
X0049391Y0018985D01*
X0048379Y0018985D02*
X0048379Y0017050D01*
X0048379Y0018501D02*
X0046444Y0018501D01*
X0046444Y0018985D02*
X0047412Y0019952D01*
X0048379Y0018985D01*
X0046444Y0018985D02*
X0046444Y0017050D01*
X0038953Y0027150D02*
X0038953Y0029652D01*
X0038119Y0029652D02*
X0039787Y0029652D01*
X0037209Y0029235D02*
X0036792Y0029652D01*
X0035958Y0029652D01*
X0035541Y0029235D01*
X0035541Y0028818D01*
X0035958Y0028401D01*
X0036792Y0028401D01*
X0037209Y0027984D01*
X0037209Y0027567D01*
X0036792Y0027150D01*
X0035958Y0027150D01*
X0035541Y0027567D01*
X0034631Y0027150D02*
X0033797Y0027984D01*
X0034214Y0027984D02*
X0032963Y0027984D01*
X0032963Y0027150D02*
X0032963Y0029652D01*
X0034214Y0029652D01*
X0034631Y0029235D01*
X0034631Y0028401D01*
X0034214Y0027984D01*
X0029474Y0027567D02*
X0029474Y0029235D01*
X0029057Y0029652D01*
X0027806Y0029652D01*
X0027806Y0027150D01*
X0029057Y0027150D01*
X0029474Y0027567D01*
X0026896Y0027150D02*
X0026896Y0029652D01*
X0025228Y0029652D02*
X0025228Y0027150D01*
X0024318Y0027567D02*
X0024318Y0028401D01*
X0023484Y0028401D01*
X0022650Y0029235D02*
X0022650Y0027567D01*
X0023067Y0027150D01*
X0023901Y0027150D01*
X0024318Y0027567D01*
X0024318Y0029235D02*
X0023901Y0029652D01*
X0023067Y0029652D01*
X0022650Y0029235D01*
X0025228Y0029652D02*
X0026896Y0027150D01*
X0017850Y0029269D02*
X0017850Y0030169D01*
X0017400Y0030620D01*
X0016499Y0030620D01*
X0016499Y0029719D01*
X0017400Y0028818D02*
X0017850Y0029269D01*
X0017400Y0028818D02*
X0015598Y0028818D01*
X0015148Y0029269D01*
X0015148Y0030169D01*
X0015598Y0030620D01*
X0015148Y0031581D02*
X0017850Y0033382D01*
X0015148Y0033382D01*
X0015148Y0034343D02*
X0015148Y0035694D01*
X0015598Y0036144D01*
X0017400Y0036144D01*
X0017850Y0035694D01*
X0017850Y0034343D01*
X0015148Y0034343D01*
X0015148Y0031581D02*
X0017850Y0031581D01*
X0017400Y0025095D02*
X0017850Y0024645D01*
X0017850Y0023744D01*
X0017400Y0023294D01*
X0017400Y0022363D02*
X0017850Y0022363D01*
X0017850Y0021912D01*
X0017400Y0021912D01*
X0017400Y0022363D01*
X0017400Y0020952D02*
X0017850Y0020501D01*
X0017850Y0019600D01*
X0017400Y0019150D01*
X0016499Y0020051D02*
X0016499Y0020501D01*
X0016949Y0020952D01*
X0017400Y0020952D01*
X0016499Y0020501D02*
X0016048Y0020952D01*
X0015598Y0020952D01*
X0015148Y0020501D01*
X0015148Y0019600D01*
X0015598Y0019150D01*
X0015598Y0023294D02*
X0015148Y0023744D01*
X0015148Y0024645D01*
X0015598Y0025095D01*
X0016048Y0025095D01*
X0016499Y0024645D01*
X0016949Y0025095D01*
X0017400Y0025095D01*
X0016499Y0024645D02*
X0016499Y0024194D01*
X0016499Y0039868D02*
X0016499Y0041669D01*
X0016048Y0041669D02*
X0017850Y0041669D01*
X0017400Y0042630D02*
X0017850Y0043080D01*
X0017850Y0043981D01*
X0017400Y0044432D01*
X0016499Y0044432D01*
X0016048Y0043981D01*
X0016048Y0043531D01*
X0016499Y0042630D01*
X0015148Y0042630D01*
X0015148Y0044432D01*
X0016048Y0041669D02*
X0015148Y0040768D01*
X0016048Y0039868D01*
X0017850Y0039868D01*
X0017850Y0050917D02*
X0016048Y0050917D01*
X0015148Y0051818D01*
X0016048Y0052719D01*
X0017850Y0052719D01*
X0016499Y0052719D02*
X0016499Y0050917D01*
X0016499Y0053679D02*
X0016499Y0055481D01*
X0017850Y0055031D02*
X0015148Y0055031D01*
X0016499Y0053679D01*
X0016499Y0059204D02*
X0016499Y0061006D01*
X0016048Y0061006D02*
X0017850Y0061006D01*
X0017400Y0061966D02*
X0017850Y0062417D01*
X0017850Y0063318D01*
X0017400Y0063768D01*
X0016949Y0063768D01*
X0016499Y0063318D01*
X0016499Y0062867D01*
X0016499Y0063318D02*
X0016048Y0063768D01*
X0015598Y0063768D01*
X0015148Y0063318D01*
X0015148Y0062417D01*
X0015598Y0061966D01*
X0016048Y0061006D02*
X0015148Y0060105D01*
X0016048Y0059204D01*
X0017850Y0059204D01*
X0017850Y0070254D02*
X0016048Y0070254D01*
X0015148Y0071154D01*
X0016048Y0072055D01*
X0017850Y0072055D01*
X0017850Y0073016D02*
X0016048Y0074817D01*
X0015598Y0074817D01*
X0015148Y0074367D01*
X0015148Y0073466D01*
X0015598Y0073016D01*
X0016499Y0072055D02*
X0016499Y0070254D01*
X0017850Y0073016D02*
X0017850Y0074817D01*
X0017850Y0081303D02*
X0016048Y0081303D01*
X0015148Y0082204D01*
X0016048Y0083104D01*
X0017850Y0083104D01*
X0017850Y0084065D02*
X0017850Y0085867D01*
X0017850Y0084966D02*
X0015148Y0084966D01*
X0016048Y0084065D01*
X0016499Y0083104D02*
X0016499Y0081303D01*
X0016499Y0089590D02*
X0016499Y0091392D01*
X0016048Y0091392D02*
X0017850Y0091392D01*
X0017400Y0092352D02*
X0015598Y0094154D01*
X0017400Y0094154D01*
X0017850Y0093703D01*
X0017850Y0092803D01*
X0017400Y0092352D01*
X0015598Y0092352D01*
X0015148Y0092803D01*
X0015148Y0093703D01*
X0015598Y0094154D01*
X0016048Y0091392D02*
X0015148Y0090491D01*
X0016048Y0089590D01*
X0017850Y0089590D01*
X0043648Y0104150D02*
X0046350Y0104150D01*
X0046350Y0105952D01*
X0046350Y0106912D02*
X0046350Y0107813D01*
X0046350Y0107363D02*
X0044548Y0107363D01*
X0044548Y0106912D01*
X0043648Y0107363D02*
X0043197Y0107363D01*
X0044999Y0108754D02*
X0044548Y0109204D01*
X0044548Y0110555D01*
X0044999Y0111516D02*
X0044548Y0111967D01*
X0044548Y0112867D01*
X0044999Y0113318D01*
X0045449Y0113318D01*
X0045449Y0111516D01*
X0044999Y0111516D02*
X0045900Y0111516D01*
X0046350Y0111967D01*
X0046350Y0112867D01*
X0046350Y0114279D02*
X0044548Y0114279D01*
X0044548Y0115630D01*
X0044999Y0116080D01*
X0046350Y0116080D01*
X0046350Y0117041D02*
X0046350Y0118392D01*
X0045900Y0118843D01*
X0045449Y0118392D01*
X0045449Y0117491D01*
X0044999Y0117041D01*
X0044548Y0117491D01*
X0044548Y0118843D01*
X0044999Y0119803D02*
X0044548Y0120254D01*
X0044548Y0121154D01*
X0044999Y0121605D01*
X0045449Y0121605D01*
X0045449Y0119803D01*
X0044999Y0119803D02*
X0045900Y0119803D01*
X0046350Y0120254D01*
X0046350Y0121154D01*
X0045900Y0122566D02*
X0044999Y0122566D01*
X0044548Y0123016D01*
X0044548Y0124367D01*
X0043648Y0124367D02*
X0046350Y0124367D01*
X0046350Y0123016D01*
X0045900Y0122566D01*
X0045900Y0128090D02*
X0044548Y0128090D01*
X0045900Y0128090D02*
X0046350Y0128541D01*
X0046350Y0129892D01*
X0044548Y0129892D01*
X0044548Y0130853D02*
X0044548Y0132204D01*
X0044999Y0132654D01*
X0046350Y0132654D01*
X0045900Y0133615D02*
X0044999Y0133615D01*
X0044548Y0134065D01*
X0044548Y0135417D01*
X0043648Y0135417D02*
X0046350Y0135417D01*
X0046350Y0134065D01*
X0045900Y0133615D01*
X0045900Y0136377D02*
X0044999Y0136377D01*
X0044548Y0136828D01*
X0044548Y0137729D01*
X0044999Y0138179D01*
X0045449Y0138179D01*
X0045449Y0136377D01*
X0045900Y0136377D02*
X0046350Y0136828D01*
X0046350Y0137729D01*
X0046350Y0139140D02*
X0044548Y0139140D01*
X0044548Y0140041D02*
X0044548Y0140491D01*
X0044548Y0140041D02*
X0045449Y0139140D01*
X0045900Y0144204D02*
X0044098Y0144204D01*
X0043648Y0144654D01*
X0043648Y0145555D01*
X0044098Y0146006D01*
X0043648Y0146966D02*
X0043648Y0148768D01*
X0043648Y0149729D02*
X0043648Y0151080D01*
X0044098Y0151530D01*
X0044999Y0151530D01*
X0045449Y0151080D01*
X0045449Y0149729D01*
X0045449Y0150630D02*
X0046350Y0151530D01*
X0046350Y0152491D02*
X0043648Y0152491D01*
X0046350Y0154293D01*
X0043648Y0154293D01*
X0044098Y0158016D02*
X0043648Y0158466D01*
X0043648Y0159367D01*
X0044098Y0159817D01*
X0045900Y0159817D01*
X0046350Y0159367D01*
X0046350Y0158466D01*
X0045900Y0158016D01*
X0044098Y0158016D01*
X0043648Y0160778D02*
X0046350Y0160778D01*
X0044999Y0160778D02*
X0044999Y0162580D01*
X0043648Y0162580D02*
X0046350Y0162580D01*
X0046350Y0163541D02*
X0046350Y0165342D01*
X0046350Y0163541D02*
X0043648Y0163541D01*
X0044548Y0169065D02*
X0046350Y0169966D01*
X0044548Y0170867D01*
X0045900Y0171828D02*
X0045900Y0172278D01*
X0046350Y0172278D01*
X0046350Y0171828D01*
X0045900Y0171828D01*
X0046350Y0173209D02*
X0046350Y0175010D01*
X0046350Y0174110D02*
X0043648Y0174110D01*
X0044548Y0173209D01*
X0045900Y0175971D02*
X0045900Y0176422D01*
X0046350Y0176422D01*
X0046350Y0175971D01*
X0045900Y0175971D01*
X0046350Y0177352D02*
X0044548Y0179154D01*
X0044098Y0179154D01*
X0043648Y0178703D01*
X0043648Y0177803D01*
X0044098Y0177352D01*
X0046350Y0177352D02*
X0046350Y0179154D01*
X0022816Y0178485D02*
X0022449Y0178852D01*
X0021715Y0178852D01*
X0021348Y0178485D01*
X0020514Y0178852D02*
X0019780Y0178852D01*
X0020147Y0178852D02*
X0020147Y0177017D01*
X0019780Y0176650D01*
X0019413Y0176650D01*
X0019046Y0177017D01*
X0021348Y0176650D02*
X0022816Y0178118D01*
X0022816Y0178485D01*
X0022816Y0176650D02*
X0021348Y0176650D01*
X0043648Y0149729D02*
X0046350Y0149729D01*
X0046350Y0148768D02*
X0046350Y0146966D01*
X0043648Y0146966D01*
X0044999Y0146966D02*
X0044999Y0147867D01*
X0045900Y0146006D02*
X0046350Y0145555D01*
X0046350Y0144654D01*
X0045900Y0144204D01*
X0035350Y0143778D02*
X0035350Y0141977D01*
X0033548Y0143778D01*
X0033098Y0143778D01*
X0032648Y0143328D01*
X0032648Y0142427D01*
X0033098Y0141977D01*
X0033548Y0141016D02*
X0035350Y0140115D01*
X0033548Y0139214D01*
X0033999Y0138253D02*
X0033548Y0137803D01*
X0033548Y0136902D01*
X0033999Y0136452D01*
X0034900Y0136452D01*
X0035350Y0136902D01*
X0035350Y0137803D01*
X0034449Y0138253D02*
X0034449Y0136452D01*
X0033548Y0135501D02*
X0033548Y0135051D01*
X0034449Y0134150D01*
X0035350Y0134150D02*
X0033548Y0134150D01*
X0033999Y0138253D02*
X0034449Y0138253D01*
X0034900Y0144739D02*
X0034900Y0145189D01*
X0035350Y0145189D01*
X0035350Y0144739D01*
X0034900Y0144739D01*
X0035350Y0146120D02*
X0035350Y0147922D01*
X0035350Y0147021D02*
X0032648Y0147021D01*
X0033548Y0146120D01*
X0044548Y0130853D02*
X0046350Y0130853D01*
X0046350Y0110555D02*
X0046350Y0109204D01*
X0045900Y0108754D01*
X0044999Y0108754D01*
X0069650Y0109402D02*
X0070100Y0109852D01*
X0071001Y0109852D01*
X0071452Y0109402D01*
X0071452Y0108952D01*
X0071001Y0108501D01*
X0071452Y0108051D01*
X0071452Y0107600D01*
X0071001Y0107150D01*
X0070100Y0107150D01*
X0069650Y0107600D01*
X0070551Y0108501D02*
X0071001Y0108501D01*
X0072863Y0107600D02*
X0072863Y0107150D01*
X0073313Y0107150D01*
X0073313Y0107600D01*
X0072863Y0107600D01*
X0073313Y0107150D02*
X0072412Y0106249D01*
X0074254Y0107600D02*
X0074704Y0107150D01*
X0075605Y0107150D01*
X0076055Y0107600D01*
X0076055Y0108051D01*
X0075605Y0108501D01*
X0075155Y0108501D01*
X0075605Y0108501D02*
X0076055Y0108952D01*
X0076055Y0109402D01*
X0075605Y0109852D01*
X0074704Y0109852D01*
X0074254Y0109402D01*
X0079779Y0109402D02*
X0080229Y0109852D01*
X0081130Y0109852D01*
X0081580Y0109402D01*
X0081580Y0108952D01*
X0081130Y0108501D01*
X0081580Y0108051D01*
X0081580Y0107600D01*
X0081130Y0107150D01*
X0080229Y0107150D01*
X0079779Y0107600D01*
X0080679Y0108501D02*
X0081130Y0108501D01*
X0082991Y0107600D02*
X0082991Y0107150D01*
X0083442Y0107150D01*
X0083442Y0107600D01*
X0082991Y0107600D01*
X0083442Y0107150D02*
X0082541Y0106249D01*
X0084383Y0107600D02*
X0084833Y0107150D01*
X0085734Y0107150D01*
X0086184Y0107600D01*
X0086184Y0108051D01*
X0085734Y0108501D01*
X0085283Y0108501D01*
X0085734Y0108501D02*
X0086184Y0108952D01*
X0086184Y0109402D01*
X0085734Y0109852D01*
X0084833Y0109852D01*
X0084383Y0109402D01*
X0089907Y0109852D02*
X0089907Y0108051D01*
X0090808Y0107150D01*
X0091709Y0108051D01*
X0091709Y0109852D01*
X0092670Y0108501D02*
X0093120Y0108952D01*
X0094471Y0108952D01*
X0095432Y0108501D02*
X0095432Y0107600D01*
X0095882Y0107150D01*
X0097234Y0107150D01*
X0097234Y0108952D02*
X0095882Y0108952D01*
X0095432Y0108501D01*
X0094471Y0107150D02*
X0093120Y0107150D01*
X0092670Y0107600D01*
X0092670Y0108501D01*
X0100957Y0107600D02*
X0101407Y0107150D01*
X0102308Y0107150D01*
X0102758Y0107600D01*
X0102758Y0108501D01*
X0101857Y0108501D01*
X0100957Y0109402D02*
X0100957Y0107600D01*
X0100957Y0109402D02*
X0101407Y0109852D01*
X0102308Y0109852D01*
X0102758Y0109402D01*
X0103719Y0109852D02*
X0103719Y0107150D01*
X0105521Y0107150D02*
X0103719Y0109852D01*
X0105521Y0109852D02*
X0105521Y0107150D01*
X0106481Y0107150D02*
X0107833Y0107150D01*
X0108283Y0107600D01*
X0108283Y0109402D01*
X0107833Y0109852D01*
X0106481Y0109852D01*
X0106481Y0107150D01*
X0106125Y0101852D02*
X0107476Y0101852D01*
X0107927Y0101402D01*
X0107927Y0100501D01*
X0107476Y0100051D01*
X0106125Y0100051D01*
X0106125Y0099150D02*
X0106125Y0101852D01*
X0107026Y0100051D02*
X0107927Y0099150D01*
X0108888Y0099600D02*
X0109338Y0099150D01*
X0110239Y0099150D01*
X0110689Y0099600D01*
X0110689Y0100051D01*
X0110239Y0100501D01*
X0109788Y0100501D01*
X0110239Y0100501D02*
X0110689Y0100952D01*
X0110689Y0101402D01*
X0110239Y0101852D01*
X0109338Y0101852D01*
X0108888Y0101402D01*
X0114125Y0099402D02*
X0114125Y0097600D01*
X0114576Y0097150D01*
X0115476Y0097150D01*
X0115927Y0097600D01*
X0116888Y0097150D02*
X0118689Y0097150D01*
X0117788Y0097150D02*
X0117788Y0099852D01*
X0116888Y0098952D01*
X0115927Y0099402D02*
X0115476Y0099852D01*
X0114576Y0099852D01*
X0114125Y0099402D01*
X0122125Y0099852D02*
X0122125Y0097150D01*
X0122125Y0098051D02*
X0123476Y0098051D01*
X0123927Y0098501D01*
X0123927Y0099402D01*
X0123476Y0099852D01*
X0122125Y0099852D01*
X0123026Y0098051D02*
X0123927Y0097150D01*
X0124888Y0097150D02*
X0126689Y0097150D01*
X0125788Y0097150D02*
X0125788Y0099852D01*
X0124888Y0098952D01*
X0131125Y0099852D02*
X0131125Y0097150D01*
X0131125Y0098051D02*
X0132476Y0098051D01*
X0132927Y0098501D01*
X0132927Y0099402D01*
X0132476Y0099852D01*
X0131125Y0099852D01*
X0132026Y0098051D02*
X0132927Y0097150D01*
X0133888Y0097150D02*
X0135689Y0098952D01*
X0135689Y0099402D01*
X0135239Y0099852D01*
X0134338Y0099852D01*
X0133888Y0099402D01*
X0133888Y0097150D02*
X0135689Y0097150D01*
X0101689Y0097600D02*
X0101239Y0097150D01*
X0100338Y0097150D01*
X0099888Y0097600D01*
X0099888Y0098501D02*
X0100788Y0098952D01*
X0101239Y0098952D01*
X0101689Y0098501D01*
X0101689Y0097600D01*
X0099888Y0098501D02*
X0099888Y0099852D01*
X0101689Y0099852D01*
X0098927Y0099402D02*
X0098927Y0098501D01*
X0098476Y0098051D01*
X0097125Y0098051D01*
X0097125Y0097150D02*
X0097125Y0099852D01*
X0098476Y0099852D01*
X0098927Y0099402D01*
X0098026Y0098051D02*
X0098927Y0097150D01*
X0092689Y0098501D02*
X0090888Y0098501D01*
X0092239Y0099852D01*
X0092239Y0097150D01*
X0089927Y0097150D02*
X0089026Y0098051D01*
X0089476Y0098051D02*
X0088125Y0098051D01*
X0088125Y0097150D02*
X0088125Y0099852D01*
X0089476Y0099852D01*
X0089927Y0099402D01*
X0089927Y0098501D01*
X0089476Y0098051D01*
X0084689Y0098952D02*
X0084689Y0099402D01*
X0084239Y0099852D01*
X0083338Y0099852D01*
X0082888Y0099402D01*
X0081927Y0099402D02*
X0081476Y0099852D01*
X0080576Y0099852D01*
X0080125Y0099402D01*
X0080125Y0097600D01*
X0080576Y0097150D01*
X0081476Y0097150D01*
X0081927Y0097600D01*
X0082888Y0097150D02*
X0084689Y0098952D01*
X0084689Y0097150D02*
X0082888Y0097150D01*
X0076689Y0097600D02*
X0076689Y0098051D01*
X0076239Y0098501D01*
X0074888Y0098501D01*
X0074888Y0097600D01*
X0075338Y0097150D01*
X0076239Y0097150D01*
X0076689Y0097600D01*
X0074888Y0098501D02*
X0075788Y0099402D01*
X0076689Y0099852D01*
X0073927Y0099402D02*
X0073927Y0098501D01*
X0073476Y0098051D01*
X0072125Y0098051D01*
X0072125Y0097150D02*
X0072125Y0099852D01*
X0073476Y0099852D01*
X0073927Y0099402D01*
X0073026Y0098051D02*
X0073927Y0097150D01*
X0082150Y0141650D02*
X0083051Y0141650D01*
X0082600Y0141650D02*
X0082600Y0144352D01*
X0082150Y0144352D02*
X0083051Y0144352D01*
X0083992Y0143902D02*
X0083992Y0142100D01*
X0084442Y0141650D01*
X0085343Y0141650D01*
X0085793Y0142100D01*
X0086754Y0142100D02*
X0087204Y0141650D01*
X0088105Y0141650D01*
X0088555Y0142100D01*
X0088555Y0142551D01*
X0088105Y0143001D01*
X0087655Y0143001D01*
X0088105Y0143001D02*
X0088555Y0143452D01*
X0088555Y0143902D01*
X0088105Y0144352D01*
X0087204Y0144352D01*
X0086754Y0143902D01*
X0085793Y0143902D02*
X0085343Y0144352D01*
X0084442Y0144352D01*
X0083992Y0143902D01*
X0083888Y0159150D02*
X0083888Y0161852D01*
X0085689Y0159150D01*
X0085689Y0161852D01*
X0082947Y0161852D02*
X0082046Y0161852D01*
X0082496Y0161852D02*
X0082496Y0159150D01*
X0082046Y0159150D02*
X0082947Y0159150D01*
X0081085Y0159600D02*
X0080635Y0159150D01*
X0079734Y0159150D01*
X0079284Y0159600D01*
X0079284Y0161402D01*
X0079734Y0161852D01*
X0080635Y0161852D01*
X0081085Y0161402D01*
X0075214Y0162402D02*
X0073412Y0160600D01*
X0073412Y0160150D01*
X0072452Y0160150D02*
X0071551Y0161051D01*
X0072001Y0161051D02*
X0070650Y0161051D01*
X0070650Y0160150D02*
X0070650Y0162852D01*
X0072001Y0162852D01*
X0072452Y0162402D01*
X0072452Y0161501D01*
X0072001Y0161051D01*
X0073412Y0162852D02*
X0075214Y0162852D01*
X0075214Y0162402D01*
X0101650Y0164650D02*
X0102551Y0164650D01*
X0102100Y0164650D02*
X0102100Y0167352D01*
X0101650Y0167352D02*
X0102551Y0167352D01*
X0103492Y0166902D02*
X0103492Y0165100D01*
X0103942Y0164650D01*
X0104843Y0164650D01*
X0105293Y0165100D01*
X0106254Y0164650D02*
X0108055Y0164650D01*
X0107155Y0164650D02*
X0107155Y0167352D01*
X0106254Y0166452D01*
X0105293Y0166902D02*
X0104843Y0167352D01*
X0103942Y0167352D01*
X0103492Y0166902D01*
X0107051Y0161852D02*
X0106601Y0161402D01*
X0106601Y0159600D01*
X0107051Y0159150D01*
X0107952Y0159150D01*
X0108402Y0159600D01*
X0109363Y0159600D02*
X0109813Y0159150D01*
X0110714Y0159150D01*
X0111164Y0159600D01*
X0111164Y0161402D01*
X0110714Y0161852D01*
X0109813Y0161852D01*
X0109363Y0161402D01*
X0109363Y0159600D01*
X0108402Y0161402D02*
X0107952Y0161852D01*
X0107051Y0161852D01*
X0112125Y0161852D02*
X0112125Y0159600D01*
X0112576Y0159150D01*
X0113476Y0159150D01*
X0113927Y0159600D01*
X0113927Y0161852D01*
X0114888Y0161852D02*
X0116689Y0161852D01*
X0115788Y0161852D02*
X0115788Y0159150D01*
X0121148Y0158888D02*
X0121148Y0160689D01*
X0122499Y0159788D02*
X0122499Y0158888D01*
X0122499Y0157927D02*
X0122949Y0157476D01*
X0122949Y0156125D01*
X0123850Y0156125D02*
X0121148Y0156125D01*
X0121148Y0157476D01*
X0121598Y0157927D01*
X0122499Y0157927D01*
X0122949Y0157026D02*
X0123850Y0157927D01*
X0123850Y0158888D02*
X0121148Y0158888D01*
X0121148Y0155164D02*
X0123850Y0155164D01*
X0121148Y0153363D01*
X0123850Y0153363D01*
X0122499Y0152402D02*
X0122499Y0150601D01*
X0123400Y0149640D02*
X0123850Y0149189D01*
X0123850Y0148289D01*
X0123400Y0147838D01*
X0121598Y0147838D01*
X0121148Y0148289D01*
X0121148Y0149189D01*
X0121598Y0149640D01*
X0127463Y0189468D02*
X0127463Y0191937D01*
X0126229Y0190702D02*
X0128698Y0190702D01*
X0096698Y0190702D02*
X0094229Y0190702D01*
X0095463Y0191937D02*
X0095463Y0189468D01*
X0176194Y0082352D02*
X0177095Y0082352D01*
X0177546Y0081902D01*
X0177546Y0081452D01*
X0177095Y0081001D01*
X0177546Y0080551D01*
X0177546Y0080100D01*
X0177095Y0079650D01*
X0176194Y0079650D01*
X0175744Y0080100D01*
X0176645Y0081001D02*
X0177095Y0081001D01*
X0175744Y0081902D02*
X0176194Y0082352D01*
X0178506Y0080100D02*
X0178957Y0080100D01*
X0178957Y0079650D01*
X0178506Y0079650D01*
X0178506Y0080100D01*
X0179888Y0080100D02*
X0180338Y0079650D01*
X0181239Y0079650D01*
X0181689Y0080100D01*
X0181689Y0080551D01*
X0181239Y0081001D01*
X0180788Y0081001D01*
X0181239Y0081001D02*
X0181689Y0081452D01*
X0181689Y0081902D01*
X0181239Y0082352D01*
X0180338Y0082352D01*
X0179888Y0081902D01*
X0180999Y0055387D02*
X0180999Y0053585D01*
X0179648Y0054936D01*
X0182350Y0054936D01*
X0181900Y0052624D02*
X0180098Y0052624D01*
X0179648Y0052174D01*
X0179648Y0050823D01*
X0182350Y0050823D01*
X0182350Y0052174D01*
X0181900Y0052624D01*
X0181900Y0047100D02*
X0180999Y0047100D01*
X0180548Y0046649D01*
X0180548Y0046199D01*
X0180999Y0045298D01*
X0179648Y0045298D01*
X0179648Y0047100D01*
X0181900Y0047100D02*
X0182350Y0046649D01*
X0182350Y0045749D01*
X0181900Y0045298D01*
X0181900Y0044337D02*
X0180098Y0044337D01*
X0179648Y0043887D01*
X0179648Y0042536D01*
X0182350Y0042536D01*
X0182350Y0043887D01*
X0181900Y0044337D01*
X0175350Y0037551D02*
X0174900Y0038001D01*
X0173999Y0038001D01*
X0173548Y0037551D01*
X0173548Y0037100D01*
X0173999Y0036199D01*
X0172648Y0036199D01*
X0172648Y0038001D01*
X0174900Y0036199D02*
X0175350Y0036650D01*
X0175350Y0037551D01*
X0175350Y0035239D02*
X0173548Y0035239D01*
X0172648Y0034338D01*
X0173548Y0033437D01*
X0175350Y0033437D01*
X0173999Y0033437D02*
X0173999Y0035239D01*
X0173999Y0032476D02*
X0173999Y0030675D01*
X0173999Y0029714D02*
X0173999Y0027912D01*
X0172648Y0029263D01*
X0175350Y0029263D01*
X0175350Y0026952D02*
X0173548Y0026952D01*
X0172648Y0026051D01*
X0173548Y0025150D01*
X0175350Y0025150D01*
X0173999Y0025150D02*
X0173999Y0026952D01*
X0179648Y0027763D02*
X0179648Y0025962D01*
X0180098Y0025001D02*
X0179648Y0024551D01*
X0179648Y0023199D01*
X0182350Y0023199D01*
X0182350Y0024551D01*
X0181900Y0025001D01*
X0180098Y0025001D01*
X0181900Y0025962D02*
X0180098Y0027763D01*
X0179648Y0027763D01*
X0181900Y0025962D02*
X0182350Y0025962D01*
X0182350Y0031486D02*
X0179648Y0031486D01*
X0179648Y0032838D01*
X0180098Y0033288D01*
X0181900Y0033288D01*
X0182350Y0032838D01*
X0182350Y0031486D01*
X0181900Y0034249D02*
X0180999Y0034249D01*
X0180999Y0035600D01*
X0181449Y0036050D01*
X0181900Y0036050D01*
X0182350Y0035600D01*
X0182350Y0034699D01*
X0181900Y0034249D01*
X0180999Y0034249D02*
X0180098Y0035150D01*
X0179648Y0036050D01*
X0180098Y0016714D02*
X0180548Y0016714D01*
X0180999Y0016263D01*
X0180999Y0015363D01*
X0180548Y0014912D01*
X0180098Y0014912D01*
X0179648Y0015363D01*
X0179648Y0016263D01*
X0180098Y0016714D01*
X0180999Y0016263D02*
X0181449Y0016714D01*
X0181900Y0016714D01*
X0182350Y0016263D01*
X0182350Y0015363D01*
X0181900Y0014912D01*
X0181449Y0014912D01*
X0180999Y0015363D01*
X0181900Y0013952D02*
X0180098Y0013952D01*
X0179648Y0013501D01*
X0179648Y0012150D01*
X0182350Y0012150D01*
X0182350Y0013501D01*
X0181900Y0013952D01*
X0077844Y0017050D02*
X0075909Y0017050D01*
X0076877Y0017050D02*
X0076877Y0019952D01*
X0075909Y0018985D01*
X0074920Y0017534D02*
X0074920Y0017050D01*
X0074436Y0017050D01*
X0074436Y0017534D01*
X0074920Y0017534D01*
X0073425Y0017050D02*
X0071490Y0017050D01*
X0073425Y0018985D01*
X0073425Y0019469D01*
X0072941Y0019952D01*
X0071973Y0019952D01*
X0071490Y0019469D01*
X0070478Y0018985D02*
X0069511Y0017050D01*
X0068543Y0018985D01*
X0037209Y0005652D02*
X0035541Y0003150D01*
X0034631Y0003150D02*
X0033797Y0003984D01*
X0034214Y0003984D02*
X0032963Y0003984D01*
X0032963Y0003150D02*
X0032963Y0005652D01*
X0034214Y0005652D01*
X0034631Y0005235D01*
X0034631Y0004401D01*
X0034214Y0003984D01*
X0035541Y0005652D02*
X0037209Y0003150D01*
X0026896Y0003150D02*
X0025228Y0005652D01*
X0024318Y0005652D02*
X0022650Y0005652D01*
X0023484Y0005652D02*
X0023484Y0003150D01*
X0025228Y0003150D02*
X0026896Y0005652D01*
D94*
X0089198Y0032100D02*
X0089198Y0033201D01*
X0089565Y0033568D01*
X0090299Y0033568D01*
X0090666Y0033201D01*
X0090666Y0032100D01*
X0090666Y0032834D02*
X0091400Y0033568D01*
X0091400Y0034310D02*
X0089932Y0035778D01*
X0089565Y0035778D01*
X0089198Y0035411D01*
X0089198Y0034677D01*
X0089565Y0034310D01*
X0091400Y0034310D02*
X0091400Y0035778D01*
X0091400Y0036520D02*
X0089198Y0036520D01*
X0089198Y0037621D01*
X0089565Y0037988D01*
X0089932Y0037988D01*
X0090299Y0037621D01*
X0090299Y0036520D01*
X0090299Y0037621D02*
X0090666Y0037988D01*
X0091033Y0037988D01*
X0091400Y0037621D01*
X0091400Y0036520D01*
X0091400Y0032100D02*
X0089198Y0032100D01*
X0100198Y0032100D02*
X0100198Y0033201D01*
X0100565Y0033568D01*
X0101299Y0033568D01*
X0101666Y0033201D01*
X0101666Y0032100D01*
X0101666Y0032834D02*
X0102400Y0033568D01*
X0102033Y0034310D02*
X0102400Y0034677D01*
X0102400Y0035411D01*
X0102033Y0035778D01*
X0101666Y0035778D01*
X0101299Y0035411D01*
X0101299Y0035044D01*
X0101299Y0035411D02*
X0100932Y0035778D01*
X0100565Y0035778D01*
X0100198Y0035411D01*
X0100198Y0034677D01*
X0100565Y0034310D01*
X0100198Y0036520D02*
X0100198Y0037621D01*
X0100565Y0037988D01*
X0100932Y0037988D01*
X0101299Y0037621D01*
X0101299Y0036520D01*
X0101299Y0037621D02*
X0101666Y0037988D01*
X0102033Y0037988D01*
X0102400Y0037621D01*
X0102400Y0036520D01*
X0100198Y0036520D01*
X0100198Y0032100D02*
X0102400Y0032100D01*
X0110198Y0032100D02*
X0110198Y0033201D01*
X0110565Y0033568D01*
X0111299Y0033568D01*
X0111666Y0033201D01*
X0111666Y0032100D01*
X0111666Y0032834D02*
X0112400Y0033568D01*
X0111299Y0034310D02*
X0111299Y0035778D01*
X0111299Y0036520D02*
X0111299Y0037621D01*
X0111666Y0037988D01*
X0112033Y0037988D01*
X0112400Y0037621D01*
X0112400Y0036520D01*
X0110198Y0036520D01*
X0110198Y0037621D01*
X0110565Y0037988D01*
X0110932Y0037988D01*
X0111299Y0037621D01*
X0110198Y0035411D02*
X0111299Y0034310D01*
X0112400Y0035411D02*
X0110198Y0035411D01*
X0110198Y0032100D02*
X0112400Y0032100D01*
X0120198Y0032100D02*
X0120198Y0033201D01*
X0120565Y0033568D01*
X0121299Y0033568D01*
X0121666Y0033201D01*
X0121666Y0032100D01*
X0121666Y0032834D02*
X0122400Y0033568D01*
X0122033Y0034310D02*
X0122400Y0034677D01*
X0122400Y0035411D01*
X0122033Y0035778D01*
X0121299Y0035778D01*
X0120932Y0035411D01*
X0120932Y0035044D01*
X0121299Y0034310D01*
X0120198Y0034310D01*
X0120198Y0035778D01*
X0120198Y0036520D02*
X0120198Y0037621D01*
X0120565Y0037988D01*
X0120932Y0037988D01*
X0121299Y0037621D01*
X0121299Y0036520D01*
X0121299Y0037621D02*
X0121666Y0037988D01*
X0122033Y0037988D01*
X0122400Y0037621D01*
X0122400Y0036520D01*
X0120198Y0036520D01*
X0120198Y0032100D02*
X0122400Y0032100D01*
X0130198Y0032100D02*
X0130198Y0033201D01*
X0130565Y0033568D01*
X0131299Y0033568D01*
X0131666Y0033201D01*
X0131666Y0032100D01*
X0131666Y0032834D02*
X0132400Y0033568D01*
X0132033Y0034310D02*
X0131299Y0034310D01*
X0131299Y0035411D01*
X0131666Y0035778D01*
X0132033Y0035778D01*
X0132400Y0035411D01*
X0132400Y0034677D01*
X0132033Y0034310D01*
X0131299Y0034310D02*
X0130565Y0035044D01*
X0130198Y0035778D01*
X0130198Y0036520D02*
X0130198Y0037621D01*
X0130565Y0037988D01*
X0130932Y0037988D01*
X0131299Y0037621D01*
X0131299Y0036520D01*
X0131299Y0037621D02*
X0131666Y0037988D01*
X0132033Y0037988D01*
X0132400Y0037621D01*
X0132400Y0036520D01*
X0130198Y0036520D01*
X0130198Y0032100D02*
X0132400Y0032100D01*
X0140198Y0032100D02*
X0140198Y0033201D01*
X0140565Y0033568D01*
X0141299Y0033568D01*
X0141666Y0033201D01*
X0141666Y0032100D01*
X0141666Y0032834D02*
X0142400Y0033568D01*
X0142400Y0034310D02*
X0142033Y0034310D01*
X0140565Y0035778D01*
X0140198Y0035778D01*
X0140198Y0034310D01*
X0140198Y0036520D02*
X0140198Y0037621D01*
X0140565Y0037988D01*
X0140932Y0037988D01*
X0141299Y0037621D01*
X0141299Y0036520D01*
X0141299Y0037621D02*
X0141666Y0037988D01*
X0142033Y0037988D01*
X0142400Y0037621D01*
X0142400Y0036520D01*
X0140198Y0036520D01*
X0140198Y0032100D02*
X0142400Y0032100D01*
X0150198Y0032100D02*
X0150198Y0033201D01*
X0150565Y0033568D01*
X0151299Y0033568D01*
X0151666Y0033201D01*
X0151666Y0032100D01*
X0151666Y0032834D02*
X0152400Y0033568D01*
X0152033Y0034310D02*
X0151666Y0034310D01*
X0151299Y0034677D01*
X0151299Y0035411D01*
X0151666Y0035778D01*
X0152033Y0035778D01*
X0152400Y0035411D01*
X0152400Y0034677D01*
X0152033Y0034310D01*
X0151299Y0034677D02*
X0150932Y0034310D01*
X0150565Y0034310D01*
X0150198Y0034677D01*
X0150198Y0035411D01*
X0150565Y0035778D01*
X0150932Y0035778D01*
X0151299Y0035411D01*
X0151299Y0036520D02*
X0151299Y0037621D01*
X0151666Y0037988D01*
X0152033Y0037988D01*
X0152400Y0037621D01*
X0152400Y0036520D01*
X0150198Y0036520D01*
X0150198Y0037621D01*
X0150565Y0037988D01*
X0150932Y0037988D01*
X0151299Y0037621D01*
X0152400Y0032100D02*
X0150198Y0032100D01*
X0147124Y0111500D02*
X0147124Y0113702D01*
X0146390Y0113702D02*
X0147858Y0113702D01*
X0145648Y0113702D02*
X0145648Y0111500D01*
X0144180Y0113702D01*
X0144180Y0111500D01*
X0143438Y0111500D02*
X0143438Y0112968D01*
X0142704Y0113702D01*
X0141970Y0112968D01*
X0141970Y0111500D01*
X0141970Y0112601D02*
X0143438Y0112601D01*
X0119033Y0140100D02*
X0119400Y0140467D01*
X0119400Y0141201D01*
X0119033Y0141568D01*
X0118299Y0141568D01*
X0117932Y0141201D01*
X0117932Y0140834D01*
X0118299Y0140100D01*
X0117198Y0140100D01*
X0117198Y0141568D01*
X0117198Y0142310D02*
X0118666Y0142310D01*
X0119400Y0143044D01*
X0118666Y0143778D01*
X0117198Y0143778D01*
X0117565Y0160100D02*
X0117198Y0160467D01*
X0117198Y0161201D01*
X0117565Y0161568D01*
X0117932Y0161568D01*
X0118299Y0161201D01*
X0118666Y0161568D01*
X0119033Y0161568D01*
X0119400Y0161201D01*
X0119400Y0160467D01*
X0119033Y0160100D01*
X0118299Y0160834D02*
X0118299Y0161201D01*
X0119033Y0162677D02*
X0119400Y0162677D01*
X0119400Y0163044D01*
X0119033Y0163044D01*
X0119033Y0162677D01*
X0119400Y0163044D02*
X0120134Y0162310D01*
X0119033Y0163783D02*
X0119400Y0164150D01*
X0119400Y0164884D01*
X0119033Y0165251D01*
X0118666Y0165251D01*
X0118299Y0164884D01*
X0118299Y0164517D01*
X0118299Y0164884D02*
X0117932Y0165251D01*
X0117565Y0165251D01*
X0117198Y0164884D01*
X0117198Y0164150D01*
X0117565Y0163783D01*
X0117198Y0165993D02*
X0118666Y0165993D01*
X0119400Y0166727D01*
X0118666Y0167461D01*
X0117198Y0167461D01*
X0113964Y0171100D02*
X0114698Y0171834D01*
X0114698Y0173302D01*
X0113230Y0173302D02*
X0113230Y0171834D01*
X0113964Y0171100D01*
X0112488Y0171467D02*
X0112121Y0171100D01*
X0111387Y0171100D01*
X0111020Y0171467D01*
X0111020Y0172201D02*
X0111754Y0172568D01*
X0112121Y0172568D01*
X0112488Y0172201D01*
X0112488Y0171467D01*
X0111020Y0172201D02*
X0111020Y0173302D01*
X0112488Y0173302D01*
X0108068Y0172201D02*
X0106600Y0172201D01*
X0117649Y0172201D02*
X0119117Y0172201D01*
X0118383Y0172935D02*
X0118383Y0171467D01*
X0092327Y0172201D02*
X0090859Y0172201D01*
X0091593Y0172935D02*
X0091593Y0171467D01*
X0087907Y0173302D02*
X0086440Y0173302D01*
X0087173Y0173302D02*
X0087173Y0171100D01*
X0085698Y0171100D02*
X0085698Y0172568D01*
X0084964Y0173302D01*
X0084230Y0172568D01*
X0084230Y0171100D01*
X0083488Y0171467D02*
X0083121Y0171100D01*
X0082020Y0171100D01*
X0082020Y0173302D01*
X0083121Y0173302D01*
X0083488Y0172935D01*
X0083488Y0172568D01*
X0083121Y0172201D01*
X0082020Y0172201D01*
X0083121Y0172201D02*
X0083488Y0171834D01*
X0083488Y0171467D01*
X0084230Y0172201D02*
X0085698Y0172201D01*
X0079068Y0172201D02*
X0077600Y0172201D01*
X0058751Y0185201D02*
X0057283Y0185201D01*
X0058017Y0185935D02*
X0058017Y0184467D01*
X0056541Y0184100D02*
X0056541Y0186302D01*
X0055073Y0186302D02*
X0055073Y0184100D01*
X0054334Y0184100D02*
X0053600Y0184100D01*
X0053967Y0184100D02*
X0053967Y0186302D01*
X0053600Y0186302D02*
X0054334Y0186302D01*
X0055073Y0186302D02*
X0056541Y0184100D01*
X0049951Y0189350D02*
X0049951Y0191218D01*
X0049951Y0190284D02*
X0050885Y0191218D01*
X0051353Y0191218D01*
X0049057Y0190751D02*
X0049057Y0190284D01*
X0047189Y0190284D01*
X0047189Y0189817D02*
X0047189Y0190751D01*
X0047656Y0191218D01*
X0048590Y0191218D01*
X0049057Y0190751D01*
X0048590Y0189350D02*
X0047656Y0189350D01*
X0047189Y0189817D01*
X0046295Y0189350D02*
X0044894Y0189350D01*
X0044427Y0189817D01*
X0044427Y0190751D01*
X0044894Y0191218D01*
X0046295Y0191218D01*
X0046295Y0188883D01*
X0045828Y0188416D01*
X0045361Y0188416D01*
X0043526Y0191218D02*
X0043059Y0191218D01*
X0042125Y0190284D01*
X0041231Y0190284D02*
X0039829Y0190284D01*
X0039362Y0189817D01*
X0039829Y0189350D01*
X0041231Y0189350D01*
X0041231Y0190751D01*
X0040764Y0191218D01*
X0039829Y0191218D01*
X0038468Y0190751D02*
X0038468Y0189350D01*
X0038468Y0190751D02*
X0038001Y0191218D01*
X0037067Y0191218D01*
X0036600Y0190751D01*
X0035706Y0191218D02*
X0034305Y0191218D01*
X0033838Y0190751D01*
X0033838Y0189817D01*
X0034305Y0189350D01*
X0035706Y0189350D01*
X0036600Y0189350D02*
X0036600Y0192152D01*
X0036620Y0193850D02*
X0035686Y0193850D01*
X0035219Y0194317D01*
X0035219Y0195251D01*
X0036620Y0195251D01*
X0037087Y0194784D01*
X0037087Y0194317D01*
X0036620Y0193850D01*
X0035219Y0195251D02*
X0036153Y0196185D01*
X0037087Y0196652D01*
X0034325Y0196652D02*
X0032456Y0196652D01*
X0032456Y0195251D01*
X0033391Y0195718D01*
X0033858Y0195718D01*
X0034325Y0195251D01*
X0034325Y0194317D01*
X0033858Y0193850D01*
X0032923Y0193850D01*
X0032456Y0194317D01*
X0031562Y0194317D02*
X0031562Y0196185D01*
X0029694Y0194317D01*
X0030161Y0193850D01*
X0031095Y0193850D01*
X0031562Y0194317D01*
X0029694Y0194317D02*
X0029694Y0196185D01*
X0030161Y0196652D01*
X0031095Y0196652D01*
X0031562Y0196185D01*
X0028800Y0195251D02*
X0026932Y0195251D01*
X0028333Y0196652D01*
X0028333Y0193850D01*
X0028780Y0192152D02*
X0028313Y0191685D01*
X0028313Y0189817D01*
X0028780Y0189350D01*
X0029714Y0189350D01*
X0030181Y0189817D01*
X0030181Y0191685D01*
X0029714Y0192152D01*
X0028780Y0192152D01*
X0027419Y0191685D02*
X0027419Y0190751D01*
X0026952Y0190284D01*
X0025551Y0190284D01*
X0025551Y0189350D02*
X0025551Y0192152D01*
X0026952Y0192152D01*
X0027419Y0191685D01*
X0024643Y0192152D02*
X0023709Y0192152D01*
X0024176Y0192152D02*
X0024176Y0189350D01*
X0023709Y0189350D02*
X0024643Y0189350D01*
X0022815Y0189350D02*
X0020947Y0189350D01*
X0020947Y0192152D01*
X0022341Y0193850D02*
X0022341Y0196652D01*
X0021407Y0196652D02*
X0023275Y0196652D01*
X0024169Y0196652D02*
X0024169Y0193850D01*
X0024169Y0194784D02*
X0025571Y0194784D01*
X0026038Y0195251D01*
X0026038Y0196185D01*
X0025571Y0196652D01*
X0024169Y0196652D01*
X0040743Y0196652D02*
X0040743Y0194317D01*
X0041211Y0193850D01*
X0042145Y0193850D01*
X0042612Y0194317D01*
X0042612Y0196652D01*
X0043506Y0196185D02*
X0043506Y0195718D01*
X0043973Y0195251D01*
X0044907Y0195251D01*
X0045374Y0194784D01*
X0045374Y0194317D01*
X0044907Y0193850D01*
X0043973Y0193850D01*
X0043506Y0194317D01*
X0043506Y0196185D02*
X0043973Y0196652D01*
X0044907Y0196652D01*
X0045374Y0196185D01*
X0046268Y0196652D02*
X0046268Y0193850D01*
X0047669Y0193850D01*
X0048136Y0194317D01*
X0048136Y0194784D01*
X0047669Y0195251D01*
X0046268Y0195251D01*
X0047669Y0195251D02*
X0048136Y0195718D01*
X0048136Y0196185D01*
X0047669Y0196652D01*
X0046268Y0196652D01*
X0042125Y0191218D02*
X0042125Y0189350D01*
X0013751Y0179201D02*
X0012283Y0179201D01*
X0011541Y0178100D02*
X0011541Y0180302D01*
X0010073Y0180302D02*
X0011541Y0178100D01*
X0010073Y0178100D02*
X0010073Y0180302D01*
X0009334Y0180302D02*
X0008600Y0180302D01*
X0008967Y0180302D02*
X0008967Y0178100D01*
X0008600Y0178100D02*
X0009334Y0178100D01*
X0010020Y0122302D02*
X0011488Y0122302D01*
X0010754Y0122302D02*
X0010754Y0120100D01*
X0009278Y0120100D02*
X0009278Y0121568D01*
X0008544Y0122302D01*
X0007810Y0121568D01*
X0007810Y0120100D01*
X0007068Y0120467D02*
X0006701Y0120100D01*
X0005600Y0120100D01*
X0005600Y0122302D01*
X0006701Y0122302D01*
X0007068Y0121935D01*
X0007068Y0121568D01*
X0006701Y0121201D01*
X0005600Y0121201D01*
X0006701Y0121201D02*
X0007068Y0120834D01*
X0007068Y0120467D01*
X0007810Y0121201D02*
X0009278Y0121201D01*
X0012230Y0121201D02*
X0013698Y0121201D01*
X0019000Y0077502D02*
X0019801Y0077502D01*
X0020201Y0077102D01*
X0020201Y0076701D01*
X0019801Y0076301D01*
X0020201Y0075901D01*
X0020201Y0075500D01*
X0019801Y0075100D01*
X0019000Y0075100D01*
X0018600Y0075500D01*
X0019401Y0076301D02*
X0019801Y0076301D01*
X0018600Y0077102D02*
X0019000Y0077502D01*
X0021394Y0075500D02*
X0021394Y0075100D01*
X0021795Y0075100D01*
X0021795Y0075500D01*
X0021394Y0075500D01*
X0021795Y0075100D02*
X0020994Y0074299D01*
X0022590Y0075500D02*
X0022990Y0075100D01*
X0023791Y0075100D01*
X0024191Y0075500D01*
X0024191Y0075901D01*
X0023791Y0076301D01*
X0023391Y0076301D01*
X0023791Y0076301D02*
X0024191Y0076701D01*
X0024191Y0077102D01*
X0023791Y0077502D01*
X0022990Y0077502D01*
X0022590Y0077102D01*
X0027378Y0077102D02*
X0027378Y0075500D01*
X0027778Y0075100D01*
X0028579Y0075100D01*
X0028980Y0075500D01*
X0028980Y0076301D01*
X0028179Y0076301D01*
X0028980Y0077102D02*
X0028579Y0077502D01*
X0027778Y0077502D01*
X0027378Y0077102D01*
X0029772Y0077502D02*
X0029772Y0075100D01*
X0031374Y0075100D02*
X0029772Y0077502D01*
X0031374Y0077502D02*
X0031374Y0075100D01*
X0032166Y0075100D02*
X0032166Y0077502D01*
X0033367Y0077502D01*
X0033768Y0077102D01*
X0033768Y0075500D01*
X0033367Y0075100D01*
X0032166Y0075100D01*
X0036954Y0075100D02*
X0036954Y0076701D01*
X0037755Y0077502D01*
X0038556Y0076701D01*
X0038556Y0075100D01*
X0039348Y0075500D02*
X0039749Y0075100D01*
X0040549Y0075100D01*
X0040950Y0075500D01*
X0040950Y0076301D01*
X0040549Y0076701D01*
X0040149Y0076701D01*
X0039348Y0076301D01*
X0039348Y0077502D01*
X0040950Y0077502D01*
X0038556Y0076301D02*
X0036954Y0076301D01*
X0044136Y0076301D02*
X0045738Y0076301D01*
X0045738Y0076701D02*
X0045738Y0075100D01*
X0046531Y0076301D02*
X0047732Y0077502D01*
X0047732Y0075100D01*
X0048132Y0076301D02*
X0046531Y0076301D01*
X0045738Y0076701D02*
X0044937Y0077502D01*
X0044136Y0076701D01*
X0044136Y0075100D01*
X0059600Y0120100D02*
X0060701Y0120100D01*
X0061068Y0120467D01*
X0061068Y0120834D01*
X0060701Y0121201D01*
X0059600Y0121201D01*
X0059600Y0122302D02*
X0060701Y0122302D01*
X0061068Y0121935D01*
X0061068Y0121568D01*
X0060701Y0121201D01*
X0061810Y0121201D02*
X0063278Y0121201D01*
X0063278Y0121568D02*
X0063278Y0120100D01*
X0063278Y0121568D02*
X0062544Y0122302D01*
X0061810Y0121568D01*
X0061810Y0120100D01*
X0064754Y0120100D02*
X0064754Y0122302D01*
X0064020Y0122302D02*
X0065488Y0122302D01*
X0066230Y0121201D02*
X0067698Y0121201D01*
X0066964Y0121935D02*
X0066964Y0120467D01*
X0059600Y0120100D02*
X0059600Y0122302D01*
X0095838Y0135567D02*
X0096305Y0135100D01*
X0097239Y0135100D01*
X0097706Y0135567D01*
X0097706Y0137435D02*
X0097239Y0137902D01*
X0096305Y0137902D01*
X0095838Y0137435D01*
X0095838Y0135567D01*
D95*
X0087701Y0150098D02*
X0087701Y0159799D01*
X0076000Y0159500D02*
X0076000Y0146500D01*
X0069000Y0146500D01*
X0069000Y0159500D01*
X0076000Y0159500D01*
X0077250Y0141500D02*
X0080250Y0141500D01*
X0080250Y0138000D01*
X0075250Y0136500D02*
X0073750Y0136500D01*
X0068750Y0138000D02*
X0068750Y0141500D01*
X0071750Y0141500D01*
X0105299Y0150098D02*
X0105299Y0159799D01*
X0133004Y0191370D02*
X0133004Y0114598D01*
X0195996Y0114598D01*
X0195996Y0191370D01*
X0133004Y0191370D01*
X0138000Y0197600D02*
X0197000Y0197600D01*
X0197000Y0172000D01*
X0138000Y0172000D01*
X0138000Y0197600D01*
X0138000Y0172000D02*
X0138000Y0083400D01*
X0197000Y0083400D01*
X0197000Y0172000D01*
X0177000Y0105000D02*
X0172000Y0105000D01*
X0169500Y0102500D01*
X0167000Y0105000D01*
X0162000Y0105000D01*
X0159500Y0102500D01*
X0157000Y0105000D01*
X0152000Y0105000D01*
X0149500Y0102500D01*
X0147000Y0105000D01*
X0142000Y0105000D01*
X0139500Y0102500D01*
X0139500Y0087500D01*
X0142000Y0085000D01*
X0147000Y0085000D01*
X0149500Y0087500D01*
X0152000Y0085000D01*
X0157000Y0085000D01*
X0159500Y0087500D01*
X0162000Y0085000D01*
X0167000Y0085000D01*
X0169500Y0087500D01*
X0172000Y0085000D01*
X0177000Y0085000D01*
X0179500Y0087500D01*
X0179500Y0092500D01*
X0177000Y0095000D01*
X0179500Y0097500D01*
X0179500Y0102500D01*
X0177000Y0105000D01*
X0171500Y0076000D02*
X0159000Y0076000D01*
X0161500Y0073500D01*
X0164000Y0076000D01*
X0169000Y0076000D02*
X0171500Y0073500D01*
X0171500Y0076000D02*
X0171500Y0068500D01*
X0169000Y0066000D01*
X0164000Y0066000D01*
X0161500Y0068500D01*
X0159000Y0066000D01*
X0154000Y0066000D01*
X0151500Y0068500D01*
X0149000Y0066000D01*
X0144000Y0066000D01*
X0141500Y0068500D01*
X0139000Y0066000D01*
X0134000Y0066000D01*
X0131500Y0068500D01*
X0129000Y0066000D01*
X0124000Y0066000D01*
X0121500Y0068500D01*
X0119000Y0066000D01*
X0114000Y0066000D01*
X0111500Y0068500D01*
X0109000Y0066000D01*
X0104000Y0066000D01*
X0106500Y0063500D01*
X0106500Y0058500D01*
X0104000Y0056000D01*
X0099000Y0056000D01*
X0096500Y0058500D01*
X0094000Y0056000D01*
X0089000Y0056000D01*
X0086500Y0058500D01*
X0086500Y0063500D01*
X0089000Y0066000D01*
X0094000Y0066000D01*
X0096500Y0063500D01*
X0099000Y0066000D01*
X0104000Y0066000D01*
X0101500Y0068500D01*
X0099000Y0066000D01*
X0094000Y0066000D01*
X0091500Y0068500D01*
X0089000Y0066000D01*
X0084000Y0066000D01*
X0081500Y0068500D01*
X0079000Y0066000D01*
X0074000Y0066000D01*
X0071500Y0068500D01*
X0069000Y0066000D01*
X0064000Y0066000D01*
X0061500Y0068500D01*
X0059000Y0066000D01*
X0054000Y0066000D01*
X0051500Y0068500D01*
X0051500Y0073500D01*
X0054000Y0076000D01*
X0059000Y0076000D02*
X0061500Y0073500D01*
X0064000Y0076000D01*
X0069000Y0076000D02*
X0071500Y0073500D01*
X0074000Y0076000D01*
X0079000Y0076000D02*
X0081500Y0073500D01*
X0084000Y0076000D01*
X0089000Y0076000D02*
X0091500Y0073500D01*
X0094000Y0076000D01*
X0099000Y0076000D02*
X0101500Y0073500D01*
X0104000Y0076000D01*
X0109000Y0076000D02*
X0111500Y0073500D01*
X0114000Y0076000D01*
X0119000Y0076000D02*
X0121500Y0073500D01*
X0124000Y0076000D01*
X0129000Y0076000D02*
X0131500Y0073500D01*
X0134000Y0076000D01*
X0139000Y0076000D02*
X0141500Y0073500D01*
X0144000Y0076000D01*
X0079000Y0076000D01*
X0041500Y0076000D01*
X0041500Y0006000D01*
X0059000Y0006000D01*
X0061500Y0008500D01*
X0064000Y0006000D01*
X0069000Y0006000D01*
X0071500Y0008500D01*
X0074000Y0006000D01*
X0079000Y0006000D01*
X0081500Y0008500D01*
X0084000Y0006000D01*
X0089000Y0006000D01*
X0091500Y0008500D01*
X0094000Y0006000D01*
X0099000Y0006000D01*
X0101500Y0008500D01*
X0104000Y0006000D01*
X0109000Y0006000D01*
X0111500Y0008500D01*
X0114000Y0006000D01*
X0119000Y0006000D01*
X0121500Y0008500D01*
X0124000Y0006000D01*
X0129000Y0006000D01*
X0131500Y0008500D01*
X0134000Y0006000D01*
X0139000Y0006000D01*
X0141500Y0008500D01*
X0144000Y0006000D01*
X0149000Y0006000D01*
X0151500Y0008500D01*
X0154000Y0006000D01*
X0159000Y0006000D01*
X0161500Y0008500D01*
X0164000Y0006000D01*
X0171500Y0006000D01*
X0171500Y0023500D01*
X0169000Y0021000D01*
X0164000Y0021000D01*
X0161500Y0023500D01*
X0161500Y0028500D01*
X0164000Y0031000D01*
X0161500Y0033500D01*
X0161500Y0038500D01*
X0164000Y0041000D01*
X0161500Y0043500D01*
X0161500Y0048500D01*
X0164000Y0051000D01*
X0161500Y0053500D01*
X0161500Y0058500D01*
X0164000Y0061000D01*
X0169000Y0061000D01*
X0171500Y0058500D01*
X0171500Y0068500D01*
X0171500Y0058500D02*
X0171500Y0053500D01*
X0171500Y0048500D01*
X0171500Y0043500D01*
X0171500Y0038500D01*
X0169000Y0041000D01*
X0171500Y0043500D01*
X0171500Y0038500D02*
X0171500Y0033500D01*
X0171500Y0028500D01*
X0169000Y0031000D01*
X0171500Y0033500D01*
X0171500Y0028500D02*
X0171500Y0023500D01*
X0169000Y0016000D02*
X0164000Y0016000D01*
X0161500Y0013500D01*
X0159000Y0016000D01*
X0154000Y0016000D01*
X0151500Y0013500D01*
X0149000Y0016000D01*
X0144000Y0016000D01*
X0141500Y0013500D01*
X0139000Y0016000D01*
X0134000Y0016000D01*
X0131500Y0013500D01*
X0129000Y0016000D01*
X0124000Y0016000D01*
X0121500Y0013500D01*
X0119000Y0016000D01*
X0114000Y0016000D01*
X0111500Y0013500D01*
X0109000Y0016000D01*
X0104000Y0016000D01*
X0101500Y0013500D01*
X0099000Y0016000D01*
X0094000Y0016000D01*
X0091500Y0013500D01*
X0089000Y0016000D01*
X0084000Y0016000D01*
X0081500Y0013500D01*
X0079000Y0016000D01*
X0074000Y0016000D01*
X0071500Y0013500D01*
X0069000Y0016000D01*
X0064000Y0016000D01*
X0061500Y0013500D01*
X0059000Y0016000D01*
X0054000Y0016000D01*
X0051500Y0013500D01*
X0051500Y0008500D01*
X0054000Y0006000D01*
X0059000Y0006000D02*
X0064000Y0006000D01*
X0069000Y0006000D02*
X0074000Y0006000D01*
X0079000Y0006000D02*
X0084000Y0006000D01*
X0089000Y0006000D02*
X0094000Y0006000D01*
X0099000Y0006000D02*
X0104000Y0006000D01*
X0109000Y0006000D02*
X0114000Y0006000D01*
X0119000Y0006000D02*
X0124000Y0006000D01*
X0129000Y0006000D02*
X0134000Y0006000D01*
X0139000Y0006000D02*
X0144000Y0006000D01*
X0149000Y0006000D02*
X0154000Y0006000D01*
X0159000Y0006000D02*
X0164000Y0006000D01*
X0169000Y0006000D02*
X0171500Y0008500D01*
X0171500Y0013500D02*
X0169000Y0016000D01*
X0160000Y0032500D02*
X0153000Y0032500D01*
X0153000Y0045500D01*
X0160000Y0045500D01*
X0160000Y0032500D01*
X0150000Y0032500D02*
X0143000Y0032500D01*
X0143000Y0045500D01*
X0150000Y0045500D01*
X0150000Y0032500D01*
X0140000Y0032500D02*
X0133000Y0032500D01*
X0133000Y0045500D01*
X0140000Y0045500D01*
X0140000Y0032500D01*
X0130000Y0032500D02*
X0123000Y0032500D01*
X0123000Y0045500D01*
X0130000Y0045500D01*
X0130000Y0032500D01*
X0120000Y0032500D02*
X0113000Y0032500D01*
X0113000Y0045500D01*
X0120000Y0045500D01*
X0120000Y0032500D01*
X0110000Y0032500D02*
X0103000Y0032500D01*
X0103000Y0045500D01*
X0110000Y0045500D01*
X0110000Y0032500D01*
X0099000Y0032500D02*
X0099000Y0045500D01*
X0092000Y0045500D01*
X0092000Y0032500D01*
X0099000Y0032500D01*
X0144000Y0076000D02*
X0159000Y0076000D01*
X0154000Y0076000D02*
X0151500Y0073500D01*
X0149000Y0076000D01*
X0137000Y0083500D02*
X0137000Y0096500D01*
X0130000Y0096500D01*
X0130000Y0083500D01*
X0137000Y0083500D01*
X0128000Y0083500D02*
X0121000Y0083500D01*
X0121000Y0096500D01*
X0128000Y0096500D01*
X0128000Y0083500D01*
X0112000Y0083500D02*
X0112000Y0096500D01*
X0105000Y0096500D01*
X0105000Y0083500D01*
X0112000Y0083500D01*
X0103000Y0083500D02*
X0103000Y0096500D01*
X0096000Y0096500D01*
X0096000Y0083500D01*
X0103000Y0083500D01*
X0094000Y0083500D02*
X0087000Y0083500D01*
X0087000Y0096500D01*
X0094000Y0096500D01*
X0094000Y0083500D01*
X0078000Y0083500D02*
X0078000Y0096500D01*
X0071000Y0096500D01*
X0071000Y0083500D01*
X0078000Y0083500D01*
X0068000Y0099100D02*
X0003000Y0099100D01*
X0003000Y0199100D01*
X0068000Y0199100D01*
X0068000Y0099100D01*
X0021000Y0180500D02*
X0016000Y0180500D01*
X0016000Y0187500D01*
X0021000Y0187500D01*
X0021000Y0180500D01*
X0169000Y0051000D02*
X0171500Y0048500D01*
X0169000Y0051000D02*
X0171500Y0053500D01*
D96*
X0176000Y0059000D02*
X0181000Y0059000D01*
X0183500Y0061500D01*
X0183500Y0066500D01*
X0181000Y0069000D01*
X0176000Y0069000D01*
X0173500Y0066500D01*
X0173500Y0061500D01*
X0176000Y0059000D01*
X0176000Y0069000D02*
X0181000Y0069000D01*
X0183500Y0071500D01*
X0183500Y0076500D01*
X0181000Y0079000D01*
X0176000Y0079000D01*
X0173500Y0076500D01*
X0173500Y0071500D01*
X0176000Y0069000D01*
X0147800Y0104500D02*
X0146800Y0104500D01*
X0147800Y0104500D02*
X0147800Y0105500D01*
X0147800Y0109500D02*
X0147800Y0110500D01*
X0146800Y0110500D01*
X0142800Y0110500D02*
X0141800Y0110500D01*
X0141800Y0109500D01*
X0139500Y0109500D02*
X0139500Y0110500D01*
X0138500Y0110500D01*
X0134500Y0110500D02*
X0133500Y0110500D01*
X0133500Y0109500D01*
X0133500Y0105500D02*
X0133500Y0104500D01*
X0134500Y0104500D01*
X0138500Y0104500D02*
X0139500Y0104500D01*
X0139500Y0105500D01*
X0141800Y0105500D02*
X0141800Y0104500D01*
X0142800Y0104500D01*
X0110500Y0118000D02*
X0110503Y0118245D01*
X0110512Y0118491D01*
X0110527Y0118736D01*
X0110548Y0118980D01*
X0110575Y0119224D01*
X0110608Y0119467D01*
X0110647Y0119710D01*
X0110692Y0119951D01*
X0110743Y0120191D01*
X0110800Y0120430D01*
X0110862Y0120667D01*
X0110931Y0120903D01*
X0111005Y0121137D01*
X0111085Y0121369D01*
X0111170Y0121599D01*
X0111261Y0121827D01*
X0111358Y0122052D01*
X0111460Y0122276D01*
X0111568Y0122496D01*
X0111681Y0122714D01*
X0111799Y0122929D01*
X0111923Y0123141D01*
X0112051Y0123350D01*
X0112185Y0123556D01*
X0112324Y0123758D01*
X0112468Y0123957D01*
X0112617Y0124152D01*
X0112770Y0124344D01*
X0112928Y0124532D01*
X0113090Y0124716D01*
X0113258Y0124895D01*
X0113429Y0125071D01*
X0113605Y0125242D01*
X0113784Y0125410D01*
X0113968Y0125572D01*
X0114156Y0125730D01*
X0114348Y0125883D01*
X0114543Y0126032D01*
X0114742Y0126176D01*
X0114944Y0126315D01*
X0115150Y0126449D01*
X0115359Y0126577D01*
X0115571Y0126701D01*
X0115786Y0126819D01*
X0116004Y0126932D01*
X0116224Y0127040D01*
X0116448Y0127142D01*
X0116673Y0127239D01*
X0116901Y0127330D01*
X0117131Y0127415D01*
X0117363Y0127495D01*
X0117597Y0127569D01*
X0117833Y0127638D01*
X0118070Y0127700D01*
X0118309Y0127757D01*
X0118549Y0127808D01*
X0118790Y0127853D01*
X0119033Y0127892D01*
X0119276Y0127925D01*
X0119520Y0127952D01*
X0119764Y0127973D01*
X0120009Y0127988D01*
X0120255Y0127997D01*
X0120500Y0128000D01*
X0120745Y0127997D01*
X0120991Y0127988D01*
X0121236Y0127973D01*
X0121480Y0127952D01*
X0121724Y0127925D01*
X0121967Y0127892D01*
X0122210Y0127853D01*
X0122451Y0127808D01*
X0122691Y0127757D01*
X0122930Y0127700D01*
X0123167Y0127638D01*
X0123403Y0127569D01*
X0123637Y0127495D01*
X0123869Y0127415D01*
X0124099Y0127330D01*
X0124327Y0127239D01*
X0124552Y0127142D01*
X0124776Y0127040D01*
X0124996Y0126932D01*
X0125214Y0126819D01*
X0125429Y0126701D01*
X0125641Y0126577D01*
X0125850Y0126449D01*
X0126056Y0126315D01*
X0126258Y0126176D01*
X0126457Y0126032D01*
X0126652Y0125883D01*
X0126844Y0125730D01*
X0127032Y0125572D01*
X0127216Y0125410D01*
X0127395Y0125242D01*
X0127571Y0125071D01*
X0127742Y0124895D01*
X0127910Y0124716D01*
X0128072Y0124532D01*
X0128230Y0124344D01*
X0128383Y0124152D01*
X0128532Y0123957D01*
X0128676Y0123758D01*
X0128815Y0123556D01*
X0128949Y0123350D01*
X0129077Y0123141D01*
X0129201Y0122929D01*
X0129319Y0122714D01*
X0129432Y0122496D01*
X0129540Y0122276D01*
X0129642Y0122052D01*
X0129739Y0121827D01*
X0129830Y0121599D01*
X0129915Y0121369D01*
X0129995Y0121137D01*
X0130069Y0120903D01*
X0130138Y0120667D01*
X0130200Y0120430D01*
X0130257Y0120191D01*
X0130308Y0119951D01*
X0130353Y0119710D01*
X0130392Y0119467D01*
X0130425Y0119224D01*
X0130452Y0118980D01*
X0130473Y0118736D01*
X0130488Y0118491D01*
X0130497Y0118245D01*
X0130500Y0118000D01*
X0130497Y0117755D01*
X0130488Y0117509D01*
X0130473Y0117264D01*
X0130452Y0117020D01*
X0130425Y0116776D01*
X0130392Y0116533D01*
X0130353Y0116290D01*
X0130308Y0116049D01*
X0130257Y0115809D01*
X0130200Y0115570D01*
X0130138Y0115333D01*
X0130069Y0115097D01*
X0129995Y0114863D01*
X0129915Y0114631D01*
X0129830Y0114401D01*
X0129739Y0114173D01*
X0129642Y0113948D01*
X0129540Y0113724D01*
X0129432Y0113504D01*
X0129319Y0113286D01*
X0129201Y0113071D01*
X0129077Y0112859D01*
X0128949Y0112650D01*
X0128815Y0112444D01*
X0128676Y0112242D01*
X0128532Y0112043D01*
X0128383Y0111848D01*
X0128230Y0111656D01*
X0128072Y0111468D01*
X0127910Y0111284D01*
X0127742Y0111105D01*
X0127571Y0110929D01*
X0127395Y0110758D01*
X0127216Y0110590D01*
X0127032Y0110428D01*
X0126844Y0110270D01*
X0126652Y0110117D01*
X0126457Y0109968D01*
X0126258Y0109824D01*
X0126056Y0109685D01*
X0125850Y0109551D01*
X0125641Y0109423D01*
X0125429Y0109299D01*
X0125214Y0109181D01*
X0124996Y0109068D01*
X0124776Y0108960D01*
X0124552Y0108858D01*
X0124327Y0108761D01*
X0124099Y0108670D01*
X0123869Y0108585D01*
X0123637Y0108505D01*
X0123403Y0108431D01*
X0123167Y0108362D01*
X0122930Y0108300D01*
X0122691Y0108243D01*
X0122451Y0108192D01*
X0122210Y0108147D01*
X0121967Y0108108D01*
X0121724Y0108075D01*
X0121480Y0108048D01*
X0121236Y0108027D01*
X0120991Y0108012D01*
X0120745Y0108003D01*
X0120500Y0108000D01*
X0120255Y0108003D01*
X0120009Y0108012D01*
X0119764Y0108027D01*
X0119520Y0108048D01*
X0119276Y0108075D01*
X0119033Y0108108D01*
X0118790Y0108147D01*
X0118549Y0108192D01*
X0118309Y0108243D01*
X0118070Y0108300D01*
X0117833Y0108362D01*
X0117597Y0108431D01*
X0117363Y0108505D01*
X0117131Y0108585D01*
X0116901Y0108670D01*
X0116673Y0108761D01*
X0116448Y0108858D01*
X0116224Y0108960D01*
X0116004Y0109068D01*
X0115786Y0109181D01*
X0115571Y0109299D01*
X0115359Y0109423D01*
X0115150Y0109551D01*
X0114944Y0109685D01*
X0114742Y0109824D01*
X0114543Y0109968D01*
X0114348Y0110117D01*
X0114156Y0110270D01*
X0113968Y0110428D01*
X0113784Y0110590D01*
X0113605Y0110758D01*
X0113429Y0110929D01*
X0113258Y0111105D01*
X0113090Y0111284D01*
X0112928Y0111468D01*
X0112770Y0111656D01*
X0112617Y0111848D01*
X0112468Y0112043D01*
X0112324Y0112242D01*
X0112185Y0112444D01*
X0112051Y0112650D01*
X0111923Y0112859D01*
X0111799Y0113071D01*
X0111681Y0113286D01*
X0111568Y0113504D01*
X0111460Y0113724D01*
X0111358Y0113948D01*
X0111261Y0114173D01*
X0111170Y0114401D01*
X0111085Y0114631D01*
X0111005Y0114863D01*
X0110931Y0115097D01*
X0110862Y0115333D01*
X0110800Y0115570D01*
X0110743Y0115809D01*
X0110692Y0116049D01*
X0110647Y0116290D01*
X0110608Y0116533D01*
X0110575Y0116776D01*
X0110548Y0117020D01*
X0110527Y0117264D01*
X0110512Y0117509D01*
X0110503Y0117755D01*
X0110500Y0118000D01*
X0108500Y0113500D02*
X0106000Y0111000D01*
X0101000Y0111000D01*
X0098500Y0113500D01*
X0098500Y0128500D01*
X0096000Y0131000D01*
X0091000Y0131000D01*
X0088500Y0128500D01*
X0088500Y0113500D01*
X0086000Y0111000D01*
X0081000Y0111000D01*
X0078500Y0113500D01*
X0076000Y0111000D01*
X0071000Y0111000D01*
X0068500Y0113500D01*
X0068500Y0128500D01*
X0071000Y0131000D01*
X0076000Y0131000D01*
X0078500Y0128500D01*
X0078500Y0113500D01*
X0088500Y0113500D02*
X0091000Y0111000D01*
X0096000Y0111000D01*
X0098500Y0113500D01*
X0108500Y0113500D02*
X0108500Y0128500D01*
X0106000Y0131000D01*
X0101000Y0131000D01*
X0098500Y0128500D01*
X0088500Y0128500D02*
X0086000Y0131000D01*
X0081000Y0131000D01*
X0078500Y0128500D01*
X0065500Y0119000D02*
X0065500Y0118000D01*
X0065500Y0119000D02*
X0064500Y0119000D01*
X0060500Y0119000D02*
X0059500Y0119000D01*
X0059500Y0118000D01*
X0059500Y0114000D02*
X0059500Y0113000D01*
X0060500Y0113000D01*
X0064500Y0113000D02*
X0065500Y0113000D01*
X0065500Y0114000D01*
X0056000Y0098000D02*
X0051000Y0098000D01*
X0048500Y0095500D01*
X0048500Y0080500D01*
X0051000Y0078000D01*
X0056000Y0078000D01*
X0058500Y0080500D01*
X0058500Y0095500D01*
X0056000Y0098000D01*
X0048500Y0095500D02*
X0046000Y0098000D01*
X0041000Y0098000D01*
X0038500Y0095500D01*
X0038500Y0080500D01*
X0041000Y0078000D01*
X0046000Y0078000D01*
X0048500Y0080500D01*
X0038500Y0080500D02*
X0036000Y0078000D01*
X0031000Y0078000D01*
X0028500Y0080500D01*
X0028500Y0095500D01*
X0031000Y0098000D01*
X0036000Y0098000D01*
X0038500Y0095500D01*
X0028500Y0095500D02*
X0026000Y0098000D01*
X0021000Y0098000D01*
X0018500Y0095500D01*
X0018500Y0080500D01*
X0021000Y0078000D01*
X0026000Y0078000D01*
X0028500Y0080500D01*
X0011500Y0113000D02*
X0010500Y0113000D01*
X0011500Y0113000D02*
X0011500Y0114000D01*
X0011500Y0118000D02*
X0011500Y0119000D01*
X0010500Y0119000D01*
X0006500Y0119000D02*
X0005500Y0119000D01*
X0005500Y0118000D01*
X0005500Y0114000D02*
X0005500Y0113000D01*
X0006500Y0113000D01*
X0006500Y0182000D02*
X0005500Y0182000D01*
X0005500Y0183000D01*
X0005500Y0187000D02*
X0005500Y0188000D01*
X0006500Y0188000D01*
X0010500Y0188000D02*
X0011500Y0188000D01*
X0011500Y0187000D01*
X0011500Y0183000D02*
X0011500Y0182000D01*
X0010500Y0182000D01*
X0059500Y0182000D02*
X0059500Y0183000D01*
X0059500Y0182000D02*
X0060500Y0182000D01*
X0064500Y0182000D02*
X0065500Y0182000D01*
X0065500Y0183000D01*
X0065500Y0187000D02*
X0065500Y0188000D01*
X0064500Y0188000D01*
X0060500Y0188000D02*
X0059500Y0188000D01*
X0059500Y0187000D01*
X0120500Y0173000D02*
X0120500Y0165000D01*
X0121500Y0164000D01*
X0120500Y0163000D01*
X0120500Y0155000D01*
X0121500Y0154000D01*
X0129500Y0154000D01*
X0130500Y0155000D01*
X0130500Y0163000D01*
X0129500Y0164000D01*
X0130500Y0165000D01*
X0130500Y0173000D01*
X0129500Y0174000D01*
X0121500Y0174000D01*
X0120500Y0173000D01*
X0121500Y0152000D02*
X0120500Y0151000D01*
X0120500Y0143000D01*
X0121500Y0142000D01*
X0120500Y0141000D01*
X0120500Y0133000D01*
X0121500Y0132000D01*
X0129500Y0132000D01*
X0130500Y0133000D01*
X0130500Y0141000D01*
X0129500Y0142000D01*
X0130500Y0143000D01*
X0130500Y0151000D01*
X0129500Y0152000D01*
X0121500Y0152000D01*
X0120854Y0126132D02*
X0120146Y0125425D01*
X0120854Y0124718D01*
X0120146Y0125425D02*
X0119439Y0124718D01*
X0120146Y0125425D02*
X0119439Y0126132D01*
X0145241Y0181300D02*
X0145241Y0185570D01*
X0147376Y0187705D01*
X0149511Y0185570D01*
X0149511Y0181300D01*
X0151686Y0181300D02*
X0151686Y0187705D01*
X0155957Y0181300D01*
X0155957Y0187705D01*
X0158132Y0187705D02*
X0162402Y0187705D01*
X0160267Y0187705D02*
X0160267Y0181300D01*
X0164577Y0181300D02*
X0168848Y0181300D01*
X0171023Y0181300D02*
X0171023Y0187705D01*
X0175293Y0181300D01*
X0175293Y0187705D01*
X0177468Y0187705D02*
X0181739Y0181300D01*
X0181739Y0187705D01*
X0183914Y0185570D02*
X0186049Y0187705D01*
X0188184Y0185570D01*
X0188184Y0181300D01*
X0188184Y0184503D02*
X0183914Y0184503D01*
X0183914Y0185570D02*
X0183914Y0181300D01*
X0177468Y0181300D02*
X0177468Y0187705D01*
X0168848Y0187705D02*
X0164577Y0187705D01*
X0164577Y0181300D01*
X0164577Y0184503D02*
X0166712Y0184503D01*
X0149511Y0184503D02*
X0145241Y0184503D01*
X0037000Y0026000D02*
X0022000Y0026000D01*
X0019500Y0023500D01*
X0019500Y0018500D01*
X0022000Y0016000D01*
X0037000Y0016000D01*
X0039500Y0013500D01*
X0039500Y0008500D01*
X0037000Y0006000D01*
X0022000Y0006000D01*
X0019500Y0008500D01*
X0019500Y0013500D01*
X0022000Y0016000D01*
X0037000Y0016000D02*
X0039500Y0018500D01*
X0039500Y0023500D01*
X0037000Y0026000D01*
D97*
X0153071Y0127066D02*
X0153071Y0130669D01*
X0155473Y0127066D01*
X0155473Y0130669D01*
X0156754Y0130669D02*
X0158555Y0130669D01*
X0159156Y0130069D01*
X0159156Y0128868D01*
X0158555Y0128267D01*
X0156754Y0128267D01*
X0156754Y0127066D02*
X0156754Y0130669D01*
X0157955Y0128267D02*
X0159156Y0127066D01*
X0160437Y0127066D02*
X0160437Y0130669D01*
X0162839Y0130669D01*
X0164120Y0130069D02*
X0164721Y0130669D01*
X0165922Y0130669D01*
X0166522Y0130069D01*
X0166522Y0129468D01*
X0164120Y0127066D01*
X0166522Y0127066D01*
X0167803Y0128868D02*
X0170205Y0128868D01*
X0169605Y0130669D02*
X0169605Y0127066D01*
X0171486Y0127066D02*
X0171486Y0130669D01*
X0169605Y0130669D02*
X0167803Y0128868D01*
X0171486Y0127066D02*
X0173888Y0127066D01*
X0175170Y0127667D02*
X0175170Y0130069D01*
X0175770Y0130669D01*
X0176971Y0130669D01*
X0177572Y0130069D01*
X0175170Y0127667D01*
X0175770Y0127066D01*
X0176971Y0127066D01*
X0177572Y0127667D01*
X0177572Y0130069D01*
X0178853Y0129468D02*
X0180054Y0130669D01*
X0180054Y0127066D01*
X0178853Y0127066D02*
X0181255Y0127066D01*
X0182536Y0128868D02*
X0184938Y0128868D01*
X0183737Y0130069D02*
X0183737Y0127667D01*
X0190697Y0139309D02*
X0190697Y0141111D01*
X0191297Y0141711D01*
X0192498Y0141711D01*
X0193099Y0141111D01*
X0193099Y0139309D01*
X0194300Y0139309D02*
X0190697Y0139309D01*
X0190697Y0142992D02*
X0190697Y0145394D01*
X0190697Y0146675D02*
X0191898Y0147876D01*
X0190697Y0149077D01*
X0194300Y0149077D01*
X0193699Y0150358D02*
X0192498Y0150358D01*
X0192498Y0152160D01*
X0193099Y0152760D01*
X0193699Y0152760D01*
X0194300Y0152160D01*
X0194300Y0150959D01*
X0193699Y0150358D01*
X0192498Y0150358D02*
X0191297Y0151559D01*
X0190697Y0152760D01*
X0191297Y0154042D02*
X0190697Y0154642D01*
X0190697Y0155843D01*
X0191297Y0156444D01*
X0193699Y0156444D01*
X0194300Y0155843D01*
X0194300Y0154642D01*
X0193699Y0154042D01*
X0192498Y0154642D02*
X0192498Y0156444D01*
X0192498Y0157725D02*
X0192498Y0160127D01*
X0190697Y0160127D02*
X0194300Y0160127D01*
X0194300Y0161408D02*
X0193099Y0162609D01*
X0194300Y0163810D01*
X0190697Y0163810D01*
X0190697Y0161408D02*
X0194300Y0161408D01*
X0194300Y0157725D02*
X0190697Y0157725D01*
X0192498Y0154642D02*
X0191898Y0154042D01*
X0191297Y0154042D01*
X0190697Y0146675D02*
X0194300Y0146675D01*
X0192498Y0144193D02*
X0192498Y0142992D01*
X0190697Y0142992D02*
X0194300Y0142992D01*
X0194300Y0141711D02*
X0193099Y0140510D01*
X0161638Y0128868D02*
X0160437Y0128868D01*
X0109785Y0177801D02*
X0109185Y0177200D01*
X0107984Y0177200D01*
X0107383Y0177801D01*
X0106102Y0177200D02*
X0103700Y0180803D01*
X0106102Y0180803D02*
X0103700Y0177200D01*
X0107383Y0180203D02*
X0107984Y0180803D01*
X0109185Y0180803D01*
X0109785Y0180203D01*
X0109785Y0179602D01*
X0109185Y0179002D01*
X0109785Y0178401D01*
X0109785Y0177801D01*
X0109185Y0179002D02*
X0108584Y0179002D01*
X0098785Y0177200D02*
X0096383Y0177200D01*
X0097584Y0177200D02*
X0097584Y0180803D01*
X0096383Y0179602D01*
X0095102Y0180803D02*
X0092700Y0177200D01*
X0095102Y0177200D02*
X0092700Y0180803D01*
D98*
X0099067Y0175719D02*
X0069933Y0175719D01*
X0069933Y0198356D01*
X0099067Y0198356D01*
X0099067Y0175719D01*
X0101933Y0175719D02*
X0131067Y0175719D01*
X0131067Y0198356D01*
X0101933Y0198356D01*
X0101933Y0175719D01*
D99*
X0111382Y0175945D02*
X0111382Y0177913D01*
X0121618Y0177913D01*
X0121618Y0175945D01*
X0089618Y0175945D02*
X0089618Y0177913D01*
X0079382Y0177913D01*
X0079382Y0175945D01*
D100*
X0012000Y0098000D02*
X0007000Y0098000D01*
X0004500Y0095500D01*
X0004500Y0090500D01*
X0007000Y0088000D01*
X0004500Y0085500D01*
X0004500Y0080500D01*
X0007000Y0078000D01*
X0004500Y0075500D01*
X0004500Y0070500D01*
X0007000Y0068000D01*
X0004500Y0065500D01*
X0004500Y0060500D01*
X0007000Y0058000D01*
X0004500Y0055500D01*
X0004500Y0050500D01*
X0007000Y0048000D01*
X0004500Y0045500D01*
X0004500Y0040500D01*
X0007000Y0038000D01*
X0004500Y0035500D01*
X0004500Y0030500D01*
X0007000Y0028000D01*
X0004500Y0025500D01*
X0004500Y0020500D01*
X0007000Y0018000D01*
X0012000Y0018000D01*
X0014500Y0020500D01*
X0014500Y0025500D01*
X0012000Y0028000D01*
X0014500Y0030500D01*
X0014500Y0035500D01*
X0012000Y0038000D01*
X0014500Y0040500D01*
X0014500Y0045500D01*
X0012000Y0048000D01*
X0014500Y0050500D01*
X0014500Y0055500D01*
X0012000Y0058000D01*
X0014500Y0060500D01*
X0014500Y0065500D01*
X0012000Y0068000D01*
X0014500Y0070500D01*
X0014500Y0075500D01*
X0012000Y0078000D01*
X0014500Y0080500D01*
X0014500Y0085500D01*
X0012000Y0088000D01*
X0014500Y0090500D01*
X0014500Y0095500D01*
X0012000Y0098000D01*
X0183500Y0076500D02*
X0183500Y0071500D01*
X0186000Y0069000D01*
X0183500Y0066500D01*
X0183500Y0061500D01*
X0186000Y0059000D01*
X0183500Y0056500D01*
X0183500Y0051500D01*
X0186000Y0049000D01*
X0183500Y0046500D01*
X0183500Y0041500D01*
X0186000Y0039000D01*
X0183500Y0036500D01*
X0183500Y0031500D01*
X0186000Y0029000D01*
X0183500Y0026500D01*
X0183500Y0021500D01*
X0186000Y0019000D01*
X0183500Y0016500D01*
X0183500Y0011500D01*
X0186000Y0009000D01*
X0191000Y0009000D01*
X0193500Y0011500D01*
X0193500Y0016500D01*
X0191000Y0019000D01*
X0193500Y0021500D01*
X0193500Y0026500D01*
X0191000Y0029000D01*
X0193500Y0031500D01*
X0193500Y0036500D01*
X0191000Y0039000D01*
X0193500Y0041500D01*
X0193500Y0046500D01*
X0191000Y0049000D01*
X0193500Y0051500D01*
X0193500Y0056500D01*
X0191000Y0059000D01*
X0193500Y0061500D01*
X0193500Y0066500D01*
X0191000Y0069000D01*
X0193500Y0071500D01*
X0193500Y0076500D01*
X0191000Y0079000D01*
X0186000Y0079000D01*
X0183500Y0076500D01*
M02*
