G75*
%MOIN*%
%OFA0B0*%
%FSLAX25Y25*%
%IPPOS*%
%LPD*%
%AMOC8*
5,1,8,0,0,1.08239X$1,22.5*
%
%ADD10C,0.00000*%
%ADD11R,0.32700X0.00100*%
%ADD12R,0.33700X0.00100*%
%ADD13R,0.34200X0.00100*%
%ADD14R,0.34700X0.00100*%
%ADD15R,0.34900X0.00100*%
%ADD16R,0.01500X0.00100*%
%ADD17R,0.01400X0.00100*%
%ADD18R,0.01200X0.00100*%
%ADD19R,0.01100X0.00100*%
%ADD20R,0.01000X0.00100*%
%ADD21R,0.00900X0.00100*%
%ADD22R,0.00700X0.00100*%
%ADD23R,0.00800X0.00100*%
%ADD24R,0.37100X0.00100*%
%ADD25R,0.00600X0.00100*%
%ADD26R,0.01300X0.00100*%
%ADD27R,0.02200X0.00100*%
%ADD28R,0.01700X0.00100*%
%ADD29R,0.02300X0.00100*%
%ADD30R,0.02400X0.00100*%
%ADD31R,0.01900X0.00100*%
%ADD32R,0.02500X0.00100*%
%ADD33R,0.02600X0.00100*%
%ADD34R,0.00300X0.00100*%
%ADD35R,0.02700X0.00100*%
%ADD36R,0.02100X0.00100*%
%ADD37R,0.02000X0.00100*%
%ADD38R,0.00200X0.00100*%
%ADD39R,0.01800X0.00100*%
%ADD40R,0.01600X0.00100*%
%ADD41R,0.00500X0.00100*%
%ADD42R,0.00400X0.00100*%
%ADD43R,0.00100X0.00100*%
%ADD44R,0.03200X0.00100*%
%ADD45R,0.03100X0.00100*%
%ADD46R,0.03400X0.00100*%
%ADD47R,0.03500X0.00100*%
%ADD48R,0.03900X0.00100*%
%ADD49R,0.05700X0.00100*%
%ADD50R,0.06000X0.00100*%
%ADD51R,0.06100X0.00100*%
%ADD52R,0.06200X0.00100*%
%ADD53R,0.06500X0.00100*%
%ADD54R,0.06400X0.00100*%
%ADD55R,0.06300X0.00100*%
%ADD56R,0.05900X0.00100*%
%ADD57R,0.05800X0.00100*%
%ADD58R,0.06600X0.00100*%
%ADD59R,0.06800X0.00100*%
%ADD60R,0.06700X0.00100*%
%ADD61R,0.06900X0.00100*%
%ADD62R,0.07000X0.00100*%
%ADD63R,0.07100X0.00100*%
%ADD64R,0.07800X0.00100*%
%ADD65R,0.08500X0.00100*%
%ADD66R,0.08600X0.00100*%
%ADD67R,0.08900X0.00100*%
%ADD68R,0.08800X0.00100*%
%ADD69R,0.08700X0.00100*%
%ADD70R,0.08400X0.00100*%
%ADD71R,0.07300X0.00100*%
%ADD72R,0.07400X0.00100*%
%ADD73R,0.16200X0.00100*%
%ADD74R,0.15900X0.00100*%
%ADD75R,0.15600X0.00100*%
%ADD76R,0.15300X0.00100*%
%ADD77R,0.16500X0.00100*%
%ADD78R,0.16800X0.00100*%
%ADD79R,0.17100X0.00100*%
%ADD80R,0.17400X0.00100*%
%ADD81R,0.17700X0.00100*%
%ADD82R,0.18000X0.00100*%
%ADD83R,0.18300X0.00100*%
%ADD84R,0.18600X0.00100*%
%ADD85R,0.04200X0.00100*%
%ADD86R,0.08100X0.00100*%
%ADD87R,0.07500X0.00100*%
%ADD88R,0.05100X0.00100*%
%ADD89R,0.04500X0.00100*%
%ADD90R,0.03600X0.00100*%
%ADD91R,0.03300X0.00100*%
%ADD92R,0.33600X0.00100*%
%ADD93C,0.00300*%
%ADD94C,0.00200*%
%ADD95C,0.00500*%
%ADD96C,0.00600*%
%ADD97C,0.01000*%
%ADD98C,0.00787*%
%ADD99C,0.00400*%
%ADD100C,0.00800*%
D10*
X0001500Y0002000D02*
X0197500Y0002000D01*
X0197500Y0198000D01*
X0001500Y0198000D01*
X0001500Y0002000D01*
X0006201Y0011000D02*
X0006203Y0011158D01*
X0006209Y0011316D01*
X0006219Y0011474D01*
X0006233Y0011632D01*
X0006251Y0011789D01*
X0006272Y0011946D01*
X0006298Y0012102D01*
X0006328Y0012258D01*
X0006361Y0012413D01*
X0006399Y0012566D01*
X0006440Y0012719D01*
X0006485Y0012871D01*
X0006534Y0013022D01*
X0006587Y0013171D01*
X0006643Y0013319D01*
X0006703Y0013465D01*
X0006767Y0013610D01*
X0006835Y0013753D01*
X0006906Y0013895D01*
X0006980Y0014035D01*
X0007058Y0014172D01*
X0007140Y0014308D01*
X0007224Y0014442D01*
X0007313Y0014573D01*
X0007404Y0014702D01*
X0007499Y0014829D01*
X0007596Y0014954D01*
X0007697Y0015076D01*
X0007801Y0015195D01*
X0007908Y0015312D01*
X0008018Y0015426D01*
X0008131Y0015537D01*
X0008246Y0015646D01*
X0008364Y0015751D01*
X0008485Y0015853D01*
X0008608Y0015953D01*
X0008734Y0016049D01*
X0008862Y0016142D01*
X0008992Y0016232D01*
X0009125Y0016318D01*
X0009260Y0016402D01*
X0009396Y0016481D01*
X0009535Y0016558D01*
X0009676Y0016630D01*
X0009818Y0016700D01*
X0009962Y0016765D01*
X0010108Y0016827D01*
X0010255Y0016885D01*
X0010404Y0016940D01*
X0010554Y0016991D01*
X0010705Y0017038D01*
X0010857Y0017081D01*
X0011010Y0017120D01*
X0011165Y0017156D01*
X0011320Y0017187D01*
X0011476Y0017215D01*
X0011632Y0017239D01*
X0011789Y0017259D01*
X0011947Y0017275D01*
X0012104Y0017287D01*
X0012263Y0017295D01*
X0012421Y0017299D01*
X0012579Y0017299D01*
X0012737Y0017295D01*
X0012896Y0017287D01*
X0013053Y0017275D01*
X0013211Y0017259D01*
X0013368Y0017239D01*
X0013524Y0017215D01*
X0013680Y0017187D01*
X0013835Y0017156D01*
X0013990Y0017120D01*
X0014143Y0017081D01*
X0014295Y0017038D01*
X0014446Y0016991D01*
X0014596Y0016940D01*
X0014745Y0016885D01*
X0014892Y0016827D01*
X0015038Y0016765D01*
X0015182Y0016700D01*
X0015324Y0016630D01*
X0015465Y0016558D01*
X0015604Y0016481D01*
X0015740Y0016402D01*
X0015875Y0016318D01*
X0016008Y0016232D01*
X0016138Y0016142D01*
X0016266Y0016049D01*
X0016392Y0015953D01*
X0016515Y0015853D01*
X0016636Y0015751D01*
X0016754Y0015646D01*
X0016869Y0015537D01*
X0016982Y0015426D01*
X0017092Y0015312D01*
X0017199Y0015195D01*
X0017303Y0015076D01*
X0017404Y0014954D01*
X0017501Y0014829D01*
X0017596Y0014702D01*
X0017687Y0014573D01*
X0017776Y0014442D01*
X0017860Y0014308D01*
X0017942Y0014172D01*
X0018020Y0014035D01*
X0018094Y0013895D01*
X0018165Y0013753D01*
X0018233Y0013610D01*
X0018297Y0013465D01*
X0018357Y0013319D01*
X0018413Y0013171D01*
X0018466Y0013022D01*
X0018515Y0012871D01*
X0018560Y0012719D01*
X0018601Y0012566D01*
X0018639Y0012413D01*
X0018672Y0012258D01*
X0018702Y0012102D01*
X0018728Y0011946D01*
X0018749Y0011789D01*
X0018767Y0011632D01*
X0018781Y0011474D01*
X0018791Y0011316D01*
X0018797Y0011158D01*
X0018799Y0011000D01*
X0018797Y0010842D01*
X0018791Y0010684D01*
X0018781Y0010526D01*
X0018767Y0010368D01*
X0018749Y0010211D01*
X0018728Y0010054D01*
X0018702Y0009898D01*
X0018672Y0009742D01*
X0018639Y0009587D01*
X0018601Y0009434D01*
X0018560Y0009281D01*
X0018515Y0009129D01*
X0018466Y0008978D01*
X0018413Y0008829D01*
X0018357Y0008681D01*
X0018297Y0008535D01*
X0018233Y0008390D01*
X0018165Y0008247D01*
X0018094Y0008105D01*
X0018020Y0007965D01*
X0017942Y0007828D01*
X0017860Y0007692D01*
X0017776Y0007558D01*
X0017687Y0007427D01*
X0017596Y0007298D01*
X0017501Y0007171D01*
X0017404Y0007046D01*
X0017303Y0006924D01*
X0017199Y0006805D01*
X0017092Y0006688D01*
X0016982Y0006574D01*
X0016869Y0006463D01*
X0016754Y0006354D01*
X0016636Y0006249D01*
X0016515Y0006147D01*
X0016392Y0006047D01*
X0016266Y0005951D01*
X0016138Y0005858D01*
X0016008Y0005768D01*
X0015875Y0005682D01*
X0015740Y0005598D01*
X0015604Y0005519D01*
X0015465Y0005442D01*
X0015324Y0005370D01*
X0015182Y0005300D01*
X0015038Y0005235D01*
X0014892Y0005173D01*
X0014745Y0005115D01*
X0014596Y0005060D01*
X0014446Y0005009D01*
X0014295Y0004962D01*
X0014143Y0004919D01*
X0013990Y0004880D01*
X0013835Y0004844D01*
X0013680Y0004813D01*
X0013524Y0004785D01*
X0013368Y0004761D01*
X0013211Y0004741D01*
X0013053Y0004725D01*
X0012896Y0004713D01*
X0012737Y0004705D01*
X0012579Y0004701D01*
X0012421Y0004701D01*
X0012263Y0004705D01*
X0012104Y0004713D01*
X0011947Y0004725D01*
X0011789Y0004741D01*
X0011632Y0004761D01*
X0011476Y0004785D01*
X0011320Y0004813D01*
X0011165Y0004844D01*
X0011010Y0004880D01*
X0010857Y0004919D01*
X0010705Y0004962D01*
X0010554Y0005009D01*
X0010404Y0005060D01*
X0010255Y0005115D01*
X0010108Y0005173D01*
X0009962Y0005235D01*
X0009818Y0005300D01*
X0009676Y0005370D01*
X0009535Y0005442D01*
X0009396Y0005519D01*
X0009260Y0005598D01*
X0009125Y0005682D01*
X0008992Y0005768D01*
X0008862Y0005858D01*
X0008734Y0005951D01*
X0008608Y0006047D01*
X0008485Y0006147D01*
X0008364Y0006249D01*
X0008246Y0006354D01*
X0008131Y0006463D01*
X0008018Y0006574D01*
X0007908Y0006688D01*
X0007801Y0006805D01*
X0007697Y0006924D01*
X0007596Y0007046D01*
X0007499Y0007171D01*
X0007404Y0007298D01*
X0007313Y0007427D01*
X0007224Y0007558D01*
X0007140Y0007692D01*
X0007058Y0007828D01*
X0006980Y0007965D01*
X0006906Y0008105D01*
X0006835Y0008247D01*
X0006767Y0008390D01*
X0006703Y0008535D01*
X0006643Y0008681D01*
X0006587Y0008829D01*
X0006534Y0008978D01*
X0006485Y0009129D01*
X0006440Y0009281D01*
X0006399Y0009434D01*
X0006361Y0009587D01*
X0006328Y0009742D01*
X0006298Y0009898D01*
X0006272Y0010054D01*
X0006251Y0010211D01*
X0006233Y0010368D01*
X0006219Y0010526D01*
X0006209Y0010684D01*
X0006203Y0010842D01*
X0006201Y0011000D01*
X0028201Y0157000D02*
X0028203Y0157158D01*
X0028209Y0157316D01*
X0028219Y0157474D01*
X0028233Y0157632D01*
X0028251Y0157789D01*
X0028272Y0157946D01*
X0028298Y0158102D01*
X0028328Y0158258D01*
X0028361Y0158413D01*
X0028399Y0158566D01*
X0028440Y0158719D01*
X0028485Y0158871D01*
X0028534Y0159022D01*
X0028587Y0159171D01*
X0028643Y0159319D01*
X0028703Y0159465D01*
X0028767Y0159610D01*
X0028835Y0159753D01*
X0028906Y0159895D01*
X0028980Y0160035D01*
X0029058Y0160172D01*
X0029140Y0160308D01*
X0029224Y0160442D01*
X0029313Y0160573D01*
X0029404Y0160702D01*
X0029499Y0160829D01*
X0029596Y0160954D01*
X0029697Y0161076D01*
X0029801Y0161195D01*
X0029908Y0161312D01*
X0030018Y0161426D01*
X0030131Y0161537D01*
X0030246Y0161646D01*
X0030364Y0161751D01*
X0030485Y0161853D01*
X0030608Y0161953D01*
X0030734Y0162049D01*
X0030862Y0162142D01*
X0030992Y0162232D01*
X0031125Y0162318D01*
X0031260Y0162402D01*
X0031396Y0162481D01*
X0031535Y0162558D01*
X0031676Y0162630D01*
X0031818Y0162700D01*
X0031962Y0162765D01*
X0032108Y0162827D01*
X0032255Y0162885D01*
X0032404Y0162940D01*
X0032554Y0162991D01*
X0032705Y0163038D01*
X0032857Y0163081D01*
X0033010Y0163120D01*
X0033165Y0163156D01*
X0033320Y0163187D01*
X0033476Y0163215D01*
X0033632Y0163239D01*
X0033789Y0163259D01*
X0033947Y0163275D01*
X0034104Y0163287D01*
X0034263Y0163295D01*
X0034421Y0163299D01*
X0034579Y0163299D01*
X0034737Y0163295D01*
X0034896Y0163287D01*
X0035053Y0163275D01*
X0035211Y0163259D01*
X0035368Y0163239D01*
X0035524Y0163215D01*
X0035680Y0163187D01*
X0035835Y0163156D01*
X0035990Y0163120D01*
X0036143Y0163081D01*
X0036295Y0163038D01*
X0036446Y0162991D01*
X0036596Y0162940D01*
X0036745Y0162885D01*
X0036892Y0162827D01*
X0037038Y0162765D01*
X0037182Y0162700D01*
X0037324Y0162630D01*
X0037465Y0162558D01*
X0037604Y0162481D01*
X0037740Y0162402D01*
X0037875Y0162318D01*
X0038008Y0162232D01*
X0038138Y0162142D01*
X0038266Y0162049D01*
X0038392Y0161953D01*
X0038515Y0161853D01*
X0038636Y0161751D01*
X0038754Y0161646D01*
X0038869Y0161537D01*
X0038982Y0161426D01*
X0039092Y0161312D01*
X0039199Y0161195D01*
X0039303Y0161076D01*
X0039404Y0160954D01*
X0039501Y0160829D01*
X0039596Y0160702D01*
X0039687Y0160573D01*
X0039776Y0160442D01*
X0039860Y0160308D01*
X0039942Y0160172D01*
X0040020Y0160035D01*
X0040094Y0159895D01*
X0040165Y0159753D01*
X0040233Y0159610D01*
X0040297Y0159465D01*
X0040357Y0159319D01*
X0040413Y0159171D01*
X0040466Y0159022D01*
X0040515Y0158871D01*
X0040560Y0158719D01*
X0040601Y0158566D01*
X0040639Y0158413D01*
X0040672Y0158258D01*
X0040702Y0158102D01*
X0040728Y0157946D01*
X0040749Y0157789D01*
X0040767Y0157632D01*
X0040781Y0157474D01*
X0040791Y0157316D01*
X0040797Y0157158D01*
X0040799Y0157000D01*
X0040797Y0156842D01*
X0040791Y0156684D01*
X0040781Y0156526D01*
X0040767Y0156368D01*
X0040749Y0156211D01*
X0040728Y0156054D01*
X0040702Y0155898D01*
X0040672Y0155742D01*
X0040639Y0155587D01*
X0040601Y0155434D01*
X0040560Y0155281D01*
X0040515Y0155129D01*
X0040466Y0154978D01*
X0040413Y0154829D01*
X0040357Y0154681D01*
X0040297Y0154535D01*
X0040233Y0154390D01*
X0040165Y0154247D01*
X0040094Y0154105D01*
X0040020Y0153965D01*
X0039942Y0153828D01*
X0039860Y0153692D01*
X0039776Y0153558D01*
X0039687Y0153427D01*
X0039596Y0153298D01*
X0039501Y0153171D01*
X0039404Y0153046D01*
X0039303Y0152924D01*
X0039199Y0152805D01*
X0039092Y0152688D01*
X0038982Y0152574D01*
X0038869Y0152463D01*
X0038754Y0152354D01*
X0038636Y0152249D01*
X0038515Y0152147D01*
X0038392Y0152047D01*
X0038266Y0151951D01*
X0038138Y0151858D01*
X0038008Y0151768D01*
X0037875Y0151682D01*
X0037740Y0151598D01*
X0037604Y0151519D01*
X0037465Y0151442D01*
X0037324Y0151370D01*
X0037182Y0151300D01*
X0037038Y0151235D01*
X0036892Y0151173D01*
X0036745Y0151115D01*
X0036596Y0151060D01*
X0036446Y0151009D01*
X0036295Y0150962D01*
X0036143Y0150919D01*
X0035990Y0150880D01*
X0035835Y0150844D01*
X0035680Y0150813D01*
X0035524Y0150785D01*
X0035368Y0150761D01*
X0035211Y0150741D01*
X0035053Y0150725D01*
X0034896Y0150713D01*
X0034737Y0150705D01*
X0034579Y0150701D01*
X0034421Y0150701D01*
X0034263Y0150705D01*
X0034104Y0150713D01*
X0033947Y0150725D01*
X0033789Y0150741D01*
X0033632Y0150761D01*
X0033476Y0150785D01*
X0033320Y0150813D01*
X0033165Y0150844D01*
X0033010Y0150880D01*
X0032857Y0150919D01*
X0032705Y0150962D01*
X0032554Y0151009D01*
X0032404Y0151060D01*
X0032255Y0151115D01*
X0032108Y0151173D01*
X0031962Y0151235D01*
X0031818Y0151300D01*
X0031676Y0151370D01*
X0031535Y0151442D01*
X0031396Y0151519D01*
X0031260Y0151598D01*
X0031125Y0151682D01*
X0030992Y0151768D01*
X0030862Y0151858D01*
X0030734Y0151951D01*
X0030608Y0152047D01*
X0030485Y0152147D01*
X0030364Y0152249D01*
X0030246Y0152354D01*
X0030131Y0152463D01*
X0030018Y0152574D01*
X0029908Y0152688D01*
X0029801Y0152805D01*
X0029697Y0152924D01*
X0029596Y0153046D01*
X0029499Y0153171D01*
X0029404Y0153298D01*
X0029313Y0153427D01*
X0029224Y0153558D01*
X0029140Y0153692D01*
X0029058Y0153828D01*
X0028980Y0153965D01*
X0028906Y0154105D01*
X0028835Y0154247D01*
X0028767Y0154390D01*
X0028703Y0154535D01*
X0028643Y0154681D01*
X0028587Y0154829D01*
X0028534Y0154978D01*
X0028485Y0155129D01*
X0028440Y0155281D01*
X0028399Y0155434D01*
X0028361Y0155587D01*
X0028328Y0155742D01*
X0028298Y0155898D01*
X0028272Y0156054D01*
X0028251Y0156211D01*
X0028233Y0156368D01*
X0028219Y0156526D01*
X0028209Y0156684D01*
X0028203Y0156842D01*
X0028201Y0157000D01*
X0163201Y0157000D02*
X0163203Y0157158D01*
X0163209Y0157316D01*
X0163219Y0157474D01*
X0163233Y0157632D01*
X0163251Y0157789D01*
X0163272Y0157946D01*
X0163298Y0158102D01*
X0163328Y0158258D01*
X0163361Y0158413D01*
X0163399Y0158566D01*
X0163440Y0158719D01*
X0163485Y0158871D01*
X0163534Y0159022D01*
X0163587Y0159171D01*
X0163643Y0159319D01*
X0163703Y0159465D01*
X0163767Y0159610D01*
X0163835Y0159753D01*
X0163906Y0159895D01*
X0163980Y0160035D01*
X0164058Y0160172D01*
X0164140Y0160308D01*
X0164224Y0160442D01*
X0164313Y0160573D01*
X0164404Y0160702D01*
X0164499Y0160829D01*
X0164596Y0160954D01*
X0164697Y0161076D01*
X0164801Y0161195D01*
X0164908Y0161312D01*
X0165018Y0161426D01*
X0165131Y0161537D01*
X0165246Y0161646D01*
X0165364Y0161751D01*
X0165485Y0161853D01*
X0165608Y0161953D01*
X0165734Y0162049D01*
X0165862Y0162142D01*
X0165992Y0162232D01*
X0166125Y0162318D01*
X0166260Y0162402D01*
X0166396Y0162481D01*
X0166535Y0162558D01*
X0166676Y0162630D01*
X0166818Y0162700D01*
X0166962Y0162765D01*
X0167108Y0162827D01*
X0167255Y0162885D01*
X0167404Y0162940D01*
X0167554Y0162991D01*
X0167705Y0163038D01*
X0167857Y0163081D01*
X0168010Y0163120D01*
X0168165Y0163156D01*
X0168320Y0163187D01*
X0168476Y0163215D01*
X0168632Y0163239D01*
X0168789Y0163259D01*
X0168947Y0163275D01*
X0169104Y0163287D01*
X0169263Y0163295D01*
X0169421Y0163299D01*
X0169579Y0163299D01*
X0169737Y0163295D01*
X0169896Y0163287D01*
X0170053Y0163275D01*
X0170211Y0163259D01*
X0170368Y0163239D01*
X0170524Y0163215D01*
X0170680Y0163187D01*
X0170835Y0163156D01*
X0170990Y0163120D01*
X0171143Y0163081D01*
X0171295Y0163038D01*
X0171446Y0162991D01*
X0171596Y0162940D01*
X0171745Y0162885D01*
X0171892Y0162827D01*
X0172038Y0162765D01*
X0172182Y0162700D01*
X0172324Y0162630D01*
X0172465Y0162558D01*
X0172604Y0162481D01*
X0172740Y0162402D01*
X0172875Y0162318D01*
X0173008Y0162232D01*
X0173138Y0162142D01*
X0173266Y0162049D01*
X0173392Y0161953D01*
X0173515Y0161853D01*
X0173636Y0161751D01*
X0173754Y0161646D01*
X0173869Y0161537D01*
X0173982Y0161426D01*
X0174092Y0161312D01*
X0174199Y0161195D01*
X0174303Y0161076D01*
X0174404Y0160954D01*
X0174501Y0160829D01*
X0174596Y0160702D01*
X0174687Y0160573D01*
X0174776Y0160442D01*
X0174860Y0160308D01*
X0174942Y0160172D01*
X0175020Y0160035D01*
X0175094Y0159895D01*
X0175165Y0159753D01*
X0175233Y0159610D01*
X0175297Y0159465D01*
X0175357Y0159319D01*
X0175413Y0159171D01*
X0175466Y0159022D01*
X0175515Y0158871D01*
X0175560Y0158719D01*
X0175601Y0158566D01*
X0175639Y0158413D01*
X0175672Y0158258D01*
X0175702Y0158102D01*
X0175728Y0157946D01*
X0175749Y0157789D01*
X0175767Y0157632D01*
X0175781Y0157474D01*
X0175791Y0157316D01*
X0175797Y0157158D01*
X0175799Y0157000D01*
X0175797Y0156842D01*
X0175791Y0156684D01*
X0175781Y0156526D01*
X0175767Y0156368D01*
X0175749Y0156211D01*
X0175728Y0156054D01*
X0175702Y0155898D01*
X0175672Y0155742D01*
X0175639Y0155587D01*
X0175601Y0155434D01*
X0175560Y0155281D01*
X0175515Y0155129D01*
X0175466Y0154978D01*
X0175413Y0154829D01*
X0175357Y0154681D01*
X0175297Y0154535D01*
X0175233Y0154390D01*
X0175165Y0154247D01*
X0175094Y0154105D01*
X0175020Y0153965D01*
X0174942Y0153828D01*
X0174860Y0153692D01*
X0174776Y0153558D01*
X0174687Y0153427D01*
X0174596Y0153298D01*
X0174501Y0153171D01*
X0174404Y0153046D01*
X0174303Y0152924D01*
X0174199Y0152805D01*
X0174092Y0152688D01*
X0173982Y0152574D01*
X0173869Y0152463D01*
X0173754Y0152354D01*
X0173636Y0152249D01*
X0173515Y0152147D01*
X0173392Y0152047D01*
X0173266Y0151951D01*
X0173138Y0151858D01*
X0173008Y0151768D01*
X0172875Y0151682D01*
X0172740Y0151598D01*
X0172604Y0151519D01*
X0172465Y0151442D01*
X0172324Y0151370D01*
X0172182Y0151300D01*
X0172038Y0151235D01*
X0171892Y0151173D01*
X0171745Y0151115D01*
X0171596Y0151060D01*
X0171446Y0151009D01*
X0171295Y0150962D01*
X0171143Y0150919D01*
X0170990Y0150880D01*
X0170835Y0150844D01*
X0170680Y0150813D01*
X0170524Y0150785D01*
X0170368Y0150761D01*
X0170211Y0150741D01*
X0170053Y0150725D01*
X0169896Y0150713D01*
X0169737Y0150705D01*
X0169579Y0150701D01*
X0169421Y0150701D01*
X0169263Y0150705D01*
X0169104Y0150713D01*
X0168947Y0150725D01*
X0168789Y0150741D01*
X0168632Y0150761D01*
X0168476Y0150785D01*
X0168320Y0150813D01*
X0168165Y0150844D01*
X0168010Y0150880D01*
X0167857Y0150919D01*
X0167705Y0150962D01*
X0167554Y0151009D01*
X0167404Y0151060D01*
X0167255Y0151115D01*
X0167108Y0151173D01*
X0166962Y0151235D01*
X0166818Y0151300D01*
X0166676Y0151370D01*
X0166535Y0151442D01*
X0166396Y0151519D01*
X0166260Y0151598D01*
X0166125Y0151682D01*
X0165992Y0151768D01*
X0165862Y0151858D01*
X0165734Y0151951D01*
X0165608Y0152047D01*
X0165485Y0152147D01*
X0165364Y0152249D01*
X0165246Y0152354D01*
X0165131Y0152463D01*
X0165018Y0152574D01*
X0164908Y0152688D01*
X0164801Y0152805D01*
X0164697Y0152924D01*
X0164596Y0153046D01*
X0164499Y0153171D01*
X0164404Y0153298D01*
X0164313Y0153427D01*
X0164224Y0153558D01*
X0164140Y0153692D01*
X0164058Y0153828D01*
X0163980Y0153965D01*
X0163906Y0154105D01*
X0163835Y0154247D01*
X0163767Y0154390D01*
X0163703Y0154535D01*
X0163643Y0154681D01*
X0163587Y0154829D01*
X0163534Y0154978D01*
X0163485Y0155129D01*
X0163440Y0155281D01*
X0163399Y0155434D01*
X0163361Y0155587D01*
X0163328Y0155742D01*
X0163298Y0155898D01*
X0163272Y0156054D01*
X0163251Y0156211D01*
X0163233Y0156368D01*
X0163219Y0156526D01*
X0163209Y0156684D01*
X0163203Y0156842D01*
X0163201Y0157000D01*
D11*
X0061497Y0065564D03*
X0061497Y0013764D03*
X0061497Y0013664D03*
D12*
X0061597Y0013864D03*
D13*
X0061547Y0013964D03*
X0061547Y0014064D03*
X0061547Y0065264D03*
X0061547Y0065364D03*
D14*
X0061597Y0065164D03*
X0061597Y0014164D03*
D15*
X0061597Y0014264D03*
X0061597Y0014364D03*
X0061597Y0064964D03*
X0061597Y0064964D03*
X0061597Y0065064D03*
D16*
X0078497Y0064864D03*
X0067628Y0038289D03*
X0072797Y0029464D03*
X0072797Y0029364D03*
X0072797Y0026564D03*
X0075497Y0026564D03*
X0064397Y0026564D03*
X0078597Y0014464D03*
X0047997Y0026564D03*
X0044597Y0014464D03*
D17*
X0044347Y0014564D03*
X0044347Y0014664D03*
X0051247Y0026564D03*
X0047947Y0029364D03*
X0047947Y0029464D03*
X0053947Y0029464D03*
X0053947Y0029364D03*
X0068647Y0032364D03*
X0068647Y0032464D03*
X0071947Y0024464D03*
X0044647Y0064864D03*
D18*
X0044447Y0064764D03*
X0044447Y0064764D03*
X0044447Y0064764D03*
X0044447Y0064664D03*
X0054647Y0050264D03*
X0068747Y0050264D03*
X0078747Y0064664D03*
X0078747Y0064764D03*
X0065447Y0033464D03*
X0070847Y0029464D03*
X0070847Y0029364D03*
X0067247Y0026564D03*
X0070047Y0024464D03*
X0064047Y0022564D03*
X0064047Y0022464D03*
X0064047Y0022364D03*
X0064047Y0022264D03*
X0064047Y0022164D03*
X0063147Y0023564D03*
X0062147Y0022564D03*
X0062147Y0022464D03*
X0062147Y0022364D03*
X0059147Y0021664D03*
X0059147Y0021564D03*
X0059147Y0024464D03*
X0057347Y0024464D03*
X0060647Y0026964D03*
X0060647Y0027064D03*
X0061347Y0026464D03*
X0061347Y0026364D03*
X0057347Y0029364D03*
X0057347Y0029464D03*
X0057947Y0033464D03*
X0051147Y0029464D03*
X0051147Y0029364D03*
X0051147Y0024464D03*
X0078747Y0014664D03*
X0078747Y0014564D03*
D19*
X0078997Y0014764D03*
X0079297Y0015064D03*
X0072097Y0021464D03*
X0074797Y0026964D03*
X0074797Y0027064D03*
X0063097Y0023864D03*
X0063097Y0023764D03*
X0063097Y0023664D03*
X0062197Y0022264D03*
X0062197Y0022164D03*
X0062197Y0022064D03*
X0062197Y0026964D03*
X0062197Y0027064D03*
X0054097Y0026464D03*
X0054097Y0026364D03*
X0053197Y0022064D03*
X0053797Y0021464D03*
X0044197Y0014764D03*
X0043897Y0015064D03*
X0043897Y0064264D03*
X0044197Y0064564D03*
X0078997Y0064564D03*
X0079297Y0064264D03*
D20*
X0079147Y0064364D03*
X0079147Y0064464D03*
X0044047Y0064464D03*
X0044047Y0064364D03*
X0047947Y0026464D03*
X0047947Y0026364D03*
X0053347Y0026964D03*
X0053347Y0027064D03*
X0044047Y0014964D03*
X0044047Y0014864D03*
X0067447Y0022064D03*
X0071347Y0022064D03*
X0079147Y0014964D03*
X0079147Y0014864D03*
D21*
X0079397Y0015164D03*
X0079397Y0015264D03*
X0079497Y0015364D03*
X0079697Y0015764D03*
X0079697Y0015864D03*
X0072797Y0023864D03*
X0072797Y0026364D03*
X0072797Y0026464D03*
X0074597Y0027164D03*
X0075497Y0026464D03*
X0075497Y0026364D03*
X0076097Y0026964D03*
X0076097Y0027064D03*
X0071997Y0028764D03*
X0071997Y0028864D03*
X0069797Y0028864D03*
X0069797Y0028764D03*
X0068297Y0027164D03*
X0067197Y0026464D03*
X0067197Y0026364D03*
X0066597Y0027164D03*
X0065097Y0028764D03*
X0065097Y0028864D03*
X0064397Y0026464D03*
X0064397Y0026364D03*
X0062297Y0027564D03*
X0062297Y0027664D03*
X0060597Y0028364D03*
X0057897Y0028764D03*
X0057897Y0028864D03*
X0056297Y0028864D03*
X0056297Y0028764D03*
X0054597Y0032264D03*
X0050297Y0028864D03*
X0050297Y0028764D03*
X0048797Y0028764D03*
X0048797Y0028864D03*
X0048797Y0027164D03*
X0047097Y0027164D03*
X0050297Y0023864D03*
X0051797Y0023864D03*
X0051897Y0023764D03*
X0051897Y0023664D03*
X0053997Y0024564D03*
X0053997Y0024664D03*
X0056397Y0023864D03*
X0058497Y0023864D03*
X0060197Y0023864D03*
X0060197Y0023764D03*
X0060197Y0023664D03*
X0060197Y0022264D03*
X0060197Y0022164D03*
X0059097Y0021464D03*
X0062097Y0021864D03*
X0062097Y0021964D03*
X0064097Y0021964D03*
X0064097Y0022064D03*
X0064097Y0021864D03*
X0064097Y0021764D03*
X0065897Y0022064D03*
X0066497Y0021464D03*
X0068997Y0023864D03*
X0066597Y0024564D03*
X0066597Y0024664D03*
X0063197Y0024064D03*
X0063197Y0023964D03*
X0054797Y0022064D03*
X0043797Y0015264D03*
X0043797Y0015164D03*
X0043697Y0015364D03*
X0043497Y0015764D03*
X0043497Y0015864D03*
X0068697Y0032264D03*
X0068697Y0050364D03*
X0068697Y0050464D03*
X0079697Y0063464D03*
X0079697Y0063564D03*
X0079497Y0063764D03*
X0079497Y0063864D03*
X0079497Y0063964D03*
X0079397Y0064064D03*
X0079397Y0064164D03*
X0054597Y0050464D03*
X0054597Y0050364D03*
X0043497Y0063464D03*
X0043497Y0063564D03*
X0043697Y0063764D03*
X0043697Y0063864D03*
X0043697Y0063964D03*
X0043797Y0064064D03*
X0043797Y0064164D03*
D22*
X0043597Y0063664D03*
X0057997Y0033364D03*
X0057997Y0033264D03*
X0057997Y0028664D03*
X0057997Y0028564D03*
X0057997Y0028464D03*
X0057997Y0028364D03*
X0057997Y0028264D03*
X0057997Y0028164D03*
X0057997Y0028064D03*
X0057997Y0027964D03*
X0057997Y0027864D03*
X0057997Y0027764D03*
X0057997Y0027664D03*
X0057997Y0027564D03*
X0057997Y0027464D03*
X0057997Y0027364D03*
X0057997Y0027264D03*
X0057997Y0027164D03*
X0057997Y0027064D03*
X0057997Y0026964D03*
X0057997Y0026864D03*
X0057997Y0026764D03*
X0057997Y0026664D03*
X0057997Y0026564D03*
X0057997Y0026464D03*
X0057997Y0026364D03*
X0056197Y0028464D03*
X0056197Y0028564D03*
X0056197Y0028664D03*
X0054997Y0028564D03*
X0054997Y0028464D03*
X0054997Y0028364D03*
X0054697Y0027064D03*
X0054697Y0026964D03*
X0053197Y0027164D03*
X0051997Y0027464D03*
X0051997Y0027564D03*
X0051997Y0027664D03*
X0051997Y0027764D03*
X0051997Y0027864D03*
X0051997Y0027964D03*
X0051997Y0028064D03*
X0051997Y0028164D03*
X0051997Y0028264D03*
X0051997Y0028364D03*
X0051997Y0028464D03*
X0051997Y0028564D03*
X0053197Y0028764D03*
X0053197Y0028864D03*
X0050197Y0028664D03*
X0050197Y0028564D03*
X0050197Y0028464D03*
X0050197Y0027364D03*
X0050197Y0027264D03*
X0050197Y0027164D03*
X0047197Y0028764D03*
X0047197Y0028864D03*
X0050197Y0023764D03*
X0050197Y0023664D03*
X0051997Y0023564D03*
X0051997Y0023464D03*
X0051997Y0023364D03*
X0051997Y0023264D03*
X0051997Y0023164D03*
X0051997Y0023064D03*
X0051997Y0022964D03*
X0051997Y0022864D03*
X0051997Y0022764D03*
X0051997Y0022664D03*
X0051997Y0022564D03*
X0051997Y0022464D03*
X0051997Y0022364D03*
X0051997Y0022264D03*
X0051997Y0022164D03*
X0051997Y0022064D03*
X0051997Y0021964D03*
X0051997Y0021864D03*
X0051997Y0021764D03*
X0051997Y0021664D03*
X0051997Y0021564D03*
X0061297Y0024164D03*
X0061297Y0024264D03*
X0061297Y0024364D03*
X0061297Y0024464D03*
X0061597Y0023464D03*
X0061597Y0023364D03*
X0061597Y0023264D03*
X0062197Y0021764D03*
X0062197Y0021664D03*
X0062197Y0021564D03*
X0063997Y0021564D03*
X0063997Y0021664D03*
X0064597Y0023264D03*
X0064897Y0024164D03*
X0064897Y0024264D03*
X0064897Y0024364D03*
X0064897Y0024464D03*
X0063097Y0024364D03*
X0063097Y0024264D03*
X0063097Y0024164D03*
X0063397Y0027264D03*
X0063397Y0027364D03*
X0063397Y0027464D03*
X0063397Y0027564D03*
X0063397Y0027664D03*
X0063397Y0027764D03*
X0063397Y0027864D03*
X0063397Y0027964D03*
X0063397Y0028064D03*
X0063397Y0028164D03*
X0063397Y0028264D03*
X0063397Y0028364D03*
X0063397Y0028464D03*
X0063397Y0028564D03*
X0063397Y0028664D03*
X0064297Y0029564D03*
X0065197Y0028664D03*
X0065197Y0027364D03*
X0065197Y0027264D03*
X0065197Y0027164D03*
X0067597Y0023764D03*
X0067597Y0023664D03*
X0067597Y0023564D03*
X0067597Y0023464D03*
X0067597Y0023364D03*
X0067597Y0022664D03*
X0067597Y0022564D03*
X0067597Y0022464D03*
X0067597Y0022364D03*
X0067597Y0022264D03*
X0067597Y0022164D03*
X0067597Y0021464D03*
X0065797Y0022664D03*
X0069697Y0026364D03*
X0069697Y0026464D03*
X0069697Y0026564D03*
X0069697Y0026664D03*
X0069697Y0026764D03*
X0069697Y0026864D03*
X0069697Y0026964D03*
X0069697Y0027064D03*
X0069697Y0027164D03*
X0069697Y0027264D03*
X0069697Y0027364D03*
X0069697Y0027464D03*
X0069697Y0027564D03*
X0069697Y0027664D03*
X0069697Y0027764D03*
X0069697Y0027864D03*
X0069697Y0027964D03*
X0069697Y0028064D03*
X0069697Y0028164D03*
X0069697Y0028264D03*
X0069697Y0028364D03*
X0069697Y0028464D03*
X0069697Y0028564D03*
X0069697Y0028664D03*
X0069697Y0029364D03*
X0069697Y0029464D03*
X0071797Y0028664D03*
X0071797Y0028564D03*
X0071797Y0028464D03*
X0071797Y0028364D03*
X0071797Y0027464D03*
X0071797Y0027364D03*
X0071797Y0027264D03*
X0074497Y0027264D03*
X0074497Y0027364D03*
X0074497Y0028664D03*
X0075397Y0029564D03*
X0076297Y0028664D03*
X0076297Y0028564D03*
X0076297Y0028464D03*
X0072997Y0023464D03*
X0072997Y0023364D03*
X0072697Y0022064D03*
X0071197Y0022164D03*
X0071197Y0022264D03*
X0071197Y0023864D03*
X0079597Y0015664D03*
X0079597Y0015564D03*
X0079597Y0015464D03*
X0043597Y0015464D03*
X0043597Y0015564D03*
X0043597Y0015664D03*
X0079597Y0063664D03*
D23*
X0079747Y0063364D03*
X0079747Y0063264D03*
X0079747Y0063164D03*
X0079747Y0063064D03*
X0079747Y0062964D03*
X0079747Y0062864D03*
X0079747Y0062764D03*
X0079747Y0062664D03*
X0079747Y0062564D03*
X0079747Y0062464D03*
X0079747Y0062364D03*
X0079747Y0062264D03*
X0079747Y0062164D03*
X0079747Y0062064D03*
X0079747Y0061964D03*
X0079747Y0061864D03*
X0079747Y0061764D03*
X0079747Y0061664D03*
X0079747Y0061564D03*
X0079747Y0061464D03*
X0079747Y0061364D03*
X0079747Y0061264D03*
X0079747Y0061164D03*
X0079747Y0061064D03*
X0079747Y0060964D03*
X0079747Y0060864D03*
X0079747Y0060764D03*
X0079747Y0060664D03*
X0079747Y0060564D03*
X0079747Y0060464D03*
X0079747Y0060364D03*
X0079747Y0060264D03*
X0079747Y0060164D03*
X0079747Y0060164D03*
X0079747Y0060064D03*
X0079747Y0059964D03*
X0079747Y0059864D03*
X0079747Y0059764D03*
X0079747Y0059664D03*
X0079747Y0059564D03*
X0079747Y0059464D03*
X0079747Y0059464D03*
X0079747Y0059364D03*
X0079747Y0059264D03*
X0079747Y0059264D03*
X0079747Y0059164D03*
X0079747Y0059164D03*
X0079747Y0059064D03*
X0079747Y0059064D03*
X0079747Y0058964D03*
X0079747Y0058864D03*
X0079747Y0058764D03*
X0079747Y0058664D03*
X0079747Y0058664D03*
X0079747Y0058564D03*
X0079747Y0058564D03*
X0079747Y0058464D03*
X0079747Y0058364D03*
X0079747Y0058264D03*
X0079747Y0058164D03*
X0079747Y0058064D03*
X0079747Y0057964D03*
X0079747Y0057864D03*
X0079747Y0057764D03*
X0079747Y0057664D03*
X0079747Y0057564D03*
X0079747Y0057464D03*
X0079747Y0057364D03*
X0079747Y0057264D03*
X0079747Y0057164D03*
X0079747Y0057064D03*
X0079747Y0056964D03*
X0079747Y0056864D03*
X0079747Y0056764D03*
X0079747Y0056664D03*
X0079747Y0056564D03*
X0079747Y0056464D03*
X0079747Y0056364D03*
X0079747Y0056264D03*
X0079747Y0056164D03*
X0079747Y0056064D03*
X0079747Y0055964D03*
X0079747Y0055864D03*
X0079747Y0055764D03*
X0079747Y0055664D03*
X0079747Y0055564D03*
X0079747Y0055464D03*
X0079747Y0055364D03*
X0079747Y0055264D03*
X0079747Y0055164D03*
X0079747Y0055064D03*
X0079747Y0054964D03*
X0079747Y0054864D03*
X0079747Y0054764D03*
X0079747Y0054664D03*
X0079747Y0054564D03*
X0079747Y0054464D03*
X0079747Y0054364D03*
X0079747Y0054264D03*
X0079747Y0054164D03*
X0079747Y0054064D03*
X0079747Y0053964D03*
X0079747Y0053864D03*
X0079747Y0053764D03*
X0079747Y0053664D03*
X0079747Y0053564D03*
X0079747Y0053464D03*
X0079747Y0053464D03*
X0079747Y0053364D03*
X0079747Y0053264D03*
X0079747Y0053164D03*
X0079747Y0053064D03*
X0079747Y0052964D03*
X0079747Y0052864D03*
X0079747Y0052764D03*
X0079747Y0052664D03*
X0079747Y0052564D03*
X0079747Y0052464D03*
X0079747Y0052364D03*
X0079747Y0052264D03*
X0079747Y0052164D03*
X0079747Y0052064D03*
X0079747Y0051964D03*
X0079747Y0051864D03*
X0079747Y0051764D03*
X0079747Y0051664D03*
X0079747Y0051564D03*
X0079747Y0051464D03*
X0079747Y0051364D03*
X0079747Y0051264D03*
X0079747Y0051164D03*
X0079747Y0051064D03*
X0079747Y0050964D03*
X0079747Y0050864D03*
X0079747Y0050764D03*
X0079747Y0050664D03*
X0079747Y0050564D03*
X0079747Y0050464D03*
X0079747Y0050364D03*
X0079747Y0050264D03*
X0079747Y0050164D03*
X0079747Y0050064D03*
X0079747Y0049964D03*
X0079747Y0049864D03*
X0079747Y0049764D03*
X0079747Y0049664D03*
X0079747Y0049564D03*
X0079747Y0049464D03*
X0079747Y0049364D03*
X0079747Y0049264D03*
X0079747Y0049164D03*
X0079747Y0049064D03*
X0079747Y0048964D03*
X0079747Y0048864D03*
X0079747Y0048764D03*
X0079747Y0048664D03*
X0079747Y0048564D03*
X0079747Y0048464D03*
X0079747Y0048364D03*
X0079747Y0048264D03*
X0079747Y0048164D03*
X0079747Y0048064D03*
X0079747Y0047964D03*
X0079747Y0047864D03*
X0079747Y0047764D03*
X0079747Y0047664D03*
X0079747Y0047564D03*
X0079747Y0047464D03*
X0079747Y0047364D03*
X0079747Y0047264D03*
X0079747Y0047164D03*
X0079747Y0047064D03*
X0079747Y0046964D03*
X0079747Y0046864D03*
X0079747Y0046764D03*
X0079747Y0046664D03*
X0079747Y0046564D03*
X0079747Y0046464D03*
X0079747Y0046364D03*
X0079747Y0046264D03*
X0079747Y0046164D03*
X0079747Y0046064D03*
X0079747Y0045964D03*
X0079747Y0045864D03*
X0079747Y0045764D03*
X0079747Y0045664D03*
X0079747Y0045564D03*
X0079747Y0045464D03*
X0079747Y0045364D03*
X0079747Y0045264D03*
X0079747Y0045164D03*
X0079747Y0045064D03*
X0079747Y0044964D03*
X0079747Y0044864D03*
X0079747Y0044764D03*
X0079747Y0044664D03*
X0079747Y0044564D03*
X0079747Y0044464D03*
X0079747Y0044364D03*
X0079747Y0044264D03*
X0079747Y0044164D03*
X0079747Y0044064D03*
X0079747Y0043964D03*
X0079747Y0043864D03*
X0079747Y0043764D03*
X0079747Y0043664D03*
X0079747Y0043564D03*
X0079747Y0043464D03*
X0079747Y0043364D03*
X0079747Y0043264D03*
X0079747Y0043164D03*
X0079747Y0043064D03*
X0079747Y0042964D03*
X0079747Y0042864D03*
X0079747Y0042764D03*
X0079747Y0042664D03*
X0079747Y0042564D03*
X0079747Y0042464D03*
X0079747Y0042364D03*
X0079747Y0042264D03*
X0079747Y0042164D03*
X0079747Y0042064D03*
X0079747Y0041964D03*
X0079747Y0041864D03*
X0079747Y0041764D03*
X0079747Y0041664D03*
X0079747Y0041564D03*
X0079747Y0041464D03*
X0079747Y0041364D03*
X0079747Y0041264D03*
X0079747Y0041164D03*
X0079747Y0041064D03*
X0079747Y0040964D03*
X0079747Y0040864D03*
X0079747Y0040764D03*
X0079747Y0040664D03*
X0079747Y0040564D03*
X0079747Y0040464D03*
X0079747Y0040364D03*
X0079747Y0040264D03*
X0079747Y0040164D03*
X0079747Y0040064D03*
X0079747Y0039964D03*
X0079747Y0039864D03*
X0079747Y0039764D03*
X0079747Y0039664D03*
X0079747Y0039564D03*
X0079747Y0039464D03*
X0079747Y0039364D03*
X0079747Y0039264D03*
X0079747Y0039164D03*
X0079747Y0039064D03*
X0079747Y0038964D03*
X0079747Y0038864D03*
X0079747Y0038764D03*
X0079747Y0038664D03*
X0079747Y0038564D03*
X0079747Y0038464D03*
X0079747Y0038364D03*
X0079747Y0038264D03*
X0079747Y0038164D03*
X0079747Y0038064D03*
X0079747Y0037964D03*
X0079747Y0037864D03*
X0079747Y0037764D03*
X0079747Y0037664D03*
X0079747Y0037564D03*
X0079747Y0037464D03*
X0079747Y0037364D03*
X0079747Y0037264D03*
X0079747Y0037164D03*
X0079747Y0037064D03*
X0079747Y0036964D03*
X0079747Y0036864D03*
X0079747Y0036764D03*
X0079747Y0036664D03*
X0079747Y0036564D03*
X0079747Y0036464D03*
X0079747Y0036364D03*
X0079747Y0036264D03*
X0079747Y0036164D03*
X0079747Y0036064D03*
X0079747Y0035964D03*
X0079747Y0035864D03*
X0079747Y0035764D03*
X0079747Y0035664D03*
X0079747Y0035564D03*
X0079747Y0035464D03*
X0079747Y0035364D03*
X0079747Y0035264D03*
X0079747Y0035164D03*
X0079747Y0035064D03*
X0079747Y0034964D03*
X0079747Y0034864D03*
X0079747Y0034764D03*
X0079747Y0034664D03*
X0079747Y0034564D03*
X0079747Y0034464D03*
X0079747Y0034364D03*
X0079747Y0034264D03*
X0079747Y0034164D03*
X0079747Y0034064D03*
X0079747Y0033964D03*
X0079747Y0033864D03*
X0079747Y0033764D03*
X0079747Y0033664D03*
X0079747Y0033564D03*
X0079747Y0033464D03*
X0079747Y0033364D03*
X0079747Y0033264D03*
X0079747Y0033164D03*
X0079747Y0033064D03*
X0079747Y0032964D03*
X0079747Y0032864D03*
X0079747Y0032764D03*
X0079747Y0032664D03*
X0079747Y0032564D03*
X0079747Y0032464D03*
X0079747Y0032364D03*
X0079747Y0032264D03*
X0079747Y0032164D03*
X0079747Y0032064D03*
X0079747Y0031964D03*
X0079747Y0031864D03*
X0079747Y0031764D03*
X0079747Y0031664D03*
X0079747Y0031564D03*
X0079747Y0031464D03*
X0079747Y0031364D03*
X0079747Y0031264D03*
X0079747Y0031164D03*
X0079747Y0031064D03*
X0079747Y0030964D03*
X0079747Y0030864D03*
X0079747Y0030764D03*
X0079747Y0030664D03*
X0079747Y0030564D03*
X0079747Y0030464D03*
X0079747Y0030364D03*
X0079747Y0030264D03*
X0079747Y0030164D03*
X0079747Y0030064D03*
X0079747Y0029964D03*
X0079747Y0029864D03*
X0079747Y0029764D03*
X0079747Y0029664D03*
X0079747Y0029564D03*
X0079747Y0029464D03*
X0079747Y0029364D03*
X0079747Y0029264D03*
X0079747Y0029164D03*
X0079747Y0029064D03*
X0079747Y0028964D03*
X0079747Y0028864D03*
X0079747Y0028764D03*
X0079747Y0028664D03*
X0079747Y0028564D03*
X0079747Y0028464D03*
X0079747Y0028364D03*
X0079747Y0028264D03*
X0079747Y0028164D03*
X0079747Y0028064D03*
X0079747Y0027964D03*
X0079747Y0027864D03*
X0079747Y0027764D03*
X0079747Y0027664D03*
X0079747Y0027564D03*
X0079747Y0027464D03*
X0079747Y0027364D03*
X0079747Y0027264D03*
X0079747Y0027164D03*
X0079747Y0027064D03*
X0079747Y0026964D03*
X0079747Y0026864D03*
X0079747Y0026764D03*
X0079747Y0026664D03*
X0079747Y0026564D03*
X0079747Y0026464D03*
X0079747Y0026364D03*
X0079747Y0026264D03*
X0079747Y0026164D03*
X0079747Y0026064D03*
X0079747Y0025964D03*
X0079747Y0025864D03*
X0079747Y0025764D03*
X0079747Y0025664D03*
X0079747Y0025564D03*
X0079747Y0025464D03*
X0079747Y0025364D03*
X0079747Y0025264D03*
X0079747Y0025164D03*
X0079747Y0025064D03*
X0079747Y0024964D03*
X0079747Y0024864D03*
X0079747Y0024764D03*
X0079747Y0024664D03*
X0079747Y0024564D03*
X0079747Y0024464D03*
X0079747Y0024364D03*
X0079747Y0024264D03*
X0079747Y0024164D03*
X0079747Y0024064D03*
X0079747Y0023964D03*
X0079747Y0023864D03*
X0079747Y0023764D03*
X0079747Y0023664D03*
X0079747Y0023564D03*
X0079747Y0023464D03*
X0079747Y0023364D03*
X0079747Y0023264D03*
X0079747Y0023164D03*
X0079747Y0023064D03*
X0079747Y0022964D03*
X0079747Y0022864D03*
X0079747Y0022764D03*
X0079747Y0022664D03*
X0079747Y0022564D03*
X0079747Y0022464D03*
X0079747Y0022364D03*
X0079747Y0022264D03*
X0079747Y0022164D03*
X0079747Y0022164D03*
X0079747Y0022064D03*
X0079747Y0021964D03*
X0079747Y0021864D03*
X0079747Y0021764D03*
X0079747Y0021664D03*
X0079747Y0021564D03*
X0079747Y0021464D03*
X0079747Y0021364D03*
X0079747Y0021264D03*
X0079747Y0021164D03*
X0079747Y0021064D03*
X0079747Y0020964D03*
X0079747Y0020964D03*
X0079747Y0020864D03*
X0079747Y0020764D03*
X0079747Y0020664D03*
X0079747Y0020564D03*
X0079747Y0020464D03*
X0079747Y0020364D03*
X0079747Y0019564D03*
X0079747Y0019464D03*
X0079747Y0019364D03*
X0079747Y0019364D03*
X0079747Y0019264D03*
X0079747Y0019164D03*
X0079747Y0019064D03*
X0079747Y0018964D03*
X0079747Y0018864D03*
X0079747Y0018764D03*
X0079747Y0018664D03*
X0079747Y0018564D03*
X0079747Y0018464D03*
X0079747Y0018364D03*
X0079747Y0018264D03*
X0079747Y0018164D03*
X0079747Y0018064D03*
X0079747Y0017964D03*
X0079747Y0017864D03*
X0079747Y0017764D03*
X0079747Y0017664D03*
X0079747Y0017564D03*
X0079747Y0017464D03*
X0079747Y0017364D03*
X0079747Y0017264D03*
X0079747Y0017164D03*
X0079747Y0017064D03*
X0079747Y0016964D03*
X0079747Y0016864D03*
X0079747Y0016764D03*
X0079747Y0016664D03*
X0079747Y0016564D03*
X0079747Y0016464D03*
X0079747Y0016364D03*
X0079747Y0016264D03*
X0079747Y0016164D03*
X0079747Y0016064D03*
X0079747Y0015964D03*
X0072847Y0023664D03*
X0072847Y0023764D03*
X0071047Y0023564D03*
X0071047Y0023464D03*
X0071047Y0023364D03*
X0071047Y0022664D03*
X0071047Y0022564D03*
X0071047Y0022464D03*
X0071047Y0022364D03*
X0068947Y0023564D03*
X0068947Y0023664D03*
X0068947Y0023764D03*
X0068347Y0026364D03*
X0068347Y0026464D03*
X0068347Y0026564D03*
X0068347Y0027264D03*
X0068347Y0027364D03*
X0068347Y0027464D03*
X0068347Y0027564D03*
X0068347Y0027664D03*
X0068347Y0027764D03*
X0068347Y0027864D03*
X0068347Y0027964D03*
X0068347Y0028064D03*
X0068347Y0028164D03*
X0068347Y0028264D03*
X0068347Y0028364D03*
X0068347Y0028464D03*
X0068347Y0028564D03*
X0068347Y0028664D03*
X0068347Y0028764D03*
X0068347Y0028864D03*
X0068347Y0028964D03*
X0068347Y0029064D03*
X0068347Y0029164D03*
X0068347Y0029264D03*
X0068347Y0029364D03*
X0068347Y0029464D03*
X0066547Y0027464D03*
X0066547Y0027364D03*
X0066547Y0027264D03*
X0065347Y0027564D03*
X0065347Y0027664D03*
X0065347Y0027764D03*
X0065347Y0027864D03*
X0065347Y0027964D03*
X0065347Y0028064D03*
X0065347Y0028164D03*
X0065347Y0028264D03*
X0065347Y0028364D03*
X0063547Y0028764D03*
X0063547Y0028864D03*
X0063547Y0027164D03*
X0062347Y0027164D03*
X0062347Y0027264D03*
X0062347Y0027364D03*
X0062347Y0027464D03*
X0060547Y0028464D03*
X0060547Y0028564D03*
X0060547Y0028664D03*
X0060547Y0028764D03*
X0060547Y0028864D03*
X0061447Y0029564D03*
X0060247Y0025864D03*
X0060247Y0025764D03*
X0060247Y0025664D03*
X0060247Y0025564D03*
X0060247Y0025464D03*
X0060247Y0025364D03*
X0060247Y0025264D03*
X0060247Y0025164D03*
X0060247Y0025064D03*
X0060247Y0024964D03*
X0060247Y0024864D03*
X0060247Y0024764D03*
X0060247Y0024664D03*
X0060247Y0024564D03*
X0060247Y0024464D03*
X0060247Y0023564D03*
X0060247Y0023464D03*
X0060247Y0023364D03*
X0060247Y0023264D03*
X0060247Y0023164D03*
X0060247Y0023064D03*
X0060247Y0022964D03*
X0060247Y0022864D03*
X0060247Y0022764D03*
X0060247Y0022664D03*
X0060247Y0022564D03*
X0060247Y0022464D03*
X0060247Y0022364D03*
X0060247Y0021664D03*
X0060247Y0021564D03*
X0060247Y0021464D03*
X0058447Y0022164D03*
X0058447Y0022264D03*
X0058447Y0022364D03*
X0058447Y0022464D03*
X0058447Y0022564D03*
X0058447Y0023564D03*
X0058447Y0023664D03*
X0058447Y0023764D03*
X0056347Y0023764D03*
X0056347Y0023664D03*
X0054847Y0023864D03*
X0054847Y0022264D03*
X0054847Y0022164D03*
X0053047Y0022164D03*
X0053047Y0022264D03*
X0053047Y0022364D03*
X0053047Y0022464D03*
X0053047Y0022564D03*
X0053047Y0022664D03*
X0051247Y0026364D03*
X0051247Y0026464D03*
X0051847Y0027164D03*
X0051847Y0027264D03*
X0051847Y0027364D03*
X0053047Y0027464D03*
X0053047Y0027564D03*
X0053047Y0027664D03*
X0053047Y0028364D03*
X0053047Y0028464D03*
X0053047Y0028564D03*
X0051847Y0028664D03*
X0051847Y0028764D03*
X0051847Y0028864D03*
X0054847Y0028864D03*
X0054847Y0028764D03*
X0054847Y0028664D03*
X0048847Y0028664D03*
X0048847Y0028564D03*
X0048847Y0028464D03*
X0048847Y0027364D03*
X0048847Y0027264D03*
X0047047Y0027264D03*
X0047047Y0027364D03*
X0047047Y0027464D03*
X0047047Y0027564D03*
X0047047Y0027664D03*
X0047047Y0028364D03*
X0047047Y0028464D03*
X0047047Y0028564D03*
X0047047Y0028664D03*
X0047947Y0029564D03*
X0043447Y0029564D03*
X0043447Y0029664D03*
X0043447Y0029764D03*
X0043447Y0029864D03*
X0043447Y0029964D03*
X0043447Y0030064D03*
X0043447Y0030164D03*
X0043447Y0030264D03*
X0043447Y0030364D03*
X0043447Y0030464D03*
X0043447Y0030564D03*
X0043447Y0030664D03*
X0043447Y0030764D03*
X0043447Y0030864D03*
X0043447Y0030964D03*
X0043447Y0031064D03*
X0043447Y0031164D03*
X0043447Y0031264D03*
X0043447Y0031364D03*
X0043447Y0031464D03*
X0043447Y0031564D03*
X0043447Y0031664D03*
X0043447Y0031764D03*
X0043447Y0031864D03*
X0043447Y0031964D03*
X0043447Y0032064D03*
X0043447Y0032164D03*
X0043447Y0032264D03*
X0043447Y0032364D03*
X0043447Y0032464D03*
X0043447Y0032564D03*
X0043447Y0032664D03*
X0043447Y0032764D03*
X0043447Y0032864D03*
X0043447Y0032964D03*
X0043447Y0033064D03*
X0043447Y0033164D03*
X0043447Y0033264D03*
X0043447Y0033364D03*
X0043447Y0033464D03*
X0043447Y0033564D03*
X0043447Y0033664D03*
X0043447Y0033764D03*
X0043447Y0033864D03*
X0043447Y0033964D03*
X0043447Y0034064D03*
X0043447Y0034164D03*
X0043447Y0034264D03*
X0043447Y0034364D03*
X0043447Y0034464D03*
X0043447Y0034564D03*
X0043447Y0034664D03*
X0043447Y0034764D03*
X0043447Y0034864D03*
X0043447Y0034964D03*
X0043447Y0035064D03*
X0043447Y0035164D03*
X0043447Y0035264D03*
X0043447Y0035364D03*
X0043447Y0035464D03*
X0043447Y0035564D03*
X0043447Y0035664D03*
X0043447Y0035764D03*
X0043447Y0035864D03*
X0043447Y0035964D03*
X0043447Y0036064D03*
X0043447Y0036164D03*
X0043447Y0036264D03*
X0043447Y0036364D03*
X0043447Y0036464D03*
X0043447Y0036564D03*
X0043447Y0036664D03*
X0043447Y0036764D03*
X0043447Y0036864D03*
X0043447Y0036964D03*
X0043447Y0037064D03*
X0043447Y0037164D03*
X0043447Y0037264D03*
X0043447Y0037364D03*
X0043447Y0037464D03*
X0043447Y0037564D03*
X0043447Y0037664D03*
X0043447Y0037764D03*
X0043447Y0037864D03*
X0043447Y0037964D03*
X0043447Y0038064D03*
X0043447Y0038164D03*
X0043447Y0038264D03*
X0043447Y0038364D03*
X0043447Y0038464D03*
X0043447Y0038564D03*
X0043447Y0038664D03*
X0043447Y0038764D03*
X0043447Y0038864D03*
X0043447Y0038964D03*
X0043447Y0039064D03*
X0043447Y0039164D03*
X0043447Y0039264D03*
X0043447Y0039364D03*
X0043447Y0039464D03*
X0043447Y0039564D03*
X0043447Y0039664D03*
X0043447Y0039764D03*
X0043447Y0039864D03*
X0043447Y0039964D03*
X0043447Y0040064D03*
X0043447Y0040164D03*
X0043447Y0040264D03*
X0043447Y0040364D03*
X0043447Y0040464D03*
X0043447Y0040564D03*
X0043447Y0040664D03*
X0043447Y0040764D03*
X0043447Y0040864D03*
X0043447Y0040964D03*
X0043447Y0041064D03*
X0043447Y0041164D03*
X0043447Y0041264D03*
X0043447Y0041364D03*
X0043447Y0041464D03*
X0043447Y0041564D03*
X0043447Y0041664D03*
X0043447Y0041764D03*
X0043447Y0041864D03*
X0043447Y0041964D03*
X0043447Y0042064D03*
X0043447Y0042164D03*
X0043447Y0042264D03*
X0043447Y0042364D03*
X0043447Y0042464D03*
X0043447Y0042564D03*
X0043447Y0042664D03*
X0043447Y0042764D03*
X0043447Y0042864D03*
X0043447Y0042964D03*
X0043447Y0043064D03*
X0043447Y0043164D03*
X0043447Y0043264D03*
X0043447Y0043364D03*
X0043447Y0043464D03*
X0043447Y0043564D03*
X0043447Y0043664D03*
X0043447Y0043764D03*
X0043447Y0043864D03*
X0043447Y0043964D03*
X0043447Y0044064D03*
X0043447Y0044164D03*
X0043447Y0044264D03*
X0043447Y0044364D03*
X0043447Y0044464D03*
X0043447Y0044564D03*
X0043447Y0044664D03*
X0043447Y0044764D03*
X0043447Y0044864D03*
X0043447Y0044964D03*
X0043447Y0045064D03*
X0043447Y0045164D03*
X0043447Y0045264D03*
X0043447Y0045364D03*
X0043447Y0045464D03*
X0043447Y0045564D03*
X0043447Y0045664D03*
X0043447Y0045764D03*
X0043447Y0045864D03*
X0043447Y0045964D03*
X0043447Y0046064D03*
X0043447Y0046164D03*
X0043447Y0046264D03*
X0043447Y0046364D03*
X0043447Y0046464D03*
X0043447Y0046564D03*
X0043447Y0046664D03*
X0043447Y0046764D03*
X0043447Y0046864D03*
X0043447Y0046964D03*
X0043447Y0047064D03*
X0043447Y0047164D03*
X0043447Y0047264D03*
X0043447Y0047364D03*
X0043447Y0047464D03*
X0043447Y0047564D03*
X0043447Y0047664D03*
X0043447Y0047764D03*
X0043447Y0047864D03*
X0043447Y0047964D03*
X0043447Y0048064D03*
X0043447Y0048164D03*
X0043447Y0048264D03*
X0043447Y0048364D03*
X0043447Y0048464D03*
X0043447Y0048564D03*
X0043447Y0048664D03*
X0043447Y0048764D03*
X0043447Y0048864D03*
X0043447Y0048964D03*
X0043447Y0049064D03*
X0043447Y0049164D03*
X0043447Y0049264D03*
X0043447Y0049364D03*
X0043447Y0049464D03*
X0043447Y0049564D03*
X0043447Y0049664D03*
X0043447Y0049764D03*
X0043447Y0049864D03*
X0043447Y0049964D03*
X0043447Y0050064D03*
X0043447Y0050164D03*
X0043447Y0050264D03*
X0043447Y0050364D03*
X0043447Y0050464D03*
X0043447Y0050564D03*
X0043447Y0050664D03*
X0043447Y0050764D03*
X0043447Y0050864D03*
X0043447Y0050964D03*
X0043447Y0051064D03*
X0043447Y0051164D03*
X0043447Y0051264D03*
X0043447Y0051364D03*
X0043447Y0051464D03*
X0043447Y0051564D03*
X0043447Y0051664D03*
X0043447Y0051764D03*
X0043447Y0051864D03*
X0043447Y0051964D03*
X0043447Y0052064D03*
X0043447Y0052164D03*
X0043447Y0052264D03*
X0043447Y0052364D03*
X0043447Y0052464D03*
X0043447Y0052564D03*
X0043447Y0052664D03*
X0043447Y0052764D03*
X0043447Y0052864D03*
X0043447Y0052964D03*
X0043447Y0053064D03*
X0043447Y0053164D03*
X0043447Y0053264D03*
X0043447Y0053364D03*
X0043447Y0053464D03*
X0043447Y0053564D03*
X0043447Y0053664D03*
X0043447Y0053764D03*
X0043447Y0053864D03*
X0043447Y0053964D03*
X0043447Y0054064D03*
X0043447Y0054164D03*
X0043447Y0054264D03*
X0043447Y0054364D03*
X0043447Y0054464D03*
X0043447Y0054564D03*
X0043447Y0054664D03*
X0043447Y0054764D03*
X0043447Y0054864D03*
X0043447Y0054964D03*
X0043447Y0055064D03*
X0043447Y0055164D03*
X0043447Y0055264D03*
X0043447Y0055364D03*
X0043447Y0055464D03*
X0043447Y0055564D03*
X0043447Y0055664D03*
X0043447Y0055764D03*
X0043447Y0055864D03*
X0043447Y0055964D03*
X0043447Y0056064D03*
X0043447Y0056164D03*
X0043447Y0056264D03*
X0043447Y0056364D03*
X0043447Y0056464D03*
X0043447Y0056564D03*
X0043447Y0056664D03*
X0043447Y0056764D03*
X0043447Y0056864D03*
X0043447Y0056964D03*
X0043447Y0057064D03*
X0043447Y0057164D03*
X0043447Y0057264D03*
X0043447Y0057364D03*
X0043447Y0057464D03*
X0043447Y0057564D03*
X0043447Y0057664D03*
X0043447Y0057764D03*
X0043447Y0057864D03*
X0043447Y0057964D03*
X0043447Y0058064D03*
X0043447Y0058164D03*
X0043447Y0058264D03*
X0043447Y0058364D03*
X0043447Y0058464D03*
X0043447Y0058564D03*
X0043447Y0058664D03*
X0043447Y0058764D03*
X0043447Y0058864D03*
X0043447Y0058964D03*
X0043447Y0059064D03*
X0043447Y0059164D03*
X0043447Y0059164D03*
X0043447Y0059164D03*
X0043447Y0059264D03*
X0043447Y0059264D03*
X0043447Y0059364D03*
X0043447Y0059464D03*
X0043447Y0059464D03*
X0043447Y0059564D03*
X0043447Y0059664D03*
X0043447Y0059664D03*
X0043447Y0059764D03*
X0043447Y0059864D03*
X0043447Y0059864D03*
X0043447Y0059864D03*
X0043447Y0059964D03*
X0043447Y0060064D03*
X0043447Y0060064D03*
X0043447Y0060164D03*
X0043447Y0060164D03*
X0043447Y0060264D03*
X0043447Y0060364D03*
X0043447Y0060464D03*
X0043447Y0060564D03*
X0043447Y0060664D03*
X0043447Y0060764D03*
X0043447Y0060864D03*
X0043447Y0060964D03*
X0043447Y0061064D03*
X0043447Y0061164D03*
X0043447Y0061264D03*
X0043447Y0061364D03*
X0043447Y0061464D03*
X0043447Y0061564D03*
X0043447Y0061664D03*
X0043447Y0061764D03*
X0043447Y0061864D03*
X0043447Y0061964D03*
X0043447Y0062064D03*
X0043447Y0062164D03*
X0043447Y0062264D03*
X0043447Y0062364D03*
X0043447Y0062464D03*
X0043447Y0062564D03*
X0043447Y0062664D03*
X0043447Y0062764D03*
X0043447Y0062864D03*
X0043447Y0062964D03*
X0043447Y0063064D03*
X0043447Y0063164D03*
X0043447Y0063264D03*
X0043447Y0063364D03*
X0065347Y0033364D03*
X0065347Y0033264D03*
X0072847Y0029564D03*
X0074647Y0028864D03*
X0074647Y0028764D03*
X0076147Y0028764D03*
X0076147Y0028864D03*
X0071947Y0027164D03*
X0065647Y0022564D03*
X0065647Y0022464D03*
X0065647Y0022364D03*
X0065647Y0022264D03*
X0065647Y0022164D03*
X0064447Y0022764D03*
X0064447Y0022864D03*
X0064747Y0023664D03*
X0064747Y0023764D03*
X0064747Y0023864D03*
X0061747Y0022864D03*
X0061747Y0022764D03*
X0061447Y0023664D03*
X0061447Y0023764D03*
X0061447Y0023864D03*
X0061447Y0023964D03*
X0061447Y0024064D03*
X0043447Y0024064D03*
X0043447Y0024164D03*
X0043447Y0024264D03*
X0043447Y0024364D03*
X0043447Y0024464D03*
X0043447Y0024564D03*
X0043447Y0024664D03*
X0043447Y0024764D03*
X0043447Y0024864D03*
X0043447Y0024964D03*
X0043447Y0025064D03*
X0043447Y0025164D03*
X0043447Y0025264D03*
X0043447Y0025364D03*
X0043447Y0025464D03*
X0043447Y0025564D03*
X0043447Y0025664D03*
X0043447Y0025764D03*
X0043447Y0025864D03*
X0043447Y0025964D03*
X0043447Y0026064D03*
X0043447Y0026164D03*
X0043447Y0026264D03*
X0043447Y0026364D03*
X0043447Y0026464D03*
X0043447Y0026564D03*
X0043447Y0026664D03*
X0043447Y0026764D03*
X0043447Y0026864D03*
X0043447Y0026964D03*
X0043447Y0027064D03*
X0043447Y0027164D03*
X0043447Y0027264D03*
X0043447Y0027364D03*
X0043447Y0027464D03*
X0043447Y0027564D03*
X0043447Y0027664D03*
X0043447Y0027764D03*
X0043447Y0027864D03*
X0043447Y0027964D03*
X0043447Y0028064D03*
X0043447Y0028164D03*
X0043447Y0028264D03*
X0043447Y0028364D03*
X0043447Y0028464D03*
X0043447Y0028564D03*
X0043447Y0028664D03*
X0043447Y0028764D03*
X0043447Y0028864D03*
X0043447Y0028964D03*
X0043447Y0029064D03*
X0043447Y0029164D03*
X0043447Y0029264D03*
X0043447Y0029364D03*
X0043447Y0029464D03*
X0043447Y0023964D03*
X0043447Y0023864D03*
X0043447Y0023764D03*
X0043447Y0023664D03*
X0043447Y0023564D03*
X0043447Y0023464D03*
X0043447Y0023364D03*
X0043447Y0023264D03*
X0043447Y0023164D03*
X0043447Y0023064D03*
X0043447Y0022964D03*
X0043447Y0022864D03*
X0043447Y0022764D03*
X0043447Y0022664D03*
X0043447Y0022564D03*
X0043447Y0022464D03*
X0043447Y0022364D03*
X0043447Y0022264D03*
X0043447Y0022164D03*
X0043447Y0022064D03*
X0043447Y0021964D03*
X0043447Y0021864D03*
X0043447Y0021764D03*
X0043447Y0021664D03*
X0043447Y0021564D03*
X0043447Y0021464D03*
X0043447Y0021364D03*
X0043447Y0021264D03*
X0043447Y0021164D03*
X0043447Y0021064D03*
X0043447Y0020964D03*
X0043447Y0020864D03*
X0043447Y0020764D03*
X0043447Y0020664D03*
X0043447Y0020564D03*
X0043447Y0020464D03*
X0043447Y0020364D03*
X0043447Y0019564D03*
X0043447Y0019464D03*
X0043447Y0019364D03*
X0043447Y0019264D03*
X0043447Y0019164D03*
X0043447Y0019064D03*
X0043447Y0018964D03*
X0043447Y0018864D03*
X0043447Y0018764D03*
X0043447Y0018664D03*
X0043447Y0018564D03*
X0043447Y0018464D03*
X0043447Y0018364D03*
X0043447Y0018264D03*
X0043447Y0018164D03*
X0043447Y0018064D03*
X0043447Y0017964D03*
X0043447Y0017864D03*
X0043447Y0017764D03*
X0043447Y0017664D03*
X0043447Y0017564D03*
X0043447Y0017464D03*
X0043447Y0017364D03*
X0043447Y0017264D03*
X0043447Y0017164D03*
X0043447Y0017064D03*
X0043447Y0016964D03*
X0043447Y0016864D03*
X0043447Y0016764D03*
X0043447Y0016664D03*
X0043447Y0016564D03*
X0043447Y0016464D03*
X0043447Y0016364D03*
X0043447Y0016264D03*
X0043447Y0016164D03*
X0043447Y0016064D03*
X0043447Y0015964D03*
D24*
X0061597Y0019664D03*
X0061597Y0019664D03*
X0061597Y0019764D03*
X0061597Y0019864D03*
X0061597Y0019964D03*
X0061597Y0020064D03*
X0061597Y0020164D03*
X0061597Y0020264D03*
D25*
X0062147Y0021464D03*
X0061847Y0022664D03*
X0061647Y0022964D03*
X0061647Y0023064D03*
X0061647Y0023164D03*
X0061547Y0023564D03*
X0061247Y0024564D03*
X0061247Y0024664D03*
X0063147Y0024464D03*
X0063447Y0023464D03*
X0063447Y0023364D03*
X0063447Y0023264D03*
X0063447Y0023164D03*
X0063447Y0023064D03*
X0063647Y0022964D03*
X0063647Y0022864D03*
X0063647Y0022764D03*
X0063647Y0022664D03*
X0064347Y0022664D03*
X0064547Y0022964D03*
X0064547Y0023064D03*
X0064547Y0023164D03*
X0064647Y0023364D03*
X0064647Y0023464D03*
X0064647Y0023564D03*
X0064847Y0023964D03*
X0064847Y0024064D03*
X0064947Y0024564D03*
X0064947Y0024664D03*
X0062747Y0023464D03*
X0062747Y0023364D03*
X0062747Y0023264D03*
X0062747Y0023164D03*
X0062747Y0023064D03*
X0062547Y0022964D03*
X0062547Y0022864D03*
X0062547Y0022764D03*
X0062547Y0022664D03*
X0064047Y0021464D03*
X0067547Y0023864D03*
X0068847Y0023464D03*
X0068847Y0023364D03*
X0068847Y0023264D03*
X0068847Y0023164D03*
X0068847Y0023064D03*
X0068847Y0022964D03*
X0068847Y0022864D03*
X0068847Y0022764D03*
X0068847Y0022664D03*
X0068847Y0022564D03*
X0068847Y0022464D03*
X0068847Y0022364D03*
X0068847Y0022264D03*
X0068847Y0022164D03*
X0068847Y0022064D03*
X0068847Y0021964D03*
X0068847Y0021864D03*
X0068847Y0021764D03*
X0068847Y0021664D03*
X0068847Y0021564D03*
X0068847Y0021464D03*
X0071147Y0023664D03*
X0071147Y0023764D03*
X0072047Y0024564D03*
X0072047Y0024664D03*
X0072947Y0023564D03*
X0070047Y0024564D03*
X0070047Y0024664D03*
X0068847Y0024664D03*
X0068847Y0024564D03*
X0068847Y0024464D03*
X0066447Y0027564D03*
X0066447Y0027664D03*
X0066447Y0027764D03*
X0066447Y0027864D03*
X0066447Y0027964D03*
X0066447Y0028064D03*
X0066447Y0028164D03*
X0066447Y0028264D03*
X0066447Y0028364D03*
X0066447Y0028464D03*
X0066447Y0028564D03*
X0066447Y0028664D03*
X0066447Y0028764D03*
X0066447Y0028864D03*
X0066447Y0028964D03*
X0066447Y0029064D03*
X0066447Y0029164D03*
X0066447Y0029264D03*
X0066447Y0029364D03*
X0066447Y0029464D03*
X0066447Y0029564D03*
X0065247Y0028564D03*
X0065247Y0028464D03*
X0065247Y0027464D03*
X0060447Y0027164D03*
X0059147Y0024664D03*
X0059147Y0024564D03*
X0058347Y0023464D03*
X0058347Y0023364D03*
X0058347Y0023264D03*
X0058347Y0023164D03*
X0058347Y0023064D03*
X0058347Y0022964D03*
X0058347Y0022864D03*
X0058347Y0022764D03*
X0058347Y0022664D03*
X0056247Y0022664D03*
X0056247Y0022764D03*
X0056247Y0022864D03*
X0056247Y0022964D03*
X0056247Y0023064D03*
X0056247Y0023164D03*
X0056247Y0023264D03*
X0056247Y0023364D03*
X0056247Y0023464D03*
X0056247Y0023564D03*
X0056247Y0024464D03*
X0056247Y0024564D03*
X0056247Y0024664D03*
X0057347Y0024664D03*
X0057347Y0024564D03*
X0056147Y0026364D03*
X0056147Y0026464D03*
X0056147Y0026564D03*
X0056147Y0026664D03*
X0056147Y0026764D03*
X0056147Y0026864D03*
X0056147Y0026964D03*
X0056147Y0027064D03*
X0056147Y0027164D03*
X0056147Y0027264D03*
X0056147Y0027364D03*
X0056147Y0027464D03*
X0056147Y0027564D03*
X0056147Y0027664D03*
X0056147Y0027764D03*
X0056147Y0027864D03*
X0056147Y0027964D03*
X0056147Y0028064D03*
X0056147Y0028164D03*
X0056147Y0028264D03*
X0056147Y0028364D03*
X0056147Y0029364D03*
X0056147Y0029464D03*
X0056147Y0029564D03*
X0057347Y0029564D03*
X0054047Y0029564D03*
X0053147Y0028664D03*
X0053147Y0027364D03*
X0053147Y0027264D03*
X0050147Y0027464D03*
X0050147Y0027564D03*
X0050147Y0027664D03*
X0050147Y0027764D03*
X0050147Y0027864D03*
X0050147Y0027964D03*
X0050147Y0028064D03*
X0050147Y0028164D03*
X0050147Y0028264D03*
X0050147Y0028364D03*
X0050147Y0029364D03*
X0050147Y0029464D03*
X0050147Y0029564D03*
X0051147Y0029564D03*
X0048947Y0028364D03*
X0048947Y0028264D03*
X0048947Y0028164D03*
X0048947Y0028064D03*
X0048947Y0027964D03*
X0048947Y0027864D03*
X0048947Y0027764D03*
X0048947Y0027664D03*
X0048947Y0027564D03*
X0048947Y0027464D03*
X0050147Y0026564D03*
X0050147Y0026464D03*
X0050147Y0026364D03*
X0050147Y0026264D03*
X0050147Y0026164D03*
X0050147Y0026064D03*
X0050147Y0025964D03*
X0050147Y0025864D03*
X0050147Y0025764D03*
X0050147Y0025664D03*
X0050147Y0025564D03*
X0050147Y0025464D03*
X0050147Y0025364D03*
X0050147Y0025264D03*
X0050147Y0025164D03*
X0050147Y0025064D03*
X0050147Y0024964D03*
X0050147Y0024864D03*
X0050147Y0024764D03*
X0050147Y0024664D03*
X0050147Y0024564D03*
X0050147Y0024464D03*
X0050147Y0023564D03*
X0050147Y0023464D03*
X0050147Y0023364D03*
X0050147Y0023264D03*
X0050147Y0023164D03*
X0050147Y0023064D03*
X0050147Y0022964D03*
X0050147Y0022864D03*
X0050147Y0022764D03*
X0050147Y0022664D03*
X0050147Y0022564D03*
X0050147Y0022464D03*
X0050147Y0022364D03*
X0050147Y0022264D03*
X0050147Y0022164D03*
X0050147Y0022064D03*
X0050147Y0021964D03*
X0050147Y0021864D03*
X0050147Y0021764D03*
X0050147Y0021664D03*
X0050147Y0021564D03*
X0050147Y0021464D03*
X0051947Y0021464D03*
X0054947Y0021464D03*
X0054947Y0021564D03*
X0054947Y0021664D03*
X0054947Y0022364D03*
X0054947Y0022464D03*
X0054947Y0022564D03*
X0054947Y0022664D03*
X0054947Y0023364D03*
X0054947Y0023464D03*
X0054947Y0023564D03*
X0054947Y0023664D03*
X0054947Y0023764D03*
X0056247Y0022564D03*
X0056247Y0022464D03*
X0056247Y0022364D03*
X0056247Y0022264D03*
X0056247Y0022164D03*
X0056247Y0022064D03*
X0056247Y0021964D03*
X0056247Y0021864D03*
X0056247Y0021764D03*
X0056247Y0021664D03*
X0056247Y0021564D03*
X0056247Y0021464D03*
X0051147Y0024564D03*
X0051147Y0024664D03*
X0046947Y0027764D03*
X0046947Y0027864D03*
X0046947Y0027964D03*
X0046947Y0028064D03*
X0046947Y0028164D03*
X0046947Y0028264D03*
X0054647Y0032064D03*
X0054647Y0032164D03*
X0068747Y0032164D03*
X0068747Y0032064D03*
X0069647Y0029564D03*
X0070847Y0029564D03*
X0071747Y0028264D03*
X0071747Y0028164D03*
X0071747Y0028064D03*
X0071747Y0027964D03*
X0071747Y0027864D03*
X0071747Y0027764D03*
X0071747Y0027664D03*
X0071747Y0027564D03*
X0074447Y0027564D03*
X0074447Y0027664D03*
X0074447Y0027464D03*
X0074447Y0028364D03*
X0074447Y0028464D03*
X0074447Y0028564D03*
X0076347Y0028364D03*
D26*
X0075397Y0029364D03*
X0075397Y0029464D03*
X0064297Y0029464D03*
X0064297Y0029364D03*
X0054697Y0032364D03*
X0054697Y0032464D03*
X0053797Y0021664D03*
X0053797Y0021564D03*
D27*
X0053947Y0024164D03*
X0050947Y0024164D03*
X0050947Y0024264D03*
X0050947Y0024364D03*
X0050947Y0026664D03*
X0050947Y0026764D03*
X0050947Y0029064D03*
X0050947Y0029164D03*
X0050947Y0029264D03*
X0047947Y0028964D03*
X0047947Y0027064D03*
X0047947Y0026964D03*
X0056947Y0029264D03*
X0061447Y0029164D03*
X0061447Y0029064D03*
X0061447Y0028964D03*
X0066847Y0023164D03*
X0066847Y0023064D03*
X0066847Y0021664D03*
X0066847Y0021564D03*
X0071947Y0023964D03*
X0071947Y0024064D03*
X0072847Y0026864D03*
X0072847Y0029064D03*
X0072847Y0029164D03*
X0075547Y0026864D03*
D28*
X0075397Y0029264D03*
X0072097Y0021664D03*
X0072097Y0021564D03*
X0066697Y0024464D03*
X0054097Y0026564D03*
X0054697Y0032564D03*
X0054697Y0050064D03*
X0054697Y0050164D03*
D29*
X0064297Y0028964D03*
X0067597Y0026764D03*
X0067597Y0026664D03*
X0066697Y0024164D03*
X0072097Y0021964D03*
X0072097Y0021864D03*
X0072697Y0026964D03*
X0072697Y0027064D03*
X0075397Y0028964D03*
X0061297Y0026764D03*
X0061297Y0026664D03*
X0059497Y0024364D03*
X0059497Y0024264D03*
X0054097Y0024064D03*
X0054097Y0023964D03*
X0054097Y0022964D03*
X0054097Y0021764D03*
X0054097Y0026864D03*
D30*
X0057047Y0028964D03*
X0057047Y0029064D03*
X0057047Y0029164D03*
X0054747Y0032864D03*
X0051047Y0028964D03*
X0051047Y0027064D03*
X0051047Y0026964D03*
X0051047Y0026864D03*
X0051047Y0024064D03*
X0051047Y0023964D03*
X0054047Y0022864D03*
X0054047Y0022764D03*
X0054047Y0021964D03*
X0054047Y0021864D03*
X0059447Y0021864D03*
X0059447Y0021964D03*
X0059447Y0021764D03*
X0059447Y0024164D03*
X0064347Y0026964D03*
X0064347Y0027064D03*
X0067547Y0026864D03*
X0066747Y0022964D03*
X0066747Y0021764D03*
X0072747Y0028964D03*
X0068547Y0032864D03*
X0068547Y0049764D03*
X0068547Y0049864D03*
X0054747Y0049864D03*
X0054747Y0049764D03*
D31*
X0054697Y0049964D03*
X0070297Y0029164D03*
X0070297Y0029064D03*
X0075397Y0029064D03*
X0075397Y0029164D03*
X0072097Y0021764D03*
X0066997Y0023264D03*
X0054097Y0026664D03*
X0054097Y0026764D03*
D32*
X0061297Y0026864D03*
X0066697Y0022864D03*
X0066697Y0022764D03*
X0066697Y0021964D03*
X0066697Y0021864D03*
X0075397Y0027764D03*
X0075397Y0027864D03*
X0075397Y0027964D03*
X0075397Y0028064D03*
X0075397Y0028164D03*
X0075397Y0028264D03*
D33*
X0067447Y0027064D03*
X0067447Y0026964D03*
X0059347Y0024064D03*
X0059347Y0023964D03*
X0059347Y0022064D03*
D34*
X0060497Y0027264D03*
X0060497Y0027364D03*
X0054797Y0027164D03*
X0065997Y0023864D03*
X0072797Y0022264D03*
X0072797Y0022164D03*
X0076197Y0027164D03*
D35*
X0071997Y0023264D03*
X0071997Y0023164D03*
X0071997Y0023064D03*
X0071997Y0022964D03*
X0071997Y0022864D03*
X0071997Y0022764D03*
X0068597Y0032964D03*
X0068597Y0033064D03*
X0054797Y0033064D03*
X0054797Y0032964D03*
X0053997Y0028264D03*
X0053997Y0028164D03*
X0053997Y0028064D03*
X0053997Y0027964D03*
X0053997Y0027864D03*
X0053997Y0027764D03*
X0054797Y0049664D03*
X0068597Y0049664D03*
D36*
X0068597Y0032764D03*
X0068597Y0032664D03*
X0070397Y0029264D03*
X0069597Y0024364D03*
X0069597Y0024264D03*
X0066797Y0024064D03*
X0066797Y0023964D03*
X0066597Y0024264D03*
X0066597Y0024364D03*
X0064397Y0026864D03*
X0064397Y0029064D03*
X0064397Y0029164D03*
X0061497Y0029264D03*
X0061397Y0028064D03*
X0061497Y0027964D03*
X0061497Y0027864D03*
X0056997Y0024364D03*
X0056997Y0024264D03*
X0053997Y0024264D03*
X0053997Y0024364D03*
X0054197Y0023164D03*
X0054197Y0023064D03*
X0053997Y0028964D03*
X0053997Y0029064D03*
X0053997Y0029164D03*
X0054797Y0032664D03*
X0054797Y0032764D03*
X0047997Y0026864D03*
X0071997Y0024164D03*
X0075497Y0026664D03*
X0075497Y0026764D03*
D37*
X0072847Y0026764D03*
X0072847Y0026664D03*
X0069547Y0024164D03*
X0056947Y0024164D03*
X0054247Y0023264D03*
X0047947Y0026664D03*
X0047947Y0026764D03*
X0047947Y0029064D03*
X0047947Y0029164D03*
X0068647Y0049964D03*
D38*
X0058147Y0033064D03*
X0058147Y0032964D03*
X0054547Y0031964D03*
X0053347Y0023864D03*
X0057547Y0023864D03*
X0070147Y0023864D03*
X0073447Y0027264D03*
X0073447Y0027364D03*
X0073447Y0028664D03*
X0071047Y0028764D03*
X0071047Y0028864D03*
D39*
X0070247Y0028964D03*
X0072747Y0029264D03*
X0072047Y0024364D03*
X0072047Y0024264D03*
X0069447Y0024064D03*
X0069447Y0023964D03*
X0064347Y0026664D03*
X0064347Y0026764D03*
X0064347Y0029264D03*
X0061647Y0027764D03*
X0061247Y0028164D03*
X0061247Y0028264D03*
X0061347Y0026564D03*
X0056847Y0024064D03*
X0056847Y0023964D03*
X0054047Y0029264D03*
X0048047Y0029264D03*
D40*
X0053947Y0024464D03*
X0061447Y0029364D03*
X0061447Y0029464D03*
X0068647Y0032564D03*
X0068647Y0050064D03*
X0068647Y0050164D03*
D41*
X0068797Y0050564D03*
X0065197Y0033164D03*
X0062197Y0028864D03*
X0062197Y0028764D03*
X0063097Y0024664D03*
X0063097Y0024564D03*
D42*
X0068347Y0029564D03*
X0073447Y0028864D03*
X0073447Y0028764D03*
X0073447Y0027164D03*
X0058147Y0033164D03*
X0054547Y0050564D03*
D43*
X0065197Y0033064D03*
X0065197Y0032964D03*
X0068797Y0031964D03*
D44*
X0054847Y0033164D03*
X0054847Y0049464D03*
X0054847Y0049564D03*
D45*
X0068497Y0049564D03*
X0068497Y0049464D03*
X0068497Y0033164D03*
D46*
X0054847Y0033264D03*
X0054847Y0033364D03*
X0054847Y0049364D03*
D47*
X0068497Y0049364D03*
X0068497Y0033364D03*
X0068497Y0033264D03*
D48*
X0068397Y0033464D03*
X0054897Y0033464D03*
X0054897Y0049164D03*
X0054897Y0049264D03*
X0061697Y0050964D03*
X0061697Y0051064D03*
X0061697Y0051164D03*
X0061697Y0051264D03*
X0061697Y0051364D03*
X0061697Y0051464D03*
X0061697Y0051564D03*
X0061697Y0051664D03*
X0068397Y0049264D03*
X0068397Y0049164D03*
D49*
X0067697Y0033664D03*
X0067697Y0033564D03*
X0055697Y0033564D03*
X0055697Y0033664D03*
D50*
X0055647Y0033764D03*
X0056547Y0035964D03*
X0056547Y0036064D03*
X0056547Y0036164D03*
X0056747Y0036264D03*
X0056747Y0036364D03*
X0056847Y0036564D03*
X0056847Y0036664D03*
X0056847Y0036864D03*
X0056847Y0036964D03*
X0066447Y0036964D03*
X0066447Y0036864D03*
X0066447Y0036664D03*
X0066447Y0036564D03*
X0066647Y0036364D03*
X0066647Y0036264D03*
X0066747Y0036164D03*
X0066747Y0036064D03*
X0066747Y0035964D03*
X0067647Y0033764D03*
X0061647Y0049464D03*
X0061647Y0049564D03*
D51*
X0066397Y0037064D03*
X0066997Y0035764D03*
X0066997Y0035664D03*
X0066997Y0035564D03*
X0056497Y0035864D03*
X0056197Y0035464D03*
X0056197Y0035364D03*
X0055597Y0033964D03*
X0055597Y0033864D03*
D52*
X0056347Y0035564D03*
X0056347Y0035664D03*
X0056347Y0035764D03*
X0056947Y0037064D03*
X0066847Y0035864D03*
X0067147Y0035464D03*
X0067147Y0035364D03*
X0067747Y0033964D03*
X0067747Y0033864D03*
D53*
X0067597Y0034464D03*
X0067597Y0034564D03*
X0067597Y0034664D03*
X0066397Y0037364D03*
X0066397Y0037464D03*
X0066397Y0037564D03*
X0066997Y0038864D03*
X0067297Y0039164D03*
X0055897Y0034864D03*
X0055897Y0034764D03*
X0055597Y0034364D03*
X0055597Y0034264D03*
X0055597Y0034164D03*
X0055597Y0034064D03*
D54*
X0055747Y0034464D03*
X0055747Y0034564D03*
X0055747Y0034664D03*
X0056947Y0037364D03*
X0056947Y0037464D03*
X0056947Y0037564D03*
X0056347Y0038864D03*
X0056047Y0039164D03*
X0067447Y0034864D03*
X0067447Y0034764D03*
X0067747Y0034364D03*
X0067747Y0034264D03*
X0067747Y0034164D03*
X0067747Y0034064D03*
D55*
X0067397Y0034964D03*
X0067397Y0035064D03*
X0067397Y0035164D03*
X0067197Y0035264D03*
X0066497Y0037164D03*
X0066497Y0037264D03*
X0067097Y0038964D03*
X0067097Y0039064D03*
X0067197Y0043464D03*
X0067197Y0043564D03*
X0067097Y0043664D03*
X0066897Y0043764D03*
X0066897Y0043864D03*
X0056397Y0043864D03*
X0056397Y0043764D03*
X0056297Y0043664D03*
X0056097Y0043564D03*
X0056097Y0043464D03*
X0056297Y0039064D03*
X0056297Y0038964D03*
X0056897Y0037264D03*
X0056897Y0037164D03*
X0056097Y0035264D03*
X0055997Y0035164D03*
X0055997Y0035064D03*
X0055997Y0034964D03*
D56*
X0056797Y0036464D03*
X0066397Y0036764D03*
D57*
X0066547Y0036464D03*
X0056947Y0036764D03*
D58*
X0056847Y0037664D03*
X0056547Y0038564D03*
X0056447Y0038664D03*
X0056447Y0038764D03*
X0056547Y0043964D03*
X0061647Y0049364D03*
X0066747Y0043964D03*
X0066947Y0038764D03*
X0066947Y0038664D03*
X0066747Y0038564D03*
X0066447Y0037664D03*
D59*
X0056947Y0037764D03*
X0056947Y0037864D03*
X0056647Y0044064D03*
X0056647Y0044164D03*
D60*
X0066697Y0044164D03*
X0066697Y0044064D03*
X0066397Y0037864D03*
X0066397Y0037764D03*
D61*
X0066497Y0037964D03*
X0066497Y0038264D03*
X0066597Y0038364D03*
X0066597Y0038464D03*
X0066497Y0044264D03*
X0056897Y0044264D03*
X0056697Y0038464D03*
X0056697Y0038364D03*
X0056897Y0038264D03*
X0056897Y0037964D03*
D62*
X0056947Y0038064D03*
X0056947Y0038164D03*
X0067747Y0039264D03*
X0067747Y0039364D03*
X0067747Y0043364D03*
D63*
X0066397Y0038164D03*
X0066397Y0038064D03*
X0055597Y0039264D03*
X0055597Y0039364D03*
X0055597Y0043364D03*
D64*
X0055247Y0043264D03*
X0055247Y0043164D03*
X0055047Y0039464D03*
X0068247Y0039464D03*
X0068147Y0043164D03*
X0068147Y0043264D03*
D65*
X0069097Y0042164D03*
X0069097Y0042064D03*
X0069097Y0041964D03*
X0069097Y0041864D03*
X0069097Y0041764D03*
X0069097Y0041664D03*
X0069097Y0041564D03*
X0069097Y0041464D03*
X0069097Y0041364D03*
X0069097Y0041264D03*
X0069097Y0041164D03*
X0069097Y0041064D03*
X0069097Y0040964D03*
X0069097Y0040864D03*
X0069097Y0040764D03*
X0069097Y0040664D03*
X0069097Y0040564D03*
X0069097Y0040464D03*
X0069097Y0040364D03*
X0054697Y0039664D03*
X0054697Y0039564D03*
D66*
X0054247Y0040364D03*
X0054247Y0040464D03*
X0054247Y0040564D03*
X0054247Y0040664D03*
X0054247Y0040764D03*
X0054247Y0040864D03*
X0054247Y0040964D03*
X0054247Y0041064D03*
X0054247Y0041164D03*
X0054247Y0041264D03*
X0054247Y0041364D03*
X0054247Y0041464D03*
X0054247Y0041564D03*
X0054247Y0041664D03*
X0054247Y0041764D03*
X0054247Y0041864D03*
X0054247Y0041964D03*
X0054247Y0042064D03*
X0054247Y0042164D03*
X0068647Y0039664D03*
X0068647Y0039564D03*
D67*
X0054397Y0039764D03*
X0054397Y0039864D03*
X0054397Y0039964D03*
X0054397Y0042764D03*
X0054397Y0042864D03*
X0054397Y0042964D03*
D68*
X0068947Y0042964D03*
X0068947Y0042864D03*
X0068947Y0042764D03*
X0068947Y0039964D03*
X0068947Y0039864D03*
X0068947Y0039764D03*
D69*
X0068997Y0040064D03*
X0068997Y0040164D03*
X0068997Y0040264D03*
X0068997Y0042264D03*
X0068997Y0042364D03*
X0068997Y0042464D03*
X0068997Y0042564D03*
X0068997Y0042664D03*
X0054297Y0042664D03*
X0054297Y0042564D03*
X0054297Y0042464D03*
X0054297Y0042364D03*
X0054297Y0042264D03*
X0054297Y0040264D03*
X0054297Y0040164D03*
X0054297Y0040064D03*
D70*
X0054747Y0043064D03*
X0068547Y0043064D03*
D71*
X0057097Y0044364D03*
X0057097Y0044464D03*
D72*
X0066247Y0044464D03*
X0066247Y0044364D03*
D73*
X0061647Y0044564D03*
X0061647Y0044664D03*
X0061647Y0044764D03*
X0061647Y0046464D03*
X0061647Y0046564D03*
D74*
X0061697Y0046364D03*
X0061697Y0045164D03*
X0061697Y0045064D03*
X0061697Y0044964D03*
X0061697Y0044864D03*
D75*
X0061647Y0045264D03*
X0061647Y0045364D03*
X0061647Y0045464D03*
X0061647Y0046064D03*
X0061647Y0046164D03*
X0061647Y0046264D03*
D76*
X0061697Y0045964D03*
X0061697Y0045864D03*
X0061697Y0045764D03*
X0061697Y0045664D03*
X0061697Y0045564D03*
D77*
X0061697Y0046664D03*
X0061697Y0046764D03*
X0061697Y0046864D03*
D78*
X0061647Y0046964D03*
D79*
X0061697Y0047064D03*
X0061697Y0047164D03*
X0061697Y0047264D03*
D80*
X0061647Y0047364D03*
X0061647Y0047464D03*
D81*
X0061697Y0047564D03*
X0061697Y0047664D03*
X0061697Y0047764D03*
D82*
X0061647Y0047864D03*
X0061647Y0048864D03*
X0061647Y0048964D03*
D83*
X0061697Y0048764D03*
X0061697Y0048164D03*
X0061697Y0048064D03*
X0061697Y0047964D03*
D84*
X0061647Y0048264D03*
X0061647Y0048364D03*
X0061647Y0048464D03*
X0061647Y0048564D03*
X0061647Y0048664D03*
D85*
X0061647Y0050264D03*
X0061647Y0050364D03*
X0061647Y0050464D03*
X0061647Y0050564D03*
X0061647Y0050664D03*
X0061647Y0050764D03*
X0061647Y0050864D03*
X0054947Y0049064D03*
X0068447Y0049064D03*
D86*
X0061697Y0049064D03*
D87*
X0061697Y0049164D03*
X0061697Y0049264D03*
D88*
X0061697Y0049664D03*
D89*
X0061697Y0049764D03*
X0061697Y0049864D03*
X0061697Y0049964D03*
X0061697Y0050064D03*
X0061697Y0050164D03*
D90*
X0061647Y0051764D03*
X0061647Y0051864D03*
X0061647Y0051964D03*
X0061647Y0052064D03*
X0061647Y0052164D03*
X0061647Y0052264D03*
X0061647Y0052364D03*
X0061647Y0052464D03*
X0061647Y0052564D03*
D91*
X0061697Y0052664D03*
X0061697Y0052764D03*
X0061697Y0052864D03*
X0061697Y0052964D03*
D92*
X0061547Y0065464D03*
D93*
X0061282Y0060902D02*
X0060381Y0060902D01*
X0059930Y0060451D01*
X0059930Y0058650D01*
X0060381Y0058199D01*
X0061282Y0058199D01*
X0061732Y0058650D01*
X0061732Y0059550D01*
X0060831Y0059550D01*
X0061732Y0060451D02*
X0061282Y0060902D01*
X0058970Y0060902D02*
X0058970Y0058199D01*
X0057168Y0060902D01*
X0057168Y0058199D01*
X0056227Y0058199D02*
X0055327Y0058199D01*
X0055777Y0058199D02*
X0055777Y0060902D01*
X0055327Y0060902D02*
X0056227Y0060902D01*
X0054366Y0060451D02*
X0054366Y0059550D01*
X0053915Y0059100D01*
X0052564Y0059100D01*
X0052564Y0058199D02*
X0052564Y0060902D01*
X0053915Y0060902D01*
X0054366Y0060451D01*
X0051603Y0060902D02*
X0051603Y0058199D01*
X0049802Y0058199D02*
X0049802Y0060902D01*
X0050703Y0060001D01*
X0051603Y0060902D01*
X0048841Y0060902D02*
X0048841Y0058650D01*
X0048391Y0058199D01*
X0047490Y0058199D01*
X0047039Y0058650D01*
X0047039Y0060902D01*
X0046079Y0060902D02*
X0045178Y0060902D01*
X0045628Y0060902D02*
X0045628Y0058650D01*
X0045178Y0058199D01*
X0044727Y0058199D01*
X0044277Y0058650D01*
X0049572Y0056402D02*
X0050472Y0055501D01*
X0051373Y0056402D01*
X0051373Y0053699D01*
X0052334Y0054150D02*
X0052784Y0053699D01*
X0054136Y0053699D01*
X0054136Y0053249D02*
X0053685Y0052798D01*
X0053235Y0052798D01*
X0054136Y0053249D02*
X0054136Y0055501D01*
X0055096Y0055501D02*
X0055547Y0055050D01*
X0056447Y0055050D01*
X0056898Y0054600D01*
X0056898Y0054150D01*
X0056447Y0053699D01*
X0055547Y0053699D01*
X0055096Y0054150D01*
X0055096Y0055501D02*
X0055096Y0055951D01*
X0055547Y0056402D01*
X0056447Y0056402D01*
X0056898Y0055951D01*
X0057859Y0055050D02*
X0058309Y0055501D01*
X0059210Y0055501D01*
X0059660Y0055050D01*
X0059660Y0054600D01*
X0057859Y0054600D01*
X0057859Y0054150D02*
X0057859Y0055050D01*
X0057859Y0054150D02*
X0058309Y0053699D01*
X0059210Y0053699D01*
X0060621Y0053699D02*
X0060621Y0055501D01*
X0061972Y0055501D01*
X0062423Y0055050D01*
X0062423Y0053699D01*
X0063383Y0053699D02*
X0064735Y0053699D01*
X0065185Y0054150D01*
X0064735Y0054600D01*
X0063834Y0054600D01*
X0063383Y0055050D01*
X0063834Y0055501D01*
X0065185Y0055501D01*
X0066146Y0055050D02*
X0066146Y0054150D01*
X0066596Y0053699D01*
X0067497Y0053699D01*
X0067947Y0054150D01*
X0067947Y0055050D01*
X0067497Y0055501D01*
X0066596Y0055501D01*
X0066146Y0055050D01*
X0068908Y0054600D02*
X0069809Y0055501D01*
X0070259Y0055501D01*
X0071210Y0055050D02*
X0071660Y0055501D01*
X0073012Y0055501D01*
X0072561Y0054600D02*
X0071660Y0054600D01*
X0071210Y0055050D01*
X0071210Y0053699D02*
X0072561Y0053699D01*
X0073012Y0054150D01*
X0072561Y0054600D01*
X0072781Y0058199D02*
X0072781Y0060001D01*
X0071881Y0060902D01*
X0070980Y0060001D01*
X0070980Y0058199D01*
X0070019Y0058650D02*
X0070019Y0060451D01*
X0069569Y0060902D01*
X0068668Y0060902D01*
X0068217Y0060451D01*
X0068217Y0058650D01*
X0068668Y0058199D01*
X0069569Y0058199D01*
X0070019Y0058650D01*
X0070980Y0059550D02*
X0072781Y0059550D01*
X0073742Y0059100D02*
X0075093Y0059100D01*
X0075544Y0059550D01*
X0075544Y0060451D01*
X0075093Y0060902D01*
X0073742Y0060902D01*
X0073742Y0058199D01*
X0074643Y0059100D02*
X0075544Y0058199D01*
X0076505Y0058199D02*
X0076505Y0060902D01*
X0077856Y0060902D01*
X0078306Y0060451D01*
X0078306Y0058650D01*
X0077856Y0058199D01*
X0076505Y0058199D01*
X0068908Y0055501D02*
X0068908Y0053699D01*
X0066806Y0058199D02*
X0065455Y0058199D01*
X0065455Y0060902D01*
X0066806Y0060902D01*
X0067257Y0060451D01*
X0067257Y0060001D01*
X0066806Y0059550D01*
X0065455Y0059550D01*
X0066806Y0059550D02*
X0067257Y0059100D01*
X0067257Y0058650D01*
X0066806Y0058199D01*
X0052334Y0055501D02*
X0052334Y0054150D01*
X0049572Y0053699D02*
X0049572Y0056402D01*
X0017850Y0058204D02*
X0016048Y0058204D01*
X0015148Y0059105D01*
X0016048Y0060006D01*
X0017850Y0060006D01*
X0017400Y0060966D02*
X0017850Y0061417D01*
X0017850Y0062318D01*
X0017400Y0062768D01*
X0016949Y0062768D01*
X0016499Y0062318D01*
X0016499Y0061867D01*
X0016499Y0062318D02*
X0016048Y0062768D01*
X0015598Y0062768D01*
X0015148Y0062318D01*
X0015148Y0061417D01*
X0015598Y0060966D01*
X0016499Y0060006D02*
X0016499Y0058204D01*
X0016499Y0054481D02*
X0016499Y0052679D01*
X0015148Y0054031D01*
X0017850Y0054031D01*
X0017850Y0051719D02*
X0016048Y0051719D01*
X0015148Y0050818D01*
X0016048Y0049917D01*
X0017850Y0049917D01*
X0016499Y0049917D02*
X0016499Y0051719D01*
X0016499Y0043432D02*
X0017400Y0043432D01*
X0017850Y0042981D01*
X0017850Y0042080D01*
X0017400Y0041630D01*
X0016499Y0041630D02*
X0016048Y0042531D01*
X0016048Y0042981D01*
X0016499Y0043432D01*
X0015148Y0043432D02*
X0015148Y0041630D01*
X0016499Y0041630D01*
X0016499Y0040669D02*
X0016499Y0038868D01*
X0016048Y0038868D02*
X0015148Y0039768D01*
X0016048Y0040669D01*
X0017850Y0040669D01*
X0017850Y0038868D02*
X0016048Y0038868D01*
X0015598Y0035144D02*
X0015148Y0034694D01*
X0015148Y0033343D01*
X0017850Y0033343D01*
X0017850Y0034694D01*
X0017400Y0035144D01*
X0015598Y0035144D01*
X0015148Y0032382D02*
X0017850Y0032382D01*
X0015148Y0030581D01*
X0017850Y0030581D01*
X0017400Y0029620D02*
X0016499Y0029620D01*
X0016499Y0028719D01*
X0017400Y0027818D02*
X0017850Y0028269D01*
X0017850Y0029169D01*
X0017400Y0029620D01*
X0017400Y0027818D02*
X0015598Y0027818D01*
X0015148Y0028269D01*
X0015148Y0029169D01*
X0015598Y0029620D01*
X0015598Y0024095D02*
X0016048Y0024095D01*
X0016499Y0023645D01*
X0016949Y0024095D01*
X0017400Y0024095D01*
X0017850Y0023645D01*
X0017850Y0022744D01*
X0017400Y0022294D01*
X0017400Y0021363D02*
X0017850Y0021363D01*
X0017850Y0020912D01*
X0017400Y0020912D01*
X0017400Y0021363D01*
X0017400Y0019952D02*
X0017850Y0019501D01*
X0017850Y0018600D01*
X0017400Y0018150D01*
X0016499Y0019051D02*
X0016499Y0019501D01*
X0016949Y0019952D01*
X0017400Y0019952D01*
X0016499Y0019501D02*
X0016048Y0019952D01*
X0015598Y0019952D01*
X0015148Y0019501D01*
X0015148Y0018600D01*
X0015598Y0018150D01*
X0015598Y0022294D02*
X0015148Y0022744D01*
X0015148Y0023645D01*
X0015598Y0024095D01*
X0016499Y0023645D02*
X0016499Y0023194D01*
X0048654Y0017485D02*
X0048654Y0015550D01*
X0048654Y0017001D02*
X0050589Y0017001D01*
X0050589Y0017485D02*
X0050589Y0015550D01*
X0051601Y0015550D02*
X0051601Y0017485D01*
X0052568Y0017485D02*
X0051601Y0016517D01*
X0052568Y0017485D02*
X0053052Y0017485D01*
X0054056Y0017001D02*
X0054056Y0016034D01*
X0054540Y0015550D01*
X0055991Y0015550D01*
X0055991Y0018452D01*
X0055991Y0017485D02*
X0054540Y0017485D01*
X0054056Y0017001D01*
X0057003Y0017485D02*
X0057003Y0016034D01*
X0057486Y0015550D01*
X0058937Y0015550D01*
X0058937Y0017485D01*
X0059949Y0017485D02*
X0060433Y0017485D01*
X0060433Y0015550D01*
X0059949Y0015550D02*
X0060917Y0015550D01*
X0061913Y0015550D02*
X0061913Y0017485D01*
X0063365Y0017485D01*
X0063848Y0017001D01*
X0063848Y0015550D01*
X0064860Y0016034D02*
X0065344Y0015550D01*
X0066311Y0015550D01*
X0066795Y0016034D01*
X0066795Y0017001D01*
X0066311Y0017485D01*
X0065344Y0017485D01*
X0064860Y0017001D01*
X0064860Y0016034D01*
X0060433Y0018452D02*
X0060433Y0018936D01*
X0050589Y0017485D02*
X0049622Y0018452D01*
X0048654Y0017485D01*
X0070753Y0017485D02*
X0071720Y0015550D01*
X0072688Y0017485D01*
X0073699Y0017969D02*
X0074183Y0018452D01*
X0075151Y0018452D01*
X0075634Y0017969D01*
X0075634Y0017485D01*
X0073699Y0015550D01*
X0075634Y0015550D01*
X0089744Y0051650D02*
X0089744Y0053452D01*
X0090645Y0054352D01*
X0091546Y0053452D01*
X0091546Y0051650D01*
X0091546Y0053001D02*
X0089744Y0053001D01*
X0092506Y0053001D02*
X0094308Y0053001D01*
X0095269Y0053001D02*
X0097070Y0053001D01*
X0098031Y0053001D02*
X0099833Y0053001D01*
X0099833Y0053452D02*
X0099833Y0051650D01*
X0100794Y0052100D02*
X0101244Y0051650D01*
X0102145Y0051650D01*
X0102595Y0052100D01*
X0102595Y0053001D01*
X0102145Y0053452D01*
X0101694Y0053452D01*
X0100794Y0053001D01*
X0100794Y0054352D01*
X0102595Y0054352D01*
X0099833Y0053452D02*
X0098932Y0054352D01*
X0098031Y0053452D01*
X0098031Y0051650D01*
X0093858Y0051650D02*
X0093858Y0054352D01*
X0092506Y0053001D01*
X0092239Y0096150D02*
X0092239Y0098852D01*
X0090888Y0097501D01*
X0092689Y0097501D01*
X0089927Y0097501D02*
X0089927Y0098402D01*
X0089476Y0098852D01*
X0088125Y0098852D01*
X0088125Y0096150D01*
X0088125Y0097051D02*
X0089476Y0097051D01*
X0089927Y0097501D01*
X0089026Y0097051D02*
X0089927Y0096150D01*
X0084689Y0096150D02*
X0082888Y0096150D01*
X0084689Y0097952D01*
X0084689Y0098402D01*
X0084239Y0098852D01*
X0083338Y0098852D01*
X0082888Y0098402D01*
X0081927Y0098402D02*
X0081476Y0098852D01*
X0080576Y0098852D01*
X0080125Y0098402D01*
X0080125Y0096600D01*
X0080576Y0096150D01*
X0081476Y0096150D01*
X0081927Y0096600D01*
X0076689Y0096600D02*
X0076239Y0096150D01*
X0075338Y0096150D01*
X0074888Y0096600D01*
X0074888Y0097501D01*
X0076239Y0097501D01*
X0076689Y0097051D01*
X0076689Y0096600D01*
X0074888Y0097501D02*
X0075788Y0098402D01*
X0076689Y0098852D01*
X0073927Y0098402D02*
X0073927Y0097501D01*
X0073476Y0097051D01*
X0072125Y0097051D01*
X0072125Y0096150D02*
X0072125Y0098852D01*
X0073476Y0098852D01*
X0073927Y0098402D01*
X0073026Y0097051D02*
X0073927Y0096150D01*
X0072412Y0105249D02*
X0073313Y0106150D01*
X0072863Y0106150D01*
X0072863Y0106600D01*
X0073313Y0106600D01*
X0073313Y0106150D01*
X0074254Y0106600D02*
X0074704Y0106150D01*
X0075605Y0106150D01*
X0076055Y0106600D01*
X0076055Y0107051D01*
X0075605Y0107501D01*
X0075155Y0107501D01*
X0075605Y0107501D02*
X0076055Y0107952D01*
X0076055Y0108402D01*
X0075605Y0108852D01*
X0074704Y0108852D01*
X0074254Y0108402D01*
X0071452Y0108402D02*
X0071452Y0107952D01*
X0071001Y0107501D01*
X0071452Y0107051D01*
X0071452Y0106600D01*
X0071001Y0106150D01*
X0070100Y0106150D01*
X0069650Y0106600D01*
X0070551Y0107501D02*
X0071001Y0107501D01*
X0071452Y0108402D02*
X0071001Y0108852D01*
X0070100Y0108852D01*
X0069650Y0108402D01*
X0079779Y0108402D02*
X0080229Y0108852D01*
X0081130Y0108852D01*
X0081580Y0108402D01*
X0081580Y0107952D01*
X0081130Y0107501D01*
X0081580Y0107051D01*
X0081580Y0106600D01*
X0081130Y0106150D01*
X0080229Y0106150D01*
X0079779Y0106600D01*
X0080679Y0107501D02*
X0081130Y0107501D01*
X0082991Y0106600D02*
X0082991Y0106150D01*
X0083442Y0106150D01*
X0083442Y0106600D01*
X0082991Y0106600D01*
X0083442Y0106150D02*
X0082541Y0105249D01*
X0084383Y0106600D02*
X0084833Y0106150D01*
X0085734Y0106150D01*
X0086184Y0106600D01*
X0086184Y0107051D01*
X0085734Y0107501D01*
X0085283Y0107501D01*
X0085734Y0107501D02*
X0086184Y0107952D01*
X0086184Y0108402D01*
X0085734Y0108852D01*
X0084833Y0108852D01*
X0084383Y0108402D01*
X0089907Y0108852D02*
X0089907Y0107051D01*
X0090808Y0106150D01*
X0091709Y0107051D01*
X0091709Y0108852D01*
X0092670Y0107501D02*
X0092670Y0106600D01*
X0093120Y0106150D01*
X0094471Y0106150D01*
X0095432Y0106600D02*
X0095882Y0106150D01*
X0097234Y0106150D01*
X0097234Y0107952D02*
X0095882Y0107952D01*
X0095432Y0107501D01*
X0095432Y0106600D01*
X0094471Y0107952D02*
X0093120Y0107952D01*
X0092670Y0107501D01*
X0100957Y0106600D02*
X0101407Y0106150D01*
X0102308Y0106150D01*
X0102758Y0106600D01*
X0102758Y0107501D01*
X0101857Y0107501D01*
X0100957Y0108402D02*
X0100957Y0106600D01*
X0100957Y0108402D02*
X0101407Y0108852D01*
X0102308Y0108852D01*
X0102758Y0108402D01*
X0103719Y0108852D02*
X0105521Y0106150D01*
X0105521Y0108852D01*
X0106481Y0108852D02*
X0107833Y0108852D01*
X0108283Y0108402D01*
X0108283Y0106600D01*
X0107833Y0106150D01*
X0106481Y0106150D01*
X0106481Y0108852D01*
X0103719Y0108852D02*
X0103719Y0106150D01*
X0106125Y0102852D02*
X0107476Y0102852D01*
X0107927Y0102402D01*
X0107927Y0101501D01*
X0107476Y0101051D01*
X0106125Y0101051D01*
X0106125Y0100150D02*
X0106125Y0102852D01*
X0107026Y0101051D02*
X0107927Y0100150D01*
X0108888Y0100600D02*
X0109338Y0100150D01*
X0110239Y0100150D01*
X0110689Y0100600D01*
X0110689Y0101051D01*
X0110239Y0101501D01*
X0109788Y0101501D01*
X0110239Y0101501D02*
X0110689Y0101952D01*
X0110689Y0102402D01*
X0110239Y0102852D01*
X0109338Y0102852D01*
X0108888Y0102402D01*
X0114125Y0098402D02*
X0114125Y0096600D01*
X0114576Y0096150D01*
X0115476Y0096150D01*
X0115927Y0096600D01*
X0116888Y0096150D02*
X0118689Y0096150D01*
X0117788Y0096150D02*
X0117788Y0098852D01*
X0116888Y0097952D01*
X0115927Y0098402D02*
X0115476Y0098852D01*
X0114576Y0098852D01*
X0114125Y0098402D01*
X0116100Y0103650D02*
X0117001Y0103650D01*
X0117452Y0104100D01*
X0118412Y0105001D02*
X0120214Y0105001D01*
X0121175Y0103650D02*
X0121175Y0106352D01*
X0122976Y0103650D01*
X0122976Y0106352D01*
X0123937Y0106352D02*
X0125288Y0106352D01*
X0125739Y0105902D01*
X0125739Y0105001D01*
X0125288Y0104551D01*
X0123937Y0104551D01*
X0124838Y0104551D02*
X0125739Y0103650D01*
X0126699Y0103650D02*
X0126699Y0106352D01*
X0128501Y0106352D01*
X0127600Y0105001D02*
X0126699Y0105001D01*
X0123937Y0103650D02*
X0123937Y0106352D01*
X0117452Y0105902D02*
X0117001Y0106352D01*
X0116100Y0106352D01*
X0115650Y0105902D01*
X0115650Y0104100D01*
X0116100Y0103650D01*
X0122125Y0098852D02*
X0123476Y0098852D01*
X0123927Y0098402D01*
X0123927Y0097501D01*
X0123476Y0097051D01*
X0122125Y0097051D01*
X0122125Y0096150D02*
X0122125Y0098852D01*
X0123026Y0097051D02*
X0123927Y0096150D01*
X0124888Y0096150D02*
X0126689Y0096150D01*
X0125788Y0096150D02*
X0125788Y0098852D01*
X0124888Y0097952D01*
X0131125Y0098852D02*
X0131125Y0096150D01*
X0131125Y0097051D02*
X0132476Y0097051D01*
X0132927Y0097501D01*
X0132927Y0098402D01*
X0132476Y0098852D01*
X0131125Y0098852D01*
X0132026Y0097051D02*
X0132927Y0096150D01*
X0133888Y0096150D02*
X0135689Y0097952D01*
X0135689Y0098402D01*
X0135239Y0098852D01*
X0134338Y0098852D01*
X0133888Y0098402D01*
X0133888Y0096150D02*
X0135689Y0096150D01*
X0101689Y0096600D02*
X0101239Y0096150D01*
X0100338Y0096150D01*
X0099888Y0096600D01*
X0099888Y0097501D02*
X0100788Y0097952D01*
X0101239Y0097952D01*
X0101689Y0097501D01*
X0101689Y0096600D01*
X0099888Y0097501D02*
X0099888Y0098852D01*
X0101689Y0098852D01*
X0098927Y0098402D02*
X0098927Y0097501D01*
X0098476Y0097051D01*
X0097125Y0097051D01*
X0097125Y0096150D02*
X0097125Y0098852D01*
X0098476Y0098852D01*
X0098927Y0098402D01*
X0098026Y0097051D02*
X0098927Y0096150D01*
X0153021Y0130016D02*
X0153021Y0133719D01*
X0155489Y0130016D01*
X0155489Y0133719D01*
X0156704Y0133719D02*
X0158555Y0133719D01*
X0159173Y0133102D01*
X0159173Y0131868D01*
X0158555Y0131251D01*
X0156704Y0131251D01*
X0157938Y0131251D02*
X0159173Y0130016D01*
X0160387Y0130016D02*
X0160387Y0133719D01*
X0162856Y0133719D01*
X0164070Y0133102D02*
X0164687Y0133719D01*
X0165922Y0133719D01*
X0166539Y0133102D01*
X0166539Y0132485D01*
X0164070Y0130016D01*
X0166539Y0130016D01*
X0167753Y0131868D02*
X0170222Y0131868D01*
X0169605Y0133719D02*
X0169605Y0130016D01*
X0171436Y0130016D02*
X0173905Y0130016D01*
X0175120Y0130633D02*
X0177588Y0133102D01*
X0177588Y0130633D01*
X0176971Y0130016D01*
X0175737Y0130016D01*
X0175120Y0130633D01*
X0175120Y0133102D01*
X0175737Y0133719D01*
X0176971Y0133719D01*
X0177588Y0133102D01*
X0178803Y0132485D02*
X0180037Y0133719D01*
X0180037Y0130016D01*
X0178803Y0130016D02*
X0181272Y0130016D01*
X0182486Y0131868D02*
X0184955Y0131868D01*
X0183720Y0133102D02*
X0183720Y0130633D01*
X0188647Y0138259D02*
X0188647Y0140111D01*
X0189264Y0140728D01*
X0190498Y0140728D01*
X0191116Y0140111D01*
X0191116Y0138259D01*
X0192350Y0138259D02*
X0188647Y0138259D01*
X0191116Y0139493D02*
X0192350Y0140728D01*
X0192350Y0141942D02*
X0188647Y0141942D01*
X0188647Y0144411D01*
X0188647Y0145625D02*
X0189881Y0146860D01*
X0188647Y0148094D01*
X0192350Y0148094D01*
X0191733Y0149308D02*
X0190498Y0149308D01*
X0190498Y0151160D01*
X0191116Y0151777D01*
X0191733Y0151777D01*
X0192350Y0151160D01*
X0192350Y0149926D01*
X0191733Y0149308D01*
X0190498Y0149308D02*
X0189264Y0150543D01*
X0188647Y0151777D01*
X0189264Y0152992D02*
X0188647Y0153609D01*
X0188647Y0154843D01*
X0189264Y0155460D01*
X0191733Y0155460D01*
X0192350Y0154843D01*
X0192350Y0153609D01*
X0191733Y0152992D01*
X0190498Y0153609D02*
X0190498Y0155460D01*
X0190498Y0156675D02*
X0190498Y0159143D01*
X0188647Y0159143D02*
X0192350Y0159143D01*
X0192350Y0160358D02*
X0191116Y0161592D01*
X0192350Y0162827D01*
X0188647Y0162827D01*
X0188647Y0160358D02*
X0192350Y0160358D01*
X0192350Y0156675D02*
X0188647Y0156675D01*
X0190498Y0153609D02*
X0189881Y0152992D01*
X0189264Y0152992D01*
X0188647Y0145625D02*
X0192350Y0145625D01*
X0190498Y0143177D02*
X0190498Y0141942D01*
X0171436Y0133719D02*
X0171436Y0130016D01*
X0167753Y0131868D02*
X0169605Y0133719D01*
X0161621Y0131868D02*
X0160387Y0131868D01*
X0156704Y0133719D02*
X0156704Y0130016D01*
X0109788Y0154150D02*
X0109788Y0156852D01*
X0108888Y0156852D02*
X0110689Y0156852D01*
X0107927Y0156852D02*
X0107927Y0154600D01*
X0107476Y0154150D01*
X0106576Y0154150D01*
X0106125Y0154600D01*
X0106125Y0156852D01*
X0105164Y0156402D02*
X0105164Y0154600D01*
X0104714Y0154150D01*
X0103813Y0154150D01*
X0103363Y0154600D01*
X0103363Y0156402D01*
X0103813Y0156852D01*
X0104714Y0156852D01*
X0105164Y0156402D01*
X0102402Y0156402D02*
X0101952Y0156852D01*
X0101051Y0156852D01*
X0100601Y0156402D01*
X0100601Y0154600D01*
X0101051Y0154150D01*
X0101952Y0154150D01*
X0102402Y0154600D01*
X0102496Y0159650D02*
X0100561Y0159650D01*
X0101528Y0159650D02*
X0101528Y0162552D01*
X0100561Y0161585D01*
X0099549Y0162069D02*
X0099066Y0162552D01*
X0098098Y0162552D01*
X0097614Y0162069D01*
X0097614Y0160134D01*
X0098098Y0159650D01*
X0099066Y0159650D01*
X0099549Y0160134D01*
X0096617Y0159650D02*
X0095650Y0159650D01*
X0096134Y0159650D02*
X0096134Y0162552D01*
X0096617Y0162552D02*
X0095650Y0162552D01*
X0079689Y0156852D02*
X0079689Y0154150D01*
X0077888Y0156852D01*
X0077888Y0154150D01*
X0076947Y0154150D02*
X0076046Y0154150D01*
X0076496Y0154150D02*
X0076496Y0156852D01*
X0076046Y0156852D02*
X0076947Y0156852D01*
X0075085Y0156402D02*
X0074635Y0156852D01*
X0073734Y0156852D01*
X0073284Y0156402D01*
X0073284Y0154600D01*
X0073734Y0154150D01*
X0074635Y0154150D01*
X0075085Y0154600D01*
X0095463Y0188468D02*
X0095463Y0190937D01*
X0094229Y0189702D02*
X0096698Y0189702D01*
X0126229Y0189702D02*
X0128698Y0189702D01*
X0127463Y0188468D02*
X0127463Y0190937D01*
X0022816Y0177485D02*
X0022449Y0177852D01*
X0021715Y0177852D01*
X0021348Y0177485D01*
X0020514Y0177852D02*
X0019780Y0177852D01*
X0020147Y0177852D02*
X0020147Y0176017D01*
X0019780Y0175650D01*
X0019413Y0175650D01*
X0019046Y0176017D01*
X0021348Y0175650D02*
X0022816Y0177118D01*
X0022816Y0177485D01*
X0022816Y0175650D02*
X0021348Y0175650D01*
X0017400Y0093154D02*
X0015598Y0093154D01*
X0017400Y0091352D01*
X0017850Y0091803D01*
X0017850Y0092703D01*
X0017400Y0093154D01*
X0017400Y0091352D02*
X0015598Y0091352D01*
X0015148Y0091803D01*
X0015148Y0092703D01*
X0015598Y0093154D01*
X0016048Y0090392D02*
X0017850Y0090392D01*
X0016499Y0090392D02*
X0016499Y0088590D01*
X0016048Y0088590D02*
X0015148Y0089491D01*
X0016048Y0090392D01*
X0016048Y0088590D02*
X0017850Y0088590D01*
X0017850Y0084867D02*
X0017850Y0083065D01*
X0017850Y0083966D02*
X0015148Y0083966D01*
X0016048Y0083065D01*
X0016048Y0082104D02*
X0015148Y0081204D01*
X0016048Y0080303D01*
X0017850Y0080303D01*
X0016499Y0080303D02*
X0016499Y0082104D01*
X0016048Y0082104D02*
X0017850Y0082104D01*
X0017850Y0073817D02*
X0017850Y0072016D01*
X0016048Y0073817D01*
X0015598Y0073817D01*
X0015148Y0073367D01*
X0015148Y0072466D01*
X0015598Y0072016D01*
X0016048Y0071055D02*
X0015148Y0070154D01*
X0016048Y0069254D01*
X0017850Y0069254D01*
X0016499Y0069254D02*
X0016499Y0071055D01*
X0016048Y0071055D02*
X0017850Y0071055D01*
X0172648Y0037001D02*
X0172648Y0035199D01*
X0173999Y0035199D01*
X0173548Y0036100D01*
X0173548Y0036551D01*
X0173999Y0037001D01*
X0174900Y0037001D01*
X0175350Y0036551D01*
X0175350Y0035650D01*
X0174900Y0035199D01*
X0175350Y0034239D02*
X0173548Y0034239D01*
X0172648Y0033338D01*
X0173548Y0032437D01*
X0175350Y0032437D01*
X0173999Y0032437D02*
X0173999Y0034239D01*
X0173999Y0031476D02*
X0173999Y0029675D01*
X0173999Y0028714D02*
X0173999Y0026912D01*
X0172648Y0028263D01*
X0175350Y0028263D01*
X0175350Y0025952D02*
X0173548Y0025952D01*
X0172648Y0025051D01*
X0173548Y0024150D01*
X0175350Y0024150D01*
X0173999Y0024150D02*
X0173999Y0025952D01*
X0179648Y0026763D02*
X0179648Y0024962D01*
X0180098Y0024001D02*
X0179648Y0023551D01*
X0179648Y0022199D01*
X0182350Y0022199D01*
X0182350Y0023551D01*
X0181900Y0024001D01*
X0180098Y0024001D01*
X0181900Y0024962D02*
X0182350Y0024962D01*
X0181900Y0024962D02*
X0180098Y0026763D01*
X0179648Y0026763D01*
X0179648Y0030486D02*
X0179648Y0031838D01*
X0180098Y0032288D01*
X0181900Y0032288D01*
X0182350Y0031838D01*
X0182350Y0030486D01*
X0179648Y0030486D01*
X0180999Y0033249D02*
X0180999Y0034600D01*
X0181449Y0035050D01*
X0181900Y0035050D01*
X0182350Y0034600D01*
X0182350Y0033699D01*
X0181900Y0033249D01*
X0180999Y0033249D01*
X0180098Y0034150D01*
X0179648Y0035050D01*
X0179648Y0041536D02*
X0179648Y0042887D01*
X0180098Y0043337D01*
X0181900Y0043337D01*
X0182350Y0042887D01*
X0182350Y0041536D01*
X0179648Y0041536D01*
X0179648Y0044298D02*
X0180999Y0044298D01*
X0180548Y0045199D01*
X0180548Y0045649D01*
X0180999Y0046100D01*
X0181900Y0046100D01*
X0182350Y0045649D01*
X0182350Y0044749D01*
X0181900Y0044298D01*
X0179648Y0044298D02*
X0179648Y0046100D01*
X0179648Y0049823D02*
X0179648Y0051174D01*
X0180098Y0051624D01*
X0181900Y0051624D01*
X0182350Y0051174D01*
X0182350Y0049823D01*
X0179648Y0049823D01*
X0180999Y0052585D02*
X0180999Y0054387D01*
X0182350Y0053936D02*
X0179648Y0053936D01*
X0180999Y0052585D01*
X0181239Y0078650D02*
X0180338Y0078650D01*
X0179888Y0079100D01*
X0178957Y0079100D02*
X0178957Y0078650D01*
X0178506Y0078650D01*
X0178506Y0079100D01*
X0178957Y0079100D01*
X0177546Y0079100D02*
X0177095Y0078650D01*
X0176194Y0078650D01*
X0175744Y0079100D01*
X0176645Y0080001D02*
X0177095Y0080001D01*
X0177546Y0079551D01*
X0177546Y0079100D01*
X0177095Y0080001D02*
X0177546Y0080452D01*
X0177546Y0080902D01*
X0177095Y0081352D01*
X0176194Y0081352D01*
X0175744Y0080902D01*
X0179888Y0080902D02*
X0180338Y0081352D01*
X0181239Y0081352D01*
X0181689Y0080902D01*
X0181689Y0080452D01*
X0181239Y0080001D01*
X0181689Y0079551D01*
X0181689Y0079100D01*
X0181239Y0078650D01*
X0181239Y0080001D02*
X0180788Y0080001D01*
X0180548Y0015714D02*
X0180999Y0015263D01*
X0180999Y0014363D01*
X0180548Y0013912D01*
X0180098Y0013912D01*
X0179648Y0014363D01*
X0179648Y0015263D01*
X0180098Y0015714D01*
X0180548Y0015714D01*
X0180999Y0015263D02*
X0181449Y0015714D01*
X0181900Y0015714D01*
X0182350Y0015263D01*
X0182350Y0014363D01*
X0181900Y0013912D01*
X0181449Y0013912D01*
X0180999Y0014363D01*
X0181900Y0012952D02*
X0180098Y0012952D01*
X0179648Y0012501D01*
X0179648Y0011150D01*
X0182350Y0011150D01*
X0182350Y0012501D01*
X0181900Y0012952D01*
D94*
X0152400Y0031100D02*
X0150198Y0031100D01*
X0150198Y0032201D01*
X0150565Y0032568D01*
X0151299Y0032568D01*
X0151666Y0032201D01*
X0151666Y0031100D01*
X0151666Y0031834D02*
X0152400Y0032568D01*
X0152033Y0033310D02*
X0151666Y0033310D01*
X0151299Y0033677D01*
X0151299Y0034411D01*
X0151666Y0034778D01*
X0152033Y0034778D01*
X0152400Y0034411D01*
X0152400Y0033677D01*
X0152033Y0033310D01*
X0151299Y0033677D02*
X0150932Y0033310D01*
X0150565Y0033310D01*
X0150198Y0033677D01*
X0150198Y0034411D01*
X0150565Y0034778D01*
X0150932Y0034778D01*
X0151299Y0034411D01*
X0151299Y0035520D02*
X0151299Y0036621D01*
X0151666Y0036988D01*
X0152033Y0036988D01*
X0152400Y0036621D01*
X0152400Y0035520D01*
X0150198Y0035520D01*
X0150198Y0036621D01*
X0150565Y0036988D01*
X0150932Y0036988D01*
X0151299Y0036621D01*
X0142400Y0036621D02*
X0142400Y0035520D01*
X0140198Y0035520D01*
X0140198Y0036621D01*
X0140565Y0036988D01*
X0140932Y0036988D01*
X0141299Y0036621D01*
X0141299Y0035520D01*
X0140565Y0034778D02*
X0142033Y0033310D01*
X0142400Y0033310D01*
X0142400Y0032568D02*
X0141666Y0031834D01*
X0141666Y0032201D02*
X0141666Y0031100D01*
X0142400Y0031100D02*
X0140198Y0031100D01*
X0140198Y0032201D01*
X0140565Y0032568D01*
X0141299Y0032568D01*
X0141666Y0032201D01*
X0140198Y0033310D02*
X0140198Y0034778D01*
X0140565Y0034778D01*
X0141299Y0036621D02*
X0141666Y0036988D01*
X0142033Y0036988D01*
X0142400Y0036621D01*
X0132400Y0036621D02*
X0132400Y0035520D01*
X0130198Y0035520D01*
X0130198Y0036621D01*
X0130565Y0036988D01*
X0130932Y0036988D01*
X0131299Y0036621D01*
X0131299Y0035520D01*
X0131666Y0034778D02*
X0131299Y0034411D01*
X0131299Y0033310D01*
X0132033Y0033310D01*
X0132400Y0033677D01*
X0132400Y0034411D01*
X0132033Y0034778D01*
X0131666Y0034778D01*
X0130565Y0034044D02*
X0131299Y0033310D01*
X0131299Y0032568D02*
X0131666Y0032201D01*
X0131666Y0031100D01*
X0131666Y0031834D02*
X0132400Y0032568D01*
X0131299Y0032568D02*
X0130565Y0032568D01*
X0130198Y0032201D01*
X0130198Y0031100D01*
X0132400Y0031100D01*
X0130565Y0034044D02*
X0130198Y0034778D01*
X0131299Y0036621D02*
X0131666Y0036988D01*
X0132033Y0036988D01*
X0132400Y0036621D01*
X0122400Y0036621D02*
X0122400Y0035520D01*
X0120198Y0035520D01*
X0120198Y0036621D01*
X0120565Y0036988D01*
X0120932Y0036988D01*
X0121299Y0036621D01*
X0121299Y0035520D01*
X0121299Y0034778D02*
X0122033Y0034778D01*
X0122400Y0034411D01*
X0122400Y0033677D01*
X0122033Y0033310D01*
X0121299Y0033310D02*
X0120932Y0034044D01*
X0120932Y0034411D01*
X0121299Y0034778D01*
X0120198Y0034778D02*
X0120198Y0033310D01*
X0121299Y0033310D01*
X0121299Y0032568D02*
X0121666Y0032201D01*
X0121666Y0031100D01*
X0121666Y0031834D02*
X0122400Y0032568D01*
X0121299Y0032568D02*
X0120565Y0032568D01*
X0120198Y0032201D01*
X0120198Y0031100D01*
X0122400Y0031100D01*
X0122400Y0036621D02*
X0122033Y0036988D01*
X0121666Y0036988D01*
X0121299Y0036621D01*
X0112400Y0036621D02*
X0112400Y0035520D01*
X0110198Y0035520D01*
X0110198Y0036621D01*
X0110565Y0036988D01*
X0110932Y0036988D01*
X0111299Y0036621D01*
X0111299Y0035520D01*
X0111299Y0034778D02*
X0111299Y0033310D01*
X0110198Y0034411D01*
X0112400Y0034411D01*
X0112400Y0032568D02*
X0111666Y0031834D01*
X0111666Y0032201D02*
X0111666Y0031100D01*
X0112400Y0031100D02*
X0110198Y0031100D01*
X0110198Y0032201D01*
X0110565Y0032568D01*
X0111299Y0032568D01*
X0111666Y0032201D01*
X0111299Y0036621D02*
X0111666Y0036988D01*
X0112033Y0036988D01*
X0112400Y0036621D01*
X0102400Y0036621D02*
X0102400Y0035520D01*
X0100198Y0035520D01*
X0100198Y0036621D01*
X0100565Y0036988D01*
X0100932Y0036988D01*
X0101299Y0036621D01*
X0101299Y0035520D01*
X0100932Y0034778D02*
X0101299Y0034411D01*
X0101666Y0034778D01*
X0102033Y0034778D01*
X0102400Y0034411D01*
X0102400Y0033677D01*
X0102033Y0033310D01*
X0102400Y0032568D02*
X0101666Y0031834D01*
X0101666Y0032201D02*
X0101666Y0031100D01*
X0102400Y0031100D02*
X0100198Y0031100D01*
X0100198Y0032201D01*
X0100565Y0032568D01*
X0101299Y0032568D01*
X0101666Y0032201D01*
X0100565Y0033310D02*
X0100198Y0033677D01*
X0100198Y0034411D01*
X0100565Y0034778D01*
X0100932Y0034778D01*
X0101299Y0034411D02*
X0101299Y0034044D01*
X0101299Y0036621D02*
X0101666Y0036988D01*
X0102033Y0036988D01*
X0102400Y0036621D01*
X0091400Y0036621D02*
X0091400Y0035520D01*
X0089198Y0035520D01*
X0089198Y0036621D01*
X0089565Y0036988D01*
X0089932Y0036988D01*
X0090299Y0036621D01*
X0090299Y0035520D01*
X0089932Y0034778D02*
X0089565Y0034778D01*
X0089198Y0034411D01*
X0089198Y0033677D01*
X0089565Y0033310D01*
X0089565Y0032568D02*
X0090299Y0032568D01*
X0090666Y0032201D01*
X0090666Y0031100D01*
X0090666Y0031834D02*
X0091400Y0032568D01*
X0091400Y0033310D02*
X0089932Y0034778D01*
X0091400Y0034778D02*
X0091400Y0033310D01*
X0089565Y0032568D02*
X0089198Y0032201D01*
X0089198Y0031100D01*
X0091400Y0031100D01*
X0091400Y0036621D02*
X0091033Y0036988D01*
X0090666Y0036988D01*
X0090299Y0036621D01*
X0048132Y0075301D02*
X0046531Y0075301D01*
X0047732Y0076502D01*
X0047732Y0074100D01*
X0045738Y0074100D02*
X0045738Y0075701D01*
X0044937Y0076502D01*
X0044136Y0075701D01*
X0044136Y0074100D01*
X0044136Y0075301D02*
X0045738Y0075301D01*
X0040950Y0075301D02*
X0040950Y0074500D01*
X0040549Y0074100D01*
X0039749Y0074100D01*
X0039348Y0074500D01*
X0039348Y0075301D02*
X0040149Y0075701D01*
X0040549Y0075701D01*
X0040950Y0075301D01*
X0040950Y0076502D02*
X0039348Y0076502D01*
X0039348Y0075301D01*
X0038556Y0075301D02*
X0036954Y0075301D01*
X0036954Y0075701D02*
X0037755Y0076502D01*
X0038556Y0075701D01*
X0038556Y0074100D01*
X0036954Y0074100D02*
X0036954Y0075701D01*
X0033768Y0076102D02*
X0033367Y0076502D01*
X0032166Y0076502D01*
X0032166Y0074100D01*
X0033367Y0074100D01*
X0033768Y0074500D01*
X0033768Y0076102D01*
X0031374Y0076502D02*
X0031374Y0074100D01*
X0029772Y0076502D01*
X0029772Y0074100D01*
X0028980Y0074500D02*
X0028579Y0074100D01*
X0027778Y0074100D01*
X0027378Y0074500D01*
X0027378Y0076102D01*
X0027778Y0076502D01*
X0028579Y0076502D01*
X0028980Y0076102D01*
X0028980Y0075301D02*
X0028179Y0075301D01*
X0028980Y0075301D02*
X0028980Y0074500D01*
X0024191Y0074500D02*
X0023791Y0074100D01*
X0022990Y0074100D01*
X0022590Y0074500D01*
X0021795Y0074500D02*
X0021795Y0074100D01*
X0021394Y0074100D01*
X0021394Y0074500D01*
X0021795Y0074500D01*
X0021795Y0074100D02*
X0020994Y0073299D01*
X0019801Y0074100D02*
X0020201Y0074500D01*
X0020201Y0074901D01*
X0019801Y0075301D01*
X0019401Y0075301D01*
X0019801Y0075301D02*
X0020201Y0075701D01*
X0020201Y0076102D01*
X0019801Y0076502D01*
X0019000Y0076502D01*
X0018600Y0076102D01*
X0018600Y0074500D02*
X0019000Y0074100D01*
X0019801Y0074100D01*
X0022590Y0076102D02*
X0022990Y0076502D01*
X0023791Y0076502D01*
X0024191Y0076102D01*
X0024191Y0075701D01*
X0023791Y0075301D01*
X0024191Y0074901D01*
X0024191Y0074500D01*
X0023791Y0075301D02*
X0023391Y0075301D01*
X0023077Y0101100D02*
X0024545Y0101100D01*
X0025287Y0101100D02*
X0026021Y0101100D01*
X0025654Y0101100D02*
X0025654Y0103302D01*
X0025287Y0103302D02*
X0026021Y0103302D01*
X0026760Y0103302D02*
X0027861Y0103302D01*
X0028228Y0102935D01*
X0028228Y0102201D01*
X0027861Y0101834D01*
X0026760Y0101834D01*
X0026760Y0101100D02*
X0026760Y0103302D01*
X0025655Y0104700D02*
X0025655Y0106902D01*
X0026756Y0106902D01*
X0027123Y0106535D01*
X0027123Y0105801D01*
X0026756Y0105434D01*
X0025655Y0105434D01*
X0024914Y0106902D02*
X0023446Y0106902D01*
X0024180Y0106902D02*
X0024180Y0104700D01*
X0023077Y0103302D02*
X0023077Y0101100D01*
X0028970Y0101467D02*
X0029337Y0101100D01*
X0030071Y0101100D01*
X0030438Y0101467D01*
X0030438Y0102935D01*
X0030071Y0103302D01*
X0029337Y0103302D01*
X0028970Y0102935D01*
X0028970Y0101467D01*
X0028966Y0104700D02*
X0028966Y0106902D01*
X0027865Y0105801D01*
X0029333Y0105801D01*
X0030075Y0106535D02*
X0030442Y0106902D01*
X0031176Y0106902D01*
X0031543Y0106535D01*
X0030075Y0105067D01*
X0030442Y0104700D01*
X0031176Y0104700D01*
X0031543Y0105067D01*
X0031543Y0106535D01*
X0032285Y0106902D02*
X0032285Y0105801D01*
X0033019Y0106168D01*
X0033386Y0106168D01*
X0033753Y0105801D01*
X0033753Y0105067D01*
X0033386Y0104700D01*
X0032652Y0104700D01*
X0032285Y0105067D01*
X0032285Y0106902D02*
X0033753Y0106902D01*
X0034495Y0105801D02*
X0035596Y0105801D01*
X0035963Y0105434D01*
X0035963Y0105067D01*
X0035596Y0104700D01*
X0034862Y0104700D01*
X0034495Y0105067D01*
X0034495Y0105801D01*
X0035229Y0106535D01*
X0035963Y0106902D01*
X0038915Y0106902D02*
X0038915Y0105067D01*
X0039282Y0104700D01*
X0040016Y0104700D01*
X0040383Y0105067D01*
X0040383Y0106902D01*
X0041125Y0106535D02*
X0041125Y0106168D01*
X0041492Y0105801D01*
X0042226Y0105801D01*
X0042593Y0105434D01*
X0042593Y0105067D01*
X0042226Y0104700D01*
X0041492Y0104700D01*
X0041125Y0105067D01*
X0041125Y0106535D02*
X0041492Y0106902D01*
X0042226Y0106902D01*
X0042593Y0106535D01*
X0043335Y0106902D02*
X0044435Y0106902D01*
X0044802Y0106535D01*
X0044802Y0106168D01*
X0044435Y0105801D01*
X0043335Y0105801D01*
X0044435Y0105801D02*
X0044802Y0105434D01*
X0044802Y0105067D01*
X0044435Y0104700D01*
X0043335Y0104700D01*
X0043335Y0106902D01*
X0043329Y0102568D02*
X0042228Y0102568D01*
X0041861Y0102201D01*
X0041861Y0101467D01*
X0042228Y0101100D01*
X0043329Y0101100D01*
X0043329Y0100733D02*
X0043329Y0102568D01*
X0044071Y0102201D02*
X0044438Y0102568D01*
X0045172Y0102568D01*
X0045539Y0102201D01*
X0045539Y0101834D01*
X0044071Y0101834D01*
X0044071Y0101467D02*
X0044071Y0102201D01*
X0044071Y0101467D02*
X0044438Y0101100D01*
X0045172Y0101100D01*
X0046281Y0101100D02*
X0046281Y0102568D01*
X0047015Y0102568D02*
X0047382Y0102568D01*
X0047015Y0102568D02*
X0046281Y0101834D01*
X0043329Y0100733D02*
X0042962Y0100366D01*
X0042595Y0100366D01*
X0041121Y0102568D02*
X0040754Y0102568D01*
X0040020Y0101834D01*
X0040020Y0101100D02*
X0040020Y0102568D01*
X0039278Y0102201D02*
X0039278Y0101100D01*
X0038177Y0101100D01*
X0037810Y0101467D01*
X0038177Y0101834D01*
X0039278Y0101834D01*
X0039278Y0102201D02*
X0038911Y0102568D01*
X0038177Y0102568D01*
X0037068Y0102201D02*
X0037068Y0101100D01*
X0037068Y0102201D02*
X0036701Y0102568D01*
X0035967Y0102568D01*
X0035600Y0102201D01*
X0034858Y0102568D02*
X0033757Y0102568D01*
X0033390Y0102201D01*
X0033390Y0101467D01*
X0033757Y0101100D01*
X0034858Y0101100D01*
X0035600Y0101100D02*
X0035600Y0103302D01*
X0030075Y0105067D02*
X0030075Y0106535D01*
X0013698Y0120201D02*
X0012230Y0120201D01*
X0011488Y0121302D02*
X0010020Y0121302D01*
X0010754Y0121302D02*
X0010754Y0119100D01*
X0009278Y0119100D02*
X0009278Y0120568D01*
X0008544Y0121302D01*
X0007810Y0120568D01*
X0007810Y0119100D01*
X0007068Y0119467D02*
X0006701Y0119100D01*
X0005600Y0119100D01*
X0005600Y0121302D01*
X0006701Y0121302D01*
X0007068Y0120935D01*
X0007068Y0120568D01*
X0006701Y0120201D01*
X0005600Y0120201D01*
X0006701Y0120201D02*
X0007068Y0119834D01*
X0007068Y0119467D01*
X0007810Y0120201D02*
X0009278Y0120201D01*
X0059600Y0120201D02*
X0060701Y0120201D01*
X0061068Y0119834D01*
X0061068Y0119467D01*
X0060701Y0119100D01*
X0059600Y0119100D01*
X0059600Y0121302D01*
X0060701Y0121302D01*
X0061068Y0120935D01*
X0061068Y0120568D01*
X0060701Y0120201D01*
X0061810Y0120201D02*
X0063278Y0120201D01*
X0063278Y0120568D02*
X0063278Y0119100D01*
X0063278Y0120568D02*
X0062544Y0121302D01*
X0061810Y0120568D01*
X0061810Y0119100D01*
X0064754Y0119100D02*
X0064754Y0121302D01*
X0064020Y0121302D02*
X0065488Y0121302D01*
X0066230Y0120201D02*
X0067698Y0120201D01*
X0066964Y0120935D02*
X0066964Y0119467D01*
X0082020Y0170100D02*
X0083121Y0170100D01*
X0083488Y0170467D01*
X0083488Y0170834D01*
X0083121Y0171201D01*
X0082020Y0171201D01*
X0083121Y0171201D02*
X0083488Y0171568D01*
X0083488Y0171935D01*
X0083121Y0172302D01*
X0082020Y0172302D01*
X0082020Y0170100D01*
X0084230Y0170100D02*
X0084230Y0171568D01*
X0084964Y0172302D01*
X0085698Y0171568D01*
X0085698Y0170100D01*
X0085698Y0171201D02*
X0084230Y0171201D01*
X0086440Y0172302D02*
X0087907Y0172302D01*
X0087173Y0172302D02*
X0087173Y0170100D01*
X0090859Y0171201D02*
X0092327Y0171201D01*
X0091593Y0171935D02*
X0091593Y0170467D01*
X0079068Y0171201D02*
X0077600Y0171201D01*
X0058751Y0184201D02*
X0057283Y0184201D01*
X0058017Y0184935D02*
X0058017Y0183467D01*
X0056541Y0183100D02*
X0056541Y0185302D01*
X0055073Y0185302D02*
X0055073Y0183100D01*
X0054334Y0183100D02*
X0053600Y0183100D01*
X0053967Y0183100D02*
X0053967Y0185302D01*
X0053600Y0185302D02*
X0054334Y0185302D01*
X0055073Y0185302D02*
X0056541Y0183100D01*
X0013751Y0178201D02*
X0012283Y0178201D01*
X0011541Y0177100D02*
X0011541Y0179302D01*
X0010073Y0179302D02*
X0011541Y0177100D01*
X0010073Y0177100D02*
X0010073Y0179302D01*
X0009334Y0179302D02*
X0008600Y0179302D01*
X0008967Y0179302D02*
X0008967Y0177100D01*
X0008600Y0177100D02*
X0009334Y0177100D01*
X0106600Y0171201D02*
X0108068Y0171201D01*
X0111020Y0171201D02*
X0111754Y0171568D01*
X0112121Y0171568D01*
X0112488Y0171201D01*
X0112488Y0170467D01*
X0112121Y0170100D01*
X0111387Y0170100D01*
X0111020Y0170467D01*
X0111020Y0171201D02*
X0111020Y0172302D01*
X0112488Y0172302D01*
X0113230Y0172302D02*
X0113230Y0170834D01*
X0113964Y0170100D01*
X0114698Y0170834D01*
X0114698Y0172302D01*
X0117649Y0171201D02*
X0119117Y0171201D01*
X0118383Y0171935D02*
X0118383Y0170467D01*
X0118666Y0166461D02*
X0117198Y0166461D01*
X0117198Y0164993D02*
X0118666Y0164993D01*
X0119400Y0165727D01*
X0118666Y0166461D01*
X0118666Y0164251D02*
X0119033Y0164251D01*
X0119400Y0163884D01*
X0119400Y0163150D01*
X0119033Y0162783D01*
X0119033Y0162044D02*
X0119033Y0161677D01*
X0119400Y0161677D01*
X0119400Y0162044D01*
X0119033Y0162044D01*
X0119400Y0162044D02*
X0120134Y0161310D01*
X0119033Y0160568D02*
X0119400Y0160201D01*
X0119400Y0159467D01*
X0119033Y0159100D01*
X0118299Y0159834D02*
X0118299Y0160201D01*
X0118666Y0160568D01*
X0119033Y0160568D01*
X0118299Y0160201D02*
X0117932Y0160568D01*
X0117565Y0160568D01*
X0117198Y0160201D01*
X0117198Y0159467D01*
X0117565Y0159100D01*
X0117565Y0162783D02*
X0117198Y0163150D01*
X0117198Y0163884D01*
X0117565Y0164251D01*
X0117932Y0164251D01*
X0118299Y0163884D01*
X0118666Y0164251D01*
X0118299Y0163884D02*
X0118299Y0163517D01*
X0118666Y0142778D02*
X0117198Y0142778D01*
X0118666Y0142778D02*
X0119400Y0142044D01*
X0118666Y0141310D01*
X0117198Y0141310D01*
X0117198Y0140568D02*
X0117198Y0139100D01*
X0118299Y0139100D01*
X0117932Y0139834D01*
X0117932Y0140201D01*
X0118299Y0140568D01*
X0119033Y0140568D01*
X0119400Y0140201D01*
X0119400Y0139467D01*
X0119033Y0139100D01*
X0135698Y0108988D02*
X0135698Y0107520D01*
X0135698Y0108254D02*
X0137900Y0108254D01*
X0137900Y0106778D02*
X0135698Y0106778D01*
X0135698Y0105310D02*
X0137900Y0106778D01*
X0137900Y0105310D02*
X0135698Y0105310D01*
X0136432Y0104568D02*
X0137900Y0104568D01*
X0136799Y0104568D02*
X0136799Y0103100D01*
X0136432Y0103100D02*
X0135698Y0103834D01*
X0136432Y0104568D01*
X0136432Y0103100D02*
X0137900Y0103100D01*
X0036327Y0030302D02*
X0034859Y0030302D01*
X0035593Y0030302D02*
X0035593Y0028100D01*
X0034117Y0028467D02*
X0033750Y0028100D01*
X0033016Y0028100D01*
X0032649Y0028467D01*
X0033016Y0029201D02*
X0033750Y0029201D01*
X0034117Y0028834D01*
X0034117Y0028467D01*
X0033016Y0029201D02*
X0032649Y0029568D01*
X0032649Y0029935D01*
X0033016Y0030302D01*
X0033750Y0030302D01*
X0034117Y0029935D01*
X0031907Y0029935D02*
X0031907Y0029201D01*
X0031540Y0028834D01*
X0030440Y0028834D01*
X0031173Y0028834D02*
X0031907Y0028100D01*
X0030440Y0028100D02*
X0030440Y0030302D01*
X0031540Y0030302D01*
X0031907Y0029935D01*
X0027488Y0029935D02*
X0027121Y0030302D01*
X0026020Y0030302D01*
X0026020Y0028100D01*
X0027121Y0028100D01*
X0027488Y0028467D01*
X0027488Y0029935D01*
X0025278Y0030302D02*
X0025278Y0028100D01*
X0023810Y0030302D01*
X0023810Y0028100D01*
X0023068Y0028467D02*
X0023068Y0029201D01*
X0022334Y0029201D01*
X0023068Y0029935D02*
X0022701Y0030302D01*
X0021967Y0030302D01*
X0021600Y0029935D01*
X0021600Y0028467D01*
X0021967Y0028100D01*
X0022701Y0028100D01*
X0023068Y0028467D01*
X0023334Y0005302D02*
X0023334Y0003100D01*
X0024810Y0003100D02*
X0026278Y0005302D01*
X0024810Y0005302D02*
X0026278Y0003100D01*
X0024068Y0005302D02*
X0022600Y0005302D01*
X0031440Y0005302D02*
X0031440Y0003100D01*
X0031440Y0003834D02*
X0032540Y0003834D01*
X0032907Y0004201D01*
X0032907Y0004935D01*
X0032540Y0005302D01*
X0031440Y0005302D01*
X0032173Y0003834D02*
X0032907Y0003100D01*
X0033649Y0003100D02*
X0035117Y0005302D01*
X0033649Y0005302D02*
X0035117Y0003100D01*
D95*
X0041500Y0005000D02*
X0041500Y0075000D01*
X0079000Y0075000D01*
X0081500Y0072500D01*
X0084000Y0075000D01*
X0089000Y0075000D02*
X0091500Y0072500D01*
X0094000Y0075000D01*
X0099000Y0075000D02*
X0101500Y0072500D01*
X0104000Y0075000D01*
X0109000Y0075000D02*
X0111500Y0072500D01*
X0114000Y0075000D01*
X0119000Y0075000D02*
X0121500Y0072500D01*
X0124000Y0075000D01*
X0129000Y0075000D02*
X0131500Y0072500D01*
X0134000Y0075000D01*
X0139000Y0075000D02*
X0141500Y0072500D01*
X0144000Y0075000D01*
X0079000Y0075000D01*
X0074000Y0075000D02*
X0071500Y0072500D01*
X0069000Y0075000D01*
X0064000Y0075000D02*
X0061500Y0072500D01*
X0059000Y0075000D01*
X0054000Y0075000D02*
X0051500Y0072500D01*
X0051500Y0067500D01*
X0054000Y0065000D01*
X0059000Y0065000D01*
X0061500Y0067500D01*
X0064000Y0065000D01*
X0069000Y0065000D01*
X0071500Y0067500D01*
X0074000Y0065000D01*
X0079000Y0065000D01*
X0081500Y0067500D01*
X0084000Y0065000D01*
X0089000Y0065000D01*
X0094000Y0065000D01*
X0096500Y0062500D01*
X0099000Y0065000D01*
X0104000Y0065000D01*
X0106500Y0062500D01*
X0106500Y0057500D01*
X0104000Y0055000D01*
X0099000Y0055000D01*
X0096500Y0057500D01*
X0094000Y0055000D01*
X0089000Y0055000D01*
X0086500Y0057500D01*
X0086500Y0062500D01*
X0089000Y0065000D01*
X0091500Y0067500D01*
X0094000Y0065000D01*
X0099000Y0065000D01*
X0101500Y0067500D01*
X0104000Y0065000D01*
X0109000Y0065000D01*
X0111500Y0067500D01*
X0114000Y0065000D01*
X0119000Y0065000D01*
X0121500Y0067500D01*
X0124000Y0065000D01*
X0129000Y0065000D01*
X0131500Y0067500D01*
X0134000Y0065000D01*
X0139000Y0065000D01*
X0141500Y0067500D01*
X0144000Y0065000D01*
X0149000Y0065000D01*
X0151500Y0067500D01*
X0154000Y0065000D01*
X0159000Y0065000D01*
X0161500Y0067500D01*
X0164000Y0065000D01*
X0169000Y0065000D01*
X0171500Y0067500D01*
X0171500Y0075000D01*
X0159000Y0075000D01*
X0161500Y0072500D01*
X0164000Y0075000D01*
X0169000Y0075000D02*
X0171500Y0072500D01*
X0171500Y0067500D02*
X0171500Y0057500D01*
X0171500Y0052500D01*
X0171500Y0047500D01*
X0171500Y0042500D01*
X0171500Y0037500D01*
X0169000Y0040000D01*
X0171500Y0042500D01*
X0171500Y0047500D02*
X0169000Y0050000D01*
X0171500Y0052500D01*
X0171500Y0057500D02*
X0169000Y0060000D01*
X0164000Y0060000D01*
X0161500Y0057500D01*
X0161500Y0052500D01*
X0164000Y0050000D01*
X0161500Y0047500D01*
X0161500Y0042500D01*
X0164000Y0040000D01*
X0161500Y0037500D01*
X0161500Y0032500D01*
X0164000Y0030000D01*
X0161500Y0027500D01*
X0161500Y0022500D01*
X0164000Y0020000D01*
X0169000Y0020000D01*
X0171500Y0022500D01*
X0171500Y0027500D01*
X0169000Y0030000D01*
X0171500Y0032500D01*
X0171500Y0037500D01*
X0171500Y0032500D02*
X0171500Y0027500D01*
X0171500Y0022500D02*
X0171500Y0005000D01*
X0164000Y0005000D01*
X0161500Y0007500D01*
X0159000Y0005000D01*
X0164000Y0005000D01*
X0169000Y0005000D02*
X0171500Y0007500D01*
X0171500Y0012500D02*
X0169000Y0015000D01*
X0164000Y0015000D01*
X0161500Y0012500D01*
X0159000Y0015000D01*
X0154000Y0015000D01*
X0151500Y0012500D01*
X0149000Y0015000D01*
X0144000Y0015000D01*
X0141500Y0012500D01*
X0139000Y0015000D01*
X0134000Y0015000D01*
X0131500Y0012500D01*
X0129000Y0015000D01*
X0124000Y0015000D01*
X0121500Y0012500D01*
X0119000Y0015000D01*
X0114000Y0015000D01*
X0111500Y0012500D01*
X0109000Y0015000D01*
X0104000Y0015000D01*
X0101500Y0012500D01*
X0099000Y0015000D01*
X0094000Y0015000D01*
X0091500Y0012500D01*
X0089000Y0015000D01*
X0084000Y0015000D01*
X0081500Y0012500D01*
X0079000Y0015000D01*
X0074000Y0015000D01*
X0071500Y0012500D01*
X0069000Y0015000D01*
X0064000Y0015000D01*
X0061500Y0012500D01*
X0059000Y0015000D01*
X0054000Y0015000D01*
X0051500Y0012500D01*
X0051500Y0007500D01*
X0054000Y0005000D01*
X0059000Y0005000D02*
X0061500Y0007500D01*
X0064000Y0005000D01*
X0069000Y0005000D01*
X0071500Y0007500D01*
X0074000Y0005000D01*
X0079000Y0005000D01*
X0081500Y0007500D01*
X0084000Y0005000D01*
X0089000Y0005000D01*
X0091500Y0007500D01*
X0094000Y0005000D01*
X0099000Y0005000D01*
X0101500Y0007500D01*
X0104000Y0005000D01*
X0109000Y0005000D01*
X0111500Y0007500D01*
X0114000Y0005000D01*
X0119000Y0005000D01*
X0121500Y0007500D01*
X0124000Y0005000D01*
X0129000Y0005000D01*
X0131500Y0007500D01*
X0134000Y0005000D01*
X0139000Y0005000D01*
X0141500Y0007500D01*
X0144000Y0005000D01*
X0149000Y0005000D01*
X0151500Y0007500D01*
X0154000Y0005000D01*
X0159000Y0005000D01*
X0154000Y0005000D02*
X0149000Y0005000D01*
X0144000Y0005000D02*
X0139000Y0005000D01*
X0134000Y0005000D02*
X0129000Y0005000D01*
X0124000Y0005000D02*
X0119000Y0005000D01*
X0114000Y0005000D02*
X0109000Y0005000D01*
X0104000Y0005000D02*
X0099000Y0005000D01*
X0094000Y0005000D02*
X0089000Y0005000D01*
X0084000Y0005000D02*
X0079000Y0005000D01*
X0074000Y0005000D02*
X0069000Y0005000D01*
X0064000Y0005000D02*
X0059000Y0005000D01*
X0041500Y0005000D01*
X0092000Y0031500D02*
X0092000Y0044500D01*
X0099000Y0044500D01*
X0099000Y0031500D01*
X0092000Y0031500D01*
X0103000Y0031500D02*
X0103000Y0044500D01*
X0110000Y0044500D01*
X0110000Y0031500D01*
X0103000Y0031500D01*
X0113000Y0031500D02*
X0113000Y0044500D01*
X0120000Y0044500D01*
X0120000Y0031500D01*
X0113000Y0031500D01*
X0123000Y0031500D02*
X0123000Y0044500D01*
X0130000Y0044500D01*
X0130000Y0031500D01*
X0123000Y0031500D01*
X0133000Y0031500D02*
X0133000Y0044500D01*
X0140000Y0044500D01*
X0140000Y0031500D01*
X0133000Y0031500D01*
X0143000Y0031500D02*
X0143000Y0044500D01*
X0150000Y0044500D01*
X0150000Y0031500D01*
X0143000Y0031500D01*
X0153000Y0031500D02*
X0153000Y0044500D01*
X0160000Y0044500D01*
X0160000Y0031500D01*
X0153000Y0031500D01*
X0151500Y0072500D02*
X0149000Y0075000D01*
X0151500Y0072500D02*
X0154000Y0075000D01*
X0159000Y0075000D02*
X0144000Y0075000D01*
X0142000Y0084000D02*
X0147000Y0084000D01*
X0149500Y0086500D01*
X0152000Y0084000D01*
X0157000Y0084000D01*
X0159500Y0086500D01*
X0162000Y0084000D01*
X0167000Y0084000D01*
X0169500Y0086500D01*
X0172000Y0084000D01*
X0177000Y0084000D01*
X0179500Y0086500D01*
X0179500Y0091500D01*
X0177000Y0094000D01*
X0179500Y0096500D01*
X0179500Y0101500D01*
X0177000Y0104000D01*
X0172000Y0104000D01*
X0169500Y0101500D01*
X0167000Y0104000D01*
X0162000Y0104000D01*
X0159500Y0101500D01*
X0157000Y0104000D01*
X0152000Y0104000D01*
X0149500Y0101500D01*
X0147000Y0104000D01*
X0142000Y0104000D01*
X0139500Y0101500D01*
X0139500Y0086500D01*
X0142000Y0084000D01*
X0138000Y0082400D02*
X0197000Y0082400D01*
X0197000Y0171000D01*
X0138000Y0171000D01*
X0138000Y0196600D01*
X0197000Y0196600D01*
X0197000Y0171000D01*
X0195996Y0190370D02*
X0195996Y0113598D01*
X0133004Y0113598D01*
X0133004Y0190370D01*
X0195996Y0190370D01*
X0138000Y0171000D02*
X0138000Y0082400D01*
X0137000Y0082500D02*
X0137000Y0095500D01*
X0130000Y0095500D01*
X0130000Y0082500D01*
X0137000Y0082500D01*
X0128000Y0082500D02*
X0121000Y0082500D01*
X0121000Y0095500D01*
X0128000Y0095500D01*
X0128000Y0082500D01*
X0112000Y0082500D02*
X0112000Y0095500D01*
X0105000Y0095500D01*
X0105000Y0082500D01*
X0112000Y0082500D01*
X0103000Y0082500D02*
X0103000Y0095500D01*
X0096000Y0095500D01*
X0096000Y0082500D01*
X0103000Y0082500D01*
X0094000Y0082500D02*
X0087000Y0082500D01*
X0087000Y0095500D01*
X0094000Y0095500D01*
X0094000Y0082500D01*
X0078000Y0082500D02*
X0078000Y0095500D01*
X0071000Y0095500D01*
X0071000Y0082500D01*
X0078000Y0082500D01*
X0068000Y0098100D02*
X0003000Y0098100D01*
X0003000Y0198100D01*
X0068000Y0198100D01*
X0068000Y0098100D01*
X0081701Y0145098D02*
X0081701Y0154799D01*
X0099299Y0154799D02*
X0099299Y0145098D01*
X0021000Y0179500D02*
X0021000Y0186500D01*
X0016000Y0186500D01*
X0016000Y0179500D01*
X0021000Y0179500D01*
D96*
X0011500Y0181000D02*
X0010500Y0181000D01*
X0011500Y0181000D02*
X0011500Y0182000D01*
X0011500Y0186000D02*
X0011500Y0187000D01*
X0010500Y0187000D01*
X0006500Y0187000D02*
X0005500Y0187000D01*
X0005500Y0186000D01*
X0005500Y0182000D02*
X0005500Y0181000D01*
X0006500Y0181000D01*
X0059500Y0181000D02*
X0059500Y0182000D01*
X0059500Y0181000D02*
X0060500Y0181000D01*
X0064500Y0181000D02*
X0065500Y0181000D01*
X0065500Y0182000D01*
X0065500Y0186000D02*
X0065500Y0187000D01*
X0064500Y0187000D01*
X0060500Y0187000D02*
X0059500Y0187000D01*
X0059500Y0186000D01*
X0071000Y0130000D02*
X0076000Y0130000D01*
X0078500Y0127500D01*
X0078500Y0112500D01*
X0076000Y0110000D01*
X0071000Y0110000D01*
X0068500Y0112500D01*
X0068500Y0127500D01*
X0071000Y0130000D01*
X0078500Y0127500D02*
X0081000Y0130000D01*
X0086000Y0130000D01*
X0088500Y0127500D01*
X0088500Y0112500D01*
X0086000Y0110000D01*
X0081000Y0110000D01*
X0078500Y0112500D01*
X0088500Y0112500D02*
X0091000Y0110000D01*
X0096000Y0110000D01*
X0098500Y0112500D01*
X0098500Y0127500D01*
X0096000Y0130000D01*
X0091000Y0130000D01*
X0088500Y0127500D01*
X0098500Y0127500D02*
X0101000Y0130000D01*
X0106000Y0130000D01*
X0108500Y0127500D01*
X0108500Y0112500D01*
X0106000Y0110000D01*
X0101000Y0110000D01*
X0098500Y0112500D01*
X0110500Y0117000D02*
X0110503Y0117245D01*
X0110512Y0117491D01*
X0110527Y0117736D01*
X0110548Y0117980D01*
X0110575Y0118224D01*
X0110608Y0118467D01*
X0110647Y0118710D01*
X0110692Y0118951D01*
X0110743Y0119191D01*
X0110800Y0119430D01*
X0110862Y0119667D01*
X0110931Y0119903D01*
X0111005Y0120137D01*
X0111085Y0120369D01*
X0111170Y0120599D01*
X0111261Y0120827D01*
X0111358Y0121052D01*
X0111460Y0121276D01*
X0111568Y0121496D01*
X0111681Y0121714D01*
X0111799Y0121929D01*
X0111923Y0122141D01*
X0112051Y0122350D01*
X0112185Y0122556D01*
X0112324Y0122758D01*
X0112468Y0122957D01*
X0112617Y0123152D01*
X0112770Y0123344D01*
X0112928Y0123532D01*
X0113090Y0123716D01*
X0113258Y0123895D01*
X0113429Y0124071D01*
X0113605Y0124242D01*
X0113784Y0124410D01*
X0113968Y0124572D01*
X0114156Y0124730D01*
X0114348Y0124883D01*
X0114543Y0125032D01*
X0114742Y0125176D01*
X0114944Y0125315D01*
X0115150Y0125449D01*
X0115359Y0125577D01*
X0115571Y0125701D01*
X0115786Y0125819D01*
X0116004Y0125932D01*
X0116224Y0126040D01*
X0116448Y0126142D01*
X0116673Y0126239D01*
X0116901Y0126330D01*
X0117131Y0126415D01*
X0117363Y0126495D01*
X0117597Y0126569D01*
X0117833Y0126638D01*
X0118070Y0126700D01*
X0118309Y0126757D01*
X0118549Y0126808D01*
X0118790Y0126853D01*
X0119033Y0126892D01*
X0119276Y0126925D01*
X0119520Y0126952D01*
X0119764Y0126973D01*
X0120009Y0126988D01*
X0120255Y0126997D01*
X0120500Y0127000D01*
X0120745Y0126997D01*
X0120991Y0126988D01*
X0121236Y0126973D01*
X0121480Y0126952D01*
X0121724Y0126925D01*
X0121967Y0126892D01*
X0122210Y0126853D01*
X0122451Y0126808D01*
X0122691Y0126757D01*
X0122930Y0126700D01*
X0123167Y0126638D01*
X0123403Y0126569D01*
X0123637Y0126495D01*
X0123869Y0126415D01*
X0124099Y0126330D01*
X0124327Y0126239D01*
X0124552Y0126142D01*
X0124776Y0126040D01*
X0124996Y0125932D01*
X0125214Y0125819D01*
X0125429Y0125701D01*
X0125641Y0125577D01*
X0125850Y0125449D01*
X0126056Y0125315D01*
X0126258Y0125176D01*
X0126457Y0125032D01*
X0126652Y0124883D01*
X0126844Y0124730D01*
X0127032Y0124572D01*
X0127216Y0124410D01*
X0127395Y0124242D01*
X0127571Y0124071D01*
X0127742Y0123895D01*
X0127910Y0123716D01*
X0128072Y0123532D01*
X0128230Y0123344D01*
X0128383Y0123152D01*
X0128532Y0122957D01*
X0128676Y0122758D01*
X0128815Y0122556D01*
X0128949Y0122350D01*
X0129077Y0122141D01*
X0129201Y0121929D01*
X0129319Y0121714D01*
X0129432Y0121496D01*
X0129540Y0121276D01*
X0129642Y0121052D01*
X0129739Y0120827D01*
X0129830Y0120599D01*
X0129915Y0120369D01*
X0129995Y0120137D01*
X0130069Y0119903D01*
X0130138Y0119667D01*
X0130200Y0119430D01*
X0130257Y0119191D01*
X0130308Y0118951D01*
X0130353Y0118710D01*
X0130392Y0118467D01*
X0130425Y0118224D01*
X0130452Y0117980D01*
X0130473Y0117736D01*
X0130488Y0117491D01*
X0130497Y0117245D01*
X0130500Y0117000D01*
X0130497Y0116755D01*
X0130488Y0116509D01*
X0130473Y0116264D01*
X0130452Y0116020D01*
X0130425Y0115776D01*
X0130392Y0115533D01*
X0130353Y0115290D01*
X0130308Y0115049D01*
X0130257Y0114809D01*
X0130200Y0114570D01*
X0130138Y0114333D01*
X0130069Y0114097D01*
X0129995Y0113863D01*
X0129915Y0113631D01*
X0129830Y0113401D01*
X0129739Y0113173D01*
X0129642Y0112948D01*
X0129540Y0112724D01*
X0129432Y0112504D01*
X0129319Y0112286D01*
X0129201Y0112071D01*
X0129077Y0111859D01*
X0128949Y0111650D01*
X0128815Y0111444D01*
X0128676Y0111242D01*
X0128532Y0111043D01*
X0128383Y0110848D01*
X0128230Y0110656D01*
X0128072Y0110468D01*
X0127910Y0110284D01*
X0127742Y0110105D01*
X0127571Y0109929D01*
X0127395Y0109758D01*
X0127216Y0109590D01*
X0127032Y0109428D01*
X0126844Y0109270D01*
X0126652Y0109117D01*
X0126457Y0108968D01*
X0126258Y0108824D01*
X0126056Y0108685D01*
X0125850Y0108551D01*
X0125641Y0108423D01*
X0125429Y0108299D01*
X0125214Y0108181D01*
X0124996Y0108068D01*
X0124776Y0107960D01*
X0124552Y0107858D01*
X0124327Y0107761D01*
X0124099Y0107670D01*
X0123869Y0107585D01*
X0123637Y0107505D01*
X0123403Y0107431D01*
X0123167Y0107362D01*
X0122930Y0107300D01*
X0122691Y0107243D01*
X0122451Y0107192D01*
X0122210Y0107147D01*
X0121967Y0107108D01*
X0121724Y0107075D01*
X0121480Y0107048D01*
X0121236Y0107027D01*
X0120991Y0107012D01*
X0120745Y0107003D01*
X0120500Y0107000D01*
X0120255Y0107003D01*
X0120009Y0107012D01*
X0119764Y0107027D01*
X0119520Y0107048D01*
X0119276Y0107075D01*
X0119033Y0107108D01*
X0118790Y0107147D01*
X0118549Y0107192D01*
X0118309Y0107243D01*
X0118070Y0107300D01*
X0117833Y0107362D01*
X0117597Y0107431D01*
X0117363Y0107505D01*
X0117131Y0107585D01*
X0116901Y0107670D01*
X0116673Y0107761D01*
X0116448Y0107858D01*
X0116224Y0107960D01*
X0116004Y0108068D01*
X0115786Y0108181D01*
X0115571Y0108299D01*
X0115359Y0108423D01*
X0115150Y0108551D01*
X0114944Y0108685D01*
X0114742Y0108824D01*
X0114543Y0108968D01*
X0114348Y0109117D01*
X0114156Y0109270D01*
X0113968Y0109428D01*
X0113784Y0109590D01*
X0113605Y0109758D01*
X0113429Y0109929D01*
X0113258Y0110105D01*
X0113090Y0110284D01*
X0112928Y0110468D01*
X0112770Y0110656D01*
X0112617Y0110848D01*
X0112468Y0111043D01*
X0112324Y0111242D01*
X0112185Y0111444D01*
X0112051Y0111650D01*
X0111923Y0111859D01*
X0111799Y0112071D01*
X0111681Y0112286D01*
X0111568Y0112504D01*
X0111460Y0112724D01*
X0111358Y0112948D01*
X0111261Y0113173D01*
X0111170Y0113401D01*
X0111085Y0113631D01*
X0111005Y0113863D01*
X0110931Y0114097D01*
X0110862Y0114333D01*
X0110800Y0114570D01*
X0110743Y0114809D01*
X0110692Y0115049D01*
X0110647Y0115290D01*
X0110608Y0115533D01*
X0110575Y0115776D01*
X0110548Y0116020D01*
X0110527Y0116264D01*
X0110512Y0116509D01*
X0110503Y0116755D01*
X0110500Y0117000D01*
X0124500Y0122500D02*
X0125500Y0122500D01*
X0126500Y0122500D01*
X0125500Y0122500D02*
X0125500Y0121500D01*
X0125500Y0122500D02*
X0125500Y0123500D01*
X0121500Y0131000D02*
X0120500Y0132000D01*
X0120500Y0140000D01*
X0121500Y0141000D01*
X0120500Y0142000D01*
X0120500Y0150000D01*
X0121500Y0151000D01*
X0129500Y0151000D01*
X0130500Y0150000D01*
X0130500Y0142000D01*
X0129500Y0141000D01*
X0130500Y0140000D01*
X0130500Y0132000D01*
X0129500Y0131000D01*
X0121500Y0131000D01*
X0121500Y0153000D02*
X0120500Y0154000D01*
X0120500Y0162000D01*
X0121500Y0163000D01*
X0120500Y0164000D01*
X0120500Y0172000D01*
X0121500Y0173000D01*
X0129500Y0173000D01*
X0130500Y0172000D01*
X0130500Y0164000D01*
X0129500Y0163000D01*
X0130500Y0162000D01*
X0130500Y0154000D01*
X0129500Y0153000D01*
X0121500Y0153000D01*
X0145241Y0180300D02*
X0145241Y0184570D01*
X0147376Y0186705D01*
X0149511Y0184570D01*
X0149511Y0180300D01*
X0151686Y0180300D02*
X0151686Y0186705D01*
X0155957Y0180300D01*
X0155957Y0186705D01*
X0158132Y0186705D02*
X0162402Y0186705D01*
X0160267Y0186705D02*
X0160267Y0180300D01*
X0164577Y0180300D02*
X0168848Y0180300D01*
X0171023Y0180300D02*
X0171023Y0186705D01*
X0175293Y0180300D01*
X0175293Y0186705D01*
X0177468Y0186705D02*
X0181739Y0180300D01*
X0181739Y0186705D01*
X0183914Y0184570D02*
X0186049Y0186705D01*
X0188184Y0184570D01*
X0188184Y0180300D01*
X0188184Y0183503D02*
X0183914Y0183503D01*
X0183914Y0184570D02*
X0183914Y0180300D01*
X0177468Y0180300D02*
X0177468Y0186705D01*
X0168848Y0186705D02*
X0164577Y0186705D01*
X0164577Y0180300D01*
X0164577Y0183503D02*
X0166712Y0183503D01*
X0149511Y0183503D02*
X0145241Y0183503D01*
X0146500Y0109500D02*
X0147500Y0109500D01*
X0147500Y0108500D01*
X0147500Y0104500D02*
X0147500Y0103500D01*
X0146500Y0103500D01*
X0142500Y0103500D02*
X0141500Y0103500D01*
X0141500Y0104500D01*
X0141500Y0108500D02*
X0141500Y0109500D01*
X0142500Y0109500D01*
X0176000Y0078000D02*
X0173500Y0075500D01*
X0173500Y0070500D01*
X0176000Y0068000D01*
X0173500Y0065500D01*
X0173500Y0060500D01*
X0176000Y0058000D01*
X0181000Y0058000D01*
X0183500Y0060500D01*
X0183500Y0065500D01*
X0181000Y0068000D01*
X0176000Y0068000D01*
X0181000Y0068000D01*
X0183500Y0070500D01*
X0183500Y0075500D01*
X0181000Y0078000D01*
X0176000Y0078000D01*
X0065500Y0112000D02*
X0064500Y0112000D01*
X0065500Y0112000D02*
X0065500Y0113000D01*
X0065500Y0117000D02*
X0065500Y0118000D01*
X0064500Y0118000D01*
X0060500Y0118000D02*
X0059500Y0118000D01*
X0059500Y0117000D01*
X0059500Y0113000D02*
X0059500Y0112000D01*
X0060500Y0112000D01*
X0056000Y0097000D02*
X0051000Y0097000D01*
X0048500Y0094500D01*
X0048500Y0079500D01*
X0051000Y0077000D01*
X0056000Y0077000D01*
X0058500Y0079500D01*
X0058500Y0094500D01*
X0056000Y0097000D01*
X0048500Y0094500D02*
X0046000Y0097000D01*
X0041000Y0097000D01*
X0038500Y0094500D01*
X0038500Y0079500D01*
X0041000Y0077000D01*
X0046000Y0077000D01*
X0048500Y0079500D01*
X0038500Y0079500D02*
X0036000Y0077000D01*
X0031000Y0077000D01*
X0028500Y0079500D01*
X0028500Y0094500D01*
X0031000Y0097000D01*
X0036000Y0097000D01*
X0038500Y0094500D01*
X0028500Y0094500D02*
X0026000Y0097000D01*
X0021000Y0097000D01*
X0018500Y0094500D01*
X0018500Y0079500D01*
X0021000Y0077000D01*
X0026000Y0077000D01*
X0028500Y0079500D01*
X0011500Y0112000D02*
X0010500Y0112000D01*
X0011500Y0112000D02*
X0011500Y0113000D01*
X0011500Y0117000D02*
X0011500Y0118000D01*
X0010500Y0118000D01*
X0006500Y0118000D02*
X0005500Y0118000D01*
X0005500Y0117000D01*
X0005500Y0113000D02*
X0005500Y0112000D01*
X0006500Y0112000D01*
X0022000Y0027000D02*
X0037000Y0027000D01*
X0039500Y0024500D01*
X0039500Y0019500D01*
X0037000Y0017000D01*
X0022000Y0017000D01*
X0019500Y0014500D01*
X0019500Y0009500D01*
X0022000Y0007000D01*
X0037000Y0007000D01*
X0039500Y0009500D01*
X0039500Y0014500D01*
X0037000Y0017000D01*
X0022000Y0017000D02*
X0019500Y0019500D01*
X0019500Y0024500D01*
X0022000Y0027000D01*
D97*
X0069933Y0174719D02*
X0099067Y0174719D01*
X0099067Y0197356D01*
X0069933Y0197356D01*
X0069933Y0174719D01*
X0101933Y0174719D02*
X0131067Y0174719D01*
X0131067Y0197356D01*
X0101933Y0197356D01*
X0101933Y0174719D01*
D98*
X0111382Y0174945D02*
X0111382Y0176913D01*
X0121618Y0176913D01*
X0121618Y0174945D01*
X0089618Y0174945D02*
X0089618Y0176913D01*
X0079382Y0176913D01*
X0079382Y0174945D01*
D99*
X0092700Y0176200D02*
X0095102Y0179803D01*
X0096383Y0178602D02*
X0097584Y0179803D01*
X0097584Y0176200D01*
X0096383Y0176200D02*
X0098785Y0176200D01*
X0095102Y0176200D02*
X0092700Y0179803D01*
X0103700Y0179803D02*
X0106102Y0176200D01*
X0107383Y0176801D02*
X0107984Y0176200D01*
X0109185Y0176200D01*
X0109785Y0176801D01*
X0109785Y0177401D01*
X0109185Y0178002D01*
X0108584Y0178002D01*
X0109185Y0178002D02*
X0109785Y0178602D01*
X0109785Y0179203D01*
X0109185Y0179803D01*
X0107984Y0179803D01*
X0107383Y0179203D01*
X0106102Y0179803D02*
X0103700Y0176200D01*
D100*
X0014500Y0094500D02*
X0014500Y0089500D01*
X0012000Y0087000D01*
X0014500Y0084500D01*
X0014500Y0079500D01*
X0012000Y0077000D01*
X0014500Y0074500D01*
X0014500Y0069500D01*
X0012000Y0067000D01*
X0014500Y0064500D01*
X0014500Y0059500D01*
X0012000Y0057000D01*
X0014500Y0054500D01*
X0014500Y0049500D01*
X0012000Y0047000D01*
X0014500Y0044500D01*
X0014500Y0039500D01*
X0012000Y0037000D01*
X0014500Y0034500D01*
X0014500Y0029500D01*
X0012000Y0027000D01*
X0014500Y0024500D01*
X0014500Y0019500D01*
X0012000Y0017000D01*
X0007000Y0017000D01*
X0004500Y0019500D01*
X0004500Y0024500D01*
X0007000Y0027000D01*
X0004500Y0029500D01*
X0004500Y0034500D01*
X0007000Y0037000D01*
X0004500Y0039500D01*
X0004500Y0044500D01*
X0007000Y0047000D01*
X0004500Y0049500D01*
X0004500Y0054500D01*
X0007000Y0057000D01*
X0004500Y0059500D01*
X0004500Y0064500D01*
X0007000Y0067000D01*
X0004500Y0069500D01*
X0004500Y0074500D01*
X0007000Y0077000D01*
X0004500Y0079500D01*
X0004500Y0084500D01*
X0007000Y0087000D01*
X0004500Y0089500D01*
X0004500Y0094500D01*
X0007000Y0097000D01*
X0012000Y0097000D01*
X0014500Y0094500D01*
X0183500Y0075500D02*
X0183500Y0070500D01*
X0186000Y0068000D01*
X0183500Y0065500D01*
X0183500Y0060500D01*
X0186000Y0058000D01*
X0183500Y0055500D01*
X0183500Y0050500D01*
X0186000Y0048000D01*
X0183500Y0045500D01*
X0183500Y0040500D01*
X0186000Y0038000D01*
X0183500Y0035500D01*
X0183500Y0030500D01*
X0186000Y0028000D01*
X0183500Y0025500D01*
X0183500Y0020500D01*
X0186000Y0018000D01*
X0183500Y0015500D01*
X0183500Y0010500D01*
X0186000Y0008000D01*
X0191000Y0008000D01*
X0193500Y0010500D01*
X0193500Y0015500D01*
X0191000Y0018000D01*
X0193500Y0020500D01*
X0193500Y0025500D01*
X0191000Y0028000D01*
X0193500Y0030500D01*
X0193500Y0035500D01*
X0191000Y0038000D01*
X0193500Y0040500D01*
X0193500Y0045500D01*
X0191000Y0048000D01*
X0193500Y0050500D01*
X0193500Y0055500D01*
X0191000Y0058000D01*
X0193500Y0060500D01*
X0193500Y0065500D01*
X0191000Y0068000D01*
X0193500Y0070500D01*
X0193500Y0075500D01*
X0191000Y0078000D01*
X0186000Y0078000D01*
X0183500Y0075500D01*
M02*
