%
M48
M72
T01C0.0180
T02C0.0197
T03C0.0236
T04C0.0320
T05C0.0354
T06C0.0360
T07C0.0394
T08C0.0400
T09C0.1260
%
T01
X9950Y10350
T02
X10850Y9800
X8800Y8050
X6900Y8700
X4750Y6300
X4350Y6000
X2950Y6600
X2950Y7400
X9550Y4600
X10150Y3800
X10650Y3000
X11650Y2600
X12650Y2300
X13650Y2000
X14650Y1700
X15650Y1450
X14350Y8000
X15150Y10600
X17512Y10600
X18350Y9400
X13850Y12900
X13850Y15700
X11050Y16800
X18050Y17500
T03
X13694Y17700
T04
X12050Y12200
X12050Y11200
X14450Y10650
X6250Y11500
X850Y11500
X850Y18400
X6250Y18400
T05
X6250Y19310
X850Y19310
X850Y10310
X1950Y10310
X5150Y10310
X6250Y10310
T06
X12550Y13600
X12550Y14600
X12550Y15800
X12550Y16800
T07
X14450Y9900
X14450Y8900
X15450Y8900
X15450Y9900
X16450Y9900
X16450Y8900
X17450Y8900
X17450Y9900
X16650Y7000
X15650Y7000
X14650Y7000
X13650Y7000
X12650Y7000
X11650Y7000
X10650Y7000
X9650Y7000
X8650Y7000
X7650Y7000
X6650Y7000
X5650Y7000
X9150Y6000
X10150Y6000
X9650Y1000
X8650Y1000
X7650Y1000
X6650Y1000
X5650Y1000
X10650Y1000
X11650Y1000
X12650Y1000
X13650Y1000
X14650Y1000
X15650Y1000
X16650Y1000
X16650Y2500
X16650Y3500
X16650Y4500
X16650Y5500
T08
X17850Y6300
X17850Y7300
X18850Y7300
X18850Y6300
X18850Y5300
X18850Y4300
X18850Y3300
X18850Y2300
X18850Y1300
X10350Y11500
X10350Y12500
X9350Y12500
X9350Y11500
X8350Y11500
X8350Y12500
X7350Y12500
X7350Y11500
X5350Y9200
X5350Y8200
X4350Y8200
X4350Y9200
X3350Y9200
X3350Y8200
X2350Y8200
X2350Y9200
X950Y9200
X950Y8200
X950Y7200
X950Y6200
X950Y5200
X950Y4200
X950Y3200
X950Y2200
X2450Y2200
X2450Y1200
X3450Y1200
X3450Y2200
X7950Y18400
X8950Y18400
X11150Y18400
X12150Y18400
T09
X1250Y1100
X3450Y15700
X16950Y15700
M30
