G75*
%MOIN*%
%OFA0B0*%
%FSLAX25Y25*%
%IPPOS*%
%LPD*%
%AMOC8*
5,1,8,0,0,1.08239X$1,22.5*
%
%ADD10C,0.00000*%
%ADD11R,0.05937X0.05937*%
%ADD12C,0.05937*%
%ADD13C,0.05600*%
%ADD14OC8,0.06300*%
%ADD15C,0.06300*%
%ADD16R,0.05543X0.05543*%
%ADD17C,0.06000*%
%ADD18OC8,0.06000*%
%ADD19C,0.07400*%
%ADD20C,0.01000*%
%ADD21R,0.05906X0.05118*%
%ADD22R,0.05118X0.05906*%
%ADD23R,0.05000X0.10000*%
%ADD24R,0.03500X0.02400*%
%ADD25R,0.03937X0.05906*%
%ADD26R,0.03937X0.07874*%
%ADD27C,0.08661*%
%ADD28C,0.03169*%
%ADD29C,0.01600*%
%ADD30R,0.03562X0.03562*%
%ADD31C,0.03000*%
D10*
X0001500Y0002000D02*
X0197500Y0002000D01*
X0197500Y0198000D01*
X0001500Y0198000D01*
X0001500Y0002000D01*
X0006201Y0011000D02*
X0006203Y0011158D01*
X0006209Y0011316D01*
X0006219Y0011474D01*
X0006233Y0011632D01*
X0006251Y0011789D01*
X0006272Y0011946D01*
X0006298Y0012102D01*
X0006328Y0012258D01*
X0006361Y0012413D01*
X0006399Y0012566D01*
X0006440Y0012719D01*
X0006485Y0012871D01*
X0006534Y0013022D01*
X0006587Y0013171D01*
X0006643Y0013319D01*
X0006703Y0013465D01*
X0006767Y0013610D01*
X0006835Y0013753D01*
X0006906Y0013895D01*
X0006980Y0014035D01*
X0007058Y0014172D01*
X0007140Y0014308D01*
X0007224Y0014442D01*
X0007313Y0014573D01*
X0007404Y0014702D01*
X0007499Y0014829D01*
X0007596Y0014954D01*
X0007697Y0015076D01*
X0007801Y0015195D01*
X0007908Y0015312D01*
X0008018Y0015426D01*
X0008131Y0015537D01*
X0008246Y0015646D01*
X0008364Y0015751D01*
X0008485Y0015853D01*
X0008608Y0015953D01*
X0008734Y0016049D01*
X0008862Y0016142D01*
X0008992Y0016232D01*
X0009125Y0016318D01*
X0009260Y0016402D01*
X0009396Y0016481D01*
X0009535Y0016558D01*
X0009676Y0016630D01*
X0009818Y0016700D01*
X0009962Y0016765D01*
X0010108Y0016827D01*
X0010255Y0016885D01*
X0010404Y0016940D01*
X0010554Y0016991D01*
X0010705Y0017038D01*
X0010857Y0017081D01*
X0011010Y0017120D01*
X0011165Y0017156D01*
X0011320Y0017187D01*
X0011476Y0017215D01*
X0011632Y0017239D01*
X0011789Y0017259D01*
X0011947Y0017275D01*
X0012104Y0017287D01*
X0012263Y0017295D01*
X0012421Y0017299D01*
X0012579Y0017299D01*
X0012737Y0017295D01*
X0012896Y0017287D01*
X0013053Y0017275D01*
X0013211Y0017259D01*
X0013368Y0017239D01*
X0013524Y0017215D01*
X0013680Y0017187D01*
X0013835Y0017156D01*
X0013990Y0017120D01*
X0014143Y0017081D01*
X0014295Y0017038D01*
X0014446Y0016991D01*
X0014596Y0016940D01*
X0014745Y0016885D01*
X0014892Y0016827D01*
X0015038Y0016765D01*
X0015182Y0016700D01*
X0015324Y0016630D01*
X0015465Y0016558D01*
X0015604Y0016481D01*
X0015740Y0016402D01*
X0015875Y0016318D01*
X0016008Y0016232D01*
X0016138Y0016142D01*
X0016266Y0016049D01*
X0016392Y0015953D01*
X0016515Y0015853D01*
X0016636Y0015751D01*
X0016754Y0015646D01*
X0016869Y0015537D01*
X0016982Y0015426D01*
X0017092Y0015312D01*
X0017199Y0015195D01*
X0017303Y0015076D01*
X0017404Y0014954D01*
X0017501Y0014829D01*
X0017596Y0014702D01*
X0017687Y0014573D01*
X0017776Y0014442D01*
X0017860Y0014308D01*
X0017942Y0014172D01*
X0018020Y0014035D01*
X0018094Y0013895D01*
X0018165Y0013753D01*
X0018233Y0013610D01*
X0018297Y0013465D01*
X0018357Y0013319D01*
X0018413Y0013171D01*
X0018466Y0013022D01*
X0018515Y0012871D01*
X0018560Y0012719D01*
X0018601Y0012566D01*
X0018639Y0012413D01*
X0018672Y0012258D01*
X0018702Y0012102D01*
X0018728Y0011946D01*
X0018749Y0011789D01*
X0018767Y0011632D01*
X0018781Y0011474D01*
X0018791Y0011316D01*
X0018797Y0011158D01*
X0018799Y0011000D01*
X0018797Y0010842D01*
X0018791Y0010684D01*
X0018781Y0010526D01*
X0018767Y0010368D01*
X0018749Y0010211D01*
X0018728Y0010054D01*
X0018702Y0009898D01*
X0018672Y0009742D01*
X0018639Y0009587D01*
X0018601Y0009434D01*
X0018560Y0009281D01*
X0018515Y0009129D01*
X0018466Y0008978D01*
X0018413Y0008829D01*
X0018357Y0008681D01*
X0018297Y0008535D01*
X0018233Y0008390D01*
X0018165Y0008247D01*
X0018094Y0008105D01*
X0018020Y0007965D01*
X0017942Y0007828D01*
X0017860Y0007692D01*
X0017776Y0007558D01*
X0017687Y0007427D01*
X0017596Y0007298D01*
X0017501Y0007171D01*
X0017404Y0007046D01*
X0017303Y0006924D01*
X0017199Y0006805D01*
X0017092Y0006688D01*
X0016982Y0006574D01*
X0016869Y0006463D01*
X0016754Y0006354D01*
X0016636Y0006249D01*
X0016515Y0006147D01*
X0016392Y0006047D01*
X0016266Y0005951D01*
X0016138Y0005858D01*
X0016008Y0005768D01*
X0015875Y0005682D01*
X0015740Y0005598D01*
X0015604Y0005519D01*
X0015465Y0005442D01*
X0015324Y0005370D01*
X0015182Y0005300D01*
X0015038Y0005235D01*
X0014892Y0005173D01*
X0014745Y0005115D01*
X0014596Y0005060D01*
X0014446Y0005009D01*
X0014295Y0004962D01*
X0014143Y0004919D01*
X0013990Y0004880D01*
X0013835Y0004844D01*
X0013680Y0004813D01*
X0013524Y0004785D01*
X0013368Y0004761D01*
X0013211Y0004741D01*
X0013053Y0004725D01*
X0012896Y0004713D01*
X0012737Y0004705D01*
X0012579Y0004701D01*
X0012421Y0004701D01*
X0012263Y0004705D01*
X0012104Y0004713D01*
X0011947Y0004725D01*
X0011789Y0004741D01*
X0011632Y0004761D01*
X0011476Y0004785D01*
X0011320Y0004813D01*
X0011165Y0004844D01*
X0011010Y0004880D01*
X0010857Y0004919D01*
X0010705Y0004962D01*
X0010554Y0005009D01*
X0010404Y0005060D01*
X0010255Y0005115D01*
X0010108Y0005173D01*
X0009962Y0005235D01*
X0009818Y0005300D01*
X0009676Y0005370D01*
X0009535Y0005442D01*
X0009396Y0005519D01*
X0009260Y0005598D01*
X0009125Y0005682D01*
X0008992Y0005768D01*
X0008862Y0005858D01*
X0008734Y0005951D01*
X0008608Y0006047D01*
X0008485Y0006147D01*
X0008364Y0006249D01*
X0008246Y0006354D01*
X0008131Y0006463D01*
X0008018Y0006574D01*
X0007908Y0006688D01*
X0007801Y0006805D01*
X0007697Y0006924D01*
X0007596Y0007046D01*
X0007499Y0007171D01*
X0007404Y0007298D01*
X0007313Y0007427D01*
X0007224Y0007558D01*
X0007140Y0007692D01*
X0007058Y0007828D01*
X0006980Y0007965D01*
X0006906Y0008105D01*
X0006835Y0008247D01*
X0006767Y0008390D01*
X0006703Y0008535D01*
X0006643Y0008681D01*
X0006587Y0008829D01*
X0006534Y0008978D01*
X0006485Y0009129D01*
X0006440Y0009281D01*
X0006399Y0009434D01*
X0006361Y0009587D01*
X0006328Y0009742D01*
X0006298Y0009898D01*
X0006272Y0010054D01*
X0006251Y0010211D01*
X0006233Y0010368D01*
X0006219Y0010526D01*
X0006209Y0010684D01*
X0006203Y0010842D01*
X0006201Y0011000D01*
X0028201Y0157000D02*
X0028203Y0157158D01*
X0028209Y0157316D01*
X0028219Y0157474D01*
X0028233Y0157632D01*
X0028251Y0157789D01*
X0028272Y0157946D01*
X0028298Y0158102D01*
X0028328Y0158258D01*
X0028361Y0158413D01*
X0028399Y0158566D01*
X0028440Y0158719D01*
X0028485Y0158871D01*
X0028534Y0159022D01*
X0028587Y0159171D01*
X0028643Y0159319D01*
X0028703Y0159465D01*
X0028767Y0159610D01*
X0028835Y0159753D01*
X0028906Y0159895D01*
X0028980Y0160035D01*
X0029058Y0160172D01*
X0029140Y0160308D01*
X0029224Y0160442D01*
X0029313Y0160573D01*
X0029404Y0160702D01*
X0029499Y0160829D01*
X0029596Y0160954D01*
X0029697Y0161076D01*
X0029801Y0161195D01*
X0029908Y0161312D01*
X0030018Y0161426D01*
X0030131Y0161537D01*
X0030246Y0161646D01*
X0030364Y0161751D01*
X0030485Y0161853D01*
X0030608Y0161953D01*
X0030734Y0162049D01*
X0030862Y0162142D01*
X0030992Y0162232D01*
X0031125Y0162318D01*
X0031260Y0162402D01*
X0031396Y0162481D01*
X0031535Y0162558D01*
X0031676Y0162630D01*
X0031818Y0162700D01*
X0031962Y0162765D01*
X0032108Y0162827D01*
X0032255Y0162885D01*
X0032404Y0162940D01*
X0032554Y0162991D01*
X0032705Y0163038D01*
X0032857Y0163081D01*
X0033010Y0163120D01*
X0033165Y0163156D01*
X0033320Y0163187D01*
X0033476Y0163215D01*
X0033632Y0163239D01*
X0033789Y0163259D01*
X0033947Y0163275D01*
X0034104Y0163287D01*
X0034263Y0163295D01*
X0034421Y0163299D01*
X0034579Y0163299D01*
X0034737Y0163295D01*
X0034896Y0163287D01*
X0035053Y0163275D01*
X0035211Y0163259D01*
X0035368Y0163239D01*
X0035524Y0163215D01*
X0035680Y0163187D01*
X0035835Y0163156D01*
X0035990Y0163120D01*
X0036143Y0163081D01*
X0036295Y0163038D01*
X0036446Y0162991D01*
X0036596Y0162940D01*
X0036745Y0162885D01*
X0036892Y0162827D01*
X0037038Y0162765D01*
X0037182Y0162700D01*
X0037324Y0162630D01*
X0037465Y0162558D01*
X0037604Y0162481D01*
X0037740Y0162402D01*
X0037875Y0162318D01*
X0038008Y0162232D01*
X0038138Y0162142D01*
X0038266Y0162049D01*
X0038392Y0161953D01*
X0038515Y0161853D01*
X0038636Y0161751D01*
X0038754Y0161646D01*
X0038869Y0161537D01*
X0038982Y0161426D01*
X0039092Y0161312D01*
X0039199Y0161195D01*
X0039303Y0161076D01*
X0039404Y0160954D01*
X0039501Y0160829D01*
X0039596Y0160702D01*
X0039687Y0160573D01*
X0039776Y0160442D01*
X0039860Y0160308D01*
X0039942Y0160172D01*
X0040020Y0160035D01*
X0040094Y0159895D01*
X0040165Y0159753D01*
X0040233Y0159610D01*
X0040297Y0159465D01*
X0040357Y0159319D01*
X0040413Y0159171D01*
X0040466Y0159022D01*
X0040515Y0158871D01*
X0040560Y0158719D01*
X0040601Y0158566D01*
X0040639Y0158413D01*
X0040672Y0158258D01*
X0040702Y0158102D01*
X0040728Y0157946D01*
X0040749Y0157789D01*
X0040767Y0157632D01*
X0040781Y0157474D01*
X0040791Y0157316D01*
X0040797Y0157158D01*
X0040799Y0157000D01*
X0040797Y0156842D01*
X0040791Y0156684D01*
X0040781Y0156526D01*
X0040767Y0156368D01*
X0040749Y0156211D01*
X0040728Y0156054D01*
X0040702Y0155898D01*
X0040672Y0155742D01*
X0040639Y0155587D01*
X0040601Y0155434D01*
X0040560Y0155281D01*
X0040515Y0155129D01*
X0040466Y0154978D01*
X0040413Y0154829D01*
X0040357Y0154681D01*
X0040297Y0154535D01*
X0040233Y0154390D01*
X0040165Y0154247D01*
X0040094Y0154105D01*
X0040020Y0153965D01*
X0039942Y0153828D01*
X0039860Y0153692D01*
X0039776Y0153558D01*
X0039687Y0153427D01*
X0039596Y0153298D01*
X0039501Y0153171D01*
X0039404Y0153046D01*
X0039303Y0152924D01*
X0039199Y0152805D01*
X0039092Y0152688D01*
X0038982Y0152574D01*
X0038869Y0152463D01*
X0038754Y0152354D01*
X0038636Y0152249D01*
X0038515Y0152147D01*
X0038392Y0152047D01*
X0038266Y0151951D01*
X0038138Y0151858D01*
X0038008Y0151768D01*
X0037875Y0151682D01*
X0037740Y0151598D01*
X0037604Y0151519D01*
X0037465Y0151442D01*
X0037324Y0151370D01*
X0037182Y0151300D01*
X0037038Y0151235D01*
X0036892Y0151173D01*
X0036745Y0151115D01*
X0036596Y0151060D01*
X0036446Y0151009D01*
X0036295Y0150962D01*
X0036143Y0150919D01*
X0035990Y0150880D01*
X0035835Y0150844D01*
X0035680Y0150813D01*
X0035524Y0150785D01*
X0035368Y0150761D01*
X0035211Y0150741D01*
X0035053Y0150725D01*
X0034896Y0150713D01*
X0034737Y0150705D01*
X0034579Y0150701D01*
X0034421Y0150701D01*
X0034263Y0150705D01*
X0034104Y0150713D01*
X0033947Y0150725D01*
X0033789Y0150741D01*
X0033632Y0150761D01*
X0033476Y0150785D01*
X0033320Y0150813D01*
X0033165Y0150844D01*
X0033010Y0150880D01*
X0032857Y0150919D01*
X0032705Y0150962D01*
X0032554Y0151009D01*
X0032404Y0151060D01*
X0032255Y0151115D01*
X0032108Y0151173D01*
X0031962Y0151235D01*
X0031818Y0151300D01*
X0031676Y0151370D01*
X0031535Y0151442D01*
X0031396Y0151519D01*
X0031260Y0151598D01*
X0031125Y0151682D01*
X0030992Y0151768D01*
X0030862Y0151858D01*
X0030734Y0151951D01*
X0030608Y0152047D01*
X0030485Y0152147D01*
X0030364Y0152249D01*
X0030246Y0152354D01*
X0030131Y0152463D01*
X0030018Y0152574D01*
X0029908Y0152688D01*
X0029801Y0152805D01*
X0029697Y0152924D01*
X0029596Y0153046D01*
X0029499Y0153171D01*
X0029404Y0153298D01*
X0029313Y0153427D01*
X0029224Y0153558D01*
X0029140Y0153692D01*
X0029058Y0153828D01*
X0028980Y0153965D01*
X0028906Y0154105D01*
X0028835Y0154247D01*
X0028767Y0154390D01*
X0028703Y0154535D01*
X0028643Y0154681D01*
X0028587Y0154829D01*
X0028534Y0154978D01*
X0028485Y0155129D01*
X0028440Y0155281D01*
X0028399Y0155434D01*
X0028361Y0155587D01*
X0028328Y0155742D01*
X0028298Y0155898D01*
X0028272Y0156054D01*
X0028251Y0156211D01*
X0028233Y0156368D01*
X0028219Y0156526D01*
X0028209Y0156684D01*
X0028203Y0156842D01*
X0028201Y0157000D01*
X0163201Y0157000D02*
X0163203Y0157158D01*
X0163209Y0157316D01*
X0163219Y0157474D01*
X0163233Y0157632D01*
X0163251Y0157789D01*
X0163272Y0157946D01*
X0163298Y0158102D01*
X0163328Y0158258D01*
X0163361Y0158413D01*
X0163399Y0158566D01*
X0163440Y0158719D01*
X0163485Y0158871D01*
X0163534Y0159022D01*
X0163587Y0159171D01*
X0163643Y0159319D01*
X0163703Y0159465D01*
X0163767Y0159610D01*
X0163835Y0159753D01*
X0163906Y0159895D01*
X0163980Y0160035D01*
X0164058Y0160172D01*
X0164140Y0160308D01*
X0164224Y0160442D01*
X0164313Y0160573D01*
X0164404Y0160702D01*
X0164499Y0160829D01*
X0164596Y0160954D01*
X0164697Y0161076D01*
X0164801Y0161195D01*
X0164908Y0161312D01*
X0165018Y0161426D01*
X0165131Y0161537D01*
X0165246Y0161646D01*
X0165364Y0161751D01*
X0165485Y0161853D01*
X0165608Y0161953D01*
X0165734Y0162049D01*
X0165862Y0162142D01*
X0165992Y0162232D01*
X0166125Y0162318D01*
X0166260Y0162402D01*
X0166396Y0162481D01*
X0166535Y0162558D01*
X0166676Y0162630D01*
X0166818Y0162700D01*
X0166962Y0162765D01*
X0167108Y0162827D01*
X0167255Y0162885D01*
X0167404Y0162940D01*
X0167554Y0162991D01*
X0167705Y0163038D01*
X0167857Y0163081D01*
X0168010Y0163120D01*
X0168165Y0163156D01*
X0168320Y0163187D01*
X0168476Y0163215D01*
X0168632Y0163239D01*
X0168789Y0163259D01*
X0168947Y0163275D01*
X0169104Y0163287D01*
X0169263Y0163295D01*
X0169421Y0163299D01*
X0169579Y0163299D01*
X0169737Y0163295D01*
X0169896Y0163287D01*
X0170053Y0163275D01*
X0170211Y0163259D01*
X0170368Y0163239D01*
X0170524Y0163215D01*
X0170680Y0163187D01*
X0170835Y0163156D01*
X0170990Y0163120D01*
X0171143Y0163081D01*
X0171295Y0163038D01*
X0171446Y0162991D01*
X0171596Y0162940D01*
X0171745Y0162885D01*
X0171892Y0162827D01*
X0172038Y0162765D01*
X0172182Y0162700D01*
X0172324Y0162630D01*
X0172465Y0162558D01*
X0172604Y0162481D01*
X0172740Y0162402D01*
X0172875Y0162318D01*
X0173008Y0162232D01*
X0173138Y0162142D01*
X0173266Y0162049D01*
X0173392Y0161953D01*
X0173515Y0161853D01*
X0173636Y0161751D01*
X0173754Y0161646D01*
X0173869Y0161537D01*
X0173982Y0161426D01*
X0174092Y0161312D01*
X0174199Y0161195D01*
X0174303Y0161076D01*
X0174404Y0160954D01*
X0174501Y0160829D01*
X0174596Y0160702D01*
X0174687Y0160573D01*
X0174776Y0160442D01*
X0174860Y0160308D01*
X0174942Y0160172D01*
X0175020Y0160035D01*
X0175094Y0159895D01*
X0175165Y0159753D01*
X0175233Y0159610D01*
X0175297Y0159465D01*
X0175357Y0159319D01*
X0175413Y0159171D01*
X0175466Y0159022D01*
X0175515Y0158871D01*
X0175560Y0158719D01*
X0175601Y0158566D01*
X0175639Y0158413D01*
X0175672Y0158258D01*
X0175702Y0158102D01*
X0175728Y0157946D01*
X0175749Y0157789D01*
X0175767Y0157632D01*
X0175781Y0157474D01*
X0175791Y0157316D01*
X0175797Y0157158D01*
X0175799Y0157000D01*
X0175797Y0156842D01*
X0175791Y0156684D01*
X0175781Y0156526D01*
X0175767Y0156368D01*
X0175749Y0156211D01*
X0175728Y0156054D01*
X0175702Y0155898D01*
X0175672Y0155742D01*
X0175639Y0155587D01*
X0175601Y0155434D01*
X0175560Y0155281D01*
X0175515Y0155129D01*
X0175466Y0154978D01*
X0175413Y0154829D01*
X0175357Y0154681D01*
X0175297Y0154535D01*
X0175233Y0154390D01*
X0175165Y0154247D01*
X0175094Y0154105D01*
X0175020Y0153965D01*
X0174942Y0153828D01*
X0174860Y0153692D01*
X0174776Y0153558D01*
X0174687Y0153427D01*
X0174596Y0153298D01*
X0174501Y0153171D01*
X0174404Y0153046D01*
X0174303Y0152924D01*
X0174199Y0152805D01*
X0174092Y0152688D01*
X0173982Y0152574D01*
X0173869Y0152463D01*
X0173754Y0152354D01*
X0173636Y0152249D01*
X0173515Y0152147D01*
X0173392Y0152047D01*
X0173266Y0151951D01*
X0173138Y0151858D01*
X0173008Y0151768D01*
X0172875Y0151682D01*
X0172740Y0151598D01*
X0172604Y0151519D01*
X0172465Y0151442D01*
X0172324Y0151370D01*
X0172182Y0151300D01*
X0172038Y0151235D01*
X0171892Y0151173D01*
X0171745Y0151115D01*
X0171596Y0151060D01*
X0171446Y0151009D01*
X0171295Y0150962D01*
X0171143Y0150919D01*
X0170990Y0150880D01*
X0170835Y0150844D01*
X0170680Y0150813D01*
X0170524Y0150785D01*
X0170368Y0150761D01*
X0170211Y0150741D01*
X0170053Y0150725D01*
X0169896Y0150713D01*
X0169737Y0150705D01*
X0169579Y0150701D01*
X0169421Y0150701D01*
X0169263Y0150705D01*
X0169104Y0150713D01*
X0168947Y0150725D01*
X0168789Y0150741D01*
X0168632Y0150761D01*
X0168476Y0150785D01*
X0168320Y0150813D01*
X0168165Y0150844D01*
X0168010Y0150880D01*
X0167857Y0150919D01*
X0167705Y0150962D01*
X0167554Y0151009D01*
X0167404Y0151060D01*
X0167255Y0151115D01*
X0167108Y0151173D01*
X0166962Y0151235D01*
X0166818Y0151300D01*
X0166676Y0151370D01*
X0166535Y0151442D01*
X0166396Y0151519D01*
X0166260Y0151598D01*
X0166125Y0151682D01*
X0165992Y0151768D01*
X0165862Y0151858D01*
X0165734Y0151951D01*
X0165608Y0152047D01*
X0165485Y0152147D01*
X0165364Y0152249D01*
X0165246Y0152354D01*
X0165131Y0152463D01*
X0165018Y0152574D01*
X0164908Y0152688D01*
X0164801Y0152805D01*
X0164697Y0152924D01*
X0164596Y0153046D01*
X0164499Y0153171D01*
X0164404Y0153298D01*
X0164313Y0153427D01*
X0164224Y0153558D01*
X0164140Y0153692D01*
X0164058Y0153828D01*
X0163980Y0153965D01*
X0163906Y0154105D01*
X0163835Y0154247D01*
X0163767Y0154390D01*
X0163703Y0154535D01*
X0163643Y0154681D01*
X0163587Y0154829D01*
X0163534Y0154978D01*
X0163485Y0155129D01*
X0163440Y0155281D01*
X0163399Y0155434D01*
X0163361Y0155587D01*
X0163328Y0155742D01*
X0163298Y0155898D01*
X0163272Y0156054D01*
X0163251Y0156211D01*
X0163233Y0156368D01*
X0163219Y0156526D01*
X0163209Y0156684D01*
X0163203Y0156842D01*
X0163201Y0157000D01*
D11*
X0144500Y0089000D03*
D12*
X0144500Y0099000D03*
X0154500Y0099000D03*
X0154500Y0089000D03*
X0164500Y0089000D03*
X0164500Y0099000D03*
X0174500Y0099000D03*
X0174500Y0089000D03*
X0166500Y0070000D03*
X0156500Y0070000D03*
X0146500Y0070000D03*
X0136500Y0070000D03*
X0126500Y0070000D03*
X0116500Y0070000D03*
X0106500Y0070000D03*
X0096500Y0070000D03*
X0086500Y0070000D03*
X0076500Y0070000D03*
X0066500Y0070000D03*
X0056500Y0070000D03*
X0091500Y0060000D03*
X0101500Y0060000D03*
X0096500Y0010000D03*
X0086500Y0010000D03*
X0076500Y0010000D03*
X0066500Y0010000D03*
X0056500Y0010000D03*
X0106500Y0010000D03*
X0116500Y0010000D03*
X0126500Y0010000D03*
X0136500Y0010000D03*
X0146500Y0010000D03*
X0156500Y0010000D03*
X0166500Y0010000D03*
X0166500Y0025000D03*
X0166500Y0035000D03*
X0166500Y0045000D03*
X0166500Y0055000D03*
D13*
X0128300Y0136000D02*
X0122700Y0136000D01*
X0122700Y0146000D02*
X0128300Y0146000D01*
X0128300Y0158000D02*
X0122700Y0158000D01*
X0122700Y0168000D02*
X0128300Y0168000D01*
D14*
X0120500Y0112000D03*
X0144500Y0106500D03*
X0062500Y0115000D03*
X0008500Y0115000D03*
X0008500Y0184000D03*
X0062500Y0184000D03*
D15*
X0120500Y0122000D03*
D16*
X0062500Y0103100D03*
X0051500Y0103100D03*
X0019500Y0103100D03*
X0008500Y0103100D03*
X0008500Y0193100D03*
X0062500Y0193100D03*
D17*
X0079500Y0184000D03*
X0089500Y0184000D03*
X0111500Y0184000D03*
X0121500Y0184000D03*
D18*
X0103500Y0125000D03*
X0103500Y0115000D03*
X0093500Y0115000D03*
X0093500Y0125000D03*
X0083500Y0125000D03*
X0083500Y0115000D03*
X0073500Y0115000D03*
X0073500Y0125000D03*
X0053500Y0092000D03*
X0053500Y0082000D03*
X0043500Y0082000D03*
X0043500Y0092000D03*
X0033500Y0092000D03*
X0033500Y0082000D03*
X0023500Y0082000D03*
X0023500Y0092000D03*
X0024500Y0022000D03*
X0024500Y0012000D03*
X0034500Y0012000D03*
X0034500Y0022000D03*
X0178500Y0063000D03*
X0178500Y0073000D03*
D19*
X0188500Y0073000D03*
X0188500Y0063000D03*
X0188500Y0053000D03*
X0188500Y0043000D03*
X0188500Y0033000D03*
X0188500Y0023000D03*
X0188500Y0013000D03*
X0009500Y0022000D03*
X0009500Y0032000D03*
X0009500Y0042000D03*
X0009500Y0052000D03*
X0009500Y0062000D03*
X0009500Y0072000D03*
X0009500Y0082000D03*
X0009500Y0092000D03*
D20*
X0004300Y0091866D02*
X0003000Y0091866D01*
X0003000Y0090868D02*
X0004341Y0090868D01*
X0004300Y0090966D02*
X0005092Y0089054D01*
X0006554Y0087592D01*
X0007983Y0087000D01*
X0006554Y0086408D01*
X0005092Y0084946D01*
X0004300Y0083034D01*
X0004300Y0080966D01*
X0005092Y0079054D01*
X0006554Y0077592D01*
X0007983Y0077000D01*
X0006554Y0076408D01*
X0005092Y0074946D01*
X0004300Y0073034D01*
X0004300Y0070966D01*
X0005092Y0069054D01*
X0006554Y0067592D01*
X0007983Y0067000D01*
X0006554Y0066408D01*
X0005092Y0064946D01*
X0004300Y0063034D01*
X0004300Y0060966D01*
X0005092Y0059054D01*
X0006554Y0057592D01*
X0007983Y0057000D01*
X0006554Y0056408D01*
X0005092Y0054946D01*
X0004300Y0053034D01*
X0004300Y0050966D01*
X0005092Y0049054D01*
X0006554Y0047592D01*
X0007983Y0047000D01*
X0006554Y0046408D01*
X0005092Y0044946D01*
X0004300Y0043034D01*
X0004300Y0040966D01*
X0005092Y0039054D01*
X0006554Y0037592D01*
X0008017Y0036986D01*
X0007504Y0036819D01*
X0006775Y0036447D01*
X0006112Y0035966D01*
X0005534Y0035388D01*
X0005053Y0034725D01*
X0004681Y0033996D01*
X0004428Y0033218D01*
X0004314Y0032500D01*
X0009000Y0032500D01*
X0009000Y0031500D01*
X0004314Y0031500D01*
X0004428Y0030782D01*
X0004681Y0030004D01*
X0005053Y0029275D01*
X0005534Y0028612D01*
X0006112Y0028034D01*
X0006775Y0027553D01*
X0007504Y0027181D01*
X0008017Y0027014D01*
X0006554Y0026408D01*
X0005092Y0024946D01*
X0004300Y0023034D01*
X0004300Y0020966D01*
X0005092Y0019054D01*
X0006554Y0017592D01*
X0007620Y0017150D01*
X0005888Y0015418D01*
X0004701Y0012551D01*
X0004701Y0009449D01*
X0005888Y0006582D01*
X0008082Y0004388D01*
X0010226Y0003500D01*
X0003000Y0003500D01*
X0003000Y0196500D01*
X0004235Y0196500D01*
X0004228Y0196493D01*
X0004228Y0189707D01*
X0005107Y0188828D01*
X0011893Y0188828D01*
X0012772Y0189707D01*
X0012772Y0196493D01*
X0012765Y0196500D01*
X0058235Y0196500D01*
X0058228Y0196493D01*
X0058228Y0189707D01*
X0059107Y0188828D01*
X0065893Y0188828D01*
X0066772Y0189707D01*
X0066772Y0196493D01*
X0066765Y0196500D01*
X0196000Y0196500D01*
X0196000Y0195680D01*
X0195180Y0196500D01*
X0188938Y0196500D01*
X0188122Y0195684D01*
X0187306Y0196500D01*
X0181064Y0196500D01*
X0180248Y0195684D01*
X0179432Y0196500D01*
X0173190Y0196500D01*
X0172374Y0195684D01*
X0171558Y0196500D01*
X0165316Y0196500D01*
X0164500Y0195684D01*
X0163684Y0196500D01*
X0157442Y0196500D01*
X0156626Y0195684D01*
X0155810Y0196500D01*
X0149568Y0196500D01*
X0148752Y0195684D01*
X0147936Y0196500D01*
X0141694Y0196500D01*
X0140878Y0195684D01*
X0140062Y0196500D01*
X0133820Y0196500D01*
X0132941Y0195621D01*
X0132941Y0184379D01*
X0133820Y0183500D01*
X0134641Y0183500D01*
X0134641Y0180281D01*
X0134539Y0180281D01*
X0133660Y0179402D01*
X0133660Y0174598D01*
X0134252Y0174005D01*
X0131314Y0171067D01*
X0130736Y0171645D01*
X0129155Y0172300D01*
X0121845Y0172300D01*
X0120264Y0171645D01*
X0119055Y0170436D01*
X0118400Y0168855D01*
X0118400Y0167145D01*
X0119055Y0165564D01*
X0120264Y0164355D01*
X0121845Y0163700D01*
X0129155Y0163700D01*
X0130736Y0164355D01*
X0131314Y0164933D01*
X0136200Y0160047D01*
X0136200Y0159062D01*
X0135885Y0158747D01*
X0135416Y0157613D01*
X0135416Y0156386D01*
X0135885Y0155253D01*
X0136753Y0154385D01*
X0137886Y0153916D01*
X0139113Y0153916D01*
X0140247Y0154385D01*
X0141115Y0155253D01*
X0141584Y0156386D01*
X0141584Y0157613D01*
X0141115Y0158747D01*
X0140800Y0159062D01*
X0140800Y0161953D01*
X0139453Y0163300D01*
X0134753Y0168000D01*
X0137894Y0171141D01*
X0139241Y0172488D01*
X0139241Y0173719D01*
X0139343Y0173719D01*
X0140222Y0174598D01*
X0140222Y0179402D01*
X0139343Y0180281D01*
X0139241Y0180281D01*
X0139241Y0183500D01*
X0140062Y0183500D01*
X0140878Y0184316D01*
X0141694Y0183500D01*
X0147936Y0183500D01*
X0148752Y0184316D01*
X0149568Y0183500D01*
X0155810Y0183500D01*
X0156626Y0184316D01*
X0157442Y0183500D01*
X0163684Y0183500D01*
X0164500Y0184316D01*
X0165316Y0183500D01*
X0171558Y0183500D01*
X0172374Y0184316D01*
X0173190Y0183500D01*
X0179432Y0183500D01*
X0180248Y0184316D01*
X0181064Y0183500D01*
X0182185Y0183500D01*
X0182185Y0179513D01*
X0180756Y0178084D01*
X0179886Y0178084D01*
X0178753Y0177615D01*
X0177885Y0176747D01*
X0177416Y0175613D01*
X0177416Y0174386D01*
X0177885Y0173253D01*
X0178753Y0172385D01*
X0179886Y0171916D01*
X0181113Y0171916D01*
X0182247Y0172385D01*
X0183115Y0173253D01*
X0183584Y0174386D01*
X0183584Y0175256D01*
X0186185Y0177857D01*
X0186185Y0183500D01*
X0187306Y0183500D01*
X0188122Y0184316D01*
X0188938Y0183500D01*
X0195180Y0183500D01*
X0196000Y0184320D01*
X0196000Y0119680D01*
X0195180Y0120500D01*
X0188938Y0120500D01*
X0188122Y0119684D01*
X0187306Y0120500D01*
X0181064Y0120500D01*
X0180248Y0119684D01*
X0179432Y0120500D01*
X0173190Y0120500D01*
X0172374Y0119684D01*
X0171558Y0120500D01*
X0165316Y0120500D01*
X0164500Y0119684D01*
X0163684Y0120500D01*
X0157442Y0120500D01*
X0156563Y0119621D01*
X0156563Y0119620D01*
X0156389Y0119921D01*
X0156110Y0120200D01*
X0155768Y0120398D01*
X0155386Y0120500D01*
X0153189Y0120500D01*
X0153189Y0114500D01*
X0152189Y0114500D01*
X0152189Y0120500D01*
X0149991Y0120500D01*
X0149610Y0120398D01*
X0149268Y0120200D01*
X0148989Y0119921D01*
X0148815Y0119620D01*
X0148815Y0119621D01*
X0147936Y0120500D01*
X0141694Y0120500D01*
X0140815Y0119621D01*
X0140815Y0119620D01*
X0140641Y0119921D01*
X0140362Y0120200D01*
X0140020Y0120398D01*
X0139638Y0120500D01*
X0137441Y0120500D01*
X0137441Y0114500D01*
X0136441Y0114500D01*
X0136441Y0120500D01*
X0134243Y0120500D01*
X0133862Y0120398D01*
X0133520Y0120200D01*
X0133241Y0119921D01*
X0133043Y0119579D01*
X0132941Y0119197D01*
X0132941Y0114500D01*
X0136441Y0114500D01*
X0136441Y0113500D01*
X0137441Y0113500D01*
X0137441Y0107500D01*
X0139638Y0107500D01*
X0139850Y0107557D01*
X0139850Y0104574D01*
X0141802Y0102622D01*
X0140712Y0101531D01*
X0140031Y0099889D01*
X0140031Y0098111D01*
X0140712Y0096469D01*
X0141969Y0095212D01*
X0143611Y0094531D01*
X0145389Y0094531D01*
X0147031Y0095212D01*
X0147500Y0095681D01*
X0147500Y0093468D01*
X0144984Y0093468D01*
X0144984Y0089484D01*
X0144016Y0089484D01*
X0144016Y0088516D01*
X0140031Y0088516D01*
X0140031Y0085834D01*
X0140134Y0085453D01*
X0140331Y0085110D01*
X0140557Y0084885D01*
X0140000Y0084328D01*
X0138672Y0083000D01*
X0137500Y0081828D01*
X0137500Y0077672D01*
X0138672Y0076500D01*
X0139500Y0075672D01*
X0140672Y0074500D01*
X0153172Y0074500D01*
X0153926Y0073745D01*
X0152712Y0072531D01*
X0152031Y0070889D01*
X0152031Y0069111D01*
X0152712Y0067469D01*
X0153969Y0066212D01*
X0155611Y0065531D01*
X0157389Y0065531D01*
X0159031Y0066212D01*
X0160288Y0067469D01*
X0160968Y0069111D01*
X0160968Y0070889D01*
X0160288Y0072531D01*
X0159031Y0073788D01*
X0158500Y0074008D01*
X0158500Y0074828D01*
X0156000Y0077328D01*
X0155628Y0077700D01*
X0174547Y0077700D01*
X0175692Y0076556D01*
X0174000Y0074864D01*
X0174000Y0071136D01*
X0176636Y0068500D01*
X0180364Y0068500D01*
X0183000Y0071136D01*
X0183000Y0074864D01*
X0180800Y0077064D01*
X0180800Y0077953D01*
X0179453Y0079300D01*
X0177800Y0080953D01*
X0177753Y0081000D01*
X0189672Y0081000D01*
X0192500Y0078172D01*
X0192500Y0076354D01*
X0191446Y0077408D01*
X0189534Y0078200D01*
X0187466Y0078200D01*
X0185554Y0077408D01*
X0184092Y0075946D01*
X0183300Y0074034D01*
X0183300Y0071966D01*
X0184092Y0070054D01*
X0185554Y0068592D01*
X0186983Y0068000D01*
X0185554Y0067408D01*
X0184092Y0065946D01*
X0183300Y0064034D01*
X0183300Y0061966D01*
X0184092Y0060054D01*
X0185554Y0058592D01*
X0186983Y0058000D01*
X0185554Y0057408D01*
X0184092Y0055946D01*
X0183300Y0054034D01*
X0183300Y0051966D01*
X0184092Y0050054D01*
X0185554Y0048592D01*
X0186983Y0048000D01*
X0185554Y0047408D01*
X0184092Y0045946D01*
X0183300Y0044034D01*
X0183300Y0041966D01*
X0184092Y0040054D01*
X0185554Y0038592D01*
X0186983Y0038000D01*
X0185554Y0037408D01*
X0184092Y0035946D01*
X0183300Y0034034D01*
X0183300Y0031966D01*
X0184092Y0030054D01*
X0185554Y0028592D01*
X0186983Y0028000D01*
X0185554Y0027408D01*
X0184092Y0025946D01*
X0183300Y0024034D01*
X0183300Y0021966D01*
X0184092Y0020054D01*
X0185554Y0018592D01*
X0186983Y0018000D01*
X0185554Y0017408D01*
X0184092Y0015946D01*
X0183300Y0014034D01*
X0183300Y0011966D01*
X0184092Y0010054D01*
X0185554Y0008592D01*
X0186983Y0008000D01*
X0171328Y0008000D01*
X0170748Y0008580D01*
X0170968Y0009111D01*
X0170968Y0010889D01*
X0170288Y0012531D01*
X0169031Y0013788D01*
X0167389Y0014468D01*
X0165611Y0014468D01*
X0163969Y0013788D01*
X0162712Y0012531D01*
X0162031Y0010889D01*
X0162031Y0009111D01*
X0162712Y0007469D01*
X0163969Y0006212D01*
X0165611Y0005531D01*
X0167389Y0005531D01*
X0167920Y0005752D01*
X0169672Y0004000D01*
X0192328Y0004000D01*
X0196000Y0007672D01*
X0196000Y0003500D01*
X0052828Y0003500D01*
X0055080Y0005752D01*
X0055611Y0005531D01*
X0057389Y0005531D01*
X0059031Y0006212D01*
X0060288Y0007469D01*
X0060968Y0009111D01*
X0060968Y0010889D01*
X0060288Y0012531D01*
X0059031Y0013788D01*
X0058520Y0014000D01*
X0062672Y0014000D01*
X0063426Y0013245D01*
X0062712Y0012531D01*
X0062031Y0010889D01*
X0062031Y0009111D01*
X0062712Y0007469D01*
X0063969Y0006212D01*
X0065611Y0005531D01*
X0067389Y0005531D01*
X0069031Y0006212D01*
X0070288Y0007469D01*
X0070968Y0009111D01*
X0070968Y0010889D01*
X0070288Y0012531D01*
X0069031Y0013788D01*
X0068193Y0014135D01*
X0067328Y0015000D01*
X0065500Y0016828D01*
X0064328Y0018000D01*
X0037672Y0018000D01*
X0036172Y0016500D01*
X0032636Y0016500D01*
X0030000Y0013864D01*
X0030000Y0010136D01*
X0032636Y0007500D01*
X0036364Y0007500D01*
X0039000Y0010136D01*
X0039000Y0013672D01*
X0039328Y0014000D01*
X0054480Y0014000D01*
X0053969Y0013788D01*
X0052712Y0012531D01*
X0052031Y0010889D01*
X0052031Y0009111D01*
X0052252Y0008580D01*
X0050672Y0007000D01*
X0032328Y0007000D01*
X0029000Y0010328D01*
X0029000Y0013864D01*
X0026364Y0016500D01*
X0022636Y0016500D01*
X0020000Y0013864D01*
X0020000Y0013274D01*
X0019112Y0015418D01*
X0016918Y0017612D01*
X0014051Y0018799D01*
X0013653Y0018799D01*
X0013908Y0019054D01*
X0014176Y0019700D01*
X0014453Y0019700D01*
X0015800Y0021047D01*
X0020453Y0025700D01*
X0021800Y0027047D01*
X0021800Y0069953D01*
X0020453Y0071300D01*
X0018800Y0072953D01*
X0018800Y0094923D01*
X0020333Y0096200D01*
X0021200Y0096200D01*
X0021200Y0096064D01*
X0019000Y0093864D01*
X0019000Y0090136D01*
X0021200Y0087936D01*
X0021200Y0086064D01*
X0019000Y0083864D01*
X0019000Y0080136D01*
X0021636Y0077500D01*
X0025364Y0077500D01*
X0028000Y0080136D01*
X0028000Y0083864D01*
X0025800Y0086064D01*
X0025800Y0087936D01*
X0028000Y0090136D01*
X0028000Y0093864D01*
X0025800Y0096064D01*
X0025800Y0096200D01*
X0031336Y0096200D01*
X0029000Y0093864D01*
X0029000Y0092500D01*
X0033000Y0092500D01*
X0033000Y0091500D01*
X0034000Y0091500D01*
X0034000Y0092500D01*
X0038000Y0092500D01*
X0038000Y0093864D01*
X0035664Y0096200D01*
X0041336Y0096200D01*
X0039000Y0093864D01*
X0039000Y0090136D01*
X0041500Y0087636D01*
X0041500Y0086364D01*
X0039000Y0083864D01*
X0039000Y0080136D01*
X0041500Y0077636D01*
X0041500Y0062362D01*
X0040885Y0061747D01*
X0040416Y0060613D01*
X0040416Y0059386D01*
X0040885Y0058253D01*
X0041753Y0057385D01*
X0042886Y0056916D01*
X0044113Y0056916D01*
X0045247Y0057385D01*
X0045862Y0058000D01*
X0087492Y0058000D01*
X0087712Y0057469D01*
X0088969Y0056212D01*
X0090611Y0055531D01*
X0092389Y0055531D01*
X0092920Y0055752D01*
X0095500Y0053172D01*
X0096672Y0052000D01*
X0154672Y0052000D01*
X0159500Y0047172D01*
X0159500Y0045000D01*
X0153422Y0045000D01*
X0152250Y0043828D01*
X0152250Y0043800D01*
X0150750Y0043800D01*
X0150750Y0043828D01*
X0149578Y0045000D01*
X0143422Y0045000D01*
X0142250Y0043828D01*
X0142250Y0043800D01*
X0140750Y0043800D01*
X0140750Y0043828D01*
X0139578Y0045000D01*
X0133422Y0045000D01*
X0132250Y0043828D01*
X0132250Y0043800D01*
X0130750Y0043800D01*
X0130750Y0043828D01*
X0129578Y0045000D01*
X0123422Y0045000D01*
X0122250Y0043828D01*
X0122250Y0043800D01*
X0120750Y0043800D01*
X0120750Y0043828D01*
X0119578Y0045000D01*
X0113422Y0045000D01*
X0112250Y0043828D01*
X0112250Y0043800D01*
X0110750Y0043800D01*
X0110750Y0043828D01*
X0109578Y0045000D01*
X0103422Y0045000D01*
X0102250Y0043828D01*
X0102250Y0043800D01*
X0099750Y0043800D01*
X0099750Y0043828D01*
X0098578Y0045000D01*
X0098424Y0045000D01*
X0098584Y0045386D01*
X0098584Y0046613D01*
X0098115Y0047747D01*
X0097247Y0048615D01*
X0096113Y0049084D01*
X0094886Y0049084D01*
X0093753Y0048615D01*
X0092885Y0047747D01*
X0092416Y0046613D01*
X0092416Y0045386D01*
X0092576Y0045000D01*
X0092422Y0045000D01*
X0091250Y0043828D01*
X0091250Y0039172D01*
X0092422Y0038000D01*
X0091250Y0036828D01*
X0091250Y0032172D01*
X0092422Y0031000D01*
X0093500Y0031000D01*
X0093500Y0022172D01*
X0094500Y0021172D01*
X0094500Y0014008D01*
X0093969Y0013788D01*
X0092712Y0012531D01*
X0092031Y0010889D01*
X0092031Y0009111D01*
X0092712Y0007469D01*
X0093969Y0006212D01*
X0095611Y0005531D01*
X0097389Y0005531D01*
X0099031Y0006212D01*
X0100288Y0007469D01*
X0100968Y0009111D01*
X0100968Y0010889D01*
X0100288Y0012531D01*
X0099031Y0013788D01*
X0098500Y0014008D01*
X0098500Y0022828D01*
X0097500Y0023828D01*
X0097500Y0031000D01*
X0098578Y0031000D01*
X0099578Y0032000D01*
X0101328Y0032000D01*
X0102250Y0032922D01*
X0102250Y0032172D01*
X0103422Y0031000D01*
X0103576Y0031000D01*
X0103416Y0030613D01*
X0103416Y0029386D01*
X0103885Y0028253D01*
X0104500Y0027638D01*
X0104500Y0014008D01*
X0103969Y0013788D01*
X0102712Y0012531D01*
X0102031Y0010889D01*
X0102031Y0009111D01*
X0102712Y0007469D01*
X0103969Y0006212D01*
X0105611Y0005531D01*
X0107389Y0005531D01*
X0109031Y0006212D01*
X0110288Y0007469D01*
X0110968Y0009111D01*
X0110968Y0010889D01*
X0110288Y0012531D01*
X0109031Y0013788D01*
X0108500Y0014008D01*
X0108500Y0027638D01*
X0109115Y0028253D01*
X0109584Y0029386D01*
X0109584Y0030613D01*
X0109424Y0031000D01*
X0109578Y0031000D01*
X0110750Y0032172D01*
X0110750Y0036828D01*
X0109578Y0038000D01*
X0110750Y0039172D01*
X0110750Y0039200D01*
X0112250Y0039200D01*
X0112250Y0039172D01*
X0113422Y0038000D01*
X0112250Y0036828D01*
X0112250Y0032172D01*
X0113422Y0031000D01*
X0114500Y0031000D01*
X0114500Y0028362D01*
X0113885Y0027747D01*
X0113416Y0026613D01*
X0113416Y0025386D01*
X0113885Y0024253D01*
X0114500Y0023638D01*
X0114500Y0014008D01*
X0113969Y0013788D01*
X0112712Y0012531D01*
X0112031Y0010889D01*
X0112031Y0009111D01*
X0112712Y0007469D01*
X0113969Y0006212D01*
X0115611Y0005531D01*
X0117389Y0005531D01*
X0119031Y0006212D01*
X0120288Y0007469D01*
X0120968Y0009111D01*
X0120968Y0010889D01*
X0120288Y0012531D01*
X0119031Y0013788D01*
X0118500Y0014008D01*
X0118500Y0023638D01*
X0119115Y0024253D01*
X0119584Y0025386D01*
X0119584Y0026613D01*
X0119115Y0027747D01*
X0118500Y0028362D01*
X0118500Y0031000D01*
X0119578Y0031000D01*
X0120750Y0032172D01*
X0120750Y0036828D01*
X0119578Y0038000D01*
X0113422Y0038000D01*
X0119578Y0038000D01*
X0120750Y0039172D01*
X0120750Y0039200D01*
X0122250Y0039200D01*
X0122250Y0039172D01*
X0123422Y0038000D01*
X0122250Y0036828D01*
X0122250Y0032172D01*
X0123422Y0031000D01*
X0124500Y0031000D01*
X0124500Y0025362D01*
X0123885Y0024747D01*
X0123416Y0023613D01*
X0123416Y0022386D01*
X0123885Y0021253D01*
X0124500Y0020638D01*
X0124500Y0014008D01*
X0123969Y0013788D01*
X0122712Y0012531D01*
X0122031Y0010889D01*
X0122031Y0009111D01*
X0122712Y0007469D01*
X0123969Y0006212D01*
X0125611Y0005531D01*
X0127389Y0005531D01*
X0129031Y0006212D01*
X0130288Y0007469D01*
X0130968Y0009111D01*
X0130968Y0010889D01*
X0130288Y0012531D01*
X0129031Y0013788D01*
X0128500Y0014008D01*
X0128500Y0020638D01*
X0129115Y0021253D01*
X0129584Y0022386D01*
X0129584Y0023613D01*
X0129115Y0024747D01*
X0128500Y0025362D01*
X0128500Y0031000D01*
X0129578Y0031000D01*
X0130750Y0032172D01*
X0130750Y0036828D01*
X0129578Y0038000D01*
X0123422Y0038000D01*
X0129578Y0038000D01*
X0130750Y0039172D01*
X0130750Y0039200D01*
X0132250Y0039200D01*
X0132250Y0039172D01*
X0133422Y0038000D01*
X0132250Y0036828D01*
X0132250Y0032172D01*
X0133422Y0031000D01*
X0134500Y0031000D01*
X0134500Y0022362D01*
X0133885Y0021747D01*
X0133416Y0020613D01*
X0133416Y0019386D01*
X0133885Y0018253D01*
X0134500Y0017638D01*
X0134500Y0014008D01*
X0133969Y0013788D01*
X0132712Y0012531D01*
X0132031Y0010889D01*
X0132031Y0009111D01*
X0132712Y0007469D01*
X0133969Y0006212D01*
X0135611Y0005531D01*
X0137389Y0005531D01*
X0139031Y0006212D01*
X0140288Y0007469D01*
X0140968Y0009111D01*
X0140968Y0010889D01*
X0140288Y0012531D01*
X0139031Y0013788D01*
X0138500Y0014008D01*
X0138500Y0017638D01*
X0139115Y0018253D01*
X0139584Y0019386D01*
X0139584Y0020613D01*
X0139115Y0021747D01*
X0138500Y0022362D01*
X0138500Y0031000D01*
X0139578Y0031000D01*
X0140750Y0032172D01*
X0140750Y0036828D01*
X0139578Y0038000D01*
X0133422Y0038000D01*
X0139578Y0038000D01*
X0140750Y0039172D01*
X0140750Y0039200D01*
X0142250Y0039200D01*
X0142250Y0039172D01*
X0143422Y0038000D01*
X0142250Y0036828D01*
X0142250Y0032172D01*
X0143422Y0031000D01*
X0144500Y0031000D01*
X0144500Y0019362D01*
X0143885Y0018747D01*
X0143416Y0017613D01*
X0143416Y0016386D01*
X0143885Y0015253D01*
X0144500Y0014638D01*
X0144500Y0014008D01*
X0143969Y0013788D01*
X0142712Y0012531D01*
X0142031Y0010889D01*
X0142031Y0009111D01*
X0142712Y0007469D01*
X0143969Y0006212D01*
X0145611Y0005531D01*
X0147389Y0005531D01*
X0149031Y0006212D01*
X0150288Y0007469D01*
X0150968Y0009111D01*
X0150968Y0010889D01*
X0150288Y0012531D01*
X0149031Y0013788D01*
X0148500Y0014008D01*
X0148500Y0014638D01*
X0149115Y0015253D01*
X0149584Y0016386D01*
X0149584Y0017613D01*
X0149115Y0018747D01*
X0148500Y0019362D01*
X0148500Y0031000D01*
X0149578Y0031000D01*
X0150750Y0032172D01*
X0150750Y0036828D01*
X0149578Y0038000D01*
X0143422Y0038000D01*
X0149578Y0038000D01*
X0150750Y0039172D01*
X0150750Y0039200D01*
X0152250Y0039200D01*
X0152250Y0039172D01*
X0153422Y0038000D01*
X0152250Y0036828D01*
X0152250Y0032172D01*
X0153422Y0031000D01*
X0154500Y0031000D01*
X0154500Y0016862D01*
X0153885Y0016247D01*
X0153416Y0015113D01*
X0153416Y0013886D01*
X0153607Y0013426D01*
X0152712Y0012531D01*
X0152031Y0010889D01*
X0152031Y0009111D01*
X0152712Y0007469D01*
X0153969Y0006212D01*
X0155611Y0005531D01*
X0157389Y0005531D01*
X0159031Y0006212D01*
X0160288Y0007469D01*
X0160968Y0009111D01*
X0160968Y0010889D01*
X0160288Y0012531D01*
X0159393Y0013426D01*
X0159584Y0013886D01*
X0159584Y0015113D01*
X0159115Y0016247D01*
X0158500Y0016862D01*
X0158500Y0031000D01*
X0159578Y0031000D01*
X0160750Y0032172D01*
X0160750Y0036828D01*
X0159578Y0038000D01*
X0153422Y0038000D01*
X0159578Y0038000D01*
X0160125Y0038547D01*
X0162252Y0036420D01*
X0162031Y0035889D01*
X0162031Y0034111D01*
X0162712Y0032469D01*
X0163969Y0031212D01*
X0165611Y0030531D01*
X0167389Y0030531D01*
X0169031Y0031212D01*
X0170288Y0032469D01*
X0170968Y0034111D01*
X0170968Y0035889D01*
X0170288Y0037531D01*
X0169031Y0038788D01*
X0167389Y0039468D01*
X0165611Y0039468D01*
X0165080Y0039248D01*
X0163500Y0040828D01*
X0163500Y0041681D01*
X0163969Y0041212D01*
X0165611Y0040531D01*
X0167389Y0040531D01*
X0169031Y0041212D01*
X0170288Y0042469D01*
X0170968Y0044111D01*
X0170968Y0045889D01*
X0170288Y0047531D01*
X0169031Y0048788D01*
X0167389Y0049468D01*
X0165611Y0049468D01*
X0163969Y0048788D01*
X0163500Y0048319D01*
X0163500Y0048828D01*
X0162328Y0050000D01*
X0156328Y0056000D01*
X0103520Y0056000D01*
X0104031Y0056212D01*
X0105288Y0057469D01*
X0105508Y0058000D01*
X0163181Y0058000D01*
X0162712Y0057531D01*
X0162031Y0055889D01*
X0162031Y0054111D01*
X0162712Y0052469D01*
X0163969Y0051212D01*
X0165611Y0050531D01*
X0167389Y0050531D01*
X0169031Y0051212D01*
X0170288Y0052469D01*
X0170968Y0054111D01*
X0170968Y0055889D01*
X0170393Y0057279D01*
X0172500Y0055172D01*
X0172500Y0029828D01*
X0170245Y0027574D01*
X0169031Y0028788D01*
X0167389Y0029468D01*
X0165611Y0029468D01*
X0163969Y0028788D01*
X0162712Y0027531D01*
X0162031Y0025889D01*
X0162031Y0024111D01*
X0162712Y0022469D01*
X0163969Y0021212D01*
X0165611Y0020531D01*
X0167389Y0020531D01*
X0169031Y0021212D01*
X0170288Y0022469D01*
X0170508Y0023000D01*
X0171328Y0023000D01*
X0172500Y0024172D01*
X0176500Y0028172D01*
X0176500Y0056828D01*
X0175328Y0058000D01*
X0171328Y0062000D01*
X0105508Y0062000D01*
X0105288Y0062531D01*
X0104031Y0063788D01*
X0102389Y0064468D01*
X0100611Y0064468D01*
X0100120Y0064265D01*
X0098500Y0065917D01*
X0098500Y0065928D01*
X0098455Y0065973D01*
X0099031Y0066212D01*
X0100288Y0067469D01*
X0100968Y0069111D01*
X0100968Y0070889D01*
X0100288Y0072531D01*
X0099031Y0073788D01*
X0098500Y0074008D01*
X0098500Y0075828D01*
X0097328Y0077000D01*
X0092328Y0082000D01*
X0093578Y0082000D01*
X0094750Y0083172D01*
X0094750Y0083500D01*
X0095250Y0083500D01*
X0095250Y0083172D01*
X0096422Y0082000D01*
X0097500Y0082000D01*
X0097500Y0081172D01*
X0098672Y0080000D01*
X0100500Y0078172D01*
X0100500Y0078172D01*
X0101672Y0077000D01*
X0112672Y0077000D01*
X0114500Y0075172D01*
X0114500Y0074008D01*
X0113969Y0073788D01*
X0112712Y0072531D01*
X0112031Y0070889D01*
X0112031Y0069111D01*
X0112712Y0067469D01*
X0113969Y0066212D01*
X0115611Y0065531D01*
X0117389Y0065531D01*
X0119031Y0066212D01*
X0120288Y0067469D01*
X0120968Y0069111D01*
X0120968Y0070889D01*
X0120288Y0072531D01*
X0119031Y0073788D01*
X0118500Y0074008D01*
X0118500Y0076828D01*
X0114328Y0081000D01*
X0103328Y0081000D01*
X0102328Y0082000D01*
X0102578Y0082000D01*
X0103750Y0083172D01*
X0103750Y0087828D01*
X0102578Y0089000D01*
X0103750Y0090172D01*
X0103750Y0094828D01*
X0102578Y0096000D01*
X0101800Y0096000D01*
X0101800Y0101200D01*
X0128047Y0101200D01*
X0131200Y0098047D01*
X0131200Y0096000D01*
X0130422Y0096000D01*
X0129250Y0094828D01*
X0129250Y0090172D01*
X0130422Y0089000D01*
X0129250Y0087828D01*
X0129250Y0087500D01*
X0128750Y0087500D01*
X0128750Y0087828D01*
X0127578Y0089000D01*
X0121422Y0089000D01*
X0120907Y0088486D01*
X0120393Y0089000D01*
X0120653Y0089260D01*
X0120839Y0089582D01*
X0121022Y0089400D01*
X0121478Y0089136D01*
X0121987Y0089000D01*
X0124000Y0089000D01*
X0124000Y0092000D01*
X0125000Y0092000D01*
X0125000Y0093000D01*
X0124000Y0093000D01*
X0124000Y0096000D01*
X0121987Y0096000D01*
X0121478Y0095864D01*
X0121022Y0095600D01*
X0120945Y0095524D01*
X0120851Y0095878D01*
X0120653Y0096220D01*
X0120374Y0096499D01*
X0120032Y0096697D01*
X0119650Y0096799D01*
X0117000Y0096799D01*
X0117000Y0093240D01*
X0120250Y0093240D01*
X0120250Y0093000D01*
X0124000Y0093000D01*
X0124000Y0092000D01*
X0120953Y0092000D01*
X0120953Y0092240D01*
X0117000Y0092240D01*
X0117000Y0093240D01*
X0116000Y0093240D01*
X0116000Y0096799D01*
X0113350Y0096799D01*
X0112968Y0096697D01*
X0112626Y0096499D01*
X0112347Y0096220D01*
X0112149Y0095878D01*
X0112055Y0095524D01*
X0111578Y0096000D01*
X0110862Y0096000D01*
X0111115Y0096253D01*
X0111584Y0097386D01*
X0111584Y0098613D01*
X0111115Y0099747D01*
X0110247Y0100615D01*
X0109113Y0101084D01*
X0107886Y0101084D01*
X0106753Y0100615D01*
X0105885Y0099747D01*
X0105416Y0098613D01*
X0105416Y0097386D01*
X0105885Y0096253D01*
X0106138Y0096000D01*
X0105422Y0096000D01*
X0104250Y0094828D01*
X0104250Y0090172D01*
X0105422Y0089000D01*
X0104250Y0087828D01*
X0104250Y0083172D01*
X0105422Y0082000D01*
X0111578Y0082000D01*
X0112047Y0082469D01*
X0112047Y0082079D01*
X0112926Y0081201D01*
X0120074Y0081201D01*
X0120953Y0082079D01*
X0120953Y0082469D01*
X0121422Y0082000D01*
X0127578Y0082000D01*
X0128750Y0083172D01*
X0128750Y0083500D01*
X0129250Y0083500D01*
X0129250Y0083172D01*
X0130422Y0082000D01*
X0131500Y0082000D01*
X0131500Y0081828D01*
X0125672Y0076000D01*
X0124500Y0074828D01*
X0124500Y0074008D01*
X0123969Y0073788D01*
X0122712Y0072531D01*
X0122031Y0070889D01*
X0122031Y0069111D01*
X0122712Y0067469D01*
X0123969Y0066212D01*
X0125611Y0065531D01*
X0127389Y0065531D01*
X0129031Y0066212D01*
X0130288Y0067469D01*
X0130968Y0069111D01*
X0130968Y0070889D01*
X0130288Y0072531D01*
X0129074Y0073745D01*
X0135500Y0080172D01*
X0135500Y0082000D01*
X0136578Y0082000D01*
X0137750Y0083172D01*
X0137750Y0087828D01*
X0136578Y0089000D01*
X0130422Y0089000D01*
X0136578Y0089000D01*
X0137750Y0090172D01*
X0137750Y0094828D01*
X0136578Y0096000D01*
X0135800Y0096000D01*
X0135800Y0099953D01*
X0129953Y0105800D01*
X0113953Y0105800D01*
X0112800Y0106953D01*
X0112800Y0127047D01*
X0113453Y0127700D01*
X0122947Y0127700D01*
X0122200Y0126953D01*
X0121759Y0126512D01*
X0121425Y0126650D01*
X0119575Y0126650D01*
X0117866Y0125942D01*
X0116558Y0124634D01*
X0115850Y0122925D01*
X0115850Y0121075D01*
X0116558Y0119366D01*
X0117866Y0118058D01*
X0119575Y0117350D01*
X0121425Y0117350D01*
X0123134Y0118058D01*
X0124442Y0119366D01*
X0125150Y0121075D01*
X0125150Y0122925D01*
X0125012Y0123259D01*
X0125453Y0123700D01*
X0141701Y0123700D01*
X0141701Y0121926D01*
X0142579Y0121047D01*
X0148940Y0121047D01*
X0149500Y0121607D01*
X0149760Y0121347D01*
X0150102Y0121149D01*
X0150484Y0121047D01*
X0152740Y0121047D01*
X0152740Y0125000D01*
X0153740Y0125000D01*
X0153740Y0121047D01*
X0155997Y0121047D01*
X0156378Y0121149D01*
X0156720Y0121347D01*
X0156999Y0121626D01*
X0157197Y0121968D01*
X0157299Y0122350D01*
X0157299Y0125000D01*
X0153740Y0125000D01*
X0153740Y0126000D01*
X0152740Y0126000D01*
X0152740Y0129953D01*
X0150484Y0129953D01*
X0150102Y0129851D01*
X0149760Y0129653D01*
X0149500Y0129393D01*
X0148940Y0129953D01*
X0142579Y0129953D01*
X0141701Y0129074D01*
X0141701Y0128300D01*
X0141548Y0128300D01*
X0141584Y0128386D01*
X0141584Y0129613D01*
X0141115Y0130747D01*
X0140247Y0131615D01*
X0139113Y0132084D01*
X0137886Y0132084D01*
X0136753Y0131615D01*
X0135885Y0130747D01*
X0135416Y0129613D01*
X0135416Y0128386D01*
X0135452Y0128300D01*
X0132053Y0128300D01*
X0134453Y0130700D01*
X0135800Y0132047D01*
X0135800Y0142953D01*
X0132600Y0146153D01*
X0132600Y0146855D01*
X0131945Y0148436D01*
X0130736Y0149645D01*
X0129155Y0150300D01*
X0121845Y0150300D01*
X0120264Y0149645D01*
X0119800Y0149181D01*
X0119800Y0153047D01*
X0120860Y0154108D01*
X0121845Y0153700D01*
X0129155Y0153700D01*
X0130736Y0154355D01*
X0131945Y0155564D01*
X0132600Y0157145D01*
X0132600Y0158855D01*
X0131945Y0160436D01*
X0130736Y0161645D01*
X0129155Y0162300D01*
X0121845Y0162300D01*
X0120264Y0161645D01*
X0119055Y0160436D01*
X0118400Y0158855D01*
X0118400Y0158153D01*
X0116547Y0156300D01*
X0115200Y0154953D01*
X0115200Y0139047D01*
X0118400Y0135847D01*
X0118400Y0135145D01*
X0119055Y0133564D01*
X0120264Y0132355D01*
X0120396Y0132300D01*
X0111453Y0132300D01*
X0108453Y0135300D01*
X0072453Y0135300D01*
X0068800Y0138953D01*
X0068800Y0146047D01*
X0071453Y0148700D01*
X0072047Y0148700D01*
X0072047Y0147560D01*
X0072607Y0147000D01*
X0072347Y0146740D01*
X0072149Y0146398D01*
X0072047Y0146016D01*
X0072047Y0143760D01*
X0076000Y0143760D01*
X0076000Y0142760D01*
X0072047Y0142760D01*
X0072047Y0140503D01*
X0072149Y0140122D01*
X0072347Y0139780D01*
X0072626Y0139500D01*
X0072968Y0139303D01*
X0073350Y0139201D01*
X0076000Y0139201D01*
X0076000Y0142760D01*
X0077000Y0142760D01*
X0077000Y0143760D01*
X0080953Y0143760D01*
X0080953Y0146016D01*
X0080851Y0146398D01*
X0080653Y0146740D01*
X0080393Y0147000D01*
X0080953Y0147560D01*
X0080953Y0153921D01*
X0080173Y0154700D01*
X0084669Y0154700D01*
X0084669Y0149588D01*
X0085557Y0147445D01*
X0086349Y0146654D01*
X0085083Y0146654D01*
X0085083Y0142685D01*
X0084114Y0142685D01*
X0084114Y0141717D01*
X0081130Y0141717D01*
X0081130Y0139051D01*
X0081232Y0138669D01*
X0081430Y0138327D01*
X0081709Y0138048D01*
X0082051Y0137850D01*
X0082432Y0137748D01*
X0084114Y0137748D01*
X0084114Y0141716D01*
X0085083Y0141716D01*
X0085083Y0137748D01*
X0086764Y0137748D01*
X0087146Y0137850D01*
X0087488Y0138048D01*
X0087557Y0138117D01*
X0087910Y0137764D01*
X0093090Y0137764D01*
X0093443Y0138117D01*
X0093812Y0137748D01*
X0098991Y0137748D01*
X0099870Y0138627D01*
X0099870Y0145775D01*
X0099699Y0145946D01*
X0100149Y0146396D01*
X0100047Y0146016D01*
X0100047Y0143760D01*
X0104000Y0143760D01*
X0104000Y0142760D01*
X0100047Y0142760D01*
X0100047Y0140503D01*
X0100149Y0140122D01*
X0100347Y0139780D01*
X0100626Y0139500D01*
X0100968Y0139303D01*
X0101350Y0139201D01*
X0104000Y0139201D01*
X0104000Y0142760D01*
X0105000Y0142760D01*
X0105000Y0143760D01*
X0108953Y0143760D01*
X0108953Y0146016D01*
X0108851Y0146398D01*
X0108653Y0146740D01*
X0108393Y0147000D01*
X0108953Y0147560D01*
X0108953Y0153921D01*
X0108074Y0154799D01*
X0106800Y0154799D01*
X0106800Y0161047D01*
X0108300Y0162547D01*
X0108300Y0162547D01*
X0110668Y0164916D01*
X0111113Y0164916D01*
X0112247Y0165385D01*
X0113115Y0166253D01*
X0113584Y0167386D01*
X0113584Y0168613D01*
X0113115Y0169747D01*
X0112247Y0170615D01*
X0111113Y0171084D01*
X0109886Y0171084D01*
X0108753Y0170615D01*
X0107885Y0169747D01*
X0107416Y0168613D01*
X0107416Y0168168D01*
X0105047Y0165800D01*
X0069547Y0165800D01*
X0068200Y0164453D01*
X0068200Y0164453D01*
X0056547Y0152800D01*
X0055200Y0151453D01*
X0055200Y0128047D01*
X0059200Y0124047D01*
X0060547Y0122700D01*
X0069436Y0122700D01*
X0071200Y0120936D01*
X0071200Y0119064D01*
X0069000Y0116864D01*
X0069000Y0113136D01*
X0070692Y0111444D01*
X0070547Y0111300D01*
X0065376Y0111300D01*
X0067150Y0113074D01*
X0067150Y0116926D01*
X0064426Y0119650D01*
X0060574Y0119650D01*
X0057850Y0116926D01*
X0057850Y0113074D01*
X0059624Y0111300D01*
X0057547Y0111300D01*
X0055547Y0109300D01*
X0054200Y0107953D01*
X0054200Y0107372D01*
X0048107Y0107372D01*
X0047228Y0106493D01*
X0047228Y0100800D01*
X0023772Y0100800D01*
X0023772Y0106493D01*
X0022893Y0107372D01*
X0021800Y0107372D01*
X0021800Y0161547D01*
X0029953Y0169700D01*
X0075453Y0169700D01*
X0076800Y0171047D01*
X0080453Y0174700D01*
X0081800Y0176047D01*
X0081800Y0180082D01*
X0082049Y0180185D01*
X0083315Y0181451D01*
X0084000Y0183105D01*
X0084000Y0184895D01*
X0083315Y0186549D01*
X0082049Y0187815D01*
X0080395Y0188500D01*
X0078605Y0188500D01*
X0076951Y0187815D01*
X0075685Y0186549D01*
X0075000Y0184895D01*
X0075000Y0183105D01*
X0075685Y0181451D01*
X0076951Y0180185D01*
X0077200Y0180082D01*
X0077200Y0177953D01*
X0073547Y0174300D01*
X0028047Y0174300D01*
X0018547Y0164800D01*
X0017200Y0163453D01*
X0017200Y0117300D01*
X0012776Y0117300D01*
X0010426Y0119650D01*
X0006574Y0119650D01*
X0003850Y0116926D01*
X0003850Y0113074D01*
X0006574Y0110350D01*
X0010426Y0110350D01*
X0012776Y0112700D01*
X0017200Y0112700D01*
X0017200Y0107372D01*
X0016107Y0107372D01*
X0015228Y0106493D01*
X0015228Y0099707D01*
X0016107Y0098828D01*
X0016301Y0098828D01*
X0015667Y0098300D01*
X0015547Y0098300D01*
X0014947Y0097700D01*
X0014296Y0097157D01*
X0014285Y0097038D01*
X0014200Y0096953D01*
X0014200Y0096104D01*
X0014123Y0095259D01*
X0014200Y0095167D01*
X0014200Y0094241D01*
X0013908Y0094946D01*
X0012446Y0096408D01*
X0010534Y0097200D01*
X0008466Y0097200D01*
X0006554Y0096408D01*
X0005092Y0094946D01*
X0004300Y0093034D01*
X0004300Y0090966D01*
X0004754Y0089869D02*
X0003000Y0089869D01*
X0003000Y0088870D02*
X0005276Y0088870D01*
X0006274Y0087872D02*
X0003000Y0087872D01*
X0003000Y0086873D02*
X0007677Y0086873D01*
X0006021Y0085875D02*
X0003000Y0085875D01*
X0003000Y0084876D02*
X0005063Y0084876D01*
X0004649Y0083878D02*
X0003000Y0083878D01*
X0003000Y0082879D02*
X0004300Y0082879D01*
X0004300Y0081881D02*
X0003000Y0081881D01*
X0003000Y0080882D02*
X0004334Y0080882D01*
X0004748Y0079884D02*
X0003000Y0079884D01*
X0003000Y0078885D02*
X0005261Y0078885D01*
X0006259Y0077887D02*
X0003000Y0077887D01*
X0003000Y0076888D02*
X0007713Y0076888D01*
X0006036Y0075890D02*
X0003000Y0075890D01*
X0003000Y0074891D02*
X0005069Y0074891D01*
X0004656Y0073893D02*
X0003000Y0073893D01*
X0003000Y0072894D02*
X0004300Y0072894D01*
X0004300Y0071896D02*
X0003000Y0071896D01*
X0003000Y0070897D02*
X0004328Y0070897D01*
X0004742Y0069899D02*
X0003000Y0069899D01*
X0003000Y0068900D02*
X0005246Y0068900D01*
X0006244Y0067902D02*
X0003000Y0067902D01*
X0003000Y0066903D02*
X0007749Y0066903D01*
X0006051Y0065905D02*
X0003000Y0065905D01*
X0003000Y0064906D02*
X0005075Y0064906D01*
X0004662Y0063908D02*
X0003000Y0063908D01*
X0003000Y0062909D02*
X0004300Y0062909D01*
X0004300Y0061911D02*
X0003000Y0061911D01*
X0003000Y0060912D02*
X0004322Y0060912D01*
X0004736Y0059914D02*
X0003000Y0059914D01*
X0003000Y0058915D02*
X0005231Y0058915D01*
X0006229Y0057917D02*
X0003000Y0057917D01*
X0003000Y0056918D02*
X0007785Y0056918D01*
X0006066Y0055920D02*
X0003000Y0055920D01*
X0003000Y0054921D02*
X0005082Y0054921D01*
X0004668Y0053923D02*
X0003000Y0053923D01*
X0003000Y0052924D02*
X0004300Y0052924D01*
X0004300Y0051926D02*
X0003000Y0051926D01*
X0003000Y0050927D02*
X0004316Y0050927D01*
X0004730Y0049929D02*
X0003000Y0049929D01*
X0003000Y0048930D02*
X0005216Y0048930D01*
X0006215Y0047932D02*
X0003000Y0047932D01*
X0003000Y0046933D02*
X0007821Y0046933D01*
X0006081Y0045934D02*
X0003000Y0045934D01*
X0003000Y0044936D02*
X0005088Y0044936D01*
X0004674Y0043937D02*
X0003000Y0043937D01*
X0003000Y0042939D02*
X0004300Y0042939D01*
X0004300Y0041940D02*
X0003000Y0041940D01*
X0003000Y0040942D02*
X0004310Y0040942D01*
X0004723Y0039943D02*
X0003000Y0039943D01*
X0003000Y0038945D02*
X0005201Y0038945D01*
X0006200Y0037946D02*
X0003000Y0037946D01*
X0003000Y0036948D02*
X0007901Y0036948D01*
X0006095Y0035949D02*
X0003000Y0035949D01*
X0003000Y0034951D02*
X0005216Y0034951D01*
X0004667Y0033952D02*
X0003000Y0033952D01*
X0003000Y0032954D02*
X0004386Y0032954D01*
X0003000Y0031955D02*
X0009000Y0031955D01*
X0010000Y0031955D02*
X0017200Y0031955D01*
X0017200Y0030957D02*
X0014600Y0030957D01*
X0014572Y0030782D02*
X0014686Y0031500D01*
X0010000Y0031500D01*
X0010000Y0032500D01*
X0014686Y0032500D01*
X0014572Y0033218D01*
X0014319Y0033996D01*
X0013947Y0034725D01*
X0013466Y0035388D01*
X0012888Y0035966D01*
X0012225Y0036447D01*
X0011496Y0036819D01*
X0010983Y0036986D01*
X0012446Y0037592D01*
X0013908Y0039054D01*
X0014700Y0040966D01*
X0014700Y0043034D01*
X0013908Y0044946D01*
X0012446Y0046408D01*
X0011017Y0047000D01*
X0012446Y0047592D01*
X0013908Y0049054D01*
X0014700Y0050966D01*
X0014700Y0053034D01*
X0013908Y0054946D01*
X0012446Y0056408D01*
X0011017Y0057000D01*
X0012446Y0057592D01*
X0013908Y0059054D01*
X0014700Y0060966D01*
X0014700Y0063034D01*
X0013908Y0064946D01*
X0012446Y0066408D01*
X0011017Y0067000D01*
X0012446Y0067592D01*
X0013908Y0069054D01*
X0014577Y0070670D01*
X0017200Y0068047D01*
X0017200Y0028953D01*
X0013551Y0025303D01*
X0012446Y0026408D01*
X0010983Y0027014D01*
X0011496Y0027181D01*
X0012225Y0027553D01*
X0012888Y0028034D01*
X0013466Y0028612D01*
X0013947Y0029275D01*
X0014319Y0030004D01*
X0014572Y0030782D01*
X0014296Y0029958D02*
X0017200Y0029958D01*
X0017200Y0028960D02*
X0013719Y0028960D01*
X0012788Y0027961D02*
X0016209Y0027961D01*
X0015210Y0026963D02*
X0011107Y0026963D01*
X0012890Y0025964D02*
X0014212Y0025964D01*
X0017721Y0022969D02*
X0020000Y0022969D01*
X0020000Y0022500D02*
X0024000Y0022500D01*
X0024000Y0026500D01*
X0022636Y0026500D01*
X0020000Y0023864D01*
X0020000Y0022500D01*
X0020000Y0021500D02*
X0020000Y0020136D01*
X0022636Y0017500D01*
X0024000Y0017500D01*
X0024000Y0021500D01*
X0020000Y0021500D01*
X0020000Y0020972D02*
X0015724Y0020972D01*
X0014726Y0019973D02*
X0020163Y0019973D01*
X0021161Y0018975D02*
X0013829Y0018975D01*
X0016038Y0017976D02*
X0022160Y0017976D01*
X0024000Y0017976D02*
X0025000Y0017976D01*
X0025000Y0017500D02*
X0026364Y0017500D01*
X0029000Y0020136D01*
X0029000Y0021500D01*
X0025000Y0021500D01*
X0025000Y0022500D01*
X0024000Y0022500D01*
X0024000Y0021500D01*
X0025000Y0021500D01*
X0025000Y0017500D01*
X0025000Y0018975D02*
X0024000Y0018975D01*
X0024000Y0019973D02*
X0025000Y0019973D01*
X0025000Y0020972D02*
X0024000Y0020972D01*
X0024000Y0021970D02*
X0016723Y0021970D01*
X0018720Y0023967D02*
X0020103Y0023967D01*
X0019718Y0024966D02*
X0021102Y0024966D01*
X0020717Y0025964D02*
X0022100Y0025964D01*
X0021715Y0026963D02*
X0093500Y0026963D01*
X0093500Y0027961D02*
X0021800Y0027961D01*
X0021800Y0028960D02*
X0093500Y0028960D01*
X0093500Y0029958D02*
X0021800Y0029958D01*
X0021800Y0030957D02*
X0093500Y0030957D01*
X0091466Y0031955D02*
X0021800Y0031955D01*
X0021800Y0032954D02*
X0091250Y0032954D01*
X0091250Y0033952D02*
X0021800Y0033952D01*
X0021800Y0034951D02*
X0091250Y0034951D01*
X0091250Y0035949D02*
X0021800Y0035949D01*
X0021800Y0036948D02*
X0091369Y0036948D01*
X0092368Y0037946D02*
X0021800Y0037946D01*
X0021800Y0038945D02*
X0091477Y0038945D01*
X0091250Y0039943D02*
X0021800Y0039943D01*
X0021800Y0040942D02*
X0091250Y0040942D01*
X0091250Y0041940D02*
X0021800Y0041940D01*
X0021800Y0042939D02*
X0091250Y0042939D01*
X0091359Y0043937D02*
X0021800Y0043937D01*
X0021800Y0044936D02*
X0092358Y0044936D01*
X0092416Y0045934D02*
X0021800Y0045934D01*
X0021800Y0046933D02*
X0092548Y0046933D01*
X0093070Y0047932D02*
X0021800Y0047932D01*
X0021800Y0048930D02*
X0094514Y0048930D01*
X0096486Y0048930D02*
X0157742Y0048930D01*
X0158740Y0047932D02*
X0097930Y0047932D01*
X0098452Y0046933D02*
X0159500Y0046933D01*
X0159500Y0045934D02*
X0098584Y0045934D01*
X0098642Y0044936D02*
X0103358Y0044936D01*
X0102359Y0043937D02*
X0099641Y0043937D01*
X0097750Y0043000D02*
X0097750Y0040000D01*
X0093250Y0040000D01*
X0093250Y0043000D01*
X0097750Y0043000D01*
X0097750Y0040999D02*
X0093250Y0040999D01*
X0093250Y0041998D02*
X0097750Y0041998D01*
X0097750Y0042997D02*
X0093250Y0042997D01*
X0092422Y0038000D02*
X0098416Y0038000D01*
X0092422Y0038000D01*
X0097750Y0036000D02*
X0097750Y0033000D01*
X0093250Y0033000D01*
X0093250Y0036000D01*
X0097750Y0036000D01*
X0097750Y0033999D02*
X0093250Y0033999D01*
X0093250Y0034998D02*
X0097750Y0034998D01*
X0097750Y0035997D02*
X0093250Y0035997D01*
X0095500Y0034500D02*
X0097000Y0034000D01*
X0100500Y0034000D01*
X0101500Y0035000D01*
X0101500Y0038000D01*
X0104584Y0038000D02*
X0109578Y0038000D01*
X0104584Y0038000D01*
X0104584Y0038000D01*
X0108750Y0036000D02*
X0108750Y0033000D01*
X0104250Y0033000D01*
X0104250Y0036000D01*
X0108750Y0036000D01*
X0108750Y0033999D02*
X0104250Y0033999D01*
X0104250Y0034998D02*
X0108750Y0034998D01*
X0108750Y0035997D02*
X0104250Y0035997D01*
X0106500Y0034500D02*
X0106500Y0030000D01*
X0106500Y0010000D01*
X0110968Y0009988D02*
X0112031Y0009988D01*
X0112072Y0010987D02*
X0110928Y0010987D01*
X0110514Y0011985D02*
X0112486Y0011985D01*
X0113164Y0012984D02*
X0109836Y0012984D01*
X0108563Y0013982D02*
X0114437Y0013982D01*
X0114500Y0014981D02*
X0108500Y0014981D01*
X0108500Y0015979D02*
X0114500Y0015979D01*
X0114500Y0016978D02*
X0108500Y0016978D01*
X0108500Y0017976D02*
X0114500Y0017976D01*
X0114500Y0018975D02*
X0108500Y0018975D01*
X0108500Y0019973D02*
X0114500Y0019973D01*
X0114500Y0020972D02*
X0108500Y0020972D01*
X0108500Y0021970D02*
X0114500Y0021970D01*
X0114500Y0022969D02*
X0108500Y0022969D01*
X0108500Y0023967D02*
X0114171Y0023967D01*
X0113590Y0024966D02*
X0108500Y0024966D01*
X0108500Y0025964D02*
X0113416Y0025964D01*
X0113560Y0026963D02*
X0108500Y0026963D01*
X0108823Y0027961D02*
X0114100Y0027961D01*
X0114500Y0028960D02*
X0109407Y0028960D01*
X0109584Y0029958D02*
X0114500Y0029958D01*
X0114500Y0030957D02*
X0109442Y0030957D01*
X0110534Y0031955D02*
X0112466Y0031955D01*
X0112250Y0032954D02*
X0110750Y0032954D01*
X0110750Y0033952D02*
X0112250Y0033952D01*
X0112250Y0034951D02*
X0110750Y0034951D01*
X0110750Y0035949D02*
X0112250Y0035949D01*
X0112369Y0036948D02*
X0110631Y0036948D01*
X0109632Y0037946D02*
X0113368Y0037946D01*
X0112477Y0038945D02*
X0110523Y0038945D01*
X0108750Y0040000D02*
X0108750Y0043000D01*
X0108750Y0040000D02*
X0104250Y0040000D01*
X0104250Y0043000D01*
X0108750Y0043000D01*
X0108750Y0040999D02*
X0104250Y0040999D01*
X0104250Y0041998D02*
X0108750Y0041998D01*
X0108750Y0042997D02*
X0104250Y0042997D01*
X0109642Y0044936D02*
X0113358Y0044936D01*
X0112359Y0043937D02*
X0110641Y0043937D01*
X0118750Y0043000D02*
X0118750Y0040000D01*
X0114250Y0040000D01*
X0114250Y0043000D01*
X0118750Y0043000D01*
X0118750Y0040999D02*
X0114250Y0040999D01*
X0114250Y0041998D02*
X0118750Y0041998D01*
X0118750Y0042997D02*
X0114250Y0042997D01*
X0119642Y0044936D02*
X0123358Y0044936D01*
X0122359Y0043937D02*
X0120641Y0043937D01*
X0120523Y0038945D02*
X0122477Y0038945D01*
X0123368Y0037946D02*
X0119632Y0037946D01*
X0120631Y0036948D02*
X0122369Y0036948D01*
X0122250Y0035949D02*
X0120750Y0035949D01*
X0120750Y0034951D02*
X0122250Y0034951D01*
X0122250Y0033952D02*
X0120750Y0033952D01*
X0120750Y0032954D02*
X0122250Y0032954D01*
X0122466Y0031955D02*
X0120534Y0031955D01*
X0118500Y0030957D02*
X0124500Y0030957D01*
X0124500Y0029958D02*
X0118500Y0029958D01*
X0118500Y0028960D02*
X0124500Y0028960D01*
X0124500Y0027961D02*
X0118900Y0027961D01*
X0119440Y0026963D02*
X0124500Y0026963D01*
X0124500Y0025964D02*
X0119584Y0025964D01*
X0119410Y0024966D02*
X0124104Y0024966D01*
X0123562Y0023967D02*
X0118829Y0023967D01*
X0118500Y0022969D02*
X0123416Y0022969D01*
X0123588Y0021970D02*
X0118500Y0021970D01*
X0118500Y0020972D02*
X0124166Y0020972D01*
X0124500Y0019973D02*
X0118500Y0019973D01*
X0118500Y0018975D02*
X0124500Y0018975D01*
X0124500Y0017976D02*
X0118500Y0017976D01*
X0118500Y0016978D02*
X0124500Y0016978D01*
X0124500Y0015979D02*
X0118500Y0015979D01*
X0118500Y0014981D02*
X0124500Y0014981D01*
X0124437Y0013982D02*
X0118563Y0013982D01*
X0119836Y0012984D02*
X0123164Y0012984D01*
X0122486Y0011985D02*
X0120514Y0011985D01*
X0120928Y0010987D02*
X0122072Y0010987D01*
X0122031Y0009988D02*
X0120968Y0009988D01*
X0120918Y0008990D02*
X0122082Y0008990D01*
X0122495Y0007991D02*
X0120505Y0007991D01*
X0119812Y0006993D02*
X0123188Y0006993D01*
X0124494Y0005994D02*
X0118506Y0005994D01*
X0114494Y0005994D02*
X0108506Y0005994D01*
X0109812Y0006993D02*
X0113188Y0006993D01*
X0112495Y0007991D02*
X0110505Y0007991D01*
X0110918Y0008990D02*
X0112082Y0008990D01*
X0116500Y0010000D02*
X0116500Y0026000D01*
X0116500Y0034500D01*
X0118750Y0036000D02*
X0118750Y0033000D01*
X0114250Y0033000D01*
X0114250Y0036000D01*
X0118750Y0036000D01*
X0118750Y0033999D02*
X0114250Y0033999D01*
X0114250Y0034998D02*
X0118750Y0034998D01*
X0118750Y0035997D02*
X0114250Y0035997D01*
X0103558Y0030957D02*
X0097500Y0030957D01*
X0097500Y0029958D02*
X0103416Y0029958D01*
X0103592Y0028960D02*
X0097500Y0028960D01*
X0097500Y0027961D02*
X0104177Y0027961D01*
X0104500Y0026963D02*
X0097500Y0026963D01*
X0097500Y0025964D02*
X0104500Y0025964D01*
X0104500Y0024966D02*
X0097500Y0024966D01*
X0097500Y0023967D02*
X0104500Y0023967D01*
X0104500Y0022969D02*
X0098360Y0022969D01*
X0098500Y0021970D02*
X0104500Y0021970D01*
X0104500Y0020972D02*
X0098500Y0020972D01*
X0098500Y0019973D02*
X0104500Y0019973D01*
X0104500Y0018975D02*
X0098500Y0018975D01*
X0098500Y0017976D02*
X0104500Y0017976D01*
X0104500Y0016978D02*
X0098500Y0016978D01*
X0098500Y0015979D02*
X0104500Y0015979D01*
X0104500Y0014981D02*
X0098500Y0014981D01*
X0098563Y0013982D02*
X0104437Y0013982D01*
X0103164Y0012984D02*
X0099836Y0012984D01*
X0100514Y0011985D02*
X0102486Y0011985D01*
X0102072Y0010987D02*
X0100928Y0010987D01*
X0100968Y0009988D02*
X0102031Y0009988D01*
X0102082Y0008990D02*
X0100918Y0008990D01*
X0100505Y0007991D02*
X0102495Y0007991D01*
X0103188Y0006993D02*
X0099812Y0006993D01*
X0098506Y0005994D02*
X0104494Y0005994D01*
X0096500Y0010000D02*
X0096500Y0022000D01*
X0095500Y0023000D01*
X0095500Y0034500D01*
X0098416Y0038000D02*
X0098416Y0038000D01*
X0099534Y0031955D02*
X0102466Y0031955D01*
X0093500Y0025964D02*
X0036900Y0025964D01*
X0036364Y0026500D02*
X0038864Y0024000D01*
X0070328Y0024000D01*
X0071500Y0022828D01*
X0077328Y0017000D01*
X0078500Y0015828D01*
X0078500Y0014008D01*
X0079031Y0013788D01*
X0080288Y0012531D01*
X0080968Y0010889D01*
X0080968Y0009111D01*
X0080288Y0007469D01*
X0079031Y0006212D01*
X0077389Y0005531D01*
X0075611Y0005531D01*
X0073969Y0006212D01*
X0072712Y0007469D01*
X0072031Y0009111D01*
X0072031Y0010889D01*
X0072712Y0012531D01*
X0073969Y0013788D01*
X0074500Y0014008D01*
X0074500Y0014172D01*
X0068672Y0020000D01*
X0038864Y0020000D01*
X0036364Y0017500D01*
X0032636Y0017500D01*
X0030000Y0020136D01*
X0030000Y0023864D01*
X0032636Y0026500D01*
X0036364Y0026500D01*
X0037898Y0024966D02*
X0093500Y0024966D01*
X0093500Y0023967D02*
X0070361Y0023967D01*
X0071360Y0022969D02*
X0093500Y0022969D01*
X0093701Y0021970D02*
X0072358Y0021970D01*
X0073357Y0020972D02*
X0094500Y0020972D01*
X0094500Y0019973D02*
X0074355Y0019973D01*
X0075354Y0018975D02*
X0094500Y0018975D01*
X0094500Y0017976D02*
X0076352Y0017976D01*
X0077351Y0016978D02*
X0094500Y0016978D01*
X0094500Y0015979D02*
X0078349Y0015979D01*
X0078500Y0014981D02*
X0094500Y0014981D01*
X0094437Y0013982D02*
X0088527Y0013982D01*
X0088215Y0014141D02*
X0088842Y0013822D01*
X0089411Y0013408D01*
X0089908Y0012911D01*
X0090322Y0012342D01*
X0090641Y0011715D01*
X0090858Y0011046D01*
X0090947Y0010484D01*
X0086984Y0010484D01*
X0086984Y0009516D01*
X0086984Y0005552D01*
X0087546Y0005642D01*
X0088215Y0005859D01*
X0088842Y0006178D01*
X0089411Y0006592D01*
X0089908Y0007089D01*
X0090322Y0007658D01*
X0090641Y0008285D01*
X0090858Y0008954D01*
X0090947Y0009516D01*
X0086984Y0009516D01*
X0086016Y0009516D01*
X0086016Y0005552D01*
X0085454Y0005642D01*
X0084785Y0005859D01*
X0084158Y0006178D01*
X0083589Y0006592D01*
X0083092Y0007089D01*
X0082678Y0007658D01*
X0082359Y0008285D01*
X0082142Y0008954D01*
X0082052Y0009516D01*
X0086016Y0009516D01*
X0086016Y0010484D01*
X0082052Y0010484D01*
X0082142Y0011046D01*
X0082359Y0011715D01*
X0082678Y0012342D01*
X0083092Y0012911D01*
X0083589Y0013408D01*
X0084158Y0013822D01*
X0084785Y0014141D01*
X0085454Y0014358D01*
X0086016Y0014447D01*
X0086016Y0010484D01*
X0086984Y0010484D01*
X0086984Y0014447D01*
X0087546Y0014358D01*
X0088215Y0014141D01*
X0086984Y0013982D02*
X0086016Y0013982D01*
X0086016Y0012984D02*
X0086984Y0012984D01*
X0086984Y0011985D02*
X0086016Y0011985D01*
X0086016Y0010987D02*
X0086984Y0010987D01*
X0086984Y0009988D02*
X0092031Y0009988D01*
X0092072Y0010987D02*
X0090868Y0010987D01*
X0090504Y0011985D02*
X0092486Y0011985D01*
X0093164Y0012984D02*
X0089836Y0012984D01*
X0090864Y0008990D02*
X0092082Y0008990D01*
X0092495Y0007991D02*
X0090492Y0007991D01*
X0089812Y0006993D02*
X0093188Y0006993D01*
X0094494Y0005994D02*
X0088481Y0005994D01*
X0086984Y0005994D02*
X0086016Y0005994D01*
X0086016Y0006993D02*
X0086984Y0006993D01*
X0086984Y0007991D02*
X0086016Y0007991D01*
X0086016Y0008990D02*
X0086984Y0008990D01*
X0086016Y0009988D02*
X0080968Y0009988D01*
X0080928Y0010987D02*
X0082132Y0010987D01*
X0082496Y0011985D02*
X0080514Y0011985D01*
X0079836Y0012984D02*
X0083164Y0012984D01*
X0084473Y0013982D02*
X0078563Y0013982D01*
X0076500Y0015000D02*
X0076500Y0010000D01*
X0072031Y0009988D02*
X0070968Y0009988D01*
X0070928Y0010987D02*
X0072072Y0010987D01*
X0072486Y0011985D02*
X0070514Y0011985D01*
X0069836Y0012984D02*
X0073164Y0012984D01*
X0074437Y0013982D02*
X0068563Y0013982D01*
X0067348Y0014981D02*
X0073691Y0014981D01*
X0072692Y0015979D02*
X0066349Y0015979D01*
X0065351Y0016978D02*
X0071694Y0016978D01*
X0070695Y0017976D02*
X0064352Y0017976D01*
X0063500Y0016000D02*
X0038500Y0016000D01*
X0034500Y0012000D01*
X0039000Y0011985D02*
X0052486Y0011985D01*
X0052072Y0010987D02*
X0039000Y0010987D01*
X0038852Y0009988D02*
X0052031Y0009988D01*
X0052082Y0008990D02*
X0037854Y0008990D01*
X0036855Y0007991D02*
X0051663Y0007991D01*
X0051500Y0005000D02*
X0056500Y0010000D01*
X0060968Y0009988D02*
X0062031Y0009988D01*
X0062072Y0010987D02*
X0060928Y0010987D01*
X0060514Y0011985D02*
X0062486Y0011985D01*
X0063164Y0012984D02*
X0059836Y0012984D01*
X0058563Y0013982D02*
X0062689Y0013982D01*
X0063500Y0016000D02*
X0066500Y0013000D01*
X0066500Y0010000D01*
X0063188Y0006993D02*
X0059812Y0006993D01*
X0060505Y0007991D02*
X0062495Y0007991D01*
X0062082Y0008990D02*
X0060918Y0008990D01*
X0058506Y0005994D02*
X0064494Y0005994D01*
X0068506Y0005994D02*
X0074494Y0005994D01*
X0073188Y0006993D02*
X0069812Y0006993D01*
X0070505Y0007991D02*
X0072495Y0007991D01*
X0072082Y0008990D02*
X0070918Y0008990D01*
X0076500Y0015000D02*
X0069500Y0022000D01*
X0034500Y0022000D01*
X0030000Y0021970D02*
X0025000Y0021970D01*
X0025000Y0022500D02*
X0029000Y0022500D01*
X0029000Y0023864D01*
X0026364Y0026500D01*
X0025000Y0026500D01*
X0025000Y0022500D01*
X0025000Y0022969D02*
X0024000Y0022969D01*
X0024000Y0023967D02*
X0025000Y0023967D01*
X0025000Y0024966D02*
X0024000Y0024966D01*
X0024000Y0025964D02*
X0025000Y0025964D01*
X0026900Y0025964D02*
X0032100Y0025964D01*
X0031102Y0024966D02*
X0027898Y0024966D01*
X0028897Y0023967D02*
X0030103Y0023967D01*
X0030000Y0022969D02*
X0029000Y0022969D01*
X0029000Y0020972D02*
X0030000Y0020972D01*
X0030163Y0019973D02*
X0028837Y0019973D01*
X0027839Y0018975D02*
X0031161Y0018975D01*
X0032160Y0017976D02*
X0026840Y0017976D01*
X0026885Y0015979D02*
X0032115Y0015979D01*
X0031117Y0014981D02*
X0027883Y0014981D01*
X0028882Y0013982D02*
X0030118Y0013982D01*
X0030000Y0012984D02*
X0029000Y0012984D01*
X0029000Y0011985D02*
X0030000Y0011985D01*
X0030000Y0010987D02*
X0029000Y0010987D01*
X0029340Y0009988D02*
X0030148Y0009988D01*
X0030339Y0008990D02*
X0031146Y0008990D01*
X0031337Y0007991D02*
X0032145Y0007991D01*
X0031500Y0005000D02*
X0024500Y0012000D01*
X0021117Y0014981D02*
X0019293Y0014981D01*
X0019707Y0013982D02*
X0020118Y0013982D01*
X0018551Y0015979D02*
X0022115Y0015979D01*
X0017552Y0016978D02*
X0036649Y0016978D01*
X0036840Y0017976D02*
X0037648Y0017976D01*
X0037839Y0018975D02*
X0069697Y0018975D01*
X0068698Y0019973D02*
X0038837Y0019973D01*
X0039311Y0013982D02*
X0054437Y0013982D01*
X0053164Y0012984D02*
X0039000Y0012984D01*
X0031500Y0005000D02*
X0051500Y0005000D01*
X0053325Y0003997D02*
X0196000Y0003997D01*
X0196000Y0004996D02*
X0193324Y0004996D01*
X0194322Y0005994D02*
X0196000Y0005994D01*
X0196000Y0006993D02*
X0195321Y0006993D01*
X0194500Y0009000D02*
X0191500Y0006000D01*
X0170500Y0006000D01*
X0166500Y0010000D01*
X0163188Y0006993D02*
X0159812Y0006993D01*
X0160505Y0007991D02*
X0162495Y0007991D01*
X0162082Y0008990D02*
X0160918Y0008990D01*
X0160968Y0009988D02*
X0162031Y0009988D01*
X0162072Y0010987D02*
X0160928Y0010987D01*
X0160514Y0011985D02*
X0162486Y0011985D01*
X0163164Y0012984D02*
X0159836Y0012984D01*
X0159584Y0013982D02*
X0164437Y0013982D01*
X0168563Y0013982D02*
X0183300Y0013982D01*
X0183300Y0012984D02*
X0169836Y0012984D01*
X0170514Y0011985D02*
X0183300Y0011985D01*
X0183706Y0010987D02*
X0170928Y0010987D01*
X0170968Y0009988D02*
X0184158Y0009988D01*
X0185156Y0008990D02*
X0170918Y0008990D01*
X0168676Y0004996D02*
X0054324Y0004996D01*
X0078506Y0005994D02*
X0084519Y0005994D01*
X0083188Y0006993D02*
X0079812Y0006993D01*
X0080505Y0007991D02*
X0082508Y0007991D01*
X0082136Y0008990D02*
X0080918Y0008990D01*
X0095747Y0052924D02*
X0021800Y0052924D01*
X0021800Y0051926D02*
X0154746Y0051926D01*
X0155745Y0050927D02*
X0021800Y0050927D01*
X0021800Y0049929D02*
X0156743Y0049929D01*
X0159404Y0052924D02*
X0162523Y0052924D01*
X0162110Y0053923D02*
X0158406Y0053923D01*
X0157407Y0054921D02*
X0162031Y0054921D01*
X0162044Y0055920D02*
X0156409Y0055920D01*
X0155500Y0054000D02*
X0161500Y0048000D01*
X0161500Y0040000D01*
X0166500Y0035000D01*
X0170968Y0034951D02*
X0172500Y0034951D01*
X0172500Y0035949D02*
X0170943Y0035949D01*
X0170530Y0036948D02*
X0172500Y0036948D01*
X0172500Y0037946D02*
X0169873Y0037946D01*
X0168653Y0038945D02*
X0172500Y0038945D01*
X0172500Y0039943D02*
X0164385Y0039943D01*
X0164620Y0040942D02*
X0163500Y0040942D01*
X0160725Y0037946D02*
X0159632Y0037946D01*
X0160631Y0036948D02*
X0161724Y0036948D01*
X0162057Y0035949D02*
X0160750Y0035949D01*
X0160750Y0034951D02*
X0162031Y0034951D01*
X0162097Y0033952D02*
X0160750Y0033952D01*
X0160750Y0032954D02*
X0162511Y0032954D01*
X0163225Y0031955D02*
X0160534Y0031955D01*
X0158500Y0030957D02*
X0164584Y0030957D01*
X0164383Y0028960D02*
X0158500Y0028960D01*
X0158500Y0029958D02*
X0172500Y0029958D01*
X0172500Y0030957D02*
X0168416Y0030957D01*
X0169775Y0031955D02*
X0172500Y0031955D01*
X0172500Y0032954D02*
X0170489Y0032954D01*
X0170903Y0033952D02*
X0172500Y0033952D01*
X0176500Y0033952D02*
X0183300Y0033952D01*
X0183300Y0032954D02*
X0176500Y0032954D01*
X0176500Y0031955D02*
X0183304Y0031955D01*
X0183718Y0030957D02*
X0176500Y0030957D01*
X0176500Y0029958D02*
X0184188Y0029958D01*
X0185186Y0028960D02*
X0176500Y0028960D01*
X0176290Y0027961D02*
X0186889Y0027961D01*
X0185109Y0026963D02*
X0175291Y0026963D01*
X0174293Y0025964D02*
X0184110Y0025964D01*
X0183686Y0024966D02*
X0173294Y0024966D01*
X0172296Y0023967D02*
X0183300Y0023967D01*
X0183300Y0022969D02*
X0170495Y0022969D01*
X0169790Y0021970D02*
X0183300Y0021970D01*
X0183712Y0020972D02*
X0168452Y0020972D01*
X0164548Y0020972D02*
X0158500Y0020972D01*
X0158500Y0021970D02*
X0163210Y0021970D01*
X0162505Y0022969D02*
X0158500Y0022969D01*
X0158500Y0023967D02*
X0162091Y0023967D01*
X0162031Y0024966D02*
X0158500Y0024966D01*
X0158500Y0025964D02*
X0162063Y0025964D01*
X0162476Y0026963D02*
X0158500Y0026963D01*
X0158500Y0027961D02*
X0163142Y0027961D01*
X0166500Y0025000D02*
X0170500Y0025000D01*
X0174500Y0029000D01*
X0174500Y0056000D01*
X0170500Y0060000D01*
X0101500Y0060000D01*
X0096500Y0065100D01*
X0086600Y0065100D01*
X0084500Y0063000D01*
X0047500Y0063000D01*
X0047500Y0073000D01*
X0053500Y0079000D01*
X0053500Y0082000D01*
X0053500Y0092000D01*
X0056734Y0088870D02*
X0063200Y0088870D01*
X0063200Y0087872D02*
X0055736Y0087872D01*
X0055500Y0087636D02*
X0058000Y0090136D01*
X0058000Y0093864D01*
X0055664Y0096200D01*
X0056453Y0096200D01*
X0058800Y0098547D01*
X0058800Y0099135D01*
X0059107Y0098828D01*
X0065893Y0098828D01*
X0066772Y0099707D01*
X0066772Y0106493D01*
X0066565Y0106700D01*
X0072453Y0106700D01*
X0075800Y0110047D01*
X0075800Y0110936D01*
X0078000Y0113136D01*
X0078000Y0116864D01*
X0075800Y0119064D01*
X0075800Y0120936D01*
X0077564Y0122700D01*
X0079436Y0122700D01*
X0081200Y0120936D01*
X0081200Y0119064D01*
X0079000Y0116864D01*
X0079000Y0113136D01*
X0081636Y0110500D01*
X0085364Y0110500D01*
X0088000Y0113136D01*
X0088000Y0116864D01*
X0085800Y0119064D01*
X0085800Y0120936D01*
X0088000Y0123136D01*
X0088000Y0126864D01*
X0085364Y0129500D01*
X0081636Y0129500D01*
X0079436Y0127300D01*
X0077564Y0127300D01*
X0075364Y0129500D01*
X0071636Y0129500D01*
X0069436Y0127300D01*
X0062453Y0127300D01*
X0059800Y0129953D01*
X0059800Y0149547D01*
X0071453Y0161200D01*
X0086801Y0161200D01*
X0085557Y0159956D01*
X0085285Y0159300D01*
X0077547Y0159300D01*
X0074200Y0155953D01*
X0074200Y0154799D01*
X0072926Y0154799D01*
X0072047Y0153921D01*
X0072047Y0153300D01*
X0069547Y0153300D01*
X0068200Y0151953D01*
X0065547Y0149300D01*
X0064200Y0147953D01*
X0064200Y0137047D01*
X0070547Y0130700D01*
X0106547Y0130700D01*
X0108200Y0129047D01*
X0108200Y0106953D01*
X0107047Y0105800D01*
X0101443Y0105800D01*
X0101199Y0106043D01*
X0100097Y0106500D01*
X0098903Y0106500D01*
X0097801Y0106043D01*
X0096957Y0105199D01*
X0096500Y0104097D01*
X0096500Y0102903D01*
X0096957Y0101801D01*
X0097200Y0101557D01*
X0097200Y0096000D01*
X0096422Y0096000D01*
X0095250Y0094828D01*
X0095250Y0090172D01*
X0096422Y0089000D01*
X0102578Y0089000D01*
X0096422Y0089000D01*
X0095250Y0087828D01*
X0095250Y0087500D01*
X0094750Y0087500D01*
X0094750Y0087828D01*
X0093578Y0089000D01*
X0087422Y0089000D01*
X0086907Y0088486D01*
X0086393Y0089000D01*
X0086653Y0089260D01*
X0086839Y0089582D01*
X0087022Y0089400D01*
X0087478Y0089136D01*
X0087987Y0089000D01*
X0090000Y0089000D01*
X0090000Y0092000D01*
X0086953Y0092000D01*
X0086953Y0092240D01*
X0083000Y0092240D01*
X0083000Y0093240D01*
X0086250Y0093240D01*
X0086250Y0093000D01*
X0090000Y0093000D01*
X0090000Y0096000D01*
X0087987Y0096000D01*
X0087478Y0095864D01*
X0087022Y0095600D01*
X0086945Y0095524D01*
X0086851Y0095878D01*
X0086653Y0096220D01*
X0086374Y0096499D01*
X0086032Y0096697D01*
X0085650Y0096799D01*
X0083000Y0096799D01*
X0083000Y0093240D01*
X0082000Y0093240D01*
X0082000Y0096799D01*
X0079350Y0096799D01*
X0078968Y0096697D01*
X0078626Y0096499D01*
X0078347Y0096220D01*
X0078149Y0095878D01*
X0078055Y0095524D01*
X0077578Y0096000D01*
X0072753Y0096000D01*
X0080453Y0103700D01*
X0090453Y0103700D01*
X0091800Y0105047D01*
X0091800Y0105047D01*
X0095800Y0109047D01*
X0095800Y0110936D01*
X0098000Y0113136D01*
X0098000Y0116864D01*
X0095800Y0119064D01*
X0095800Y0120936D01*
X0098000Y0123136D01*
X0098000Y0126864D01*
X0095364Y0129500D01*
X0091636Y0129500D01*
X0089000Y0126864D01*
X0089000Y0123136D01*
X0091200Y0120936D01*
X0091200Y0119064D01*
X0089000Y0116864D01*
X0089000Y0113136D01*
X0091192Y0110944D01*
X0088547Y0108300D01*
X0078547Y0108300D01*
X0064547Y0094300D01*
X0063200Y0092953D01*
X0063200Y0080047D01*
X0064547Y0078700D01*
X0065200Y0078047D01*
X0066547Y0076700D01*
X0080547Y0076700D01*
X0083714Y0073533D01*
X0082712Y0072531D01*
X0082031Y0070889D01*
X0082031Y0069111D01*
X0082712Y0067469D01*
X0083969Y0066212D01*
X0084616Y0065944D01*
X0083672Y0065000D01*
X0049862Y0065000D01*
X0049500Y0065362D01*
X0049500Y0072172D01*
X0054328Y0077000D01*
X0054328Y0077000D01*
X0054828Y0077500D01*
X0055364Y0077500D01*
X0058000Y0080136D01*
X0058000Y0083864D01*
X0055500Y0086364D01*
X0055500Y0087636D01*
X0055500Y0086873D02*
X0063200Y0086873D01*
X0063200Y0085875D02*
X0055989Y0085875D01*
X0056987Y0084876D02*
X0063200Y0084876D01*
X0063200Y0083878D02*
X0057986Y0083878D01*
X0058000Y0082879D02*
X0063200Y0082879D01*
X0063200Y0081881D02*
X0058000Y0081881D01*
X0058000Y0080882D02*
X0063200Y0080882D01*
X0063363Y0079884D02*
X0057748Y0079884D01*
X0056749Y0078885D02*
X0064362Y0078885D01*
X0065360Y0077887D02*
X0055751Y0077887D01*
X0054217Y0076888D02*
X0066359Y0076888D01*
X0066016Y0074447D02*
X0065454Y0074358D01*
X0064785Y0074141D01*
X0064158Y0073822D01*
X0063589Y0073408D01*
X0063092Y0072911D01*
X0062678Y0072342D01*
X0062359Y0071715D01*
X0062142Y0071046D01*
X0062052Y0070484D01*
X0066016Y0070484D01*
X0066016Y0069516D01*
X0066984Y0069516D01*
X0066984Y0065552D01*
X0067546Y0065642D01*
X0068215Y0065859D01*
X0068842Y0066178D01*
X0069411Y0066592D01*
X0069908Y0067089D01*
X0070322Y0067658D01*
X0070641Y0068285D01*
X0070858Y0068954D01*
X0070947Y0069516D01*
X0066984Y0069516D01*
X0066984Y0070484D01*
X0070947Y0070484D01*
X0070858Y0071046D01*
X0070641Y0071715D01*
X0070322Y0072342D01*
X0069908Y0072911D01*
X0069411Y0073408D01*
X0068842Y0073822D01*
X0068215Y0074141D01*
X0067546Y0074358D01*
X0066984Y0074447D01*
X0066984Y0070484D01*
X0066016Y0070484D01*
X0066016Y0074447D01*
X0066016Y0073893D02*
X0066984Y0073893D01*
X0066984Y0072894D02*
X0066016Y0072894D01*
X0066016Y0071896D02*
X0066984Y0071896D01*
X0066984Y0070897D02*
X0066016Y0070897D01*
X0066016Y0069899D02*
X0060968Y0069899D01*
X0060968Y0069111D02*
X0060288Y0067469D01*
X0059031Y0066212D01*
X0057389Y0065531D01*
X0055611Y0065531D01*
X0053969Y0066212D01*
X0052712Y0067469D01*
X0052031Y0069111D01*
X0052031Y0070889D01*
X0052712Y0072531D01*
X0053969Y0073788D01*
X0055611Y0074468D01*
X0057389Y0074468D01*
X0059031Y0073788D01*
X0060288Y0072531D01*
X0060968Y0070889D01*
X0060968Y0069111D01*
X0060881Y0068900D02*
X0062159Y0068900D01*
X0062142Y0068954D02*
X0062359Y0068285D01*
X0062678Y0067658D01*
X0063092Y0067089D01*
X0063589Y0066592D01*
X0064158Y0066178D01*
X0064785Y0065859D01*
X0065454Y0065642D01*
X0066016Y0065552D01*
X0066016Y0069516D01*
X0062052Y0069516D01*
X0062142Y0068954D01*
X0062554Y0067902D02*
X0060468Y0067902D01*
X0059723Y0066903D02*
X0063277Y0066903D01*
X0064695Y0065905D02*
X0058290Y0065905D01*
X0054710Y0065905D02*
X0049500Y0065905D01*
X0049500Y0066903D02*
X0053277Y0066903D01*
X0052532Y0067902D02*
X0049500Y0067902D01*
X0049500Y0068900D02*
X0052119Y0068900D01*
X0052031Y0069899D02*
X0049500Y0069899D01*
X0049500Y0070897D02*
X0052035Y0070897D01*
X0052449Y0071896D02*
X0049500Y0071896D01*
X0050223Y0072894D02*
X0053075Y0072894D01*
X0054221Y0073893D02*
X0051221Y0073893D01*
X0052220Y0074891D02*
X0082356Y0074891D01*
X0083354Y0073893D02*
X0078779Y0073893D01*
X0079031Y0073788D02*
X0077389Y0074468D01*
X0075611Y0074468D01*
X0073969Y0073788D01*
X0072712Y0072531D01*
X0072031Y0070889D01*
X0072031Y0069111D01*
X0072712Y0067469D01*
X0073969Y0066212D01*
X0075611Y0065531D01*
X0077389Y0065531D01*
X0079031Y0066212D01*
X0080288Y0067469D01*
X0080968Y0069111D01*
X0080968Y0070889D01*
X0080288Y0072531D01*
X0079031Y0073788D01*
X0079925Y0072894D02*
X0083075Y0072894D01*
X0082449Y0071896D02*
X0080551Y0071896D01*
X0080965Y0070897D02*
X0082035Y0070897D01*
X0082031Y0069899D02*
X0080968Y0069899D01*
X0080881Y0068900D02*
X0082119Y0068900D01*
X0082532Y0067902D02*
X0080468Y0067902D01*
X0079723Y0066903D02*
X0083277Y0066903D01*
X0084576Y0065905D02*
X0078290Y0065905D01*
X0074710Y0065905D02*
X0068305Y0065905D01*
X0066984Y0065905D02*
X0066016Y0065905D01*
X0066016Y0066903D02*
X0066984Y0066903D01*
X0066984Y0067902D02*
X0066016Y0067902D01*
X0066016Y0068900D02*
X0066984Y0068900D01*
X0066984Y0069899D02*
X0072031Y0069899D01*
X0072035Y0070897D02*
X0070882Y0070897D01*
X0070549Y0071896D02*
X0072449Y0071896D01*
X0073075Y0072894D02*
X0069921Y0072894D01*
X0068703Y0073893D02*
X0074221Y0073893D01*
X0072119Y0068900D02*
X0070841Y0068900D01*
X0070446Y0067902D02*
X0072532Y0067902D01*
X0073277Y0066903D02*
X0069723Y0066903D01*
X0064297Y0073893D02*
X0058779Y0073893D01*
X0059925Y0072894D02*
X0063079Y0072894D01*
X0062451Y0071896D02*
X0060551Y0071896D01*
X0060965Y0070897D02*
X0062118Y0070897D01*
X0053218Y0075890D02*
X0081357Y0075890D01*
X0088000Y0080500D02*
X0091000Y0080500D01*
X0096500Y0075000D01*
X0096500Y0070000D01*
X0099723Y0066903D02*
X0103277Y0066903D01*
X0102712Y0067469D02*
X0103969Y0066212D01*
X0105611Y0065531D01*
X0107389Y0065531D01*
X0109031Y0066212D01*
X0110288Y0067469D01*
X0110968Y0069111D01*
X0110968Y0070889D01*
X0110288Y0072531D01*
X0109031Y0073788D01*
X0107389Y0074468D01*
X0105611Y0074468D01*
X0103969Y0073788D01*
X0102712Y0072531D01*
X0102031Y0070889D01*
X0102031Y0069111D01*
X0102712Y0067469D01*
X0102532Y0067902D02*
X0100468Y0067902D01*
X0100881Y0068900D02*
X0102119Y0068900D01*
X0102031Y0069899D02*
X0100968Y0069899D01*
X0100965Y0070897D02*
X0102035Y0070897D01*
X0102449Y0071896D02*
X0100551Y0071896D01*
X0099925Y0072894D02*
X0103075Y0072894D01*
X0104221Y0073893D02*
X0098779Y0073893D01*
X0098500Y0074891D02*
X0114500Y0074891D01*
X0114221Y0073893D02*
X0108779Y0073893D01*
X0109925Y0072894D02*
X0113075Y0072894D01*
X0112449Y0071896D02*
X0110551Y0071896D01*
X0110965Y0070897D02*
X0112035Y0070897D01*
X0112031Y0069899D02*
X0110968Y0069899D01*
X0110881Y0068900D02*
X0112119Y0068900D01*
X0112532Y0067902D02*
X0110468Y0067902D01*
X0109723Y0066903D02*
X0113277Y0066903D01*
X0114710Y0065905D02*
X0108290Y0065905D01*
X0104710Y0065905D02*
X0098512Y0065905D01*
X0099491Y0064906D02*
X0174042Y0064906D01*
X0174000Y0064864D02*
X0174000Y0063500D01*
X0178000Y0063500D01*
X0178000Y0067500D01*
X0176636Y0067500D01*
X0174000Y0064864D01*
X0174000Y0063908D02*
X0103743Y0063908D01*
X0104910Y0062909D02*
X0178000Y0062909D01*
X0178000Y0062500D02*
X0174000Y0062500D01*
X0174000Y0061136D01*
X0176636Y0058500D01*
X0178000Y0058500D01*
X0178000Y0062500D01*
X0179000Y0062500D01*
X0179000Y0063500D01*
X0183000Y0063500D01*
X0183000Y0064864D01*
X0180364Y0067500D01*
X0179000Y0067500D01*
X0179000Y0063500D01*
X0178000Y0063500D01*
X0178000Y0062500D01*
X0178000Y0061911D02*
X0179000Y0061911D01*
X0179000Y0062500D02*
X0179000Y0058500D01*
X0180364Y0058500D01*
X0183000Y0061136D01*
X0183000Y0062500D01*
X0179000Y0062500D01*
X0179000Y0062909D02*
X0183300Y0062909D01*
X0183323Y0061911D02*
X0183000Y0061911D01*
X0182776Y0060912D02*
X0183736Y0060912D01*
X0184232Y0059914D02*
X0181778Y0059914D01*
X0180779Y0058915D02*
X0185231Y0058915D01*
X0186782Y0057917D02*
X0175412Y0057917D01*
X0176221Y0058915D02*
X0174413Y0058915D01*
X0175222Y0059914D02*
X0173415Y0059914D01*
X0174224Y0060912D02*
X0172416Y0060912D01*
X0171418Y0061911D02*
X0174000Y0061911D01*
X0178000Y0060912D02*
X0179000Y0060912D01*
X0179000Y0059914D02*
X0178000Y0059914D01*
X0178000Y0058915D02*
X0179000Y0058915D01*
X0176410Y0056918D02*
X0185064Y0056918D01*
X0184081Y0055920D02*
X0176500Y0055920D01*
X0176500Y0054921D02*
X0183667Y0054921D01*
X0183300Y0053923D02*
X0176500Y0053923D01*
X0176500Y0052924D02*
X0183300Y0052924D01*
X0183317Y0051926D02*
X0176500Y0051926D01*
X0176500Y0050927D02*
X0183730Y0050927D01*
X0184218Y0049929D02*
X0176500Y0049929D01*
X0176500Y0048930D02*
X0185216Y0048930D01*
X0186818Y0047932D02*
X0176500Y0047932D01*
X0176500Y0046933D02*
X0185079Y0046933D01*
X0184087Y0045934D02*
X0176500Y0045934D01*
X0176500Y0044936D02*
X0183673Y0044936D01*
X0183300Y0043937D02*
X0176500Y0043937D01*
X0176500Y0042939D02*
X0183300Y0042939D01*
X0183310Y0041940D02*
X0176500Y0041940D01*
X0176500Y0040942D02*
X0183724Y0040942D01*
X0184203Y0039943D02*
X0176500Y0039943D01*
X0176500Y0038945D02*
X0185201Y0038945D01*
X0186853Y0037946D02*
X0176500Y0037946D01*
X0176500Y0036948D02*
X0185094Y0036948D01*
X0184095Y0035949D02*
X0176500Y0035949D01*
X0176500Y0034951D02*
X0183680Y0034951D01*
X0172500Y0040942D02*
X0168380Y0040942D01*
X0169760Y0041940D02*
X0172500Y0041940D01*
X0172500Y0042939D02*
X0170483Y0042939D01*
X0170897Y0043937D02*
X0172500Y0043937D01*
X0172500Y0044936D02*
X0170968Y0044936D01*
X0170950Y0045934D02*
X0172500Y0045934D01*
X0172500Y0046933D02*
X0170536Y0046933D01*
X0169888Y0047932D02*
X0172500Y0047932D01*
X0172500Y0048930D02*
X0168689Y0048930D01*
X0168344Y0050927D02*
X0172500Y0050927D01*
X0172500Y0049929D02*
X0162400Y0049929D01*
X0161401Y0050927D02*
X0164656Y0050927D01*
X0163255Y0051926D02*
X0160403Y0051926D01*
X0163398Y0048930D02*
X0164311Y0048930D01*
X0169745Y0051926D02*
X0172500Y0051926D01*
X0172500Y0052924D02*
X0170477Y0052924D01*
X0170890Y0053923D02*
X0172500Y0053923D01*
X0172500Y0054921D02*
X0170968Y0054921D01*
X0170956Y0055920D02*
X0171752Y0055920D01*
X0170753Y0056918D02*
X0170542Y0056918D01*
X0163097Y0057917D02*
X0105474Y0057917D01*
X0104738Y0056918D02*
X0162458Y0056918D01*
X0155500Y0054000D02*
X0097500Y0054000D01*
X0091500Y0060000D01*
X0043500Y0060000D01*
X0043500Y0072000D01*
X0043500Y0073000D01*
X0043500Y0082000D01*
X0043500Y0092000D01*
X0040266Y0088870D02*
X0036734Y0088870D01*
X0035736Y0087872D02*
X0041264Y0087872D01*
X0041500Y0086873D02*
X0025800Y0086873D01*
X0025800Y0087872D02*
X0031264Y0087872D01*
X0031636Y0087500D02*
X0033000Y0087500D01*
X0033000Y0091500D01*
X0029000Y0091500D01*
X0029000Y0090136D01*
X0031636Y0087500D01*
X0031636Y0086500D02*
X0029000Y0083864D01*
X0029000Y0082500D01*
X0033000Y0082500D01*
X0033000Y0086500D01*
X0031636Y0086500D01*
X0031011Y0085875D02*
X0025989Y0085875D01*
X0026987Y0084876D02*
X0030012Y0084876D01*
X0029014Y0083878D02*
X0027986Y0083878D01*
X0028000Y0082879D02*
X0029000Y0082879D01*
X0029000Y0081500D02*
X0029000Y0080136D01*
X0031636Y0077500D01*
X0033000Y0077500D01*
X0033000Y0081500D01*
X0034000Y0081500D01*
X0034000Y0082500D01*
X0038000Y0082500D01*
X0038000Y0083864D01*
X0035364Y0086500D01*
X0034000Y0086500D01*
X0034000Y0082500D01*
X0033000Y0082500D01*
X0033000Y0081500D01*
X0029000Y0081500D01*
X0029000Y0080882D02*
X0028000Y0080882D01*
X0028000Y0081881D02*
X0033000Y0081881D01*
X0033000Y0082879D02*
X0034000Y0082879D01*
X0034000Y0081881D02*
X0039000Y0081881D01*
X0039000Y0082879D02*
X0038000Y0082879D01*
X0037986Y0083878D02*
X0039014Y0083878D01*
X0040012Y0084876D02*
X0036988Y0084876D01*
X0035989Y0085875D02*
X0041011Y0085875D01*
X0039267Y0089869D02*
X0037733Y0089869D01*
X0038000Y0090136D02*
X0035364Y0087500D01*
X0034000Y0087500D01*
X0034000Y0091500D01*
X0038000Y0091500D01*
X0038000Y0090136D01*
X0038000Y0090868D02*
X0039000Y0090868D01*
X0039000Y0091866D02*
X0034000Y0091866D01*
X0034000Y0090868D02*
X0033000Y0090868D01*
X0033000Y0091866D02*
X0028000Y0091866D01*
X0028000Y0090868D02*
X0029000Y0090868D01*
X0029267Y0089869D02*
X0027733Y0089869D01*
X0026734Y0088870D02*
X0030266Y0088870D01*
X0033000Y0088870D02*
X0034000Y0088870D01*
X0034000Y0087872D02*
X0033000Y0087872D01*
X0033000Y0089869D02*
X0034000Y0089869D01*
X0034000Y0085875D02*
X0033000Y0085875D01*
X0033000Y0084876D02*
X0034000Y0084876D01*
X0034000Y0083878D02*
X0033000Y0083878D01*
X0034000Y0081500D02*
X0038000Y0081500D01*
X0038000Y0080136D01*
X0035364Y0077500D01*
X0034000Y0077500D01*
X0034000Y0081500D01*
X0034000Y0080882D02*
X0033000Y0080882D01*
X0033000Y0079884D02*
X0034000Y0079884D01*
X0034000Y0078885D02*
X0033000Y0078885D01*
X0033000Y0077887D02*
X0034000Y0077887D01*
X0035751Y0077887D02*
X0041249Y0077887D01*
X0041500Y0076888D02*
X0030586Y0076888D01*
X0030113Y0077084D02*
X0028886Y0077084D01*
X0027753Y0076615D01*
X0026885Y0075747D01*
X0026416Y0074613D01*
X0026416Y0073386D01*
X0026885Y0072253D01*
X0027500Y0071638D01*
X0027500Y0068362D01*
X0026885Y0067747D01*
X0026416Y0066613D01*
X0026416Y0065386D01*
X0026885Y0064253D01*
X0027753Y0063385D01*
X0028886Y0062916D01*
X0030113Y0062916D01*
X0031247Y0063385D01*
X0032115Y0064253D01*
X0032584Y0065386D01*
X0032584Y0066613D01*
X0032115Y0067747D01*
X0031500Y0068362D01*
X0031500Y0071638D01*
X0032115Y0072253D01*
X0032584Y0073386D01*
X0032584Y0074613D01*
X0032115Y0075747D01*
X0031247Y0076615D01*
X0030113Y0077084D01*
X0031249Y0077887D02*
X0025751Y0077887D01*
X0026749Y0078885D02*
X0030251Y0078885D01*
X0029252Y0079884D02*
X0027748Y0079884D01*
X0028414Y0076888D02*
X0018800Y0076888D01*
X0018800Y0075890D02*
X0027028Y0075890D01*
X0026531Y0074891D02*
X0018800Y0074891D01*
X0018800Y0073893D02*
X0026416Y0073893D01*
X0026620Y0072894D02*
X0018858Y0072894D01*
X0019857Y0071896D02*
X0027242Y0071896D01*
X0027500Y0070897D02*
X0020855Y0070897D01*
X0021800Y0069899D02*
X0027500Y0069899D01*
X0027500Y0068900D02*
X0021800Y0068900D01*
X0021800Y0067902D02*
X0027040Y0067902D01*
X0026536Y0066903D02*
X0021800Y0066903D01*
X0021800Y0065905D02*
X0026416Y0065905D01*
X0026615Y0064906D02*
X0021800Y0064906D01*
X0021800Y0063908D02*
X0027230Y0063908D01*
X0029500Y0066000D02*
X0029500Y0074000D01*
X0031758Y0071896D02*
X0041500Y0071896D01*
X0041500Y0072894D02*
X0032380Y0072894D01*
X0032584Y0073893D02*
X0041500Y0073893D01*
X0041500Y0074891D02*
X0032469Y0074891D01*
X0031972Y0075890D02*
X0041500Y0075890D01*
X0040251Y0078885D02*
X0036749Y0078885D01*
X0037748Y0079884D02*
X0039252Y0079884D01*
X0039000Y0080882D02*
X0038000Y0080882D01*
X0041500Y0070897D02*
X0031500Y0070897D01*
X0031500Y0069899D02*
X0041500Y0069899D01*
X0041500Y0068900D02*
X0031500Y0068900D01*
X0031960Y0067902D02*
X0041500Y0067902D01*
X0041500Y0066903D02*
X0032464Y0066903D01*
X0032584Y0065905D02*
X0041500Y0065905D01*
X0041500Y0064906D02*
X0032385Y0064906D01*
X0031769Y0063908D02*
X0041500Y0063908D01*
X0041500Y0062909D02*
X0021800Y0062909D01*
X0021800Y0061911D02*
X0041049Y0061911D01*
X0040539Y0060912D02*
X0021800Y0060912D01*
X0021800Y0059914D02*
X0040416Y0059914D01*
X0040611Y0058915D02*
X0021800Y0058915D01*
X0021800Y0057917D02*
X0041222Y0057917D01*
X0042881Y0056918D02*
X0021800Y0056918D01*
X0021800Y0055920D02*
X0089674Y0055920D01*
X0088262Y0056918D02*
X0044119Y0056918D01*
X0045778Y0057917D02*
X0087526Y0057917D01*
X0093750Y0054921D02*
X0021800Y0054921D01*
X0021800Y0053923D02*
X0094749Y0053923D01*
X0098439Y0075890D02*
X0113782Y0075890D01*
X0112783Y0076888D02*
X0097440Y0076888D01*
X0096442Y0077887D02*
X0100785Y0077887D01*
X0099786Y0078885D02*
X0095443Y0078885D01*
X0094445Y0079884D02*
X0098788Y0079884D01*
X0098672Y0080000D02*
X0098672Y0080000D01*
X0097789Y0080882D02*
X0093446Y0080882D01*
X0092448Y0081881D02*
X0097500Y0081881D01*
X0095542Y0082879D02*
X0094458Y0082879D01*
X0092750Y0084000D02*
X0092750Y0087000D01*
X0092750Y0084000D02*
X0088250Y0084000D01*
X0088250Y0087000D01*
X0092750Y0087000D01*
X0092750Y0084999D02*
X0088250Y0084999D01*
X0088250Y0085998D02*
X0092750Y0085998D01*
X0092750Y0086997D02*
X0088250Y0086997D01*
X0087292Y0088870D02*
X0086522Y0088870D01*
X0090000Y0089869D02*
X0091000Y0089869D01*
X0091000Y0089000D02*
X0093013Y0089000D01*
X0093522Y0089136D01*
X0093978Y0089400D01*
X0094350Y0089772D01*
X0094614Y0090228D01*
X0094750Y0090737D01*
X0094750Y0092000D01*
X0091000Y0092000D01*
X0091000Y0093000D01*
X0090000Y0093000D01*
X0090000Y0092000D01*
X0091000Y0092000D01*
X0091000Y0089000D01*
X0091000Y0090868D02*
X0090000Y0090868D01*
X0090000Y0091866D02*
X0091000Y0091866D01*
X0092750Y0091000D02*
X0092750Y0094000D01*
X0092750Y0091000D02*
X0088250Y0091000D01*
X0088250Y0094000D01*
X0092750Y0094000D01*
X0092750Y0091999D02*
X0088250Y0091999D01*
X0088250Y0092998D02*
X0092750Y0092998D01*
X0092750Y0093997D02*
X0088250Y0093997D01*
X0090000Y0093863D02*
X0091000Y0093863D01*
X0091000Y0093000D02*
X0091000Y0096000D01*
X0093013Y0096000D01*
X0093522Y0095864D01*
X0093978Y0095600D01*
X0094350Y0095228D01*
X0094614Y0094772D01*
X0094750Y0094263D01*
X0094750Y0093000D01*
X0091000Y0093000D01*
X0091000Y0092865D02*
X0095250Y0092865D01*
X0095250Y0093863D02*
X0094750Y0093863D01*
X0094562Y0094862D02*
X0095283Y0094862D01*
X0096282Y0095860D02*
X0093528Y0095860D01*
X0091000Y0095860D02*
X0090000Y0095860D01*
X0090000Y0094862D02*
X0091000Y0094862D01*
X0090000Y0092865D02*
X0083000Y0092865D01*
X0083000Y0093863D02*
X0082000Y0093863D01*
X0082000Y0094862D02*
X0083000Y0094862D01*
X0083000Y0095860D02*
X0082000Y0095860D01*
X0078145Y0095860D02*
X0077718Y0095860D01*
X0075608Y0098856D02*
X0097200Y0098856D01*
X0097200Y0099854D02*
X0076607Y0099854D01*
X0077605Y0100853D02*
X0097200Y0100853D01*
X0096936Y0101851D02*
X0078604Y0101851D01*
X0079602Y0102850D02*
X0096522Y0102850D01*
X0096500Y0103848D02*
X0090601Y0103848D01*
X0091599Y0104847D02*
X0096811Y0104847D01*
X0097603Y0105845D02*
X0092598Y0105845D01*
X0093596Y0106844D02*
X0108091Y0106844D01*
X0108200Y0107842D02*
X0094595Y0107842D01*
X0095593Y0108841D02*
X0108200Y0108841D01*
X0108200Y0109839D02*
X0095800Y0109839D01*
X0095800Y0110838D02*
X0101298Y0110838D01*
X0101636Y0110500D02*
X0099000Y0113136D01*
X0099000Y0114500D01*
X0103000Y0114500D01*
X0104000Y0114500D01*
X0104000Y0115500D01*
X0108000Y0115500D01*
X0108000Y0116864D01*
X0105364Y0119500D01*
X0104000Y0119500D01*
X0104000Y0115500D01*
X0103000Y0115500D01*
X0103000Y0119500D01*
X0101636Y0119500D01*
X0099000Y0116864D01*
X0099000Y0115500D01*
X0103000Y0115500D01*
X0103000Y0114500D01*
X0103000Y0110500D01*
X0101636Y0110500D01*
X0103000Y0110838D02*
X0104000Y0110838D01*
X0104000Y0110500D02*
X0105364Y0110500D01*
X0108000Y0113136D01*
X0108000Y0114500D01*
X0104000Y0114500D01*
X0104000Y0110500D01*
X0104000Y0111836D02*
X0103000Y0111836D01*
X0103000Y0112835D02*
X0104000Y0112835D01*
X0104000Y0113833D02*
X0103000Y0113833D01*
X0103000Y0114832D02*
X0098000Y0114832D01*
X0098000Y0115830D02*
X0099000Y0115830D01*
X0099000Y0116829D02*
X0098000Y0116829D01*
X0097037Y0117827D02*
X0099963Y0117827D01*
X0100962Y0118826D02*
X0096038Y0118826D01*
X0095800Y0119824D02*
X0108200Y0119824D01*
X0108200Y0118826D02*
X0106038Y0118826D01*
X0107037Y0117827D02*
X0108200Y0117827D01*
X0108200Y0116829D02*
X0108000Y0116829D01*
X0108000Y0115830D02*
X0108200Y0115830D01*
X0108200Y0114832D02*
X0104000Y0114832D01*
X0104000Y0115830D02*
X0103000Y0115830D01*
X0103000Y0116829D02*
X0104000Y0116829D01*
X0104000Y0117827D02*
X0103000Y0117827D01*
X0103000Y0118826D02*
X0104000Y0118826D01*
X0104000Y0120500D02*
X0105364Y0120500D01*
X0108000Y0123136D01*
X0108000Y0124500D01*
X0104000Y0124500D01*
X0104000Y0125500D01*
X0108000Y0125500D01*
X0108000Y0126864D01*
X0105364Y0129500D01*
X0104000Y0129500D01*
X0104000Y0125500D01*
X0103000Y0125500D01*
X0103000Y0129500D01*
X0101636Y0129500D01*
X0099000Y0126864D01*
X0099000Y0125500D01*
X0103000Y0125500D01*
X0103000Y0124500D01*
X0104000Y0124500D01*
X0104000Y0120500D01*
X0104000Y0120823D02*
X0103000Y0120823D01*
X0103000Y0120500D02*
X0103000Y0124500D01*
X0099000Y0124500D01*
X0099000Y0123136D01*
X0101636Y0120500D01*
X0103000Y0120500D01*
X0103000Y0121821D02*
X0104000Y0121821D01*
X0104000Y0122820D02*
X0103000Y0122820D01*
X0103000Y0123818D02*
X0104000Y0123818D01*
X0104000Y0124817D02*
X0108200Y0124817D01*
X0108200Y0125815D02*
X0108000Y0125815D01*
X0108000Y0126814D02*
X0108200Y0126814D01*
X0108200Y0127812D02*
X0107052Y0127812D01*
X0106053Y0128811D02*
X0108200Y0128811D01*
X0107438Y0129809D02*
X0059943Y0129809D01*
X0059800Y0130808D02*
X0070439Y0130808D01*
X0069441Y0131806D02*
X0059800Y0131806D01*
X0059800Y0132805D02*
X0068442Y0132805D01*
X0067444Y0133803D02*
X0059800Y0133803D01*
X0059800Y0134802D02*
X0066445Y0134802D01*
X0065447Y0135801D02*
X0059800Y0135801D01*
X0059800Y0136799D02*
X0064448Y0136799D01*
X0064200Y0137798D02*
X0059800Y0137798D01*
X0059800Y0138796D02*
X0064200Y0138796D01*
X0064200Y0139795D02*
X0059800Y0139795D01*
X0059800Y0140793D02*
X0064200Y0140793D01*
X0064200Y0141792D02*
X0059800Y0141792D01*
X0059800Y0142790D02*
X0064200Y0142790D01*
X0064200Y0143789D02*
X0059800Y0143789D01*
X0059800Y0144787D02*
X0064200Y0144787D01*
X0064200Y0145786D02*
X0059800Y0145786D01*
X0059800Y0146784D02*
X0064200Y0146784D01*
X0064200Y0147783D02*
X0059800Y0147783D01*
X0059800Y0148781D02*
X0065028Y0148781D01*
X0065547Y0149300D02*
X0065547Y0149300D01*
X0066027Y0149780D02*
X0060032Y0149780D01*
X0061031Y0150778D02*
X0067026Y0150778D01*
X0068024Y0151777D02*
X0062029Y0151777D01*
X0063028Y0152775D02*
X0069023Y0152775D01*
X0066023Y0155771D02*
X0074200Y0155771D01*
X0075017Y0156769D02*
X0067022Y0156769D01*
X0068020Y0157768D02*
X0076015Y0157768D01*
X0077014Y0158766D02*
X0069019Y0158766D01*
X0070017Y0159765D02*
X0085478Y0159765D01*
X0086364Y0160763D02*
X0071016Y0160763D01*
X0067506Y0163759D02*
X0038563Y0163759D01*
X0038918Y0163612D02*
X0036051Y0164799D01*
X0032949Y0164799D01*
X0030082Y0163612D01*
X0027888Y0161418D01*
X0026701Y0158551D01*
X0026701Y0155449D01*
X0027888Y0152582D01*
X0030082Y0150388D01*
X0032949Y0149201D01*
X0036051Y0149201D01*
X0038918Y0150388D01*
X0041112Y0152582D01*
X0042299Y0155449D01*
X0042299Y0158551D01*
X0041112Y0161418D01*
X0038918Y0163612D01*
X0039769Y0162760D02*
X0066508Y0162760D01*
X0065509Y0161762D02*
X0040768Y0161762D01*
X0041383Y0160763D02*
X0064511Y0160763D01*
X0063512Y0159765D02*
X0041797Y0159765D01*
X0042210Y0158766D02*
X0062514Y0158766D01*
X0061515Y0157768D02*
X0042299Y0157768D01*
X0042299Y0156769D02*
X0060517Y0156769D01*
X0059518Y0155771D02*
X0042299Y0155771D01*
X0042019Y0154772D02*
X0058520Y0154772D01*
X0057521Y0153774D02*
X0041605Y0153774D01*
X0041192Y0152775D02*
X0056523Y0152775D01*
X0055524Y0151777D02*
X0040306Y0151777D01*
X0039308Y0150778D02*
X0055200Y0150778D01*
X0055200Y0149780D02*
X0037449Y0149780D01*
X0031551Y0149780D02*
X0021800Y0149780D01*
X0021800Y0150778D02*
X0029692Y0150778D01*
X0028694Y0151777D02*
X0021800Y0151777D01*
X0021800Y0152775D02*
X0027808Y0152775D01*
X0027395Y0153774D02*
X0021800Y0153774D01*
X0021800Y0154772D02*
X0026981Y0154772D01*
X0026701Y0155771D02*
X0021800Y0155771D01*
X0021800Y0156769D02*
X0026701Y0156769D01*
X0026701Y0157768D02*
X0021800Y0157768D01*
X0021800Y0158766D02*
X0026790Y0158766D01*
X0027203Y0159765D02*
X0021800Y0159765D01*
X0021800Y0160763D02*
X0027617Y0160763D01*
X0028232Y0161762D02*
X0022014Y0161762D01*
X0023013Y0162760D02*
X0029231Y0162760D01*
X0030437Y0163759D02*
X0024012Y0163759D01*
X0025010Y0164757D02*
X0032848Y0164757D01*
X0036152Y0164757D02*
X0068505Y0164757D01*
X0069503Y0165756D02*
X0026009Y0165756D01*
X0027007Y0166754D02*
X0106002Y0166754D01*
X0107000Y0167753D02*
X0028006Y0167753D01*
X0029004Y0168751D02*
X0107473Y0168751D01*
X0107888Y0169750D02*
X0075503Y0169750D01*
X0076501Y0170748D02*
X0109076Y0170748D01*
X0111924Y0170748D02*
X0119367Y0170748D01*
X0118771Y0169750D02*
X0113112Y0169750D01*
X0113527Y0168751D02*
X0118400Y0168751D01*
X0118400Y0167753D02*
X0113584Y0167753D01*
X0113322Y0166754D02*
X0118562Y0166754D01*
X0118975Y0165756D02*
X0112618Y0165756D01*
X0110510Y0164757D02*
X0119862Y0164757D01*
X0121703Y0163759D02*
X0109512Y0163759D01*
X0108513Y0162760D02*
X0133487Y0162760D01*
X0134485Y0161762D02*
X0130455Y0161762D01*
X0131618Y0160763D02*
X0135484Y0160763D01*
X0136200Y0159765D02*
X0132223Y0159765D01*
X0132600Y0158766D02*
X0135905Y0158766D01*
X0135480Y0157768D02*
X0132600Y0157768D01*
X0132444Y0156769D02*
X0135416Y0156769D01*
X0135671Y0155771D02*
X0132031Y0155771D01*
X0131153Y0154772D02*
X0136366Y0154772D01*
X0140634Y0154772D02*
X0161981Y0154772D01*
X0161701Y0155449D02*
X0162888Y0152582D01*
X0165082Y0150388D01*
X0167949Y0149201D01*
X0171051Y0149201D01*
X0173918Y0150388D01*
X0176112Y0152582D01*
X0177299Y0155449D01*
X0177299Y0158551D01*
X0176112Y0161418D01*
X0173918Y0163612D01*
X0171051Y0164799D01*
X0167949Y0164799D01*
X0165082Y0163612D01*
X0162888Y0161418D01*
X0161701Y0158551D01*
X0161701Y0155449D01*
X0161701Y0155771D02*
X0141329Y0155771D01*
X0141584Y0156769D02*
X0161701Y0156769D01*
X0161701Y0157768D02*
X0141520Y0157768D01*
X0141095Y0158766D02*
X0161790Y0158766D01*
X0162203Y0159765D02*
X0140800Y0159765D01*
X0140800Y0160763D02*
X0162617Y0160763D01*
X0163232Y0161762D02*
X0140800Y0161762D01*
X0139992Y0162760D02*
X0164231Y0162760D01*
X0165437Y0163759D02*
X0138994Y0163759D01*
X0137995Y0164757D02*
X0167848Y0164757D01*
X0171152Y0164757D02*
X0196000Y0164757D01*
X0196000Y0163759D02*
X0173563Y0163759D01*
X0174769Y0162760D02*
X0196000Y0162760D01*
X0196000Y0161762D02*
X0175768Y0161762D01*
X0176383Y0160763D02*
X0196000Y0160763D01*
X0196000Y0159765D02*
X0176797Y0159765D01*
X0177210Y0158766D02*
X0196000Y0158766D01*
X0196000Y0157768D02*
X0177299Y0157768D01*
X0177299Y0156769D02*
X0196000Y0156769D01*
X0196000Y0155771D02*
X0177299Y0155771D01*
X0177019Y0154772D02*
X0196000Y0154772D01*
X0196000Y0153774D02*
X0176605Y0153774D01*
X0176192Y0152775D02*
X0196000Y0152775D01*
X0196000Y0151777D02*
X0175306Y0151777D01*
X0174308Y0150778D02*
X0196000Y0150778D01*
X0196000Y0149780D02*
X0172449Y0149780D01*
X0166551Y0149780D02*
X0130411Y0149780D01*
X0131600Y0148781D02*
X0196000Y0148781D01*
X0196000Y0147783D02*
X0132216Y0147783D01*
X0132600Y0146784D02*
X0196000Y0146784D01*
X0196000Y0145786D02*
X0132967Y0145786D01*
X0133966Y0144787D02*
X0196000Y0144787D01*
X0196000Y0143789D02*
X0134964Y0143789D01*
X0135800Y0142790D02*
X0196000Y0142790D01*
X0196000Y0141792D02*
X0135800Y0141792D01*
X0135800Y0140793D02*
X0196000Y0140793D01*
X0196000Y0139795D02*
X0135800Y0139795D01*
X0135800Y0138796D02*
X0196000Y0138796D01*
X0196000Y0137798D02*
X0135800Y0137798D01*
X0135800Y0136799D02*
X0196000Y0136799D01*
X0196000Y0135801D02*
X0135800Y0135801D01*
X0135800Y0134802D02*
X0196000Y0134802D01*
X0196000Y0133803D02*
X0135800Y0133803D01*
X0135800Y0132805D02*
X0196000Y0132805D01*
X0196000Y0131806D02*
X0139784Y0131806D01*
X0141054Y0130808D02*
X0196000Y0130808D01*
X0196000Y0129809D02*
X0156449Y0129809D01*
X0156378Y0129851D02*
X0155997Y0129953D01*
X0153740Y0129953D01*
X0153740Y0126000D01*
X0157299Y0126000D01*
X0157299Y0128650D01*
X0157197Y0129032D01*
X0156999Y0129374D01*
X0156720Y0129653D01*
X0156378Y0129851D01*
X0157256Y0128811D02*
X0196000Y0128811D01*
X0196000Y0127812D02*
X0157299Y0127812D01*
X0157299Y0126814D02*
X0196000Y0126814D01*
X0196000Y0125815D02*
X0153740Y0125815D01*
X0153740Y0124817D02*
X0152740Y0124817D01*
X0152740Y0123818D02*
X0153740Y0123818D01*
X0153740Y0122820D02*
X0152740Y0122820D01*
X0152740Y0121821D02*
X0153740Y0121821D01*
X0153189Y0119824D02*
X0152189Y0119824D01*
X0152189Y0118826D02*
X0153189Y0118826D01*
X0153189Y0117827D02*
X0152189Y0117827D01*
X0152189Y0116829D02*
X0153189Y0116829D01*
X0153189Y0115830D02*
X0152189Y0115830D01*
X0152189Y0114832D02*
X0153189Y0114832D01*
X0156445Y0119824D02*
X0156766Y0119824D01*
X0157112Y0121821D02*
X0196000Y0121821D01*
X0196000Y0120823D02*
X0125046Y0120823D01*
X0125150Y0121821D02*
X0141805Y0121821D01*
X0141701Y0122820D02*
X0125150Y0122820D01*
X0124632Y0119824D02*
X0133185Y0119824D01*
X0132941Y0118826D02*
X0123902Y0118826D01*
X0122577Y0117827D02*
X0132941Y0117827D01*
X0132941Y0116829D02*
X0112800Y0116829D01*
X0112800Y0117827D02*
X0118423Y0117827D01*
X0118574Y0116650D02*
X0115850Y0113926D01*
X0115850Y0112300D01*
X0120200Y0112300D01*
X0120200Y0116650D01*
X0118574Y0116650D01*
X0117754Y0115830D02*
X0112800Y0115830D01*
X0112800Y0114832D02*
X0116756Y0114832D01*
X0115850Y0113833D02*
X0112800Y0113833D01*
X0112800Y0112835D02*
X0115850Y0112835D01*
X0115850Y0111700D02*
X0115850Y0110074D01*
X0118574Y0107350D01*
X0120200Y0107350D01*
X0120200Y0111700D01*
X0115850Y0111700D01*
X0115850Y0110838D02*
X0112800Y0110838D01*
X0112800Y0111836D02*
X0120200Y0111836D01*
X0120200Y0111700D02*
X0120200Y0112300D01*
X0120800Y0112300D01*
X0120800Y0116650D01*
X0122426Y0116650D01*
X0125150Y0113926D01*
X0125150Y0112300D01*
X0120800Y0112300D01*
X0120800Y0111700D01*
X0125150Y0111700D01*
X0125150Y0110074D01*
X0122426Y0107350D01*
X0120800Y0107350D01*
X0120800Y0111700D01*
X0120200Y0111700D01*
X0120800Y0111836D02*
X0132941Y0111836D01*
X0132941Y0110838D02*
X0125150Y0110838D01*
X0124915Y0109839D02*
X0132941Y0109839D01*
X0132941Y0108841D02*
X0123917Y0108841D01*
X0122918Y0107842D02*
X0133477Y0107842D01*
X0133520Y0107800D02*
X0133862Y0107602D01*
X0134243Y0107500D01*
X0136441Y0107500D01*
X0136441Y0113500D01*
X0132941Y0113500D01*
X0132941Y0108803D01*
X0133043Y0108421D01*
X0133241Y0108079D01*
X0133520Y0107800D01*
X0136441Y0107842D02*
X0137441Y0107842D01*
X0137441Y0108841D02*
X0136441Y0108841D01*
X0136441Y0109839D02*
X0137441Y0109839D01*
X0137441Y0110838D02*
X0136441Y0110838D01*
X0136441Y0111836D02*
X0137441Y0111836D01*
X0137441Y0112835D02*
X0136441Y0112835D01*
X0136441Y0113833D02*
X0125150Y0113833D01*
X0125150Y0112835D02*
X0132941Y0112835D01*
X0132941Y0114832D02*
X0124244Y0114832D01*
X0123246Y0115830D02*
X0132941Y0115830D01*
X0136441Y0115830D02*
X0137441Y0115830D01*
X0137441Y0114832D02*
X0136441Y0114832D01*
X0136441Y0116829D02*
X0137441Y0116829D01*
X0137441Y0117827D02*
X0136441Y0117827D01*
X0136441Y0118826D02*
X0137441Y0118826D01*
X0137441Y0119824D02*
X0136441Y0119824D01*
X0140697Y0119824D02*
X0141018Y0119824D01*
X0148612Y0119824D02*
X0148933Y0119824D01*
X0152740Y0126814D02*
X0153740Y0126814D01*
X0153740Y0127812D02*
X0152740Y0127812D01*
X0152740Y0128811D02*
X0153740Y0128811D01*
X0153740Y0129809D02*
X0152740Y0129809D01*
X0150031Y0129809D02*
X0149084Y0129809D01*
X0142436Y0129809D02*
X0141503Y0129809D01*
X0141584Y0128811D02*
X0141701Y0128811D01*
X0137216Y0131806D02*
X0135559Y0131806D01*
X0135946Y0130808D02*
X0134561Y0130808D01*
X0135497Y0129809D02*
X0133562Y0129809D01*
X0132564Y0128811D02*
X0135416Y0128811D01*
X0122061Y0126814D02*
X0112800Y0126814D01*
X0112800Y0125815D02*
X0117739Y0125815D01*
X0116741Y0124817D02*
X0112800Y0124817D01*
X0112800Y0123818D02*
X0116220Y0123818D01*
X0115850Y0122820D02*
X0112800Y0122820D01*
X0112800Y0121821D02*
X0115850Y0121821D01*
X0115954Y0120823D02*
X0112800Y0120823D01*
X0112800Y0119824D02*
X0116368Y0119824D01*
X0117098Y0118826D02*
X0112800Y0118826D01*
X0108200Y0120823D02*
X0105687Y0120823D01*
X0106685Y0121821D02*
X0108200Y0121821D01*
X0108200Y0122820D02*
X0107684Y0122820D01*
X0108000Y0123818D02*
X0108200Y0123818D01*
X0104000Y0125815D02*
X0103000Y0125815D01*
X0103000Y0124817D02*
X0098000Y0124817D01*
X0098000Y0125815D02*
X0099000Y0125815D01*
X0099000Y0126814D02*
X0098000Y0126814D01*
X0097052Y0127812D02*
X0099948Y0127812D01*
X0100947Y0128811D02*
X0096053Y0128811D01*
X0090947Y0128811D02*
X0086053Y0128811D01*
X0087052Y0127812D02*
X0089948Y0127812D01*
X0089000Y0126814D02*
X0088000Y0126814D01*
X0088000Y0125815D02*
X0089000Y0125815D01*
X0089000Y0124817D02*
X0088000Y0124817D01*
X0088000Y0123818D02*
X0089000Y0123818D01*
X0089316Y0122820D02*
X0087684Y0122820D01*
X0086685Y0121821D02*
X0090315Y0121821D01*
X0091200Y0120823D02*
X0085800Y0120823D01*
X0085800Y0119824D02*
X0091200Y0119824D01*
X0090962Y0118826D02*
X0086038Y0118826D01*
X0087037Y0117827D02*
X0089963Y0117827D01*
X0089000Y0116829D02*
X0088000Y0116829D01*
X0088000Y0115830D02*
X0089000Y0115830D01*
X0089000Y0114832D02*
X0088000Y0114832D01*
X0088000Y0113833D02*
X0089000Y0113833D01*
X0089301Y0112835D02*
X0087699Y0112835D01*
X0086700Y0111836D02*
X0090300Y0111836D01*
X0091085Y0110838D02*
X0085702Y0110838D01*
X0089088Y0108841D02*
X0074593Y0108841D01*
X0073595Y0107842D02*
X0078090Y0107842D01*
X0077091Y0106844D02*
X0072596Y0106844D01*
X0075094Y0104847D02*
X0066772Y0104847D01*
X0066772Y0105845D02*
X0076092Y0105845D01*
X0074095Y0103848D02*
X0066772Y0103848D01*
X0066772Y0102850D02*
X0073097Y0102850D01*
X0072098Y0101851D02*
X0066772Y0101851D01*
X0066772Y0100853D02*
X0071100Y0100853D01*
X0070101Y0099854D02*
X0066772Y0099854D01*
X0065920Y0098856D02*
X0069103Y0098856D01*
X0068104Y0097857D02*
X0058110Y0097857D01*
X0058800Y0098856D02*
X0059080Y0098856D01*
X0057111Y0096859D02*
X0067106Y0096859D01*
X0066107Y0095860D02*
X0056004Y0095860D01*
X0057002Y0094862D02*
X0065109Y0094862D01*
X0064110Y0093863D02*
X0058000Y0093863D01*
X0058000Y0092865D02*
X0063200Y0092865D01*
X0063200Y0091866D02*
X0058000Y0091866D01*
X0058000Y0090868D02*
X0063200Y0090868D01*
X0063200Y0089869D02*
X0057733Y0089869D01*
X0069000Y0090000D02*
X0069000Y0087000D01*
X0069000Y0090000D02*
X0071500Y0092500D01*
X0074500Y0092500D01*
X0072250Y0091000D02*
X0072250Y0094000D01*
X0076750Y0094000D01*
X0076750Y0091000D01*
X0072250Y0091000D01*
X0072250Y0091999D02*
X0076750Y0091999D01*
X0076750Y0092998D02*
X0072250Y0092998D01*
X0072250Y0093997D02*
X0076750Y0093997D01*
X0073611Y0096859D02*
X0097200Y0096859D01*
X0097200Y0097857D02*
X0074610Y0097857D01*
X0075592Y0109839D02*
X0090087Y0109839D01*
X0096700Y0111836D02*
X0100300Y0111836D01*
X0099301Y0112835D02*
X0097699Y0112835D01*
X0098000Y0113833D02*
X0099000Y0113833D01*
X0105702Y0110838D02*
X0108200Y0110838D01*
X0108200Y0111836D02*
X0106700Y0111836D01*
X0107699Y0112835D02*
X0108200Y0112835D01*
X0108200Y0113833D02*
X0108000Y0113833D01*
X0112800Y0109839D02*
X0116085Y0109839D01*
X0117083Y0108841D02*
X0112800Y0108841D01*
X0112800Y0107842D02*
X0118082Y0107842D01*
X0120200Y0107842D02*
X0120800Y0107842D01*
X0120800Y0108841D02*
X0120200Y0108841D01*
X0120200Y0109839D02*
X0120800Y0109839D01*
X0120800Y0110838D02*
X0120200Y0110838D01*
X0120200Y0112835D02*
X0120800Y0112835D01*
X0120800Y0113833D02*
X0120200Y0113833D01*
X0120200Y0114832D02*
X0120800Y0114832D01*
X0120800Y0115830D02*
X0120200Y0115830D01*
X0112909Y0106844D02*
X0139850Y0106844D01*
X0139850Y0105845D02*
X0113907Y0105845D01*
X0109673Y0100853D02*
X0128395Y0100853D01*
X0129393Y0099854D02*
X0111008Y0099854D01*
X0111484Y0098856D02*
X0130392Y0098856D01*
X0131200Y0097857D02*
X0111584Y0097857D01*
X0111366Y0096859D02*
X0131200Y0096859D01*
X0130282Y0095860D02*
X0127528Y0095860D01*
X0127522Y0095864D02*
X0127013Y0096000D01*
X0125000Y0096000D01*
X0125000Y0093000D01*
X0128750Y0093000D01*
X0128750Y0094263D01*
X0128614Y0094772D01*
X0128350Y0095228D01*
X0127978Y0095600D01*
X0127522Y0095864D01*
X0128562Y0094862D02*
X0129283Y0094862D01*
X0129250Y0093863D02*
X0128750Y0093863D01*
X0129250Y0092865D02*
X0125000Y0092865D01*
X0126750Y0094000D02*
X0126750Y0091000D01*
X0122250Y0091000D01*
X0122250Y0094000D01*
X0126750Y0094000D01*
X0126750Y0091999D02*
X0122250Y0091999D01*
X0122250Y0092998D02*
X0126750Y0092998D01*
X0126750Y0093997D02*
X0122250Y0093997D01*
X0124000Y0093863D02*
X0125000Y0093863D01*
X0125000Y0094862D02*
X0124000Y0094862D01*
X0124000Y0095860D02*
X0125000Y0095860D01*
X0124000Y0092865D02*
X0117000Y0092865D01*
X0117000Y0093863D02*
X0116000Y0093863D01*
X0116000Y0094862D02*
X0117000Y0094862D01*
X0117000Y0095860D02*
X0116000Y0095860D01*
X0112145Y0095860D02*
X0111718Y0095860D01*
X0108500Y0098000D02*
X0108500Y0092500D01*
X0106250Y0091000D02*
X0106250Y0094000D01*
X0110750Y0094000D01*
X0110750Y0091000D01*
X0106250Y0091000D01*
X0106250Y0091999D02*
X0110750Y0091999D01*
X0110750Y0092998D02*
X0106250Y0092998D01*
X0106250Y0093997D02*
X0110750Y0093997D01*
X0112161Y0089582D02*
X0112347Y0089260D01*
X0112607Y0089000D01*
X0112093Y0088486D01*
X0111578Y0089000D01*
X0105422Y0089000D01*
X0111578Y0089000D01*
X0112161Y0089582D01*
X0112478Y0088870D02*
X0111708Y0088870D01*
X0114260Y0085500D02*
X0108500Y0085500D01*
X0106250Y0084000D02*
X0106250Y0087000D01*
X0110750Y0087000D01*
X0110750Y0084000D01*
X0106250Y0084000D01*
X0106250Y0084999D02*
X0110750Y0084999D01*
X0110750Y0085998D02*
X0106250Y0085998D01*
X0106250Y0086997D02*
X0110750Y0086997D01*
X0114260Y0085500D02*
X0116500Y0085260D01*
X0123260Y0085260D01*
X0124500Y0085500D01*
X0126750Y0087000D02*
X0126750Y0084000D01*
X0122250Y0084000D01*
X0122250Y0087000D01*
X0126750Y0087000D01*
X0126750Y0084999D02*
X0122250Y0084999D01*
X0122250Y0085998D02*
X0126750Y0085998D01*
X0126750Y0086997D02*
X0122250Y0086997D01*
X0121292Y0088870D02*
X0120522Y0088870D01*
X0124000Y0089869D02*
X0125000Y0089869D01*
X0125000Y0089000D02*
X0127013Y0089000D01*
X0127522Y0089136D01*
X0127978Y0089400D01*
X0128350Y0089772D01*
X0128614Y0090228D01*
X0128750Y0090737D01*
X0128750Y0092000D01*
X0125000Y0092000D01*
X0125000Y0089000D01*
X0125000Y0090868D02*
X0124000Y0090868D01*
X0124000Y0091866D02*
X0125000Y0091866D01*
X0128750Y0091866D02*
X0129250Y0091866D01*
X0129250Y0090868D02*
X0128750Y0090868D01*
X0128406Y0089869D02*
X0129553Y0089869D01*
X0130292Y0088870D02*
X0127708Y0088870D01*
X0128706Y0087872D02*
X0129294Y0087872D01*
X0133500Y0085500D02*
X0124500Y0085500D01*
X0128458Y0082879D02*
X0129542Y0082879D01*
X0131500Y0081881D02*
X0120754Y0081881D01*
X0117442Y0077887D02*
X0127558Y0077887D01*
X0126560Y0076888D02*
X0118440Y0076888D01*
X0118500Y0075890D02*
X0125561Y0075890D01*
X0124563Y0074891D02*
X0118500Y0074891D01*
X0118779Y0073893D02*
X0124221Y0073893D01*
X0123075Y0072894D02*
X0119925Y0072894D01*
X0120551Y0071896D02*
X0122449Y0071896D01*
X0122035Y0070897D02*
X0120965Y0070897D01*
X0120968Y0069899D02*
X0122031Y0069899D01*
X0122119Y0068900D02*
X0120881Y0068900D01*
X0120468Y0067902D02*
X0122532Y0067902D01*
X0123277Y0066903D02*
X0119723Y0066903D01*
X0118290Y0065905D02*
X0124710Y0065905D01*
X0128290Y0065905D02*
X0134710Y0065905D01*
X0133969Y0066212D02*
X0132712Y0067469D01*
X0132031Y0069111D01*
X0132031Y0070889D01*
X0132712Y0072531D01*
X0133969Y0073788D01*
X0135611Y0074468D01*
X0137389Y0074468D01*
X0139031Y0073788D01*
X0140288Y0072531D01*
X0140968Y0070889D01*
X0140968Y0069111D01*
X0140288Y0067469D01*
X0139031Y0066212D01*
X0137389Y0065531D01*
X0135611Y0065531D01*
X0133969Y0066212D01*
X0133277Y0066903D02*
X0129723Y0066903D01*
X0130468Y0067902D02*
X0132532Y0067902D01*
X0132119Y0068900D02*
X0130881Y0068900D01*
X0130968Y0069899D02*
X0132031Y0069899D01*
X0132035Y0070897D02*
X0130965Y0070897D01*
X0130551Y0071896D02*
X0132449Y0071896D01*
X0133075Y0072894D02*
X0129925Y0072894D01*
X0129221Y0073893D02*
X0134221Y0073893D01*
X0132217Y0076888D02*
X0138283Y0076888D01*
X0137500Y0077887D02*
X0133215Y0077887D01*
X0134214Y0078885D02*
X0137500Y0078885D01*
X0137500Y0079884D02*
X0135212Y0079884D01*
X0135500Y0080882D02*
X0137500Y0080882D01*
X0137552Y0081881D02*
X0135500Y0081881D01*
X0133500Y0081000D02*
X0126500Y0074000D01*
X0126500Y0070000D01*
X0130220Y0074891D02*
X0140280Y0074891D01*
X0139282Y0075890D02*
X0131218Y0075890D01*
X0128557Y0078885D02*
X0116443Y0078885D01*
X0115445Y0079884D02*
X0129555Y0079884D01*
X0130554Y0080882D02*
X0114446Y0080882D01*
X0113500Y0079000D02*
X0102500Y0079000D01*
X0099500Y0082000D01*
X0099500Y0085500D01*
X0097250Y0084000D02*
X0097250Y0087000D01*
X0101750Y0087000D01*
X0101750Y0084000D01*
X0097250Y0084000D01*
X0097250Y0084999D02*
X0101750Y0084999D01*
X0101750Y0085998D02*
X0097250Y0085998D01*
X0097250Y0086997D02*
X0101750Y0086997D01*
X0103750Y0086873D02*
X0104250Y0086873D01*
X0104250Y0085875D02*
X0103750Y0085875D01*
X0103750Y0084876D02*
X0104250Y0084876D01*
X0104250Y0083878D02*
X0103750Y0083878D01*
X0103458Y0082879D02*
X0104542Y0082879D01*
X0102447Y0081881D02*
X0112246Y0081881D01*
X0113500Y0079000D02*
X0116500Y0076000D01*
X0116500Y0070000D01*
X0099500Y0085500D02*
X0090500Y0085500D01*
X0078740Y0085500D01*
X0074500Y0085500D01*
X0072250Y0084000D02*
X0072250Y0087000D01*
X0076750Y0087000D01*
X0076750Y0084000D01*
X0072250Y0084000D01*
X0072250Y0084999D02*
X0076750Y0084999D01*
X0076750Y0085998D02*
X0072250Y0085998D01*
X0072250Y0086997D02*
X0076750Y0086997D01*
X0078740Y0085500D02*
X0082500Y0085260D01*
X0086855Y0095860D02*
X0087472Y0095860D01*
X0094750Y0091866D02*
X0095250Y0091866D01*
X0095250Y0090868D02*
X0094750Y0090868D01*
X0094406Y0089869D02*
X0095553Y0089869D01*
X0096292Y0088870D02*
X0093708Y0088870D01*
X0094706Y0087872D02*
X0095294Y0087872D01*
X0097250Y0091000D02*
X0097250Y0094000D01*
X0101750Y0094000D01*
X0101750Y0091000D01*
X0097250Y0091000D01*
X0097250Y0091999D02*
X0101750Y0091999D01*
X0101750Y0092998D02*
X0097250Y0092998D01*
X0097250Y0093997D02*
X0101750Y0093997D01*
X0103750Y0093863D02*
X0104250Y0093863D01*
X0104250Y0092865D02*
X0103750Y0092865D01*
X0103750Y0091866D02*
X0104250Y0091866D01*
X0104250Y0090868D02*
X0103750Y0090868D01*
X0103447Y0089869D02*
X0104553Y0089869D01*
X0105292Y0088870D02*
X0102708Y0088870D01*
X0103706Y0087872D02*
X0104294Y0087872D01*
X0104283Y0094862D02*
X0103717Y0094862D01*
X0102718Y0095860D02*
X0105282Y0095860D01*
X0105634Y0096859D02*
X0101800Y0096859D01*
X0101800Y0097857D02*
X0105416Y0097857D01*
X0105516Y0098856D02*
X0101800Y0098856D01*
X0101800Y0099854D02*
X0105992Y0099854D01*
X0107327Y0100853D02*
X0101800Y0100853D01*
X0101397Y0105845D02*
X0107092Y0105845D01*
X0120855Y0095860D02*
X0121472Y0095860D01*
X0130906Y0104847D02*
X0139850Y0104847D01*
X0140576Y0103848D02*
X0131905Y0103848D01*
X0132903Y0102850D02*
X0141574Y0102850D01*
X0141032Y0101851D02*
X0133902Y0101851D01*
X0134900Y0100853D02*
X0140431Y0100853D01*
X0140031Y0099854D02*
X0135800Y0099854D01*
X0135800Y0098856D02*
X0140031Y0098856D01*
X0140137Y0097857D02*
X0135800Y0097857D01*
X0135800Y0096859D02*
X0140550Y0096859D01*
X0141321Y0095860D02*
X0136718Y0095860D01*
X0137717Y0094862D02*
X0142814Y0094862D01*
X0144016Y0093468D02*
X0141334Y0093468D01*
X0140953Y0093366D01*
X0140610Y0093169D01*
X0140331Y0092890D01*
X0140134Y0092547D01*
X0140031Y0092166D01*
X0140031Y0089484D01*
X0144016Y0089484D01*
X0144016Y0093468D01*
X0144016Y0092865D02*
X0144984Y0092865D01*
X0144984Y0091866D02*
X0144016Y0091866D01*
X0144016Y0090868D02*
X0144984Y0090868D01*
X0144984Y0089869D02*
X0144016Y0089869D01*
X0144016Y0088870D02*
X0136708Y0088870D01*
X0137447Y0089869D02*
X0140031Y0089869D01*
X0140031Y0090868D02*
X0137750Y0090868D01*
X0137750Y0091866D02*
X0140031Y0091866D01*
X0140317Y0092865D02*
X0137750Y0092865D01*
X0137750Y0093863D02*
X0147500Y0093863D01*
X0147500Y0094862D02*
X0146186Y0094862D01*
X0140031Y0087872D02*
X0137706Y0087872D01*
X0137750Y0086873D02*
X0140031Y0086873D01*
X0140031Y0085875D02*
X0137750Y0085875D01*
X0137750Y0084876D02*
X0140548Y0084876D01*
X0139550Y0083878D02*
X0137750Y0083878D01*
X0137458Y0082879D02*
X0138551Y0082879D01*
X0139500Y0081000D02*
X0139500Y0078500D01*
X0141500Y0076500D01*
X0154000Y0076500D01*
X0156500Y0074000D01*
X0156500Y0070000D01*
X0153277Y0066903D02*
X0149723Y0066903D01*
X0150288Y0067469D02*
X0150968Y0069111D01*
X0150968Y0070889D01*
X0150288Y0072531D01*
X0149031Y0073788D01*
X0147389Y0074468D01*
X0145611Y0074468D01*
X0143969Y0073788D01*
X0142712Y0072531D01*
X0142031Y0070889D01*
X0142031Y0069111D01*
X0142712Y0067469D01*
X0143969Y0066212D01*
X0145611Y0065531D01*
X0147389Y0065531D01*
X0149031Y0066212D01*
X0150288Y0067469D01*
X0150468Y0067902D02*
X0152532Y0067902D01*
X0152119Y0068900D02*
X0150881Y0068900D01*
X0150968Y0069899D02*
X0152031Y0069899D01*
X0152035Y0070897D02*
X0150965Y0070897D01*
X0150551Y0071896D02*
X0152449Y0071896D01*
X0153075Y0072894D02*
X0149925Y0072894D01*
X0148779Y0073893D02*
X0153779Y0073893D01*
X0156440Y0076888D02*
X0175359Y0076888D01*
X0175026Y0075890D02*
X0157439Y0075890D01*
X0158437Y0074891D02*
X0174027Y0074891D01*
X0174000Y0073893D02*
X0168779Y0073893D01*
X0169031Y0073788D02*
X0167389Y0074468D01*
X0165611Y0074468D01*
X0163969Y0073788D01*
X0162712Y0072531D01*
X0162031Y0070889D01*
X0162031Y0069111D01*
X0162712Y0067469D01*
X0163969Y0066212D01*
X0165611Y0065531D01*
X0167389Y0065531D01*
X0169031Y0066212D01*
X0170288Y0067469D01*
X0170968Y0069111D01*
X0170968Y0070889D01*
X0170288Y0072531D01*
X0169031Y0073788D01*
X0169925Y0072894D02*
X0174000Y0072894D01*
X0174000Y0071896D02*
X0170551Y0071896D01*
X0170965Y0070897D02*
X0174239Y0070897D01*
X0175237Y0069899D02*
X0170968Y0069899D01*
X0170881Y0068900D02*
X0176236Y0068900D01*
X0176039Y0066903D02*
X0169723Y0066903D01*
X0170468Y0067902D02*
X0186746Y0067902D01*
X0185246Y0068900D02*
X0180764Y0068900D01*
X0181763Y0069899D02*
X0184247Y0069899D01*
X0183743Y0070897D02*
X0182761Y0070897D01*
X0183000Y0071896D02*
X0183329Y0071896D01*
X0183300Y0072894D02*
X0183000Y0072894D01*
X0183000Y0073893D02*
X0183300Y0073893D01*
X0182973Y0074891D02*
X0183655Y0074891D01*
X0184069Y0075890D02*
X0181974Y0075890D01*
X0180976Y0076888D02*
X0185034Y0076888D01*
X0186710Y0077887D02*
X0180800Y0077887D01*
X0179867Y0078885D02*
X0191786Y0078885D01*
X0192500Y0077887D02*
X0190290Y0077887D01*
X0191966Y0076888D02*
X0192500Y0076888D01*
X0194500Y0079000D02*
X0190500Y0083000D01*
X0156500Y0083000D01*
X0154500Y0085000D01*
X0154500Y0089000D01*
X0149500Y0085000D02*
X0148000Y0083500D01*
X0142000Y0083500D01*
X0139500Y0081000D01*
X0133500Y0081000D02*
X0133500Y0085500D01*
X0131250Y0084000D02*
X0131250Y0087000D01*
X0135750Y0087000D01*
X0135750Y0084000D01*
X0131250Y0084000D01*
X0131250Y0084999D02*
X0135750Y0084999D01*
X0135750Y0085998D02*
X0131250Y0085998D01*
X0131250Y0086997D02*
X0135750Y0086997D01*
X0131250Y0091000D02*
X0131250Y0094000D01*
X0135750Y0094000D01*
X0135750Y0091000D01*
X0131250Y0091000D01*
X0131250Y0091999D02*
X0135750Y0091999D01*
X0135750Y0092998D02*
X0131250Y0092998D01*
X0131250Y0093997D02*
X0135750Y0093997D01*
X0149500Y0085000D02*
X0149500Y0104000D01*
X0151500Y0106000D01*
X0159500Y0106000D02*
X0159500Y0094000D01*
X0164500Y0089000D01*
X0169500Y0094000D02*
X0174500Y0089000D01*
X0169500Y0094000D02*
X0169500Y0106000D01*
X0168437Y0107063D01*
X0168437Y0114000D01*
X0164640Y0119824D02*
X0164360Y0119824D01*
X0160563Y0114000D02*
X0160563Y0107063D01*
X0159500Y0106000D01*
X0172234Y0119824D02*
X0172514Y0119824D01*
X0176311Y0114000D02*
X0176311Y0107189D01*
X0175122Y0106000D01*
X0184185Y0114000D02*
X0184185Y0094685D01*
X0183500Y0094000D01*
X0177870Y0080882D02*
X0189789Y0080882D01*
X0190788Y0079884D02*
X0178869Y0079884D01*
X0179000Y0066903D02*
X0178000Y0066903D01*
X0178000Y0065905D02*
X0179000Y0065905D01*
X0179000Y0064906D02*
X0178000Y0064906D01*
X0178000Y0063908D02*
X0179000Y0063908D01*
X0181959Y0065905D02*
X0184075Y0065905D01*
X0183661Y0064906D02*
X0182958Y0064906D01*
X0183000Y0063908D02*
X0183300Y0063908D01*
X0185049Y0066903D02*
X0180961Y0066903D01*
X0175041Y0065905D02*
X0168290Y0065905D01*
X0164710Y0065905D02*
X0158290Y0065905D01*
X0159723Y0066903D02*
X0163277Y0066903D01*
X0162532Y0067902D02*
X0160468Y0067902D01*
X0160881Y0068900D02*
X0162119Y0068900D01*
X0162031Y0069899D02*
X0160968Y0069899D01*
X0160965Y0070897D02*
X0162035Y0070897D01*
X0162449Y0071896D02*
X0160551Y0071896D01*
X0159925Y0072894D02*
X0163075Y0072894D01*
X0164221Y0073893D02*
X0158779Y0073893D01*
X0154710Y0065905D02*
X0148290Y0065905D01*
X0144710Y0065905D02*
X0138290Y0065905D01*
X0139723Y0066903D02*
X0143277Y0066903D01*
X0142532Y0067902D02*
X0140468Y0067902D01*
X0140881Y0068900D02*
X0142119Y0068900D01*
X0142031Y0069899D02*
X0140968Y0069899D01*
X0140965Y0070897D02*
X0142035Y0070897D01*
X0142449Y0071896D02*
X0140551Y0071896D01*
X0139925Y0072894D02*
X0143075Y0072894D01*
X0144221Y0073893D02*
X0138779Y0073893D01*
X0139642Y0044936D02*
X0143358Y0044936D01*
X0142359Y0043937D02*
X0140641Y0043937D01*
X0138750Y0043000D02*
X0138750Y0040000D01*
X0134250Y0040000D01*
X0134250Y0043000D01*
X0138750Y0043000D01*
X0138750Y0040999D02*
X0134250Y0040999D01*
X0134250Y0041998D02*
X0138750Y0041998D01*
X0138750Y0042997D02*
X0134250Y0042997D01*
X0132359Y0043937D02*
X0130641Y0043937D01*
X0129642Y0044936D02*
X0133358Y0044936D01*
X0132477Y0038945D02*
X0130523Y0038945D01*
X0129632Y0037946D02*
X0133368Y0037946D01*
X0132369Y0036948D02*
X0130631Y0036948D01*
X0130750Y0035949D02*
X0132250Y0035949D01*
X0132250Y0034951D02*
X0130750Y0034951D01*
X0130750Y0033952D02*
X0132250Y0033952D01*
X0132250Y0032954D02*
X0130750Y0032954D01*
X0130534Y0031955D02*
X0132466Y0031955D01*
X0134500Y0030957D02*
X0128500Y0030957D01*
X0128500Y0029958D02*
X0134500Y0029958D01*
X0134500Y0028960D02*
X0128500Y0028960D01*
X0128500Y0027961D02*
X0134500Y0027961D01*
X0134500Y0026963D02*
X0128500Y0026963D01*
X0128500Y0025964D02*
X0134500Y0025964D01*
X0134500Y0024966D02*
X0128896Y0024966D01*
X0129438Y0023967D02*
X0134500Y0023967D01*
X0134500Y0022969D02*
X0129584Y0022969D01*
X0129412Y0021970D02*
X0134108Y0021970D01*
X0133564Y0020972D02*
X0128834Y0020972D01*
X0128500Y0019973D02*
X0133416Y0019973D01*
X0133586Y0018975D02*
X0128500Y0018975D01*
X0128500Y0017976D02*
X0134162Y0017976D01*
X0134500Y0016978D02*
X0128500Y0016978D01*
X0128500Y0015979D02*
X0134500Y0015979D01*
X0134500Y0014981D02*
X0128500Y0014981D01*
X0128563Y0013982D02*
X0134437Y0013982D01*
X0133164Y0012984D02*
X0129836Y0012984D01*
X0130514Y0011985D02*
X0132486Y0011985D01*
X0132072Y0010987D02*
X0130928Y0010987D01*
X0130968Y0009988D02*
X0132031Y0009988D01*
X0132082Y0008990D02*
X0130918Y0008990D01*
X0130505Y0007991D02*
X0132495Y0007991D01*
X0133188Y0006993D02*
X0129812Y0006993D01*
X0128506Y0005994D02*
X0134494Y0005994D01*
X0138506Y0005994D02*
X0144494Y0005994D01*
X0143188Y0006993D02*
X0139812Y0006993D01*
X0140505Y0007991D02*
X0142495Y0007991D01*
X0142082Y0008990D02*
X0140918Y0008990D01*
X0140968Y0009988D02*
X0142031Y0009988D01*
X0142072Y0010987D02*
X0140928Y0010987D01*
X0140514Y0011985D02*
X0142486Y0011985D01*
X0143164Y0012984D02*
X0139836Y0012984D01*
X0138563Y0013982D02*
X0144437Y0013982D01*
X0144158Y0014981D02*
X0138500Y0014981D01*
X0138500Y0015979D02*
X0143584Y0015979D01*
X0143416Y0016978D02*
X0138500Y0016978D01*
X0138838Y0017976D02*
X0143566Y0017976D01*
X0144113Y0018975D02*
X0139414Y0018975D01*
X0139584Y0019973D02*
X0144500Y0019973D01*
X0144500Y0020972D02*
X0139436Y0020972D01*
X0138892Y0021970D02*
X0144500Y0021970D01*
X0144500Y0022969D02*
X0138500Y0022969D01*
X0138500Y0023967D02*
X0144500Y0023967D01*
X0144500Y0024966D02*
X0138500Y0024966D01*
X0138500Y0025964D02*
X0144500Y0025964D01*
X0144500Y0026963D02*
X0138500Y0026963D01*
X0138500Y0027961D02*
X0144500Y0027961D01*
X0144500Y0028960D02*
X0138500Y0028960D01*
X0138500Y0029958D02*
X0144500Y0029958D01*
X0144500Y0030957D02*
X0138500Y0030957D01*
X0140534Y0031955D02*
X0142466Y0031955D01*
X0142250Y0032954D02*
X0140750Y0032954D01*
X0140750Y0033952D02*
X0142250Y0033952D01*
X0142250Y0034951D02*
X0140750Y0034951D01*
X0140750Y0035949D02*
X0142250Y0035949D01*
X0142369Y0036948D02*
X0140631Y0036948D01*
X0139632Y0037946D02*
X0143368Y0037946D01*
X0142477Y0038945D02*
X0140523Y0038945D01*
X0138750Y0036000D02*
X0138750Y0033000D01*
X0134250Y0033000D01*
X0134250Y0036000D01*
X0138750Y0036000D01*
X0138750Y0033999D02*
X0134250Y0033999D01*
X0134250Y0034998D02*
X0138750Y0034998D01*
X0138750Y0035997D02*
X0134250Y0035997D01*
X0136500Y0034500D02*
X0136500Y0020000D01*
X0136500Y0010000D01*
X0126500Y0010000D02*
X0126500Y0023000D01*
X0126500Y0034500D01*
X0128750Y0036000D02*
X0128750Y0033000D01*
X0124250Y0033000D01*
X0124250Y0036000D01*
X0128750Y0036000D01*
X0128750Y0033999D02*
X0124250Y0033999D01*
X0124250Y0034998D02*
X0128750Y0034998D01*
X0128750Y0035997D02*
X0124250Y0035997D01*
X0128750Y0040000D02*
X0128750Y0043000D01*
X0128750Y0040000D02*
X0124250Y0040000D01*
X0124250Y0043000D01*
X0128750Y0043000D01*
X0128750Y0040999D02*
X0124250Y0040999D01*
X0124250Y0041998D02*
X0128750Y0041998D01*
X0128750Y0042997D02*
X0124250Y0042997D01*
X0148750Y0043000D02*
X0148750Y0040000D01*
X0144250Y0040000D01*
X0144250Y0043000D01*
X0148750Y0043000D01*
X0148750Y0040999D02*
X0144250Y0040999D01*
X0144250Y0041998D02*
X0148750Y0041998D01*
X0148750Y0042997D02*
X0144250Y0042997D01*
X0149642Y0044936D02*
X0153358Y0044936D01*
X0152359Y0043937D02*
X0150641Y0043937D01*
X0150523Y0038945D02*
X0152477Y0038945D01*
X0153368Y0037946D02*
X0149632Y0037946D01*
X0150631Y0036948D02*
X0152369Y0036948D01*
X0152250Y0035949D02*
X0150750Y0035949D01*
X0150750Y0034951D02*
X0152250Y0034951D01*
X0152250Y0033952D02*
X0150750Y0033952D01*
X0150750Y0032954D02*
X0152250Y0032954D01*
X0152466Y0031955D02*
X0150534Y0031955D01*
X0148500Y0030957D02*
X0154500Y0030957D01*
X0154500Y0029958D02*
X0148500Y0029958D01*
X0148500Y0028960D02*
X0154500Y0028960D01*
X0154500Y0027961D02*
X0148500Y0027961D01*
X0148500Y0026963D02*
X0154500Y0026963D01*
X0154500Y0025964D02*
X0148500Y0025964D01*
X0148500Y0024966D02*
X0154500Y0024966D01*
X0154500Y0023967D02*
X0148500Y0023967D01*
X0148500Y0022969D02*
X0154500Y0022969D01*
X0154500Y0021970D02*
X0148500Y0021970D01*
X0148500Y0020972D02*
X0154500Y0020972D01*
X0154500Y0019973D02*
X0148500Y0019973D01*
X0148887Y0018975D02*
X0154500Y0018975D01*
X0154500Y0017976D02*
X0149434Y0017976D01*
X0149584Y0016978D02*
X0154500Y0016978D01*
X0153774Y0015979D02*
X0149416Y0015979D01*
X0148842Y0014981D02*
X0153416Y0014981D01*
X0153416Y0013982D02*
X0148563Y0013982D01*
X0149836Y0012984D02*
X0153164Y0012984D01*
X0152486Y0011985D02*
X0150514Y0011985D01*
X0150928Y0010987D02*
X0152072Y0010987D01*
X0152031Y0009988D02*
X0150968Y0009988D01*
X0150918Y0008990D02*
X0152082Y0008990D01*
X0152495Y0007991D02*
X0150505Y0007991D01*
X0149812Y0006993D02*
X0153188Y0006993D01*
X0154494Y0005994D02*
X0148506Y0005994D01*
X0146500Y0010000D02*
X0146500Y0017000D01*
X0146500Y0034500D01*
X0148750Y0036000D02*
X0148750Y0033000D01*
X0144250Y0033000D01*
X0144250Y0036000D01*
X0148750Y0036000D01*
X0148750Y0033999D02*
X0144250Y0033999D01*
X0144250Y0034998D02*
X0148750Y0034998D01*
X0148750Y0035997D02*
X0144250Y0035997D01*
X0158750Y0036000D02*
X0158750Y0033000D01*
X0154250Y0033000D01*
X0154250Y0036000D01*
X0158750Y0036000D01*
X0158750Y0033999D02*
X0154250Y0033999D01*
X0154250Y0034998D02*
X0158750Y0034998D01*
X0158750Y0035997D02*
X0154250Y0035997D01*
X0156500Y0034500D02*
X0156500Y0014500D01*
X0156500Y0010000D01*
X0158506Y0005994D02*
X0164494Y0005994D01*
X0159584Y0014981D02*
X0183692Y0014981D01*
X0184125Y0015979D02*
X0159226Y0015979D01*
X0158500Y0016978D02*
X0185124Y0016978D01*
X0185171Y0018975D02*
X0158500Y0018975D01*
X0158500Y0019973D02*
X0184173Y0019973D01*
X0186925Y0017976D02*
X0158500Y0017976D01*
X0168617Y0028960D02*
X0171631Y0028960D01*
X0170633Y0027961D02*
X0169858Y0027961D01*
X0158750Y0040000D02*
X0158750Y0043000D01*
X0158750Y0040000D02*
X0154250Y0040000D01*
X0154250Y0043000D01*
X0158750Y0043000D01*
X0158750Y0040999D02*
X0154250Y0040999D01*
X0154250Y0041998D02*
X0158750Y0041998D01*
X0158750Y0042997D02*
X0154250Y0042997D01*
X0194500Y0009000D02*
X0194500Y0079000D01*
X0195856Y0119824D02*
X0196000Y0119824D01*
X0196000Y0122820D02*
X0157299Y0122820D01*
X0157299Y0123818D02*
X0196000Y0123818D01*
X0196000Y0124817D02*
X0157299Y0124817D01*
X0180108Y0119824D02*
X0180388Y0119824D01*
X0187982Y0119824D02*
X0188262Y0119824D01*
X0164692Y0150778D02*
X0119800Y0150778D01*
X0119800Y0149780D02*
X0120589Y0149780D01*
X0119800Y0151777D02*
X0163694Y0151777D01*
X0162808Y0152775D02*
X0119800Y0152775D01*
X0120526Y0153774D02*
X0121667Y0153774D01*
X0118015Y0157768D02*
X0106800Y0157768D01*
X0106800Y0158766D02*
X0118400Y0158766D01*
X0118777Y0159765D02*
X0106800Y0159765D01*
X0106800Y0160763D02*
X0119382Y0160763D01*
X0120545Y0161762D02*
X0107514Y0161762D01*
X0106800Y0156769D02*
X0117017Y0156769D01*
X0116018Y0155771D02*
X0106800Y0155771D01*
X0108101Y0154772D02*
X0115200Y0154772D01*
X0115200Y0153774D02*
X0108953Y0153774D01*
X0108953Y0152775D02*
X0115200Y0152775D01*
X0115200Y0151777D02*
X0108953Y0151777D01*
X0108953Y0150778D02*
X0115200Y0150778D01*
X0115200Y0149780D02*
X0108953Y0149780D01*
X0108953Y0148781D02*
X0115200Y0148781D01*
X0115200Y0147783D02*
X0108953Y0147783D01*
X0108609Y0146784D02*
X0115200Y0146784D01*
X0115200Y0145786D02*
X0108953Y0145786D01*
X0108953Y0144787D02*
X0115200Y0144787D01*
X0115200Y0143789D02*
X0108953Y0143789D01*
X0108953Y0142760D02*
X0105000Y0142760D01*
X0105000Y0139201D01*
X0107650Y0139201D01*
X0108032Y0139303D01*
X0108374Y0139500D01*
X0108653Y0139780D01*
X0108851Y0140122D01*
X0108953Y0140503D01*
X0108953Y0142760D01*
X0108953Y0141792D02*
X0115200Y0141792D01*
X0115200Y0142790D02*
X0105000Y0142790D01*
X0105000Y0141792D02*
X0104000Y0141792D01*
X0104000Y0142790D02*
X0099870Y0142790D01*
X0099870Y0141792D02*
X0100047Y0141792D01*
X0100047Y0140793D02*
X0099870Y0140793D01*
X0099870Y0139795D02*
X0100338Y0139795D01*
X0099870Y0138796D02*
X0115451Y0138796D01*
X0115200Y0139795D02*
X0108662Y0139795D01*
X0108953Y0140793D02*
X0115200Y0140793D01*
X0116450Y0137798D02*
X0099041Y0137798D01*
X0093762Y0137798D02*
X0093124Y0137798D01*
X0087876Y0137798D02*
X0086949Y0137798D01*
X0085083Y0137798D02*
X0084114Y0137798D01*
X0084114Y0138796D02*
X0085083Y0138796D01*
X0085083Y0139795D02*
X0084114Y0139795D01*
X0084114Y0140793D02*
X0085083Y0140793D01*
X0084114Y0141792D02*
X0080953Y0141792D01*
X0081130Y0142685D02*
X0084114Y0142685D01*
X0084114Y0146654D01*
X0082432Y0146654D01*
X0082051Y0146551D01*
X0081709Y0146354D01*
X0081430Y0146075D01*
X0081232Y0145733D01*
X0081130Y0145351D01*
X0081130Y0142685D01*
X0081130Y0142790D02*
X0077000Y0142790D01*
X0077000Y0142760D02*
X0080953Y0142760D01*
X0080953Y0140503D01*
X0080851Y0140122D01*
X0080653Y0139780D01*
X0080374Y0139500D01*
X0080032Y0139303D01*
X0079650Y0139201D01*
X0077000Y0139201D01*
X0077000Y0142760D01*
X0077000Y0141792D02*
X0076000Y0141792D01*
X0076000Y0142790D02*
X0068800Y0142790D01*
X0068800Y0141792D02*
X0072047Y0141792D01*
X0072047Y0140793D02*
X0068800Y0140793D01*
X0068800Y0139795D02*
X0072338Y0139795D01*
X0069955Y0137798D02*
X0082248Y0137798D01*
X0081198Y0138796D02*
X0068957Y0138796D01*
X0070954Y0136799D02*
X0117448Y0136799D01*
X0118400Y0135801D02*
X0071952Y0135801D01*
X0076000Y0139795D02*
X0077000Y0139795D01*
X0077000Y0140793D02*
X0076000Y0140793D01*
X0080662Y0139795D02*
X0081130Y0139795D01*
X0081130Y0140793D02*
X0080953Y0140793D01*
X0080953Y0143789D02*
X0081130Y0143789D01*
X0081130Y0144787D02*
X0080953Y0144787D01*
X0080953Y0145786D02*
X0081263Y0145786D01*
X0080609Y0146784D02*
X0086218Y0146784D01*
X0085417Y0147783D02*
X0080953Y0147783D01*
X0080953Y0148781D02*
X0085004Y0148781D01*
X0084669Y0149780D02*
X0080953Y0149780D01*
X0080953Y0150778D02*
X0084669Y0150778D01*
X0084669Y0151777D02*
X0080953Y0151777D01*
X0080953Y0152775D02*
X0084669Y0152775D01*
X0084669Y0153774D02*
X0080953Y0153774D01*
X0072899Y0154772D02*
X0065025Y0154772D01*
X0064026Y0153774D02*
X0072047Y0153774D01*
X0072047Y0147783D02*
X0070535Y0147783D01*
X0069537Y0146784D02*
X0072391Y0146784D01*
X0072047Y0145786D02*
X0068800Y0145786D01*
X0068800Y0144787D02*
X0072047Y0144787D01*
X0072047Y0143789D02*
X0068800Y0143789D01*
X0055200Y0143789D02*
X0021800Y0143789D01*
X0021800Y0144787D02*
X0055200Y0144787D01*
X0055200Y0145786D02*
X0021800Y0145786D01*
X0021800Y0146784D02*
X0055200Y0146784D01*
X0055200Y0147783D02*
X0021800Y0147783D01*
X0021800Y0148781D02*
X0055200Y0148781D01*
X0055200Y0142790D02*
X0021800Y0142790D01*
X0021800Y0141792D02*
X0055200Y0141792D01*
X0055200Y0140793D02*
X0021800Y0140793D01*
X0021800Y0139795D02*
X0055200Y0139795D01*
X0055200Y0138796D02*
X0021800Y0138796D01*
X0021800Y0137798D02*
X0055200Y0137798D01*
X0055200Y0136799D02*
X0021800Y0136799D01*
X0021800Y0135801D02*
X0055200Y0135801D01*
X0055200Y0134802D02*
X0021800Y0134802D01*
X0021800Y0133803D02*
X0055200Y0133803D01*
X0055200Y0132805D02*
X0021800Y0132805D01*
X0021800Y0131806D02*
X0055200Y0131806D01*
X0055200Y0130808D02*
X0021800Y0130808D01*
X0021800Y0129809D02*
X0055200Y0129809D01*
X0055200Y0128811D02*
X0021800Y0128811D01*
X0021800Y0127812D02*
X0055435Y0127812D01*
X0056433Y0126814D02*
X0021800Y0126814D01*
X0021800Y0125815D02*
X0057432Y0125815D01*
X0058430Y0124817D02*
X0021800Y0124817D01*
X0021800Y0123818D02*
X0059429Y0123818D01*
X0060427Y0122820D02*
X0021800Y0122820D01*
X0021800Y0121821D02*
X0070315Y0121821D01*
X0071200Y0120823D02*
X0021800Y0120823D01*
X0021800Y0119824D02*
X0071200Y0119824D01*
X0070962Y0118826D02*
X0065250Y0118826D01*
X0066249Y0117827D02*
X0069963Y0117827D01*
X0069000Y0116829D02*
X0067150Y0116829D01*
X0067150Y0115830D02*
X0069000Y0115830D01*
X0069000Y0114832D02*
X0067150Y0114832D01*
X0067150Y0113833D02*
X0069000Y0113833D01*
X0069301Y0112835D02*
X0066911Y0112835D01*
X0065912Y0111836D02*
X0070300Y0111836D01*
X0075800Y0110838D02*
X0081298Y0110838D01*
X0080300Y0111836D02*
X0076700Y0111836D01*
X0077699Y0112835D02*
X0079301Y0112835D01*
X0079000Y0113833D02*
X0078000Y0113833D01*
X0078000Y0114832D02*
X0079000Y0114832D01*
X0079000Y0115830D02*
X0078000Y0115830D01*
X0078000Y0116829D02*
X0079000Y0116829D01*
X0079963Y0117827D02*
X0077037Y0117827D01*
X0076038Y0118826D02*
X0080962Y0118826D01*
X0081200Y0119824D02*
X0075800Y0119824D01*
X0075800Y0120823D02*
X0081200Y0120823D01*
X0080315Y0121821D02*
X0076685Y0121821D01*
X0077052Y0127812D02*
X0079948Y0127812D01*
X0080947Y0128811D02*
X0076053Y0128811D01*
X0070947Y0128811D02*
X0060942Y0128811D01*
X0061940Y0127812D02*
X0069948Y0127812D01*
X0059750Y0118826D02*
X0021800Y0118826D01*
X0021800Y0117827D02*
X0058751Y0117827D01*
X0057850Y0116829D02*
X0021800Y0116829D01*
X0021800Y0115830D02*
X0057850Y0115830D01*
X0057850Y0114832D02*
X0021800Y0114832D01*
X0021800Y0113833D02*
X0057850Y0113833D01*
X0058089Y0112835D02*
X0021800Y0112835D01*
X0021800Y0111836D02*
X0059088Y0111836D01*
X0057085Y0110838D02*
X0021800Y0110838D01*
X0021800Y0109839D02*
X0056087Y0109839D01*
X0055088Y0108841D02*
X0021800Y0108841D01*
X0021800Y0107842D02*
X0054200Y0107842D01*
X0047579Y0106844D02*
X0023421Y0106844D01*
X0023772Y0105845D02*
X0047228Y0105845D01*
X0047228Y0104847D02*
X0023772Y0104847D01*
X0023772Y0103848D02*
X0047228Y0103848D01*
X0047228Y0102850D02*
X0023772Y0102850D01*
X0023772Y0101851D02*
X0047228Y0101851D01*
X0047228Y0100853D02*
X0023772Y0100853D01*
X0026004Y0095860D02*
X0030996Y0095860D01*
X0029998Y0094862D02*
X0027002Y0094862D01*
X0028000Y0093863D02*
X0029000Y0093863D01*
X0029000Y0092865D02*
X0028000Y0092865D01*
X0020996Y0095860D02*
X0019925Y0095860D01*
X0019998Y0094862D02*
X0018800Y0094862D01*
X0018800Y0093863D02*
X0019000Y0093863D01*
X0019000Y0092865D02*
X0018800Y0092865D01*
X0018800Y0091866D02*
X0019000Y0091866D01*
X0019000Y0090868D02*
X0018800Y0090868D01*
X0018800Y0089869D02*
X0019267Y0089869D01*
X0018800Y0088870D02*
X0020266Y0088870D01*
X0021200Y0087872D02*
X0018800Y0087872D01*
X0018800Y0086873D02*
X0021200Y0086873D01*
X0021011Y0085875D02*
X0018800Y0085875D01*
X0018800Y0084876D02*
X0020013Y0084876D01*
X0019014Y0083878D02*
X0018800Y0083878D01*
X0018800Y0082879D02*
X0019000Y0082879D01*
X0019000Y0081881D02*
X0018800Y0081881D01*
X0018800Y0080882D02*
X0019000Y0080882D01*
X0018800Y0079884D02*
X0019252Y0079884D01*
X0018800Y0078885D02*
X0020251Y0078885D01*
X0021249Y0077887D02*
X0018800Y0077887D01*
X0015349Y0069899D02*
X0014258Y0069899D01*
X0013754Y0068900D02*
X0016347Y0068900D01*
X0017200Y0067902D02*
X0012756Y0067902D01*
X0011251Y0066903D02*
X0017200Y0066903D01*
X0017200Y0065905D02*
X0012949Y0065905D01*
X0013925Y0064906D02*
X0017200Y0064906D01*
X0017200Y0063908D02*
X0014338Y0063908D01*
X0014700Y0062909D02*
X0017200Y0062909D01*
X0017200Y0061911D02*
X0014700Y0061911D01*
X0014678Y0060912D02*
X0017200Y0060912D01*
X0017200Y0059914D02*
X0014264Y0059914D01*
X0013769Y0058915D02*
X0017200Y0058915D01*
X0017200Y0057917D02*
X0012771Y0057917D01*
X0011215Y0056918D02*
X0017200Y0056918D01*
X0017200Y0055920D02*
X0012934Y0055920D01*
X0013918Y0054921D02*
X0017200Y0054921D01*
X0017200Y0053923D02*
X0014332Y0053923D01*
X0014700Y0052924D02*
X0017200Y0052924D01*
X0017200Y0051926D02*
X0014700Y0051926D01*
X0014684Y0050927D02*
X0017200Y0050927D01*
X0017200Y0049929D02*
X0014270Y0049929D01*
X0013784Y0048930D02*
X0017200Y0048930D01*
X0017200Y0047932D02*
X0012785Y0047932D01*
X0011179Y0046933D02*
X0017200Y0046933D01*
X0017200Y0045934D02*
X0012919Y0045934D01*
X0013912Y0044936D02*
X0017200Y0044936D01*
X0017200Y0043937D02*
X0014326Y0043937D01*
X0014700Y0042939D02*
X0017200Y0042939D01*
X0017200Y0041940D02*
X0014700Y0041940D01*
X0014690Y0040942D02*
X0017200Y0040942D01*
X0017200Y0039943D02*
X0014277Y0039943D01*
X0013799Y0038945D02*
X0017200Y0038945D01*
X0017200Y0037946D02*
X0012800Y0037946D01*
X0011099Y0036948D02*
X0017200Y0036948D01*
X0017200Y0035949D02*
X0012905Y0035949D01*
X0013784Y0034951D02*
X0017200Y0034951D01*
X0017200Y0033952D02*
X0014333Y0033952D01*
X0014614Y0032954D02*
X0017200Y0032954D01*
X0007893Y0026963D02*
X0003000Y0026963D01*
X0003000Y0027961D02*
X0006212Y0027961D01*
X0005281Y0028960D02*
X0003000Y0028960D01*
X0003000Y0029958D02*
X0004704Y0029958D01*
X0004400Y0030957D02*
X0003000Y0030957D01*
X0003000Y0025964D02*
X0006110Y0025964D01*
X0005112Y0024966D02*
X0003000Y0024966D01*
X0003000Y0023967D02*
X0004686Y0023967D01*
X0004300Y0022969D02*
X0003000Y0022969D01*
X0003000Y0021970D02*
X0004300Y0021970D01*
X0004300Y0020972D02*
X0003000Y0020972D01*
X0003000Y0019973D02*
X0004711Y0019973D01*
X0005171Y0018975D02*
X0003000Y0018975D01*
X0003000Y0017976D02*
X0006170Y0017976D01*
X0007448Y0016978D02*
X0003000Y0016978D01*
X0003000Y0015979D02*
X0006449Y0015979D01*
X0005707Y0014981D02*
X0003000Y0014981D01*
X0003000Y0013982D02*
X0005293Y0013982D01*
X0004880Y0012984D02*
X0003000Y0012984D01*
X0003000Y0011985D02*
X0004701Y0011985D01*
X0004701Y0010987D02*
X0003000Y0010987D01*
X0003000Y0009988D02*
X0004701Y0009988D01*
X0004891Y0008990D02*
X0003000Y0008990D01*
X0003000Y0007991D02*
X0005305Y0007991D01*
X0005718Y0006993D02*
X0003000Y0006993D01*
X0003000Y0005994D02*
X0006476Y0005994D01*
X0007475Y0004996D02*
X0003000Y0004996D01*
X0003000Y0003997D02*
X0009026Y0003997D01*
X0004300Y0092865D02*
X0003000Y0092865D01*
X0003000Y0093863D02*
X0004643Y0093863D01*
X0005057Y0094862D02*
X0003000Y0094862D01*
X0003000Y0095860D02*
X0006006Y0095860D01*
X0007641Y0096859D02*
X0003000Y0096859D01*
X0003000Y0097857D02*
X0015104Y0097857D01*
X0014200Y0096859D02*
X0011359Y0096859D01*
X0012994Y0095860D02*
X0014178Y0095860D01*
X0014200Y0094862D02*
X0013943Y0094862D01*
X0016080Y0098856D02*
X0011571Y0098856D01*
X0011469Y0098828D02*
X0011851Y0098931D01*
X0012193Y0099128D01*
X0012472Y0099407D01*
X0012669Y0099749D01*
X0012772Y0100131D01*
X0012772Y0102714D01*
X0008886Y0102714D01*
X0008886Y0103486D01*
X0008114Y0103486D01*
X0008114Y0107372D01*
X0005531Y0107372D01*
X0005149Y0107269D01*
X0004807Y0107072D01*
X0004528Y0106793D01*
X0004331Y0106451D01*
X0004228Y0106069D01*
X0004228Y0103486D01*
X0008114Y0103486D01*
X0008114Y0102714D01*
X0008886Y0102714D01*
X0008886Y0098828D01*
X0011469Y0098828D01*
X0012697Y0099854D02*
X0015228Y0099854D01*
X0015228Y0100853D02*
X0012772Y0100853D01*
X0012772Y0101851D02*
X0015228Y0101851D01*
X0015228Y0102850D02*
X0008886Y0102850D01*
X0008886Y0103486D02*
X0012772Y0103486D01*
X0012772Y0106069D01*
X0012669Y0106451D01*
X0012472Y0106793D01*
X0012193Y0107072D01*
X0011851Y0107269D01*
X0011469Y0107372D01*
X0008886Y0107372D01*
X0008886Y0103486D01*
X0008886Y0103848D02*
X0008114Y0103848D01*
X0008114Y0102850D02*
X0003000Y0102850D01*
X0003000Y0103848D02*
X0004228Y0103848D01*
X0004228Y0104847D02*
X0003000Y0104847D01*
X0003000Y0105845D02*
X0004228Y0105845D01*
X0004579Y0106844D02*
X0003000Y0106844D01*
X0003000Y0107842D02*
X0017200Y0107842D01*
X0017200Y0108841D02*
X0003000Y0108841D01*
X0003000Y0109839D02*
X0017200Y0109839D01*
X0017200Y0110838D02*
X0010914Y0110838D01*
X0011912Y0111836D02*
X0017200Y0111836D01*
X0015579Y0106844D02*
X0012421Y0106844D01*
X0012772Y0105845D02*
X0015228Y0105845D01*
X0015228Y0104847D02*
X0012772Y0104847D01*
X0012772Y0103848D02*
X0015228Y0103848D01*
X0008886Y0104847D02*
X0008114Y0104847D01*
X0008114Y0105845D02*
X0008886Y0105845D01*
X0008886Y0106844D02*
X0008114Y0106844D01*
X0008114Y0102714D02*
X0004228Y0102714D01*
X0004228Y0100131D01*
X0004331Y0099749D01*
X0004528Y0099407D01*
X0004807Y0099128D01*
X0005149Y0098931D01*
X0005531Y0098828D01*
X0008114Y0098828D01*
X0008114Y0102714D01*
X0008114Y0101851D02*
X0008886Y0101851D01*
X0008886Y0100853D02*
X0008114Y0100853D01*
X0008114Y0099854D02*
X0008886Y0099854D01*
X0008886Y0098856D02*
X0008114Y0098856D01*
X0005429Y0098856D02*
X0003000Y0098856D01*
X0003000Y0099854D02*
X0004302Y0099854D01*
X0004228Y0100853D02*
X0003000Y0100853D01*
X0003000Y0101851D02*
X0004228Y0101851D01*
X0003000Y0110838D02*
X0006086Y0110838D01*
X0005088Y0111836D02*
X0003000Y0111836D01*
X0003000Y0112835D02*
X0004089Y0112835D01*
X0003850Y0113833D02*
X0003000Y0113833D01*
X0003000Y0114832D02*
X0003850Y0114832D01*
X0003850Y0115830D02*
X0003000Y0115830D01*
X0003000Y0116829D02*
X0003850Y0116829D01*
X0003000Y0117827D02*
X0004751Y0117827D01*
X0005750Y0118826D02*
X0003000Y0118826D01*
X0003000Y0119824D02*
X0017200Y0119824D01*
X0017200Y0118826D02*
X0011250Y0118826D01*
X0012249Y0117827D02*
X0017200Y0117827D01*
X0017200Y0120823D02*
X0003000Y0120823D01*
X0003000Y0121821D02*
X0017200Y0121821D01*
X0017200Y0122820D02*
X0003000Y0122820D01*
X0003000Y0123818D02*
X0017200Y0123818D01*
X0017200Y0124817D02*
X0003000Y0124817D01*
X0003000Y0125815D02*
X0017200Y0125815D01*
X0017200Y0126814D02*
X0003000Y0126814D01*
X0003000Y0127812D02*
X0017200Y0127812D01*
X0017200Y0128811D02*
X0003000Y0128811D01*
X0003000Y0129809D02*
X0017200Y0129809D01*
X0017200Y0130808D02*
X0003000Y0130808D01*
X0003000Y0131806D02*
X0017200Y0131806D01*
X0017200Y0132805D02*
X0003000Y0132805D01*
X0003000Y0133803D02*
X0017200Y0133803D01*
X0017200Y0134802D02*
X0003000Y0134802D01*
X0003000Y0135801D02*
X0017200Y0135801D01*
X0017200Y0136799D02*
X0003000Y0136799D01*
X0003000Y0137798D02*
X0017200Y0137798D01*
X0017200Y0138796D02*
X0003000Y0138796D01*
X0003000Y0139795D02*
X0017200Y0139795D01*
X0017200Y0140793D02*
X0003000Y0140793D01*
X0003000Y0141792D02*
X0017200Y0141792D01*
X0017200Y0142790D02*
X0003000Y0142790D01*
X0003000Y0143789D02*
X0017200Y0143789D01*
X0017200Y0144787D02*
X0003000Y0144787D01*
X0003000Y0145786D02*
X0017200Y0145786D01*
X0017200Y0146784D02*
X0003000Y0146784D01*
X0003000Y0147783D02*
X0017200Y0147783D01*
X0017200Y0148781D02*
X0003000Y0148781D01*
X0003000Y0149780D02*
X0017200Y0149780D01*
X0017200Y0150778D02*
X0003000Y0150778D01*
X0003000Y0151777D02*
X0017200Y0151777D01*
X0017200Y0152775D02*
X0003000Y0152775D01*
X0003000Y0153774D02*
X0017200Y0153774D01*
X0017200Y0154772D02*
X0003000Y0154772D01*
X0003000Y0155771D02*
X0017200Y0155771D01*
X0017200Y0156769D02*
X0003000Y0156769D01*
X0003000Y0157768D02*
X0017200Y0157768D01*
X0017200Y0158766D02*
X0003000Y0158766D01*
X0003000Y0159765D02*
X0017200Y0159765D01*
X0017200Y0160763D02*
X0003000Y0160763D01*
X0003000Y0161762D02*
X0017200Y0161762D01*
X0017200Y0162760D02*
X0003000Y0162760D01*
X0003000Y0163759D02*
X0017506Y0163759D01*
X0018505Y0164757D02*
X0003000Y0164757D01*
X0003000Y0165756D02*
X0019503Y0165756D01*
X0020502Y0166754D02*
X0003000Y0166754D01*
X0003000Y0167753D02*
X0021500Y0167753D01*
X0022499Y0168751D02*
X0003000Y0168751D01*
X0003000Y0169750D02*
X0023497Y0169750D01*
X0024496Y0170748D02*
X0003000Y0170748D01*
X0003000Y0171747D02*
X0025494Y0171747D01*
X0026493Y0172745D02*
X0003000Y0172745D01*
X0003000Y0173744D02*
X0027491Y0173744D01*
X0028505Y0174742D02*
X0003000Y0174742D01*
X0003000Y0175741D02*
X0027506Y0175741D01*
X0026508Y0176739D02*
X0003000Y0176739D01*
X0003000Y0177738D02*
X0025509Y0177738D01*
X0024511Y0178737D02*
X0003000Y0178737D01*
X0003000Y0179735D02*
X0006189Y0179735D01*
X0006574Y0179350D02*
X0010426Y0179350D01*
X0013150Y0182074D01*
X0013150Y0182200D01*
X0015250Y0182200D01*
X0015250Y0181600D01*
X0016000Y0181600D01*
X0016000Y0181400D01*
X0015250Y0181400D01*
X0015250Y0180103D01*
X0015352Y0179721D01*
X0015550Y0179379D01*
X0015829Y0179100D01*
X0016171Y0178902D01*
X0016553Y0178800D01*
X0018400Y0178800D01*
X0018400Y0179500D01*
X0018600Y0179500D01*
X0018600Y0178800D01*
X0020447Y0178800D01*
X0020829Y0178902D01*
X0021171Y0179100D01*
X0021450Y0179379D01*
X0021648Y0179721D01*
X0021750Y0180103D01*
X0021750Y0181400D01*
X0021000Y0181400D01*
X0021000Y0181600D01*
X0021647Y0181600D01*
X0028547Y0174700D01*
X0066453Y0174700D01*
X0067800Y0176047D01*
X0067800Y0176047D01*
X0072453Y0180700D01*
X0073800Y0182047D01*
X0073800Y0185047D01*
X0077453Y0188700D01*
X0103547Y0188700D01*
X0107103Y0185144D01*
X0107000Y0184895D01*
X0107000Y0183105D01*
X0107685Y0181451D01*
X0108951Y0180185D01*
X0110605Y0179500D01*
X0112395Y0179500D01*
X0114049Y0180185D01*
X0115315Y0181451D01*
X0116000Y0183105D01*
X0116000Y0184895D01*
X0115315Y0186549D01*
X0114049Y0187815D01*
X0112395Y0188500D01*
X0110605Y0188500D01*
X0110356Y0188397D01*
X0106800Y0191953D01*
X0105453Y0193300D01*
X0075547Y0193300D01*
X0074200Y0191953D01*
X0069200Y0186953D01*
X0069200Y0183953D01*
X0064547Y0179300D01*
X0030453Y0179300D01*
X0024300Y0185453D01*
X0022953Y0186800D01*
X0021271Y0186800D01*
X0020871Y0187200D01*
X0016129Y0187200D01*
X0015729Y0186800D01*
X0012276Y0186800D01*
X0010426Y0188650D01*
X0006574Y0188650D01*
X0003850Y0185926D01*
X0003850Y0182074D01*
X0006574Y0179350D01*
X0005190Y0180734D02*
X0003000Y0180734D01*
X0003000Y0181732D02*
X0004192Y0181732D01*
X0003850Y0182731D02*
X0003000Y0182731D01*
X0003000Y0183729D02*
X0003850Y0183729D01*
X0003850Y0184728D02*
X0003000Y0184728D01*
X0003000Y0185726D02*
X0003850Y0185726D01*
X0004649Y0186725D02*
X0003000Y0186725D01*
X0003000Y0187723D02*
X0005647Y0187723D01*
X0004228Y0189720D02*
X0003000Y0189720D01*
X0003000Y0188722D02*
X0070969Y0188722D01*
X0071967Y0189720D02*
X0066772Y0189720D01*
X0066772Y0190719D02*
X0072966Y0190719D01*
X0073964Y0191717D02*
X0066772Y0191717D01*
X0066772Y0192716D02*
X0074963Y0192716D01*
X0076476Y0187723D02*
X0076859Y0187723D01*
X0075861Y0186725D02*
X0075477Y0186725D01*
X0075344Y0185726D02*
X0074479Y0185726D01*
X0075000Y0184728D02*
X0073800Y0184728D01*
X0073800Y0183729D02*
X0075000Y0183729D01*
X0075155Y0182731D02*
X0073800Y0182731D01*
X0073485Y0181732D02*
X0075569Y0181732D01*
X0076402Y0180734D02*
X0072486Y0180734D01*
X0071488Y0179735D02*
X0077200Y0179735D01*
X0077200Y0178737D02*
X0070489Y0178737D01*
X0069491Y0177738D02*
X0076985Y0177738D01*
X0075987Y0176739D02*
X0068492Y0176739D01*
X0067494Y0175741D02*
X0074988Y0175741D01*
X0073990Y0174742D02*
X0066495Y0174742D01*
X0064426Y0179350D02*
X0067150Y0182074D01*
X0067150Y0185926D01*
X0064426Y0188650D01*
X0060574Y0188650D01*
X0057850Y0185926D01*
X0057850Y0182074D01*
X0060574Y0179350D01*
X0064426Y0179350D01*
X0064811Y0179735D02*
X0064982Y0179735D01*
X0065810Y0180734D02*
X0065981Y0180734D01*
X0066808Y0181732D02*
X0066979Y0181732D01*
X0067150Y0182731D02*
X0067978Y0182731D01*
X0067150Y0183729D02*
X0068976Y0183729D01*
X0069200Y0184728D02*
X0067150Y0184728D01*
X0067150Y0185726D02*
X0069200Y0185726D01*
X0069200Y0186725D02*
X0066351Y0186725D01*
X0065353Y0187723D02*
X0069970Y0187723D01*
X0066772Y0193714D02*
X0132941Y0193714D01*
X0132941Y0192716D02*
X0106037Y0192716D01*
X0107036Y0191717D02*
X0132941Y0191717D01*
X0132941Y0190719D02*
X0108034Y0190719D01*
X0109033Y0189720D02*
X0132941Y0189720D01*
X0132941Y0188722D02*
X0110031Y0188722D01*
X0114141Y0187723D02*
X0118859Y0187723D01*
X0118951Y0187815D02*
X0117685Y0186549D01*
X0117000Y0184895D01*
X0117000Y0183105D01*
X0117685Y0181451D01*
X0118951Y0180185D01*
X0120605Y0179500D01*
X0122395Y0179500D01*
X0124049Y0180185D01*
X0125315Y0181451D01*
X0126000Y0183105D01*
X0126000Y0184895D01*
X0125315Y0186549D01*
X0124049Y0187815D01*
X0122395Y0188500D01*
X0120605Y0188500D01*
X0118951Y0187815D01*
X0117861Y0186725D02*
X0115139Y0186725D01*
X0115656Y0185726D02*
X0117344Y0185726D01*
X0117000Y0184728D02*
X0116000Y0184728D01*
X0116000Y0183729D02*
X0117000Y0183729D01*
X0117155Y0182731D02*
X0115845Y0182731D01*
X0115431Y0181732D02*
X0117569Y0181732D01*
X0118402Y0180734D02*
X0114597Y0180734D01*
X0112962Y0179735D02*
X0120037Y0179735D01*
X0122962Y0179735D02*
X0133992Y0179735D01*
X0133660Y0178737D02*
X0081800Y0178737D01*
X0081800Y0179735D02*
X0088037Y0179735D01*
X0088605Y0179500D02*
X0090395Y0179500D01*
X0092049Y0180185D01*
X0093315Y0181451D01*
X0094000Y0183105D01*
X0094000Y0184895D01*
X0093315Y0186549D01*
X0092049Y0187815D01*
X0090395Y0188500D01*
X0088605Y0188500D01*
X0086951Y0187815D01*
X0085685Y0186549D01*
X0085000Y0184895D01*
X0085000Y0183105D01*
X0085685Y0181451D01*
X0086951Y0180185D01*
X0088605Y0179500D01*
X0090962Y0179735D02*
X0110037Y0179735D01*
X0108402Y0180734D02*
X0092597Y0180734D01*
X0093431Y0181732D02*
X0107569Y0181732D01*
X0107155Y0182731D02*
X0093845Y0182731D01*
X0094000Y0183729D02*
X0107000Y0183729D01*
X0107000Y0184728D02*
X0094000Y0184728D01*
X0093656Y0185726D02*
X0106521Y0185726D01*
X0105523Y0186725D02*
X0093139Y0186725D01*
X0092141Y0187723D02*
X0104524Y0187723D01*
X0120509Y0171747D02*
X0077500Y0171747D01*
X0078498Y0172745D02*
X0132993Y0172745D01*
X0131994Y0171747D02*
X0130491Y0171747D01*
X0133991Y0173744D02*
X0079497Y0173744D01*
X0080495Y0174742D02*
X0133660Y0174742D01*
X0133660Y0175741D02*
X0081494Y0175741D01*
X0081800Y0176739D02*
X0133660Y0176739D01*
X0133660Y0177738D02*
X0081800Y0177738D01*
X0082597Y0180734D02*
X0086402Y0180734D01*
X0085569Y0181732D02*
X0083431Y0181732D01*
X0083845Y0182731D02*
X0085155Y0182731D01*
X0085000Y0183729D02*
X0084000Y0183729D01*
X0084000Y0184728D02*
X0085000Y0184728D01*
X0085344Y0185726D02*
X0083656Y0185726D01*
X0083139Y0186725D02*
X0085861Y0186725D01*
X0086859Y0187723D02*
X0082141Y0187723D01*
X0066772Y0194713D02*
X0132941Y0194713D01*
X0133031Y0195711D02*
X0066772Y0195711D01*
X0058228Y0195711D02*
X0012772Y0195711D01*
X0012772Y0194713D02*
X0058228Y0194713D01*
X0058228Y0193714D02*
X0012772Y0193714D01*
X0012772Y0192716D02*
X0058228Y0192716D01*
X0058228Y0191717D02*
X0012772Y0191717D01*
X0012772Y0190719D02*
X0058228Y0190719D01*
X0058228Y0189720D02*
X0012772Y0189720D01*
X0011353Y0187723D02*
X0059647Y0187723D01*
X0058649Y0186725D02*
X0023028Y0186725D01*
X0024027Y0185726D02*
X0057850Y0185726D01*
X0057850Y0184728D02*
X0025025Y0184728D01*
X0026024Y0183729D02*
X0057850Y0183729D01*
X0057850Y0182731D02*
X0027022Y0182731D01*
X0028021Y0181732D02*
X0058192Y0181732D01*
X0059190Y0180734D02*
X0029019Y0180734D01*
X0030018Y0179735D02*
X0060189Y0179735D01*
X0084114Y0145786D02*
X0085083Y0145786D01*
X0085083Y0144787D02*
X0084114Y0144787D01*
X0084114Y0143789D02*
X0085083Y0143789D01*
X0085083Y0142790D02*
X0084114Y0142790D01*
X0099870Y0143789D02*
X0100047Y0143789D01*
X0100047Y0144787D02*
X0099870Y0144787D01*
X0099859Y0145786D02*
X0100047Y0145786D01*
X0104000Y0140793D02*
X0105000Y0140793D01*
X0105000Y0139795D02*
X0104000Y0139795D01*
X0108951Y0134802D02*
X0118542Y0134802D01*
X0118956Y0133803D02*
X0109949Y0133803D01*
X0110948Y0132805D02*
X0119814Y0132805D01*
X0104000Y0128811D02*
X0103000Y0128811D01*
X0103000Y0127812D02*
X0104000Y0127812D01*
X0104000Y0126814D02*
X0103000Y0126814D01*
X0099000Y0123818D02*
X0098000Y0123818D01*
X0097684Y0122820D02*
X0099316Y0122820D01*
X0100315Y0121821D02*
X0096685Y0121821D01*
X0095800Y0120823D02*
X0101313Y0120823D01*
X0129333Y0153774D02*
X0162395Y0153774D01*
X0178393Y0172745D02*
X0139241Y0172745D01*
X0139368Y0173744D02*
X0177682Y0173744D01*
X0177416Y0174742D02*
X0140222Y0174742D01*
X0140222Y0175741D02*
X0177469Y0175741D01*
X0177882Y0176739D02*
X0140222Y0176739D01*
X0140222Y0177738D02*
X0179051Y0177738D01*
X0180500Y0175000D02*
X0184185Y0178685D01*
X0184185Y0190000D01*
X0180275Y0195711D02*
X0180221Y0195711D01*
X0172401Y0195711D02*
X0172347Y0195711D01*
X0164527Y0195711D02*
X0164473Y0195711D01*
X0156653Y0195711D02*
X0156599Y0195711D01*
X0148779Y0195711D02*
X0148725Y0195711D01*
X0140905Y0195711D02*
X0140851Y0195711D01*
X0132941Y0187723D02*
X0124141Y0187723D01*
X0125139Y0186725D02*
X0132941Y0186725D01*
X0132941Y0185726D02*
X0125656Y0185726D01*
X0126000Y0184728D02*
X0132941Y0184728D01*
X0133591Y0183729D02*
X0126000Y0183729D01*
X0125845Y0182731D02*
X0134641Y0182731D01*
X0134641Y0181732D02*
X0125431Y0181732D01*
X0124597Y0180734D02*
X0134641Y0180734D01*
X0139241Y0180734D02*
X0182185Y0180734D01*
X0182185Y0181732D02*
X0139241Y0181732D01*
X0139241Y0182731D02*
X0182185Y0182731D01*
X0180835Y0183729D02*
X0179661Y0183729D01*
X0182185Y0179735D02*
X0139889Y0179735D01*
X0140222Y0178737D02*
X0181408Y0178737D01*
X0185068Y0176739D02*
X0196000Y0176739D01*
X0196000Y0175741D02*
X0184069Y0175741D01*
X0183584Y0174742D02*
X0196000Y0174742D01*
X0196000Y0173744D02*
X0183318Y0173744D01*
X0182607Y0172745D02*
X0196000Y0172745D01*
X0196000Y0171747D02*
X0138500Y0171747D01*
X0137501Y0170748D02*
X0196000Y0170748D01*
X0196000Y0169750D02*
X0136503Y0169750D01*
X0135504Y0168751D02*
X0196000Y0168751D01*
X0196000Y0167753D02*
X0135000Y0167753D01*
X0135998Y0166754D02*
X0196000Y0166754D01*
X0196000Y0165756D02*
X0136997Y0165756D01*
X0132488Y0163759D02*
X0129297Y0163759D01*
X0131138Y0164757D02*
X0131490Y0164757D01*
X0140291Y0183729D02*
X0141465Y0183729D01*
X0148165Y0183729D02*
X0149339Y0183729D01*
X0156039Y0183729D02*
X0157213Y0183729D01*
X0163913Y0183729D02*
X0165087Y0183729D01*
X0171787Y0183729D02*
X0172961Y0183729D01*
X0186185Y0182731D02*
X0196000Y0182731D01*
X0196000Y0183729D02*
X0195409Y0183729D01*
X0196000Y0181732D02*
X0186185Y0181732D01*
X0186185Y0180734D02*
X0196000Y0180734D01*
X0196000Y0179735D02*
X0186185Y0179735D01*
X0186185Y0178737D02*
X0196000Y0178737D01*
X0196000Y0177738D02*
X0186066Y0177738D01*
X0187535Y0183729D02*
X0188709Y0183729D01*
X0188149Y0195711D02*
X0188095Y0195711D01*
X0195969Y0195711D02*
X0196000Y0195711D01*
X0040996Y0095860D02*
X0036004Y0095860D01*
X0037002Y0094862D02*
X0039998Y0094862D01*
X0039000Y0093863D02*
X0038000Y0093863D01*
X0038000Y0092865D02*
X0039000Y0092865D01*
X0023512Y0179735D02*
X0021652Y0179735D01*
X0021750Y0180734D02*
X0022514Y0180734D01*
X0015348Y0179735D02*
X0010811Y0179735D01*
X0011810Y0180734D02*
X0015250Y0180734D01*
X0015250Y0181732D02*
X0012808Y0181732D01*
X0004228Y0190719D02*
X0003000Y0190719D01*
X0003000Y0191717D02*
X0004228Y0191717D01*
X0004228Y0192716D02*
X0003000Y0192716D01*
X0003000Y0193714D02*
X0004228Y0193714D01*
X0004228Y0194713D02*
X0003000Y0194713D01*
X0003000Y0195711D02*
X0004228Y0195711D01*
D21*
X0076500Y0150740D03*
X0076500Y0143260D03*
X0104500Y0143260D03*
X0104500Y0150740D03*
X0116500Y0092740D03*
X0116500Y0085260D03*
X0082500Y0085260D03*
X0082500Y0092740D03*
D22*
X0145760Y0125500D03*
X0153240Y0125500D03*
D23*
X0152689Y0114000D03*
X0160563Y0114000D03*
X0168437Y0114000D03*
X0176311Y0114000D03*
X0184185Y0114000D03*
X0192059Y0114000D03*
X0144815Y0114000D03*
X0136941Y0114000D03*
X0136941Y0190000D03*
X0144815Y0190000D03*
X0152689Y0190000D03*
X0160563Y0190000D03*
X0168437Y0190000D03*
X0176311Y0190000D03*
X0184185Y0190000D03*
X0192059Y0190000D03*
D24*
X0018500Y0184500D03*
X0018500Y0181500D03*
D25*
X0084598Y0142201D03*
X0096402Y0142201D03*
D26*
X0090500Y0143201D03*
D27*
X0090500Y0150748D02*
X0090500Y0150748D01*
X0090500Y0156654D01*
X0090500Y0156654D01*
X0090500Y0150748D01*
D28*
X0110500Y0168000D03*
X0138500Y0157000D03*
X0138500Y0129000D03*
X0151500Y0106000D03*
X0175122Y0106000D03*
X0183500Y0094000D03*
X0143500Y0080000D03*
X0108500Y0098000D03*
X0088000Y0080500D03*
X0069000Y0087000D03*
X0047500Y0063000D03*
X0043500Y0060000D03*
X0029500Y0066000D03*
X0029500Y0074000D03*
X0095500Y0046000D03*
X0101500Y0038000D03*
X0106500Y0030000D03*
X0116500Y0026000D03*
X0126500Y0023000D03*
X0136500Y0020000D03*
X0146500Y0017000D03*
X0156500Y0014500D03*
X0180500Y0175000D03*
D29*
X0138500Y0161000D02*
X0138500Y0157000D01*
X0138500Y0161000D02*
X0131500Y0168000D01*
X0136941Y0173441D01*
X0136941Y0177000D01*
X0136941Y0190000D01*
X0131500Y0168000D02*
X0125500Y0168000D01*
X0125500Y0158000D02*
X0121500Y0158000D01*
X0117500Y0154000D01*
X0117500Y0140000D01*
X0121500Y0136000D01*
X0125500Y0136000D01*
X0130500Y0130000D02*
X0133500Y0133000D01*
X0133500Y0142000D01*
X0129500Y0146000D01*
X0125500Y0146000D01*
X0130500Y0130000D02*
X0112500Y0130000D01*
X0110500Y0128000D01*
X0110500Y0106000D01*
X0112500Y0104000D01*
X0110500Y0103500D02*
X0110500Y0106000D01*
X0108500Y0104000D01*
X0110500Y0103500D02*
X0129000Y0103500D01*
X0133500Y0099000D01*
X0133500Y0092500D01*
X0143500Y0080000D02*
X0175500Y0080000D01*
X0178500Y0077000D01*
X0178500Y0073000D01*
X0156500Y0041500D02*
X0146500Y0041500D01*
X0136500Y0041500D01*
X0126500Y0041500D01*
X0116500Y0041500D01*
X0106500Y0041500D01*
X0095500Y0041500D01*
X0095500Y0046000D01*
X0086500Y0070000D02*
X0086500Y0074000D01*
X0081500Y0079000D01*
X0067500Y0079000D01*
X0065500Y0081000D01*
X0065500Y0092000D01*
X0079500Y0106000D01*
X0089500Y0106000D01*
X0093500Y0110000D01*
X0093500Y0115000D01*
X0093500Y0125000D01*
X0083500Y0125000D02*
X0083500Y0115000D01*
X0083500Y0125000D02*
X0073500Y0125000D01*
X0061500Y0125000D01*
X0057500Y0129000D01*
X0057500Y0150500D01*
X0070500Y0163500D01*
X0104500Y0163500D01*
X0104500Y0162000D01*
X0103500Y0163000D01*
X0104500Y0163500D02*
X0106000Y0163500D01*
X0104500Y0162000D01*
X0104500Y0150740D01*
X0105240Y0151000D01*
X0101500Y0151000D01*
X0096402Y0145902D01*
X0096402Y0142201D01*
X0090500Y0153701D02*
X0089799Y0153701D01*
X0086500Y0157000D01*
X0078500Y0157000D01*
X0076500Y0155000D01*
X0076500Y0150740D01*
X0075240Y0151000D01*
X0070500Y0151000D01*
X0066500Y0147000D01*
X0066500Y0138000D01*
X0071500Y0133000D01*
X0107500Y0133000D01*
X0110500Y0130000D01*
X0110500Y0129000D01*
X0111500Y0130000D01*
X0112500Y0130000D01*
X0111500Y0130000D02*
X0110500Y0130000D01*
X0110500Y0129000D02*
X0110500Y0128000D01*
X0120500Y0122000D02*
X0124500Y0126000D01*
X0137500Y0126000D01*
X0138500Y0127000D01*
X0139500Y0126000D01*
X0145260Y0126000D01*
X0145760Y0125500D01*
X0139500Y0126000D02*
X0138500Y0126000D01*
X0137500Y0126000D01*
X0138500Y0126000D02*
X0138500Y0127000D01*
X0138500Y0129000D01*
X0144815Y0114000D02*
X0144815Y0107315D01*
X0144500Y0106500D01*
X0110500Y0103500D02*
X0099500Y0103500D01*
X0099500Y0092500D01*
X0073500Y0111000D02*
X0071500Y0109000D01*
X0058500Y0109000D01*
X0056500Y0107000D01*
X0056500Y0099500D01*
X0055500Y0098500D01*
X0023500Y0098500D01*
X0023500Y0092000D01*
X0023500Y0082000D01*
X0016500Y0072000D02*
X0019500Y0069000D01*
X0019500Y0028000D01*
X0013500Y0022000D01*
X0009500Y0022000D01*
X0016500Y0072000D02*
X0016500Y0096000D01*
X0019500Y0098500D01*
X0023500Y0098500D01*
X0019500Y0103100D02*
X0019500Y0115000D01*
X0019500Y0162500D01*
X0029000Y0172000D01*
X0074500Y0172000D01*
X0079500Y0177000D01*
X0079500Y0184000D01*
X0076500Y0191000D02*
X0104500Y0191000D01*
X0111500Y0184000D01*
X0110500Y0168000D02*
X0106000Y0163500D01*
X0076500Y0191000D02*
X0071500Y0186000D01*
X0071500Y0183000D01*
X0065500Y0177000D01*
X0029500Y0177000D01*
X0022000Y0184500D01*
X0018500Y0184500D01*
X0010000Y0184500D01*
X0008500Y0184000D01*
X0018500Y0181500D02*
X0018500Y0178000D01*
X0073500Y0125000D02*
X0073500Y0115000D01*
X0073500Y0111000D01*
X0019500Y0115000D02*
X0008500Y0115000D01*
D30*
X0136941Y0177000D03*
D31*
X0099500Y0103500D03*
M02*
