G75*
%MOIN*%
%OFA0B0*%
%FSLAX25Y25*%
%IPPOS*%
%LPD*%
%AMOC8*
5,1,8,0,0,1.08239X$1,22.5*
%
%ADD10C,0.00000*%
%ADD11R,0.05937X0.05937*%
%ADD12C,0.05937*%
%ADD13C,0.05600*%
%ADD14OC8,0.06300*%
%ADD15C,0.06300*%
%ADD16R,0.05543X0.05543*%
%ADD17C,0.06000*%
%ADD18OC8,0.06000*%
%ADD19C,0.07400*%
%ADD20R,0.02400X0.03500*%
%ADD21R,0.05118X0.05906*%
%ADD22C,0.01000*%
%ADD23C,0.03169*%
%ADD24C,0.01600*%
%ADD25R,0.03562X0.03562*%
%ADD26C,0.03000*%
D10*
X0001500Y0002000D02*
X0197500Y0002000D01*
X0197500Y0198000D01*
X0001500Y0198000D01*
X0001500Y0002000D01*
X0006201Y0011000D02*
X0006203Y0011158D01*
X0006209Y0011316D01*
X0006219Y0011474D01*
X0006233Y0011632D01*
X0006251Y0011789D01*
X0006272Y0011946D01*
X0006298Y0012102D01*
X0006328Y0012258D01*
X0006361Y0012413D01*
X0006399Y0012566D01*
X0006440Y0012719D01*
X0006485Y0012871D01*
X0006534Y0013022D01*
X0006587Y0013171D01*
X0006643Y0013319D01*
X0006703Y0013465D01*
X0006767Y0013610D01*
X0006835Y0013753D01*
X0006906Y0013895D01*
X0006980Y0014035D01*
X0007058Y0014172D01*
X0007140Y0014308D01*
X0007224Y0014442D01*
X0007313Y0014573D01*
X0007404Y0014702D01*
X0007499Y0014829D01*
X0007596Y0014954D01*
X0007697Y0015076D01*
X0007801Y0015195D01*
X0007908Y0015312D01*
X0008018Y0015426D01*
X0008131Y0015537D01*
X0008246Y0015646D01*
X0008364Y0015751D01*
X0008485Y0015853D01*
X0008608Y0015953D01*
X0008734Y0016049D01*
X0008862Y0016142D01*
X0008992Y0016232D01*
X0009125Y0016318D01*
X0009260Y0016402D01*
X0009396Y0016481D01*
X0009535Y0016558D01*
X0009676Y0016630D01*
X0009818Y0016700D01*
X0009962Y0016765D01*
X0010108Y0016827D01*
X0010255Y0016885D01*
X0010404Y0016940D01*
X0010554Y0016991D01*
X0010705Y0017038D01*
X0010857Y0017081D01*
X0011010Y0017120D01*
X0011165Y0017156D01*
X0011320Y0017187D01*
X0011476Y0017215D01*
X0011632Y0017239D01*
X0011789Y0017259D01*
X0011947Y0017275D01*
X0012104Y0017287D01*
X0012263Y0017295D01*
X0012421Y0017299D01*
X0012579Y0017299D01*
X0012737Y0017295D01*
X0012896Y0017287D01*
X0013053Y0017275D01*
X0013211Y0017259D01*
X0013368Y0017239D01*
X0013524Y0017215D01*
X0013680Y0017187D01*
X0013835Y0017156D01*
X0013990Y0017120D01*
X0014143Y0017081D01*
X0014295Y0017038D01*
X0014446Y0016991D01*
X0014596Y0016940D01*
X0014745Y0016885D01*
X0014892Y0016827D01*
X0015038Y0016765D01*
X0015182Y0016700D01*
X0015324Y0016630D01*
X0015465Y0016558D01*
X0015604Y0016481D01*
X0015740Y0016402D01*
X0015875Y0016318D01*
X0016008Y0016232D01*
X0016138Y0016142D01*
X0016266Y0016049D01*
X0016392Y0015953D01*
X0016515Y0015853D01*
X0016636Y0015751D01*
X0016754Y0015646D01*
X0016869Y0015537D01*
X0016982Y0015426D01*
X0017092Y0015312D01*
X0017199Y0015195D01*
X0017303Y0015076D01*
X0017404Y0014954D01*
X0017501Y0014829D01*
X0017596Y0014702D01*
X0017687Y0014573D01*
X0017776Y0014442D01*
X0017860Y0014308D01*
X0017942Y0014172D01*
X0018020Y0014035D01*
X0018094Y0013895D01*
X0018165Y0013753D01*
X0018233Y0013610D01*
X0018297Y0013465D01*
X0018357Y0013319D01*
X0018413Y0013171D01*
X0018466Y0013022D01*
X0018515Y0012871D01*
X0018560Y0012719D01*
X0018601Y0012566D01*
X0018639Y0012413D01*
X0018672Y0012258D01*
X0018702Y0012102D01*
X0018728Y0011946D01*
X0018749Y0011789D01*
X0018767Y0011632D01*
X0018781Y0011474D01*
X0018791Y0011316D01*
X0018797Y0011158D01*
X0018799Y0011000D01*
X0018797Y0010842D01*
X0018791Y0010684D01*
X0018781Y0010526D01*
X0018767Y0010368D01*
X0018749Y0010211D01*
X0018728Y0010054D01*
X0018702Y0009898D01*
X0018672Y0009742D01*
X0018639Y0009587D01*
X0018601Y0009434D01*
X0018560Y0009281D01*
X0018515Y0009129D01*
X0018466Y0008978D01*
X0018413Y0008829D01*
X0018357Y0008681D01*
X0018297Y0008535D01*
X0018233Y0008390D01*
X0018165Y0008247D01*
X0018094Y0008105D01*
X0018020Y0007965D01*
X0017942Y0007828D01*
X0017860Y0007692D01*
X0017776Y0007558D01*
X0017687Y0007427D01*
X0017596Y0007298D01*
X0017501Y0007171D01*
X0017404Y0007046D01*
X0017303Y0006924D01*
X0017199Y0006805D01*
X0017092Y0006688D01*
X0016982Y0006574D01*
X0016869Y0006463D01*
X0016754Y0006354D01*
X0016636Y0006249D01*
X0016515Y0006147D01*
X0016392Y0006047D01*
X0016266Y0005951D01*
X0016138Y0005858D01*
X0016008Y0005768D01*
X0015875Y0005682D01*
X0015740Y0005598D01*
X0015604Y0005519D01*
X0015465Y0005442D01*
X0015324Y0005370D01*
X0015182Y0005300D01*
X0015038Y0005235D01*
X0014892Y0005173D01*
X0014745Y0005115D01*
X0014596Y0005060D01*
X0014446Y0005009D01*
X0014295Y0004962D01*
X0014143Y0004919D01*
X0013990Y0004880D01*
X0013835Y0004844D01*
X0013680Y0004813D01*
X0013524Y0004785D01*
X0013368Y0004761D01*
X0013211Y0004741D01*
X0013053Y0004725D01*
X0012896Y0004713D01*
X0012737Y0004705D01*
X0012579Y0004701D01*
X0012421Y0004701D01*
X0012263Y0004705D01*
X0012104Y0004713D01*
X0011947Y0004725D01*
X0011789Y0004741D01*
X0011632Y0004761D01*
X0011476Y0004785D01*
X0011320Y0004813D01*
X0011165Y0004844D01*
X0011010Y0004880D01*
X0010857Y0004919D01*
X0010705Y0004962D01*
X0010554Y0005009D01*
X0010404Y0005060D01*
X0010255Y0005115D01*
X0010108Y0005173D01*
X0009962Y0005235D01*
X0009818Y0005300D01*
X0009676Y0005370D01*
X0009535Y0005442D01*
X0009396Y0005519D01*
X0009260Y0005598D01*
X0009125Y0005682D01*
X0008992Y0005768D01*
X0008862Y0005858D01*
X0008734Y0005951D01*
X0008608Y0006047D01*
X0008485Y0006147D01*
X0008364Y0006249D01*
X0008246Y0006354D01*
X0008131Y0006463D01*
X0008018Y0006574D01*
X0007908Y0006688D01*
X0007801Y0006805D01*
X0007697Y0006924D01*
X0007596Y0007046D01*
X0007499Y0007171D01*
X0007404Y0007298D01*
X0007313Y0007427D01*
X0007224Y0007558D01*
X0007140Y0007692D01*
X0007058Y0007828D01*
X0006980Y0007965D01*
X0006906Y0008105D01*
X0006835Y0008247D01*
X0006767Y0008390D01*
X0006703Y0008535D01*
X0006643Y0008681D01*
X0006587Y0008829D01*
X0006534Y0008978D01*
X0006485Y0009129D01*
X0006440Y0009281D01*
X0006399Y0009434D01*
X0006361Y0009587D01*
X0006328Y0009742D01*
X0006298Y0009898D01*
X0006272Y0010054D01*
X0006251Y0010211D01*
X0006233Y0010368D01*
X0006219Y0010526D01*
X0006209Y0010684D01*
X0006203Y0010842D01*
X0006201Y0011000D01*
X0028201Y0157000D02*
X0028203Y0157158D01*
X0028209Y0157316D01*
X0028219Y0157474D01*
X0028233Y0157632D01*
X0028251Y0157789D01*
X0028272Y0157946D01*
X0028298Y0158102D01*
X0028328Y0158258D01*
X0028361Y0158413D01*
X0028399Y0158566D01*
X0028440Y0158719D01*
X0028485Y0158871D01*
X0028534Y0159022D01*
X0028587Y0159171D01*
X0028643Y0159319D01*
X0028703Y0159465D01*
X0028767Y0159610D01*
X0028835Y0159753D01*
X0028906Y0159895D01*
X0028980Y0160035D01*
X0029058Y0160172D01*
X0029140Y0160308D01*
X0029224Y0160442D01*
X0029313Y0160573D01*
X0029404Y0160702D01*
X0029499Y0160829D01*
X0029596Y0160954D01*
X0029697Y0161076D01*
X0029801Y0161195D01*
X0029908Y0161312D01*
X0030018Y0161426D01*
X0030131Y0161537D01*
X0030246Y0161646D01*
X0030364Y0161751D01*
X0030485Y0161853D01*
X0030608Y0161953D01*
X0030734Y0162049D01*
X0030862Y0162142D01*
X0030992Y0162232D01*
X0031125Y0162318D01*
X0031260Y0162402D01*
X0031396Y0162481D01*
X0031535Y0162558D01*
X0031676Y0162630D01*
X0031818Y0162700D01*
X0031962Y0162765D01*
X0032108Y0162827D01*
X0032255Y0162885D01*
X0032404Y0162940D01*
X0032554Y0162991D01*
X0032705Y0163038D01*
X0032857Y0163081D01*
X0033010Y0163120D01*
X0033165Y0163156D01*
X0033320Y0163187D01*
X0033476Y0163215D01*
X0033632Y0163239D01*
X0033789Y0163259D01*
X0033947Y0163275D01*
X0034104Y0163287D01*
X0034263Y0163295D01*
X0034421Y0163299D01*
X0034579Y0163299D01*
X0034737Y0163295D01*
X0034896Y0163287D01*
X0035053Y0163275D01*
X0035211Y0163259D01*
X0035368Y0163239D01*
X0035524Y0163215D01*
X0035680Y0163187D01*
X0035835Y0163156D01*
X0035990Y0163120D01*
X0036143Y0163081D01*
X0036295Y0163038D01*
X0036446Y0162991D01*
X0036596Y0162940D01*
X0036745Y0162885D01*
X0036892Y0162827D01*
X0037038Y0162765D01*
X0037182Y0162700D01*
X0037324Y0162630D01*
X0037465Y0162558D01*
X0037604Y0162481D01*
X0037740Y0162402D01*
X0037875Y0162318D01*
X0038008Y0162232D01*
X0038138Y0162142D01*
X0038266Y0162049D01*
X0038392Y0161953D01*
X0038515Y0161853D01*
X0038636Y0161751D01*
X0038754Y0161646D01*
X0038869Y0161537D01*
X0038982Y0161426D01*
X0039092Y0161312D01*
X0039199Y0161195D01*
X0039303Y0161076D01*
X0039404Y0160954D01*
X0039501Y0160829D01*
X0039596Y0160702D01*
X0039687Y0160573D01*
X0039776Y0160442D01*
X0039860Y0160308D01*
X0039942Y0160172D01*
X0040020Y0160035D01*
X0040094Y0159895D01*
X0040165Y0159753D01*
X0040233Y0159610D01*
X0040297Y0159465D01*
X0040357Y0159319D01*
X0040413Y0159171D01*
X0040466Y0159022D01*
X0040515Y0158871D01*
X0040560Y0158719D01*
X0040601Y0158566D01*
X0040639Y0158413D01*
X0040672Y0158258D01*
X0040702Y0158102D01*
X0040728Y0157946D01*
X0040749Y0157789D01*
X0040767Y0157632D01*
X0040781Y0157474D01*
X0040791Y0157316D01*
X0040797Y0157158D01*
X0040799Y0157000D01*
X0040797Y0156842D01*
X0040791Y0156684D01*
X0040781Y0156526D01*
X0040767Y0156368D01*
X0040749Y0156211D01*
X0040728Y0156054D01*
X0040702Y0155898D01*
X0040672Y0155742D01*
X0040639Y0155587D01*
X0040601Y0155434D01*
X0040560Y0155281D01*
X0040515Y0155129D01*
X0040466Y0154978D01*
X0040413Y0154829D01*
X0040357Y0154681D01*
X0040297Y0154535D01*
X0040233Y0154390D01*
X0040165Y0154247D01*
X0040094Y0154105D01*
X0040020Y0153965D01*
X0039942Y0153828D01*
X0039860Y0153692D01*
X0039776Y0153558D01*
X0039687Y0153427D01*
X0039596Y0153298D01*
X0039501Y0153171D01*
X0039404Y0153046D01*
X0039303Y0152924D01*
X0039199Y0152805D01*
X0039092Y0152688D01*
X0038982Y0152574D01*
X0038869Y0152463D01*
X0038754Y0152354D01*
X0038636Y0152249D01*
X0038515Y0152147D01*
X0038392Y0152047D01*
X0038266Y0151951D01*
X0038138Y0151858D01*
X0038008Y0151768D01*
X0037875Y0151682D01*
X0037740Y0151598D01*
X0037604Y0151519D01*
X0037465Y0151442D01*
X0037324Y0151370D01*
X0037182Y0151300D01*
X0037038Y0151235D01*
X0036892Y0151173D01*
X0036745Y0151115D01*
X0036596Y0151060D01*
X0036446Y0151009D01*
X0036295Y0150962D01*
X0036143Y0150919D01*
X0035990Y0150880D01*
X0035835Y0150844D01*
X0035680Y0150813D01*
X0035524Y0150785D01*
X0035368Y0150761D01*
X0035211Y0150741D01*
X0035053Y0150725D01*
X0034896Y0150713D01*
X0034737Y0150705D01*
X0034579Y0150701D01*
X0034421Y0150701D01*
X0034263Y0150705D01*
X0034104Y0150713D01*
X0033947Y0150725D01*
X0033789Y0150741D01*
X0033632Y0150761D01*
X0033476Y0150785D01*
X0033320Y0150813D01*
X0033165Y0150844D01*
X0033010Y0150880D01*
X0032857Y0150919D01*
X0032705Y0150962D01*
X0032554Y0151009D01*
X0032404Y0151060D01*
X0032255Y0151115D01*
X0032108Y0151173D01*
X0031962Y0151235D01*
X0031818Y0151300D01*
X0031676Y0151370D01*
X0031535Y0151442D01*
X0031396Y0151519D01*
X0031260Y0151598D01*
X0031125Y0151682D01*
X0030992Y0151768D01*
X0030862Y0151858D01*
X0030734Y0151951D01*
X0030608Y0152047D01*
X0030485Y0152147D01*
X0030364Y0152249D01*
X0030246Y0152354D01*
X0030131Y0152463D01*
X0030018Y0152574D01*
X0029908Y0152688D01*
X0029801Y0152805D01*
X0029697Y0152924D01*
X0029596Y0153046D01*
X0029499Y0153171D01*
X0029404Y0153298D01*
X0029313Y0153427D01*
X0029224Y0153558D01*
X0029140Y0153692D01*
X0029058Y0153828D01*
X0028980Y0153965D01*
X0028906Y0154105D01*
X0028835Y0154247D01*
X0028767Y0154390D01*
X0028703Y0154535D01*
X0028643Y0154681D01*
X0028587Y0154829D01*
X0028534Y0154978D01*
X0028485Y0155129D01*
X0028440Y0155281D01*
X0028399Y0155434D01*
X0028361Y0155587D01*
X0028328Y0155742D01*
X0028298Y0155898D01*
X0028272Y0156054D01*
X0028251Y0156211D01*
X0028233Y0156368D01*
X0028219Y0156526D01*
X0028209Y0156684D01*
X0028203Y0156842D01*
X0028201Y0157000D01*
X0163201Y0157000D02*
X0163203Y0157158D01*
X0163209Y0157316D01*
X0163219Y0157474D01*
X0163233Y0157632D01*
X0163251Y0157789D01*
X0163272Y0157946D01*
X0163298Y0158102D01*
X0163328Y0158258D01*
X0163361Y0158413D01*
X0163399Y0158566D01*
X0163440Y0158719D01*
X0163485Y0158871D01*
X0163534Y0159022D01*
X0163587Y0159171D01*
X0163643Y0159319D01*
X0163703Y0159465D01*
X0163767Y0159610D01*
X0163835Y0159753D01*
X0163906Y0159895D01*
X0163980Y0160035D01*
X0164058Y0160172D01*
X0164140Y0160308D01*
X0164224Y0160442D01*
X0164313Y0160573D01*
X0164404Y0160702D01*
X0164499Y0160829D01*
X0164596Y0160954D01*
X0164697Y0161076D01*
X0164801Y0161195D01*
X0164908Y0161312D01*
X0165018Y0161426D01*
X0165131Y0161537D01*
X0165246Y0161646D01*
X0165364Y0161751D01*
X0165485Y0161853D01*
X0165608Y0161953D01*
X0165734Y0162049D01*
X0165862Y0162142D01*
X0165992Y0162232D01*
X0166125Y0162318D01*
X0166260Y0162402D01*
X0166396Y0162481D01*
X0166535Y0162558D01*
X0166676Y0162630D01*
X0166818Y0162700D01*
X0166962Y0162765D01*
X0167108Y0162827D01*
X0167255Y0162885D01*
X0167404Y0162940D01*
X0167554Y0162991D01*
X0167705Y0163038D01*
X0167857Y0163081D01*
X0168010Y0163120D01*
X0168165Y0163156D01*
X0168320Y0163187D01*
X0168476Y0163215D01*
X0168632Y0163239D01*
X0168789Y0163259D01*
X0168947Y0163275D01*
X0169104Y0163287D01*
X0169263Y0163295D01*
X0169421Y0163299D01*
X0169579Y0163299D01*
X0169737Y0163295D01*
X0169896Y0163287D01*
X0170053Y0163275D01*
X0170211Y0163259D01*
X0170368Y0163239D01*
X0170524Y0163215D01*
X0170680Y0163187D01*
X0170835Y0163156D01*
X0170990Y0163120D01*
X0171143Y0163081D01*
X0171295Y0163038D01*
X0171446Y0162991D01*
X0171596Y0162940D01*
X0171745Y0162885D01*
X0171892Y0162827D01*
X0172038Y0162765D01*
X0172182Y0162700D01*
X0172324Y0162630D01*
X0172465Y0162558D01*
X0172604Y0162481D01*
X0172740Y0162402D01*
X0172875Y0162318D01*
X0173008Y0162232D01*
X0173138Y0162142D01*
X0173266Y0162049D01*
X0173392Y0161953D01*
X0173515Y0161853D01*
X0173636Y0161751D01*
X0173754Y0161646D01*
X0173869Y0161537D01*
X0173982Y0161426D01*
X0174092Y0161312D01*
X0174199Y0161195D01*
X0174303Y0161076D01*
X0174404Y0160954D01*
X0174501Y0160829D01*
X0174596Y0160702D01*
X0174687Y0160573D01*
X0174776Y0160442D01*
X0174860Y0160308D01*
X0174942Y0160172D01*
X0175020Y0160035D01*
X0175094Y0159895D01*
X0175165Y0159753D01*
X0175233Y0159610D01*
X0175297Y0159465D01*
X0175357Y0159319D01*
X0175413Y0159171D01*
X0175466Y0159022D01*
X0175515Y0158871D01*
X0175560Y0158719D01*
X0175601Y0158566D01*
X0175639Y0158413D01*
X0175672Y0158258D01*
X0175702Y0158102D01*
X0175728Y0157946D01*
X0175749Y0157789D01*
X0175767Y0157632D01*
X0175781Y0157474D01*
X0175791Y0157316D01*
X0175797Y0157158D01*
X0175799Y0157000D01*
X0175797Y0156842D01*
X0175791Y0156684D01*
X0175781Y0156526D01*
X0175767Y0156368D01*
X0175749Y0156211D01*
X0175728Y0156054D01*
X0175702Y0155898D01*
X0175672Y0155742D01*
X0175639Y0155587D01*
X0175601Y0155434D01*
X0175560Y0155281D01*
X0175515Y0155129D01*
X0175466Y0154978D01*
X0175413Y0154829D01*
X0175357Y0154681D01*
X0175297Y0154535D01*
X0175233Y0154390D01*
X0175165Y0154247D01*
X0175094Y0154105D01*
X0175020Y0153965D01*
X0174942Y0153828D01*
X0174860Y0153692D01*
X0174776Y0153558D01*
X0174687Y0153427D01*
X0174596Y0153298D01*
X0174501Y0153171D01*
X0174404Y0153046D01*
X0174303Y0152924D01*
X0174199Y0152805D01*
X0174092Y0152688D01*
X0173982Y0152574D01*
X0173869Y0152463D01*
X0173754Y0152354D01*
X0173636Y0152249D01*
X0173515Y0152147D01*
X0173392Y0152047D01*
X0173266Y0151951D01*
X0173138Y0151858D01*
X0173008Y0151768D01*
X0172875Y0151682D01*
X0172740Y0151598D01*
X0172604Y0151519D01*
X0172465Y0151442D01*
X0172324Y0151370D01*
X0172182Y0151300D01*
X0172038Y0151235D01*
X0171892Y0151173D01*
X0171745Y0151115D01*
X0171596Y0151060D01*
X0171446Y0151009D01*
X0171295Y0150962D01*
X0171143Y0150919D01*
X0170990Y0150880D01*
X0170835Y0150844D01*
X0170680Y0150813D01*
X0170524Y0150785D01*
X0170368Y0150761D01*
X0170211Y0150741D01*
X0170053Y0150725D01*
X0169896Y0150713D01*
X0169737Y0150705D01*
X0169579Y0150701D01*
X0169421Y0150701D01*
X0169263Y0150705D01*
X0169104Y0150713D01*
X0168947Y0150725D01*
X0168789Y0150741D01*
X0168632Y0150761D01*
X0168476Y0150785D01*
X0168320Y0150813D01*
X0168165Y0150844D01*
X0168010Y0150880D01*
X0167857Y0150919D01*
X0167705Y0150962D01*
X0167554Y0151009D01*
X0167404Y0151060D01*
X0167255Y0151115D01*
X0167108Y0151173D01*
X0166962Y0151235D01*
X0166818Y0151300D01*
X0166676Y0151370D01*
X0166535Y0151442D01*
X0166396Y0151519D01*
X0166260Y0151598D01*
X0166125Y0151682D01*
X0165992Y0151768D01*
X0165862Y0151858D01*
X0165734Y0151951D01*
X0165608Y0152047D01*
X0165485Y0152147D01*
X0165364Y0152249D01*
X0165246Y0152354D01*
X0165131Y0152463D01*
X0165018Y0152574D01*
X0164908Y0152688D01*
X0164801Y0152805D01*
X0164697Y0152924D01*
X0164596Y0153046D01*
X0164499Y0153171D01*
X0164404Y0153298D01*
X0164313Y0153427D01*
X0164224Y0153558D01*
X0164140Y0153692D01*
X0164058Y0153828D01*
X0163980Y0153965D01*
X0163906Y0154105D01*
X0163835Y0154247D01*
X0163767Y0154390D01*
X0163703Y0154535D01*
X0163643Y0154681D01*
X0163587Y0154829D01*
X0163534Y0154978D01*
X0163485Y0155129D01*
X0163440Y0155281D01*
X0163399Y0155434D01*
X0163361Y0155587D01*
X0163328Y0155742D01*
X0163298Y0155898D01*
X0163272Y0156054D01*
X0163251Y0156211D01*
X0163233Y0156368D01*
X0163219Y0156526D01*
X0163209Y0156684D01*
X0163203Y0156842D01*
X0163201Y0157000D01*
D11*
X0144500Y0089000D03*
D12*
X0144500Y0099000D03*
X0154500Y0099000D03*
X0154500Y0089000D03*
X0164500Y0089000D03*
X0164500Y0099000D03*
X0174500Y0099000D03*
X0174500Y0089000D03*
X0166500Y0070000D03*
X0156500Y0070000D03*
X0146500Y0070000D03*
X0136500Y0070000D03*
X0126500Y0070000D03*
X0116500Y0070000D03*
X0106500Y0070000D03*
X0096500Y0070000D03*
X0086500Y0070000D03*
X0076500Y0070000D03*
X0066500Y0070000D03*
X0056500Y0070000D03*
X0091500Y0060000D03*
X0101500Y0060000D03*
X0096500Y0010000D03*
X0086500Y0010000D03*
X0076500Y0010000D03*
X0066500Y0010000D03*
X0056500Y0010000D03*
X0106500Y0010000D03*
X0116500Y0010000D03*
X0126500Y0010000D03*
X0136500Y0010000D03*
X0146500Y0010000D03*
X0156500Y0010000D03*
X0166500Y0010000D03*
X0166500Y0025000D03*
X0166500Y0035000D03*
X0166500Y0045000D03*
X0166500Y0055000D03*
D13*
X0128300Y0136000D02*
X0122700Y0136000D01*
X0122700Y0146000D02*
X0128300Y0146000D01*
X0128300Y0158000D02*
X0122700Y0158000D01*
X0122700Y0168000D02*
X0128300Y0168000D01*
D14*
X0120500Y0112000D03*
X0144500Y0106500D03*
X0062500Y0115000D03*
X0008500Y0115000D03*
X0008500Y0184000D03*
X0062500Y0184000D03*
D15*
X0120500Y0122000D03*
D16*
X0062500Y0103100D03*
X0051500Y0103100D03*
X0019500Y0103100D03*
X0008500Y0103100D03*
X0008500Y0193100D03*
X0062500Y0193100D03*
D17*
X0079500Y0184000D03*
X0089500Y0184000D03*
X0111500Y0184000D03*
X0121500Y0184000D03*
D18*
X0103500Y0125000D03*
X0103500Y0115000D03*
X0093500Y0115000D03*
X0093500Y0125000D03*
X0083500Y0125000D03*
X0083500Y0115000D03*
X0073500Y0115000D03*
X0073500Y0125000D03*
X0053500Y0092000D03*
X0053500Y0082000D03*
X0043500Y0082000D03*
X0043500Y0092000D03*
X0033500Y0092000D03*
X0033500Y0082000D03*
X0023500Y0082000D03*
X0023500Y0092000D03*
X0024500Y0022000D03*
X0024500Y0012000D03*
X0034500Y0012000D03*
X0034500Y0022000D03*
X0178500Y0063000D03*
X0178500Y0073000D03*
D19*
X0188500Y0073000D03*
X0188500Y0063000D03*
X0188500Y0053000D03*
X0188500Y0043000D03*
X0188500Y0033000D03*
X0188500Y0023000D03*
X0188500Y0013000D03*
X0009500Y0022000D03*
X0009500Y0032000D03*
X0009500Y0042000D03*
X0009500Y0052000D03*
X0009500Y0062000D03*
X0009500Y0072000D03*
X0009500Y0082000D03*
X0009500Y0092000D03*
D20*
X0188000Y0099000D03*
X0191000Y0099000D03*
D21*
X0150240Y0177000D03*
X0142760Y0177000D03*
D22*
X0138701Y0180281D02*
X0138701Y0180574D01*
X0139579Y0181453D01*
X0145940Y0181453D01*
X0146500Y0180893D01*
X0146760Y0181153D01*
X0147102Y0181351D01*
X0147484Y0181453D01*
X0149740Y0181453D01*
X0149740Y0177500D01*
X0150740Y0177500D01*
X0150740Y0181453D01*
X0152997Y0181453D01*
X0153378Y0181351D01*
X0153720Y0181153D01*
X0153999Y0180874D01*
X0154197Y0180532D01*
X0154299Y0180150D01*
X0154299Y0177500D01*
X0150740Y0177500D01*
X0150740Y0176500D01*
X0150740Y0172547D01*
X0152997Y0172547D01*
X0153378Y0172649D01*
X0153720Y0172847D01*
X0153999Y0173126D01*
X0154197Y0173468D01*
X0154299Y0173850D01*
X0154299Y0176500D01*
X0150740Y0176500D01*
X0149740Y0176500D01*
X0149740Y0172547D01*
X0147484Y0172547D01*
X0147102Y0172649D01*
X0146760Y0172847D01*
X0146500Y0173107D01*
X0145940Y0172547D01*
X0139579Y0172547D01*
X0138701Y0173426D01*
X0138701Y0173719D01*
X0134539Y0173719D01*
X0133660Y0174598D01*
X0133660Y0179402D01*
X0134539Y0180281D01*
X0138701Y0180281D01*
X0138860Y0180734D02*
X0127733Y0180734D01*
X0126793Y0181732D02*
X0196000Y0181732D01*
X0196000Y0180734D02*
X0154080Y0180734D01*
X0154299Y0179735D02*
X0196000Y0179735D01*
X0196000Y0178737D02*
X0154299Y0178737D01*
X0154299Y0177738D02*
X0179051Y0177738D01*
X0178753Y0177615D02*
X0177885Y0176747D01*
X0177416Y0175613D01*
X0177416Y0174386D01*
X0177885Y0173253D01*
X0178500Y0172638D01*
X0178500Y0106172D01*
X0180500Y0104172D01*
X0181672Y0103000D01*
X0186672Y0103000D01*
X0187422Y0102250D01*
X0186179Y0102250D01*
X0185300Y0101371D01*
X0185300Y0101000D01*
X0178508Y0101000D01*
X0178288Y0101531D01*
X0177031Y0102788D01*
X0176229Y0103120D01*
X0176869Y0103385D01*
X0177737Y0104253D01*
X0178206Y0105386D01*
X0178206Y0106613D01*
X0177737Y0107747D01*
X0176869Y0108615D01*
X0175736Y0109084D01*
X0174509Y0109084D01*
X0173375Y0108615D01*
X0172760Y0108000D01*
X0153862Y0108000D01*
X0153247Y0108615D01*
X0152113Y0109084D01*
X0150886Y0109084D01*
X0149753Y0108615D01*
X0149150Y0108012D01*
X0149150Y0108426D01*
X0146426Y0111150D01*
X0142574Y0111150D01*
X0139850Y0108426D01*
X0139850Y0104574D01*
X0141802Y0102622D01*
X0140712Y0101531D01*
X0140616Y0101300D01*
X0140453Y0101300D01*
X0139453Y0102300D01*
X0131800Y0109953D01*
X0131800Y0113953D01*
X0125012Y0120741D01*
X0125150Y0121075D01*
X0125150Y0122925D01*
X0124442Y0124634D01*
X0123134Y0125942D01*
X0121425Y0126650D01*
X0119575Y0126650D01*
X0117866Y0125942D01*
X0116558Y0124634D01*
X0115850Y0122925D01*
X0115850Y0121075D01*
X0116558Y0119366D01*
X0117866Y0118058D01*
X0119575Y0117350D01*
X0121425Y0117350D01*
X0121759Y0117488D01*
X0127200Y0112047D01*
X0127200Y0108047D01*
X0128547Y0106700D01*
X0128547Y0106700D01*
X0136200Y0099047D01*
X0136200Y0084047D01*
X0140416Y0079832D01*
X0140416Y0079386D01*
X0140885Y0078253D01*
X0141753Y0077385D01*
X0142683Y0077000D01*
X0136672Y0077000D01*
X0135672Y0076000D01*
X0134500Y0074828D01*
X0134500Y0074008D01*
X0133969Y0073788D01*
X0132712Y0072531D01*
X0132031Y0070889D01*
X0132031Y0069111D01*
X0132712Y0067469D01*
X0133969Y0066212D01*
X0135611Y0065531D01*
X0137389Y0065531D01*
X0139031Y0066212D01*
X0140288Y0067469D01*
X0140968Y0069111D01*
X0140968Y0070889D01*
X0140288Y0072531D01*
X0139819Y0073000D01*
X0143181Y0073000D01*
X0142712Y0072531D01*
X0142031Y0070889D01*
X0142031Y0069111D01*
X0142712Y0067469D01*
X0143969Y0066212D01*
X0145611Y0065531D01*
X0147389Y0065531D01*
X0149031Y0066212D01*
X0150288Y0067469D01*
X0150968Y0069111D01*
X0150968Y0070889D01*
X0150288Y0072531D01*
X0149074Y0073745D01*
X0151328Y0076000D01*
X0165672Y0076000D01*
X0165672Y0076000D01*
X0164500Y0074828D01*
X0164500Y0074008D01*
X0163969Y0073788D01*
X0162712Y0072531D01*
X0162031Y0070889D01*
X0162031Y0069111D01*
X0162712Y0067469D01*
X0163969Y0066212D01*
X0165611Y0065531D01*
X0167389Y0065531D01*
X0169031Y0066212D01*
X0170288Y0067469D01*
X0170968Y0069111D01*
X0170968Y0070889D01*
X0170288Y0072531D01*
X0169074Y0073745D01*
X0184328Y0089000D01*
X0185500Y0090172D01*
X0185500Y0091638D01*
X0186115Y0092253D01*
X0186500Y0093183D01*
X0186500Y0077800D01*
X0185554Y0077408D01*
X0184092Y0075946D01*
X0183300Y0074034D01*
X0183300Y0071966D01*
X0183692Y0071020D01*
X0182672Y0070000D01*
X0181864Y0070000D01*
X0183000Y0071136D01*
X0183000Y0074864D01*
X0180364Y0077500D01*
X0176636Y0077500D01*
X0174000Y0074864D01*
X0174000Y0071136D01*
X0175136Y0070000D01*
X0173672Y0070000D01*
X0172500Y0068828D01*
X0167672Y0064000D01*
X0116672Y0064000D01*
X0100672Y0048000D01*
X0099500Y0046828D01*
X0099500Y0040362D01*
X0098885Y0039747D01*
X0098416Y0038613D01*
X0098416Y0037386D01*
X0098885Y0036253D01*
X0099753Y0035385D01*
X0100886Y0034916D01*
X0102113Y0034916D01*
X0103247Y0035385D01*
X0104115Y0036253D01*
X0104584Y0037386D01*
X0104584Y0038613D01*
X0104115Y0039747D01*
X0103500Y0040362D01*
X0103500Y0045172D01*
X0118328Y0060000D01*
X0169328Y0060000D01*
X0174000Y0064672D01*
X0174000Y0063500D01*
X0178000Y0063500D01*
X0178000Y0062500D01*
X0179000Y0062500D01*
X0179000Y0063500D01*
X0183000Y0063500D01*
X0183000Y0064864D01*
X0181864Y0066000D01*
X0184146Y0066000D01*
X0184092Y0065946D01*
X0183300Y0064034D01*
X0183300Y0061966D01*
X0183692Y0061020D01*
X0174672Y0052000D01*
X0169819Y0052000D01*
X0170288Y0052469D01*
X0170968Y0054111D01*
X0170968Y0055889D01*
X0170288Y0057531D01*
X0169031Y0058788D01*
X0167389Y0059468D01*
X0165611Y0059468D01*
X0163969Y0058788D01*
X0162712Y0057531D01*
X0162031Y0055889D01*
X0162031Y0054111D01*
X0162712Y0052469D01*
X0163181Y0052000D01*
X0160672Y0052000D01*
X0157672Y0049000D01*
X0156500Y0047828D01*
X0156500Y0034828D01*
X0153672Y0032000D01*
X0108862Y0032000D01*
X0108247Y0032615D01*
X0107113Y0033084D01*
X0105886Y0033084D01*
X0104753Y0032615D01*
X0103885Y0031747D01*
X0103416Y0030613D01*
X0103416Y0029386D01*
X0103885Y0028253D01*
X0104753Y0027385D01*
X0105886Y0026916D01*
X0107113Y0026916D01*
X0108247Y0027385D01*
X0108862Y0028000D01*
X0114138Y0028000D01*
X0113885Y0027747D01*
X0113416Y0026613D01*
X0113416Y0025386D01*
X0113885Y0024253D01*
X0114753Y0023385D01*
X0115886Y0022916D01*
X0117113Y0022916D01*
X0118247Y0023385D01*
X0119115Y0024253D01*
X0119424Y0025000D01*
X0124138Y0025000D01*
X0123885Y0024747D01*
X0123416Y0023613D01*
X0123416Y0022386D01*
X0123885Y0021253D01*
X0124753Y0020385D01*
X0125886Y0019916D01*
X0127113Y0019916D01*
X0128247Y0020385D01*
X0129115Y0021253D01*
X0129424Y0022000D01*
X0134138Y0022000D01*
X0133885Y0021747D01*
X0133416Y0020613D01*
X0133416Y0019386D01*
X0133885Y0018253D01*
X0134753Y0017385D01*
X0135886Y0016916D01*
X0137113Y0016916D01*
X0138247Y0017385D01*
X0139115Y0018253D01*
X0139424Y0019000D01*
X0144138Y0019000D01*
X0143885Y0018747D01*
X0143416Y0017613D01*
X0143416Y0016386D01*
X0143885Y0015253D01*
X0144753Y0014385D01*
X0145082Y0014249D01*
X0143969Y0013788D01*
X0142712Y0012531D01*
X0142031Y0010889D01*
X0142031Y0009111D01*
X0142712Y0007469D01*
X0143969Y0006212D01*
X0145611Y0005531D01*
X0147389Y0005531D01*
X0149031Y0006212D01*
X0150288Y0007469D01*
X0150968Y0009111D01*
X0150968Y0010889D01*
X0150288Y0012531D01*
X0149031Y0013788D01*
X0147918Y0014249D01*
X0148247Y0014385D01*
X0149115Y0015253D01*
X0149424Y0016000D01*
X0153783Y0016000D01*
X0153416Y0015113D01*
X0153416Y0013886D01*
X0153607Y0013426D01*
X0152712Y0012531D01*
X0152031Y0010889D01*
X0152031Y0009111D01*
X0152712Y0007469D01*
X0153969Y0006212D01*
X0155611Y0005531D01*
X0157389Y0005531D01*
X0159031Y0006212D01*
X0160288Y0007469D01*
X0160968Y0009111D01*
X0160968Y0010889D01*
X0160288Y0012531D01*
X0159819Y0013000D01*
X0163181Y0013000D01*
X0162712Y0012531D01*
X0162031Y0010889D01*
X0162031Y0009111D01*
X0162712Y0007469D01*
X0163969Y0006212D01*
X0165611Y0005531D01*
X0167389Y0005531D01*
X0169031Y0006212D01*
X0170288Y0007469D01*
X0170968Y0009111D01*
X0170968Y0010889D01*
X0170288Y0012531D01*
X0169819Y0013000D01*
X0183300Y0013000D01*
X0183300Y0011966D01*
X0184092Y0010054D01*
X0185554Y0008592D01*
X0187466Y0007800D01*
X0189534Y0007800D01*
X0191446Y0008592D01*
X0192908Y0010054D01*
X0193700Y0011966D01*
X0193700Y0014034D01*
X0192908Y0015946D01*
X0191446Y0017408D01*
X0190017Y0018000D01*
X0191446Y0018592D01*
X0192908Y0020054D01*
X0193700Y0021966D01*
X0193700Y0024034D01*
X0192908Y0025946D01*
X0191446Y0027408D01*
X0190017Y0028000D01*
X0191446Y0028592D01*
X0192908Y0030054D01*
X0193700Y0031966D01*
X0193700Y0034034D01*
X0192908Y0035946D01*
X0191446Y0037408D01*
X0190017Y0038000D01*
X0191446Y0038592D01*
X0192908Y0040054D01*
X0193700Y0041966D01*
X0193700Y0044034D01*
X0192908Y0045946D01*
X0191446Y0047408D01*
X0190017Y0048000D01*
X0191446Y0048592D01*
X0192908Y0050054D01*
X0193700Y0051966D01*
X0193700Y0054034D01*
X0192908Y0055946D01*
X0191446Y0057408D01*
X0190017Y0058000D01*
X0191446Y0058592D01*
X0192908Y0060054D01*
X0193700Y0061966D01*
X0193700Y0064034D01*
X0192908Y0065946D01*
X0191446Y0067408D01*
X0190017Y0068000D01*
X0191446Y0068592D01*
X0192908Y0070054D01*
X0193700Y0071966D01*
X0193700Y0074034D01*
X0192908Y0075946D01*
X0191446Y0077408D01*
X0190500Y0077800D01*
X0190500Y0092172D01*
X0191828Y0093500D01*
X0193000Y0094672D01*
X0193000Y0095929D01*
X0193700Y0096629D01*
X0193700Y0101371D01*
X0193000Y0102071D01*
X0193000Y0102328D01*
X0189500Y0105828D01*
X0188328Y0107000D01*
X0183328Y0107000D01*
X0182500Y0107828D01*
X0182500Y0172638D01*
X0183115Y0173253D01*
X0183584Y0174386D01*
X0183584Y0175613D01*
X0183115Y0176747D01*
X0182247Y0177615D01*
X0181113Y0178084D01*
X0179886Y0178084D01*
X0178753Y0177615D01*
X0177882Y0176739D02*
X0150740Y0176739D01*
X0150740Y0175741D02*
X0149740Y0175741D01*
X0149740Y0174742D02*
X0150740Y0174742D01*
X0150740Y0173744D02*
X0149740Y0173744D01*
X0149740Y0172745D02*
X0150740Y0172745D01*
X0153544Y0172745D02*
X0178393Y0172745D01*
X0178500Y0171747D02*
X0136191Y0171747D01*
X0137131Y0170748D02*
X0178500Y0170748D01*
X0178500Y0169750D02*
X0138070Y0169750D01*
X0139010Y0168751D02*
X0178500Y0168751D01*
X0178500Y0167753D02*
X0139824Y0167753D01*
X0139828Y0167883D02*
X0139800Y0167912D01*
X0139800Y0167953D01*
X0139151Y0168602D01*
X0125847Y0182737D01*
X0126000Y0183105D01*
X0126000Y0184895D01*
X0125315Y0186549D01*
X0124049Y0187815D01*
X0122395Y0188500D01*
X0120605Y0188500D01*
X0120356Y0188397D01*
X0113800Y0194953D01*
X0112453Y0196300D01*
X0071547Y0196300D01*
X0070200Y0194953D01*
X0066772Y0191524D01*
X0066772Y0196493D01*
X0066765Y0196500D01*
X0196000Y0196500D01*
X0196000Y0003500D01*
X0014774Y0003500D01*
X0016918Y0004388D01*
X0019112Y0006582D01*
X0020299Y0009449D01*
X0020299Y0009837D01*
X0022636Y0007500D01*
X0026364Y0007500D01*
X0029000Y0010136D01*
X0029000Y0013864D01*
X0026364Y0016500D01*
X0022636Y0016500D01*
X0020000Y0013864D01*
X0020000Y0013274D01*
X0019112Y0015418D01*
X0016918Y0017612D01*
X0014051Y0018799D01*
X0013653Y0018799D01*
X0013908Y0019054D01*
X0014700Y0020966D01*
X0014700Y0023034D01*
X0013908Y0024946D01*
X0012446Y0026408D01*
X0010983Y0027014D01*
X0011496Y0027181D01*
X0012225Y0027553D01*
X0012888Y0028034D01*
X0013466Y0028612D01*
X0013947Y0029275D01*
X0014319Y0030004D01*
X0014572Y0030782D01*
X0014686Y0031500D01*
X0010000Y0031500D01*
X0010000Y0032500D01*
X0014686Y0032500D01*
X0014572Y0033218D01*
X0014319Y0033996D01*
X0013947Y0034725D01*
X0013466Y0035388D01*
X0012888Y0035966D01*
X0012225Y0036447D01*
X0011496Y0036819D01*
X0010983Y0036986D01*
X0012446Y0037592D01*
X0013908Y0039054D01*
X0014300Y0040000D01*
X0026328Y0040000D01*
X0043244Y0056916D01*
X0044113Y0056916D01*
X0045247Y0057385D01*
X0046115Y0058253D01*
X0046584Y0059386D01*
X0046584Y0060041D01*
X0046886Y0059916D01*
X0048113Y0059916D01*
X0049247Y0060385D01*
X0050115Y0061253D01*
X0050497Y0062175D01*
X0052672Y0060000D01*
X0070328Y0060000D01*
X0071500Y0061172D01*
X0072500Y0062172D01*
X0072500Y0020172D01*
X0074500Y0018172D01*
X0074500Y0014008D01*
X0073969Y0013788D01*
X0072712Y0012531D01*
X0072031Y0010889D01*
X0072031Y0009111D01*
X0072712Y0007469D01*
X0073969Y0006212D01*
X0075611Y0005531D01*
X0077389Y0005531D01*
X0079031Y0006212D01*
X0080288Y0007469D01*
X0080968Y0009111D01*
X0080968Y0010889D01*
X0080288Y0012531D01*
X0079031Y0013788D01*
X0078500Y0014008D01*
X0078500Y0019828D01*
X0077328Y0021000D01*
X0076500Y0021828D01*
X0076500Y0064172D01*
X0078193Y0065865D01*
X0079031Y0066212D01*
X0080288Y0067469D01*
X0080968Y0069111D01*
X0080968Y0070889D01*
X0080288Y0072531D01*
X0079031Y0073788D01*
X0077389Y0074468D01*
X0075611Y0074468D01*
X0074221Y0073893D01*
X0074221Y0073893D01*
X0075328Y0075000D01*
X0103672Y0075000D01*
X0104500Y0074172D01*
X0104500Y0074008D01*
X0103969Y0073788D01*
X0102712Y0072531D01*
X0102031Y0070889D01*
X0102031Y0069111D01*
X0102712Y0067469D01*
X0103969Y0066212D01*
X0105611Y0065531D01*
X0107389Y0065531D01*
X0109031Y0066212D01*
X0110288Y0067469D01*
X0110968Y0069111D01*
X0110968Y0070889D01*
X0110288Y0072531D01*
X0109031Y0073788D01*
X0108500Y0074008D01*
X0108500Y0075828D01*
X0107328Y0077000D01*
X0105328Y0079000D01*
X0090717Y0079000D01*
X0091084Y0079886D01*
X0091084Y0081113D01*
X0090615Y0082247D01*
X0089747Y0083115D01*
X0088613Y0083584D01*
X0087386Y0083584D01*
X0086253Y0083115D01*
X0085638Y0082500D01*
X0060172Y0082500D01*
X0058000Y0080328D01*
X0058000Y0083864D01*
X0056864Y0085000D01*
X0066638Y0085000D01*
X0067253Y0084385D01*
X0068386Y0083916D01*
X0069613Y0083916D01*
X0070747Y0084385D01*
X0071615Y0085253D01*
X0072084Y0086386D01*
X0072084Y0087613D01*
X0071615Y0088747D01*
X0070747Y0089615D01*
X0069613Y0090084D01*
X0068386Y0090084D01*
X0067253Y0089615D01*
X0066638Y0089000D01*
X0056864Y0089000D01*
X0058000Y0090136D01*
X0058000Y0093864D01*
X0055364Y0096500D01*
X0051636Y0096500D01*
X0049000Y0093864D01*
X0049000Y0090136D01*
X0050136Y0089000D01*
X0046864Y0089000D01*
X0048000Y0090136D01*
X0048000Y0093864D01*
X0045364Y0096500D01*
X0041636Y0096500D01*
X0039000Y0093864D01*
X0039000Y0090136D01*
X0040136Y0089000D01*
X0036864Y0089000D01*
X0038000Y0090136D01*
X0038000Y0091500D01*
X0034000Y0091500D01*
X0034000Y0092500D01*
X0033000Y0092500D01*
X0033000Y0096500D01*
X0031636Y0096500D01*
X0029000Y0093864D01*
X0029000Y0092500D01*
X0033000Y0092500D01*
X0033000Y0091500D01*
X0029000Y0091500D01*
X0029000Y0090136D01*
X0030136Y0089000D01*
X0026864Y0089000D01*
X0028000Y0090136D01*
X0028000Y0093864D01*
X0025364Y0096500D01*
X0021636Y0096500D01*
X0019000Y0093864D01*
X0019000Y0090136D01*
X0020404Y0088732D01*
X0015672Y0084000D01*
X0014300Y0084000D01*
X0013908Y0084946D01*
X0012446Y0086408D01*
X0011017Y0087000D01*
X0012446Y0087592D01*
X0013908Y0089054D01*
X0014700Y0090966D01*
X0014700Y0093034D01*
X0014308Y0093980D01*
X0016828Y0096500D01*
X0069828Y0096500D01*
X0071000Y0097672D01*
X0071828Y0098500D01*
X0105172Y0098500D01*
X0105416Y0098256D01*
X0105416Y0097386D01*
X0105885Y0096253D01*
X0106753Y0095385D01*
X0107886Y0094916D01*
X0109113Y0094916D01*
X0110247Y0095385D01*
X0111115Y0096253D01*
X0111584Y0097386D01*
X0111584Y0098613D01*
X0111115Y0099747D01*
X0110247Y0100615D01*
X0109113Y0101084D01*
X0108244Y0101084D01*
X0108000Y0101328D01*
X0106828Y0102500D01*
X0102333Y0102500D01*
X0102500Y0102903D01*
X0102500Y0104097D01*
X0102043Y0105199D01*
X0101199Y0106043D01*
X0100097Y0106500D01*
X0098903Y0106500D01*
X0097801Y0106043D01*
X0097557Y0105800D01*
X0092947Y0105800D01*
X0092447Y0105300D01*
X0066772Y0105300D01*
X0066772Y0106493D01*
X0065893Y0107372D01*
X0059107Y0107372D01*
X0058228Y0106493D01*
X0058228Y0100500D01*
X0055772Y0100500D01*
X0055772Y0106493D01*
X0054893Y0107372D01*
X0053800Y0107372D01*
X0053800Y0112700D01*
X0058224Y0112700D01*
X0060574Y0110350D01*
X0064426Y0110350D01*
X0067150Y0113074D01*
X0067150Y0116926D01*
X0064426Y0119650D01*
X0060574Y0119650D01*
X0058224Y0117300D01*
X0053800Y0117300D01*
X0053800Y0158547D01*
X0059953Y0164700D01*
X0079453Y0164700D01*
X0080800Y0166047D01*
X0091800Y0177047D01*
X0091800Y0180082D01*
X0092049Y0180185D01*
X0093315Y0181451D01*
X0094000Y0183105D01*
X0094000Y0184895D01*
X0093315Y0186549D01*
X0092049Y0187815D01*
X0090395Y0188500D01*
X0088605Y0188500D01*
X0086951Y0187815D01*
X0085685Y0186549D01*
X0085000Y0184895D01*
X0085000Y0183105D01*
X0085685Y0181451D01*
X0086951Y0180185D01*
X0087200Y0180082D01*
X0087200Y0178953D01*
X0077547Y0169300D01*
X0058047Y0169300D01*
X0056700Y0167953D01*
X0049200Y0160453D01*
X0049200Y0107372D01*
X0048107Y0107372D01*
X0047228Y0106493D01*
X0047228Y0100500D01*
X0023772Y0100500D01*
X0023772Y0106493D01*
X0022893Y0107372D01*
X0016107Y0107372D01*
X0015228Y0106493D01*
X0015228Y0100500D01*
X0015172Y0100500D01*
X0014000Y0099328D01*
X0011480Y0096808D01*
X0010534Y0097200D01*
X0008466Y0097200D01*
X0006554Y0096408D01*
X0005092Y0094946D01*
X0004300Y0093034D01*
X0004300Y0090966D01*
X0005092Y0089054D01*
X0006554Y0087592D01*
X0007983Y0087000D01*
X0006554Y0086408D01*
X0005092Y0084946D01*
X0004300Y0083034D01*
X0004300Y0080966D01*
X0005092Y0079054D01*
X0006554Y0077592D01*
X0007983Y0077000D01*
X0006554Y0076408D01*
X0005092Y0074946D01*
X0004300Y0073034D01*
X0004300Y0070966D01*
X0005092Y0069054D01*
X0006554Y0067592D01*
X0007983Y0067000D01*
X0006554Y0066408D01*
X0005092Y0064946D01*
X0004300Y0063034D01*
X0004300Y0060966D01*
X0005092Y0059054D01*
X0006554Y0057592D01*
X0007983Y0057000D01*
X0006554Y0056408D01*
X0005092Y0054946D01*
X0004300Y0053034D01*
X0004300Y0050966D01*
X0005092Y0049054D01*
X0006554Y0047592D01*
X0007983Y0047000D01*
X0006554Y0046408D01*
X0005092Y0044946D01*
X0004300Y0043034D01*
X0004300Y0040966D01*
X0005092Y0039054D01*
X0006554Y0037592D01*
X0008017Y0036986D01*
X0007504Y0036819D01*
X0006775Y0036447D01*
X0006112Y0035966D01*
X0005534Y0035388D01*
X0005053Y0034725D01*
X0004681Y0033996D01*
X0004428Y0033218D01*
X0004314Y0032500D01*
X0009000Y0032500D01*
X0009000Y0031500D01*
X0004314Y0031500D01*
X0004428Y0030782D01*
X0004681Y0030004D01*
X0005053Y0029275D01*
X0005534Y0028612D01*
X0006112Y0028034D01*
X0006775Y0027553D01*
X0007504Y0027181D01*
X0008017Y0027014D01*
X0006554Y0026408D01*
X0005092Y0024946D01*
X0004300Y0023034D01*
X0004300Y0020966D01*
X0005092Y0019054D01*
X0006554Y0017592D01*
X0007620Y0017150D01*
X0005888Y0015418D01*
X0004701Y0012551D01*
X0004701Y0009449D01*
X0005888Y0006582D01*
X0008082Y0004388D01*
X0010226Y0003500D01*
X0003000Y0003500D01*
X0003000Y0196500D01*
X0004235Y0196500D01*
X0004228Y0196493D01*
X0004228Y0189707D01*
X0005107Y0188828D01*
X0011893Y0188828D01*
X0012772Y0189707D01*
X0012772Y0196493D01*
X0012765Y0196500D01*
X0058235Y0196500D01*
X0058228Y0196493D01*
X0058228Y0189707D01*
X0059107Y0188828D01*
X0064076Y0188828D01*
X0063897Y0188650D01*
X0060574Y0188650D01*
X0057850Y0185926D01*
X0057850Y0182074D01*
X0060574Y0179350D01*
X0064426Y0179350D01*
X0067150Y0182074D01*
X0067150Y0185397D01*
X0073453Y0191700D01*
X0110547Y0191700D01*
X0117103Y0185144D01*
X0117000Y0184895D01*
X0117000Y0183105D01*
X0117685Y0181451D01*
X0118951Y0180185D01*
X0120605Y0179500D01*
X0122395Y0179500D01*
X0122526Y0179554D01*
X0129480Y0172166D01*
X0129155Y0172300D01*
X0121845Y0172300D01*
X0120264Y0171645D01*
X0119055Y0170436D01*
X0118998Y0170300D01*
X0112562Y0170300D01*
X0112247Y0170615D01*
X0111113Y0171084D01*
X0109886Y0171084D01*
X0108753Y0170615D01*
X0107885Y0169747D01*
X0107416Y0168613D01*
X0107416Y0167386D01*
X0107885Y0166253D01*
X0108753Y0165385D01*
X0109886Y0164916D01*
X0111113Y0164916D01*
X0112247Y0165385D01*
X0112562Y0165700D01*
X0118998Y0165700D01*
X0119055Y0165564D01*
X0120264Y0164355D01*
X0121845Y0163700D01*
X0129155Y0163700D01*
X0130736Y0164355D01*
X0131945Y0165564D01*
X0132600Y0167145D01*
X0132600Y0168850D01*
X0135200Y0166088D01*
X0135200Y0164953D01*
X0131314Y0161067D01*
X0130736Y0161645D01*
X0129155Y0162300D01*
X0121845Y0162300D01*
X0120264Y0161645D01*
X0119055Y0160436D01*
X0118400Y0158855D01*
X0118400Y0157145D01*
X0119055Y0155564D01*
X0120264Y0154355D01*
X0121845Y0153700D01*
X0129155Y0153700D01*
X0130736Y0154355D01*
X0131945Y0155564D01*
X0132002Y0155700D01*
X0132453Y0155700D01*
X0133800Y0157047D01*
X0139800Y0163047D01*
X0139800Y0166965D01*
X0139828Y0167883D01*
X0139800Y0166754D02*
X0178500Y0166754D01*
X0178500Y0165756D02*
X0139800Y0165756D01*
X0139800Y0164757D02*
X0167848Y0164757D01*
X0167949Y0164799D02*
X0165082Y0163612D01*
X0162888Y0161418D01*
X0161701Y0158551D01*
X0161701Y0155449D01*
X0162888Y0152582D01*
X0165082Y0150388D01*
X0167949Y0149201D01*
X0171051Y0149201D01*
X0173918Y0150388D01*
X0176112Y0152582D01*
X0177299Y0155449D01*
X0177299Y0158551D01*
X0176112Y0161418D01*
X0173918Y0163612D01*
X0171051Y0164799D01*
X0167949Y0164799D01*
X0165437Y0163759D02*
X0139800Y0163759D01*
X0139513Y0162760D02*
X0164231Y0162760D01*
X0163232Y0161762D02*
X0138514Y0161762D01*
X0137516Y0160763D02*
X0162617Y0160763D01*
X0162203Y0159765D02*
X0139885Y0159765D01*
X0140247Y0159615D02*
X0139113Y0160084D01*
X0137886Y0160084D01*
X0136753Y0159615D01*
X0135885Y0158747D01*
X0135416Y0157613D01*
X0135416Y0156386D01*
X0135885Y0155253D01*
X0136200Y0154938D01*
X0136200Y0131062D01*
X0135885Y0130747D01*
X0135416Y0129613D01*
X0135416Y0128386D01*
X0135885Y0127253D01*
X0136753Y0126385D01*
X0137886Y0125916D01*
X0139113Y0125916D01*
X0140247Y0126385D01*
X0141115Y0127253D01*
X0141584Y0128386D01*
X0141584Y0129613D01*
X0141115Y0130747D01*
X0140800Y0131062D01*
X0140800Y0154938D01*
X0141115Y0155253D01*
X0141584Y0156386D01*
X0141584Y0157613D01*
X0141115Y0158747D01*
X0140247Y0159615D01*
X0141095Y0158766D02*
X0161790Y0158766D01*
X0161701Y0157768D02*
X0141520Y0157768D01*
X0141584Y0156769D02*
X0161701Y0156769D01*
X0161701Y0155771D02*
X0141329Y0155771D01*
X0140800Y0154772D02*
X0161981Y0154772D01*
X0162395Y0153774D02*
X0140800Y0153774D01*
X0140800Y0152775D02*
X0162808Y0152775D01*
X0163694Y0151777D02*
X0140800Y0151777D01*
X0140800Y0150778D02*
X0164692Y0150778D01*
X0166551Y0149780D02*
X0140800Y0149780D01*
X0140800Y0148781D02*
X0178500Y0148781D01*
X0178500Y0147783D02*
X0140800Y0147783D01*
X0140800Y0146784D02*
X0178500Y0146784D01*
X0178500Y0145786D02*
X0140800Y0145786D01*
X0140800Y0144787D02*
X0178500Y0144787D01*
X0178500Y0143789D02*
X0140800Y0143789D01*
X0140800Y0142790D02*
X0178500Y0142790D01*
X0178500Y0141792D02*
X0140800Y0141792D01*
X0140800Y0140793D02*
X0178500Y0140793D01*
X0178500Y0139795D02*
X0140800Y0139795D01*
X0140800Y0138796D02*
X0178500Y0138796D01*
X0178500Y0137798D02*
X0140800Y0137798D01*
X0140800Y0136799D02*
X0178500Y0136799D01*
X0178500Y0135801D02*
X0140800Y0135801D01*
X0140800Y0134802D02*
X0178500Y0134802D01*
X0178500Y0133803D02*
X0140800Y0133803D01*
X0140800Y0132805D02*
X0178500Y0132805D01*
X0178500Y0131806D02*
X0140800Y0131806D01*
X0141054Y0130808D02*
X0178500Y0130808D01*
X0178500Y0129809D02*
X0141503Y0129809D01*
X0141584Y0128811D02*
X0178500Y0128811D01*
X0178500Y0127812D02*
X0141346Y0127812D01*
X0140676Y0126814D02*
X0178500Y0126814D01*
X0178500Y0125815D02*
X0123261Y0125815D01*
X0124259Y0124817D02*
X0178500Y0124817D01*
X0178500Y0123818D02*
X0124780Y0123818D01*
X0125150Y0122820D02*
X0178500Y0122820D01*
X0178500Y0121821D02*
X0125150Y0121821D01*
X0125046Y0120823D02*
X0178500Y0120823D01*
X0178500Y0119824D02*
X0125928Y0119824D01*
X0126927Y0118826D02*
X0178500Y0118826D01*
X0178500Y0117827D02*
X0127925Y0117827D01*
X0128924Y0116829D02*
X0178500Y0116829D01*
X0178500Y0115830D02*
X0129922Y0115830D01*
X0130921Y0114832D02*
X0178500Y0114832D01*
X0178500Y0113833D02*
X0131800Y0113833D01*
X0131800Y0112835D02*
X0178500Y0112835D01*
X0178500Y0111836D02*
X0131800Y0111836D01*
X0131800Y0110838D02*
X0142262Y0110838D01*
X0141263Y0109839D02*
X0131913Y0109839D01*
X0132912Y0108841D02*
X0140265Y0108841D01*
X0139850Y0107842D02*
X0133910Y0107842D01*
X0134909Y0106844D02*
X0139850Y0106844D01*
X0139850Y0105845D02*
X0135907Y0105845D01*
X0136906Y0104847D02*
X0139850Y0104847D01*
X0140576Y0103848D02*
X0137905Y0103848D01*
X0138903Y0102850D02*
X0141574Y0102850D01*
X0141032Y0101851D02*
X0139902Y0101851D01*
X0136200Y0098856D02*
X0111484Y0098856D01*
X0111584Y0097857D02*
X0136200Y0097857D01*
X0136200Y0096859D02*
X0111366Y0096859D01*
X0110722Y0095860D02*
X0136200Y0095860D01*
X0136200Y0094862D02*
X0057002Y0094862D01*
X0056004Y0095860D02*
X0106278Y0095860D01*
X0105634Y0096859D02*
X0070187Y0096859D01*
X0071186Y0097857D02*
X0105416Y0097857D01*
X0106000Y0100500D02*
X0071000Y0100500D01*
X0069000Y0098500D01*
X0016000Y0098500D01*
X0009500Y0092000D01*
X0004300Y0091866D02*
X0003000Y0091866D01*
X0003000Y0090868D02*
X0004341Y0090868D01*
X0004754Y0089869D02*
X0003000Y0089869D01*
X0003000Y0088870D02*
X0005276Y0088870D01*
X0006274Y0087872D02*
X0003000Y0087872D01*
X0003000Y0086873D02*
X0007677Y0086873D01*
X0006021Y0085875D02*
X0003000Y0085875D01*
X0003000Y0084876D02*
X0005063Y0084876D01*
X0004649Y0083878D02*
X0003000Y0083878D01*
X0003000Y0082879D02*
X0004300Y0082879D01*
X0004300Y0081881D02*
X0003000Y0081881D01*
X0003000Y0080882D02*
X0004334Y0080882D01*
X0004748Y0079884D02*
X0003000Y0079884D01*
X0003000Y0078885D02*
X0005261Y0078885D01*
X0006259Y0077887D02*
X0003000Y0077887D01*
X0003000Y0076888D02*
X0007713Y0076888D01*
X0006036Y0075890D02*
X0003000Y0075890D01*
X0003000Y0074891D02*
X0005069Y0074891D01*
X0004656Y0073893D02*
X0003000Y0073893D01*
X0003000Y0072894D02*
X0004300Y0072894D01*
X0004300Y0071896D02*
X0003000Y0071896D01*
X0003000Y0070897D02*
X0004328Y0070897D01*
X0004742Y0069899D02*
X0003000Y0069899D01*
X0003000Y0068900D02*
X0005246Y0068900D01*
X0006244Y0067902D02*
X0003000Y0067902D01*
X0003000Y0066903D02*
X0007749Y0066903D01*
X0006051Y0065905D02*
X0003000Y0065905D01*
X0003000Y0064906D02*
X0005075Y0064906D01*
X0004662Y0063908D02*
X0003000Y0063908D01*
X0003000Y0062909D02*
X0004300Y0062909D01*
X0004300Y0061911D02*
X0003000Y0061911D01*
X0003000Y0060912D02*
X0004322Y0060912D01*
X0004736Y0059914D02*
X0003000Y0059914D01*
X0003000Y0058915D02*
X0005231Y0058915D01*
X0006229Y0057917D02*
X0003000Y0057917D01*
X0003000Y0056918D02*
X0007785Y0056918D01*
X0006066Y0055920D02*
X0003000Y0055920D01*
X0003000Y0054921D02*
X0005082Y0054921D01*
X0004668Y0053923D02*
X0003000Y0053923D01*
X0003000Y0052924D02*
X0004300Y0052924D01*
X0004300Y0051926D02*
X0003000Y0051926D01*
X0003000Y0050927D02*
X0004316Y0050927D01*
X0004730Y0049929D02*
X0003000Y0049929D01*
X0003000Y0048930D02*
X0005216Y0048930D01*
X0006215Y0047932D02*
X0003000Y0047932D01*
X0003000Y0046933D02*
X0007821Y0046933D01*
X0006081Y0045934D02*
X0003000Y0045934D01*
X0003000Y0044936D02*
X0005088Y0044936D01*
X0004674Y0043937D02*
X0003000Y0043937D01*
X0003000Y0042939D02*
X0004300Y0042939D01*
X0004300Y0041940D02*
X0003000Y0041940D01*
X0003000Y0040942D02*
X0004310Y0040942D01*
X0004723Y0039943D02*
X0003000Y0039943D01*
X0003000Y0038945D02*
X0005201Y0038945D01*
X0006200Y0037946D02*
X0003000Y0037946D01*
X0003000Y0036948D02*
X0007901Y0036948D01*
X0006095Y0035949D02*
X0003000Y0035949D01*
X0003000Y0034951D02*
X0005216Y0034951D01*
X0004667Y0033952D02*
X0003000Y0033952D01*
X0003000Y0032954D02*
X0004386Y0032954D01*
X0003000Y0031955D02*
X0009000Y0031955D01*
X0010000Y0031955D02*
X0072500Y0031955D01*
X0072500Y0030957D02*
X0014600Y0030957D01*
X0014296Y0029958D02*
X0072500Y0029958D01*
X0072500Y0028960D02*
X0013719Y0028960D01*
X0012788Y0027961D02*
X0072500Y0027961D01*
X0072500Y0026963D02*
X0011107Y0026963D01*
X0012890Y0025964D02*
X0022100Y0025964D01*
X0022636Y0026500D02*
X0020000Y0023864D01*
X0020000Y0022500D01*
X0024000Y0022500D01*
X0024000Y0026500D01*
X0022636Y0026500D01*
X0024000Y0025964D02*
X0025000Y0025964D01*
X0025000Y0026500D02*
X0025000Y0022500D01*
X0024000Y0022500D01*
X0024000Y0021500D01*
X0020000Y0021500D01*
X0020000Y0020136D01*
X0022636Y0017500D01*
X0024000Y0017500D01*
X0024000Y0021500D01*
X0025000Y0021500D01*
X0025000Y0022500D01*
X0029000Y0022500D01*
X0029000Y0023864D01*
X0026364Y0026500D01*
X0025000Y0026500D01*
X0025000Y0024966D02*
X0024000Y0024966D01*
X0024000Y0023967D02*
X0025000Y0023967D01*
X0025000Y0022969D02*
X0024000Y0022969D01*
X0024000Y0021970D02*
X0014700Y0021970D01*
X0014700Y0020972D02*
X0020000Y0020972D01*
X0020163Y0019973D02*
X0014289Y0019973D01*
X0013829Y0018975D02*
X0021161Y0018975D01*
X0022160Y0017976D02*
X0016038Y0017976D01*
X0017552Y0016978D02*
X0074500Y0016978D01*
X0074500Y0017976D02*
X0036840Y0017976D01*
X0036364Y0017500D02*
X0039000Y0020136D01*
X0039000Y0023864D01*
X0036364Y0026500D01*
X0032636Y0026500D01*
X0030000Y0023864D01*
X0030000Y0020136D01*
X0032636Y0017500D01*
X0036364Y0017500D01*
X0036364Y0016500D02*
X0032636Y0016500D01*
X0030000Y0013864D01*
X0030000Y0010136D01*
X0032636Y0007500D01*
X0036364Y0007500D01*
X0039000Y0010136D01*
X0039000Y0013864D01*
X0036364Y0016500D01*
X0036885Y0015979D02*
X0074500Y0015979D01*
X0074500Y0014981D02*
X0037883Y0014981D01*
X0038882Y0013982D02*
X0054437Y0013982D01*
X0053969Y0013788D02*
X0052712Y0012531D01*
X0052031Y0010889D01*
X0052031Y0009111D01*
X0052712Y0007469D01*
X0053969Y0006212D01*
X0055611Y0005531D01*
X0057389Y0005531D01*
X0059031Y0006212D01*
X0060288Y0007469D01*
X0060968Y0009111D01*
X0060968Y0010889D01*
X0060288Y0012531D01*
X0059031Y0013788D01*
X0057389Y0014468D01*
X0055611Y0014468D01*
X0053969Y0013788D01*
X0053164Y0012984D02*
X0039000Y0012984D01*
X0039000Y0011985D02*
X0052486Y0011985D01*
X0052072Y0010987D02*
X0039000Y0010987D01*
X0038852Y0009988D02*
X0052031Y0009988D01*
X0052082Y0008990D02*
X0037854Y0008990D01*
X0036855Y0007991D02*
X0052495Y0007991D01*
X0053188Y0006993D02*
X0019282Y0006993D01*
X0019695Y0007991D02*
X0022145Y0007991D01*
X0021146Y0008990D02*
X0020109Y0008990D01*
X0018524Y0005994D02*
X0054494Y0005994D01*
X0058506Y0005994D02*
X0064494Y0005994D01*
X0063969Y0006212D02*
X0065611Y0005531D01*
X0067389Y0005531D01*
X0069031Y0006212D01*
X0070288Y0007469D01*
X0070968Y0009111D01*
X0070968Y0010889D01*
X0070288Y0012531D01*
X0069031Y0013788D01*
X0067389Y0014468D01*
X0065611Y0014468D01*
X0063969Y0013788D01*
X0062712Y0012531D01*
X0062031Y0010889D01*
X0062031Y0009111D01*
X0062712Y0007469D01*
X0063969Y0006212D01*
X0063188Y0006993D02*
X0059812Y0006993D01*
X0060505Y0007991D02*
X0062495Y0007991D01*
X0062082Y0008990D02*
X0060918Y0008990D01*
X0060968Y0009988D02*
X0062031Y0009988D01*
X0062072Y0010987D02*
X0060928Y0010987D01*
X0060514Y0011985D02*
X0062486Y0011985D01*
X0063164Y0012984D02*
X0059836Y0012984D01*
X0058563Y0013982D02*
X0064437Y0013982D01*
X0068563Y0013982D02*
X0074437Y0013982D01*
X0073164Y0012984D02*
X0069836Y0012984D01*
X0070514Y0011985D02*
X0072486Y0011985D01*
X0072072Y0010987D02*
X0070928Y0010987D01*
X0070968Y0009988D02*
X0072031Y0009988D01*
X0072082Y0008990D02*
X0070918Y0008990D01*
X0070505Y0007991D02*
X0072495Y0007991D01*
X0073188Y0006993D02*
X0069812Y0006993D01*
X0068506Y0005994D02*
X0074494Y0005994D01*
X0078506Y0005994D02*
X0084519Y0005994D01*
X0084785Y0005859D02*
X0085454Y0005642D01*
X0086016Y0005552D01*
X0086016Y0009516D01*
X0086984Y0009516D01*
X0086984Y0005552D01*
X0087546Y0005642D01*
X0088215Y0005859D01*
X0088842Y0006178D01*
X0089411Y0006592D01*
X0089908Y0007089D01*
X0090322Y0007658D01*
X0090641Y0008285D01*
X0090858Y0008954D01*
X0090947Y0009516D01*
X0086984Y0009516D01*
X0086984Y0010484D01*
X0090947Y0010484D01*
X0090858Y0011046D01*
X0090641Y0011715D01*
X0090322Y0012342D01*
X0089908Y0012911D01*
X0089411Y0013408D01*
X0088842Y0013822D01*
X0088215Y0014141D01*
X0087546Y0014358D01*
X0086984Y0014447D01*
X0086984Y0010484D01*
X0086016Y0010484D01*
X0086016Y0009516D01*
X0082052Y0009516D01*
X0082142Y0008954D01*
X0082359Y0008285D01*
X0082678Y0007658D01*
X0083092Y0007089D01*
X0083589Y0006592D01*
X0084158Y0006178D01*
X0084785Y0005859D01*
X0086016Y0005994D02*
X0086984Y0005994D01*
X0086984Y0006993D02*
X0086016Y0006993D01*
X0086016Y0007991D02*
X0086984Y0007991D01*
X0086984Y0008990D02*
X0086016Y0008990D01*
X0086016Y0009988D02*
X0080968Y0009988D01*
X0080928Y0010987D02*
X0082132Y0010987D01*
X0082142Y0011046D02*
X0082052Y0010484D01*
X0086016Y0010484D01*
X0086016Y0014447D01*
X0085454Y0014358D01*
X0084785Y0014141D01*
X0084158Y0013822D01*
X0083589Y0013408D01*
X0083092Y0012911D01*
X0082678Y0012342D01*
X0082359Y0011715D01*
X0082142Y0011046D01*
X0082496Y0011985D02*
X0080514Y0011985D01*
X0079836Y0012984D02*
X0083164Y0012984D01*
X0084473Y0013982D02*
X0078563Y0013982D01*
X0078500Y0014981D02*
X0144158Y0014981D01*
X0144437Y0013982D02*
X0138563Y0013982D01*
X0139031Y0013788D02*
X0137389Y0014468D01*
X0135611Y0014468D01*
X0133969Y0013788D01*
X0132712Y0012531D01*
X0132031Y0010889D01*
X0132031Y0009111D01*
X0132712Y0007469D01*
X0133969Y0006212D01*
X0135611Y0005531D01*
X0137389Y0005531D01*
X0139031Y0006212D01*
X0140288Y0007469D01*
X0140968Y0009111D01*
X0140968Y0010889D01*
X0140288Y0012531D01*
X0139031Y0013788D01*
X0139836Y0012984D02*
X0143164Y0012984D01*
X0142486Y0011985D02*
X0140514Y0011985D01*
X0140928Y0010987D02*
X0142072Y0010987D01*
X0142031Y0009988D02*
X0140968Y0009988D01*
X0140918Y0008990D02*
X0142082Y0008990D01*
X0142495Y0007991D02*
X0140505Y0007991D01*
X0139812Y0006993D02*
X0143188Y0006993D01*
X0144494Y0005994D02*
X0138506Y0005994D01*
X0134494Y0005994D02*
X0128506Y0005994D01*
X0129031Y0006212D02*
X0127389Y0005531D01*
X0125611Y0005531D01*
X0123969Y0006212D01*
X0122712Y0007469D01*
X0122031Y0009111D01*
X0122031Y0010889D01*
X0122712Y0012531D01*
X0123969Y0013788D01*
X0125611Y0014468D01*
X0127389Y0014468D01*
X0129031Y0013788D01*
X0130288Y0012531D01*
X0130968Y0010889D01*
X0130968Y0009111D01*
X0130288Y0007469D01*
X0129031Y0006212D01*
X0129812Y0006993D02*
X0133188Y0006993D01*
X0132495Y0007991D02*
X0130505Y0007991D01*
X0130918Y0008990D02*
X0132082Y0008990D01*
X0132031Y0009988D02*
X0130968Y0009988D01*
X0130928Y0010987D02*
X0132072Y0010987D01*
X0132486Y0011985D02*
X0130514Y0011985D01*
X0129836Y0012984D02*
X0133164Y0012984D01*
X0134437Y0013982D02*
X0128563Y0013982D01*
X0124437Y0013982D02*
X0118563Y0013982D01*
X0119031Y0013788D02*
X0117389Y0014468D01*
X0115611Y0014468D01*
X0113969Y0013788D01*
X0112712Y0012531D01*
X0112031Y0010889D01*
X0112031Y0009111D01*
X0112712Y0007469D01*
X0113969Y0006212D01*
X0115611Y0005531D01*
X0117389Y0005531D01*
X0119031Y0006212D01*
X0120288Y0007469D01*
X0120968Y0009111D01*
X0120968Y0010889D01*
X0120288Y0012531D01*
X0119031Y0013788D01*
X0119836Y0012984D02*
X0123164Y0012984D01*
X0122486Y0011985D02*
X0120514Y0011985D01*
X0120928Y0010987D02*
X0122072Y0010987D01*
X0122031Y0009988D02*
X0120968Y0009988D01*
X0120918Y0008990D02*
X0122082Y0008990D01*
X0122495Y0007991D02*
X0120505Y0007991D01*
X0119812Y0006993D02*
X0123188Y0006993D01*
X0124494Y0005994D02*
X0118506Y0005994D01*
X0114494Y0005994D02*
X0108506Y0005994D01*
X0109031Y0006212D02*
X0110288Y0007469D01*
X0110968Y0009111D01*
X0110968Y0010889D01*
X0110288Y0012531D01*
X0109031Y0013788D01*
X0107389Y0014468D01*
X0105611Y0014468D01*
X0103969Y0013788D01*
X0102712Y0012531D01*
X0102031Y0010889D01*
X0102031Y0009111D01*
X0102712Y0007469D01*
X0103969Y0006212D01*
X0105611Y0005531D01*
X0107389Y0005531D01*
X0109031Y0006212D01*
X0109812Y0006993D02*
X0113188Y0006993D01*
X0112495Y0007991D02*
X0110505Y0007991D01*
X0110918Y0008990D02*
X0112082Y0008990D01*
X0112031Y0009988D02*
X0110968Y0009988D01*
X0110928Y0010987D02*
X0112072Y0010987D01*
X0112486Y0011985D02*
X0110514Y0011985D01*
X0109836Y0012984D02*
X0113164Y0012984D01*
X0114437Y0013982D02*
X0108563Y0013982D01*
X0104437Y0013982D02*
X0098563Y0013982D01*
X0099031Y0013788D02*
X0097389Y0014468D01*
X0095611Y0014468D01*
X0093969Y0013788D01*
X0092712Y0012531D01*
X0092031Y0010889D01*
X0092031Y0009111D01*
X0092712Y0007469D01*
X0093969Y0006212D01*
X0095611Y0005531D01*
X0097389Y0005531D01*
X0099031Y0006212D01*
X0100288Y0007469D01*
X0100968Y0009111D01*
X0100968Y0010889D01*
X0100288Y0012531D01*
X0099031Y0013788D01*
X0099836Y0012984D02*
X0103164Y0012984D01*
X0102486Y0011985D02*
X0100514Y0011985D01*
X0100928Y0010987D02*
X0102072Y0010987D01*
X0102031Y0009988D02*
X0100968Y0009988D01*
X0100918Y0008990D02*
X0102082Y0008990D01*
X0102495Y0007991D02*
X0100505Y0007991D01*
X0099812Y0006993D02*
X0103188Y0006993D01*
X0104494Y0005994D02*
X0098506Y0005994D01*
X0094494Y0005994D02*
X0088481Y0005994D01*
X0089812Y0006993D02*
X0093188Y0006993D01*
X0092495Y0007991D02*
X0090492Y0007991D01*
X0090864Y0008990D02*
X0092082Y0008990D01*
X0092031Y0009988D02*
X0086984Y0009988D01*
X0086984Y0010987D02*
X0086016Y0010987D01*
X0086016Y0011985D02*
X0086984Y0011985D01*
X0086984Y0012984D02*
X0086016Y0012984D01*
X0086016Y0013982D02*
X0086984Y0013982D01*
X0088527Y0013982D02*
X0094437Y0013982D01*
X0093164Y0012984D02*
X0089836Y0012984D01*
X0090504Y0011985D02*
X0092486Y0011985D01*
X0092072Y0010987D02*
X0090868Y0010987D01*
X0083188Y0006993D02*
X0079812Y0006993D01*
X0080505Y0007991D02*
X0082508Y0007991D01*
X0082136Y0008990D02*
X0080918Y0008990D01*
X0076500Y0010000D02*
X0076500Y0019000D01*
X0074500Y0021000D01*
X0074500Y0065000D01*
X0076500Y0067000D01*
X0076500Y0070000D01*
X0078290Y0065905D02*
X0081200Y0065905D01*
X0081200Y0066903D02*
X0079723Y0066903D01*
X0080468Y0067902D02*
X0081200Y0067902D01*
X0081200Y0067953D02*
X0081200Y0057047D01*
X0092416Y0045832D01*
X0092416Y0045386D01*
X0092885Y0044253D01*
X0093753Y0043385D01*
X0094886Y0042916D01*
X0096113Y0042916D01*
X0097247Y0043385D01*
X0098115Y0044253D01*
X0098584Y0045386D01*
X0098584Y0046613D01*
X0098115Y0047747D01*
X0097247Y0048615D01*
X0096113Y0049084D01*
X0095668Y0049084D01*
X0085800Y0058953D01*
X0085800Y0065531D01*
X0087389Y0065531D01*
X0089031Y0066212D01*
X0090288Y0067469D01*
X0090968Y0069111D01*
X0090968Y0070889D01*
X0090288Y0072531D01*
X0089031Y0073788D01*
X0087389Y0074468D01*
X0085611Y0074468D01*
X0083969Y0073788D01*
X0082712Y0072531D01*
X0082031Y0070889D01*
X0082031Y0069111D01*
X0082127Y0068880D01*
X0081200Y0067953D01*
X0080881Y0068900D02*
X0082119Y0068900D01*
X0082031Y0069899D02*
X0080968Y0069899D01*
X0080965Y0070897D02*
X0082035Y0070897D01*
X0082449Y0071896D02*
X0080551Y0071896D01*
X0079925Y0072894D02*
X0083075Y0072894D01*
X0084221Y0073893D02*
X0078779Y0073893D01*
X0075220Y0074891D02*
X0103780Y0074891D01*
X0104221Y0073893D02*
X0098779Y0073893D01*
X0099031Y0073788D02*
X0097389Y0074468D01*
X0095611Y0074468D01*
X0093969Y0073788D01*
X0092712Y0072531D01*
X0092031Y0070889D01*
X0092031Y0069111D01*
X0092712Y0067469D01*
X0093969Y0066212D01*
X0095611Y0065531D01*
X0097389Y0065531D01*
X0099031Y0066212D01*
X0100288Y0067469D01*
X0100968Y0069111D01*
X0100968Y0070889D01*
X0100288Y0072531D01*
X0099031Y0073788D01*
X0099925Y0072894D02*
X0103075Y0072894D01*
X0102449Y0071896D02*
X0100551Y0071896D01*
X0100965Y0070897D02*
X0102035Y0070897D01*
X0102031Y0069899D02*
X0100968Y0069899D01*
X0100881Y0068900D02*
X0102119Y0068900D01*
X0102532Y0067902D02*
X0100468Y0067902D01*
X0099723Y0066903D02*
X0103277Y0066903D01*
X0104710Y0065905D02*
X0098290Y0065905D01*
X0099257Y0063908D02*
X0093743Y0063908D01*
X0094031Y0063788D02*
X0092389Y0064468D01*
X0090611Y0064468D01*
X0088969Y0063788D01*
X0087712Y0062531D01*
X0087031Y0060889D01*
X0087031Y0059111D01*
X0087712Y0057469D01*
X0088969Y0056212D01*
X0090611Y0055531D01*
X0092389Y0055531D01*
X0094031Y0056212D01*
X0095288Y0057469D01*
X0095968Y0059111D01*
X0095968Y0060889D01*
X0095288Y0062531D01*
X0094031Y0063788D01*
X0094910Y0062909D02*
X0098090Y0062909D01*
X0097712Y0062531D02*
X0097031Y0060889D01*
X0097031Y0059111D01*
X0097712Y0057469D01*
X0098969Y0056212D01*
X0100611Y0055531D01*
X0102389Y0055531D01*
X0104031Y0056212D01*
X0105288Y0057469D01*
X0105968Y0059111D01*
X0105968Y0060889D01*
X0105288Y0062531D01*
X0104031Y0063788D01*
X0102389Y0064468D01*
X0100611Y0064468D01*
X0098969Y0063788D01*
X0097712Y0062531D01*
X0097455Y0061911D02*
X0095545Y0061911D01*
X0095959Y0060912D02*
X0097041Y0060912D01*
X0097031Y0059914D02*
X0095968Y0059914D01*
X0095887Y0058915D02*
X0097113Y0058915D01*
X0097526Y0057917D02*
X0095474Y0057917D01*
X0094738Y0056918D02*
X0098262Y0056918D01*
X0099674Y0055920D02*
X0093326Y0055920D01*
X0090830Y0053923D02*
X0106594Y0053923D01*
X0107593Y0054921D02*
X0089832Y0054921D01*
X0089674Y0055920D02*
X0088833Y0055920D01*
X0088262Y0056918D02*
X0087835Y0056918D01*
X0087526Y0057917D02*
X0086836Y0057917D01*
X0087113Y0058915D02*
X0085838Y0058915D01*
X0085800Y0059914D02*
X0087031Y0059914D01*
X0087041Y0060912D02*
X0085800Y0060912D01*
X0085800Y0061911D02*
X0087455Y0061911D01*
X0088090Y0062909D02*
X0085800Y0062909D01*
X0085800Y0063908D02*
X0089257Y0063908D01*
X0088290Y0065905D02*
X0094710Y0065905D01*
X0093277Y0066903D02*
X0089723Y0066903D01*
X0090468Y0067902D02*
X0092532Y0067902D01*
X0092119Y0068900D02*
X0090881Y0068900D01*
X0090968Y0069899D02*
X0092031Y0069899D01*
X0092035Y0070897D02*
X0090965Y0070897D01*
X0090551Y0071896D02*
X0092449Y0071896D01*
X0093075Y0072894D02*
X0089925Y0072894D01*
X0088779Y0073893D02*
X0094221Y0073893D01*
X0091083Y0079884D02*
X0140363Y0079884D01*
X0140623Y0078885D02*
X0105443Y0078885D01*
X0106442Y0077887D02*
X0141251Y0077887D01*
X0144500Y0075000D02*
X0137500Y0075000D01*
X0136500Y0074000D01*
X0136500Y0070000D01*
X0138290Y0065905D02*
X0144710Y0065905D01*
X0143277Y0066903D02*
X0139723Y0066903D01*
X0140468Y0067902D02*
X0142532Y0067902D01*
X0142119Y0068900D02*
X0140881Y0068900D01*
X0140968Y0069899D02*
X0142031Y0069899D01*
X0142035Y0070897D02*
X0140965Y0070897D01*
X0140551Y0071896D02*
X0142449Y0071896D01*
X0143075Y0072894D02*
X0139925Y0072894D01*
X0144500Y0075000D02*
X0149500Y0080000D01*
X0161500Y0080000D01*
X0164500Y0083000D01*
X0164500Y0089000D01*
X0161306Y0085875D02*
X0157694Y0085875D01*
X0158288Y0086469D02*
X0158968Y0088111D01*
X0158968Y0089889D01*
X0158288Y0091531D01*
X0157031Y0092788D01*
X0155389Y0093468D01*
X0153611Y0093468D01*
X0151969Y0092788D01*
X0150712Y0091531D01*
X0150031Y0089889D01*
X0150031Y0088111D01*
X0150712Y0086469D01*
X0151969Y0085212D01*
X0153611Y0084531D01*
X0155389Y0084531D01*
X0157031Y0085212D01*
X0158288Y0086469D01*
X0158456Y0086873D02*
X0160544Y0086873D01*
X0160712Y0086469D02*
X0161969Y0085212D01*
X0162500Y0084992D01*
X0162500Y0083828D01*
X0160672Y0082000D01*
X0148672Y0082000D01*
X0146584Y0079913D01*
X0146584Y0080613D01*
X0146115Y0081747D01*
X0145247Y0082615D01*
X0144113Y0083084D01*
X0143668Y0083084D01*
X0142221Y0084531D01*
X0144016Y0084531D01*
X0144016Y0088516D01*
X0144984Y0088516D01*
X0144984Y0084531D01*
X0147666Y0084531D01*
X0148047Y0084634D01*
X0148390Y0084831D01*
X0148669Y0085110D01*
X0148866Y0085453D01*
X0148968Y0085834D01*
X0148968Y0088516D01*
X0144984Y0088516D01*
X0144984Y0089484D01*
X0144016Y0089484D01*
X0144016Y0093468D01*
X0141334Y0093468D01*
X0140953Y0093366D01*
X0140800Y0093278D01*
X0140800Y0096047D01*
X0140967Y0096214D01*
X0141969Y0095212D01*
X0143611Y0094531D01*
X0145389Y0094531D01*
X0147031Y0095212D01*
X0148288Y0096469D01*
X0148968Y0098111D01*
X0148968Y0099889D01*
X0148288Y0101531D01*
X0147198Y0102622D01*
X0148869Y0104293D01*
X0148885Y0104253D01*
X0149753Y0103385D01*
X0150886Y0102916D01*
X0152113Y0102916D01*
X0153247Y0103385D01*
X0153862Y0104000D01*
X0162500Y0104000D01*
X0162500Y0103008D01*
X0161969Y0102788D01*
X0160712Y0101531D01*
X0160031Y0099889D01*
X0160031Y0098111D01*
X0160712Y0096469D01*
X0161181Y0096000D01*
X0160328Y0096000D01*
X0158748Y0097580D01*
X0158968Y0098111D01*
X0158968Y0099889D01*
X0158288Y0101531D01*
X0157031Y0102788D01*
X0155389Y0103468D01*
X0153611Y0103468D01*
X0151969Y0102788D01*
X0150712Y0101531D01*
X0150031Y0099889D01*
X0150031Y0098111D01*
X0150712Y0096469D01*
X0151969Y0095212D01*
X0153611Y0094531D01*
X0155389Y0094531D01*
X0155920Y0094752D01*
X0158672Y0092000D01*
X0161181Y0092000D01*
X0160712Y0091531D01*
X0160031Y0089889D01*
X0160031Y0088111D01*
X0160712Y0086469D01*
X0160131Y0087872D02*
X0158869Y0087872D01*
X0158968Y0088870D02*
X0160031Y0088870D01*
X0160031Y0089869D02*
X0158968Y0089869D01*
X0158563Y0090868D02*
X0160437Y0090868D01*
X0161047Y0091866D02*
X0157953Y0091866D01*
X0157807Y0092865D02*
X0156847Y0092865D01*
X0156809Y0093863D02*
X0140800Y0093863D01*
X0140800Y0094862D02*
X0142814Y0094862D01*
X0141321Y0095860D02*
X0140800Y0095860D01*
X0144016Y0092865D02*
X0144984Y0092865D01*
X0144984Y0093468D02*
X0144984Y0089484D01*
X0148968Y0089484D01*
X0148968Y0092166D01*
X0148866Y0092547D01*
X0148669Y0092890D01*
X0148390Y0093169D01*
X0148047Y0093366D01*
X0147666Y0093468D01*
X0144984Y0093468D01*
X0144984Y0091866D02*
X0144016Y0091866D01*
X0144016Y0090868D02*
X0144984Y0090868D01*
X0144984Y0089869D02*
X0144016Y0089869D01*
X0144984Y0088870D02*
X0150031Y0088870D01*
X0150031Y0089869D02*
X0148968Y0089869D01*
X0148968Y0090868D02*
X0150437Y0090868D01*
X0151047Y0091866D02*
X0148968Y0091866D01*
X0148683Y0092865D02*
X0152153Y0092865D01*
X0152814Y0094862D02*
X0146186Y0094862D01*
X0147679Y0095860D02*
X0151321Y0095860D01*
X0150550Y0096859D02*
X0148450Y0096859D01*
X0148863Y0097857D02*
X0150137Y0097857D01*
X0150031Y0098856D02*
X0148968Y0098856D01*
X0148968Y0099854D02*
X0150031Y0099854D01*
X0150431Y0100853D02*
X0148569Y0100853D01*
X0147968Y0101851D02*
X0151032Y0101851D01*
X0152117Y0102850D02*
X0147426Y0102850D01*
X0148424Y0103848D02*
X0149290Y0103848D01*
X0151500Y0106000D02*
X0164500Y0106000D01*
X0164500Y0099000D01*
X0160031Y0098856D02*
X0158968Y0098856D01*
X0158968Y0099854D02*
X0160031Y0099854D01*
X0160431Y0100853D02*
X0158569Y0100853D01*
X0157968Y0101851D02*
X0161032Y0101851D01*
X0162117Y0102850D02*
X0156883Y0102850D01*
X0153710Y0103848D02*
X0162500Y0103848D01*
X0164500Y0106000D02*
X0175122Y0106000D01*
X0177983Y0104847D02*
X0179825Y0104847D01*
X0178826Y0105845D02*
X0178206Y0105845D01*
X0178111Y0106844D02*
X0178500Y0106844D01*
X0178500Y0107842D02*
X0177642Y0107842D01*
X0178500Y0108841D02*
X0176323Y0108841D01*
X0178500Y0109839D02*
X0147737Y0109839D01*
X0148735Y0108841D02*
X0150299Y0108841D01*
X0152701Y0108841D02*
X0173921Y0108841D01*
X0178500Y0110838D02*
X0146738Y0110838D01*
X0154500Y0099000D02*
X0159500Y0094000D01*
X0183500Y0094000D01*
X0183500Y0091000D01*
X0166500Y0074000D01*
X0166500Y0070000D01*
X0163277Y0066903D02*
X0159723Y0066903D01*
X0160288Y0067469D02*
X0160968Y0069111D01*
X0160968Y0070889D01*
X0160288Y0072531D01*
X0159031Y0073788D01*
X0157389Y0074468D01*
X0155611Y0074468D01*
X0153969Y0073788D01*
X0152712Y0072531D01*
X0152031Y0070889D01*
X0152031Y0069111D01*
X0152712Y0067469D01*
X0153969Y0066212D01*
X0155611Y0065531D01*
X0157389Y0065531D01*
X0159031Y0066212D01*
X0160288Y0067469D01*
X0160468Y0067902D02*
X0162532Y0067902D01*
X0162119Y0068900D02*
X0160881Y0068900D01*
X0160968Y0069899D02*
X0162031Y0069899D01*
X0162035Y0070897D02*
X0160965Y0070897D01*
X0160551Y0071896D02*
X0162449Y0071896D01*
X0163075Y0072894D02*
X0159925Y0072894D01*
X0158779Y0073893D02*
X0164221Y0073893D01*
X0164563Y0074891D02*
X0150220Y0074891D01*
X0149221Y0073893D02*
X0154221Y0073893D01*
X0153075Y0072894D02*
X0149925Y0072894D01*
X0150551Y0071896D02*
X0152449Y0071896D01*
X0152035Y0070897D02*
X0150965Y0070897D01*
X0150968Y0069899D02*
X0152031Y0069899D01*
X0152119Y0068900D02*
X0150881Y0068900D01*
X0150468Y0067902D02*
X0152532Y0067902D01*
X0153277Y0066903D02*
X0149723Y0066903D01*
X0148290Y0065905D02*
X0154710Y0065905D01*
X0158290Y0065905D02*
X0164710Y0065905D01*
X0168290Y0065905D02*
X0169576Y0065905D01*
X0169723Y0066903D02*
X0170575Y0066903D01*
X0170468Y0067902D02*
X0171573Y0067902D01*
X0170881Y0068900D02*
X0172572Y0068900D01*
X0173570Y0069899D02*
X0170968Y0069899D01*
X0170965Y0070897D02*
X0174239Y0070897D01*
X0174000Y0071896D02*
X0170551Y0071896D01*
X0169925Y0072894D02*
X0174000Y0072894D01*
X0174000Y0073893D02*
X0169221Y0073893D01*
X0170220Y0074891D02*
X0174027Y0074891D01*
X0175026Y0075890D02*
X0171218Y0075890D01*
X0172217Y0076888D02*
X0176024Y0076888D01*
X0174214Y0078885D02*
X0186500Y0078885D01*
X0186500Y0077887D02*
X0173215Y0077887D01*
X0175212Y0079884D02*
X0186500Y0079884D01*
X0186500Y0080882D02*
X0176211Y0080882D01*
X0177209Y0081881D02*
X0186500Y0081881D01*
X0186500Y0082879D02*
X0178208Y0082879D01*
X0179206Y0083878D02*
X0186500Y0083878D01*
X0186500Y0084876D02*
X0180205Y0084876D01*
X0181203Y0085875D02*
X0186500Y0085875D01*
X0186500Y0086873D02*
X0182202Y0086873D01*
X0183200Y0087872D02*
X0186500Y0087872D01*
X0186500Y0088870D02*
X0184199Y0088870D01*
X0185197Y0089869D02*
X0186500Y0089869D01*
X0186500Y0090868D02*
X0185500Y0090868D01*
X0185728Y0091866D02*
X0186500Y0091866D01*
X0186500Y0092865D02*
X0186368Y0092865D01*
X0188500Y0093000D02*
X0191000Y0095500D01*
X0191000Y0099000D01*
X0191000Y0101500D01*
X0187500Y0105000D01*
X0182500Y0105000D01*
X0180500Y0107000D01*
X0180500Y0175000D01*
X0177682Y0173744D02*
X0154271Y0173744D01*
X0154299Y0174742D02*
X0177416Y0174742D01*
X0177469Y0175741D02*
X0154299Y0175741D01*
X0150740Y0177738D02*
X0149740Y0177738D01*
X0149740Y0178737D02*
X0150740Y0178737D01*
X0150740Y0179735D02*
X0149740Y0179735D01*
X0149740Y0180734D02*
X0150740Y0180734D01*
X0146936Y0172745D02*
X0146138Y0172745D01*
X0139381Y0172745D02*
X0135251Y0172745D01*
X0134513Y0173744D02*
X0134311Y0173744D01*
X0133660Y0174742D02*
X0133371Y0174742D01*
X0133660Y0175741D02*
X0132432Y0175741D01*
X0131492Y0176739D02*
X0133660Y0176739D01*
X0133660Y0177738D02*
X0130552Y0177738D01*
X0129612Y0178737D02*
X0133660Y0178737D01*
X0133992Y0179735D02*
X0128673Y0179735D01*
X0125853Y0182731D02*
X0196000Y0182731D01*
X0196000Y0183729D02*
X0126000Y0183729D01*
X0126000Y0184728D02*
X0196000Y0184728D01*
X0196000Y0185726D02*
X0125656Y0185726D01*
X0125139Y0186725D02*
X0196000Y0186725D01*
X0196000Y0187723D02*
X0124141Y0187723D01*
X0120031Y0188722D02*
X0196000Y0188722D01*
X0196000Y0189720D02*
X0119033Y0189720D01*
X0118034Y0190719D02*
X0196000Y0190719D01*
X0196000Y0191717D02*
X0117036Y0191717D01*
X0116037Y0192716D02*
X0196000Y0192716D01*
X0196000Y0193714D02*
X0115038Y0193714D01*
X0114040Y0194713D02*
X0196000Y0194713D01*
X0196000Y0195711D02*
X0113041Y0195711D01*
X0111529Y0190719D02*
X0072471Y0190719D01*
X0071473Y0189720D02*
X0112527Y0189720D01*
X0112395Y0188500D02*
X0110605Y0188500D01*
X0108951Y0187815D01*
X0107685Y0186549D01*
X0107000Y0184895D01*
X0107000Y0183105D01*
X0107685Y0181451D01*
X0108951Y0180185D01*
X0110605Y0179500D01*
X0112395Y0179500D01*
X0114049Y0180185D01*
X0115315Y0181451D01*
X0116000Y0183105D01*
X0116000Y0184895D01*
X0115315Y0186549D01*
X0114049Y0187815D01*
X0112395Y0188500D01*
X0113526Y0188722D02*
X0070474Y0188722D01*
X0069476Y0187723D02*
X0076859Y0187723D01*
X0076951Y0187815D02*
X0075685Y0186549D01*
X0075000Y0184895D01*
X0075000Y0183105D01*
X0075685Y0181451D01*
X0076951Y0180185D01*
X0078605Y0179500D01*
X0080395Y0179500D01*
X0082049Y0180185D01*
X0083315Y0181451D01*
X0084000Y0183105D01*
X0084000Y0184895D01*
X0083315Y0186549D01*
X0082049Y0187815D01*
X0080395Y0188500D01*
X0078605Y0188500D01*
X0076951Y0187815D01*
X0075861Y0186725D02*
X0068477Y0186725D01*
X0067479Y0185726D02*
X0075344Y0185726D01*
X0075000Y0184728D02*
X0067150Y0184728D01*
X0067150Y0183729D02*
X0075000Y0183729D01*
X0075155Y0182731D02*
X0067150Y0182731D01*
X0066808Y0181732D02*
X0075569Y0181732D01*
X0076402Y0180734D02*
X0065810Y0180734D01*
X0064811Y0179735D02*
X0078038Y0179735D01*
X0080962Y0179735D02*
X0087200Y0179735D01*
X0086984Y0178737D02*
X0003000Y0178737D01*
X0003000Y0179735D02*
X0006189Y0179735D01*
X0006574Y0179350D02*
X0010426Y0179350D01*
X0013150Y0182074D01*
X0013150Y0185926D01*
X0010426Y0188650D01*
X0006574Y0188650D01*
X0003850Y0185926D01*
X0003850Y0182074D01*
X0006574Y0179350D01*
X0005190Y0180734D02*
X0003000Y0180734D01*
X0003000Y0181732D02*
X0004192Y0181732D01*
X0003850Y0182731D02*
X0003000Y0182731D01*
X0003000Y0183729D02*
X0003850Y0183729D01*
X0003850Y0184728D02*
X0003000Y0184728D01*
X0003000Y0185726D02*
X0003850Y0185726D01*
X0004649Y0186725D02*
X0003000Y0186725D01*
X0003000Y0187723D02*
X0005647Y0187723D01*
X0004228Y0189720D02*
X0003000Y0189720D01*
X0003000Y0188722D02*
X0063969Y0188722D01*
X0066772Y0191717D02*
X0066964Y0191717D01*
X0066772Y0192716D02*
X0067963Y0192716D01*
X0068962Y0193714D02*
X0066772Y0193714D01*
X0066772Y0194713D02*
X0069960Y0194713D01*
X0070959Y0195711D02*
X0066772Y0195711D01*
X0058228Y0195711D02*
X0012772Y0195711D01*
X0012772Y0194713D02*
X0058228Y0194713D01*
X0058228Y0193714D02*
X0012772Y0193714D01*
X0012772Y0192716D02*
X0058228Y0192716D01*
X0058228Y0191717D02*
X0012772Y0191717D01*
X0012772Y0190719D02*
X0058228Y0190719D01*
X0058228Y0189720D02*
X0012772Y0189720D01*
X0011353Y0187723D02*
X0059647Y0187723D01*
X0058649Y0186725D02*
X0012351Y0186725D01*
X0013150Y0185726D02*
X0057850Y0185726D01*
X0057850Y0184728D02*
X0013150Y0184728D01*
X0013150Y0183729D02*
X0057850Y0183729D01*
X0057850Y0182731D02*
X0013150Y0182731D01*
X0012808Y0181732D02*
X0058192Y0181732D01*
X0059190Y0180734D02*
X0011810Y0180734D01*
X0010811Y0179735D02*
X0060189Y0179735D01*
X0057499Y0168751D02*
X0003000Y0168751D01*
X0003000Y0167753D02*
X0056500Y0167753D01*
X0055502Y0166754D02*
X0003000Y0166754D01*
X0003000Y0165756D02*
X0054503Y0165756D01*
X0053505Y0164757D02*
X0036152Y0164757D01*
X0036051Y0164799D02*
X0032949Y0164799D01*
X0030082Y0163612D01*
X0027888Y0161418D01*
X0026701Y0158551D01*
X0026701Y0155449D01*
X0027888Y0152582D01*
X0030082Y0150388D01*
X0032949Y0149201D01*
X0036051Y0149201D01*
X0038918Y0150388D01*
X0041112Y0152582D01*
X0042299Y0155449D01*
X0042299Y0158551D01*
X0041112Y0161418D01*
X0038918Y0163612D01*
X0036051Y0164799D01*
X0038563Y0163759D02*
X0052506Y0163759D01*
X0051508Y0162760D02*
X0039769Y0162760D01*
X0040768Y0161762D02*
X0050509Y0161762D01*
X0049511Y0160763D02*
X0041383Y0160763D01*
X0041797Y0159765D02*
X0049200Y0159765D01*
X0049200Y0158766D02*
X0042210Y0158766D01*
X0042299Y0157768D02*
X0049200Y0157768D01*
X0049200Y0156769D02*
X0042299Y0156769D01*
X0042299Y0155771D02*
X0049200Y0155771D01*
X0049200Y0154772D02*
X0042019Y0154772D01*
X0041605Y0153774D02*
X0049200Y0153774D01*
X0049200Y0152775D02*
X0041192Y0152775D01*
X0040306Y0151777D02*
X0049200Y0151777D01*
X0049200Y0150778D02*
X0039308Y0150778D01*
X0037449Y0149780D02*
X0049200Y0149780D01*
X0049200Y0148781D02*
X0003000Y0148781D01*
X0003000Y0147783D02*
X0049200Y0147783D01*
X0049200Y0146784D02*
X0003000Y0146784D01*
X0003000Y0145786D02*
X0049200Y0145786D01*
X0049200Y0144787D02*
X0003000Y0144787D01*
X0003000Y0143789D02*
X0049200Y0143789D01*
X0049200Y0142790D02*
X0003000Y0142790D01*
X0003000Y0141792D02*
X0049200Y0141792D01*
X0049200Y0140793D02*
X0003000Y0140793D01*
X0003000Y0139795D02*
X0049200Y0139795D01*
X0049200Y0138796D02*
X0003000Y0138796D01*
X0003000Y0137798D02*
X0049200Y0137798D01*
X0049200Y0136799D02*
X0003000Y0136799D01*
X0003000Y0135801D02*
X0049200Y0135801D01*
X0049200Y0134802D02*
X0003000Y0134802D01*
X0003000Y0133803D02*
X0049200Y0133803D01*
X0049200Y0132805D02*
X0003000Y0132805D01*
X0003000Y0131806D02*
X0049200Y0131806D01*
X0049200Y0130808D02*
X0003000Y0130808D01*
X0003000Y0129809D02*
X0049200Y0129809D01*
X0049200Y0128811D02*
X0003000Y0128811D01*
X0003000Y0127812D02*
X0049200Y0127812D01*
X0049200Y0126814D02*
X0003000Y0126814D01*
X0003000Y0125815D02*
X0049200Y0125815D01*
X0049200Y0124817D02*
X0003000Y0124817D01*
X0003000Y0123818D02*
X0049200Y0123818D01*
X0049200Y0122820D02*
X0003000Y0122820D01*
X0003000Y0121821D02*
X0049200Y0121821D01*
X0049200Y0120823D02*
X0003000Y0120823D01*
X0003000Y0119824D02*
X0049200Y0119824D01*
X0049200Y0118826D02*
X0011250Y0118826D01*
X0010426Y0119650D02*
X0006574Y0119650D01*
X0003850Y0116926D01*
X0003850Y0113074D01*
X0006574Y0110350D01*
X0010426Y0110350D01*
X0013150Y0113074D01*
X0013150Y0116926D01*
X0010426Y0119650D01*
X0012249Y0117827D02*
X0049200Y0117827D01*
X0049200Y0116829D02*
X0013150Y0116829D01*
X0013150Y0115830D02*
X0049200Y0115830D01*
X0049200Y0114832D02*
X0013150Y0114832D01*
X0013150Y0113833D02*
X0049200Y0113833D01*
X0049200Y0112835D02*
X0012911Y0112835D01*
X0011912Y0111836D02*
X0049200Y0111836D01*
X0049200Y0110838D02*
X0010914Y0110838D01*
X0011469Y0107372D02*
X0008886Y0107372D01*
X0008886Y0103486D01*
X0008114Y0103486D01*
X0008114Y0107372D01*
X0005531Y0107372D01*
X0005149Y0107269D01*
X0004807Y0107072D01*
X0004528Y0106793D01*
X0004331Y0106451D01*
X0004228Y0106069D01*
X0004228Y0103486D01*
X0008114Y0103486D01*
X0008114Y0102714D01*
X0008886Y0102714D01*
X0008886Y0103486D01*
X0012772Y0103486D01*
X0012772Y0106069D01*
X0012669Y0106451D01*
X0012472Y0106793D01*
X0012193Y0107072D01*
X0011851Y0107269D01*
X0011469Y0107372D01*
X0012421Y0106844D02*
X0015579Y0106844D01*
X0015228Y0105845D02*
X0012772Y0105845D01*
X0012772Y0104847D02*
X0015228Y0104847D01*
X0015228Y0103848D02*
X0012772Y0103848D01*
X0012772Y0102714D02*
X0012772Y0100131D01*
X0012669Y0099749D01*
X0012472Y0099407D01*
X0012193Y0099128D01*
X0011851Y0098931D01*
X0011469Y0098828D01*
X0008886Y0098828D01*
X0008886Y0102714D01*
X0012772Y0102714D01*
X0012772Y0101851D02*
X0015228Y0101851D01*
X0015228Y0100853D02*
X0012772Y0100853D01*
X0012697Y0099854D02*
X0014526Y0099854D01*
X0013527Y0098856D02*
X0011571Y0098856D01*
X0012529Y0097857D02*
X0003000Y0097857D01*
X0003000Y0096859D02*
X0007641Y0096859D01*
X0006006Y0095860D02*
X0003000Y0095860D01*
X0003000Y0094862D02*
X0005057Y0094862D01*
X0004643Y0093863D02*
X0003000Y0093863D01*
X0003000Y0092865D02*
X0004300Y0092865D01*
X0005531Y0098828D02*
X0008114Y0098828D01*
X0008114Y0102714D01*
X0004228Y0102714D01*
X0004228Y0100131D01*
X0004331Y0099749D01*
X0004528Y0099407D01*
X0004807Y0099128D01*
X0005149Y0098931D01*
X0005531Y0098828D01*
X0005429Y0098856D02*
X0003000Y0098856D01*
X0003000Y0099854D02*
X0004302Y0099854D01*
X0004228Y0100853D02*
X0003000Y0100853D01*
X0003000Y0101851D02*
X0004228Y0101851D01*
X0003000Y0102850D02*
X0008114Y0102850D01*
X0008886Y0102850D02*
X0015228Y0102850D01*
X0008886Y0103848D02*
X0008114Y0103848D01*
X0008114Y0104847D02*
X0008886Y0104847D01*
X0008886Y0105845D02*
X0008114Y0105845D01*
X0008114Y0106844D02*
X0008886Y0106844D01*
X0004579Y0106844D02*
X0003000Y0106844D01*
X0003000Y0107842D02*
X0049200Y0107842D01*
X0049200Y0108841D02*
X0003000Y0108841D01*
X0003000Y0109839D02*
X0049200Y0109839D01*
X0047579Y0106844D02*
X0023421Y0106844D01*
X0023772Y0105845D02*
X0047228Y0105845D01*
X0047228Y0104847D02*
X0023772Y0104847D01*
X0023772Y0103848D02*
X0047228Y0103848D01*
X0047228Y0102850D02*
X0023772Y0102850D01*
X0023772Y0101851D02*
X0047228Y0101851D01*
X0047228Y0100853D02*
X0023772Y0100853D01*
X0026004Y0095860D02*
X0030996Y0095860D01*
X0029998Y0094862D02*
X0027002Y0094862D01*
X0028000Y0093863D02*
X0029000Y0093863D01*
X0029000Y0092865D02*
X0028000Y0092865D01*
X0028000Y0091866D02*
X0033000Y0091866D01*
X0033000Y0092865D02*
X0034000Y0092865D01*
X0034000Y0092500D02*
X0034000Y0096500D01*
X0035364Y0096500D01*
X0038000Y0093864D01*
X0038000Y0092500D01*
X0034000Y0092500D01*
X0034000Y0091866D02*
X0039000Y0091866D01*
X0039000Y0090868D02*
X0038000Y0090868D01*
X0037733Y0089869D02*
X0039267Y0089869D01*
X0039000Y0092865D02*
X0038000Y0092865D01*
X0038000Y0093863D02*
X0039000Y0093863D01*
X0039998Y0094862D02*
X0037002Y0094862D01*
X0036004Y0095860D02*
X0040996Y0095860D01*
X0046004Y0095860D02*
X0050996Y0095860D01*
X0049998Y0094862D02*
X0047002Y0094862D01*
X0048000Y0093863D02*
X0049000Y0093863D01*
X0049000Y0092865D02*
X0048000Y0092865D01*
X0048000Y0091866D02*
X0049000Y0091866D01*
X0049000Y0090868D02*
X0048000Y0090868D01*
X0047733Y0089869D02*
X0049267Y0089869D01*
X0050136Y0085000D02*
X0046864Y0085000D01*
X0048000Y0083864D01*
X0048000Y0080136D01*
X0045364Y0077500D01*
X0041636Y0077500D01*
X0039000Y0080136D01*
X0039000Y0083864D01*
X0040136Y0085000D01*
X0036864Y0085000D01*
X0038000Y0083864D01*
X0038000Y0082500D01*
X0034000Y0082500D01*
X0034000Y0081500D01*
X0038000Y0081500D01*
X0038000Y0080136D01*
X0035364Y0077500D01*
X0034000Y0077500D01*
X0034000Y0081500D01*
X0033000Y0081500D01*
X0033000Y0077500D01*
X0031636Y0077500D01*
X0029000Y0080136D01*
X0029000Y0081500D01*
X0033000Y0081500D01*
X0033000Y0082500D01*
X0029000Y0082500D01*
X0029000Y0083864D01*
X0030136Y0085000D01*
X0026864Y0085000D01*
X0028000Y0083864D01*
X0028000Y0080136D01*
X0025364Y0077500D01*
X0021636Y0077500D01*
X0019000Y0080136D01*
X0019000Y0081672D01*
X0017328Y0080000D01*
X0014300Y0080000D01*
X0013908Y0079054D01*
X0012446Y0077592D01*
X0011017Y0077000D01*
X0012446Y0076408D01*
X0013908Y0074946D01*
X0014700Y0073034D01*
X0014700Y0072000D01*
X0027138Y0072000D01*
X0026885Y0072253D01*
X0026416Y0073386D01*
X0026416Y0074613D01*
X0026885Y0075747D01*
X0027753Y0076615D01*
X0028886Y0077084D01*
X0030113Y0077084D01*
X0030317Y0077000D01*
X0054672Y0077000D01*
X0055172Y0077500D01*
X0051636Y0077500D01*
X0049000Y0080136D01*
X0049000Y0083864D01*
X0050136Y0085000D01*
X0050012Y0084876D02*
X0046987Y0084876D01*
X0047986Y0083878D02*
X0049014Y0083878D01*
X0049000Y0082879D02*
X0048000Y0082879D01*
X0048000Y0081881D02*
X0049000Y0081881D01*
X0049000Y0080882D02*
X0048000Y0080882D01*
X0047748Y0079884D02*
X0049252Y0079884D01*
X0050251Y0078885D02*
X0046749Y0078885D01*
X0045751Y0077887D02*
X0051249Y0077887D01*
X0055500Y0075000D02*
X0061000Y0080500D01*
X0088000Y0080500D01*
X0090766Y0081881D02*
X0138366Y0081881D01*
X0137368Y0082879D02*
X0089982Y0082879D01*
X0091084Y0080882D02*
X0139365Y0080882D01*
X0142875Y0083878D02*
X0162500Y0083878D01*
X0162500Y0084876D02*
X0156222Y0084876D01*
X0152778Y0084876D02*
X0148435Y0084876D01*
X0148968Y0085875D02*
X0151306Y0085875D01*
X0150544Y0086873D02*
X0148968Y0086873D01*
X0148968Y0087872D02*
X0150131Y0087872D01*
X0144984Y0087872D02*
X0144016Y0087872D01*
X0144016Y0086873D02*
X0144984Y0086873D01*
X0144984Y0085875D02*
X0144016Y0085875D01*
X0144016Y0084876D02*
X0144984Y0084876D01*
X0144608Y0082879D02*
X0161551Y0082879D01*
X0166500Y0078000D02*
X0150500Y0078000D01*
X0146500Y0074000D01*
X0146500Y0070000D01*
X0151218Y0075890D02*
X0165561Y0075890D01*
X0166500Y0078000D02*
X0174500Y0086000D01*
X0174500Y0089000D01*
X0174500Y0099000D02*
X0188000Y0099000D01*
X0185780Y0101851D02*
X0177968Y0101851D01*
X0176883Y0102850D02*
X0186822Y0102850D01*
X0189483Y0105845D02*
X0196000Y0105845D01*
X0196000Y0104847D02*
X0190482Y0104847D01*
X0191480Y0103848D02*
X0196000Y0103848D01*
X0196000Y0102850D02*
X0192479Y0102850D01*
X0193220Y0101851D02*
X0196000Y0101851D01*
X0196000Y0100853D02*
X0193700Y0100853D01*
X0193700Y0099854D02*
X0196000Y0099854D01*
X0196000Y0098856D02*
X0193700Y0098856D01*
X0193700Y0097857D02*
X0196000Y0097857D01*
X0196000Y0096859D02*
X0193700Y0096859D01*
X0193000Y0095860D02*
X0196000Y0095860D01*
X0196000Y0094862D02*
X0193000Y0094862D01*
X0192191Y0093863D02*
X0196000Y0093863D01*
X0196000Y0092865D02*
X0191193Y0092865D01*
X0190500Y0091866D02*
X0196000Y0091866D01*
X0196000Y0090868D02*
X0190500Y0090868D01*
X0190500Y0089869D02*
X0196000Y0089869D01*
X0196000Y0088870D02*
X0190500Y0088870D01*
X0190500Y0087872D02*
X0196000Y0087872D01*
X0196000Y0086873D02*
X0190500Y0086873D01*
X0190500Y0085875D02*
X0196000Y0085875D01*
X0196000Y0084876D02*
X0190500Y0084876D01*
X0190500Y0083878D02*
X0196000Y0083878D01*
X0196000Y0082879D02*
X0190500Y0082879D01*
X0190500Y0081881D02*
X0196000Y0081881D01*
X0196000Y0080882D02*
X0190500Y0080882D01*
X0190500Y0079884D02*
X0196000Y0079884D01*
X0196000Y0078885D02*
X0190500Y0078885D01*
X0190500Y0077887D02*
X0196000Y0077887D01*
X0196000Y0076888D02*
X0191966Y0076888D01*
X0192931Y0075890D02*
X0196000Y0075890D01*
X0196000Y0074891D02*
X0193345Y0074891D01*
X0193700Y0073893D02*
X0196000Y0073893D01*
X0196000Y0072894D02*
X0193700Y0072894D01*
X0193671Y0071896D02*
X0196000Y0071896D01*
X0196000Y0070897D02*
X0193257Y0070897D01*
X0192753Y0069899D02*
X0196000Y0069899D01*
X0196000Y0068900D02*
X0191754Y0068900D01*
X0190254Y0067902D02*
X0196000Y0067902D01*
X0196000Y0066903D02*
X0191951Y0066903D01*
X0192925Y0065905D02*
X0196000Y0065905D01*
X0196000Y0064906D02*
X0193339Y0064906D01*
X0193700Y0063908D02*
X0196000Y0063908D01*
X0196000Y0062909D02*
X0193700Y0062909D01*
X0193677Y0061911D02*
X0196000Y0061911D01*
X0196000Y0060912D02*
X0193264Y0060912D01*
X0192768Y0059914D02*
X0196000Y0059914D01*
X0196000Y0058915D02*
X0191769Y0058915D01*
X0190218Y0057917D02*
X0196000Y0057917D01*
X0196000Y0056918D02*
X0191936Y0056918D01*
X0192919Y0055920D02*
X0196000Y0055920D01*
X0196000Y0054921D02*
X0193333Y0054921D01*
X0193700Y0053923D02*
X0196000Y0053923D01*
X0196000Y0052924D02*
X0193700Y0052924D01*
X0193683Y0051926D02*
X0196000Y0051926D01*
X0196000Y0050927D02*
X0193270Y0050927D01*
X0192782Y0049929D02*
X0196000Y0049929D01*
X0196000Y0048930D02*
X0191784Y0048930D01*
X0190182Y0047932D02*
X0196000Y0047932D01*
X0196000Y0046933D02*
X0191921Y0046933D01*
X0192913Y0045934D02*
X0196000Y0045934D01*
X0196000Y0044936D02*
X0193327Y0044936D01*
X0193700Y0043937D02*
X0196000Y0043937D01*
X0196000Y0042939D02*
X0193700Y0042939D01*
X0193690Y0041940D02*
X0196000Y0041940D01*
X0196000Y0040942D02*
X0193276Y0040942D01*
X0192797Y0039943D02*
X0196000Y0039943D01*
X0196000Y0038945D02*
X0191799Y0038945D01*
X0190147Y0037946D02*
X0196000Y0037946D01*
X0196000Y0036948D02*
X0191906Y0036948D01*
X0192905Y0035949D02*
X0196000Y0035949D01*
X0196000Y0034951D02*
X0193320Y0034951D01*
X0193700Y0033952D02*
X0196000Y0033952D01*
X0196000Y0032954D02*
X0193700Y0032954D01*
X0193696Y0031955D02*
X0196000Y0031955D01*
X0196000Y0030957D02*
X0193282Y0030957D01*
X0192812Y0029958D02*
X0196000Y0029958D01*
X0196000Y0028960D02*
X0191814Y0028960D01*
X0190111Y0027961D02*
X0196000Y0027961D01*
X0196000Y0026963D02*
X0191891Y0026963D01*
X0192890Y0025964D02*
X0196000Y0025964D01*
X0196000Y0024966D02*
X0193314Y0024966D01*
X0193700Y0023967D02*
X0196000Y0023967D01*
X0196000Y0022969D02*
X0193700Y0022969D01*
X0193700Y0021970D02*
X0196000Y0021970D01*
X0196000Y0020972D02*
X0193288Y0020972D01*
X0192827Y0019973D02*
X0196000Y0019973D01*
X0196000Y0018975D02*
X0191829Y0018975D01*
X0191876Y0016978D02*
X0196000Y0016978D01*
X0196000Y0017976D02*
X0190075Y0017976D01*
X0192875Y0015979D02*
X0196000Y0015979D01*
X0196000Y0014981D02*
X0193308Y0014981D01*
X0193700Y0013982D02*
X0196000Y0013982D01*
X0196000Y0012984D02*
X0193700Y0012984D01*
X0193700Y0011985D02*
X0196000Y0011985D01*
X0196000Y0010987D02*
X0193294Y0010987D01*
X0192842Y0009988D02*
X0196000Y0009988D01*
X0196000Y0008990D02*
X0191843Y0008990D01*
X0189996Y0007991D02*
X0196000Y0007991D01*
X0196000Y0006993D02*
X0169812Y0006993D01*
X0170505Y0007991D02*
X0187004Y0007991D01*
X0185156Y0008990D02*
X0170918Y0008990D01*
X0170968Y0009988D02*
X0184158Y0009988D01*
X0183706Y0010987D02*
X0170928Y0010987D01*
X0170514Y0011985D02*
X0183300Y0011985D01*
X0183300Y0012984D02*
X0169836Y0012984D01*
X0170500Y0020000D02*
X0163500Y0020000D01*
X0162500Y0021000D01*
X0137500Y0021000D01*
X0136500Y0020000D01*
X0133416Y0019973D02*
X0127252Y0019973D01*
X0125748Y0019973D02*
X0078355Y0019973D01*
X0078500Y0018975D02*
X0133586Y0018975D01*
X0134162Y0017976D02*
X0078500Y0017976D01*
X0078500Y0016978D02*
X0135737Y0016978D01*
X0137263Y0016978D02*
X0143416Y0016978D01*
X0143566Y0017976D02*
X0138838Y0017976D01*
X0139414Y0018975D02*
X0144113Y0018975D01*
X0146500Y0017000D02*
X0147500Y0018000D01*
X0178500Y0018000D01*
X0183500Y0023000D01*
X0188500Y0023000D01*
X0186500Y0015000D02*
X0188500Y0013000D01*
X0186500Y0015000D02*
X0156500Y0015000D01*
X0156500Y0014500D01*
X0153774Y0015979D02*
X0149416Y0015979D01*
X0148842Y0014981D02*
X0153416Y0014981D01*
X0153416Y0013982D02*
X0148563Y0013982D01*
X0149836Y0012984D02*
X0153164Y0012984D01*
X0152486Y0011985D02*
X0150514Y0011985D01*
X0150928Y0010987D02*
X0152072Y0010987D01*
X0152031Y0009988D02*
X0150968Y0009988D01*
X0150918Y0008990D02*
X0152082Y0008990D01*
X0152495Y0007991D02*
X0150505Y0007991D01*
X0149812Y0006993D02*
X0153188Y0006993D01*
X0154494Y0005994D02*
X0148506Y0005994D01*
X0158506Y0005994D02*
X0164494Y0005994D01*
X0163188Y0006993D02*
X0159812Y0006993D01*
X0160505Y0007991D02*
X0162495Y0007991D01*
X0162082Y0008990D02*
X0160918Y0008990D01*
X0160968Y0009988D02*
X0162031Y0009988D01*
X0162072Y0010987D02*
X0160928Y0010987D01*
X0160514Y0011985D02*
X0162486Y0011985D01*
X0163164Y0012984D02*
X0159836Y0012984D01*
X0168506Y0005994D02*
X0196000Y0005994D01*
X0196000Y0004996D02*
X0017525Y0004996D01*
X0015974Y0003997D02*
X0196000Y0003997D01*
X0170500Y0020000D02*
X0183500Y0033000D01*
X0188500Y0033000D01*
X0188500Y0043000D02*
X0183500Y0043000D01*
X0170500Y0030000D01*
X0164500Y0030000D01*
X0158500Y0024000D01*
X0127500Y0024000D01*
X0126500Y0023000D01*
X0123416Y0022969D02*
X0117241Y0022969D01*
X0115759Y0022969D02*
X0076500Y0022969D01*
X0076500Y0023967D02*
X0114171Y0023967D01*
X0113590Y0024966D02*
X0076500Y0024966D01*
X0076500Y0025964D02*
X0113416Y0025964D01*
X0113560Y0026963D02*
X0107227Y0026963D01*
X0105773Y0026963D02*
X0076500Y0026963D01*
X0076500Y0027961D02*
X0104177Y0027961D01*
X0103592Y0028960D02*
X0076500Y0028960D01*
X0076500Y0029958D02*
X0103416Y0029958D01*
X0103558Y0030957D02*
X0076500Y0030957D01*
X0076500Y0031955D02*
X0104094Y0031955D01*
X0105572Y0032954D02*
X0076500Y0032954D01*
X0076500Y0033952D02*
X0155624Y0033952D01*
X0156500Y0034951D02*
X0102198Y0034951D01*
X0100802Y0034951D02*
X0076500Y0034951D01*
X0076500Y0035949D02*
X0099189Y0035949D01*
X0098597Y0036948D02*
X0076500Y0036948D01*
X0076500Y0037946D02*
X0098416Y0037946D01*
X0098553Y0038945D02*
X0076500Y0038945D01*
X0076500Y0039943D02*
X0099082Y0039943D01*
X0099500Y0040942D02*
X0076500Y0040942D01*
X0076500Y0041940D02*
X0099500Y0041940D01*
X0099500Y0042939D02*
X0096170Y0042939D01*
X0094830Y0042939D02*
X0076500Y0042939D01*
X0076500Y0043937D02*
X0093201Y0043937D01*
X0092602Y0044936D02*
X0076500Y0044936D01*
X0076500Y0045934D02*
X0092313Y0045934D01*
X0091314Y0046933D02*
X0076500Y0046933D01*
X0076500Y0047932D02*
X0090316Y0047932D01*
X0089317Y0048930D02*
X0076500Y0048930D01*
X0076500Y0049929D02*
X0088319Y0049929D01*
X0087320Y0050927D02*
X0076500Y0050927D01*
X0076500Y0051926D02*
X0086322Y0051926D01*
X0085323Y0052924D02*
X0076500Y0052924D01*
X0076500Y0053923D02*
X0084325Y0053923D01*
X0083326Y0054921D02*
X0076500Y0054921D01*
X0076500Y0055920D02*
X0082328Y0055920D01*
X0081329Y0056918D02*
X0076500Y0056918D01*
X0076500Y0057917D02*
X0081200Y0057917D01*
X0081200Y0058915D02*
X0076500Y0058915D01*
X0076500Y0059914D02*
X0081200Y0059914D01*
X0081200Y0060912D02*
X0076500Y0060912D01*
X0076500Y0061911D02*
X0081200Y0061911D01*
X0081200Y0062909D02*
X0076500Y0062909D01*
X0076500Y0063908D02*
X0081200Y0063908D01*
X0081200Y0064906D02*
X0077235Y0064906D01*
X0072500Y0061911D02*
X0072239Y0061911D01*
X0072500Y0060912D02*
X0071241Y0060912D01*
X0072500Y0059914D02*
X0046584Y0059914D01*
X0046389Y0058915D02*
X0072500Y0058915D01*
X0072500Y0057917D02*
X0045778Y0057917D01*
X0044119Y0056918D02*
X0072500Y0056918D01*
X0072500Y0055920D02*
X0042248Y0055920D01*
X0041250Y0054921D02*
X0072500Y0054921D01*
X0072500Y0053923D02*
X0040251Y0053923D01*
X0039252Y0052924D02*
X0072500Y0052924D01*
X0072500Y0051926D02*
X0038254Y0051926D01*
X0037255Y0050927D02*
X0072500Y0050927D01*
X0072500Y0049929D02*
X0036257Y0049929D01*
X0035258Y0048930D02*
X0072500Y0048930D01*
X0072500Y0047932D02*
X0034260Y0047932D01*
X0033261Y0046933D02*
X0072500Y0046933D01*
X0072500Y0045934D02*
X0032263Y0045934D01*
X0031264Y0044936D02*
X0072500Y0044936D01*
X0072500Y0043937D02*
X0030266Y0043937D01*
X0029267Y0042939D02*
X0072500Y0042939D01*
X0072500Y0041940D02*
X0028269Y0041940D01*
X0027270Y0040942D02*
X0072500Y0040942D01*
X0072500Y0039943D02*
X0014277Y0039943D01*
X0013799Y0038945D02*
X0072500Y0038945D01*
X0072500Y0037946D02*
X0012800Y0037946D01*
X0011099Y0036948D02*
X0072500Y0036948D01*
X0072500Y0035949D02*
X0012905Y0035949D01*
X0013784Y0034951D02*
X0072500Y0034951D01*
X0072500Y0033952D02*
X0014333Y0033952D01*
X0014614Y0032954D02*
X0072500Y0032954D01*
X0072500Y0025964D02*
X0036900Y0025964D01*
X0037898Y0024966D02*
X0072500Y0024966D01*
X0072500Y0023967D02*
X0038897Y0023967D01*
X0039000Y0022969D02*
X0072500Y0022969D01*
X0072500Y0021970D02*
X0039000Y0021970D01*
X0039000Y0020972D02*
X0072500Y0020972D01*
X0072698Y0019973D02*
X0038837Y0019973D01*
X0037839Y0018975D02*
X0073697Y0018975D01*
X0076500Y0021970D02*
X0123588Y0021970D01*
X0124166Y0020972D02*
X0077357Y0020972D01*
X0078500Y0015979D02*
X0143584Y0015979D01*
X0133564Y0020972D02*
X0128834Y0020972D01*
X0129412Y0021970D02*
X0134108Y0021970D01*
X0124104Y0024966D02*
X0119410Y0024966D01*
X0118829Y0023967D02*
X0123562Y0023967D01*
X0117500Y0027000D02*
X0116500Y0026000D01*
X0117500Y0027000D02*
X0156500Y0027000D01*
X0161500Y0032000D01*
X0161500Y0038000D01*
X0163500Y0040000D01*
X0170500Y0040000D01*
X0183500Y0053000D01*
X0188500Y0053000D01*
X0181587Y0058915D02*
X0180779Y0058915D01*
X0180364Y0058500D02*
X0183000Y0061136D01*
X0183000Y0062500D01*
X0179000Y0062500D01*
X0179000Y0058500D01*
X0180364Y0058500D01*
X0180588Y0057917D02*
X0169903Y0057917D01*
X0170542Y0056918D02*
X0179590Y0056918D01*
X0178591Y0055920D02*
X0170956Y0055920D01*
X0170968Y0054921D02*
X0177593Y0054921D01*
X0176594Y0053923D02*
X0170890Y0053923D01*
X0170477Y0052924D02*
X0175596Y0052924D01*
X0175500Y0050000D02*
X0188500Y0063000D01*
X0183661Y0064906D02*
X0182958Y0064906D01*
X0183000Y0063908D02*
X0183300Y0063908D01*
X0183300Y0062909D02*
X0179000Y0062909D01*
X0179000Y0061911D02*
X0178000Y0061911D01*
X0178000Y0062500D02*
X0178000Y0058500D01*
X0176636Y0058500D01*
X0174000Y0061136D01*
X0174000Y0062500D01*
X0178000Y0062500D01*
X0178000Y0062909D02*
X0172238Y0062909D01*
X0173236Y0063908D02*
X0174000Y0063908D01*
X0174000Y0061911D02*
X0171239Y0061911D01*
X0170241Y0060912D02*
X0174224Y0060912D01*
X0175222Y0059914D02*
X0118242Y0059914D01*
X0117244Y0058915D02*
X0164275Y0058915D01*
X0163097Y0057917D02*
X0116245Y0057917D01*
X0115247Y0056918D02*
X0162458Y0056918D01*
X0162044Y0055920D02*
X0114248Y0055920D01*
X0113250Y0054921D02*
X0162031Y0054921D01*
X0162110Y0053923D02*
X0112251Y0053923D01*
X0111252Y0052924D02*
X0162523Y0052924D01*
X0160597Y0051926D02*
X0110254Y0051926D01*
X0109255Y0050927D02*
X0159599Y0050927D01*
X0158600Y0049929D02*
X0108257Y0049929D01*
X0107258Y0048930D02*
X0157602Y0048930D01*
X0156603Y0047932D02*
X0106260Y0047932D01*
X0105261Y0046933D02*
X0156500Y0046933D01*
X0156500Y0045934D02*
X0104263Y0045934D01*
X0103500Y0044936D02*
X0156500Y0044936D01*
X0156500Y0043937D02*
X0103500Y0043937D01*
X0103500Y0042939D02*
X0156500Y0042939D01*
X0156500Y0041940D02*
X0103500Y0041940D01*
X0103500Y0040942D02*
X0156500Y0040942D01*
X0156500Y0039943D02*
X0103918Y0039943D01*
X0104447Y0038945D02*
X0156500Y0038945D01*
X0156500Y0037946D02*
X0104584Y0037946D01*
X0104403Y0036948D02*
X0156500Y0036948D01*
X0156500Y0035949D02*
X0103811Y0035949D01*
X0101500Y0038000D02*
X0101500Y0046000D01*
X0117500Y0062000D01*
X0168500Y0062000D01*
X0174500Y0068000D01*
X0183500Y0068000D01*
X0188500Y0073000D01*
X0188500Y0093000D01*
X0180823Y0103848D02*
X0177332Y0103848D01*
X0182500Y0107842D02*
X0196000Y0107842D01*
X0196000Y0106844D02*
X0188485Y0106844D01*
X0182500Y0108841D02*
X0196000Y0108841D01*
X0196000Y0109839D02*
X0182500Y0109839D01*
X0182500Y0110838D02*
X0196000Y0110838D01*
X0196000Y0111836D02*
X0182500Y0111836D01*
X0182500Y0112835D02*
X0196000Y0112835D01*
X0196000Y0113833D02*
X0182500Y0113833D01*
X0182500Y0114832D02*
X0196000Y0114832D01*
X0196000Y0115830D02*
X0182500Y0115830D01*
X0182500Y0116829D02*
X0196000Y0116829D01*
X0196000Y0117827D02*
X0182500Y0117827D01*
X0182500Y0118826D02*
X0196000Y0118826D01*
X0196000Y0119824D02*
X0182500Y0119824D01*
X0182500Y0120823D02*
X0196000Y0120823D01*
X0196000Y0121821D02*
X0182500Y0121821D01*
X0182500Y0122820D02*
X0196000Y0122820D01*
X0196000Y0123818D02*
X0182500Y0123818D01*
X0182500Y0124817D02*
X0196000Y0124817D01*
X0196000Y0125815D02*
X0182500Y0125815D01*
X0182500Y0126814D02*
X0196000Y0126814D01*
X0196000Y0127812D02*
X0182500Y0127812D01*
X0182500Y0128811D02*
X0196000Y0128811D01*
X0196000Y0129809D02*
X0182500Y0129809D01*
X0182500Y0130808D02*
X0196000Y0130808D01*
X0196000Y0131806D02*
X0182500Y0131806D01*
X0182500Y0132805D02*
X0196000Y0132805D01*
X0196000Y0133803D02*
X0182500Y0133803D01*
X0182500Y0134802D02*
X0196000Y0134802D01*
X0196000Y0135801D02*
X0182500Y0135801D01*
X0182500Y0136799D02*
X0196000Y0136799D01*
X0196000Y0137798D02*
X0182500Y0137798D01*
X0182500Y0138796D02*
X0196000Y0138796D01*
X0196000Y0139795D02*
X0182500Y0139795D01*
X0182500Y0140793D02*
X0196000Y0140793D01*
X0196000Y0141792D02*
X0182500Y0141792D01*
X0182500Y0142790D02*
X0196000Y0142790D01*
X0196000Y0143789D02*
X0182500Y0143789D01*
X0182500Y0144787D02*
X0196000Y0144787D01*
X0196000Y0145786D02*
X0182500Y0145786D01*
X0182500Y0146784D02*
X0196000Y0146784D01*
X0196000Y0147783D02*
X0182500Y0147783D01*
X0182500Y0148781D02*
X0196000Y0148781D01*
X0196000Y0149780D02*
X0182500Y0149780D01*
X0182500Y0150778D02*
X0196000Y0150778D01*
X0196000Y0151777D02*
X0182500Y0151777D01*
X0182500Y0152775D02*
X0196000Y0152775D01*
X0196000Y0153774D02*
X0182500Y0153774D01*
X0182500Y0154772D02*
X0196000Y0154772D01*
X0196000Y0155771D02*
X0182500Y0155771D01*
X0182500Y0156769D02*
X0196000Y0156769D01*
X0196000Y0157768D02*
X0182500Y0157768D01*
X0182500Y0158766D02*
X0196000Y0158766D01*
X0196000Y0159765D02*
X0182500Y0159765D01*
X0182500Y0160763D02*
X0196000Y0160763D01*
X0196000Y0161762D02*
X0182500Y0161762D01*
X0182500Y0162760D02*
X0196000Y0162760D01*
X0196000Y0163759D02*
X0182500Y0163759D01*
X0182500Y0164757D02*
X0196000Y0164757D01*
X0196000Y0165756D02*
X0182500Y0165756D01*
X0182500Y0166754D02*
X0196000Y0166754D01*
X0196000Y0167753D02*
X0182500Y0167753D01*
X0182500Y0168751D02*
X0196000Y0168751D01*
X0196000Y0169750D02*
X0182500Y0169750D01*
X0182500Y0170748D02*
X0196000Y0170748D01*
X0196000Y0171747D02*
X0182500Y0171747D01*
X0182607Y0172745D02*
X0196000Y0172745D01*
X0196000Y0173744D02*
X0183318Y0173744D01*
X0183584Y0174742D02*
X0196000Y0174742D01*
X0196000Y0175741D02*
X0183531Y0175741D01*
X0183118Y0176739D02*
X0196000Y0176739D01*
X0196000Y0177738D02*
X0181949Y0177738D01*
X0178500Y0164757D02*
X0171152Y0164757D01*
X0173563Y0163759D02*
X0178500Y0163759D01*
X0178500Y0162760D02*
X0174769Y0162760D01*
X0175768Y0161762D02*
X0178500Y0161762D01*
X0178500Y0160763D02*
X0176383Y0160763D01*
X0176797Y0159765D02*
X0178500Y0159765D01*
X0178500Y0158766D02*
X0177210Y0158766D01*
X0177299Y0157768D02*
X0178500Y0157768D01*
X0178500Y0156769D02*
X0177299Y0156769D01*
X0177299Y0155771D02*
X0178500Y0155771D01*
X0178500Y0154772D02*
X0177019Y0154772D01*
X0176605Y0153774D02*
X0178500Y0153774D01*
X0178500Y0152775D02*
X0176192Y0152775D01*
X0175306Y0151777D02*
X0178500Y0151777D01*
X0178500Y0150778D02*
X0174308Y0150778D01*
X0172449Y0149780D02*
X0178500Y0149780D01*
X0136200Y0149780D02*
X0130411Y0149780D01*
X0130736Y0149645D02*
X0129155Y0150300D01*
X0121845Y0150300D01*
X0120264Y0149645D01*
X0119055Y0148436D01*
X0118400Y0146855D01*
X0118400Y0145145D01*
X0119055Y0143564D01*
X0120264Y0142355D01*
X0121845Y0141700D01*
X0129155Y0141700D01*
X0130736Y0142355D01*
X0131945Y0143564D01*
X0132600Y0145145D01*
X0132600Y0146855D01*
X0131945Y0148436D01*
X0130736Y0149645D01*
X0131600Y0148781D02*
X0136200Y0148781D01*
X0136200Y0147783D02*
X0132216Y0147783D01*
X0132600Y0146784D02*
X0136200Y0146784D01*
X0136200Y0145786D02*
X0132600Y0145786D01*
X0132452Y0144787D02*
X0136200Y0144787D01*
X0136200Y0143789D02*
X0132038Y0143789D01*
X0131171Y0142790D02*
X0136200Y0142790D01*
X0136200Y0141792D02*
X0129376Y0141792D01*
X0129155Y0140300D02*
X0121845Y0140300D01*
X0120264Y0139645D01*
X0119055Y0138436D01*
X0118400Y0136855D01*
X0118400Y0135145D01*
X0119055Y0133564D01*
X0119433Y0133186D01*
X0118547Y0132300D01*
X0096547Y0132300D01*
X0093747Y0129500D01*
X0091636Y0129500D01*
X0089000Y0126864D01*
X0089000Y0123136D01*
X0091636Y0120500D01*
X0095364Y0120500D01*
X0098000Y0123136D01*
X0098000Y0126864D01*
X0097808Y0127056D01*
X0098453Y0127700D01*
X0099836Y0127700D01*
X0099000Y0126864D01*
X0099000Y0125500D01*
X0103000Y0125500D01*
X0103000Y0124500D01*
X0104000Y0124500D01*
X0104000Y0125500D01*
X0108000Y0125500D01*
X0108000Y0126864D01*
X0107164Y0127700D01*
X0120453Y0127700D01*
X0124453Y0131700D01*
X0129155Y0131700D01*
X0130736Y0132355D01*
X0131945Y0133564D01*
X0132600Y0135145D01*
X0132600Y0136855D01*
X0131945Y0138436D01*
X0130736Y0139645D01*
X0129155Y0140300D01*
X0130376Y0139795D02*
X0136200Y0139795D01*
X0136200Y0140793D02*
X0053800Y0140793D01*
X0053800Y0139795D02*
X0120624Y0139795D01*
X0119415Y0138796D02*
X0053800Y0138796D01*
X0053800Y0137798D02*
X0118790Y0137798D01*
X0118400Y0136799D02*
X0053800Y0136799D01*
X0053800Y0135801D02*
X0118400Y0135801D01*
X0118542Y0134802D02*
X0053800Y0134802D01*
X0053800Y0133803D02*
X0118956Y0133803D01*
X0119052Y0132805D02*
X0053800Y0132805D01*
X0053800Y0131806D02*
X0096054Y0131806D01*
X0095055Y0130808D02*
X0053800Y0130808D01*
X0053800Y0129809D02*
X0094057Y0129809D01*
X0090947Y0128811D02*
X0086053Y0128811D01*
X0085364Y0129500D02*
X0088000Y0126864D01*
X0088000Y0123136D01*
X0085364Y0120500D01*
X0081636Y0120500D01*
X0079000Y0123136D01*
X0079000Y0126864D01*
X0081636Y0129500D01*
X0085364Y0129500D01*
X0087052Y0127812D02*
X0089948Y0127812D01*
X0089000Y0126814D02*
X0088000Y0126814D01*
X0088000Y0125815D02*
X0089000Y0125815D01*
X0089000Y0124817D02*
X0088000Y0124817D01*
X0088000Y0123818D02*
X0089000Y0123818D01*
X0089316Y0122820D02*
X0087684Y0122820D01*
X0086685Y0121821D02*
X0090315Y0121821D01*
X0091313Y0120823D02*
X0085687Y0120823D01*
X0085364Y0119500D02*
X0081636Y0119500D01*
X0079000Y0116864D01*
X0079000Y0113136D01*
X0081636Y0110500D01*
X0085364Y0110500D01*
X0088000Y0113136D01*
X0088000Y0116864D01*
X0085364Y0119500D01*
X0086038Y0118826D02*
X0090962Y0118826D01*
X0091636Y0119500D02*
X0089000Y0116864D01*
X0089000Y0113136D01*
X0091636Y0110500D01*
X0095364Y0110500D01*
X0098000Y0113136D01*
X0098000Y0116864D01*
X0095364Y0119500D01*
X0091636Y0119500D01*
X0089963Y0117827D02*
X0087037Y0117827D01*
X0088000Y0116829D02*
X0089000Y0116829D01*
X0089000Y0115830D02*
X0088000Y0115830D01*
X0088000Y0114832D02*
X0089000Y0114832D01*
X0089000Y0113833D02*
X0088000Y0113833D01*
X0087699Y0112835D02*
X0089301Y0112835D01*
X0090300Y0111836D02*
X0086700Y0111836D01*
X0085702Y0110838D02*
X0091298Y0110838D01*
X0095702Y0110838D02*
X0101298Y0110838D01*
X0101636Y0110500D02*
X0099000Y0113136D01*
X0099000Y0114500D01*
X0103000Y0114500D01*
X0104000Y0114500D01*
X0104000Y0115500D01*
X0108000Y0115500D01*
X0108000Y0116864D01*
X0105364Y0119500D01*
X0104000Y0119500D01*
X0104000Y0115500D01*
X0103000Y0115500D01*
X0103000Y0119500D01*
X0101636Y0119500D01*
X0099000Y0116864D01*
X0099000Y0115500D01*
X0103000Y0115500D01*
X0103000Y0114500D01*
X0103000Y0110500D01*
X0101636Y0110500D01*
X0103000Y0110838D02*
X0104000Y0110838D01*
X0104000Y0110500D02*
X0105364Y0110500D01*
X0108000Y0113136D01*
X0108000Y0114500D01*
X0104000Y0114500D01*
X0104000Y0110500D01*
X0104000Y0111836D02*
X0103000Y0111836D01*
X0103000Y0112835D02*
X0104000Y0112835D01*
X0104000Y0113833D02*
X0103000Y0113833D01*
X0103000Y0114832D02*
X0098000Y0114832D01*
X0098000Y0115830D02*
X0099000Y0115830D01*
X0099000Y0116829D02*
X0098000Y0116829D01*
X0097037Y0117827D02*
X0099963Y0117827D01*
X0100962Y0118826D02*
X0096038Y0118826D01*
X0095687Y0120823D02*
X0101313Y0120823D01*
X0101636Y0120500D02*
X0099000Y0123136D01*
X0099000Y0124500D01*
X0103000Y0124500D01*
X0103000Y0120500D01*
X0101636Y0120500D01*
X0103000Y0120823D02*
X0104000Y0120823D01*
X0104000Y0120500D02*
X0105364Y0120500D01*
X0108000Y0123136D01*
X0108000Y0124500D01*
X0104000Y0124500D01*
X0104000Y0120500D01*
X0104000Y0121821D02*
X0103000Y0121821D01*
X0103000Y0122820D02*
X0104000Y0122820D01*
X0104000Y0123818D02*
X0103000Y0123818D01*
X0103000Y0124817D02*
X0098000Y0124817D01*
X0098000Y0125815D02*
X0099000Y0125815D01*
X0099000Y0126814D02*
X0098000Y0126814D01*
X0098000Y0123818D02*
X0099000Y0123818D01*
X0099316Y0122820D02*
X0097684Y0122820D01*
X0096685Y0121821D02*
X0100315Y0121821D01*
X0103000Y0118826D02*
X0104000Y0118826D01*
X0104000Y0117827D02*
X0103000Y0117827D01*
X0103000Y0116829D02*
X0104000Y0116829D01*
X0104000Y0115830D02*
X0103000Y0115830D01*
X0104000Y0114832D02*
X0116756Y0114832D01*
X0115850Y0113926D02*
X0115850Y0112300D01*
X0120200Y0112300D01*
X0120200Y0116650D01*
X0118574Y0116650D01*
X0115850Y0113926D01*
X0115850Y0113833D02*
X0108000Y0113833D01*
X0107699Y0112835D02*
X0115850Y0112835D01*
X0115850Y0111700D02*
X0115850Y0110074D01*
X0118574Y0107350D01*
X0120200Y0107350D01*
X0120200Y0111700D01*
X0115850Y0111700D01*
X0115850Y0110838D02*
X0105702Y0110838D01*
X0106700Y0111836D02*
X0120200Y0111836D01*
X0120200Y0111700D02*
X0120200Y0112300D01*
X0120800Y0112300D01*
X0120800Y0116650D01*
X0122426Y0116650D01*
X0125150Y0113926D01*
X0125150Y0112300D01*
X0120800Y0112300D01*
X0120800Y0111700D01*
X0125150Y0111700D01*
X0125150Y0110074D01*
X0122426Y0107350D01*
X0120800Y0107350D01*
X0120800Y0111700D01*
X0120200Y0111700D01*
X0120800Y0111836D02*
X0127200Y0111836D01*
X0127200Y0110838D02*
X0125150Y0110838D01*
X0124915Y0109839D02*
X0127200Y0109839D01*
X0127200Y0108841D02*
X0123917Y0108841D01*
X0122918Y0107842D02*
X0127405Y0107842D01*
X0128404Y0106844D02*
X0066421Y0106844D01*
X0066772Y0105845D02*
X0097603Y0105845D01*
X0101397Y0105845D02*
X0129402Y0105845D01*
X0130401Y0104847D02*
X0102189Y0104847D01*
X0102500Y0103848D02*
X0131399Y0103848D01*
X0132398Y0102850D02*
X0102478Y0102850D01*
X0106000Y0100500D02*
X0108500Y0098000D01*
X0111008Y0099854D02*
X0135393Y0099854D01*
X0134395Y0100853D02*
X0109673Y0100853D01*
X0107477Y0101851D02*
X0133396Y0101851D01*
X0136200Y0093863D02*
X0058000Y0093863D01*
X0058000Y0092865D02*
X0136200Y0092865D01*
X0136200Y0091866D02*
X0058000Y0091866D01*
X0058000Y0090868D02*
X0136200Y0090868D01*
X0136200Y0089869D02*
X0070133Y0089869D01*
X0071491Y0088870D02*
X0136200Y0088870D01*
X0136200Y0087872D02*
X0071977Y0087872D01*
X0072084Y0086873D02*
X0136200Y0086873D01*
X0136200Y0085875D02*
X0071872Y0085875D01*
X0071238Y0084876D02*
X0136200Y0084876D01*
X0136369Y0083878D02*
X0057986Y0083878D01*
X0058000Y0082879D02*
X0086018Y0082879D01*
X0074500Y0077000D02*
X0071500Y0074000D01*
X0071500Y0064000D01*
X0069500Y0062000D01*
X0053500Y0062000D01*
X0045500Y0070000D01*
X0011500Y0070000D01*
X0009500Y0072000D01*
X0012964Y0075890D02*
X0027028Y0075890D01*
X0026531Y0074891D02*
X0013931Y0074891D01*
X0014344Y0073893D02*
X0026416Y0073893D01*
X0026620Y0072894D02*
X0014700Y0072894D01*
X0011287Y0076888D02*
X0028414Y0076888D01*
X0026749Y0078885D02*
X0030251Y0078885D01*
X0031249Y0077887D02*
X0025751Y0077887D01*
X0027748Y0079884D02*
X0029252Y0079884D01*
X0029000Y0080882D02*
X0028000Y0080882D01*
X0028000Y0081881D02*
X0033000Y0081881D01*
X0033000Y0080882D02*
X0034000Y0080882D01*
X0034000Y0079884D02*
X0033000Y0079884D01*
X0033000Y0078885D02*
X0034000Y0078885D01*
X0034000Y0077887D02*
X0033000Y0077887D01*
X0035751Y0077887D02*
X0041249Y0077887D01*
X0040251Y0078885D02*
X0036749Y0078885D01*
X0037748Y0079884D02*
X0039252Y0079884D01*
X0039000Y0080882D02*
X0038000Y0080882D01*
X0039000Y0081881D02*
X0034000Y0081881D01*
X0038000Y0082879D02*
X0039000Y0082879D01*
X0039014Y0083878D02*
X0037986Y0083878D01*
X0036988Y0084876D02*
X0040013Y0084876D01*
X0034000Y0093863D02*
X0033000Y0093863D01*
X0033000Y0094862D02*
X0034000Y0094862D01*
X0034000Y0095860D02*
X0033000Y0095860D01*
X0029000Y0090868D02*
X0028000Y0090868D01*
X0027733Y0089869D02*
X0029267Y0089869D01*
X0030012Y0084876D02*
X0026987Y0084876D01*
X0027986Y0083878D02*
X0029014Y0083878D01*
X0029000Y0082879D02*
X0028000Y0082879D01*
X0021500Y0087000D02*
X0016500Y0082000D01*
X0009500Y0082000D01*
X0012979Y0085875D02*
X0017547Y0085875D01*
X0018545Y0086873D02*
X0011323Y0086873D01*
X0012726Y0087872D02*
X0019544Y0087872D01*
X0020266Y0088870D02*
X0013724Y0088870D01*
X0014246Y0089869D02*
X0019267Y0089869D01*
X0019000Y0090868D02*
X0014659Y0090868D01*
X0014700Y0091866D02*
X0019000Y0091866D01*
X0019000Y0092865D02*
X0014700Y0092865D01*
X0014357Y0093863D02*
X0019000Y0093863D01*
X0019998Y0094862D02*
X0015190Y0094862D01*
X0016188Y0095860D02*
X0020996Y0095860D01*
X0021500Y0087000D02*
X0069000Y0087000D01*
X0067867Y0089869D02*
X0057733Y0089869D01*
X0056987Y0084876D02*
X0066762Y0084876D01*
X0061828Y0078500D02*
X0073172Y0078500D01*
X0070672Y0076000D01*
X0069500Y0074828D01*
X0069500Y0073319D01*
X0069411Y0073408D01*
X0068842Y0073822D01*
X0068215Y0074141D01*
X0067546Y0074358D01*
X0066984Y0074447D01*
X0066984Y0070484D01*
X0066016Y0070484D01*
X0066016Y0069516D01*
X0066984Y0069516D01*
X0066984Y0065552D01*
X0067546Y0065642D01*
X0068215Y0065859D01*
X0068842Y0066178D01*
X0069411Y0066592D01*
X0069500Y0066681D01*
X0069500Y0064828D01*
X0068672Y0064000D01*
X0054328Y0064000D01*
X0047500Y0070828D01*
X0046328Y0072000D01*
X0031862Y0072000D01*
X0032115Y0072253D01*
X0032424Y0073000D01*
X0053181Y0073000D01*
X0052712Y0072531D01*
X0052031Y0070889D01*
X0052031Y0069111D01*
X0052712Y0067469D01*
X0053969Y0066212D01*
X0055611Y0065531D01*
X0057389Y0065531D01*
X0059031Y0066212D01*
X0060288Y0067469D01*
X0060968Y0069111D01*
X0060968Y0070889D01*
X0060288Y0072531D01*
X0059031Y0073788D01*
X0057677Y0074349D01*
X0061828Y0078500D01*
X0061215Y0077887D02*
X0072558Y0077887D01*
X0071560Y0076888D02*
X0060217Y0076888D01*
X0059218Y0075890D02*
X0070561Y0075890D01*
X0069563Y0074891D02*
X0058220Y0074891D01*
X0058779Y0073893D02*
X0064297Y0073893D01*
X0064158Y0073822D02*
X0063589Y0073408D01*
X0063092Y0072911D01*
X0062678Y0072342D01*
X0062359Y0071715D01*
X0062142Y0071046D01*
X0062052Y0070484D01*
X0066016Y0070484D01*
X0066016Y0074447D01*
X0065454Y0074358D01*
X0064785Y0074141D01*
X0064158Y0073822D01*
X0063079Y0072894D02*
X0059925Y0072894D01*
X0060551Y0071896D02*
X0062451Y0071896D01*
X0062118Y0070897D02*
X0060965Y0070897D01*
X0060968Y0069899D02*
X0066016Y0069899D01*
X0066016Y0069516D02*
X0062052Y0069516D01*
X0062142Y0068954D01*
X0062359Y0068285D01*
X0062678Y0067658D01*
X0063092Y0067089D01*
X0063589Y0066592D01*
X0064158Y0066178D01*
X0064785Y0065859D01*
X0065454Y0065642D01*
X0066016Y0065552D01*
X0066016Y0069516D01*
X0066016Y0068900D02*
X0066984Y0068900D01*
X0066984Y0067902D02*
X0066016Y0067902D01*
X0066016Y0066903D02*
X0066984Y0066903D01*
X0066984Y0065905D02*
X0066016Y0065905D01*
X0064695Y0065905D02*
X0058290Y0065905D01*
X0059723Y0066903D02*
X0063277Y0066903D01*
X0062554Y0067902D02*
X0060468Y0067902D01*
X0060881Y0068900D02*
X0062159Y0068900D01*
X0066016Y0070897D02*
X0066984Y0070897D01*
X0066984Y0071896D02*
X0066016Y0071896D01*
X0066016Y0072894D02*
X0066984Y0072894D01*
X0066984Y0073893D02*
X0066016Y0073893D01*
X0068703Y0073893D02*
X0069500Y0073893D01*
X0074500Y0077000D02*
X0104500Y0077000D01*
X0106500Y0075000D01*
X0106500Y0070000D01*
X0108290Y0065905D02*
X0114710Y0065905D01*
X0113969Y0066212D02*
X0112712Y0067469D01*
X0112031Y0069111D01*
X0112031Y0070889D01*
X0112712Y0072531D01*
X0113969Y0073788D01*
X0115611Y0074468D01*
X0117389Y0074468D01*
X0119031Y0073788D01*
X0120288Y0072531D01*
X0120968Y0070889D01*
X0120968Y0069111D01*
X0120288Y0067469D01*
X0119031Y0066212D01*
X0117389Y0065531D01*
X0115611Y0065531D01*
X0113969Y0066212D01*
X0113277Y0066903D02*
X0109723Y0066903D01*
X0110468Y0067902D02*
X0112532Y0067902D01*
X0112119Y0068900D02*
X0110881Y0068900D01*
X0110968Y0069899D02*
X0112031Y0069899D01*
X0112035Y0070897D02*
X0110965Y0070897D01*
X0110551Y0071896D02*
X0112449Y0071896D01*
X0113075Y0072894D02*
X0109925Y0072894D01*
X0108779Y0073893D02*
X0114221Y0073893D01*
X0118779Y0073893D02*
X0124221Y0073893D01*
X0123969Y0073788D02*
X0122712Y0072531D01*
X0122031Y0070889D01*
X0122031Y0069111D01*
X0122712Y0067469D01*
X0123969Y0066212D01*
X0125611Y0065531D01*
X0127389Y0065531D01*
X0129031Y0066212D01*
X0130288Y0067469D01*
X0130968Y0069111D01*
X0130968Y0070889D01*
X0130288Y0072531D01*
X0129031Y0073788D01*
X0127389Y0074468D01*
X0125611Y0074468D01*
X0123969Y0073788D01*
X0123075Y0072894D02*
X0119925Y0072894D01*
X0120551Y0071896D02*
X0122449Y0071896D01*
X0122035Y0070897D02*
X0120965Y0070897D01*
X0120968Y0069899D02*
X0122031Y0069899D01*
X0122119Y0068900D02*
X0120881Y0068900D01*
X0120468Y0067902D02*
X0122532Y0067902D01*
X0123277Y0066903D02*
X0119723Y0066903D01*
X0118290Y0065905D02*
X0124710Y0065905D01*
X0128290Y0065905D02*
X0134710Y0065905D01*
X0133277Y0066903D02*
X0129723Y0066903D01*
X0130468Y0067902D02*
X0132532Y0067902D01*
X0132119Y0068900D02*
X0130881Y0068900D01*
X0130968Y0069899D02*
X0132031Y0069899D01*
X0132035Y0070897D02*
X0130965Y0070897D01*
X0130551Y0071896D02*
X0132449Y0071896D01*
X0133075Y0072894D02*
X0129925Y0072894D01*
X0128779Y0073893D02*
X0134221Y0073893D01*
X0134563Y0074891D02*
X0108500Y0074891D01*
X0108439Y0075890D02*
X0135561Y0075890D01*
X0136560Y0076888D02*
X0107440Y0076888D01*
X0103743Y0063908D02*
X0116579Y0063908D01*
X0115581Y0062909D02*
X0104910Y0062909D01*
X0105545Y0061911D02*
X0114582Y0061911D01*
X0113584Y0060912D02*
X0105959Y0060912D01*
X0105968Y0059914D02*
X0112585Y0059914D01*
X0111587Y0058915D02*
X0105887Y0058915D01*
X0105474Y0057917D02*
X0110588Y0057917D01*
X0109590Y0056918D02*
X0104738Y0056918D01*
X0103326Y0055920D02*
X0108591Y0055920D01*
X0105596Y0052924D02*
X0091829Y0052924D01*
X0092827Y0051926D02*
X0104597Y0051926D01*
X0103599Y0050927D02*
X0093826Y0050927D01*
X0094824Y0049929D02*
X0102600Y0049929D01*
X0101602Y0048930D02*
X0096486Y0048930D01*
X0097930Y0047932D02*
X0100603Y0047932D01*
X0099605Y0046933D02*
X0098452Y0046933D01*
X0098584Y0045934D02*
X0099500Y0045934D01*
X0099500Y0044936D02*
X0098398Y0044936D01*
X0097799Y0043937D02*
X0099500Y0043937D01*
X0107428Y0032954D02*
X0154625Y0032954D01*
X0154500Y0030000D02*
X0106500Y0030000D01*
X0108823Y0027961D02*
X0114100Y0027961D01*
X0085800Y0064906D02*
X0168578Y0064906D01*
X0168725Y0058915D02*
X0176221Y0058915D01*
X0178000Y0058915D02*
X0179000Y0058915D01*
X0179000Y0059914D02*
X0178000Y0059914D01*
X0178000Y0060912D02*
X0179000Y0060912D01*
X0181778Y0059914D02*
X0182585Y0059914D01*
X0182776Y0060912D02*
X0183584Y0060912D01*
X0183323Y0061911D02*
X0183000Y0061911D01*
X0181959Y0065905D02*
X0184075Y0065905D01*
X0183569Y0070897D02*
X0182761Y0070897D01*
X0183000Y0071896D02*
X0183329Y0071896D01*
X0183300Y0072894D02*
X0183000Y0072894D01*
X0183000Y0073893D02*
X0183300Y0073893D01*
X0182973Y0074891D02*
X0183655Y0074891D01*
X0184069Y0075890D02*
X0181974Y0075890D01*
X0180976Y0076888D02*
X0185034Y0076888D01*
X0160550Y0096859D02*
X0159470Y0096859D01*
X0158863Y0097857D02*
X0160137Y0097857D01*
X0148552Y0081881D02*
X0145981Y0081881D01*
X0146473Y0080882D02*
X0147554Y0080882D01*
X0120800Y0107842D02*
X0120200Y0107842D01*
X0120200Y0108841D02*
X0120800Y0108841D01*
X0120800Y0109839D02*
X0120200Y0109839D01*
X0120200Y0110838D02*
X0120800Y0110838D01*
X0120800Y0112835D02*
X0120200Y0112835D01*
X0120200Y0113833D02*
X0120800Y0113833D01*
X0120800Y0114832D02*
X0120200Y0114832D01*
X0120200Y0115830D02*
X0120800Y0115830D01*
X0122419Y0116829D02*
X0108000Y0116829D01*
X0108000Y0115830D02*
X0117754Y0115830D01*
X0118423Y0117827D02*
X0107037Y0117827D01*
X0106038Y0118826D02*
X0117098Y0118826D01*
X0116368Y0119824D02*
X0053800Y0119824D01*
X0053800Y0118826D02*
X0059750Y0118826D01*
X0058751Y0117827D02*
X0053800Y0117827D01*
X0053800Y0120823D02*
X0071313Y0120823D01*
X0071636Y0120500D02*
X0075364Y0120500D01*
X0078000Y0123136D01*
X0078000Y0126864D01*
X0075364Y0129500D01*
X0071636Y0129500D01*
X0069000Y0126864D01*
X0069000Y0123136D01*
X0071636Y0120500D01*
X0071636Y0119500D02*
X0069000Y0116864D01*
X0069000Y0113136D01*
X0071636Y0110500D01*
X0075364Y0110500D01*
X0078000Y0113136D01*
X0078000Y0116864D01*
X0075364Y0119500D01*
X0071636Y0119500D01*
X0070962Y0118826D02*
X0065250Y0118826D01*
X0066249Y0117827D02*
X0069963Y0117827D01*
X0069000Y0116829D02*
X0067150Y0116829D01*
X0067150Y0115830D02*
X0069000Y0115830D01*
X0069000Y0114832D02*
X0067150Y0114832D01*
X0067150Y0113833D02*
X0069000Y0113833D01*
X0069301Y0112835D02*
X0066911Y0112835D01*
X0065912Y0111836D02*
X0070300Y0111836D01*
X0071298Y0110838D02*
X0064914Y0110838D01*
X0060086Y0110838D02*
X0053800Y0110838D01*
X0053800Y0111836D02*
X0059088Y0111836D01*
X0058579Y0106844D02*
X0055421Y0106844D01*
X0055772Y0105845D02*
X0058228Y0105845D01*
X0058228Y0104847D02*
X0055772Y0104847D01*
X0055772Y0103848D02*
X0058228Y0103848D01*
X0058228Y0102850D02*
X0055772Y0102850D01*
X0055772Y0101851D02*
X0058228Y0101851D01*
X0058228Y0100853D02*
X0055772Y0100853D01*
X0053800Y0107842D02*
X0118082Y0107842D01*
X0117083Y0108841D02*
X0053800Y0108841D01*
X0053800Y0109839D02*
X0116085Y0109839D01*
X0123246Y0115830D02*
X0123417Y0115830D01*
X0124244Y0114832D02*
X0124416Y0114832D01*
X0125150Y0113833D02*
X0125414Y0113833D01*
X0125150Y0112835D02*
X0126413Y0112835D01*
X0115954Y0120823D02*
X0105687Y0120823D01*
X0106685Y0121821D02*
X0115850Y0121821D01*
X0115850Y0122820D02*
X0107684Y0122820D01*
X0108000Y0123818D02*
X0116220Y0123818D01*
X0116741Y0124817D02*
X0104000Y0124817D01*
X0108000Y0125815D02*
X0117739Y0125815D01*
X0120565Y0127812D02*
X0135654Y0127812D01*
X0135416Y0128811D02*
X0121564Y0128811D01*
X0122562Y0129809D02*
X0135497Y0129809D01*
X0135946Y0130808D02*
X0123561Y0130808D01*
X0129412Y0131806D02*
X0136200Y0131806D01*
X0136200Y0132805D02*
X0131186Y0132805D01*
X0132044Y0133803D02*
X0136200Y0133803D01*
X0136200Y0134802D02*
X0132458Y0134802D01*
X0132600Y0135801D02*
X0136200Y0135801D01*
X0136200Y0136799D02*
X0132600Y0136799D01*
X0132210Y0137798D02*
X0136200Y0137798D01*
X0136200Y0138796D02*
X0131585Y0138796D01*
X0121624Y0141792D02*
X0053800Y0141792D01*
X0053800Y0142790D02*
X0119829Y0142790D01*
X0118962Y0143789D02*
X0053800Y0143789D01*
X0053800Y0144787D02*
X0118548Y0144787D01*
X0118400Y0145786D02*
X0053800Y0145786D01*
X0053800Y0146784D02*
X0118400Y0146784D01*
X0118784Y0147783D02*
X0053800Y0147783D01*
X0053800Y0148781D02*
X0119400Y0148781D01*
X0120589Y0149780D02*
X0053800Y0149780D01*
X0053800Y0150778D02*
X0136200Y0150778D01*
X0136200Y0151777D02*
X0053800Y0151777D01*
X0053800Y0152775D02*
X0136200Y0152775D01*
X0136200Y0153774D02*
X0129333Y0153774D01*
X0131153Y0154772D02*
X0136200Y0154772D01*
X0135671Y0155771D02*
X0132523Y0155771D01*
X0133522Y0156769D02*
X0135416Y0156769D01*
X0135480Y0157768D02*
X0134520Y0157768D01*
X0135519Y0158766D02*
X0135904Y0158766D01*
X0136517Y0159765D02*
X0137115Y0159765D01*
X0134006Y0163759D02*
X0129297Y0163759D01*
X0131138Y0164757D02*
X0135005Y0164757D01*
X0135200Y0165756D02*
X0132025Y0165756D01*
X0132438Y0166754D02*
X0134573Y0166754D01*
X0133633Y0167753D02*
X0132600Y0167753D01*
X0132600Y0168751D02*
X0132693Y0168751D01*
X0128934Y0172745D02*
X0087498Y0172745D01*
X0086500Y0171747D02*
X0120509Y0171747D01*
X0119367Y0170748D02*
X0111924Y0170748D01*
X0109076Y0170748D02*
X0085501Y0170748D01*
X0084503Y0169750D02*
X0107888Y0169750D01*
X0107473Y0168751D02*
X0083504Y0168751D01*
X0082506Y0167753D02*
X0107416Y0167753D01*
X0107678Y0166754D02*
X0081507Y0166754D01*
X0080509Y0165756D02*
X0108382Y0165756D01*
X0118777Y0159765D02*
X0055017Y0159765D01*
X0054019Y0158766D02*
X0118400Y0158766D01*
X0118400Y0157768D02*
X0053800Y0157768D01*
X0053800Y0156769D02*
X0118555Y0156769D01*
X0118969Y0155771D02*
X0053800Y0155771D01*
X0053800Y0154772D02*
X0119847Y0154772D01*
X0121667Y0153774D02*
X0053800Y0153774D01*
X0056016Y0160763D02*
X0119382Y0160763D01*
X0120545Y0161762D02*
X0057014Y0161762D01*
X0058013Y0162760D02*
X0133008Y0162760D01*
X0132009Y0161762D02*
X0130455Y0161762D01*
X0121703Y0163759D02*
X0059012Y0163759D01*
X0077997Y0169750D02*
X0003000Y0169750D01*
X0003000Y0170748D02*
X0078996Y0170748D01*
X0079994Y0171747D02*
X0003000Y0171747D01*
X0003000Y0172745D02*
X0080993Y0172745D01*
X0081991Y0173744D02*
X0003000Y0173744D01*
X0003000Y0174742D02*
X0082990Y0174742D01*
X0083988Y0175741D02*
X0003000Y0175741D01*
X0003000Y0176739D02*
X0084987Y0176739D01*
X0085985Y0177738D02*
X0003000Y0177738D01*
X0003000Y0164757D02*
X0032848Y0164757D01*
X0030437Y0163759D02*
X0003000Y0163759D01*
X0003000Y0162760D02*
X0029231Y0162760D01*
X0028232Y0161762D02*
X0003000Y0161762D01*
X0003000Y0160763D02*
X0027617Y0160763D01*
X0027203Y0159765D02*
X0003000Y0159765D01*
X0003000Y0158766D02*
X0026790Y0158766D01*
X0026701Y0157768D02*
X0003000Y0157768D01*
X0003000Y0156769D02*
X0026701Y0156769D01*
X0026701Y0155771D02*
X0003000Y0155771D01*
X0003000Y0154772D02*
X0026981Y0154772D01*
X0027395Y0153774D02*
X0003000Y0153774D01*
X0003000Y0152775D02*
X0027808Y0152775D01*
X0028694Y0151777D02*
X0003000Y0151777D01*
X0003000Y0150778D02*
X0029692Y0150778D01*
X0031551Y0149780D02*
X0003000Y0149780D01*
X0003000Y0118826D02*
X0005750Y0118826D01*
X0004751Y0117827D02*
X0003000Y0117827D01*
X0003000Y0116829D02*
X0003850Y0116829D01*
X0003850Y0115830D02*
X0003000Y0115830D01*
X0003000Y0114832D02*
X0003850Y0114832D01*
X0003850Y0113833D02*
X0003000Y0113833D01*
X0003000Y0112835D02*
X0004089Y0112835D01*
X0005088Y0111836D02*
X0003000Y0111836D01*
X0003000Y0110838D02*
X0006086Y0110838D01*
X0004228Y0105845D02*
X0003000Y0105845D01*
X0003000Y0104847D02*
X0004228Y0104847D01*
X0004228Y0103848D02*
X0003000Y0103848D01*
X0008114Y0101851D02*
X0008886Y0101851D01*
X0008886Y0100853D02*
X0008114Y0100853D01*
X0008114Y0099854D02*
X0008886Y0099854D01*
X0008886Y0098856D02*
X0008114Y0098856D01*
X0011359Y0096859D02*
X0011530Y0096859D01*
X0013937Y0084876D02*
X0016548Y0084876D01*
X0018211Y0080882D02*
X0019000Y0080882D01*
X0019252Y0079884D02*
X0014252Y0079884D01*
X0013739Y0078885D02*
X0020251Y0078885D01*
X0021249Y0077887D02*
X0012741Y0077887D01*
X0009500Y0062000D02*
X0025500Y0062000D01*
X0029500Y0066000D01*
X0032380Y0072894D02*
X0053075Y0072894D01*
X0052449Y0071896D02*
X0046433Y0071896D01*
X0047431Y0070897D02*
X0052035Y0070897D01*
X0052031Y0069899D02*
X0048430Y0069899D01*
X0049428Y0068900D02*
X0052119Y0068900D01*
X0052532Y0067902D02*
X0050427Y0067902D01*
X0051425Y0066903D02*
X0053277Y0066903D01*
X0052424Y0065905D02*
X0054710Y0065905D01*
X0053422Y0064906D02*
X0069500Y0064906D01*
X0069500Y0065905D02*
X0068305Y0065905D01*
X0055500Y0075000D02*
X0030500Y0075000D01*
X0029500Y0074000D01*
X0039500Y0063000D02*
X0047500Y0063000D01*
X0050387Y0061911D02*
X0050761Y0061911D01*
X0049774Y0060912D02*
X0051759Y0060912D01*
X0043500Y0060000D02*
X0025500Y0042000D01*
X0009500Y0042000D01*
X0009500Y0052000D02*
X0028500Y0052000D01*
X0039500Y0063000D01*
X0058000Y0080882D02*
X0058554Y0080882D01*
X0058000Y0081881D02*
X0059552Y0081881D01*
X0075702Y0110838D02*
X0081298Y0110838D01*
X0080300Y0111836D02*
X0076700Y0111836D01*
X0077699Y0112835D02*
X0079301Y0112835D01*
X0079000Y0113833D02*
X0078000Y0113833D01*
X0078000Y0114832D02*
X0079000Y0114832D01*
X0079000Y0115830D02*
X0078000Y0115830D01*
X0078000Y0116829D02*
X0079000Y0116829D01*
X0079963Y0117827D02*
X0077037Y0117827D01*
X0076038Y0118826D02*
X0080962Y0118826D01*
X0081313Y0120823D02*
X0075687Y0120823D01*
X0076685Y0121821D02*
X0080315Y0121821D01*
X0079316Y0122820D02*
X0077684Y0122820D01*
X0078000Y0123818D02*
X0079000Y0123818D01*
X0079000Y0124817D02*
X0078000Y0124817D01*
X0078000Y0125815D02*
X0079000Y0125815D01*
X0079000Y0126814D02*
X0078000Y0126814D01*
X0077052Y0127812D02*
X0079948Y0127812D01*
X0080947Y0128811D02*
X0076053Y0128811D01*
X0070947Y0128811D02*
X0053800Y0128811D01*
X0053800Y0127812D02*
X0069948Y0127812D01*
X0069000Y0126814D02*
X0053800Y0126814D01*
X0053800Y0125815D02*
X0069000Y0125815D01*
X0069000Y0124817D02*
X0053800Y0124817D01*
X0053800Y0123818D02*
X0069000Y0123818D01*
X0069316Y0122820D02*
X0053800Y0122820D01*
X0053800Y0121821D02*
X0070315Y0121821D01*
X0096700Y0111836D02*
X0100300Y0111836D01*
X0099301Y0112835D02*
X0097699Y0112835D01*
X0098000Y0113833D02*
X0099000Y0113833D01*
X0108000Y0126814D02*
X0136324Y0126814D01*
X0119862Y0164757D02*
X0079510Y0164757D01*
X0088497Y0173744D02*
X0127994Y0173744D01*
X0127055Y0174742D02*
X0089495Y0174742D01*
X0090494Y0175741D02*
X0126115Y0175741D01*
X0125175Y0176739D02*
X0091492Y0176739D01*
X0091800Y0177738D02*
X0124235Y0177738D01*
X0123295Y0178737D02*
X0091800Y0178737D01*
X0091800Y0179735D02*
X0110037Y0179735D01*
X0108402Y0180734D02*
X0092597Y0180734D01*
X0093431Y0181732D02*
X0107569Y0181732D01*
X0107155Y0182731D02*
X0093845Y0182731D01*
X0094000Y0183729D02*
X0107000Y0183729D01*
X0107000Y0184728D02*
X0094000Y0184728D01*
X0093656Y0185726D02*
X0107344Y0185726D01*
X0107861Y0186725D02*
X0093139Y0186725D01*
X0092141Y0187723D02*
X0108859Y0187723D01*
X0114141Y0187723D02*
X0114524Y0187723D01*
X0115139Y0186725D02*
X0115523Y0186725D01*
X0115656Y0185726D02*
X0116521Y0185726D01*
X0117000Y0184728D02*
X0116000Y0184728D01*
X0116000Y0183729D02*
X0117000Y0183729D01*
X0117155Y0182731D02*
X0115845Y0182731D01*
X0115431Y0181732D02*
X0117569Y0181732D01*
X0118402Y0180734D02*
X0114597Y0180734D01*
X0112962Y0179735D02*
X0120037Y0179735D01*
X0086402Y0180734D02*
X0082597Y0180734D01*
X0083431Y0181732D02*
X0085569Y0181732D01*
X0085155Y0182731D02*
X0083845Y0182731D01*
X0084000Y0183729D02*
X0085000Y0183729D01*
X0085000Y0184728D02*
X0084000Y0184728D01*
X0083656Y0185726D02*
X0085344Y0185726D01*
X0085861Y0186725D02*
X0083139Y0186725D01*
X0082141Y0187723D02*
X0086859Y0187723D01*
X0004228Y0190719D02*
X0003000Y0190719D01*
X0003000Y0191717D02*
X0004228Y0191717D01*
X0004228Y0192716D02*
X0003000Y0192716D01*
X0003000Y0193714D02*
X0004228Y0193714D01*
X0004228Y0194713D02*
X0003000Y0194713D01*
X0003000Y0195711D02*
X0004228Y0195711D01*
X0158500Y0047000D02*
X0158500Y0034000D01*
X0154500Y0030000D01*
X0158500Y0047000D02*
X0161500Y0050000D01*
X0175500Y0050000D01*
X0032100Y0025964D02*
X0026900Y0025964D01*
X0027898Y0024966D02*
X0031102Y0024966D01*
X0030103Y0023967D02*
X0028897Y0023967D01*
X0029000Y0022969D02*
X0030000Y0022969D01*
X0030000Y0021970D02*
X0025000Y0021970D01*
X0025000Y0021500D02*
X0029000Y0021500D01*
X0029000Y0020136D01*
X0026364Y0017500D01*
X0025000Y0017500D01*
X0025000Y0021500D01*
X0025000Y0020972D02*
X0024000Y0020972D01*
X0024000Y0019973D02*
X0025000Y0019973D01*
X0025000Y0018975D02*
X0024000Y0018975D01*
X0024000Y0017976D02*
X0025000Y0017976D01*
X0026840Y0017976D02*
X0032160Y0017976D01*
X0031161Y0018975D02*
X0027839Y0018975D01*
X0028837Y0019973D02*
X0030163Y0019973D01*
X0030000Y0020972D02*
X0029000Y0020972D01*
X0026885Y0015979D02*
X0032115Y0015979D01*
X0031117Y0014981D02*
X0027883Y0014981D01*
X0028882Y0013982D02*
X0030118Y0013982D01*
X0030000Y0012984D02*
X0029000Y0012984D01*
X0029000Y0011985D02*
X0030000Y0011985D01*
X0030000Y0010987D02*
X0029000Y0010987D01*
X0028852Y0009988D02*
X0030148Y0009988D01*
X0031146Y0008990D02*
X0027854Y0008990D01*
X0026855Y0007991D02*
X0032145Y0007991D01*
X0022115Y0015979D02*
X0018551Y0015979D01*
X0019293Y0014981D02*
X0021117Y0014981D01*
X0020118Y0013982D02*
X0019707Y0013982D01*
X0020000Y0022969D02*
X0014700Y0022969D01*
X0014314Y0023967D02*
X0020103Y0023967D01*
X0021102Y0024966D02*
X0013888Y0024966D01*
X0007893Y0026963D02*
X0003000Y0026963D01*
X0003000Y0027961D02*
X0006212Y0027961D01*
X0005281Y0028960D02*
X0003000Y0028960D01*
X0003000Y0029958D02*
X0004704Y0029958D01*
X0004400Y0030957D02*
X0003000Y0030957D01*
X0003000Y0025964D02*
X0006110Y0025964D01*
X0005112Y0024966D02*
X0003000Y0024966D01*
X0003000Y0023967D02*
X0004686Y0023967D01*
X0004300Y0022969D02*
X0003000Y0022969D01*
X0003000Y0021970D02*
X0004300Y0021970D01*
X0004300Y0020972D02*
X0003000Y0020972D01*
X0003000Y0019973D02*
X0004711Y0019973D01*
X0005171Y0018975D02*
X0003000Y0018975D01*
X0003000Y0017976D02*
X0006170Y0017976D01*
X0007448Y0016978D02*
X0003000Y0016978D01*
X0003000Y0015979D02*
X0006449Y0015979D01*
X0005707Y0014981D02*
X0003000Y0014981D01*
X0003000Y0013982D02*
X0005293Y0013982D01*
X0004880Y0012984D02*
X0003000Y0012984D01*
X0003000Y0011985D02*
X0004701Y0011985D01*
X0004701Y0010987D02*
X0003000Y0010987D01*
X0003000Y0009988D02*
X0004701Y0009988D01*
X0004891Y0008990D02*
X0003000Y0008990D01*
X0003000Y0007991D02*
X0005305Y0007991D01*
X0005718Y0006993D02*
X0003000Y0006993D01*
X0003000Y0005994D02*
X0006476Y0005994D01*
X0007475Y0004996D02*
X0003000Y0004996D01*
X0003000Y0003997D02*
X0009026Y0003997D01*
D23*
X0043500Y0060000D03*
X0047500Y0063000D03*
X0029500Y0066000D03*
X0029500Y0074000D03*
X0069000Y0087000D03*
X0088000Y0080500D03*
X0108500Y0098000D03*
X0138500Y0129000D03*
X0151500Y0106000D03*
X0175122Y0106000D03*
X0183500Y0094000D03*
X0143500Y0080000D03*
X0101500Y0038000D03*
X0106500Y0030000D03*
X0116500Y0026000D03*
X0126500Y0023000D03*
X0136500Y0020000D03*
X0146500Y0017000D03*
X0156500Y0014500D03*
X0095500Y0046000D03*
X0138500Y0157000D03*
X0110500Y0168000D03*
X0180500Y0175000D03*
D24*
X0142760Y0177000D02*
X0136941Y0177000D01*
X0137500Y0167000D02*
X0121500Y0184000D01*
X0111500Y0194000D01*
X0072500Y0194000D01*
X0062500Y0184000D01*
X0059000Y0167000D02*
X0078500Y0167000D01*
X0089500Y0178000D01*
X0089500Y0184000D01*
X0110500Y0168000D02*
X0125500Y0168000D01*
X0125500Y0158000D02*
X0131500Y0158000D01*
X0137500Y0164000D01*
X0137500Y0167000D01*
X0138500Y0157000D02*
X0138500Y0129000D01*
X0125500Y0136000D02*
X0119500Y0130000D01*
X0097500Y0130000D01*
X0093500Y0126000D01*
X0093500Y0125000D01*
X0093900Y0103500D02*
X0093400Y0103000D01*
X0062100Y0103000D01*
X0062500Y0103100D01*
X0051500Y0103100D02*
X0051500Y0115000D01*
X0062500Y0115000D01*
X0051500Y0115000D02*
X0051500Y0159500D01*
X0059000Y0167000D01*
X0120500Y0122000D02*
X0129500Y0113000D01*
X0129500Y0109000D01*
X0138500Y0100000D01*
X0139500Y0099000D01*
X0144500Y0099000D01*
X0140500Y0099000D01*
X0138500Y0097000D01*
X0138500Y0100000D01*
X0138500Y0097000D02*
X0138500Y0085000D01*
X0143500Y0080000D01*
X0099500Y0103500D02*
X0093900Y0103500D01*
X0086500Y0070000D02*
X0083500Y0067000D01*
X0083500Y0058000D01*
X0095500Y0046000D01*
D25*
X0136941Y0177000D03*
D26*
X0099500Y0103500D03*
M02*
